<svg xmlns="http://www.w3.org/2000/svg" width="751" height="200" fill="none" viewBox="0 0 751 200">
    <path fill="url(#paint0_linear)" fill-rule="evenodd" d="M0 29.31l5.976 11.957c7.968 13.043 19.92 36.956 33.865 47.825 11.952 9.782 25.896 5.435 39.84-6.522 11.953-11.956 25.897-32.608 39.842-30.434 11.952 2.174 25.896 26.087 37.848 38.043 13.945 13.043 27.889 13.043 39.841 8.695 13.944-4.347 25.897-11.956 39.841-20.651 13.944-7.609 25.897-16.304 39.841-22.826 13.944-5.435 25.896-9.783 39.841-5.435 11.952 4.348 25.896 16.304 39.841 26.087 11.952 10.87 25.896 18.478 37.848 13.043 13.945-6.522 27.889-27.173 39.841-31.521 13.945-3.261 25.897 8.695 39.841 13.043 13.944 3.26 25.897 0 39.841-10.87 13.944-9.782 25.897-26.086 39.841-32.608 11.952-6.521 25.896-2.173 39.841 9.783 11.952 13.043 25.896 33.695 37.848 36.956 13.945 4.348 27.889-7.609 39.841-3.261 13.945 3.26 27.889 23.913 39.841 30.434 13.944 5.435 25.897-2.174 33.865-6.521L751 90.179V200H0V29.31z" clip-rule="evenodd"/>
    <defs>
        <linearGradient id="paint0_linear" x1="375.5" x2="375.5" y1="24.107" y2="200" gradientUnits="userSpaceOnUse">
            <stop stop-color="#F2C9C8"/>
            <stop offset=".854" stop-color="#F2C9C8" stop-opacity="0"/>
        </linearGradient>
    </defs>
</svg>
