<svg width="48" height="48" viewBox="0 0 48 48" fill="none" xmlns="http://www.w3.org/2000/svg">
<path d="M0 24C0 10.7452 10.7452 0 24 0C37.2548 0 48 10.7452 48 24C48 37.2548 37.2548 48 24 48C10.7452 48 0 37.2548 0 24Z" fill="#FF6600"/>
<path d="M39.6572 20.8637C39.7488 20.8637 39.8861 20.8637 39.9777 20.8637C39.9777 20.3182 39.9777 19.7728 39.9777 19.2273C40.1609 19.2273 40.3899 19.2273 40.573 19.2273C40.573 19.1364 40.573 19.0455 40.573 18.9546C40.0693 18.9546 39.5656 18.9546 39.0619 18.9546C39.0619 19.0455 39.0619 19.1364 39.0619 19.2273C39.2451 19.2273 39.474 19.2273 39.6572 19.2273C39.6572 19.8182 39.6572 20.3182 39.6572 20.8637Z" fill="white"/>
<path d="M41.2599 19.3182C41.4889 19.8182 41.672 20.3182 41.8552 20.8636C41.901 20.8636 41.9926 20.8636 42.0841 20.8636C42.2673 20.3636 42.4963 19.8182 42.6794 19.3182C42.6794 19.8182 42.6794 20.3636 42.6794 20.8636C42.771 20.8636 42.9084 20.8636 43 20.8636C43 20.2273 43 19.6364 43 19C42.8168 19 42.6794 19 42.4963 19C42.3131 19.4545 42.1299 19.9545 41.9468 20.4091C41.7636 19.9545 41.5804 19.4545 41.3973 19C41.2141 19 41.0767 19 40.8936 19C40.8936 19.6364 40.8936 20.2273 40.8936 20.8636C40.9851 20.8636 41.1225 20.8636 41.2141 20.8636C41.2599 20.3636 41.2599 19.8636 41.2599 19.3182Z" fill="white"/>
<path d="M7.64851 26.7273C8.24381 26.9546 8.8849 27 9.4802 26.8636C10.0297 26.7273 10.5792 26.4546 10.9455 26C11.2661 25.5909 11.495 25.0909 11.5408 24.5909C11.6324 24 11.5866 23.3636 11.4493 22.8182C11.2661 22.2727 10.9455 21.7727 10.4876 21.4546C9.93812 21.0909 9.29703 20.9546 8.61015 21C7.83168 21.0455 7.05322 21.3636 6.5495 22.0455C6.13738 22.5909 6 23.2727 6 23.9546C6 24.5909 6.13738 25.2273 6.45792 25.7727C6.73267 26.1818 7.1448 26.5455 7.64851 26.7273ZM7.51114 23.8636C7.51114 23.4546 7.60272 23.0455 7.83168 22.7273C8.01485 22.4546 8.2896 22.3182 8.61015 22.2727C8.97649 22.2273 9.38861 22.2727 9.66337 22.5455C9.93812 22.7727 10.0755 23.1364 10.1213 23.4546C10.1671 23.8182 10.1671 24.2273 10.1213 24.5909C10.0755 24.9091 9.89233 25.2727 9.61757 25.4546C9.29703 25.6818 8.8849 25.7273 8.51856 25.6364C8.19802 25.5909 7.96906 25.3636 7.78589 25.1364C7.51114 24.7727 7.46535 24.3182 7.51114 23.8636Z" fill="white"/>
<path d="M14.151 26.8182C14.151 25.5454 14.151 24.3182 14.151 23.0454C14.2426 22.8636 14.3799 22.7273 14.5631 22.6364C14.9294 22.4545 15.3874 22.4545 15.7995 22.4545C15.7995 22 15.7995 21.5 15.7995 21.0454C15.1126 21 14.4715 21.3182 14.0594 21.8182C14.0594 21.5909 14.0594 21.3636 14.0594 21.1818C13.6015 21.1818 13.0978 21.1818 12.6398 21.1818C12.6398 23.0454 12.6398 24.9545 12.6398 26.8182C13.1435 26.8182 13.6473 26.8182 14.151 26.8182Z" fill="white"/>
<path d="M17.0817 26.6818C17.4938 26.8637 17.9975 26.8637 18.4555 26.8182C18.9134 26.7273 19.3713 26.5455 19.7376 26.3182C19.7834 26.5 19.8292 26.6364 19.875 26.8182C20.3329 26.8182 20.7451 26.8182 21.203 26.8182C21.203 25.5 21.203 24.1818 21.203 22.9091C21.2488 22.5455 21.1572 22.1364 20.9282 21.8182C20.6077 21.4091 20.104 21.1818 19.6003 21.1364C19.005 21.0455 18.3639 21.0455 17.8144 21.2727C17.3107 21.4546 16.8527 21.7727 16.5322 22.2273C16.8527 22.4091 17.2191 22.5909 17.5396 22.8182C17.8144 22.4546 18.2723 22.2273 18.7302 22.1818C19.0508 22.1364 19.4629 22.1818 19.6918 22.4546C19.875 22.6364 19.8292 22.9091 19.8292 23.1364C19.0508 23.2273 18.2723 23.3637 17.5396 23.6818C17.1275 23.8637 16.7154 24.0909 16.4864 24.5C16.2116 24.9091 16.2116 25.5 16.349 25.9546C16.4406 26.1818 16.7154 26.5455 17.0817 26.6818ZM17.8144 24.6818C17.9517 24.4546 18.1807 24.3182 18.4097 24.2273C18.8218 24.0455 19.2797 23.9546 19.7376 23.9091C19.7376 24.3637 19.7376 24.7727 19.7376 25.2273C19.3713 25.5455 18.8676 25.8182 18.3639 25.8182C18.1807 25.8182 17.9975 25.7273 17.906 25.6364C17.677 25.4091 17.6312 25 17.8144 24.6818Z" fill="white"/>
<path d="M23.9047 22.7273C24.2711 22.4546 24.6832 22.1818 25.1411 22.0909C25.3701 22.0455 25.6448 22.0909 25.828 22.2727C26.0112 22.4546 26.0112 22.7273 26.0112 23C26.0112 24.2727 26.0112 25.5 26.0112 26.7727C26.5149 26.7727 27.0186 26.7727 27.5223 26.7727C27.5223 25.4546 27.5223 24.0909 27.5223 22.7727C27.5223 22.5 27.4765 22.2273 27.3849 22C27.2475 21.6818 27.0186 21.3637 26.698 21.2273C26.2401 21.0455 25.7364 21 25.2785 21.0909C24.729 21.1818 24.2711 21.5 23.8589 21.8182C23.8131 21.5909 23.7673 21.3637 23.7216 21.1364C23.3094 21.1818 22.8973 21.2273 22.4852 21.3182C22.4852 23.1364 22.4852 25 22.4852 26.8182C22.9889 26.8182 23.4926 26.8182 23.9963 26.8182C23.9047 25.4546 23.9047 24.0909 23.9047 22.7273Z" fill="white"/>
<path d="M32.5594 21.1364C32.5136 21.3636 32.4678 21.5454 32.4678 21.7727C32.3305 21.5 32.1015 21.3182 31.8267 21.2273C31.4604 21.0909 31.0483 21.0454 30.6819 21.0909C30.0866 21.1364 29.5371 21.4545 29.1708 21.9545C28.7129 22.5909 28.5755 23.3636 28.5755 24.0909C28.5755 24.7727 28.7129 25.5 29.1708 26.0454C29.5371 26.5 30.0408 26.7727 30.6361 26.8182C31.0483 26.8636 31.4604 26.8182 31.8267 26.6364C32.1015 26.5 32.2389 26.2727 32.422 26C32.422 26.2273 32.422 26.4545 32.422 26.7273C32.422 27.0454 32.3762 27.3636 32.1473 27.6364C31.9641 27.8636 31.6436 27.9545 31.323 27.9545C31.0025 27.9545 30.6819 27.9545 30.4072 27.7727C30.2698 27.6818 30.224 27.5454 30.1782 27.4091C29.6745 27.5 29.1708 27.5454 28.7129 27.6364C28.8045 28.0909 29.125 28.5 29.5371 28.6818C30.1782 29.0454 30.9109 29.0909 31.6436 29C32.2389 28.9545 32.9258 28.7727 33.3379 28.3182C33.75 27.9091 33.8416 27.3182 33.8416 26.7727C33.8416 24.9091 33.8416 23.0454 33.8416 21.1818C33.3837 21.1364 32.9715 21.1364 32.5594 21.1364ZM32.3305 24.4091C32.2847 24.7273 32.1931 25.0454 31.9641 25.2727C31.7809 25.5 31.4604 25.5909 31.1857 25.5454C30.9109 25.5454 30.6361 25.4545 30.453 25.2727C30.224 25 30.1324 24.6364 30.0866 24.3182C30.0408 23.9545 30.0408 23.6364 30.0866 23.2727C30.1324 22.9545 30.224 22.6364 30.453 22.4091C30.5904 22.2273 30.8193 22.1364 31.0025 22.0909C31.3688 22.0454 31.7352 22.1364 31.9641 22.4091C32.2389 22.7273 32.3762 23.1364 32.422 23.5454C32.3762 23.8182 32.3762 24.1364 32.3305 24.4091Z" fill="white"/>
<path d="M39.8403 22.6818C39.703 22.1818 39.3824 21.6818 38.8787 21.4091C38.3292 21.0455 37.5965 20.9546 36.9554 21.0455C36.3601 21.1364 35.7648 21.4091 35.3985 21.8637C34.9864 22.3637 34.8032 23 34.7574 23.6364C34.7116 24.3182 34.7574 25.0455 35.078 25.6364C35.3069 26.1364 35.719 26.5 36.2228 26.7273C36.8638 27 37.5965 27 38.2834 26.8637C38.9245 26.7273 39.5656 26.3182 39.8861 25.7273C39.5198 25.5455 39.1534 25.3182 38.7871 25.1364C38.6039 25.3637 38.4208 25.5909 38.146 25.7273C37.8713 25.8637 37.5049 25.9091 37.1844 25.8637C36.8638 25.8182 36.5891 25.6364 36.4059 25.3637C36.177 25.0455 36.1312 24.6364 36.1312 24.2728C37.3676 24.2728 38.6497 24.2728 39.8861 24.2728C40.0235 23.6818 39.9777 23.1818 39.8403 22.6818ZM36.2228 23.2273C36.2685 22.9091 36.3601 22.5909 36.5433 22.3637C36.7265 22.1818 37.0012 22.0455 37.276 22.0455C37.6423 22 38.0086 22.1364 38.2376 22.3637C38.4208 22.5909 38.5124 22.9091 38.5124 23.2273C37.7339 23.2273 37.0012 23.2273 36.2228 23.2273Z" fill="white"/>
</svg>
