<svg width="48" height="48" viewBox="0 0 48 48" fill="none" xmlns="http://www.w3.org/2000/svg">
<path d="M24 48C10.7 48 0 37.3 0 24C0 10.7 10.7 0 24 0C37.3 0 48 10.7 48 24C48 37.3 37.3 48 24 48Z" fill="black"/>
<path fill-rule="evenodd" clip-rule="evenodd" d="M21.65 15.25H13.85C12.95 15.25 12.25 15.95 12.25 16.85C12.25 17.75 12.95 18.45 13.85 18.45H17.85L11.45 24.85C10.85 25.45 10.85 26.45 11.45 27.05C12.05 27.65 13.05 27.65 13.65 27.05L20.05 20.65V24.65C20.05 25.55 20.75 26.25 21.65 26.25C22.55 26.25 23.25 25.55 23.25 24.65V16.85C23.25 15.95 22.55 15.25 21.65 15.25Z" fill="white"/>
<path fill-rule="evenodd" clip-rule="evenodd" d="M26.25 26.25H34.05C34.95 26.25 35.65 25.55 35.65 24.65C35.65 23.75 34.95 23.05 34.05 23.05H30.05L36.45 16.65C37.05 16.05 37.05 15.05 36.45 14.45C35.85 13.85 34.85 13.85 34.25 14.45L27.85 20.75V16.75C27.85 15.85 27.15 15.15 26.25 15.15C25.35 15.15 24.65 15.85 24.65 16.75V24.55C24.65 25.45 25.35 26.25 26.25 26.25Z" fill="#FF7900"/>
<path d="M11 31.4156C11 32.2033 11.4595 32.8312 12.2736 32.8312C13.0877 32.8312 13.5473 32.2033 13.5473 31.4156C13.5473 30.6279 13.0877 30 12.2736 30C11.4595 30 11 30.6279 11 31.4156ZM11.673 31.4156C11.673 31.0122 11.8394 30.6089 12.2736 30.6089C12.7078 30.6089 12.8743 31.0122 12.8743 31.4156C12.8743 31.819 12.7078 32.2223 12.2736 32.2223C11.8394 32.2223 11.673 31.819 11.673 31.4156Z" fill="#FF7900"/>
<path d="M13.9103 32.7741H14.5254V31.7961C14.5254 31.5488 14.6846 31.3281 14.9885 31.3281C15.0717 31.3281 15.1441 31.3433 15.2237 31.3661V30.7763C15.1767 30.7649 15.126 30.7611 15.079 30.7611C14.8148 30.7611 14.605 30.8943 14.5145 31.1454H14.5073V30.7991H13.9103V32.7741Z" fill="#FF7900"/>
<path d="M15.9429 32.2071C15.9429 32.0511 16.0587 31.9902 16.1962 31.9559C16.3301 31.9179 16.4893 31.9065 16.5761 31.8494C16.5906 32.2566 16.4929 32.4316 16.1998 32.4316C16.0623 32.4316 15.9429 32.3669 15.9429 32.2071ZM15.9791 31.408C16.0081 31.2405 16.1166 31.1606 16.2867 31.1606C16.4133 31.1606 16.5834 31.2177 16.5834 31.3661C16.5834 31.4879 16.5255 31.5259 16.4206 31.5488C15.9936 31.6401 15.3278 31.5906 15.3278 32.2337C15.3278 32.6409 15.6101 32.8312 15.9683 32.8312C16.1926 32.8312 16.4278 32.7627 16.587 32.5876C16.5942 32.6523 16.6015 32.7132 16.6232 32.7741H17.2419C17.1695 32.6181 17.1695 32.4354 17.1695 32.268V31.4042C17.1695 30.8448 16.739 30.742 16.2939 30.742C16.0804 30.742 15.8633 30.7801 15.6969 30.879C15.5305 30.9818 15.4147 31.1492 15.4038 31.408H15.9791Z" fill="#FF7900"/>
<path d="M17.574 32.7741H18.1891V31.6972C18.1891 31.4803 18.2904 31.2748 18.522 31.2748C18.8585 31.2748 18.8295 31.5488 18.8295 31.819V32.7741H19.4446V31.5069C19.4446 31.2215 19.394 30.742 18.768 30.742C18.5437 30.742 18.2904 30.8676 18.1782 31.0693H18.171V30.7991H17.574V32.7741Z" fill="#FF7900"/>
<path d="M21.0869 31.7352C21.0869 31.9826 20.9747 32.1957 20.7142 32.1957C20.4609 32.1957 20.3596 31.9636 20.3596 31.7314C20.3596 31.4879 20.4465 31.2367 20.7178 31.2367C20.9928 31.2367 21.0869 31.4841 21.0869 31.7352ZM21.6694 30.7991H21.0797V31.0465H21.0724C20.9639 30.8448 20.7938 30.742 20.5695 30.742C20.0376 30.742 19.7445 31.1835 19.7445 31.7086C19.7445 32.2642 20.0014 32.6904 20.5695 32.6904C20.7685 32.6904 20.9566 32.5838 21.0688 32.4012H21.076V32.5876C21.076 32.8312 21.0471 33.0481 20.754 33.0481C20.6599 33.0481 20.5839 33.0367 20.5297 33.0062C20.4718 32.9758 20.4392 32.9225 20.4247 32.835H19.8096C19.882 33.3639 20.2945 33.4667 20.7323 33.4667C21.6115 33.4667 21.6694 32.8578 21.6694 32.5344V30.7991Z" fill="#FF7900"/>
<path d="M22.5897 31.583C22.6258 31.3433 22.7706 31.1797 22.9877 31.1797C23.1939 31.1797 23.3423 31.3623 23.3531 31.583H22.5897ZM23.9682 31.9445C23.9972 31.2748 23.6607 30.742 22.9877 30.742C22.4341 30.742 21.9746 31.1759 21.9746 31.7809C21.9746 32.443 22.3907 32.8312 23.0021 32.8312C23.4219 32.8312 23.8235 32.6333 23.9357 32.1767H23.3604C23.3025 32.3213 23.1577 32.3936 23.0094 32.3936C22.7489 32.3936 22.6005 32.2147 22.5897 31.9445H23.9682Z" fill="#FF7900"/>
<path d="M25.2105 32.7741H25.8437V30.7116H25.8509L26.3937 32.7741H26.9075L27.4502 30.7116H27.4574V32.7741H28.0906V30.0571H27.0992L26.6542 31.8684H26.6469L26.2019 30.0571H25.2105V32.7741Z" fill="#FF7900"/>
<path d="M29.0559 31.7885C29.0559 31.5374 29.1428 31.2367 29.4286 31.2367C29.7145 31.2367 29.8049 31.5374 29.8049 31.7885C29.8049 32.0397 29.7145 32.3365 29.4286 32.3365C29.1428 32.3365 29.0559 32.0397 29.0559 31.7885ZM28.4408 31.7885C28.4408 32.3821 28.8461 32.8312 29.4286 32.8312C30.0111 32.8312 30.42 32.3821 30.42 31.7885C30.42 31.1949 30.0111 30.742 29.4286 30.742C28.8461 30.742 28.4408 31.1949 28.4408 31.7885Z" fill="#FF7900"/>
<path d="M30.7432 32.7741H31.3583V31.6972C31.3583 31.4803 31.4597 31.2748 31.6912 31.2748C32.0277 31.2748 31.9988 31.5488 31.9988 31.819V32.7741H32.6139V31.5069C32.6139 31.2215 32.5632 30.742 31.9373 30.742C31.7129 30.742 31.4597 30.8676 31.3475 31.0693H31.3402V30.7991H30.7432V32.7741Z" fill="#FF7900"/>
<path d="M33.547 31.583C33.5832 31.3433 33.7279 31.1797 33.945 31.1797C34.1512 31.1797 34.2996 31.3623 34.3104 31.583H33.547ZM34.9255 31.9445C34.9545 31.2748 34.618 30.742 33.945 30.742C33.3914 30.742 32.9319 31.1759 32.9319 31.7809C32.9319 32.443 33.348 32.8312 33.9595 32.8312C34.3792 32.8312 34.7808 32.6333 34.893 32.1767H34.3177C34.2598 32.3213 34.115 32.3936 33.9667 32.3936C33.7062 32.3936 33.5578 32.2147 33.547 31.9445H34.9255Z" fill="#FF7900"/>
<path d="M37 30.7991H36.3704L36.0158 32.0853H36.0086L35.654 30.7991H35.0027L35.4876 32.1729C35.5237 32.2794 35.6431 32.5838 35.6431 32.6904C35.6431 32.8274 35.5382 32.9111 35.3971 32.9111H35.1836V33.4362H35.4731C35.8892 33.4362 36.1099 33.3829 36.2583 32.9491L37 30.7991Z" fill="#FF7900"/>
</svg>
