<svg width="48" height="48" viewBox="0 0 48 48" fill="none" xmlns="http://www.w3.org/2000/svg">
<path d="M24 48C10.7 48 0 37.3 0 24C0 10.7 10.7 0 24 0C37.3 0 48 10.7 48 24C48 37.3 37.3 48 24 48Z" fill="white"/>
<g clip-path="url(#clip0)">
<path d="M42 36.836V34.1293C42 32.8991 41.207 32.1609 39.7797 32.1609C39.304 32.1609 38.9075 32.3249 38.5903 32.489C37.0837 31.8328 35.8943 32.2429 35.3392 32.653V36.918H36.5286V33.3912C36.5286 33.3912 36.6079 33.3092 37.0044 33.3092C37.7181 33.3092 38.0352 33.6372 38.0352 34.3754V37H39.2247V33.9653C39.2247 33.7192 39.1454 33.5552 39.1454 33.5552C39.1454 33.5552 39.4626 33.3912 39.7004 33.3912C40.4141 33.3912 40.7313 33.7192 40.7313 34.4574V37.082L42 36.836ZM34.7048 34.6215C34.7048 33.2271 33.8326 32.2429 32.4053 32.2429C30.978 32.2429 30.1057 33.3092 30.1057 34.6215C30.1057 36.4259 31.4537 37 32.4053 37C34.1498 37 34.7048 35.5237 34.7048 34.6215ZM33.4361 34.6215C33.4361 35.4416 32.9604 35.9338 32.4053 35.9338C31.8502 35.9338 31.3744 35.4416 31.3744 34.6215C31.3744 33.8833 31.6916 33.2271 32.4053 33.2271C33.0396 33.2271 33.4361 33.8833 33.4361 34.6215ZM27.2511 34.5394C27.2511 33.3912 28.1233 33.2271 28.3612 33.2271C28.9956 33.2271 29.4714 33.5552 29.4714 33.5552L29.7092 32.489C29.63 32.489 29.0749 32.1609 28.3612 32.1609C26.5374 32.1609 25.9824 33.7192 25.9824 34.5394C25.9824 35.8517 26.8546 36.918 28.4405 36.918C29.0749 36.918 29.7885 36.5899 29.7885 36.5899L29.4714 35.6057C29.4714 35.6057 28.9163 35.8517 28.5198 35.8517C27.7269 35.9338 27.2511 35.4416 27.2511 34.5394ZM24.3172 36.836H25.4273V32.489C25.0308 32.3249 24.2379 32.1609 23.5242 32.1609C22.0176 32.1609 20.9868 33.2271 20.9868 34.6215C20.9868 36.3439 22.2555 36.918 23.0485 36.918C23.6035 36.918 24 36.6719 24.2379 36.4259L24.3172 36.836ZM24.1586 35.4416C24 35.6877 23.6828 35.9338 23.2863 35.9338C22.8106 35.9338 22.2555 35.6057 22.2555 34.6215C22.2555 33.7192 22.8899 33.2271 23.4449 33.2271C23.7621 33.2271 24 33.3092 24.1586 33.3092V35.4416ZM18.5286 37C19.2423 37 19.8767 36.918 20.4317 36.836V30.5205H19.2423V32.4069C19.0044 32.3249 18.6872 32.2429 18.2907 32.2429C16.9427 32.2429 16.0705 33.3092 16.0705 34.6215C16.0705 36.6719 17.6564 37 18.5286 37ZM18.6079 35.9338C18.0529 35.9338 17.3392 35.6057 17.3392 34.5394C17.3392 33.8013 17.7357 33.2271 18.37 33.2271C18.7665 33.2271 19.0044 33.3092 19.2423 33.4732V35.9338C19.0837 35.9338 18.8458 35.9338 18.6079 35.9338ZM15.5947 34.6215C15.5947 33.2271 14.7225 32.2429 13.2952 32.2429C11.8678 32.2429 10.9956 33.3092 10.9956 34.6215C10.9956 36.4259 12.3436 37 13.2952 37C15.0396 37 15.5947 35.5237 15.5947 34.6215ZM14.2467 34.6215C14.2467 35.4416 13.8502 35.9338 13.2159 35.9338C12.6608 35.9338 12.185 35.4416 12.185 34.6215C12.185 33.8833 12.5022 33.2271 13.2159 33.2271C13.9295 33.2271 14.2467 33.8833 14.2467 34.6215ZM9.17181 36.836L10.9163 32.3249H9.56828L8.53744 35.2776L7.42731 32.3249H6L7.82379 36.918L9.17181 36.836Z" fill="#DA1F27"/>
<path d="M32.4846 19.776C32.4846 24.6151 28.6784 28.552 24 28.552C19.3216 28.552 15.5154 24.6972 15.5154 19.776C15.5154 14.9369 19.3216 11 24 11C25.0308 11 26.0617 11.164 27.0132 11.5741C26.9339 11.5741 26.8546 11.5741 26.7753 11.5741C26.696 11.5741 26.5374 11.5741 26.4581 11.5741C26.141 11.5741 25.8238 11.6562 25.5066 11.7382C25.4273 11.8202 25.0308 11.9022 25.0308 11.9022C24.793 11.9842 24.5551 12.0662 24.3172 12.1483C23.4449 12.4763 22.5727 12.9685 21.859 13.6246C20.6696 14.6909 19.7181 16.1672 19.3216 17.8076C19.2423 18.2177 19.163 18.7098 19.163 19.1199V19.2019V19.4479C19.163 19.694 19.163 19.9401 19.163 20.1041C19.163 20.4322 19.2423 20.6782 19.3216 21.0063V21.0883C19.4802 21.5804 19.7181 22.1546 19.9559 22.5647C20.1145 22.8927 20.3524 23.1388 20.5903 23.3849C21.2247 24.041 21.9383 24.5331 22.8106 24.6972C23.0485 24.7792 23.2863 24.8612 23.6035 24.8612C23.7621 24.8612 23.9207 24.8612 24.0793 24.8612C24.5551 24.8612 24.9515 24.7792 25.4273 24.6972C26.0617 24.5331 26.6167 24.205 27.0925 23.795C27.2511 23.7129 27.4097 23.5489 27.489 23.3849C27.8062 23.0568 28.1233 22.6467 28.3612 22.1546C28.6784 21.4984 28.837 20.6782 28.837 19.9401V19.776C28.837 19.2839 28.7577 18.8738 28.5991 18.4637C28.4405 18.0536 28.2819 17.6435 28.0441 17.3155L27.9648 17.2334C27.6476 16.7413 27.2511 16.4132 26.7753 16.0852C26.2203 15.7571 25.5859 15.511 24.8722 15.347L24.793 15.265V15.1009V15.0189C24.8722 13.5426 25.6652 12.2303 26.9339 11.5741C26.9339 11.5741 26.9339 11.5741 27.0132 11.5741C27.0925 11.5741 27.0925 11.5741 27.0925 11.4921C30.2643 12.9685 32.4846 16.0852 32.4846 19.776Z" fill="#DA1F27"/>
</g>
<defs>
<clipPath id="clip0">
<rect width="36" height="26" fill="white" transform="translate(6 11)"/>
</clipPath>
</defs>
</svg>
