<svg width="48" height="48" viewBox="0 0 48 48" fill="none" xmlns="http://www.w3.org/2000/svg">
<path d="M0 24C0 10.7452 10.7452 0 24 0C37.2548 0 48 10.7452 48 24C48 37.2548 37.2548 48 24 48C10.7452 48 0 37.2548 0 24Z" fill="#FFCB05"/>
<path d="M44 24.5C44 29.2006 35.0402 33 24 33C12.9598 33 4 29.2006 4 24.5C4 19.7994 12.9598 16 24 16C35.0402 16 44 19.7994 44 24.5Z" fill="#00678F"/>
<path d="M11.1868 28.6891L13.2671 20.1891H16.5532V25.1332L18.7281 20.1891H22.156L20.0757 28.6891H17.9007L19.1537 23.2091L16.5532 28.6891H14.8038V23.2091L13.4563 28.6891H11.1868Z" fill="white"/>
<path d="M22.818 28.7865L23.1253 27.6175H25.513L25.182 28.7865H22.818Z" fill="#ED1D24"/>
<path d="M28.1371 28.6891L30.1939 20.1891H32.5816L33.6217 24.7192L34.7565 20.1891H36.9078L34.8511 28.6891H32.5816L31.4468 24.0616L30.3121 28.6891H28.1371Z" fill="white"/>
<path d="M22.818 20.1891L22.2979 22.3567H24.4728L23.2908 27.0086H25.6785L26.8369 22.3567H29.0118L29.5319 20.1891H22.818Z" fill="#FFCB05"/>
</svg>
