<svg width="48" height="48" viewBox="0 0 48 48" fill="none" xmlns="http://www.w3.org/2000/svg">
<path d="M0 24C0 10.7452 10.7452 0 24 0C37.2548 0 48 10.7452 48 24C48 37.2548 37.2548 48 24 48C10.7452 48 0 37.2548 0 24Z" fill="#FFCB05"/>
<path fill-rule="evenodd" clip-rule="evenodd" d="M33.6987 12.3698C34.297 12.8135 35.0449 13.627 35.4936 14.2186L35.7927 14.6624H39.9808C40.1303 14.6624 40.2799 14.7363 40.3547 14.8103C40.8034 15.254 41.9252 16.3633 42 16.7331C42 16.955 41.4765 19.7653 40.5043 25.3858C38.859 34.8521 39.0833 34.0386 37.8868 34.6302C37.5128 34.8521 36.765 35.0739 36.765 35.0739H8.04701C7.44872 35.0739 7 34.6302 7 34.0386V21.6141C7 21.0225 7.22436 20.5048 7.59829 20.135C8.72009 19.0257 11.0385 16.7331 12.0855 15.7717C12.3846 15.4759 12.7585 15.328 13.2073 15.328C14.4038 15.328 17.0214 15.254 20.3868 15.254H27.9402L28.6132 14.1447L29.2863 13.0354L29.8098 13.1093C30.109 13.1093 30.5577 13.2572 30.9316 13.3312L31.6047 13.553L32.203 12.8875C32.9509 11.8521 33.0256 11.8521 33.6987 12.3698Z" fill="white"/>
<path fill-rule="evenodd" clip-rule="evenodd" d="M39.9808 16.1415L36.9145 33.9646H8.19658V21.3183L13.282 16.1415H39.9808Z" fill="#FFCB18"/>
<path fill-rule="evenodd" clip-rule="evenodd" d="M33.6987 12.3698C34.297 12.8135 35.0449 13.627 35.4936 14.2186L35.7927 14.6624H39.9808C40.1303 14.6624 40.2799 14.7363 40.3547 14.8103C40.8034 15.254 41.9252 16.3633 42 16.7331C42 16.955 41.4765 19.7653 40.5043 25.3858C38.859 34.8521 39.0833 34.0386 37.8867 34.6302C37.5128 34.8521 36.765 35.0739 36.765 35.0739H36.0919L30.1838 33.0772C29.5855 32.9293 29.2115 32.3376 29.2863 31.672L31.0812 20.8746L25.3974 19.1736L27.9402 15.0321L28.6132 13.9228L29.2863 12.8135L29.8098 12.8875C30.109 12.8875 30.5577 13.0354 30.9316 13.1093L31.6047 13.3312L32.203 12.6656C32.9509 11.8521 33.0256 11.8521 33.6987 12.3698Z" fill="white"/>
<path fill-rule="evenodd" clip-rule="evenodd" d="M32.5021 13.0354L31.9786 13.5531L32.5021 13.8489C34.1474 14.8103 35.718 16.7331 36.4658 18.8778L36.6154 19.3955L36.5406 18.8778C36.3162 16.6592 35.4936 14.8103 34.2222 13.4791C33.9231 13.1093 33.1752 12.5177 33.0256 12.5177C33.0256 12.5177 32.8013 12.7396 32.5021 13.0354Z" fill="#136991"/>
<path fill-rule="evenodd" clip-rule="evenodd" d="M27.8654 16.0675C26.9679 17.6206 26.2201 18.8778 26.2201 18.9518C26.2201 19.0257 26.4444 19.0997 26.7436 19.1736C27.0427 19.2476 27.7158 19.3955 28.2393 19.5434L29.2115 19.7653L28.8376 19.3215C27.3419 17.2508 28.7628 14.3665 31.3803 14.2186L32.1282 14.1447L31.5299 13.8489C30.8568 13.553 30.0342 13.3312 29.735 13.3312C29.5855 13.3312 29.2115 13.7749 27.8654 16.0675Z" fill="#136991"/>
<path fill-rule="evenodd" clip-rule="evenodd" d="M30.6325 14.5884C29.735 14.8842 29.062 15.5498 28.7628 16.3633C28.5385 16.955 28.5385 17.9903 28.8376 18.582C29.1367 19.2476 29.6603 19.7653 30.3333 20.135C30.782 20.3569 31.0064 20.3569 31.6047 20.3569C32.8013 20.3569 33.6987 19.8392 34.2222 18.7299C34.5214 18.2122 34.5214 18.0643 34.5214 17.3247C34.5214 16.6592 34.5214 16.4373 34.297 16.0675C33.9231 15.4019 33.6239 15.0321 33.0256 14.7363C32.2778 14.4405 31.3056 14.3665 30.6325 14.5884ZM32.6517 14.9582C33.6239 15.4019 34.3718 16.5112 34.2222 17.5466C34.0726 19.4694 32.1282 20.6527 30.4081 19.8392C28.9872 19.1736 28.3889 17.6206 29.062 16.2154C29.8098 14.8842 31.3056 14.3665 32.6517 14.9582Z" fill="#136991"/>
<path fill-rule="evenodd" clip-rule="evenodd" d="M36.0919 15.1801C36.1667 15.254 36.1667 15.402 36.1667 15.402C36.1667 15.402 36.8398 15.4759 37.7372 15.4759C38.6346 15.4759 39.4573 15.4759 39.5321 15.5499C39.6816 15.6238 39.7564 15.6978 39.8312 15.8457C39.8312 15.9936 36.9145 31.9679 36.5406 33.5209C36.5406 33.6688 36.391 33.8167 36.3162 33.8907C36.0919 34.0386 35.9423 33.9647 33.4744 33.2251C32.0534 32.7814 30.8568 32.4116 30.7821 32.4116C30.7073 32.4116 30.5577 32.3376 30.4081 32.1897C30.1838 32.0418 30.109 31.8939 30.109 31.672C30.109 31.5241 31.8291 21.5402 31.8291 21.3923C31.8291 21.1704 31.4551 21.0965 31.4551 21.0965C31.4551 21.0965 29.6603 31.5241 29.6603 31.672C29.6603 32.1158 29.9594 32.5595 30.3333 32.7074C30.4829 32.7814 31.9039 33.2251 33.4744 33.6688C36.2415 34.4823 36.3162 34.5563 36.765 34.4084C37.438 34.1865 38.3355 33.7428 38.4851 33.447C38.6346 33.2991 41.4017 17.6206 41.4017 17.029C41.4017 16.6592 41.1774 16.3634 40.5043 15.7717L39.906 15.1801L38.4851 15.1061C36.3162 15.0322 36.0171 15.0322 36.0919 15.1801Z" fill="black"/>
<path fill-rule="evenodd" clip-rule="evenodd" d="M36.5406 16.2894C36.8398 17.3248 37.0641 18.2862 37.1389 19.3216C37.2885 20.6528 37.438 23.2412 37.438 24.3505C37.438 24.7203 37.438 25.0161 37.5128 24.9421C37.5128 24.8682 37.8868 22.9454 38.3355 20.6528C39.0833 16.7331 39.1581 16.4373 39.0086 16.2155C38.859 15.9936 38.859 15.9936 37.6624 15.9936H36.4658L36.5406 16.2894Z" fill="black"/>
<path fill-rule="evenodd" clip-rule="evenodd" d="M34.8205 16.881C35.0449 17.6946 34.6709 18.8039 33.9979 19.5434C33.5491 20.0611 32.7265 20.5048 32.1282 20.5788L31.7543 20.6528L32.4274 20.9486C34.4466 21.836 36.2415 23.2412 36.8397 24.3505L37.1389 24.8682L37.0641 24.0547C36.9145 22.1318 36.4658 19.9872 36.0171 18.7299C35.7179 18.0643 35.1197 16.955 34.8953 16.6592L34.7457 16.4373L34.8205 16.881Z" fill="#136991"/>
<path fill-rule="evenodd" clip-rule="evenodd" d="M11.9359 23.6109H12.8333L12.9829 20.2829L13.9551 23.6109H14.8526L15.8996 20.209L16.0491 23.6109H16.9466L16.6474 19.0997H15.3761L14.4038 22.1318L13.4316 19.0997H12.1603L11.9359 23.6109Z" fill="black"/>
<path fill-rule="evenodd" clip-rule="evenodd" d="M17.0962 19.7653H18.4423V23.6849H19.265V19.7653H20.6111V19.0997H17.0962V19.7653Z" fill="black"/>
<path fill-rule="evenodd" clip-rule="evenodd" d="M21.0598 23.6849H22.0321V20.9485L23.6774 23.6849H24.7991V19.0997H23.9017V22.2797L22.0321 19.0997H21.0598V23.6849Z" fill="black"/>
<path fill-rule="evenodd" clip-rule="evenodd" d="M32.3526 21.6142L32.1282 24.8682L34.4466 25.4598C35.7179 25.7556 36.8397 26.0515 36.8397 26.0515C37.1389 26.1254 36.5406 24.7203 35.9423 24.0547C34.5214 22.2797 32.3526 21.5402 32.3526 21.6142Z" fill="#E4202A"/>
<path fill-rule="evenodd" clip-rule="evenodd" d="M18.0684 27.7524H18.6667V27.6045C18.6667 27.6045 19.0406 27.7524 19.1902 27.7524C19.4893 27.7524 19.6389 27.6784 19.8632 27.5305C20.0876 27.3087 20.1624 26.2733 19.8632 25.9035C19.5641 25.6077 19.265 25.6077 18.891 25.7556C18.8162 25.8296 18.6667 25.8296 18.6667 25.8296V24.7942H18.0684V27.7524ZM19.4893 26.3472C19.5641 26.5691 19.5641 26.9389 19.4145 27.1608C19.265 27.4566 18.5919 27.2347 18.5919 27.2347V26.2733C18.6667 26.3472 19.3397 25.9775 19.4893 26.3472Z" fill="#E4202A"/>
<path d="M22.3312 24.7942H21.6581V27.7524H22.3312V24.7942Z" fill="#E4202A"/>
<path fill-rule="evenodd" clip-rule="evenodd" d="M11.8611 27.7524H12.4594L12.5342 27.0868C12.5342 26.7171 12.609 26.0515 12.609 26.0515L13.1325 27.6785H13.7308L14.3291 25.9036L14.4786 27.7524H15.0769L14.8526 24.9421H13.9551C13.9551 24.9421 13.4316 26.7171 13.4316 26.6431L12.9081 24.9421H12.0107L11.8611 27.7524Z" fill="#E4202A"/>
<path d="M21.1346 25.6816H20.5363V27.7524H21.1346V25.6816Z" fill="#E4202A"/>
<path fill-rule="evenodd" clip-rule="evenodd" d="M23.3034 25.7556C22.7799 25.9775 22.6303 26.865 22.9295 27.3087C23.1538 27.6785 23.453 27.8264 24.0513 27.7524C24.2756 27.7524 24.5748 27.6785 24.5748 27.6785V27.1608C24.5748 27.1608 24.4252 27.1608 24.2009 27.2347C23.3782 27.3087 23.3782 26.9389 23.3782 26.9389H24.7244V26.5691C24.7244 25.9035 24.0513 25.4598 23.3034 25.7556ZM24.2756 26.4952H23.3782C23.3782 26.4952 23.3782 26.0514 23.8269 26.0514C24.2009 26.1254 24.2756 26.4952 24.2756 26.4952Z" fill="#E4202A"/>
<path fill-rule="evenodd" clip-rule="evenodd" d="M18.5919 29.8232V29.6753H17.9936V31.672H18.6667V31.0065C18.6667 30.4148 18.7415 30.2669 18.9658 30.2669C19.1902 30.2669 19.265 30.4148 19.265 31.0065V31.672H19.938V31.0065C19.938 30.1929 19.8632 29.8232 19.4145 29.6753C18.9658 29.4534 18.5919 29.8232 18.5919 29.8232Z" fill="#E4202A"/>
<path fill-rule="evenodd" clip-rule="evenodd" d="M23.3782 31.5241C23.3782 31.5241 23.2286 31.8199 23.1538 31.9678C23.0043 32.1157 22.7799 32.1897 22.7799 32.1897L23.0043 32.6334C23.0043 32.6334 23.1538 32.5595 23.3034 32.4855C23.7521 32.1157 23.9765 31.746 24.3504 30.5627L24.7244 29.6013H24.1261L23.6774 30.8585L23.2286 29.6013H22.5556L23.3782 31.5241Z" fill="#E4202A"/>
<path d="M20.8355 25.4598C21.0007 25.4598 21.1346 25.3274 21.1346 25.164C21.1346 25.0006 21.0007 24.8682 20.8355 24.8682C20.6702 24.8682 20.5363 25.0006 20.5363 25.164C20.5363 25.3274 20.6702 25.4598 20.8355 25.4598Z" fill="#E4202A"/>
<path fill-rule="evenodd" clip-rule="evenodd" d="M20.985 29.6752C20.4615 29.8971 20.312 30.7846 20.6111 31.2283C20.8355 31.5981 21.1346 31.746 21.7329 31.672C21.9573 31.672 22.2564 31.5981 22.2564 31.5981V31.0804C22.2564 31.0804 22.1068 31.0804 21.8825 31.1543C21.0598 31.2283 21.0598 30.8585 21.0598 30.8585H22.406V30.4887C22.3312 29.7492 21.6581 29.3794 20.985 29.6752ZM21.8825 30.4148H20.985C20.985 30.4148 20.985 29.9711 21.4338 29.9711C21.8825 29.9711 21.8825 30.4148 21.8825 30.4148Z" fill="#E4202A"/>
<path d="M17.5449 30.4148C17.3953 29.7492 16.6474 29.3794 15.9744 29.6752C15.6004 29.8231 15.3013 30.1929 15.3013 30.6367C15.3013 31.3022 15.75 31.746 16.4231 31.746C17.2457 31.746 17.6944 31.1543 17.5449 30.4148ZM16.4979 31.2283C16.1987 31.2283 15.9744 30.9325 15.9744 30.6367C15.9744 30.3408 16.1987 30.045 16.4979 30.045C16.797 30.045 17.0214 30.3408 17.0214 30.6367C17.0214 30.9325 16.797 31.2283 16.4979 31.2283Z" fill="#E4202A"/>
<path d="M17.5449 26.4952C17.3953 25.8296 16.6474 25.4598 15.9744 25.7556C15.6004 25.9035 15.3013 26.2733 15.3013 26.717C15.3013 27.3826 15.75 27.8264 16.4231 27.8264C17.2457 27.8264 17.6944 27.2347 17.5449 26.4952ZM16.4979 27.3087C16.1987 27.3087 15.9744 27.0129 15.9744 26.717C15.9744 26.4212 16.1987 26.1254 16.4979 26.1254C16.797 26.1254 17.0214 26.4212 17.0214 26.717C17.0214 27.0129 16.797 27.3087 16.4979 27.3087Z" fill="#E4202A"/>
<path fill-rule="evenodd" clip-rule="evenodd" d="M11.8611 31.672H12.4594L12.5342 31.0064C12.5342 30.6366 12.609 29.971 12.609 29.971L13.1325 31.598H13.7308L14.3291 29.8231L14.4786 31.672H15.0769L14.8526 28.8617H13.9551C13.9551 28.8617 13.4316 30.6366 13.4316 30.5627L12.9081 28.8617H12.0107L11.8611 31.672Z" fill="#E4202A"/>
<path d="M29.8098 18.7299L29.9594 18.4341L30.7821 18.6559C30.9316 18.6559 31.0064 18.6559 31.156 18.7299C31.0812 18.6559 31.0064 18.582 30.9316 18.4341L30.4081 17.7685L30.5577 17.4727L31.9786 18.2862L31.8291 18.508L31.2308 18.1383C31.0812 18.0643 31.0064 17.9903 30.8568 17.9164C30.9316 17.9903 31.0064 18.0643 31.0812 18.2122L31.6047 18.8778L31.4551 19.0257L30.6325 18.8038C30.4829 18.8038 30.4081 18.7299 30.2585 18.7299C30.3333 18.8038 30.4829 18.8778 30.5577 18.9518L31.156 19.3955L31.0064 19.6174L29.8098 18.7299Z" fill="#136991"/>
<path d="M31.0812 17.1029L30.8568 17.5466L30.6325 17.3987L31.3056 16.3633L31.5299 16.5113L31.2308 16.881L32.4273 17.6206L32.2778 17.8424L31.0812 17.1029Z" fill="#136991"/>
<path d="M31.3056 16.2894L31.4551 16.0675H32.4274C32.5769 16.0675 32.6517 16.0675 32.8013 16.0675C32.6517 15.9936 32.5769 15.9196 32.4274 15.8457L31.8291 15.4759L31.9786 15.254L33.3996 16.1415L33.25 16.3634H32.2778C32.1282 16.3634 31.9786 16.3634 31.9038 16.3634C32.0534 16.4373 32.1282 16.5113 32.2778 16.5852L32.8761 16.955L32.7265 17.1769L31.3056 16.2894Z" fill="#136991"/>
<path fill-rule="evenodd" clip-rule="evenodd" d="M33.3996 27.9003L31.6795 27.4566C31.5299 27.4566 31.4551 27.3087 31.4551 27.1608L31.6047 26.4212C31.6047 26.2733 31.7543 26.1993 31.9039 26.1993L33.5492 26.6431C33.6987 26.6431 33.7735 26.791 33.7735 26.9389L33.6239 27.6784C33.6987 27.8263 33.5492 27.9003 33.3996 27.9003Z" fill="black"/>
<path fill-rule="evenodd" clip-rule="evenodd" d="M32.9509 29.6752L31.3056 29.2315C31.156 29.2315 31.0812 29.0836 31.0812 28.9357L31.2308 28.1961C31.2308 28.0482 31.3804 27.9742 31.5299 27.9742L33.1752 28.418C33.3248 28.418 33.3996 28.5659 33.3996 28.7138L33.25 29.4533C33.25 29.6752 33.1004 29.7492 32.9509 29.6752Z" fill="black"/>
<path fill-rule="evenodd" clip-rule="evenodd" d="M32.6517 31.5241L31.0064 31.0804C30.8568 31.0804 30.7821 30.9324 30.7821 30.7845L30.9316 30.045C30.9316 29.8971 31.0812 29.8231 31.2308 29.8231L32.8761 30.2669C33.0256 30.2669 33.1004 30.4148 33.1004 30.5627L32.9509 31.3022C32.9509 31.4501 32.8013 31.598 32.6517 31.5241Z" fill="black"/>
<path fill-rule="evenodd" clip-rule="evenodd" d="M36.391 28.6399L34.7457 28.2701C34.5962 28.2701 34.5214 28.1222 34.5214 27.9743L34.671 27.2347C34.671 27.0868 34.8205 27.0129 34.9701 27.0129L36.6154 27.4566C36.765 27.4566 36.8398 27.6045 36.8398 27.7524L36.6902 28.492C36.6902 28.5659 36.5406 28.7138 36.391 28.6399Z" fill="black"/>
<path fill-rule="evenodd" clip-rule="evenodd" d="M36.0171 30.4887L34.3718 30.045C34.2222 30.045 34.1474 29.8971 34.1474 29.7492L34.297 29.0096C34.297 28.8617 34.4466 28.7878 34.5962 28.7878L36.2415 29.2315C36.391 29.2315 36.4658 29.3794 36.4658 29.5273L36.3163 30.2669C36.3163 30.4148 36.1667 30.4887 36.0171 30.4887Z" fill="black"/>
<path fill-rule="evenodd" clip-rule="evenodd" d="M35.718 32.3376L34.0727 31.8939C33.9231 31.8939 33.8483 31.746 33.8483 31.5981L33.9979 30.8585C33.9979 30.7106 34.1474 30.6367 34.297 30.6367L35.9423 31.0804C36.0919 31.0804 36.1667 31.2283 36.1667 31.3762L36.0171 32.1158C36.0171 32.2637 35.8675 32.3376 35.718 32.3376Z" fill="black"/>
</svg>
