<svg width="48" height="48" viewBox="0 0 48 48" fill="none" xmlns="http://www.w3.org/2000/svg">
<path d="M24 48C10.7 48 0 37.3 0 24C0 10.7 10.7 0 24 0C37.3 0 48 10.7 48 24C48 37.3 37.3 48 24 48Z" fill="white"/>
<path d="M13.7 33.3C13.7 32.9 13.7 32.6 13.7 32.1C14.6 32.6 15.5 32.7 16.5 32.3C17.3 32 17.8 31.4 18.2 30.7C18.8 29.6 18.8 28 17.8 26.8C17.3 26.2 16.7 25.7 15.9 25.6C15.1 25.5 14.4 25.5 13.7 26C13.7 25.9 13.7 25.8 13.6 25.8C13.5 25.7 13.4 25.6 13.3 25.6C12.9 25.7 12.5 25.8 12.2 25.9C12.1 25.9 12 26.2 12 26.3C12 27.5 12 28.7 12 30C12 31.5 12 33.1 12 34.6C12 34.8 11.9 35 11.8 35.1C11.6 35.4 11.3 35.6 11.1 35.9H11C11 35.8 11 35.7 11 35.6C11 32.4 11 29.3 11 26.1C11 25.2 11.5 24.8 12.3 24.8C20.3 24.8 28.3 24.8 36.3 24.8C37.1 24.8 37.6 25.3 37.6 26.1C37.6 28.1 37.6 30.1 37.6 32C37.6 32.7 37 33.3 36.3 33.3C29 33.3 21.6 33.3 14.3 33.3C14.2 33.3 14 33.3 13.7 33.3ZM35.1 26.2C33.7 25.4 32.2 25.7 31.3 26.5C30.1 27.7 29.8 29.3 30.4 30.6C31.4 32.6 33 33.1 35 32.2C35.1 32.7 35.1 32.7 35.5 32.7C35.7 32.7 35.9 32.7 36.1 32.7C36.5 32.7 36.5 32.7 36.5 32.3C36.5 30.4 36.5 28.6 36.5 26.7C36.5 26.2 36.5 26.1 36 25.9C35.9 25.9 35.7 25.8 35.6 25.8C35.2 25.7 35.2 25.7 35.1 26.2ZM20.4 29.8C20.5 29.8 20.6 29.8 20.7 29.8C22 29.8 23.4 29.8 24.7 29.8C25 29.8 25.1 29.7 25.1 29.4C25.1 28.6 25 27.9 24.6 27.2C23.8 26 22.4 25.4 21.1 25.8C20.1 26.1 19.4 26.8 19 27.8C18.4 29.2 18.8 30.7 19.8 31.7C20.9 32.9 23 32.8 24.2 32C24.4 31.9 24.4 31.8 24.3 31.6C24 31.3 23.7 31.1 23.4 30.8C23.3 30.7 23.1 30.7 23 30.8C22.6 31 22.1 31 21.7 30.9C21.1 30.9 20.5 30.4 20.4 29.8ZM27.7 32.6C28.5 32.6 29.3 32.3 29.9 31.7C30.3 31.3 30.5 30.8 30.3 30.2C29.9 29.2 29.1 28.7 28.1 28.5C27.8 28.4 27.4 28.3 27.1 28.1C27 28 26.8 27.8 26.8 27.7C26.8 27.5 27 27.3 27.2 27.3C27.5 27.2 27.9 27.2 28.3 27.3C28.5 27.3 28.7 27.6 28.9 27.7C29 27.8 29.1 27.8 29.2 27.8C29.5 27.7 29.8 27.5 30.1 27.4C30.2 27.4 30.2 27.2 30.2 27.1C30.1 26.9 29.9 26.7 29.8 26.5C28.8 25.5 26.8 25.5 25.7 26.4C24.9 27.1 24.9 28.2 25.6 28.9C26.1 29.5 26.8 29.7 27.6 29.8C27.9 29.9 28.1 30 28.3 30.1C28.6 30.3 28.6 30.7 28.3 30.9C27.8 31.2 26.9 31.1 26.6 30.8C26.4 30.5 26.1 30.5 25.8 30.6C25.6 30.7 25.5 30.7 25.3 30.8C25 31 24.9 31.1 25.1 31.4C25.1 31.5 25.2 31.5 25.3 31.6C26 32.4 26.8 32.6 27.7 32.6Z" fill="#F6891E"/>
<path d="M17.7 21.9C17.3 21.9 16.9 21.9 16.5 21.9C16.5 21.8 16.5 21.7 16.5 21.6C16.5 20.6 16.5 19.6 16.5 18.6C16.5 17.9 16.3 17.4 15.7 16.9C14.7 16.1 13.4 16.6 13 17.6C12.8 17.9 12.8 18.3 12.8 18.7C12.8 19.7 12.8 20.6 12.8 21.6C12.8 21.7 12.8 21.8 12.8 22C12.4 22 12 22 11.7 22C11.7 22 11.6 21.9 11.6 21.8C11.6 21.7 11.6 21.6 11.6 21.6C11.6 18.7 11.6 15.8 11.6 12.8C11.6 12.5 11.7 12.3 12 12.3C12.3 12.2 12.5 12.2 12.9 12.1C12.9 13.4 12.9 14.6 12.9 15.9C13.1 15.8 13.2 15.8 13.4 15.7C14.5 15.1 15.9 15.3 16.9 16.1C17.7 16.8 18 17.6 18 18.6C18 19.7 18 20.8 18 21.8C17.8 21.8 17.7 21.8 17.7 21.9Z" fill="#F6891E"/>
<path d="M23.9 15.2C24.3 15.2 24.6 15.3 25 15.5C25.1 15.5 25.1 15.7 25.1 15.8C25.1 17.8 25.1 19.7 25.1 21.7C25.1 21.8 25 21.9 24.9 21.9C24.6 21.9 24.2 21.9 23.9 21.9C23.9 21.7 23.9 21.6 23.8 21.3C23.6 21.4 23.5 21.5 23.3 21.6C21.9 22.3 20.2 21.8 19.3 20.5C18.4 19.1 18.6 16.6 20.5 15.6C21.4 15.1 22.3 15.1 23.3 15.5C23.8 15.8 23.8 15.8 23.9 15.2ZM23.8 18.6C23.8 18.1 23.6 17.7 23.4 17.3C22.7 16.3 21.4 16.3 20.6 17.2C20.1 17.8 20 18.5 20.2 19.2C20.4 20.1 21.2 20.7 22.1 20.7C23 20.6 23.8 19.7 23.8 18.6Z" fill="#F6891E"/>
<path d="M33.5 21.2C32.5 21.2 31.6 20.8 30.8 20.1C30.4 19.8 30.4 19.3 30.5 18.9C30.7 17.7 31.3 16.9 32.3 16.3C32.5 16.2 32.8 16.1 33 16C33.4 15.9 33.9 15.9 34.2 16.3C35.8 17.8 35.4 20 35.4 20.1C35.4 20.6 34.7 21.1 33.5 21.2Z" fill="#F6891E"/>
<path d="M27.6 12C27.6 15.3 27.6 18.6 27.6 21.9C27.2 21.9 26.8 21.9 26.3 21.9C26.3 21.8 26.3 21.7 26.3 21.6C26.3 18.7 26.3 15.7 26.3 12.8C26.3 12.5 26.4 12.4 26.6 12.3C27 12.2 27.3 12.1 27.6 12Z" fill="#F6891E"/>
<path d="M13.7 29.2C13.7 28.6 13.9 28.1 14.3 27.7C14.8 27.2 15.3 27.2 15.9 27.4C16.4 27.6 16.8 28 16.9 28.5C17.1 29.1 17 29.7 16.7 30.3C16.3 31 15.6 31.2 14.9 31C14.2 30.8 13.7 30.1 13.7 29.4C13.7 29.3 13.7 29.2 13.7 29.2Z" fill="#F6891E"/>
<path d="M29.9 17.6C29.9 16 31 14.6 32.9 14.2C35.2 13.7 37.1 14.9 37.6 17.6C36.8 15.9 35.6 15 33.8 15C32 15 30.7 16 29.9 17.6Z" fill="#F6891E"/>
<path d="M29.9 15.6C28.9 17.2 28.7 18.7 29.8 20.2C30.8 21.7 32.3 22.3 34.1 22C32.4 22.9 30.3 22.5 29 20.7C27.6 18.8 28.4 16.8 29.9 15.6Z" fill="#F6891E"/>
<path d="M35.8 16.3C37.6 17.4 38 19.7 36.9 21.7C35.9 23.5 33.9 23.8 32.5 23.2C34.3 23.2 35.6 22.4 36.3 20.8C37.1 19.2 36.8 17.7 35.8 16.3Z" fill="#F6891E"/>
<path d="M31.8 29.2C31.7 28.2 32.5 27.2 33.5 27.3C34.3 27.3 35 28 35.1 28.8C35.2 29.5 35.1 30.2 34.5 30.7C34 31.1 33.4 31.2 32.8 31C32.2 30.7 31.8 30.2 31.8 29.5C31.8 29.4 31.8 29.3 31.8 29.2Z" fill="#F6891E"/>
<path d="M23.6 28.5C22.5 28.5 21.5 28.5 20.5 28.5C20.6 27.8 21.3 27.3 22 27.3C22.7 27.3 23.3 27.7 23.6 28.5Z" fill="#F6891E"/>
</svg>
