<svg width="48" height="48" viewBox="0 0 48 48" fill="none" xmlns="http://www.w3.org/2000/svg">
<path d="M24 48C10.7 48 0 37.3 0 24C0 10.7 10.7 0 24 0C37.3 0 48 10.7 48 24C48 37.3 37.3 48 24 48Z" fill="white"/>
<path d="M37.1 27.2C37 27.2 37 27.1 36.9 27.1C36.2 26.5 35.4 25.9 34.7 25.3C34.5 25.1 34.4 25 34.7 24.9C36.9 23.6 38.6 21.8 40 19.6C40.3 19.2 40.3 19.2 40.6 19.5C41.4 20 42.2 20.5 42.9 21C43.1 21.1 43.2 21.3 43 21.5C41.7 23.9 39.9 25.8 37.4 27.1C37.4 27.1 37.3 27.2 37.1 27.2C37.2 27.2 37.1 27.2 37.1 27.2Z" fill="#F5BA24"/>
<path d="M12.5 23.9C12.5 24.8 12.2 25.1 11.3 25.2C10.4 25.2 9.59999 25 9.19999 24.1C8.79999 23.3 8.79999 22.5 9.39999 21.8C9.89999 21.2 11 20.8 11.8 21.1C12.2 21.2 12.4 21.5 12.4 22C12.4 22.2 12.3 22.2 12.1 22.1C11.7 21.9 11.3 21.8 10.8 21.9C10.2 22.1 9.79999 22.6 9.99999 23.4C9.99999 24 10.5 24.3 11.2 24.3C11.5 24.3 11.6 24.2 11.6 23.9C11.6 23.7 11.6 23.5 11.6 23.4C11.6 23.2 11.6 23.1 11.8 23.1C12.4 23.1 12.5 23.2 12.5 23.9Z" fill="#0C2E62"/>
<path d="M28.3 20.9C28.4 20.9 28.6 20.9 28.7 20.9C29.2 21 29.3 21.3 29 21.7C28.9 21.8 28.8 21.8 28.7 21.8C28.5 21.7 28.4 21.7 28.2 21.7C27.9 21.7 27.7 21.8 27.6 22C27.5 22.3 27.6 22.4 27.8 22.6C27.9 22.7 28.1 22.8 28.2 22.9C28.6 23.2 28.8 23.6 28.8 24.1C28.8 24.6 28.5 25 28 25.2C27.4 25.4 26.9 25.4 26.4 25.2C26 25 26.3 24.8 26.3 24.5C26.4 24.2 26.5 24.4 26.7 24.4C26.9 24.5 27.1 24.5 27.3 24.5C27.6 24.5 27.8 24.4 27.9 24.1C28 23.8 27.9 23.6 27.6 23.4C27.5 23.3 27.4 23.3 27.3 23.2C26.8 23 26.6 22.5 26.7 22C26.8 21.4 27.3 21 28 20.9C28.1 20.9 28.2 20.9 28.3 20.9Z" fill="#F5BA24"/>
<path d="M6.3 24C6.4 24.8 5.9 25 5.4 25C4.5 25 4 24.5 4 23.6C4 22.8 4 22 4 21.1C4 20.7 4.2 20.4 4.5 20.2C4.8 20.1 5 20.2 5 20.5C5 21 5 21 5.5 21C5.6 21 5.7 21 5.8 21C5.9 21 6.2 20.8 6.2 21.2C6.2 21.6 6.1 21.8 5.8 21.9C5.6 21.9 5.4 21.9 5.1 21.9C5 21.9 4.9 22 5 22.2C5 22.6 5 23 5 23.4C5 24 5.2 24.2 5.7 24.1C5.9 24.1 6.1 24.1 6.3 24Z" fill="#0C2E62"/>
<path d="M15.1 25.7C15.3 27.4 13.6 28.3 12.3 28.2C10.9 28 9.79999 27 9.99999 25.7C10.7 26.5 11.5 27.1 12.6 27.1C13.6 27 14.5 26.6 15.1 25.7Z" fill="#0C2E62"/>
<path d="M6.89999 22.7C6.89999 22.2 6.89999 21.8 6.89999 21.4C6.89999 21.2 6.99999 21.1 7.19999 21.2C7.69999 21.2 7.89999 21.4 7.89999 21.9C7.89999 22.5 7.89999 23.1 7.89999 23.7C7.89999 24 7.99999 24.1 8.29999 24.2C8.39999 24.2 8.69999 24.1 8.59999 24.4C8.59999 24.6 8.59999 24.9 8.29999 25C7.69999 25.2 7.09999 24.7 6.99999 24.1C6.89999 23.6 6.99999 23.1 6.89999 22.7Z" fill="#0D2F62"/>
<path d="M37.4 19.6C37.5 19.3 37.6 19.2 37.9 19.4C38.2 19.5 38.5 19.6 38.8 19.7C38.9 19.8 39 19.8 38.9 20C38.1 21.3 37.1 22.5 35.9 23.6C35.9 23.6 35.9 23.6 35.8 23.6C36 23.2 36.2 22.8 36.3 22.4C36.3 22.2 36.4 22 36.5 21.8C36.5 21.7 36.6 21.7 36.6 21.6C36.6 21.5 36.7 21.4 36.7 21.3C36.7 21.2 36.8 21.1 36.8 21C36.9 20.8 37 20.7 37 20.5V20.4C37 20.3 37.1 20.1 37.1 20C37.2 19.9 37.3 19.7 37.4 19.6Z" fill="#F5BA24"/>
<path d="M37.1 20.5C37 20.6 37 20.8 36.9 20.9C36.9 21 36.9 21.1 36.8 21.3C36.7 21.4 36.7 21.4 36.7 21.5C36.6 21.6 36.6 21.7 36.6 21.8C36.5 22 36.5 22.2 36.3 22.3C35.9 22.9 35.6 23.5 35.1 24.1C35 24 35.1 24 35.1 24C35.7 22.7 36 21.3 36.2 19.9C36.2 19.7 36.3 19.6 36.6 19.6C36.8 19.7 37.1 19.7 37.3 19.7C37.5 19.9 37.3 20 37.3 20.2C37.2 20.2 37.1 20.3 37.1 20.5Z" fill="#F5BB25"/>
<path d="M16.5 20.6C15.6 19.6 14.2 19.5 13.1 20.6C13 20 13.2 19.6 13.6 19.4C14.4 18.9 15.1 18.9 15.9 19.4C16.4 19.6 16.6 20 16.5 20.6Z" fill="#0D2E62"/>
<path d="M8 20.2C8 20.5 7.7 20.8 7.4 20.8C7.1 20.8 6.8 20.6 6.8 20.2C6.8 19.9 7.1 19.6 7.4 19.6C7.7 19.7 8 19.9 8 20.2Z" fill="#0E3063"/>
<path d="M35.4 26.8C34.9 26.5 34.4 26.3 33.9 26C33.8 25.9 33.8 25.8 33.9 25.7C34 25.7 34 25.5 34.2 25.6C34.6 26 35 26.4 35.4 26.8Z" fill="#F5BC28"/>
<path d="M35.7 27.4C35.6 27.5 35.5 27.5 35.5 27.5C34.9 27.3 34.3 27.1 33.6 27C33.5 27 33.3 26.9 33.4 26.8C33.5 26.6 33.6 26.7 33.7 26.7C34.3 26.8 35 27.1 35.7 27.4Z" fill="#F5BC2A"/>
<path d="M36.3 27.6C36.2 27.6 36.1 27.6 36 27.5C36.1 27.5 36.2 27.6 36.3 27.6Z" fill="#F7CB5B"/>
<path d="M22.1 21.8C21.9 21.2 21.5 20.9 20.9 20.9C20.4 20.9 20.1 21.1 19.7 21.4C19.6 21.3 19.8 21.1 19.7 21C19.5 20.9 19.3 21 19 21C18.8 21 18.9 21.2 18.8 21.3C18.5 23 18.2 24.6 17.9 26.2C17.8 26.9 17.8 26.8 18.4 26.8C18.6 26.8 18.7 26.7 18.8 26.5C18.8 26.1 18.9 25.8 19 25.4C19 25.2 19.1 25.2 19.3 25.2C19.6 25.3 19.9 25.3 20.2 25.2C21.6 24.9 22.5 23.1 22.1 21.8ZM20.5 24.1C20.1 24.4 19.7 24.5 19.3 24.4C19.2 24.4 19.1 24.4 19.1 24.2C19.2 23.4 19.3 22.6 19.8 22C19.9 22 20 22 20 21.9C20.3 21.7 20.5 21.5 20.9 21.7C21.2 21.9 21.2 22.2 21.3 22.5C21.2 23.2 21 23.7 20.5 24.1Z" fill="#F5BA24"/>
<path d="M33.1 21C31.9 20.7 30.8 20.9 30 22C29.6 22.6 29.4 23.2 29.4 23.9C29.4 24.7 29.8 25.3 30.5 25.4C31.1 25.5 31.6 25.2 32 24.7C32 24.8 32 24.9 32 24.9C31.9 25.2 32 25.4 32.4 25.3C32.5 25.3 32.5 25.3 32.6 25.3C32.8 25.3 32.9 25.2 32.9 25C32.9 24.7 32.9 24.5 32.9 24.2C33 23.3 33.2 22.3 33.4 21.4C33.4 21.2 33.4 21 33.1 21ZM32.3 21.9C32.2 22.4 32.2 22.9 32 23.4C31.8 23.8 31.6 24.2 31.2 24.4C30.8 24.6 30.5 24.5 30.4 24C30.1 23.1 30.9 21.8 31.9 21.6C32 21.6 32 21.6 32.1 21.6C32.2 21.7 32.4 21.6 32.3 21.9Z" fill="#F5BA24"/>
<path d="M14.8 21C13.6 21 12.9 21.8 12.9 23.1C12.9 24.2 13.7 25 14.7 25C15.8 25 16.6 24.2 16.6 22.9C16.6 21.8 15.8 21 14.8 21ZM15.5 23.7C15.4 24 15.1 24.2 14.8 24.2C14.5 24.2 14.2 24.1 14 23.8C13.8 23.4 13.8 22.9 14 22.5C14.1 22.2 14.4 22 14.7 22C15.1 22 15.3 22.2 15.5 22.5C15.6 22.7 15.6 22.9 15.6 23.2C15.6 23.3 15.6 23.5 15.5 23.7Z" fill="#0C2E62"/>
<path d="M23.8 23.5C24.2 23.4 24.7 23.4 25.1 23.1C25.6 22.8 25.8 22.2 25.6 21.7C25.5 21.2 25.1 20.9 24.5 20.9C23.9 20.9 23.5 21.1 23.1 21.5C22.6 22.1 22.3 22.8 22.3 23.5C22.3 24.6 22.9 25.3 23.9 25.3C24.2 25.3 24.4 25.2 24.7 25.2C25.2 25 25.2 25 25.1 24.5C25.1 24.2 24.9 24.2 24.7 24.3C24.4 24.5 24.1 24.5 23.8 24.5C23.4 24.5 23.1 24.1 23.2 23.6C23.3 23.3 23.6 23.5 23.8 23.5ZM23.5 22.4C23.6 22.1 23.8 21.9 24.1 21.7C24.4 21.6 24.7 21.6 24.8 21.9C24.9 22.1 24.8 22.4 24.5 22.6C24.2 22.7 24 22.7 23.7 22.8C23.3 22.8 23.4 22.6 23.5 22.4Z" fill="#F5BA24"/>
</svg>
