<svg width="48" height="48" viewBox="0 0 48 48" fill="none" xmlns="http://www.w3.org/2000/svg">
<path d="M24 48C10.7 48 0 37.3 0 24C0 10.7 10.7 0 24 0C37.3 0 48 10.7 48 24C48 37.3 37.3 48 24 48Z" fill="#0C3183"/>
<path d="M29.36 31.3074C27.1568 31.3074 25.1696 30.142 23.7872 28.3293V29.4083C24.0032 31.6958 26.5088 33.5517 29.36 33.5517C32.2112 33.5517 34.76 31.739 34.9328 29.4083V28.3293C33.5936 30.142 31.6064 31.3074 29.36 31.3074Z" fill="white"/>
<path d="M34.1984 15.4675C32.7296 15.4675 31.4336 16.2443 30.5264 17.4097V16.7191C30.656 15.2085 32.2976 14 34.1984 14C36.056 14 37.784 15.1653 37.8704 16.7191V17.4097C36.9632 16.2012 35.6672 15.4675 34.1984 15.4675Z" fill="white"/>
<path d="M18.4304 17.8413C19.0984 17.8413 19.64 17.3002 19.64 16.6328C19.64 15.9654 19.0984 15.4243 18.4304 15.4243C17.7623 15.4243 17.2208 15.9654 17.2208 16.6328C17.2208 17.3002 17.7623 17.8413 18.4304 17.8413Z" fill="white"/>
<path d="M34.112 26.905C33.032 26.905 32.0384 26.4302 31.3472 25.6965C30.656 24.9627 30.224 23.97 30.224 22.8479V22.2005C30.224 21.1214 30.656 20.0856 31.3472 19.3519C32.0384 18.6181 33.032 18.1434 34.112 18.1434C35.192 18.1434 36.1856 18.6181 36.8768 19.3519C37.568 20.0856 38 21.0783 38 22.2005V22.8479C38 23.9269 37.568 24.9627 36.8768 25.6965C36.1856 26.4302 35.192 26.905 34.112 26.905ZM32.7728 20.7762C32.4272 21.1214 32.2112 21.6394 32.2112 22.2005V22.8479C32.2112 23.409 32.4272 23.9269 32.7728 24.2722C33.1184 24.6174 33.5936 24.8333 34.0688 24.8333C34.5872 24.8333 35.0192 24.6174 35.3648 24.2722C35.7104 23.9269 35.9264 23.409 35.9264 22.8479V22.2005C35.9264 21.6394 35.7104 21.1214 35.3648 20.7762C35.0192 20.4309 34.544 20.2151 34.0688 20.2151C33.5936 20.2151 33.1184 20.4309 32.7728 20.7762Z" fill="white"/>
<path d="M15.7952 24.8764C15.4496 25.0922 14.9744 25.1354 14.6288 25.1786C14.6288 25.1786 13.5488 25.2649 13.2464 24.747C13.1168 24.5743 13.0304 24.2722 13.0304 24.0564V20.3878C15.4064 20.3878 15.8816 20.4741 15.8816 18.575H13.0304V16.7623C12.9872 16.7623 12.9872 16.7623 12.9872 16.7623C11.864 16.7623 11 17.6255 11 18.575V24.0564C11 25.6102 12.2528 26.8618 13.8512 26.905H14.1104C15.7088 26.905 15.7952 25.9555 15.7952 24.8764Z" fill="white"/>
<path d="M21.0224 25.2649C21.0224 25.2649 19.856 25.4375 19.5536 24.9628C19.424 24.7901 19.3376 24.3585 19.3376 24.1427V20.0425V19.7835C19.2512 19.1793 18.6464 18.834 17.3936 18.834C17.3504 18.834 17.3504 18.834 17.3504 18.834V20.0425V24.5743C17.3504 26.1281 18.4304 26.8618 19.5104 26.905H19.9424C20.8928 26.8618 21.0656 26.2576 21.0224 25.2649Z" fill="white"/>
<path d="M28.6688 22.6752C28.3664 22.5457 27.8912 22.4594 27.2864 22.4594C27.2432 22.4594 27.2432 22.4594 27.2432 22.4594V22.5026V23.6248V24.8333V24.9196C27.1136 25.1354 26.5952 25.0922 26.2496 25.0922C25.472 25.0922 24.7808 24.7901 24.3488 24.2722C24.0032 23.8837 23.7872 23.409 23.7872 22.891V22.8479V22.2005C23.7872 21.9847 23.8304 21.7689 23.9168 21.5531C24.0032 21.2509 24.176 20.992 24.392 20.7762C24.5216 20.6467 24.6512 20.5172 24.7808 20.4309C24.9536 20.2582 25.1696 20.1288 25.3856 20.0424C25.4288 20.0424 25.472 19.9993 25.5152 19.9993C25.8608 19.913 26.2496 19.8266 26.6816 19.8266C27.5024 19.8266 28.1936 20.0424 28.712 20.3877C28.8416 20.474 28.9712 20.5604 29.1008 20.6898V20.6035V20.3877V20.0424C29.0576 19.0929 28.4096 18.4455 27.632 18.2297C27.416 18.1865 26.768 18.1434 26.552 18.1434H25.9904C23.744 18.1434 21.7568 19.9561 21.7568 22.2005V22.8479C21.7568 25.0922 23.5712 26.8618 25.8176 26.905H26.552C26.7248 26.905 26.8544 26.905 27.0272 26.8618C27.3728 26.8186 27.8912 26.6892 28.1504 26.5165C28.8416 26.1281 29.2736 25.567 29.2736 24.4448V23.6248V23.3658C29.1872 23.1068 29.0144 22.8479 28.6688 22.6752Z" fill="white"/>
<path d="M29.36 31.3074C27.1568 31.3074 25.1696 30.142 23.7872 28.3293V29.4083C24.0032 31.6958 26.5088 33.5517 29.36 33.5517C32.2112 33.5517 34.76 31.739 34.9328 29.4083V28.3293C33.5936 30.142 31.6064 31.3074 29.36 31.3074Z" fill="white"/>
<path d="M34.1984 15.4675C32.7296 15.4675 31.4336 16.2443 30.5264 17.4097V16.7191C30.656 15.2085 32.2976 14 34.1984 14C36.056 14 37.784 15.1653 37.8704 16.7191V17.4097C36.9632 16.2012 35.6672 15.4675 34.1984 15.4675Z" fill="white"/>
<path d="M18.4304 17.8413C19.0984 17.8413 19.64 17.3002 19.64 16.6328C19.64 15.9654 19.0984 15.4243 18.4304 15.4243C17.7623 15.4243 17.2208 15.9654 17.2208 16.6328C17.2208 17.3002 17.7623 17.8413 18.4304 17.8413Z" fill="white"/>
<path d="M34.112 26.905C33.032 26.905 32.0384 26.4302 31.3472 25.6965C30.656 24.9627 30.224 23.97 30.224 22.8479V22.2005C30.224 21.1214 30.656 20.0856 31.3472 19.3519C32.0384 18.6181 33.032 18.1434 34.112 18.1434C35.192 18.1434 36.1856 18.6181 36.8768 19.3519C37.568 20.0856 38 21.0783 38 22.2005V22.8479C38 23.9269 37.568 24.9627 36.8768 25.6965C36.1856 26.4302 35.192 26.905 34.112 26.905ZM32.7728 20.7762C32.4272 21.1214 32.2112 21.6394 32.2112 22.2005V22.8479C32.2112 23.409 32.4272 23.9269 32.7728 24.2722C33.1184 24.6174 33.5936 24.8333 34.0688 24.8333C34.5872 24.8333 35.0192 24.6174 35.3648 24.2722C35.7104 23.9269 35.9264 23.409 35.9264 22.8479V22.2005C35.9264 21.6394 35.7104 21.1214 35.3648 20.7762C35.0192 20.4309 34.544 20.2151 34.0688 20.2151C33.5936 20.2151 33.1184 20.4309 32.7728 20.7762Z" fill="white"/>
<path d="M15.7952 24.8764C15.4496 25.0922 14.9744 25.1354 14.6288 25.1786C14.6288 25.1786 13.5488 25.2649 13.2464 24.747C13.1168 24.5743 13.0304 24.2722 13.0304 24.0564V20.3878C15.4064 20.3878 15.8816 20.4741 15.8816 18.575H13.0304V16.7623C12.9872 16.7623 12.9872 16.7623 12.9872 16.7623C11.864 16.7623 11 17.6255 11 18.575V24.0564C11 25.6102 12.2528 26.8618 13.8512 26.905H14.1104C15.7088 26.905 15.7952 25.9555 15.7952 24.8764Z" fill="white"/>
<path d="M21.0224 25.2649C21.0224 25.2649 19.856 25.4375 19.5536 24.9628C19.424 24.7901 19.3376 24.3585 19.3376 24.1427V20.0425V19.7835C19.2512 19.1793 18.6464 18.834 17.3936 18.834C17.3504 18.834 17.3504 18.834 17.3504 18.834V20.0425V24.5743C17.3504 26.1281 18.4304 26.8618 19.5104 26.905H19.9424C20.8928 26.8618 21.0656 26.2576 21.0224 25.2649Z" fill="white"/>
<path d="M28.6688 22.6752C28.3664 22.5457 27.8912 22.4594 27.2864 22.4594C27.2432 22.4594 27.2432 22.4594 27.2432 22.4594V22.5026V23.6248V24.8333V24.9196C27.1136 25.1354 26.5952 25.0922 26.2496 25.0922C25.472 25.0922 24.7808 24.7901 24.3488 24.2722C24.0032 23.8837 23.7872 23.409 23.7872 22.891V22.8479V22.2005C23.7872 21.9847 23.8304 21.7689 23.9168 21.5531C24.0032 21.2509 24.176 20.992 24.392 20.7762C24.5216 20.6467 24.6512 20.5172 24.7808 20.4309C24.9536 20.2582 25.1696 20.1288 25.3856 20.0424C25.4288 20.0424 25.472 19.9993 25.5152 19.9993C25.8608 19.913 26.2496 19.8266 26.6816 19.8266C27.5024 19.8266 28.1936 20.0424 28.712 20.3877C28.8416 20.474 28.9712 20.5604 29.1008 20.6898V20.6035V20.3877V20.0424C29.0576 19.0929 28.4096 18.4455 27.632 18.2297C27.416 18.1865 26.768 18.1434 26.552 18.1434H25.9904C23.744 18.1434 21.7568 19.9561 21.7568 22.2005V22.8479C21.7568 25.0922 23.5712 26.8618 25.8176 26.905H26.552C26.7248 26.905 26.8544 26.905 27.0272 26.8618C27.3728 26.8186 27.8912 26.6892 28.1504 26.5165C28.8416 26.1281 29.2736 25.567 29.2736 24.4448V23.6248V23.3658C29.1872 23.1068 29.0144 22.8479 28.6688 22.6752Z" fill="white"/>
</svg>
