<svg width="48" height="48" viewBox="0 0 48 48" fill="none" xmlns="http://www.w3.org/2000/svg">
<path d="M24 48C10.7 48 0 37.3 0 24C0 10.7 10.7 0 24 0C37.3 0 48 10.7 48 24C48 37.3 37.3 48 24 48Z" fill="#DA1F27"/>
<path d="M15.7402 30.485C15.9208 30.6951 16.0712 30.9353 16.1916 31.2355C16.3119 31.5057 16.342 31.806 16.342 32.1362V34.478H15.0782V32.1362C15.0782 31.9561 15.0481 31.806 15.0181 31.6859C14.9579 31.5658 14.8977 31.4457 14.8074 31.3556C14.657 31.1755 14.4162 31.0554 14.1153 31.0254C14.0853 31.0254 14.0251 31.0254 13.995 31.0254C13.9649 31.0254 13.9047 31.0254 13.8746 31.0254C13.7844 31.0254 13.6941 31.0254 13.6038 31.0554C13.5135 31.0554 13.4233 31.0854 13.333 31.1154V32.1963V34.5381H12.0692V32.1963C12.0692 32.0161 12.0391 31.866 12.009 31.7459C11.9488 31.6258 11.8887 31.5057 11.7984 31.4157C11.6479 31.2355 11.4072 31.1154 11.1063 31.0854C11.0762 31.0854 11.016 31.0854 10.986 31.0854C10.9559 31.0854 10.8957 31.0854 10.8355 31.0854C10.7452 31.0854 10.655 31.0854 10.5647 31.1154C10.4744 31.1154 10.3842 31.1455 10.2939 31.1755V34.5981H9V30.1247L9.42126 29.9746C9.42126 29.9746 9.48144 29.9746 9.54162 29.9445C9.60181 29.9145 9.72217 29.8845 9.84253 29.8545C9.96289 29.8244 10.1133 29.7944 10.2939 29.7644C10.4744 29.7344 10.6249 29.7344 10.8355 29.7344C10.986 29.7344 11.1364 29.7344 11.2869 29.7644C11.5878 29.8244 11.8887 29.9145 12.1896 30.0947L12.4905 29.9746C12.4905 29.9746 12.5507 29.9746 12.6108 29.9445C12.671 29.9145 12.7914 29.8845 12.9117 29.8545C13.0321 29.8244 13.1825 29.7944 13.3631 29.7644C13.5436 29.7344 13.6941 29.7344 13.9047 29.7344C14.0552 29.7344 14.2056 29.7344 14.3561 29.7644C14.6269 29.7944 14.8977 29.8845 15.1384 30.0046C15.319 30.1247 15.5296 30.2748 15.7402 30.485Z" fill="white"/>
<path d="M19.7122 31.1455V32.3765H17.0341V31.1455H19.7122Z" fill="white"/>
<path d="M21.668 37H20.4042V30.1247L20.8254 29.9746C20.8254 29.9746 20.8856 29.9746 20.9458 29.9445C21.0361 29.9145 21.1263 29.8845 21.2768 29.8545C21.3972 29.8244 21.5777 29.7944 21.7582 29.7644C21.9388 29.7344 22.1494 29.7344 22.36 29.7344C22.4202 29.7344 22.4804 29.7344 22.5707 29.7344C22.6309 29.7344 22.7211 29.7344 22.7813 29.7344C23.0822 29.7644 23.3831 29.8545 23.6539 29.9746C23.9247 30.0947 24.1955 30.2748 24.4062 30.485C24.6168 30.6951 24.7974 30.9353 24.9177 31.2355C25.0381 31.5358 25.0983 31.836 25.0983 32.1662C25.0983 32.4965 25.0381 32.7967 24.9177 33.097C24.7974 33.3972 24.6168 33.6374 24.4062 33.8475C24.1955 34.0577 23.9247 34.2378 23.6539 34.3579C23.353 34.478 23.0521 34.5381 22.7211 34.5381C22.33 34.5381 21.999 34.478 21.6981 34.388V37H21.668ZM21.668 33.0069C21.7883 33.097 21.9087 33.157 22.0591 33.187C22.2096 33.2471 22.4202 33.2471 22.691 33.2471C22.8415 33.2471 22.9919 33.2171 23.1424 33.157C23.2928 33.097 23.3831 33.0069 23.5035 32.9168C23.6238 32.8268 23.684 32.7067 23.7442 32.5565C23.8044 32.4064 23.8345 32.2863 23.8345 32.1062C23.8345 31.9561 23.8044 31.806 23.7442 31.6859C23.684 31.5658 23.6238 31.4457 23.5035 31.3556C23.4132 31.2656 23.2628 31.1755 23.1424 31.1154C23.022 31.0554 22.8415 30.9953 22.6609 30.9953C22.6008 30.9953 22.5707 30.9953 22.5105 30.9953C22.4503 30.9953 22.4202 30.9953 22.36 30.9953C22.2397 30.9953 22.1193 30.9953 21.999 31.0254C21.8786 31.0254 21.7883 31.0554 21.6981 31.0854V33.0069H21.668Z" fill="white"/>
<path d="M28.0472 33.2771C28.1976 33.2771 28.3481 33.2771 28.4985 33.2471C28.649 33.2171 28.7994 33.187 28.98 33.157L29.2207 34.418C29.0101 34.478 28.8295 34.5081 28.649 34.5381C28.4684 34.5681 28.2879 34.5681 28.0472 34.5681C27.987 34.5681 27.9268 34.5681 27.8365 34.5681C27.7764 34.5681 27.6861 34.5681 27.6259 34.5681C27.325 34.5381 27.0241 34.448 26.7232 34.3279C26.4524 34.2078 26.1816 34.0277 25.9709 33.8175C25.7603 33.6074 25.5798 33.3672 25.4594 33.0669C25.3391 32.7667 25.2789 32.4665 25.2789 32.1362C25.2789 31.806 25.3391 31.5057 25.4594 31.2055C25.5798 30.9053 25.7302 30.6651 25.9409 30.4549C26.1515 30.2448 26.3922 30.0646 26.6931 29.9445C26.994 29.8245 27.2949 29.7644 27.6259 29.7644H27.7162C28.0171 29.7644 28.318 29.8545 28.5587 29.9746C28.8295 30.0947 29.0401 30.2748 29.2207 30.4549C29.4012 30.6351 29.5216 30.8452 29.642 31.0854C29.7322 31.3256 29.7924 31.5658 29.7924 31.836C29.7924 31.9561 29.7924 32.0762 29.7623 32.1663C29.7322 32.2563 29.7322 32.3464 29.7021 32.4064C29.672 32.4965 29.642 32.5566 29.6119 32.6466H26.663C26.7232 32.7667 26.7834 32.8568 26.8737 32.9168C26.9639 33.0069 27.1144 33.097 27.2347 33.157C27.3551 33.2171 27.5356 33.2771 27.7162 33.2771C27.7764 33.2771 27.8065 33.2771 27.8666 33.2771C27.9268 33.2771 27.987 33.2771 28.0472 33.2771ZM26.8737 31.3256C26.8436 31.3556 26.8135 31.4157 26.7834 31.4457C26.7533 31.5057 26.7232 31.5658 26.6931 31.6258H28.4684C28.4383 31.5358 28.4383 31.4757 28.4083 31.4157C28.3782 31.3556 28.3481 31.2956 28.2879 31.2656C28.1976 31.1755 28.1074 31.1154 28.0171 31.0554C27.9268 30.9954 27.8065 30.9653 27.656 30.9653C27.656 30.9653 27.656 30.9653 27.6259 30.9653C27.3551 30.9954 27.0843 31.1154 26.8737 31.3256Z" fill="white"/>
<path d="M33.9449 33.0069C33.9449 33.2471 33.8847 33.4873 33.7643 33.6674C33.644 33.8475 33.5236 34.0277 33.3431 34.1478C33.1625 34.2679 32.9519 34.388 32.7112 34.448C32.4705 34.5081 32.2297 34.5381 31.989 34.5381C31.7483 34.5381 31.5076 34.5081 31.2668 34.478C31.0261 34.448 30.8456 34.388 30.665 34.3279C30.4544 34.2679 30.2739 34.2078 30.0933 34.1178L30.5748 33.0369C30.6349 33.0669 30.7553 33.097 30.9359 33.157C31.1164 33.2171 31.3872 33.2771 31.658 33.3071C31.9288 33.3372 32.1696 33.3372 32.3501 33.2771C32.5306 33.2171 32.6209 33.157 32.651 33.0369C32.6811 32.8868 32.5607 32.7967 32.32 32.7367C32.1996 32.7067 32.0492 32.6766 31.8686 32.6466C31.6881 32.6166 31.5377 32.5566 31.3571 32.5265C31.1465 32.4665 30.9659 32.4064 30.7854 32.3164C30.6049 32.2263 30.4845 32.1062 30.3641 31.9861C30.2438 31.836 30.1836 31.6859 30.1535 31.5057C30.1234 31.3256 30.1234 31.1154 30.1836 30.9053C30.2438 30.6951 30.334 30.485 30.4845 30.3348C30.6349 30.1847 30.7854 30.0646 30.9659 29.9746C31.1465 29.8845 31.3571 29.8245 31.5677 29.7944C31.7784 29.7644 32.0191 29.7644 32.2297 29.7644C32.4404 29.7644 32.6811 29.8245 32.8616 29.8845C33.0422 29.9445 33.2227 30.0046 33.3732 30.0646C33.5537 30.1547 33.7042 30.2448 33.8546 30.3348L33.2227 31.3256C33.1023 31.2656 32.9519 31.1755 32.7413 31.0854C32.5306 30.9954 32.32 30.9353 32.1094 30.9053C31.8686 30.8753 31.658 30.9053 31.5377 30.9653C31.4173 31.0254 31.327 31.0854 31.327 31.1755C31.327 31.2355 31.327 31.2956 31.3872 31.3256C31.4173 31.3556 31.4775 31.3857 31.5377 31.3857C31.5677 31.3857 31.6279 31.4157 31.6881 31.4157C31.7483 31.4157 31.8686 31.4457 31.9589 31.4757C32.0492 31.5057 32.1696 31.5358 32.2598 31.5358C32.3501 31.5658 32.4404 31.5958 32.5306 31.5958C32.6811 31.6258 32.8315 31.6859 32.982 31.7459C33.1324 31.806 33.2829 31.896 33.4333 31.9861C33.5838 32.0762 33.6741 32.2263 33.7643 32.3764C33.9148 32.5866 33.975 32.7667 33.9449 33.0069Z" fill="white"/>
<path d="M39 30.1247V34.478H37.7061V34.418C37.4353 34.5081 37.0742 34.5681 36.7131 34.5681C36.3821 34.5681 36.0812 34.5081 35.7803 34.388C35.4794 34.2679 35.2387 34.0877 35.0281 33.8776C34.8174 33.6674 34.6369 33.3972 34.5165 33.127C34.3962 32.8268 34.336 32.5265 34.336 32.1963C34.336 31.866 34.3962 31.5658 34.5165 31.2656C34.6369 30.9653 34.8174 30.7252 35.0281 30.515C35.4794 30.0947 36.0211 29.8545 36.653 29.7944C36.7131 29.7944 36.8034 29.7944 36.8636 29.7944C36.9238 29.7944 37.014 29.7944 37.0742 29.7944C37.2848 29.7944 37.4955 29.7944 37.676 29.8245C37.8566 29.8545 38.007 29.8845 38.1575 29.9145C38.3079 29.9445 38.3982 29.9746 38.4885 30.0046C38.5787 30.0346 38.6088 30.0346 38.6389 30.0346L39 30.1247ZM37.7061 31.0554C37.6158 31.0254 37.5256 31.0254 37.4052 30.9954C37.2848 30.9954 37.1645 30.9653 37.0441 30.9653C36.9839 30.9653 36.9539 30.9653 36.8937 30.9653C36.8335 30.9653 36.8034 30.9653 36.7432 30.9653C36.5627 30.9653 36.4122 31.0254 36.2618 31.0854C36.1113 31.1455 35.991 31.2355 35.9007 31.3256C35.8104 31.4157 35.7202 31.5358 35.66 31.6559C35.5998 31.776 35.5697 31.9261 35.5697 32.0762C35.5697 32.2263 35.5998 32.3764 35.66 32.5265C35.7202 32.6767 35.8104 32.7667 35.9007 32.8868C35.991 33.0069 36.1113 33.067 36.2618 33.127C36.4122 33.187 36.5326 33.2171 36.7131 33.2171C36.9839 33.2171 37.1946 33.187 37.345 33.157C37.4955 33.127 37.6158 33.0369 37.7362 32.9769V31.0554H37.7061Z" fill="white"/>
<path d="M21.0662 22.5889H26.9338V19.8868C27.2648 19.7667 27.5958 19.6467 27.9268 19.4065V24.5104C27.9268 25.4411 27.1746 26.1617 26.2719 26.1617C24.7373 26.1617 22.5407 26.1617 21.4273 26.1617C20.5547 26.1617 19.9529 25.4711 19.9228 24.5404C19.9228 23.4596 19.9228 22.4088 19.9228 21.3279C19.9228 20.7575 19.9228 20.157 19.9228 19.5866C19.9228 19.1062 19.9228 18.6259 19.9228 18.1455C19.9228 16.4342 19.9228 14.7529 19.9228 13.0416C19.9228 12.6212 19.8927 12.2309 20.1034 11.8406C20.4945 11.2102 21.0963 11 21.8185 11C23.2628 11.03 24.7072 11.03 26.1214 11C26.9338 10.97 27.8366 11.2102 27.9268 12.0808C27.9268 12.9515 27.9268 14.6928 27.9268 14.6928C27.9268 14.6928 27.2949 14.4226 26.9338 14.2425V12.4111H21.0662V22.5889ZM23.5036 23.7298V24.8707H24.5567V23.7298H23.5036ZM26.1515 24.5404V24.03H25.5196V24.5404H26.1515ZM21.9088 24.5404H22.5407V24.03H21.9088V24.5404Z" fill="white"/>
<path d="M19.9529 18.1455C19.9529 18.6259 19.9529 19.1062 19.9529 19.5866C18.9298 19.4965 18.1174 19.2263 17.1244 18.9261C18.5988 18.8961 19.0201 18.7159 19.9529 18.1455Z" fill="white"/>
<path d="M21.0662 19.7667V17.0346L21.4875 16.6143C21.4875 16.6143 22.1796 17.485 22.6309 17.8453C22.8115 17.9654 22.9017 17.9954 23.2026 17.8753C23.7743 17.6651 25.339 15.6536 26.0311 14.2125C27.6861 14.9931 29.311 15.7737 30.9659 16.5843C30.4544 17.2748 29.9429 17.8753 29.2207 18.4457C28.318 19.1363 27.2046 19.5266 26.0913 19.7367C24.9178 19.9469 23.7743 19.9469 22.6008 19.9169C22.0592 19.8868 21.0662 19.7667 21.0662 19.7667Z" fill="white"/>
</svg>
