<svg width="48" height="48" viewBox="0 0 48 48" fill="none" xmlns="http://www.w3.org/2000/svg">
<path d="M24 48C10.7 48 0 37.3 0 24C0 10.7 10.7 0 24 0C37.3 0 48 10.7 48 24C48 37.3 37.3 48 24 48Z" fill="white"/>
<path d="M19 22.8C19.3 22.9 19.6 22.7 19.8 22.7C20.1 22.7 20.4 22.7 20.6 22.7C20.9 22.7 21.1 22.7 21.4 22.7C21.7 22.7 21.9 22.9 22.2 22.7C22.2 22.8 22.2 22.8 22.3 22.9C22.6 23 22.8 22.9 23 22.7C23.1 22.7 23.2 22.9 23.4 22.7C23.7 22.8 23.9 22.9 24.2 22.8C24.3 22.7 24.4 22.8 24.6 22.8C24.8 22.9 25.1 22.9 25.3 22.8C25.4 22.8 25.4 22.9 25.5 22.9C25.9 22.8 26.2 23 26.6 23C27 23 27.4 23 27.8 23C28 23 28.2 23 28.3 23.1C28.5 23.2 28.6 23.3 28.8 23.1C28.9 23 29 23.2 29.1 23.2C29.5 23.2 29.8 23.3 30.1 23.3C30.6 23.3 31.1 23.4 31.5 23.5C31.7 23.6 32 23.5 32.2 23.6C32.6 23.6 32.9 23.8 33.2 23.8C33.3 23.9 33.4 23.9 33.5 23.9C33.6 23.9 33.7 24 33.8 24C34.1 24 34.4 24.1 34.7 24.2C34.9 24.3 35.2 24.3 35.4 24.4C35.6 24.5 35.9 24.6 36.2 24.6C36.2 24.8 36.2 24.9 36.5 25C36.8 25.1 37.1 25.3 37.3 25.5C37.1 25.6 37.1 25.6 36.4 25.3C36.3 25.4 36.4 25.5 36.5 25.5C36.6 25.5 36.6 25.6 36.6 25.7C36.5 25.7 36.4 25.9 36.2 25.8C36 25.7 36.1 25.5 35.9 25.4C35.4 25.4 34.9 25.2 34.4 25.1C34.2 25 34 25.2 33.9 25C33.6 25 33.2 24.9 32.9 24.9C32.4 24.9 32 24.8 31.5 24.8C31.2 24.6 30.9 24.8 30.7 24.5C30.5 24.5 30.3 24.7 30 24.5C29.9 24.4 29.6 24.4 29.5 24.6C29.2 24.6 29.1 24.4 29 24.3C28.8 24.2 28.7 24.4 28.6 24.5C28.4 24.4 28.2 24.2 28.1 24.3C27.9 24.4 27.7 24.3 27.5 24.4C27.5 24.5 27.3 24.4 27.3 24.5C27.6 24.6 27.8 24.7 28.1 24.6C28.3 24.6 28.4 24.7 28.6 24.7C28.8 24.7 29 24.6 29.1 24.8C29.1 24.8 29.2 24.8 29.3 24.8C29.6 24.7 29.8 24.9 30.1 24.9C30.4 24.9 30.6 25.1 30.9 25C31.1 25.1 31.3 25 31.5 25.1C31.7 25.2 31.9 25.2 32.1 25.2C32.2 25.2 32.2 25.2 32.3 25.3C32.5 25.4 32.6 25.4 32.8 25.3C33 25.4 33.1 25.5 33.3 25.5C33.9 25.5 34.5 25.7 35.1 25.8C35.6 25.9 36.2 26 36.7 26.2C36.8 26.2 36.9 26.2 37 26.2C37.1 26.2 37.2 26.3 37.2 26.4C37.2 26.5 37.2 26.5 37.1 26.5C36.9 26.5 36.8 26.4 36.6 26.4C36.5 26.4 36.3 26.4 36.2 26.3C36.2 26.3 36.1 26.3 36.1 26.4C36.2 26.5 36.3 26.5 36.5 26.6C36.5 26.7 36.5 26.7 36.5 26.8C36.5 26.9 36.4 26.8 36.4 26.8C36.2 26.8 36 26.8 35.9 27.1C35.6 27.1 35.4 27.2 35.1 27C35 27 34.9 27 34.8 27.1C34.6 26.9 34.4 27 34.3 27.1C34.2 27.1 34.2 27 34.2 27C34.2 27.1 34.2 27.1 34.1 27.2C33.9 27.1 33.7 27 33.5 27.1C33.5 27.1 33.5 27.1 33.5 27.2C33.5 27.2 33.5 27.3 33.4 27.3C33.4 27.2 33.3 27.1 33.3 27C33.2 27.1 33.2 27.1 33.1 27.1C33 27.1 33 27 32.9 27C32.8 27.1 32.6 27.1 32.5 27.1C32.1 27.1 31.7 27 31.3 26.9C31.2 26.9 31.2 26.8 31.1 26.8C31 26.8 30.9 26.9 30.7 26.9C30.7 26.9 30.6 27 30.5 27.1C30.3 27.1 30.2 27.1 30 27C29.9 27.1 30 27.1 30 27.2C29.9 27.3 29.9 27.4 29.8 27.5C29.6 27.5 29.4 27.3 29.3 27.4C29.1 27.5 28.9 27.4 28.8 27.6C28.7 27.6 28.8 27.5 28.7 27.4C28.6 27.3 28.5 27.6 28.3 27.5C28.3 27.4 28.2 27.3 28.2 27.3C27.9 27.3 27.6 27.2 27.4 27.4C27.1 27.3 26.8 27.3 26.6 27.3C26.4 27.3 26.3 27.4 26.2 27.3C26.1 27.2 26 27.3 25.9 27.3C25.6 27.3 25.3 27.3 25 27.3C24.8 27.3 24.6 27.3 24.5 27.2C24.4 27.2 24.3 27.1 24.2 27.2C24.1 27.3 24 27.2 23.8 27.2C23.7 27.2 23.7 27.3 23.6 27.3C23.2 27.1 22.7 27.2 22.3 27.3C22.2 27.4 22 27.4 21.9 27.4C21.5 27.2 21.3 27.5 20.9 27.6C20.6 27.4 20.3 27.7 20 27.8C19.9 27.8 19.7 27.8 19.4 27.7C19.2 27.7 19.1 27.4 18.8 27.6C18.8 27.6 18.9 27.7 18.8 27.8C18.7 28 18.4 27.8 18.4 28C18.3 27.9 18.1 27.9 18 27.8C17.8 27.8 17.6 27.8 17.3 27.8C17.2 27.9 17.2 27.9 17.1 28C16.6 28 16.1 28.2 15.6 28.1C15.5 28 15.6 27.9 15.5 27.7C15.4 27.9 15.4 28 15.3 28.1C15.2 28.1 15.2 28.1 15.1 28C15 28.2 14.7 28.1 14.6 28.3C14.4 28.3 14.4 28.2 14.3 28.1C14.3 28.2 14.3 28.2 14.2 28.3C14 28.3 13.7 28.1 13.4 28.2C13.3 28.3 13.2 28.4 13 28.4C12.9 28.4 12.9 28.3 12.8 28.3C12.7 28.4 12.5 28.4 12.3 28.4C12.3 28.4 12.2 28.3 12.2 28.2C12 28.1 11.9 28.3 11.7 28.3C11.6 28.2 11.6 28.1 11.5 28C11.3 28 11.1 28 10.8 28C10.7 27.6 10.5 27.2 10.4 26.8C10.3 26.5 10.2 26.1 10.2 25.8C10.2 25.6 10.2 25.4 10.2 25.1C10.2 25 10.2 24.9 10.1 24.8C9.99998 24.6 9.89998 24.3 9.99998 24.1C10.2 23.7 10.5 23.3 10.8 23C11.2 22.7 11.6 22.3 12 22C12.1 21.9 12.1 21.9 12.2 21.8C12.3 21.7 12.5 21.6 12.6 21.4C13 21.2 13.2 21.2 13.3 21C13.7 20.6 14.2 20.3 14.6 20C15.2 19.5 15.9 19.1 16.5 18.7C16.9 18.4 17.3 18.2 17.7 18C18.3 17.6 19 17.3 19.7 16.9C20.4 16.5 21.1 16.1 21.8 15.8C22.5 15.5 23.3 15.1 24 14.8C24.4 14.7 24.7 14.4 25.1 14.3C25.5 14.2 25.8 14 26.2 13.8C26.3 13.7 26.5 13.8 26.5 13.7C26.5 13.7 26.5 13.7 26.6 13.6C26 13.7 25.6 13.5 25 13.5C24.7 13.5 24.4 13.5 24.1 13.5C23.4 13.5 22.6 13.7 21.9 13.6C21.6 13.7 21.2 13.6 20.9 13.7C20.6 13.8 20.3 13.7 20.1 13.8C19.8 13.9 19.6 13.8 19.3 13.9C19 14 18.7 13.9 18.6 14C18.4 14.1 18.2 14.1 18 14.1C17.6 14.3 17.2 14.2 16.7 14.4C16.4 14.5 16.1 14.4 15.8 14.4C15.8 14.3 15.7 14.3 15.6 14.2C15.6 14.1 15.4 14.1 15.3 14C15.3 13.9 15.3 13.8 15.3 13.6C15.4 13.5 15.4 13.3 15.6 13.2C15.8 13.2 15.8 12.9 16 12.9C16.2 12.9 16.3 12.7 16.5 12.6C17 12.6 17.4 12.4 17.9 12.3C18.1 12.3 18.3 12.2 18.4 12.4C18.5 12.4 18.5 12.3 18.7 12.2C19 12.2 19.3 12 19.6 12C19.9 11.9 20.2 11.9 20.5 11.8C20.7 11.7 21 11.7 21.2 11.7C21.4 11.5 21.7 11.7 21.9 11.5C22.2 11.6 22.5 11.4 22.8 11.4C23.1 11.4 23.5 11.4 23.8 11.2H23.9C24.4 11.3 24.9 11.1 25.4 11.1C25.9 11.1 26.4 11 26.9 11C27.4 11 27.9 11 28.4 11C28.7 11 28.9 11.1 29.1 11.1C29.3 11.1 29.6 11.1 29.8 11.2C30 11.3 30.3 11.3 30.5 11.3C31.2 11.4 31.9 11.6 32.5 11.8C32.8 11.9 33 12 33.2 12.1C33.3 12.6 33.1 13.1 32.9 13.5C32.7 14 32.4 14.4 32 14.8C31.8 15 31.6 15.2 31.3 15.2C30.9 15.3 30.4 15.5 30 15.8C29.7 16 29.4 16.1 29.2 16.3C28.9 16.4 28.7 16.5 28.4 16.7C28.2 16.8 28.1 17 27.8 16.9C27.4 17.1 27 17.4 26.6 17.7C26.3 17.9 26.1 18.1 25.8 18.2C25.7 18.2 25.5 18.3 25.4 18.4C25.2 18.6 24.9 18.8 24.6 18.9C24.3 19 24 19.2 23.8 19.4C23.3 19.8 22.8 20.1 22.3 20.4C22 20.6 21.8 20.8 21.5 20.9C21.4 21 21.2 21 21.1 21.1C20.8 21.2 20.6 21.4 20.4 21.6C20.3 21.7 20.1 21.8 20 22C20 22.1 19.9 22.1 19.7 22.2C19.5 22.3 19.2 22.5 19 22.8Z" fill="#8CC53F"/>
<path d="M20.5 32.6H21.6L23.9 35.5V32.6H24.9V37.5H23.9L21.6 34.5V37.5H20.5V32.6Z" fill="#8CC53F"/>
<path d="M31.4 34.5C31.4 34.5 32.9 34.5 33.7 34.5C33.7 34.8 33.7 35.1 33.7 35.4C32.9 35.4 31.4 35.4 31.4 35.4V36.4H34.1V37.3H30.3V32.5H34.1V33.4H31.4V34.5Z" fill="#8CC53F"/>
<path d="M11.4 36.5H14.2V37.5H10V36.5L12.8 33.6H10V32.6H14.2V33.6L11.4 36.5Z" fill="#8CC53F"/>
<path d="M29.7 33.5H28.2V37.5H27.1V33.5H25.6V32.6H29.7V33.5Z" fill="#8CC53F"/>
<path d="M34.9 32.6H36V36.5H38.5V37.5H34.9V32.6Z" fill="#8CC53F"/>
<path d="M17.8 32.6H16.8L14.6 37.5H15.6L16.1 36.4H18.3L18.8 37.5H19.8L17.8 32.6ZM16.6 35.4L17.3 33.7L18 35.4H16.6Z" fill="#8CC53F"/>
</svg>
