<svg width="1024" height="1024" viewBox="0 0 1024 1024" fill="none" xmlns="http://www.w3.org/2000/svg">
<rect width="1024" height="1024" fill="white"/>
<mask id="mask0" mask-type="alpha" maskUnits="userSpaceOnUse" x="0" y="0" width="1024" height="1024">
<path d="M0 0H1024V1024H0V0Z" fill="white"/>
</mask>
<g mask="url(#mask0)">
<rect width="1024" height="1024" fill="#A32A29"/>
<path opacity="0.5" d="M9 685.794V1079H1050V956.206L753 767.203L316.44 482L9 685.794Z" fill="url(#paint0_linear)" fill-opacity="0.5"/>
<path opacity="0.5" d="M9 802.616V1061H753H1030L753 883.954L316.44 599L9 802.616Z" fill="url(#paint1_linear)" fill-opacity="0.5"/>
<path opacity="0.5" d="M0 1061V925.272L307.066 721L820 1061H743.094H0Z" fill="url(#paint2_linear)" fill-opacity="0.5"/>
<path opacity="0.5" d="M9 1050L316.514 845L633 1050H9Z" fill="url(#paint3_linear)" fill-opacity="0.5"/>
<path d="M428 1027L318.742 956L213 1027H428Z" fill="url(#paint4_linear)"/>
</g>
<defs>
<linearGradient id="paint0_linear" x1="316.44" y1="1079" x2="606.542" y2="565.695" gradientUnits="userSpaceOnUse">
<stop stop-color="white" stop-opacity="0"/>
<stop offset="1" stop-color="#A32A29" stop-opacity="0.95"/>
</linearGradient>
<linearGradient id="paint1_linear" x1="645.083" y1="561.042" x2="382.07" y2="1061.56" gradientUnits="userSpaceOnUse">
<stop stop-color="#A32A29"/>
<stop offset="1" stop-color="#E6E7E7" stop-opacity="0"/>
</linearGradient>
<linearGradient id="paint2_linear" x1="515.849" y1="857" x2="371.193" y2="1060.75" gradientUnits="userSpaceOnUse">
<stop stop-color="#A32A29"/>
<stop offset="1" stop-color="#E6E7E7" stop-opacity="0"/>
</linearGradient>
<linearGradient id="paint3_linear" x1="460.346" y1="827.257" x2="320.211" y2="1049.5" gradientUnits="userSpaceOnUse">
<stop stop-color="#A32A29"/>
<stop offset="1" stop-color="#E3E4E4" stop-opacity="0"/>
</linearGradient>
<linearGradient id="paint4_linear" x1="429.352" y1="672" x2="368.722" y2="1026.81" gradientUnits="userSpaceOnUse">
<stop stop-color="#EBEBEB"/>
<stop offset="1" stop-color="#C9C7C7" stop-opacity="0"/>
</linearGradient>
</defs>
</svg>
