<svg width="48" height="48" viewBox="0 0 48 48" fill="none" xmlns="http://www.w3.org/2000/svg">
<path d="M24 48C10.7 48 0 37.3 0 24C0 10.7 10.7 0 24 0C37.3 0 48 10.7 48 24C48 37.3 37.3 48 24 48Z" fill="white"/>
<g clip-path="url(#clip0)">
<path d="M22.0031 20.625C21.5491 20.7375 21.0951 20.7375 20.6411 20.85C20.1871 20.85 19.7331 20.9625 19.2792 20.9625C19.2792 20.9625 19.2792 20.85 19.1657 20.85C19.5062 20.4 19.8466 19.95 20.1871 19.5C20.1871 19.5 20.1871 19.3875 20.0736 19.3875C19.6196 19.3875 19.0522 19.5 18.4847 19.6125C18.3712 19.6125 18.1442 19.8375 18.0307 19.95C17.6902 20.4 17.3497 20.7375 16.8957 21.1875C16.7822 21.4125 16.5552 21.525 16.2147 21.525C15.1933 21.525 14.2853 21.525 13.2638 21.525C12.3558 21.525 11.9019 21.975 11.9019 22.875C11.9019 25.8 11.9019 28.6125 11.9019 31.5375C11.9019 32.55 12.3558 33 13.3773 33C14.8528 33 16.3282 33 17.8037 33C18.8252 33 19.3927 32.55 19.3927 31.425C19.3927 28.6125 19.3927 25.8 19.3927 22.9875C19.3927 22.7625 19.3927 22.65 19.3927 22.425C20.0736 22.2 20.7546 22.0875 21.3221 21.8625C21.5491 21.75 21.8896 21.6375 22.1166 21.4125C22.3436 21.1875 22.3436 20.85 22.0031 20.625ZM16.2147 22.0875C16.2147 22.2 16.2147 22.3125 16.2147 22.425C15.6473 22.425 15.1933 22.425 14.7393 22.425C14.7393 22.3125 14.7393 22.2 14.7393 22.0875C15.3068 22.0875 15.7608 22.0875 16.2147 22.0875ZM14.2853 31.875C13.8313 31.875 13.3773 31.875 12.8098 31.875C12.8098 31.7625 12.8098 31.5375 12.8098 31.3125C13.2638 31.3125 13.7178 31.3125 14.2853 31.3125C14.2853 31.5375 14.2853 31.7625 14.2853 31.875ZM12.8098 30.75C12.8098 30.525 12.8098 30.4125 12.8098 30.1875C13.3773 30.1875 13.7178 30.1875 14.2853 30.1875C14.2853 30.4125 14.2853 30.525 14.2853 30.75C13.7178 30.75 13.3773 30.75 12.8098 30.75ZM12.8098 29.625C12.8098 29.4 12.8098 29.2875 12.8098 29.0625C13.2638 29.0625 13.7178 29.0625 14.2853 29.0625C14.2853 29.2875 14.2853 29.4 14.2853 29.625C13.8313 29.625 13.3773 29.625 12.8098 29.625ZM14.7393 29.0625H16.2147V29.625H14.7393V29.0625ZM16.2147 30.1875C16.2147 30.4125 16.2147 30.525 16.2147 30.75C15.7608 30.75 15.1933 30.75 14.7393 30.75C14.7393 30.525 14.7393 30.4125 14.7393 30.1875C15.3068 30.1875 15.7608 30.1875 16.2147 30.1875ZM14.7393 31.875C14.7393 31.65 14.7393 31.5375 14.7393 31.3125C15.1933 31.3125 15.7608 31.3125 16.2147 31.3125C16.2147 31.425 16.2147 31.65 16.2147 31.875C15.7608 31.875 15.3068 31.875 14.7393 31.875ZM18.1442 31.875C17.6902 31.875 17.2362 31.875 16.6687 31.875C16.6687 31.65 16.6687 31.5375 16.6687 31.3125C17.1227 31.3125 17.6902 31.3125 18.1442 31.3125C18.1442 31.5375 18.1442 31.7625 18.1442 31.875ZM18.1442 30.75C17.6902 30.75 17.1227 30.75 16.6687 30.75C16.6687 30.525 16.6687 30.4125 16.6687 30.1875C17.1227 30.1875 17.6902 30.1875 18.1442 30.1875C18.1442 30.4125 18.1442 30.525 18.1442 30.75ZM18.1442 29.625C17.6902 29.625 17.1227 29.625 16.6687 29.625C16.6687 29.4 16.6687 29.2875 16.6687 29.0625C17.1227 29.0625 17.5767 29.0625 18.1442 29.0625C18.1442 29.2875 18.1442 29.4 18.1442 29.625ZM18.4847 28.1625C16.5552 28.1625 14.6258 28.1625 12.6963 28.1625C12.6963 26.475 12.6963 24.7875 12.6963 23.1C14.6258 23.1 16.5552 23.1 18.4847 23.1C18.4847 24.7875 18.4847 26.475 18.4847 28.1625Z" fill="#0D78BC"/>
<path d="M10.6534 25.125C10.4264 24.45 9.5184 24.3375 9.5184 24.3375C9.5184 24.3375 9.5184 20.0625 13.2638 16.9125C16.6687 14.4375 21.0951 14.325 24.5 16.8C26.8834 18.4875 28.5859 21.6375 28.5859 24.5625C28.2454 24.5625 27.7914 24.5625 27.4509 24.5625C27.3374 22.3125 26.6564 20.4 25.0675 18.825C25.181 18.6 25.2945 18.375 25.2945 18.15C25.181 18.0375 24.954 18.0375 24.8405 17.925C24.046 17.5875 19.6196 14.775 15.5337 17.025C12.3558 18.7125 10.8804 21.1875 10.6534 25.125Z" fill="url(#paint0_linear)"/>
<path d="M9.06442 26.5875V29.175H7.70245V26.5875C7.70245 26.5875 7.70245 26.25 7.47546 26.25C7.24847 26.25 7.24847 26.5875 7.24847 26.5875V29.175C7.24847 29.175 6.45399 29.175 6 29.175C6 27.7125 6 26.25 6 24.675C6.68098 24.675 6.45399 24.675 7.13497 24.675C7.36196 24.675 8.38344 24.7875 8.49693 24.675C9.6319 24.225 10.5399 24.9 10.5399 26.025C10.6534 27.0375 10.5399 28.05 10.5399 29.175C10.1994 29.175 9.40491 29.175 9.40491 29.175V26.5875C9.40491 26.5875 9.40491 26.25 9.17791 26.25C8.95092 26.25 9.06442 26.5875 9.06442 26.5875Z" fill="#0D78BC"/>
<path d="M24.3865 25.575C24.1595 25.8 23.819 26.025 23.592 26.25C23.138 25.6875 22.1166 25.6875 21.7761 26.25C21.4356 26.7 21.5491 27.4875 22.0031 27.7125C23.138 28.275 23.4785 27.2625 23.4785 27.2625H22.5706C22.5706 27.2625 22.5706 26.8125 22.5706 26.475C23.2515 26.475 23.819 26.475 24.5 26.475C24.6135 26.475 24.727 26.7 24.727 26.8125C24.8405 27.6 24.1595 28.6125 23.365 28.95C22.3436 29.4 21.2086 29.175 20.5276 28.05C19.8466 26.925 20.1871 24.9 22.0031 24.45C23.0245 24.45 24.046 24.9 24.3865 25.575Z" fill="#3AB644"/>
<path d="M19.8466 20.5125C20.3006 19.95 20.7546 19.5 21.0951 18.825C21.4356 18.2625 21.5491 17.5875 21.7761 16.9125C22.7975 17.25 23.9325 17.7 25.0675 18.15C23.9325 19.725 22.911 21.3 21.8896 22.875C21.5491 22.65 21.3221 22.425 20.9816 22.3125C21.4356 22.0875 21.7761 21.975 22.1166 21.8625C22.3436 21.75 22.457 21.525 22.5705 21.3C22.684 21.075 22.5705 20.85 22.457 20.625C22.3436 20.5125 22.0031 20.4 21.7761 20.4C21.0951 20.4 20.5276 20.5125 19.9601 20.625C19.8466 20.625 19.8466 20.625 19.8466 20.5125Z" fill="url(#paint1_linear)"/>
<path d="M26.089 24.675C26.089 25.0125 26.089 25.2375 26.089 25.575C26.089 26.1375 26.089 26.8125 26.089 27.375C26.089 27.825 26.3159 28.05 26.6564 28.05C27.1104 28.05 27.3374 27.825 27.3374 27.375C27.3374 26.7 27.3374 25.9125 27.3374 25.2375C27.3374 25.0125 27.3374 24.9 27.3374 24.5625C27.7914 24.5625 28.4724 24.5625 28.4724 24.5625C28.4724 24.5625 28.4724 26.7 28.3589 27.7125C28.2454 28.8375 27.4509 29.2875 26.2024 29.0625C25.408 28.95 24.8405 28.275 24.8405 27.2625C24.8405 26.475 24.8405 24.675 24.8405 24.45C25.2945 24.675 25.7485 24.675 26.089 24.675Z" fill="#3AB644"/>
<path d="M21.6626 23.55C22.684 22.7625 23.819 21.8625 24.954 21.075C25.0675 21.525 25.2945 21.975 25.408 22.425C24.1595 22.7625 22.911 23.2125 21.6626 23.55Z" fill="url(#paint2_linear)"/>
<path d="M24.6135 19.3875C24.954 19.725 25.181 19.95 25.408 20.175C24.3865 20.9625 23.365 21.75 22.4571 22.5375C22.4571 22.5375 22.3436 22.5375 22.3436 22.425C23.0245 21.525 23.819 20.5125 24.6135 19.3875Z" fill="url(#paint3_linear)"/>
<path d="M21.0951 23.775C20.7546 23.8875 20.5276 24 20.3006 24C20.0736 23.55 19.9601 22.9875 19.7331 22.5375L19.8466 22.425C20.4141 22.7625 20.5276 23.325 21.0951 23.775Z" fill="url(#paint4_linear)"/>
<path d="M21.2086 23.55C20.8681 23.1 20.6411 22.7625 20.3006 22.425L20.4141 22.3125C20.8681 22.425 21.2086 22.7625 21.6626 23.1C21.4356 23.2125 21.3221 23.4375 21.2086 23.55Z" fill="url(#paint5_linear)"/>
<path d="M20.1871 19.1625C19.7331 19.275 19.2792 19.275 18.8252 19.3875C18.8252 18.7125 19.3926 18.7125 20.1871 19.1625Z" fill="#0D78BC"/>
<path d="M31.3098 27.4875C31.3098 27.4875 32.5583 27.0375 31.9908 25.4625C31.8773 25.0125 31.5368 24.675 31.1963 24.675C30.4018 24.5625 29.6074 24.675 28.8129 24.675C28.8129 26.25 28.8129 29.175 28.8129 29.175H29.9479V28.05C29.9479 28.05 31.0828 27.9375 31.0828 29.175C31.5368 29.175 31.7638 29.175 32.3313 29.175C31.9908 27.7125 31.3098 27.4875 31.3098 27.4875ZM29.8344 26.8125V25.6875C29.8344 25.6875 31.0828 25.575 31.0828 26.25C31.0828 27.0375 29.8344 26.8125 29.8344 26.8125Z" fill="#3AB644"/>
<path d="M43 24.675C43 26.1375 43 27.6 43 29.0625C42.6595 29.0625 42.2055 29.0625 41.7515 29.0625C41.7515 28.5 41.7515 28.05 41.7515 27.4875C41.1841 27.4875 40.8436 27.4875 40.2761 27.4875C40.2761 28.05 40.2761 28.5 40.2761 29.0625C39.8221 29.0625 39.5951 29.0625 39.1411 29.0625C39.1411 27.6 39.1411 26.1375 39.1411 24.675C39.4816 24.675 39.8221 24.675 40.2761 24.675C40.2761 25.2375 40.2761 25.6875 40.2761 26.25C40.7301 26.25 41.1841 26.25 41.7515 26.25C41.7515 25.6875 41.7515 25.2375 41.7515 24.675C42.092 24.675 42.546 24.675 43 24.675Z" fill="#3AB644"/>
<path d="M34.7147 24.675H35.9632C35.9632 24.675 35.9632 27.0375 35.9632 27.6C35.9632 28.6125 35.2822 29.2875 34.2607 29.2875C33.1258 29.2875 32.4448 28.8375 32.3313 27.7125C32.3313 27.4875 32.3313 24.675 32.3313 24.675H33.5798C33.5798 24.675 33.5798 26.8125 33.5798 27.4875C33.5798 27.9375 33.8068 28.1625 34.1472 28.1625C34.4877 28.1625 34.7147 27.825 34.7147 27.375C34.8282 26.7 34.7147 24.675 34.7147 24.675Z" fill="#3AB644"/>
<path d="M36.4172 29.175C36.4172 28.8375 36.4172 28.5 36.4172 28.1625C36.8712 28.1625 37.2117 28.1625 37.5522 28.1625C37.7791 27.7125 37.6657 27.6 37.3252 27.375C37.0982 27.2625 36.7577 27.0375 36.5307 26.8125C36.0767 26.3625 36.0767 25.9125 36.1902 25.35C36.3037 24.9 36.7577 24.5625 37.2117 24.5625C37.6657 24.45 38.1196 24.5625 38.6871 24.5625C38.6871 25.0125 38.5736 25.2375 38.5736 25.575C38.1196 25.6875 37.6657 25.35 37.3252 25.8C37.2117 26.1375 37.4387 26.3625 37.7791 26.475C38.5736 26.8125 38.9141 27.2625 38.9141 28.1625C38.9141 28.725 38.5736 29.175 38.0061 29.175C37.5522 29.2875 36.9847 29.175 36.4172 29.175Z" fill="#3AB644"/>
</g>
<defs>
<linearGradient id="paint0_linear" x1="9.52657" y1="20.0754" x2="28.5774" y2="20.0754" gradientUnits="userSpaceOnUse">
<stop stop-color="#0D78BC"/>
<stop offset="0.1225" stop-color="#0F7CBF"/>
<stop offset="0.2355" stop-color="#1687C8"/>
<stop offset="0.3444" stop-color="#2199D6"/>
<stop offset="0.3996" stop-color="#28A6E0"/>
<stop offset="0.4238" stop-color="#29A7D8"/>
<stop offset="0.6247" stop-color="#30AD99"/>
<stop offset="0.7946" stop-color="#36B26B"/>
<stop offset="0.9249" stop-color="#39B54F"/>
<stop offset="1" stop-color="#3AB644"/>
</linearGradient>
<linearGradient id="paint1_linear" x1="19.8003" y1="19.9278" x2="24.9793" y2="19.9278" gradientUnits="userSpaceOnUse">
<stop stop-color="#0D78BC"/>
<stop offset="0.1225" stop-color="#0F7CBF"/>
<stop offset="0.2355" stop-color="#1687C8"/>
<stop offset="0.3444" stop-color="#2199D6"/>
<stop offset="0.3996" stop-color="#28A6E0"/>
<stop offset="0.4238" stop-color="#29A7D8"/>
<stop offset="0.6247" stop-color="#30AD99"/>
<stop offset="0.7946" stop-color="#36B26B"/>
<stop offset="0.9249" stop-color="#39B54F"/>
<stop offset="1" stop-color="#3AB644"/>
</linearGradient>
<linearGradient id="paint2_linear" x1="21.6763" y1="22.2832" x2="25.4199" y2="22.2832" gradientUnits="userSpaceOnUse">
<stop stop-color="#0D78BC"/>
<stop offset="0.1225" stop-color="#0F7CBF"/>
<stop offset="0.2355" stop-color="#1687C8"/>
<stop offset="0.3444" stop-color="#2199D6"/>
<stop offset="0.3996" stop-color="#28A6E0"/>
<stop offset="0.4238" stop-color="#29A7D8"/>
<stop offset="0.6247" stop-color="#30AD99"/>
<stop offset="0.7946" stop-color="#36B26B"/>
<stop offset="0.9249" stop-color="#39B54F"/>
<stop offset="1" stop-color="#3AB644"/>
</linearGradient>
<linearGradient id="paint3_linear" x1="22.3523" y1="21.0111" x2="25.4101" y2="21.0111" gradientUnits="userSpaceOnUse">
<stop stop-color="#0D78BC"/>
<stop offset="0.1225" stop-color="#0F7CBF"/>
<stop offset="0.2355" stop-color="#1687C8"/>
<stop offset="0.3444" stop-color="#2199D6"/>
<stop offset="0.3996" stop-color="#28A6E0"/>
<stop offset="0.4238" stop-color="#29A7D8"/>
<stop offset="0.6247" stop-color="#30AD99"/>
<stop offset="0.7946" stop-color="#36B26B"/>
<stop offset="0.9249" stop-color="#39B54F"/>
<stop offset="1" stop-color="#3AB644"/>
</linearGradient>
<linearGradient id="paint4_linear" x1="19.7532" y1="23.2964" x2="21.0504" y2="23.2964" gradientUnits="userSpaceOnUse">
<stop stop-color="#0D78BC"/>
<stop offset="0.1225" stop-color="#0F7CBF"/>
<stop offset="0.2355" stop-color="#1687C8"/>
<stop offset="0.3444" stop-color="#2199D6"/>
<stop offset="0.3996" stop-color="#28A6E0"/>
<stop offset="0.4238" stop-color="#29A7D8"/>
<stop offset="0.6247" stop-color="#30AD99"/>
<stop offset="0.7946" stop-color="#36B26B"/>
<stop offset="0.9249" stop-color="#39B54F"/>
<stop offset="1" stop-color="#3AB644"/>
</linearGradient>
<linearGradient id="paint5_linear" x1="20.2907" y1="22.9731" x2="21.6148" y2="22.9731" gradientUnits="userSpaceOnUse">
<stop stop-color="#0D78BC"/>
<stop offset="0.1225" stop-color="#0F7CBF"/>
<stop offset="0.2355" stop-color="#1687C8"/>
<stop offset="0.3444" stop-color="#2199D6"/>
<stop offset="0.3996" stop-color="#28A6E0"/>
<stop offset="0.4238" stop-color="#29A7D8"/>
<stop offset="0.6247" stop-color="#30AD99"/>
<stop offset="0.7946" stop-color="#36B26B"/>
<stop offset="0.9249" stop-color="#39B54F"/>
<stop offset="1" stop-color="#3AB644"/>
</linearGradient>
<clipPath id="clip0">
<rect width="37" height="18" fill="white" transform="translate(6 15)"/>
</clipPath>
</defs>
</svg>
