<svg width="48" height="48" viewBox="0 0 48 48" fill="none" xmlns="http://www.w3.org/2000/svg">
<path d="M0 24C0 10.7452 10.7452 0 24 0C37.2548 0 48 10.7452 48 24C48 37.2548 37.2548 48 24 48C10.7452 48 0 37.2548 0 24Z" fill="#E9E9E9"/>
<path d="M24 48C10.7 48 0 37.3 0 24C0 10.7 10.7 0 24 0C37.3 0 48 10.7 48 24C48 37.3 37.3 48 24 48Z" fill="white"/>
<path fill-rule="evenodd" clip-rule="evenodd" d="M27.0566 9.0378C29.2189 8.81749 31.6795 9.55186 32.7979 11.4612C33.9163 13.5909 33.3198 16.1612 32.1268 18.144C30.8593 20.4939 28.6224 22.183 26.4601 23.6517C25.118 24.4595 23.7013 25.3408 22.1355 25.3408C20.868 25.3408 20.0478 23.9455 20.4206 22.8439C20.7934 21.6689 21.3899 20.4205 22.5083 19.6861C23.1794 19.3189 24.2233 19.1721 24.8943 19.6861C25.1926 19.9799 25.1926 20.4205 24.9689 20.7877C24.2233 21.8892 22.9557 22.6236 22.2847 23.7986C22.1355 24.0189 22.061 24.3861 22.2847 24.6064C22.5829 24.8267 23.0303 24.6798 23.3285 24.6064C24.7452 24.0923 26.0128 23.1377 27.1312 22.2564C28.9207 20.7877 30.6356 19.0252 31.083 16.6752C31.2321 15.6471 31.0084 14.3252 29.89 13.9581C28.697 13.6643 27.504 14.2518 26.4601 14.8393C24.9689 15.7205 23.4031 16.6018 22.061 17.7033C21.0917 18.4377 20.0478 19.2455 18.7802 19.3924C17.5127 19.4658 16.2451 18.2908 16.4688 16.969C16.4688 15.9409 17.0653 15.0596 17.6618 14.3252C19.0039 12.5628 20.9425 11.3143 22.8812 10.3597C24.1487 9.69873 25.5654 9.18467 27.0566 9.0378ZM18.1838 29.3063C18.9294 29.086 19.675 29.8204 19.3767 30.5548C19.2276 31.2891 18.1092 31.5094 17.5873 30.9954C17.0653 30.4813 17.3636 29.3798 18.1838 29.3063ZM25.0435 30.1876C25.5654 30.1141 26.0873 30.0407 26.6838 29.9673C26.6838 30.6282 26.6838 31.2891 26.6838 31.8766C27.0566 31.8766 27.3549 31.8766 27.7277 31.8766C27.7277 32.3173 27.7277 32.6844 27.7277 33.1251C27.3549 33.1251 27.0566 33.1251 26.6838 33.1251C26.6838 34.3735 26.6838 35.5485 26.6838 36.7969C26.6838 37.0906 26.6838 37.3844 26.8329 37.6047C27.0566 37.825 27.4294 37.825 27.8023 37.8984C27.8023 38.2656 27.8023 38.6328 27.8023 38.9266C27.0566 38.9266 26.2364 38.9266 25.64 38.4125C25.2671 38.0453 25.118 37.5313 25.118 37.0172C25.0435 34.7407 25.0435 32.4641 25.0435 30.1876ZM34.662 30.1876C35.1839 30.1141 35.7058 30.0407 36.2278 29.8938C36.2278 32.3173 36.2278 34.7407 36.2278 37.2375C36.2278 37.825 36.8988 37.8984 37.3462 37.8984C37.3462 38.2656 37.3462 38.6328 37.3462 39C36.6006 39 35.7804 39 35.1839 38.4125C34.7365 38.0453 34.662 37.4578 34.662 36.9438C34.662 34.6672 34.662 32.4641 34.662 30.1876ZM11.5477 32.4641C12.3679 32.0235 13.2627 31.7298 14.232 31.7298C15.2758 31.7298 16.3943 32.4641 16.5434 33.4922C16.5434 34.8875 16.6925 36.2828 16.5434 37.6781C15.7978 38.5594 14.5302 39 13.4118 38.9266C12.0697 38.9266 10.8021 37.6047 11.0258 36.2828C11.1004 35.4016 11.846 34.5938 12.7407 34.3735C13.4863 34.2266 14.3065 34.3 15.0521 34.3C15.0521 33.8594 14.903 33.2719 14.4556 33.1251C13.6355 32.8313 12.8153 33.1985 12.0697 33.5657C11.846 33.1985 11.6969 32.8313 11.5477 32.4641ZM20.5697 32.9047C21.6136 31.9501 23.1048 31.5094 24.5215 31.8032C24.2978 32.2438 24.1487 32.6844 23.925 33.1251C23.254 33.0516 22.5829 33.1251 21.9119 33.4922C21.9119 35.2547 21.9119 37.0906 21.9119 38.8531C21.3899 38.8531 20.868 38.8531 20.3461 38.8531C20.3461 37.0906 20.3461 35.4016 20.3461 33.6391C20.3461 33.4188 20.346 33.1251 20.5697 32.9047ZM29.1444 32.6844C29.9646 31.6563 31.6049 31.5829 32.6488 32.2438C33.6927 32.9782 33.8418 34.3735 33.8418 35.5485C32.4997 35.5485 31.1575 35.5485 29.8154 35.5485C29.89 36.3563 30.1137 37.2375 30.8593 37.6047C31.6795 37.9719 32.5742 37.5313 33.3198 37.2375C33.469 37.6047 33.6181 37.8984 33.7672 38.1922C32.4997 39 30.561 39.3672 29.2935 38.2656C27.8768 36.8703 27.8768 34.3 29.1444 32.6844ZM17.6618 32.1704C18.1838 32.0969 18.7057 32.0235 19.2276 31.9501C19.2276 34.2266 19.2276 36.5766 19.2276 38.8531C18.7057 38.8531 18.1838 38.8531 17.6618 38.8531C17.6618 36.65 17.6618 34.4469 17.6618 32.1704ZM30.3374 33.3454C30.7102 32.9047 31.4558 32.9047 31.8286 33.3454C32.0523 33.6391 32.1268 34.0063 32.2014 34.3735C31.4558 34.3735 30.7102 34.3735 29.9646 34.3735C30.0391 34.0063 30.1137 33.6391 30.3374 33.3454ZM12.9644 35.8422C13.5609 35.475 14.232 35.6219 14.903 35.6219C14.903 36.2094 14.9776 36.7969 14.8285 37.3844C14.4556 37.825 13.7846 37.8984 13.2627 37.6781C12.5916 37.3844 12.3679 36.2828 12.9644 35.8422Z" fill="#ED1C24"/>
</svg>
