<svg width="48" height="48" viewBox="0 0 48 48" fill="none" xmlns="http://www.w3.org/2000/svg">
<path d="M24 48C10.7 48 0 37.3 0 24C0 10.7 10.7 0 24 0C37.3 0 48 10.7 48 24C48 37.3 37.3 48 24 48Z" fill="white"/>
<mask id="mask0" mask-type="alpha" maskUnits="userSpaceOnUse" x="0" y="0" width="48" height="48">
<rect width="48" height="48" rx="24" fill="#E9E9E9"/>
</mask>
<g mask="url(#mask0)">
<path d="M18.4064 31.0205C18.406 29.918 18.7325 28.8402 19.3447 27.9233C19.9569 27.0064 20.8273 26.2917 21.8457 25.8694C22.8642 25.4472 23.9849 25.3365 25.0663 25.5512C26.1477 25.766 27.1411 26.2966 27.9209 27.076C28.7006 27.8554 29.2318 28.8485 29.4471 29.9297C29.6625 31.011 29.5524 32.1318 29.1307 33.1505C28.709 34.1691 27.9947 35.0399 27.0782 35.6526C26.1616 36.2653 25.0839 36.5924 23.9814 36.5926C22.5034 36.5926 21.0858 36.0057 20.0403 34.9608C18.9949 33.9159 18.4072 32.4986 18.4064 31.0205Z" fill="url(#paint0_radial)"/>
<path d="M23.008 15.2006C22.6481 15.3651 22.2531 15.2698 22.1238 14.9881C21.9944 14.7064 22.1819 14.3445 22.5408 14.1801C22.8997 14.0156 23.2957 14.1109 23.425 14.3926C23.5544 14.6743 23.3669 15.0372 23.008 15.2006Z" fill="#FCCF17"/>
<path d="M22.9945 15.1762C23.3339 15.0211 23.5105 14.6797 23.3889 14.4139C23.2673 14.148 22.8937 14.0583 22.5543 14.2134C22.2149 14.3686 22.0383 14.7099 22.1599 14.9758C22.2814 15.2417 22.6551 15.3314 22.9945 15.1762Z" fill="#FCD117"/>
<path d="M22.9819 15.1445C22.6621 15.2908 22.3102 15.2056 22.1959 14.956C22.0817 14.7063 22.2481 14.3845 22.5669 14.2382C22.8857 14.0918 23.2386 14.177 23.3529 14.4266C23.4672 14.6763 23.3007 15.0001 22.9819 15.1445Z" fill="#FCD316"/>
<path d="M22.9689 15.1164C22.6681 15.2528 22.3393 15.1736 22.232 14.939C22.1248 14.7044 22.2812 14.4036 22.5799 14.2663C22.8787 14.1289 23.2095 14.2091 23.3168 14.4437C23.4241 14.6783 23.2677 14.9791 22.9689 15.1164Z" fill="#FCD516"/>
<path d="M22.9559 15.0883C22.6762 15.2157 22.3684 15.1415 22.2681 14.9229C22.1679 14.7044 22.3132 14.4216 22.5929 14.2943C22.8727 14.167 23.1804 14.2412 23.2807 14.4597C23.3809 14.6783 23.2376 14.96 22.9559 15.0883Z" fill="#FCD616"/>
<path d="M22.9428 15.0593C22.6832 15.1786 22.3974 15.1094 22.3042 14.9059C22.211 14.7024 22.3463 14.4417 22.605 14.3234C22.8636 14.2051 23.1503 14.2733 23.2436 14.4768C23.3368 14.6803 23.2025 14.941 22.9428 15.0593Z" fill="#FDD816"/>
<path d="M22.9298 15.0311C22.6902 15.1404 22.4285 15.0773 22.3403 14.8898C22.2521 14.7023 22.3794 14.4607 22.619 14.3514C22.8586 14.2422 23.1203 14.3053 23.2085 14.4928C23.2967 14.6803 23.1694 14.9219 22.9298 15.0311Z" fill="#FDDA15"/>
<path d="M22.9168 15.0001C22.6972 15.1004 22.4556 15.0422 22.3764 14.8698C22.2972 14.6974 22.4125 14.4768 22.6321 14.3765C22.8516 14.2763 23.0932 14.3344 23.1724 14.5069C23.2516 14.6793 23.1373 14.8999 22.9168 15.0001Z" fill="#FDDC15"/>
<path d="M22.9037 14.975C22.7032 15.0663 22.4847 15.0131 22.4135 14.8567C22.3423 14.7003 22.4456 14.4988 22.6451 14.4076C22.8446 14.3164 23.0641 14.3695 23.1353 14.5259C23.2065 14.6823 23.1032 14.8838 22.9037 14.975Z" fill="#FDDE15"/>
<path d="M22.8907 14.946C22.7112 15.0282 22.5137 14.981 22.4496 14.8397C22.3854 14.6983 22.4787 14.5189 22.6581 14.4387C22.8376 14.3585 23.0351 14.4036 23.0992 14.5449C23.1634 14.6863 23.0702 14.8638 22.8907 14.946Z" fill="#FDE014"/>
<path d="M22.8777 14.9179C22.7183 14.991 22.5428 14.9489 22.4857 14.8236C22.4285 14.6983 22.5107 14.5379 22.6711 14.4647C22.8315 14.3915 23.006 14.4336 23.0631 14.559C23.1203 14.6843 23.0371 14.8447 22.8777 14.9179Z" fill="#FEE214"/>
<path d="M22.8646 14.8898C22.8232 14.8977 22.7805 14.8938 22.7412 14.8785C22.702 14.8632 22.6678 14.8372 22.6427 14.8034C22.6175 14.7696 22.6023 14.7295 22.5989 14.6875C22.5955 14.6455 22.6039 14.6034 22.6233 14.566C22.6426 14.5286 22.6721 14.4974 22.7084 14.4759C22.7446 14.4545 22.7862 14.4437 22.8283 14.4447C22.8704 14.4458 22.9114 14.4586 22.9465 14.4819C22.9817 14.5051 23.0096 14.5377 23.027 14.576C23.0466 14.6392 23.0406 14.7075 23.0102 14.7662C22.9798 14.825 22.9275 14.8694 22.8646 14.8898Z" fill="#FEE414"/>
<path d="M22.8526 14.8618C22.8172 14.8686 22.7805 14.8653 22.7468 14.8523C22.7132 14.8393 22.6838 14.8171 22.6622 14.7883C22.6405 14.7594 22.6274 14.725 22.6244 14.6891C22.6213 14.6531 22.6284 14.617 22.6449 14.5849C22.6614 14.5528 22.6865 14.526 22.7175 14.5075C22.7485 14.489 22.7841 14.4796 22.8202 14.4803C22.8562 14.4811 22.8914 14.492 22.9216 14.5117C22.9518 14.5315 22.9758 14.5593 22.9909 14.5921C23.0075 14.6462 23.0023 14.7046 22.9765 14.755C22.9506 14.8053 22.9062 14.8437 22.8526 14.8618Z" fill="#FEE614"/>
<path d="M22.8366 14.8327C22.807 14.8385 22.7764 14.8358 22.7482 14.825C22.7201 14.8142 22.6956 14.7957 22.6775 14.7716C22.6594 14.7475 22.6484 14.7188 22.6459 14.6888C22.6434 14.6587 22.6493 14.6286 22.6632 14.6018C22.677 14.575 22.6981 14.5526 22.724 14.5373C22.7499 14.5219 22.7797 14.5142 22.8098 14.5149C22.84 14.5157 22.8693 14.525 22.8944 14.5416C22.9195 14.5583 22.9394 14.5817 22.9519 14.6091C22.9655 14.6541 22.9611 14.7026 22.9396 14.7443C22.9181 14.7861 22.8811 14.8178 22.8366 14.8327Z" fill="#FEE813"/>
<path d="M22.8265 14.8046C22.8029 14.8092 22.7784 14.807 22.756 14.7984C22.7335 14.7897 22.7139 14.7749 22.6995 14.7556C22.685 14.7364 22.6763 14.7134 22.6743 14.6894C22.6722 14.6655 22.677 14.6414 22.688 14.62C22.699 14.5985 22.7158 14.5807 22.7365 14.5683C22.7572 14.556 22.7809 14.5498 22.805 14.5503C22.8291 14.5509 22.8525 14.5582 22.8726 14.5714C22.8928 14.5846 22.9087 14.6033 22.9188 14.6251C22.9296 14.6612 22.9261 14.7 22.9089 14.7335C22.8917 14.7669 22.8622 14.7924 22.8265 14.8046Z" fill="#FEEA13"/>
<path d="M22.8135 14.7765C22.7948 14.7811 22.7752 14.7802 22.757 14.774C22.7388 14.7678 22.7228 14.7564 22.7108 14.7413C22.6989 14.7262 22.6916 14.708 22.6897 14.6888C22.6879 14.6697 22.6916 14.6504 22.7004 14.6333C22.7092 14.6162 22.7228 14.602 22.7394 14.5923C22.7561 14.5827 22.7752 14.5781 22.7944 14.579C22.8136 14.58 22.8322 14.5864 22.8478 14.5976C22.8635 14.6088 22.8756 14.6243 22.8827 14.6422C22.8907 14.6692 22.888 14.6982 22.8751 14.7232C22.8622 14.7482 22.8401 14.7673 22.8135 14.7765Z" fill="#FFED13"/>
<path d="M22.8005 14.7474C22.7924 14.7526 22.7834 14.7561 22.774 14.7577C22.7645 14.7593 22.7549 14.759 22.7455 14.7569C22.7362 14.7547 22.7274 14.7508 22.7196 14.7452C22.7118 14.7396 22.7053 14.7325 22.7002 14.7244C22.6962 14.7062 22.6985 14.6873 22.7068 14.6706C22.7151 14.654 22.7288 14.6407 22.7457 14.6329C22.7626 14.6252 22.7816 14.6235 22.7996 14.6281C22.8176 14.6327 22.8335 14.6433 22.8446 14.6582C22.8501 14.6759 22.8486 14.695 22.8404 14.7116C22.8322 14.7282 22.8179 14.7411 22.8005 14.7474Z" fill="#FFEF12"/>
<path d="M22.7869 14.7188C22.7789 14.7235 22.7693 14.725 22.7602 14.7227C22.7511 14.7205 22.7432 14.7148 22.7383 14.7069C22.7358 14.698 22.7367 14.6886 22.741 14.6805C22.7452 14.6723 22.7524 14.6662 22.7611 14.6632C22.7692 14.6584 22.7788 14.657 22.7878 14.6592C22.7969 14.6615 22.8048 14.6672 22.8097 14.6751C22.8122 14.6839 22.8113 14.6934 22.807 14.7015C22.8028 14.7096 22.7956 14.7158 22.7869 14.7188Z" fill="#FFF112"/>
<path d="M23.4511 25.4777C17.6364 25.3624 15.0449 22.7007 15.0008 16.7988C15.0008 16.7036 15.0118 16.6063 15.0118 16.5091C15.0112 15.4201 14.6877 14.3558 14.0823 13.4508C13.4768 12.5457 12.6166 11.8404 11.6104 11.4242C10.6041 11.008 9.49708 10.8995 8.42918 11.1125C7.36128 11.3254 6.38051 11.8502 5.61087 12.6206C4.84124 13.3909 4.31731 14.3722 4.10533 15.4403C3.89336 16.5083 4.00285 17.6153 4.41998 18.6212C4.8371 19.627 5.54312 20.4866 6.44876 21.0912C7.3544 21.6959 8.41899 22.0184 9.50791 22.018C9.60816 22.018 9.70842 22.0059 9.80867 22.0039C15.6514 22.0541 18.3162 24.6035 18.4695 30.3119C22.222 30.3109 23.4511 28.5705 23.4511 25.4777Z" fill="#F78E1E"/>
<path d="M38.4921 11.001C37.7687 11.0007 37.0524 11.143 36.384 11.4197C35.7156 11.6964 35.1083 12.1021 34.5968 12.6136C34.0853 13.1252 33.6796 13.7324 33.4029 14.4008C33.1262 15.0692 32.9839 15.7855 32.9842 16.5089C32.9842 16.6092 32.9922 16.7034 33.0002 16.7986C32.9541 22.1552 30.8187 24.842 26.0768 25.3793C25.9865 25.3863 24.8376 25.4575 24.204 25.4555C24.1359 25.4555 24.0677 25.4505 24.0035 25.4505H23.9825C23.805 25.4505 23.6296 25.4605 23.4551 25.4766C22.3814 25.5827 21.3615 25.9982 20.5193 26.6727C19.6771 27.3471 19.0487 28.2515 18.7105 29.2761C18.3722 30.3007 18.3386 31.4014 18.6137 32.4447C18.8887 33.4881 19.4607 34.4291 20.2602 35.1537C21.0597 35.8783 22.0523 36.3553 23.1176 36.5268C24.1828 36.6983 25.275 36.5569 26.2615 36.1199C27.248 35.6828 28.0864 34.9688 28.675 34.0645C29.2637 33.1602 29.5772 32.1045 29.5776 31.0256C29.5776 30.8932 29.5716 30.7629 29.5626 30.6336C29.5385 30.3208 29.5545 29.7834 29.5626 29.613C29.9155 24.3938 32.5922 22.0489 38.1913 22.0018C38.2916 22.0018 38.3918 22.0158 38.4921 22.0158C39.9529 22.0158 41.3538 21.4355 42.3868 20.4026C43.4197 19.3697 44 17.9687 44 16.5079C44 15.0471 43.4197 13.6462 42.3868 12.6132C41.3538 11.5803 39.9529 11 38.4921 11V11.001Z" fill="#A84D10"/>
<path d="M18.4254 17.0433C18.4258 15.9409 18.7531 14.8634 19.3658 13.947C19.9785 13.0306 20.8492 12.3165 21.8678 11.8949C22.8863 11.4733 24.007 11.3632 25.0882 11.5785C26.1693 11.7938 27.1623 12.3249 27.9417 13.1045C28.721 13.8841 29.2517 14.8773 29.4666 15.9586C29.6815 17.0398 29.571 18.1604 29.1491 19.1788C28.7271 20.1973 28.0127 21.0677 27.0961 21.6801C26.1795 22.2925 25.1019 22.6193 23.9995 22.6193C23.2674 22.6192 22.5424 22.4749 21.8661 22.1946C21.1897 21.9143 20.5752 21.5035 20.0576 20.9857C19.54 20.4679 19.1295 19.8533 18.8494 19.1768C18.5694 18.5004 18.4253 17.7754 18.4254 17.0433Z" fill="#F78E1E"/>
</g>
<defs>
<radialGradient id="paint0_radial" cx="0" cy="0" r="1" gradientUnits="userSpaceOnUse" gradientTransform="translate(23.4792 28.1603) scale(2.64067)">
<stop stop-color="#FBED1F"/>
<stop offset="0.13" stop-color="#F9CC1F"/>
<stop offset="0.26" stop-color="#F8B320"/>
<stop offset="0.39" stop-color="#F7A020"/>
<stop offset="0.53" stop-color="#F69620"/>
<stop offset="0.69" stop-color="#F69220"/>
</radialGradient>
</defs>
</svg>
