<svg width="48" height="48" viewBox="0 0 48 48" fill="none" xmlns="http://www.w3.org/2000/svg">
<path d="M0 24C0 10.7452 10.7452 0 24 0C37.2548 0 48 10.7452 48 24C48 37.2548 37.2548 48 24 48C10.7452 48 0 37.2548 0 24Z" fill="white"/>
<path d="M4 19.7V26.1H5.5V22.1L7.1 25.4H8.2L9.8 22.1V22.6V26.1H11.3V19.7H9.5L7.7 23.4H7.6L5.8 19.7H4Z" fill="#39B54A"/>
<path d="M23.9 20.3C23.2 19.8 22.4 19.8 21.6 19.8H19.3V26.2H21V24.4C21.8 24.4 22.8 24.5 23.6 24C23.9 23.8 24.2 23.5 24.4 23.2C24.8 22.3 24.7 20.9 23.9 20.3ZM22.6 22.9C22.4 23 22.1 23 21.8 23H20.9V21.1H21.8C22.1 21.1 22.3 21.1 22.6 21.2C23.2 21.5 23.2 22.5 22.6 22.9Z" fill="#39B54A"/>
<path d="M25.3 19.7V26.1H30.4V24.8H26.9V23.6H29.9V22.3H26.9V21H30.3V19.7H25.3Z" fill="#39B54A"/>
<path d="M35.8 21.6L36.4 20.3C35.3 19.6 33.8 19.4 32.6 19.8C32.2 19.9 31.9 20.2 31.6 20.5C31.2 21 31.2 21.8 31.5 22.4C31.9 23.2 32.9 23.4 33.7 23.6C34 23.7 34.6 23.8 34.7 24.3C34.7 24.7 34.4 24.8 34.1 24.9C33.2 25.1 31.6 24 31.6 24L30.9 25.4C30.9 25.4 31.6 25.8 31.9 25.9C32.8 26.3 33.9 26.5 34.9 26.2C35.1 26.2 36.5 25.8 36.5 24.2C36.4 22.6 34.5 22.4 34.1 22.2C33.8 22.1 32.9 21.9 33.2 21.3C33.5 20.9 34.4 21.1 34.7 21.2C34.9 21.2 35.8 21.6 35.8 21.6Z" fill="#39B54A"/>
<path d="M41 19.7H39.3L36.6 26.1H38.3L38.7 25H41.4L41.9 26.1H43.7L41 19.7ZM39.3 23.7L40.1 21.5L41 23.7H39.3Z" fill="#39B54A"/>
<path d="M18.3 17.8C18.3 17.7 18.3 17.5 18.3 17.3C18.2 16.9 17.6 16.9 17.4 17.2C17.3 17.3 17.3 17.5 17.3 17.6V18.2H14.1C13.6 18.2 13 18.2 12.6 18.6C12.2 19 12.3 19.6 12.3 20.1V30.1C12.3 30.1 12.3 30.8 12.5 31.1C12.9 31.6 13.9 31.5 13.9 31.5H16.9C17.4 31.5 17.8 31.5 18.1 31C18.3 30.7 18.3 30.1 18.3 30.1V17.8Z" fill="#D8E3D2"/>
<path d="M16.4 26H14.1C13.5 26 13 25.4 13 24.8V20.9C13 20.3 13.5 19.7 14.2 19.7H16.5C17.1 19.7 17.7 20.2 17.7 20.9V24.8C17.6 25.4 17 26 16.4 26Z" fill="white"/>
<path d="M12.4 23.7C12.6 23.8 12.7 23.8 12.9 23.8C13.2 23.9 13.5 23.9 13.9 23.9C15.2 24 16.7 24 17.9 23.3C18.3 23.1 18.8 22.7 19.1 22.2C18.4 21.8 16.4 20.9 16.4 20.9C16.4 20.9 16.2 21.2 16.1 21.3C15.9 21.6 15.7 21.9 15.4 22.2C14.8 22.9 14.1 23.4 13.2 23.6C13 23.7 12.7 23.7 12.4 23.7Z" fill="#ED1C24"/>
<path d="M13.9 22.2C13.5 22.7 13 23.4 12.3 23.5C12.1 23.5 12 23.5 11.8 23.5C11.9 23.6 12.2 23.6 12.4 23.7C13.1 23.7 13.5 23.6 14.1 23.3C14.3 23.2 14.5 23.1 14.7 22.9C14.3 22.8 14.1 22.5 13.9 22.2Z" fill="#9D4D44"/>
</svg>
