<svg width="48" height="48" viewBox="0 0 48 48" fill="none" xmlns="http://www.w3.org/2000/svg">
<path d="M0 24C0 10.7452 10.7452 0 24 0C37.2548 0 48 10.7452 48 24C48 37.2548 37.2548 48 24 48C10.7452 48 0 37.2548 0 24Z" fill="#4B9C54"/>
<path fill-rule="evenodd" clip-rule="evenodd" d="M11.1029 25.4739L10.727 26.3154C10.727 26.3154 11.6328 26.891 12.6718 26.8495C13.7109 26.808 14.7389 26.3707 14.7147 25.3607C14.6905 24.3507 13.9942 24.1923 13.1948 23.9851C12.3955 23.7779 12 23.7015 12.0018 23.3702C12.0036 23.0389 12.4072 22.8159 12.8353 22.82C13.5057 22.8264 14.1591 23.2731 14.1591 23.2731L14.5349 22.4154C14.5349 22.4154 13.9796 21.9619 12.8843 21.93C11.789 21.8981 10.8221 22.5146 10.8251 23.4511C10.8281 24.3877 11.7211 24.7254 12.4921 24.8752C13.2631 25.0251 13.5331 25.2022 13.5381 25.4739C13.543 25.7456 13.1582 25.9561 12.6882 25.9432C11.8823 25.9212 11.1029 25.4739 11.1029 25.4739Z" fill="#FEFEFE"/>
<path fill-rule="evenodd" clip-rule="evenodd" d="M17.8101 25.0868C17.79 25.7053 17.4475 25.971 17.1411 25.9868C16.8346 26.0026 16.416 25.8734 16.3903 25.1196C16.3648 24.3658 16.7145 24.1492 17.0921 24.1379C17.5268 24.1249 17.8303 24.4684 17.8101 25.0868ZM17.7449 23.7452L17.8101 23.6797V23.3524H18.9525V26.7558H17.8101V26.3468L17.7123 26.2977C17.7123 26.2977 17.4744 26.8117 16.7494 26.7885C16.0244 26.7654 15.1702 26.2667 15.2154 25.1196C15.2605 23.9725 15.8486 23.2132 16.7004 23.238C17.5523 23.2627 17.7449 23.7452 17.7449 23.7452Z" fill="#FEFEFE"/>
<path fill-rule="evenodd" clip-rule="evenodd" d="M24.7271 25.0868C24.707 25.7053 24.3644 25.971 24.058 25.9868C23.7515 26.0026 23.3329 25.8734 23.3073 25.1196C23.2817 24.3658 23.6314 24.1492 24.009 24.1379C24.4437 24.1249 24.7472 24.4684 24.7271 25.0868ZM24.6618 23.7452L24.7271 23.6797V23.3524H25.8694V26.7558H24.7271V26.3468L24.6292 26.2977C24.6292 26.2977 24.3913 26.8117 23.6663 26.7885C22.9413 26.7654 22.0871 26.2667 22.1323 25.1196C22.1774 23.9725 22.7655 23.2132 23.6173 23.238C24.4692 23.2627 24.6618 23.7452 24.6618 23.7452Z" fill="#FEFEFE"/>
<path fill-rule="evenodd" clip-rule="evenodd" d="M21.6882 23.3846V24.248H20.9854V26.7893H19.8249V23.1565C19.8249 23.1565 19.8815 21.8157 21.0998 21.8044C21.7463 21.7984 21.819 21.9022 21.819 21.9022V22.7656C21.819 22.7656 21.7384 22.731 21.4921 22.733C20.9211 22.7375 21.0017 23.4008 21.0017 23.4008L21.6882 23.3846Z" fill="#FEFEFE"/>
<path fill-rule="evenodd" clip-rule="evenodd" d="M26.6172 23.3874C26.6172 23.3874 26.66 23.6583 26.6655 24.0359C26.6795 25.0055 26.6655 26.727 26.6655 26.727H27.759V25.0572C27.759 25.0572 27.7259 24.3472 28.4987 24.2953C28.7399 24.2791 29.1098 24.4412 29.1098 24.4412V23.3711C29.1098 23.3711 28.9651 23.2739 28.5309 23.3063C28.1407 23.3354 27.759 23.89 27.759 23.89H27.6786V23.3874H26.6172Z" fill="#FEFEFE"/>
<mask id="mask0" mask-type="alpha" maskUnits="userSpaceOnUse" x="3" y="19" width="42" height="11">
<path fill-rule="evenodd" clip-rule="evenodd" d="M3 29.5935H45V19H3V29.5935Z" fill="white"/>
</mask>
<g mask="url(#mask0)">
<path fill-rule="evenodd" clip-rule="evenodd" d="M29.546 26.727H30.73V23.362H29.546V26.727Z" fill="#FEFEFE"/>
<path fill-rule="evenodd" clip-rule="evenodd" d="M29.546 21.6795V22.6765H30.73V21.6954L29.546 21.6795Z" fill="#FEFEFE"/>
<path fill-rule="evenodd" clip-rule="evenodd" d="M34.2231 24.3996L34.5312 23.5977C34.5312 23.5977 34.2068 23.2541 33.1853 23.2377C32.1638 23.2213 31.3531 23.8759 31.3531 25.0542C31.3531 26.2325 32.1638 26.8069 33.2339 26.7889C34.2068 26.7725 34.5312 26.3961 34.5312 26.3961L34.2231 25.6433C34.2231 25.6433 33.7042 25.987 33.315 25.9543C32.9259 25.9215 32.4718 25.5615 32.5205 25.0051C32.5692 24.4487 32.8934 24.0887 33.3961 24.0887C33.8988 24.0887 34.2231 24.3996 34.2231 24.3996Z" fill="#FEFEFE"/>
<path fill-rule="evenodd" clip-rule="evenodd" d="M38.5816 25.0755C38.5816 26.1507 37.7945 26.835 36.6958 26.8513C35.5971 26.8675 34.8547 26.2664 34.8428 25.0266C34.8309 23.7751 35.9243 23.2997 36.6138 23.2997C37.7781 23.2997 38.5816 24.0002 38.5816 25.0755ZM36.6958 24.1795C36.1549 24.1948 35.9743 24.6193 35.9743 25.0592C35.9743 25.499 36.1634 26.0196 36.7287 26.0041C37.2904 25.9887 37.4009 25.5153 37.4173 25.0917C37.4337 24.6682 37.2698 24.1632 36.6958 24.1795Z" fill="#FEFEFE"/>
<path fill-rule="evenodd" clip-rule="evenodd" d="M39.2047 23.3666L39.2371 23.6941L39.2696 26.7729L40.3885 26.7566L40.3723 24.775C40.3723 24.775 40.372 24.1796 40.9722 24.1527C41.4659 24.1306 41.3938 24.9552 41.3938 24.9552L41.4101 26.7893H42.5451L42.5289 24.8242C42.5289 24.8242 42.5776 24.1527 43.1289 24.1527C43.5667 24.1527 43.5505 24.6113 43.5505 24.6113L43.5667 26.7811L44.7343 26.7647L44.7505 24.5458C44.7505 24.5458 44.7998 23.3267 43.583 23.3011C42.8046 23.2847 42.4316 23.9071 42.4316 23.9071C42.4316 23.9071 42.2857 23.3339 41.4587 23.3011C40.6317 23.2684 40.3723 23.8088 40.3723 23.8088L40.2264 23.3666H39.2047Z" fill="#FEFEFE"/>
<path fill-rule="evenodd" clip-rule="evenodd" d="M30.6053 27.5371H32.2255V27.7314H31.5451V29.5935H31.3021V27.7476H30.6053V27.5371Z" fill="#FEFEFE"/>
<path fill-rule="evenodd" clip-rule="evenodd" d="M32.4125 28.0518H32.6548L33.1233 29.3176H33.1556L33.6242 28.0518H33.8342L34.3188 29.35H34.3512L34.8197 28.0356H35.0297L34.4481 29.561H34.1735L33.7695 28.3926H33.6888L33.2364 29.5934H33.0587L32.4125 28.0518Z" fill="#FEFEFE"/>
<path fill-rule="evenodd" clip-rule="evenodd" d="M37.2107 28.0518H37.453L37.9215 29.3176H37.9538L38.4224 28.0518H38.6324L39.117 29.35H39.1493L39.6179 28.0356H39.8279L39.2463 29.561H38.9716L38.5677 28.3926H38.487L38.0346 29.5934H37.8569L37.2107 28.0518Z" fill="#FEFEFE"/>
<path fill-rule="evenodd" clip-rule="evenodd" d="M36.4377 28.919V29.1437C36.4377 29.1437 36.1707 29.4892 35.8666 29.4648C35.5624 29.4406 35.4809 29.274 35.4912 29.1437C35.5015 29.0135 35.5026 28.9509 35.6544 28.9029C35.7585 28.87 36.3445 28.8671 36.4377 28.919ZM36.3888 28.7423L36.4377 28.6781C36.4377 28.6781 36.4586 28.545 36.4051 28.4212C36.3484 28.2901 36.2273 28.2 35.9972 28.1964C35.7165 28.1921 35.4749 28.3731 35.4749 28.3731L35.377 28.2446C35.377 28.2446 35.6044 28.0429 35.9808 28.0358C36.5883 28.0244 36.6335 28.4373 36.6335 28.4373L36.6499 29.5773H36.4704L36.3725 29.4167C36.3725 29.4167 36.1869 29.5986 35.8666 29.5933C35.5462 29.5882 35.2714 29.4535 35.2791 29.1598C35.2867 28.8661 35.508 28.7422 35.7197 28.7263C35.9314 28.7104 36.3888 28.7423 36.3888 28.7423Z" fill="#FEFEFE"/>
<path fill-rule="evenodd" clip-rule="evenodd" d="M44.7878 28.919V29.1437C44.7878 29.1437 44.5208 29.4892 44.2167 29.4648C43.9125 29.4406 43.8311 29.274 43.8414 29.1437C43.8516 29.0135 43.8527 28.9509 44.0046 28.9029C44.1086 28.87 44.6946 28.8671 44.7878 28.919ZM44.7389 28.7423L44.7878 28.6781C44.7878 28.6781 44.8087 28.545 44.7552 28.4212C44.6985 28.2901 44.5774 28.2 44.3473 28.1964C44.0667 28.1921 43.8251 28.3731 43.8251 28.3731L43.7271 28.2446C43.7271 28.2446 43.9545 28.0429 44.331 28.0358C44.9384 28.0244 44.9837 28.4373 44.9837 28.4373L45 29.5773H44.8205L44.7226 29.4167C44.7226 29.4167 44.537 29.5986 44.2167 29.5933C43.8964 29.5882 43.6216 29.4535 43.6292 29.1598C43.6368 28.8661 43.8581 28.7422 44.0698 28.7263C44.2816 28.7104 44.7389 28.7423 44.7389 28.7423Z" fill="#FEFEFE"/>
<path fill-rule="evenodd" clip-rule="evenodd" d="M40.6234 28.2141C41.2047 28.2511 41.1867 28.7658 41.1867 28.7658H40.0434C40.0434 28.7658 40.0419 28.1771 40.6234 28.2141ZM40.06 28.8956H41.3856C41.3856 28.8956 41.419 28.0397 40.6399 28.0356C39.8937 28.0318 39.8323 28.6379 39.828 28.8469C39.8237 29.056 39.9454 29.581 40.6565 29.5933C41.0465 29.6002 41.2199 29.3661 41.2199 29.3661L41.137 29.2851C41.137 29.2851 40.9373 29.4841 40.6399 29.4635C40.3425 29.443 40.0394 29.2907 40.06 28.8956Z" fill="#FEFEFE"/>
<path fill-rule="evenodd" clip-rule="evenodd" d="M41.7464 28.0356H42.9896V28.1516L41.9918 29.3945L42.0408 29.4609H43.0059V29.5934H41.6973V29.4774L42.7606 28.2013L42.6951 28.1681H41.7464V28.0356Z" fill="#FEFEFE"/>
<path fill-rule="evenodd" clip-rule="evenodd" d="M10.0415 21.0955L10.1063 21.2264C10.1063 21.2264 14.2128 19.1163 15.7103 20.1951C16.8587 21.0224 15.2082 22.7489 15.2082 22.7489L15.3377 22.8635C15.3377 22.8635 18.2765 20.2319 17.2327 19.3274C15.7118 18.0095 10.0415 21.0955 10.0415 21.0955Z" fill="#D92730"/>
<path fill-rule="evenodd" clip-rule="evenodd" d="M9.2712 21.6522L9.2064 21.5549C9.2064 21.5549 2.99678 25.1396 3 27.3024C3.00152 28.2913 4.36301 28.3358 6.03029 27.8868C7.87264 27.3907 9.8546 26.3931 9.8546 26.3931L9.80599 26.247C9.80599 26.247 6.42253 27.546 5.57653 26.2957C5.12397 25.6269 5.90972 24.3491 6.90534 23.4057C7.98569 22.3821 9.2712 21.6522 9.2712 21.6522Z" fill="#D92730"/>
</g>
</svg>
