<svg width="48" height="48" viewBox="0 0 48 48" fill="none" xmlns="http://www.w3.org/2000/svg">
<path d="M0 24C0 10.7452 10.7452 0 24 0C37.2548 0 48 10.7452 48 24C48 37.2548 37.2548 48 24 48C10.7452 48 0 37.2548 0 24Z" fill="#00B3CC"/>
<path d="M13.5 21.6L13.3 23.1H11.1L10.2 30.3H8.3L9.2 23.1H7L7.1 21.6H13.5Z" fill="white"/>
<path d="M14.9 25.2C14.6 25.2 14.3 25.3 14.1 25.6C13.9 25.8 13.7 26.2 13.6 26.6C14 26.5 14.3 26.5 14.5 26.4C14.7 26.3 14.9 26.3 15.1 26.2C15.2 26.1 15.3 26 15.4 25.9C15.4 25.8 15.5 25.7 15.5 25.6C15.5 25.5 15.5 25.4 15.4 25.3C15.2 25.3 15.1 25.2 14.9 25.2ZM17.1 25.6C17.1 25.9 17 26.1 16.9 26.4C16.8 26.6 16.6 26.8 16.3 27C16 27.2 15.7 27.3 15.2 27.5C14.7 27.6 14.1 27.7 13.4 27.8C13.4 28.2 13.5 28.5 13.7 28.7C13.9 28.9 14.1 29 14.5 29C14.7 29 14.8 29 14.9 29C15 29 15.1 28.9 15.2 28.9C15.3 28.9 15.4 28.8 15.4 28.8C15.5 28.8 15.5 28.7 15.6 28.7C15.7 28.7 15.7 28.6 15.8 28.6C15.9 28.6 16 28.6 16 28.6C16.1 28.6 16.1 28.6 16.2 28.6C16.3 28.6 16.3 28.7 16.3 28.7L16.8 29.3C16.6 29.5 16.4 29.7 16.2 29.9C16 30.1 15.8 30.2 15.6 30.3C15.4 30.4 15.1 30.5 14.9 30.5C14.7 30.5 14.4 30.6 14.1 30.6C13.7 30.6 13.4 30.5 13.1 30.4C12.8 30.3 12.5 30.1 12.3 29.9C12.1 29.7 11.9 29.4 11.8 29.1C11.7 28.8 11.6 28.4 11.6 28C11.6 27.7 11.6 27.3 11.7 27C11.8 26.7 11.9 26.4 12 26.1C12.1 25.8 12.3 25.6 12.5 25.3C12.7 25.1 12.9 24.9 13.2 24.7C13.4 24.5 13.7 24.4 14 24.3C14.3 24.2 14.6 24.2 14.9 24.2C15.2 24.2 15.5 24.2 15.8 24.3C16.1 24.4 16.3 24.5 16.4 24.7C16.6 24.9 16.7 25 16.8 25.2C17 25.2 17.1 25.4 17.1 25.6Z" fill="white"/>
<path d="M17.4 30.3L18.5 21.3H20.4L19.3 30.3H17.4Z" fill="white"/>
<path d="M23.5 21.3L22.4 30.3H20.6L21.7 21.3H23.5Z" fill="white"/>
<path d="M29.2 29C29.4 29 29.6 28.9 29.8 28.8C30 28.7 30.1 28.5 30.2 28.3C30.3 28.1 30.4 27.8 30.5 27.5C30.6 27.2 30.6 26.9 30.6 26.6C30.6 26.2 30.5 25.8 30.4 25.6C30.3 25.4 30.1 25.3 29.8 25.3C29.6 25.3 29.4 25.4 29.2 25.5C29 25.6 28.9 25.8 28.8 26C28.7 26.2 28.6 26.5 28.5 26.8C28.4 27.1 28.4 27.4 28.4 27.7C28.4 28.1 28.5 28.5 28.6 28.7C28.7 28.9 28.9 29 29.2 29ZM29 30.4C28.7 30.4 28.3 30.3 28 30.2C27.7 30.1 27.4 29.9 27.2 29.7C27 29.5 26.8 29.2 26.7 28.9C26.6 28.6 26.5 28.2 26.5 27.8C26.5 27.3 26.6 26.7 26.8 26.3C27 25.8 27.2 25.4 27.5 25.1C27.8 24.8 28.2 24.5 28.6 24.3C29 24.1 29.4 24 29.9 24C30.2 24 30.6 24.1 30.9 24.2C31.2 24.3 31.5 24.5 31.7 24.7C31.9 24.9 32.1 25.2 32.2 25.5C32.3 25.8 32.4 26.2 32.4 26.6C32.4 27.1 32.3 27.6 32.1 28.1C31.9 28.6 31.7 29 31.4 29.3C31.1 29.6 30.7 29.9 30.3 30.1C29.9 30.3 29.4 30.4 29 30.4Z" fill="white"/>
<path d="M32.7 30.3L33.5 24.1H34.5C34.7 24.1 34.8 24.1 34.9 24.2C35 24.3 35.1 24.4 35.1 24.6V25C35.4 24.6 35.6 24.4 35.9 24.2C36.2 24 36.5 23.9 36.8 23.9C37.2 23.9 37.4 24 37.7 24.2C37.9 24.4 38.1 24.8 38.1 25.2C38.4 24.7 38.7 24.4 39 24.2C39.3 24 39.7 23.9 40.1 23.9C40.3 23.9 40.5 23.9 40.7 24C40.9 24.1 41.1 24.2 41.2 24.4C41.3 24.6 41.4 24.8 41.5 25C41.6 25.2 41.6 25.5 41.6 25.8C41.6 25.9 41.6 26 41.6 26C41.6 26.1 41.6 26.2 41.6 26.2L41.1 30.1H39.3L39.8 26.2C39.8 26.1 39.8 26.1 39.8 26C39.8 25.9 39.8 25.9 39.8 25.8C39.8 25.6 39.8 25.5 39.7 25.4C39.6 25.3 39.5 25.3 39.4 25.3C39.3 25.3 39.2 25.3 39 25.4C38.9 25.5 38.8 25.6 38.7 25.7C38.6 25.8 38.5 26 38.4 26.2C38.3 26.4 38.2 26.6 38.2 26.8L37.8 30.2H36L36.5 26.3C36.5 26.2 36.5 26.2 36.5 26.1C36.5 26 36.5 26 36.5 25.9C36.5 25.7 36.5 25.6 36.4 25.5C36.3 25.4 36.2 25.4 36.1 25.4C36 25.4 35.9 25.4 35.7 25.5C35.6 25.6 35.5 25.7 35.4 25.8C35.3 25.9 35.2 26.1 35.1 26.3C35 26.5 34.9 26.7 34.9 26.9L34.5 30.3H32.7Z" fill="white"/>
<path d="M26.9 24.1L25.2 26.3C25.1 26.4 25 26.5 24.9 26.6C24.8 26.7 24.7 26.7 24.6 26.8C24.7 26.9 24.8 26.9 24.8 27C24.9 27.1 24.9 27.2 25 27.3L26.2 30.3H24.6C24.5 30.3 24.4 30.3 24.3 30.2C24.2 30.2 24.1 30.1 24.1 30L22.9 26.9L24.7 24.5C24.8 24.4 24.9 24.3 25 24.3C25.1 24.3 25.2 24.2 25.3 24.2H26.9V24.1Z" fill="#FBE901"/>
<path d="M27 17H28.7C28.8 17 28.9 17 29 17.1C29.1 17.1 29.1 17.2 29.2 17.3L30.1 19.8L27.7 23C27.6 23.1 27.5 23.2 27.4 23.2C27.3 23.2 27.2 23.3 27 23.3H25.4L27.8 20.3C27.9 20.2 28 20.1 28.1 20C28.2 19.9 28.3 19.8 28.4 19.8C28.3 19.7 28.2 19.7 28.2 19.6C28.1 19.5 28.1 19.4 28 19.3L27 17Z" fill="#FBE901"/>
<path d="M30.1 17H31.8C31.9 17 32 17 32.1 17.1C32.2 17.1 32.2 17.2 32.3 17.3L33.2 19.8L30.8 23C30.7 23.1 30.6 23.2 30.5 23.2C30.4 23.2 30.3 23.3 30.1 23.3H28.5L30.9 20.3C31 20.2 31.1 20.1 31.2 20C31.3 19.9 31.4 19.8 31.5 19.8C31.4 19.7 31.3 19.7 31.3 19.6C31.2 19.5 31.2 19.4 31.1 19.3L30.1 17Z" fill="#FBE901"/>
</svg>
