<svg width="48" height="48" viewBox="0 0 48 48" fill="none" xmlns="http://www.w3.org/2000/svg">
<path d="M24 48C10.7 48 0 37.3 0 24C0 10.7 10.7 0 24 0C37.3 0 48 10.7 48 24C48 37.3 37.3 48 24 48Z" fill="#00B3CC"/>
<path d="M14.6 21.7L14.4 23.2999H12.1L11.2 30.7H9.2L10.1 23.2999H7.8L8 21.7H14.6Z" fill="white"/>
<path d="M19.3 21.5L18.2 30.7H16.3L17.4 21.5H19.3Z" fill="white"/>
<path d="M25 29.4C25.1 29.4 25.3 29.3 25.4 29.2C25.5 29.1 25.7 29 25.8 28.8C25.9 28.6 26 28.4 26.1 28.2C26.2 28 26.3 27.7 26.4 27.4L26.6 25.6H26.5C26.2 25.6 25.9 25.7 25.6 25.8C25.3 25.9 25.1 26.1 24.9 26.4C24.7 26.6 24.6 26.9 24.5 27.2C24.4 27.5 24.3 27.9 24.3 28.2C24.3 28.4 24.3 28.6 24.3 28.7C24.3 28.8 24.4 29 24.4 29.1C24.5 29.2 24.5 29.3 24.6 29.3C24.9 29.4 24.9 29.4 25 29.4ZM27.9 30.8H26.9C26.8 30.8 26.7 30.8 26.6 30.8C26.5 30.8 26.5 30.7 26.4 30.7C26.4 30.6 26.3 30.6 26.3 30.5C26.3 30.4 26.3 30.3 26.3 30.3V29.8C26 30.2 25.7 30.4 25.4 30.7C25.1 30.9 24.7 31 24.3 31C24.1 31 23.8 31 23.6 30.9C23.4 30.8 23.2 30.7 23 30.5C22.8 30.3 22.7 30.1 22.6 29.8C22.5 29.5 22.5 29.2 22.5 28.8C22.5 28.2 22.6 27.7 22.8 27.1C23 26.6 23.3 26.1 23.7 25.7C24.1 25.3 24.5 25 25.1 24.8C25.6 24.6 26.2 24.5 26.8 24.5C27.1 24.5 27.4 24.5 27.7 24.6C28 24.6 28.3 24.7 28.6 24.8L27.9 30.8Z" fill="white"/>
<path d="M33.5 25.7C33.4 25.8 33.4 25.8 33.3 25.9C33.3 25.9 33.2 25.9 33.1 25.9C33 25.9 32.9 25.9 32.9 25.8C32.8 25.8 32.7 25.7 32.6 25.7C32.5 25.7 32.4 25.6 32.3 25.6C32.2 25.6 32 25.5 31.9 25.5C31.6 25.5 31.4 25.6 31.3 25.7C31.2 25.8 31.1 26 31.1 26.1C31.1 26.2 31.1 26.3 31.2 26.4C31.3 26.5 31.4 26.5 31.5 26.6C31.6 26.7 31.7 26.7 31.9 26.8C32 26.9 32.2 26.9 32.3 27C32.4 27.1 32.6 27.1 32.7 27.2C32.8 27.3 33 27.4 33.1 27.5C33.2 27.6 33.3 27.8 33.4 27.9C33.5 28.1 33.5 28.3 33.5 28.5C33.5 28.8 33.4 29.1 33.3 29.4C33.2 29.7 33 29.9 32.7 30.2C32.5 30.4 32.2 30.6 31.8 30.7C31.5 30.8 31.1 30.9 30.6 30.9C30.4 30.9 30.2 30.9 30 30.8C29.8 30.8 29.6 30.7 29.4 30.6C29.2 30.5 29.1 30.4 28.9 30.3C28.8 30.2 28.6 30.1 28.5 30L29 29.3C29.1 29.2 29.1 29.2 29.2 29.1C29.3 29.1 29.4 29 29.5 29C29.6 29 29.7 29 29.8 29.1C29.9 29.1 30 29.2 30 29.3C30.1 29.4 30.2 29.4 30.3 29.5C30.4 29.5 30.6 29.6 30.8 29.6C31.1 29.6 31.3 29.5 31.4 29.4C31.5 29.3 31.6 29.1 31.6 29C31.6 28.9 31.6 28.8 31.5 28.7C31.4 28.6 31.3 28.5 31.2 28.5C31.1 28.4 31 28.4 30.8 28.3C30.7 28.3 30.5 28.2 30.4 28.1C30.3 28 30.1 28 30 27.9C29.9 27.8 29.7 27.7 29.6 27.6C29.5 27.5 29.4 27.3 29.3 27.2C29.2 27 29.2 26.8 29.2 26.6C29.2 26.3 29.3 26 29.4 25.7C29.5 25.4 29.7 25.2 29.9 25C30.1 24.8 30.4 24.6 30.7 24.5C31 24.4 31.4 24.3 31.8 24.3C32.2 24.3 32.6 24.4 33 24.5C33.3 24.6 33.6 24.8 33.8 25L33.5 25.7Z" fill="white"/>
<path d="M34 30.8L35.1 21.5H37L36.5 25.2C36.8 24.9 37.1 24.6 37.4 24.5C37.7 24.3 38.1 24.3 38.4 24.3C38.6 24.3 38.9 24.3 39.1 24.4C39.3 24.5 39.5 24.6 39.6 24.8C39.7 25 39.9 25.2 39.9 25.4C40 25.6 40 25.9 40 26.2C40 26.3 40 26.4 40 26.4C40 26.5 40 26.6 40 26.6L39.5 30.7H37.6L38.1 26.6C38.1 26.5 38.1 26.5 38.1 26.4C38.1 26.3 38.1 26.3 38.1 26.2C38.1 26 38.1 25.8 38 25.7C37.9 25.6 37.8 25.6 37.6 25.6C37.5 25.6 37.3 25.6 37.2 25.7C37.1 25.8 36.9 25.9 36.8 26C36.7 26.1 36.5 26.3 36.4 26.5C36.3 26.7 36.2 26.9 36.1 27.2L36 30.8H34Z" fill="white"/>
<path d="M12.7 26.2H15.8L15.6 27.7H12.5L12.7 26.2Z" fill="white"/>
<path d="M22.8 24.2999L21 26.6C20.9 26.7 20.8 26.8 20.7 26.9C20.6 26.9999 20.5 27.1 20.4 27.1C20.5 27.2 20.6 27.2999 20.6 27.2999C20.7 27.3999 20.7 27.5 20.8 27.6L22.1 30.7H20.4C20.3 30.7 20.2 30.7 20.1 30.6C20 30.6 19.9 30.4999 19.9 30.2999L18.6 27L20.5 24.5C20.6 24.4 20.7 24.2999 20.8 24.2999C20.9 24.2999 21 24.2 21.1 24.2H22.8V24.2999Z" fill="#FBE901"/>
<path d="M23.1 17.1H24.8C24.9 17.1 25 17.1 25.1 17.2C25.2 17.2 25.2 17.3 25.3 17.4L26.3 19.9L23.9 23.2C23.8 23.3 23.7 23.4 23.6 23.5C23.5 23.5 23.4 23.6 23.2 23.6H21.5L23.9 20.5C24 20.4 24.1 20.3 24.2 20.2C24.3 20.1 24.4 20 24.5 20C24.4 19.9 24.3 19.9 24.3 19.8C24.2 19.7 24.2 19.6 24.1 19.5L23.1 17.1Z" fill="#FBE901"/>
<path d="M26.3 17.1H28C28.1 17.1 28.2 17.1 28.3 17.2C28.4 17.2 28.4 17.3 28.5 17.4L29.4 19.9L27 23.2C26.9 23.3 26.8 23.4 26.7 23.5C26.6 23.5 26.5 23.6 26.3 23.6H24.6L27 20.5C27.1 20.4 27.2 20.3 27.3 20.2C27.4 20.1 27.5 20 27.6 20C27.5 19.9 27.4 19.9 27.4 19.8C27.3 19.7 27.3 19.6 27.2 19.5L26.3 17.1Z" fill="#FBE901"/>
</svg>
