<svg width="32" height="32" viewBox="0 0 32 32" fill="none" xmlns="http://www.w3.org/2000/svg">
<path fill-rule="evenodd" clip-rule="evenodd" d="M12.7999 15.3C16.1999 15.3 18.9999 12.5 18.9999 9.10002C18.9999 5.70002 16.1999 2.90002 12.7999 2.90002C9.39991 2.90002 6.59991 5.70002 6.59991 9.10002C6.59991 12.5 9.39991 15.3 12.7999 15.3ZM7.99991 9.10002C7.99991 6.40002 10.1999 4.20002 12.8999 4.20002C15.5999 4.20002 17.7999 6.40002 17.7999 9.10002C17.7999 11.8 15.5999 14 12.8999 14C10.0999 14 7.99991 11.8 7.99991 9.10002Z" fill="#a32a29"/>
<path d="M22.7999 24.8C22.5999 24.8 22.3999 24.7 22.2999 24.6L20.9999 23C20.8999 22.8 20.8999 22.7 20.8999 22.5C20.8999 22.4 20.9999 22.2 21.0999 22.1C21.3999 21.9 21.7999 21.9 21.9999 22.2L22.8999 23.3L25.4999 21.2C25.6999 21.1 25.7999 21.1 25.9999 21.1C26.0999 21.1 26.2999 21.2 26.3999 21.3C26.4999 21.5 26.4999 21.6 26.4999 21.8C26.4999 21.9 26.3999 22.1 26.2999 22.2L23.1999 24.7C23.0999 24.8 22.8999 24.8 22.7999 24.8Z" fill="#a32a29"/>
<path fill-rule="evenodd" clip-rule="evenodd" d="M28.7999 18.6L23.7999 15.9C23.5999 15.8 23.3999 15.8 23.1999 15.9L18.6999 18.4C16.9999 17.2 14.9999 16.5 12.8999 16.5C10.1999 16.5 7.6999 17.6 5.8999 19.4C3.9999 21.4 2.8999 24 2.8999 26.8C2.8999 27.2 3.1999 27.5 3.5999 27.5H19.5999C20.3999 28.4 21.2999 29.2 22.3999 29.7L23.0999 30C23.1499 30 23.1999 30.025 23.2499 30.05C23.2999 30.075 23.3499 30.1 23.3999 30.1C23.4999 30.1 23.5999 30.1 23.6999 30L24.4999 29.7C27.2999 28.5 29.1999 25.8 29.1999 22.7V19.3C29.0999 18.9 28.9999 18.7 28.7999 18.6ZM18.7999 26.1H4.2999C4.3999 23.9 5.2999 21.9 6.7999 20.4C8.3999 18.8 10.4999 17.9 12.7999 17.9C14.6999 17.9 16.3999 18.5 17.8999 19.6V22.7C17.8999 23.8 18.1999 25 18.7999 26.1ZM23.3999 17.3L27.7999 19.6V22.6C27.7999 25.1 26.2999 27.4 23.9999 28.3L23.4999 28.5L22.9999 28.4C20.6999 27.4 19.2999 25.2 19.1999 22.7V19.6L23.3999 17.3Z" fill="#a32a29"/>
</svg>
