<svg width="72" height="72" viewBox="0 0 72 72" fill="none" xmlns="http://www.w3.org/2000/svg">
<g filter="url(#filter0_d_5300_623)">
<rect x="12" y="8" width="48" height="48" rx="24" fill="#A32A29"/>
<path d="M32.4583 27.5625H40.1875C40.5833 27.5625 40.9166 27.2292 40.9166 26.8333C40.9166 26.4375 40.5833 26.1042 40.1875 26.1042H32.4583C32.0625 26.1042 31.7291 26.4375 31.7291 26.8333C31.7291 27.2292 32.0625 27.5625 32.4583 27.5625Z" fill="white"/>
<path d="M32.4583 30.6458H40.1875C40.5833 30.6458 40.9166 30.3125 40.9166 29.9167C40.9166 29.5208 40.5833 29.1875 40.1875 29.1875H32.4583C32.0625 29.1875 31.7291 29.5208 31.7291 29.9167C31.7291 30.3125 32.0625 30.6458 32.4583 30.6458Z" fill="white"/>
<path d="M40.1875 33.7292H32.4583C32.0625 33.7292 31.7291 33.3958 31.7291 33C31.7291 32.6042 32.0625 32.2708 32.4583 32.2708H40.1875C40.5833 32.2708 40.9166 32.6042 40.9166 33C40.9166 33.3958 40.5833 33.7292 40.1875 33.7292Z" fill="white"/>
<path d="M32.4583 36.8125H40.1875C40.5833 36.8125 40.9166 36.4792 40.9166 36.0833C40.9166 35.6875 40.5833 35.3542 40.1875 35.3542H32.4583C32.0625 35.3542 31.7291 35.6875 31.7291 36.0833C31.7291 36.4792 32.0625 36.8125 32.4583 36.8125Z" fill="white"/>
<path fill-rule="evenodd" clip-rule="evenodd" d="M43.8333 22.1042H28.8333C28.4375 22.1042 28.1041 22.4375 28.1041 22.8333V40.7917C28.1041 41.1458 28.2916 41.4792 28.6041 41.6458C28.9166 41.8125 29.2916 41.7917 29.5833 41.6042L31.3125 40.4375L33.2916 41.75C33.625 41.9583 34.0416 41.9583 34.3541 41.75L36.3333 40.4375L38.2916 41.75C38.4583 41.8542 38.6458 41.9167 38.8333 41.9167C39.0208 41.9167 39.2083 41.8542 39.3541 41.75L41.3333 40.4375L43.0625 41.6042C43.3541 41.7917 43.7291 41.8125 44.0416 41.6458C44.3541 41.4792 44.5416 41.1458 44.5416 40.7917V22.8333C44.5625 22.4375 44.2291 22.1042 43.8333 22.1042ZM43.1041 39.8542L43.0833 39.8403V23.5625H29.5416V39.8542L30.7916 39.0208C31.125 38.8125 31.5416 38.8125 31.8541 39.0208L33.8333 40.3333L35.8125 39.0417C35.9583 38.9375 36.1458 38.875 36.3333 38.875C36.5208 38.875 36.7083 38.9167 36.875 39.0208L38.8333 40.3333L40.7916 39.0208C41.125 38.8125 41.5416 38.8125 41.8541 39.0208L43.0833 39.8403V39.8542H43.1041Z" fill="white"/>
</g>
<defs>
<filter id="filter0_d_5300_623" x="0" y="0" width="72" height="72" filterUnits="userSpaceOnUse" color-interpolation-filters="sRGB">
<feFlood flood-opacity="0" result="BackgroundImageFix"/>
<feColorMatrix in="SourceAlpha" type="matrix" values="0 0 0 0 0 0 0 0 0 0 0 0 0 0 0 0 0 0 127 0" result="hardAlpha"/>
<feOffset dy="4"/>
<feGaussianBlur stdDeviation="6"/>
<feColorMatrix type="matrix" values="0 0 0 0 0 0 0 0 0 0 0 0 0 0 0 0 0 0 0.16 0"/>
<feBlend mode="normal" in2="BackgroundImageFix" result="effect1_dropShadow_5300_623"/>
<feBlend mode="normal" in="SourceGraphic" in2="effect1_dropShadow_5300_623" result="shape"/>
</filter>
</defs>
</svg>
