<svg width="48" height="48" viewBox="0 0 48 48" fill="none" xmlns="http://www.w3.org/2000/svg">
<path d="M0 24C0 10.7452 10.7452 0 24 0C37.2548 0 48 10.7452 48 24C48 37.2548 37.2548 48 24 48C10.7452 48 0 37.2548 0 24Z" fill="#929497" fill-opacity="0.2"/>
<path d="M30.2175 23.5262H29.2175V31.9437H30.2175V23.5262Z" fill="#A32A29"/>
<path d="M31.1306 23.5262H32.1306V31.9437H31.1306V23.5262Z" fill="#A32A29"/>
<path d="M34.0436 23.5262H33.0436V31.9437H34.0436V23.5262Z" fill="#A32A29"/>
<path fill-rule="evenodd" clip-rule="evenodd" d="M33.0436 21.9958H34.5741C35.2054 21.9958 35.7219 22.5123 35.7219 23.1436V32.3263C35.7219 32.9576 35.2054 33.4742 34.5741 33.4742H28.5097C25.6783 35.2103 22.187 35.4877 19.1165 34.2203L19.413 33.5124C19.8626 33.6989 20.3217 33.852 20.7952 33.9668V33.0294C20.7952 32.9242 20.757 32.8285 20.6852 32.7568L20.3696 32.4411C20.1544 32.2259 20.0348 31.9341 20.0348 31.628V30.7959C20.0348 30.1646 20.5513 29.648 21.1826 29.648H21.6274C21.7326 29.648 21.8283 29.6098 21.9 29.538L23.7461 27.6871C23.9613 27.4719 24.2531 27.3523 24.5592 27.3523H25.3914C26.0227 27.3523 26.5392 27.8689 26.5392 28.5002V29.648C26.5392 30.2793 26.0227 30.7959 25.3914 30.7959C25.1809 30.7959 25.0088 30.968 25.0088 31.1785V31.6233C25.0088 31.7285 25.047 31.8241 25.1188 31.8959L25.8218 32.5941C26.037 32.8094 26.1566 33.1011 26.1566 33.4072V33.7372C26.6588 33.565 27.1418 33.3546 27.6105 33.1059C27.4144 32.8955 27.3044 32.6181 27.3044 32.3263V23.1436C27.3044 22.5123 27.821 21.9958 28.4523 21.9958H29.9827V18.0405C29.5427 17.5862 29.0549 17.1748 28.5336 16.8114C28.2992 16.9788 28.0744 17.1509 27.8497 17.3279L27.3762 16.7253C27.5292 16.6057 27.6823 16.4861 27.8353 16.3714C27.3953 16.1227 26.9362 15.9027 26.4627 15.7257L26.2188 15.9696L27.467 19.0927C27.6392 19.5183 27.5388 20.0062 27.2136 20.3314L26.0657 21.4792L24.1527 18.0357L21.7231 20.4653H20.5991L21.2496 22.0866L19.5135 23.8227L18.5952 21.5223L16.2947 20.604L18.0308 18.8679L19.6522 19.5183V18.3944L22.0865 15.96L20.977 15.3431C18.2413 15.9648 15.9169 17.7583 14.6208 20.2453L15.8595 21.484C16.0843 21.7088 16.2087 22.0149 16.2087 22.3306C16.2087 22.9906 15.673 23.5262 15.013 23.5262H13.6021C13.5543 23.9088 13.5304 24.2914 13.5304 24.6741C13.5304 24.7987 13.5348 24.9189 13.5394 25.0433L13.5399 25.0567H14.9939C15.1756 25.0567 15.3573 24.9849 15.4865 24.851L15.5534 24.7841C16.1273 24.2149 17.0504 24.2149 17.6243 24.7841L18.0739 25.2336C18.3513 25.511 18.5043 25.8841 18.5043 26.2715V26.5249C18.5043 26.9171 18.3513 27.2902 18.0739 27.5628L17.1795 28.4571C17.0456 28.5863 16.9739 28.7632 16.9739 28.9498C16.9739 29.758 16.3187 30.4133 15.5104 30.4133H15.4434C15.893 31.0063 16.4095 31.5515 16.9834 32.0298L16.4956 32.6181C14.9652 31.3459 13.8317 29.6576 13.2386 27.7589C11.5312 22.3114 14.5682 16.5148 20.0157 14.8074L18.643 14.047L19.7909 12.8991C20.1161 12.5739 20.6039 12.4735 21.0296 12.6457L24.1527 13.8939L24.8031 13.2435C25.5683 12.4735 26.6062 12.043 27.687 12.0478H28.0697V12.4304C28.0744 13.4252 27.711 14.3865 27.0509 15.1326C27.5579 15.3431 28.0457 15.5966 28.5144 15.8835C29.844 14.9509 31.2597 14.1426 32.7375 13.4683L31.1736 12.6839L31.518 12L34.0862 13.2818L32.7997 15.85L32.1158 15.5057L32.7088 14.3196C31.4845 14.8983 30.3127 15.5726 29.1936 16.3379C29.5236 16.577 29.8392 16.8401 30.1358 17.1174C30.394 16.5914 30.9297 16.2566 31.5132 16.2566C32.3597 16.2566 33.0436 16.9405 33.0436 17.787V21.9958ZM16.0317 25.3915C15.7543 25.6688 15.3813 25.8219 14.9939 25.8219H13.5973C13.7599 27.1754 14.2143 28.4811 14.9221 29.648H15.5104C15.893 29.648 16.2087 29.3372 16.2087 28.9498C16.2087 28.5576 16.3617 28.1845 16.6391 27.9119L17.5382 27.0128C17.6721 26.8836 17.7439 26.7067 17.7439 26.5202V26.2667C17.7439 26.0849 17.6721 25.9032 17.5382 25.7741L17.0887 25.3245C16.8161 25.0519 16.3713 25.0519 16.0987 25.3245L16.0317 25.3915ZM15.3191 22.6366C15.4865 22.4692 15.4865 22.1966 15.3191 22.0292L14.2717 20.9818C14.0278 21.5558 13.846 22.1536 13.7217 22.761H15.0178C15.1278 22.761 15.2378 22.7179 15.3191 22.6366ZM19.1787 20.9388L19.7909 22.4645L20.3504 21.9049L19.7383 20.3792L18.2126 19.767L17.653 20.3266L19.1787 20.9388ZM25.3244 15.7831L26.3336 14.7739C26.8596 14.2526 27.1896 13.5687 27.2805 12.837C26.544 12.9278 25.8648 13.2626 25.3435 13.7839L24.3344 14.7883L20.7426 13.3535C20.6039 13.2961 20.4413 13.3296 20.3313 13.4396L19.9009 13.87L21.0965 14.5348C21.1013 14.53 21.1061 14.53 21.1109 14.53L21.1157 14.5444L23.3444 15.7831L20.4174 18.7101V19.7001H21.4074L24.3296 16.7731L26.2427 20.2166L26.6731 19.7862C26.7831 19.681 26.8166 19.5183 26.7592 19.3749L25.3244 15.7831ZM21.5652 34.1198C22.8374 34.3207 24.1383 34.2681 25.3914 33.962H25.3866V33.4168C25.3866 33.3115 25.3483 33.2159 25.2766 33.1442L24.5783 32.4459C24.3631 32.2307 24.2435 31.9389 24.2435 31.6328V31.1833C24.2435 30.5519 24.7601 30.0354 25.3914 30.0354C25.6018 30.0354 25.774 29.8632 25.774 29.6528V28.505C25.774 28.2945 25.6018 28.1224 25.3914 28.1224H24.5687C24.4635 28.1224 24.3679 28.1606 24.2961 28.2324L22.45 30.0785C22.2348 30.2937 21.9431 30.4133 21.637 30.4133H21.1874C20.977 30.4133 20.8048 30.5854 20.8048 30.7959V31.628C20.8048 31.7333 20.8431 31.8289 20.9148 31.9007L21.2304 32.2163C21.4457 32.4315 21.5652 32.7233 21.5652 33.0294V34.1198ZM31.5132 17.0218C31.0923 17.0218 30.7479 17.3661 30.7479 17.787V21.9958H32.2784V17.787C32.2784 17.3661 31.934 17.0218 31.5132 17.0218ZM34.5741 32.7089C34.7845 32.7089 34.9567 32.5368 34.9567 32.3263V23.1436C34.9567 22.9332 34.7845 22.761 34.5741 22.761H28.4523C28.2418 22.761 28.0697 22.9332 28.0697 23.1436V32.3263C28.0697 32.5368 28.2418 32.7089 28.4523 32.7089H34.5741Z" fill="#A32A29"/>
<path d="M23.9566 19.9344C20.5179 23.7893 18.2892 28.5671 17.5479 33.6798L17.3613 34.952L18.117 35.062L18.3035 33.7898C19.0257 28.8254 21.1922 24.1862 24.5305 20.4462L23.9566 19.9344Z" fill="#A32A29"/>
<path d="M28.8348 34.2394H29.9827V35.2394H28.8348V34.2394Z" fill="#A32A29"/>
<path d="M33.4261 34.2394H34.574V35.2394H33.4261V34.2394Z" fill="#A32A29"/>
<path fill-rule="evenodd" clip-rule="evenodd" d="M23.4783 24.1336V23.9088C23.4783 23.488 23.8226 23.1436 24.2435 23.1436H25.774C26.1948 23.1436 26.5392 23.488 26.5392 23.9088V25.0567C26.5392 25.4775 26.1948 25.8219 25.774 25.8219H25.1666L24.6261 26.3623C24.4826 26.5058 24.2866 26.5871 24.0857 26.5871H23.0957C22.6748 26.5871 22.3304 26.2428 22.3304 25.8219V25.5971C22.3304 25.3962 22.4117 25.2001 22.5552 25.0567L23.4783 24.1336ZM24.2435 23.9088V24.1336C24.2435 24.3345 24.1622 24.5306 24.0187 24.6741L23.0957 25.5971V25.8219H24.0857L24.6261 25.2815C24.7696 25.138 24.9657 25.0567 25.1666 25.0567H25.774V23.9088H24.2435Z" fill="#A32A29"/>
</svg>
