<svg width="24" height="24" viewBox="0 0 24 24" fill="none" xmlns="http://www.w3.org/2000/svg">
<path d="M18.2175 11.5262H17.2175V19.9437H18.2175V11.5262Z" fill="#A32A29"/>
<path d="M19.1306 11.5262H20.1306V19.9437H19.1306V11.5262Z" fill="#A32A29"/>
<path d="M22.0436 11.5262H21.0436V19.9437H22.0436V11.5262Z" fill="#A32A29"/>
<path fill-rule="evenodd" clip-rule="evenodd" d="M21.0436 9.99577H22.5741C23.2054 9.99577 23.7219 10.5123 23.7219 11.1436V20.3263C23.7219 20.9576 23.2054 21.4742 22.5741 21.4742H16.5097C13.6783 23.2103 10.187 23.4877 7.11651 22.2203L7.41304 21.5124C7.86261 21.6989 8.32174 21.852 8.79523 21.9668V21.0294C8.79523 20.9242 8.75697 20.8285 8.68523 20.7568L8.36957 20.4411C8.15435 20.2259 8.03478 19.9341 8.03478 19.628V18.7959C8.03478 18.1646 8.55131 17.648 9.18262 17.648H9.62741C9.73263 17.648 9.82828 17.6098 9.90002 17.538L11.7461 15.6871C11.9613 15.4719 12.2531 15.3523 12.5592 15.3523H13.3914C14.0227 15.3523 14.5392 15.8689 14.5392 16.5002V17.648C14.5392 18.2793 14.0227 18.7959 13.3914 18.7959C13.1809 18.7959 13.0088 18.968 13.0088 19.1785V19.6233C13.0088 19.7285 13.047 19.8241 13.1188 19.8959L13.8218 20.5941C14.037 20.8094 14.1566 21.1011 14.1566 21.4072V21.7372C14.6588 21.565 15.1418 21.3546 15.6105 21.1059C15.4144 20.8955 15.3044 20.6181 15.3044 20.3263V11.1436C15.3044 10.5123 15.821 9.99577 16.4523 9.99577H17.9827V6.0405C17.5427 5.58615 17.0549 5.17484 16.5336 4.81136C16.2992 4.97875 16.0744 5.15093 15.8497 5.32789L15.3762 4.72527C15.5292 4.60573 15.6823 4.48611 15.8353 4.37135C15.3953 4.12265 14.9362 3.90265 14.4627 3.72569L14.2188 3.96961L15.467 7.09269C15.6392 7.51835 15.5388 8.00618 15.2136 8.3314L14.0657 9.47924L12.1527 6.03572L9.72306 8.46531H8.59914L9.24958 10.0866L7.51347 11.8227L6.5952 9.52228L4.29474 8.60401L6.03085 6.8679L7.65217 7.51835V6.39442L10.0865 3.96004L8.97697 3.34308C6.24128 3.96483 3.91691 5.75833 2.62081 8.24531L3.85952 9.48402C4.0843 9.70881 4.20865 10.0149 4.20865 10.3306C4.20865 10.9906 3.67299 11.5262 3.01299 11.5262H1.6021C1.55428 11.9088 1.53036 12.2914 1.53036 12.6741C1.53036 12.7987 1.53482 12.9189 1.53943 13.0433L1.53993 13.0567H2.99386C3.1756 13.0567 3.35734 12.9849 3.48647 12.851L3.55343 12.7841C4.12735 12.2149 5.0504 12.2149 5.62432 12.7841L6.07389 13.2336C6.35129 13.511 6.50433 13.8841 6.50433 14.2715V14.5249C6.50433 14.9171 6.35129 15.2902 6.07389 15.5628L5.17953 16.4571C5.04562 16.5863 4.97388 16.7632 4.97388 16.9498C4.97388 17.758 4.31865 18.4133 3.51038 18.4133H3.44343C3.893 19.0063 4.40953 19.5515 4.98344 20.0298L4.49561 20.6181C2.96516 19.3459 1.83167 17.6576 1.23862 15.7589C-0.468791 10.3114 2.5682 4.51483 8.01565 2.80742L6.64303 2.04698L7.79087 0.899141C8.11609 0.57392 8.60392 0.473484 9.02958 0.64566L12.1527 1.89393L12.8031 1.24349C13.5683 0.473484 14.6062 0.043044 15.687 0.0478266H16.0697V0.43044C16.0744 1.42523 15.711 2.38655 15.0509 3.13264C15.5579 3.34308 16.0457 3.59656 16.5144 3.88352C17.844 2.9509 19.2597 2.14263 20.7375 1.46828L19.1736 0.683921L19.518 0L22.0862 1.28175L20.7997 3.85004L20.1158 3.50569L20.7088 2.31959C19.4845 2.89829 18.3127 3.57265 17.1936 4.33788C17.5236 4.57701 17.8392 4.84005 18.1358 5.11745C18.394 4.59136 18.9297 4.25657 19.5132 4.25657C20.3597 4.25657 21.0436 4.94049 21.0436 5.78702V9.99577ZM4.03169 13.3915C3.7543 13.6688 3.38125 13.8219 2.99386 13.8219H1.59732C1.75993 15.1754 2.21428 16.4811 2.92212 17.648H3.51038C3.893 17.648 4.20865 17.3372 4.20865 16.9498C4.20865 16.5576 4.3617 16.1845 4.63909 15.9119L5.53823 15.0128C5.67215 14.8836 5.74389 14.7067 5.74389 14.5202V14.2667C5.74389 14.0849 5.67215 13.9032 5.53823 13.7741L5.08866 13.3245C4.81605 13.0519 4.37126 13.0519 4.09865 13.3245L4.03169 13.3915ZM3.31908 10.6366C3.48647 10.4692 3.48647 10.1966 3.31908 10.0292L2.27167 8.98184C2.02776 9.55576 1.84602 10.1536 1.72167 10.761H3.01777C3.12777 10.761 3.23777 10.7179 3.31908 10.6366ZM7.17869 8.9388L7.79087 10.4645L8.35044 9.90489L7.73826 8.37923L6.21259 7.76704L5.65302 8.32662L7.17869 8.9388ZM13.3244 3.78309L14.3336 2.77394C14.8596 2.25263 15.1896 1.56871 15.2805 0.836966C14.544 0.927837 13.8648 1.26262 13.3435 1.78393L12.3344 2.78829L8.74262 1.35349C8.60392 1.2961 8.44131 1.32958 8.33131 1.43958L7.90087 1.87002L9.09653 2.53481C9.10132 2.53003 9.1061 2.53003 9.11088 2.53003L9.11566 2.54438L11.3444 3.78309L8.4174 6.71008V7.70009H9.40741L12.3296 4.7731L14.2427 8.21661L14.6731 7.78618C14.7831 7.68096 14.8166 7.51835 14.7592 7.37487L13.3244 3.78309ZM9.56524 22.1198C10.8374 22.3207 12.1383 22.2681 13.3914 21.962H13.3866V21.4168C13.3866 21.3115 13.3483 21.2159 13.2766 21.1442L12.5783 20.4459C12.3631 20.2307 12.2435 19.9389 12.2435 19.6328V19.1833C12.2435 18.5519 12.7601 18.0354 13.3914 18.0354C13.6018 18.0354 13.774 17.8632 13.774 17.6528V16.505C13.774 16.2945 13.6018 16.1224 13.3914 16.1224H12.5687C12.4635 16.1224 12.3679 16.1606 12.2961 16.2324L10.45 18.0785C10.2348 18.2937 9.94307 18.4133 9.63698 18.4133H9.1874C8.97697 18.4133 8.80479 18.5854 8.80479 18.7959V19.628C8.80479 19.7333 8.84305 19.8289 8.91479 19.9007L9.23045 20.2163C9.44567 20.4315 9.56524 20.7233 9.56524 21.0294V22.1198ZM19.5132 5.0218C19.0923 5.0218 18.7479 5.36615 18.7479 5.78702V9.99577H20.2784V5.78702C20.2784 5.36615 19.934 5.0218 19.5132 5.0218ZM22.5741 20.7089C22.7845 20.7089 22.9567 20.5368 22.9567 20.3263V11.1436C22.9567 10.9332 22.7845 10.761 22.5741 10.761H16.4523C16.2418 10.761 16.0697 10.9332 16.0697 11.1436V20.3263C16.0697 20.5368 16.2418 20.7089 16.4523 20.7089H22.5741Z" fill="#A32A29"/>
<path d="M11.9566 7.93444C8.51789 11.7893 6.28916 16.5671 5.54785 21.6798L5.36133 22.952L6.11699 23.062L6.30351 21.7898C7.02569 16.8254 9.19224 12.1862 12.5305 8.44619L11.9566 7.93444Z" fill="#A32A29"/>
<path d="M16.8348 22.2394H17.9827V23.2394H16.8348V22.2394Z" fill="#A32A29"/>
<path d="M21.4261 22.2394H22.574V23.2394H21.4261V22.2394Z" fill="#A32A29"/>
<path fill-rule="evenodd" clip-rule="evenodd" d="M11.4783 12.1336V11.9088C11.4783 11.488 11.8226 11.1436 12.2435 11.1436H13.774C14.1948 11.1436 14.5392 11.488 14.5392 11.9088V13.0567C14.5392 13.4775 14.1948 13.8219 13.774 13.8219H13.1666L12.6261 14.3623C12.4826 14.5058 12.2866 14.5871 12.0857 14.5871H11.0957C10.6748 14.5871 10.3304 14.2428 10.3304 13.8219V13.5971C10.3304 13.3962 10.4117 13.2001 10.5552 13.0567L11.4783 12.1336ZM12.2435 11.9088V12.1336C12.2435 12.3345 12.1622 12.5306 12.0187 12.6741L11.0957 13.5971V13.8219H12.0857L12.6261 13.2815C12.7696 13.138 12.9657 13.0567 13.1666 13.0567H13.774V11.9088H12.2435Z" fill="#A32A29"/>
</svg>
