<svg width="25" height="24" viewBox="0 0 25 24" fill="none" xmlns="http://www.w3.org/2000/svg">
<circle cx="12.817" cy="12" r="12" fill="white"/>
<path fill-rule="evenodd" clip-rule="evenodd" d="M5.81702 14C6.92159 14 7.81702 13.1046 7.81702 12C7.81702 10.8954 6.92159 10 5.81702 10C4.71245 10 3.81702 10.8954 3.81702 12C3.81702 13.1046 4.71245 14 5.81702 14ZM14.817 12C14.817 13.1046 13.9216 14 12.817 14C11.7124 14 10.817 13.1046 10.817 12C10.817 10.8954 11.7124 10 12.817 10C13.9216 10 14.817 10.8954 14.817 12ZM21.817 12C21.817 13.1046 20.9216 14 19.817 14C18.7124 14 17.817 13.1046 17.817 12C17.817 10.8954 18.7124 10 19.817 10C20.9216 10 21.817 10.8954 21.817 12Z" fill="#A32A29"/>
</svg>
