<svg width="48" height="48" viewBox="0 0 48 48" fill="none" xmlns="http://www.w3.org/2000/svg">
<path d="M24 48C10.7 48 0 37.3 0 24C0 10.7 10.7 0 24 0C37.3 0 48 10.7 48 24C48 37.3 37.3 48 24 48Z" fill="white"/>
<mask id="mask0_4145_21113" style="mask-type:alpha" maskUnits="userSpaceOnUse" x="0" y="0" width="48" height="48">
<rect width="48" height="48" rx="24" fill="#E9E9E9"/>
</mask>
<g mask="url(#mask0_4145_21113)">
<path d="M18.4063 31.0205C18.4059 29.918 18.7324 28.8402 19.3446 27.9233C19.9568 27.0064 20.8272 26.2917 21.8456 25.8694C22.864 25.4472 23.9848 25.3365 25.0662 25.5512C26.1475 25.766 27.1409 26.2966 27.9207 27.076C28.7005 27.8554 29.2317 28.8485 29.447 29.9297C29.6624 31.011 29.5523 32.1318 29.1306 33.1505C28.7089 34.1691 27.9946 35.0399 27.0781 35.6526C26.1615 36.2653 25.0838 36.5924 23.9813 36.5926C22.5032 36.5926 21.0857 36.0057 20.0402 34.9608C18.9948 33.9159 18.407 32.4986 18.4063 31.0205V31.0205Z" fill="url(#paint0_radial_4145_21113)"/>
<path d="M23.0082 15.2006C22.6483 15.365 22.2533 15.2698 22.1239 14.9881C21.9946 14.7064 22.1821 14.3445 22.541 14.18C22.8999 14.0156 23.2959 14.1109 23.4252 14.3926C23.5545 14.6743 23.3671 15.0372 23.0082 15.2006Z" fill="#FCCF17"/>
<path d="M22.9947 15.1762C23.3341 15.0211 23.5106 14.6797 23.3891 14.4139C23.2675 14.148 22.8939 14.0582 22.5545 14.2134C22.2151 14.3686 22.0385 14.7099 22.16 14.9758C22.2816 15.2417 22.6553 15.3314 22.9947 15.1762Z" fill="#FCD117"/>
<path d="M22.9817 15.1445C22.6619 15.2908 22.31 15.2056 22.1957 14.956C22.0814 14.7064 22.2479 14.3846 22.5667 14.2382C22.8855 14.0918 23.2384 14.177 23.3527 14.4267C23.4669 14.6763 23.3005 15.0001 22.9817 15.1445Z" fill="#FCD316"/>
<path d="M22.9689 15.1164C22.6682 15.2527 22.3393 15.1735 22.2321 14.9389C22.1248 14.7043 22.2812 14.4036 22.58 14.2662C22.8787 14.1289 23.2095 14.2091 23.3168 14.4437C23.4241 14.6783 23.2677 14.979 22.9689 15.1164Z" fill="#FCD516"/>
<path d="M22.9558 15.0883C22.6761 15.2156 22.3683 15.1415 22.268 14.9229C22.1678 14.7043 22.3131 14.4216 22.5929 14.2943C22.8726 14.167 23.1803 14.2412 23.2806 14.4597C23.3808 14.6783 23.2375 14.96 22.9558 15.0883Z" fill="#FCD616"/>
<path d="M22.943 15.0592C22.6833 15.1785 22.3976 15.1094 22.3044 14.9059C22.2112 14.7023 22.3465 14.4417 22.6051 14.3234C22.8638 14.2051 23.1505 14.2733 23.2438 14.4768C23.337 14.6803 23.2027 14.9409 22.943 15.0592Z" fill="#FDD816"/>
<path d="M22.93 15.0312C22.6904 15.1405 22.4288 15.0773 22.3405 14.8898C22.2523 14.7023 22.3796 14.4607 22.6192 14.3515C22.8589 14.2422 23.1205 14.3053 23.2087 14.4928C23.297 14.6803 23.1696 14.9219 22.93 15.0312Z" fill="#FDDA15"/>
<path d="M22.9169 15.0001C22.6974 15.1003 22.4558 15.0422 22.3766 14.8698C22.2974 14.6973 22.4127 14.4768 22.6322 14.3765C22.8518 14.2763 23.0934 14.3344 23.1726 14.5068C23.2518 14.6793 23.1375 14.8998 22.9169 15.0001Z" fill="#FDDC15"/>
<path d="M22.9038 14.975C22.7033 15.0663 22.4848 15.0131 22.4136 14.8567C22.3424 14.7003 22.4457 14.4988 22.6452 14.4076C22.8447 14.3164 23.0642 14.3695 23.1354 14.5259C23.2066 14.6823 23.1033 14.8838 22.9038 14.975Z" fill="#FDDE15"/>
<path d="M22.8906 14.946C22.7111 15.0282 22.5136 14.9811 22.4495 14.8397C22.3853 14.6983 22.4785 14.5189 22.658 14.4387C22.8374 14.3585 23.0349 14.4036 23.0991 14.545C23.1633 14.6863 23.07 14.8638 22.8906 14.946Z" fill="#FDE014"/>
<path d="M22.8779 14.9179C22.7185 14.9911 22.5431 14.949 22.4859 14.8236C22.4288 14.6983 22.511 14.5379 22.6714 14.4647C22.8318 14.3915 23.0062 14.4337 23.0634 14.559C23.1205 14.6843 23.0373 14.8447 22.8779 14.9179Z" fill="#FEE214"/>
<path d="M22.8646 14.8898C22.8232 14.8977 22.7805 14.8938 22.7412 14.8785C22.702 14.8632 22.6678 14.8372 22.6427 14.8034C22.6175 14.7696 22.6023 14.7295 22.5989 14.6875C22.5955 14.6455 22.6039 14.6034 22.6233 14.566C22.6426 14.5286 22.6721 14.4974 22.7084 14.4759C22.7446 14.4545 22.7862 14.4437 22.8283 14.4447C22.8704 14.4458 22.9114 14.4586 22.9465 14.4819C22.9817 14.5051 23.0096 14.5377 23.027 14.576C23.0466 14.6392 23.0406 14.7075 23.0102 14.7662C22.9798 14.825 22.9275 14.8694 22.8646 14.8898V14.8898Z" fill="#FEE414"/>
<path d="M22.8524 14.8617C22.817 14.8686 22.7804 14.8653 22.7467 14.8523C22.713 14.8393 22.6837 14.8171 22.662 14.7882C22.6404 14.7594 22.6273 14.725 22.6242 14.689C22.6212 14.6531 22.6283 14.617 22.6448 14.5849C22.6612 14.5528 22.6864 14.5259 22.7174 14.5074C22.7484 14.489 22.7839 14.4795 22.82 14.4803C22.8561 14.481 22.8912 14.4919 22.9214 14.5117C22.9516 14.5315 22.9757 14.5593 22.9908 14.5921C23.0073 14.6462 23.0021 14.7046 22.9763 14.755C22.9505 14.8053 22.906 14.8436 22.8524 14.8617Z" fill="#FEE614"/>
<path d="M22.8368 14.8327C22.8072 14.8385 22.7766 14.8358 22.7484 14.825C22.7203 14.8142 22.6957 14.7957 22.6776 14.7716C22.6595 14.7475 22.6486 14.7188 22.6461 14.6887C22.6435 14.6587 22.6495 14.6286 22.6633 14.6018C22.6772 14.575 22.6983 14.5526 22.7242 14.5373C22.7501 14.5219 22.7799 14.5142 22.81 14.5149C22.8401 14.5157 22.8694 14.5249 22.8946 14.5416C22.9197 14.5583 22.9396 14.5817 22.952 14.6091C22.9657 14.6541 22.9613 14.7026 22.9398 14.7443C22.9182 14.7861 22.8813 14.8178 22.8368 14.8327V14.8327Z" fill="#FEE813"/>
<path d="M22.8266 14.8046C22.8029 14.8092 22.7785 14.807 22.756 14.7984C22.7335 14.7897 22.714 14.7749 22.6995 14.7557C22.6851 14.7364 22.6763 14.7135 22.6743 14.6895C22.6723 14.6655 22.677 14.6414 22.688 14.62C22.699 14.5986 22.7158 14.5807 22.7365 14.5684C22.7572 14.556 22.781 14.5498 22.805 14.5503C22.8291 14.5509 22.8525 14.5582 22.8727 14.5714C22.8928 14.5846 22.9088 14.6033 22.9188 14.6252C22.9296 14.6612 22.9261 14.7 22.9089 14.7335C22.8917 14.767 22.8622 14.7925 22.8266 14.8046V14.8046Z" fill="#FEEA13"/>
<path d="M22.8137 14.7765C22.795 14.7811 22.7754 14.7803 22.7572 14.774C22.739 14.7678 22.723 14.7564 22.711 14.7413C22.6991 14.7262 22.6918 14.708 22.6899 14.6889C22.6881 14.6697 22.6918 14.6504 22.7006 14.6333C22.7094 14.6162 22.7229 14.602 22.7396 14.5924C22.7563 14.5827 22.7754 14.5781 22.7946 14.5791C22.8138 14.58 22.8324 14.5865 22.848 14.5977C22.8637 14.6088 22.8758 14.6243 22.8829 14.6422C22.8909 14.6692 22.8881 14.6982 22.8753 14.7233C22.8624 14.7483 22.8403 14.7674 22.8137 14.7765Z" fill="#FFED13"/>
<path d="M22.8004 14.7475C22.7924 14.7526 22.7833 14.7561 22.7739 14.7577C22.7645 14.7593 22.7548 14.7591 22.7455 14.7569C22.7361 14.7548 22.7273 14.7508 22.7196 14.7452C22.7118 14.7396 22.7052 14.7326 22.7002 14.7244C22.6961 14.7063 22.6985 14.6873 22.7067 14.6707C22.715 14.654 22.7287 14.6407 22.7456 14.633C22.7625 14.6252 22.7815 14.6235 22.7995 14.6281C22.8175 14.6327 22.8334 14.6433 22.8445 14.6582C22.85 14.6759 22.8485 14.6951 22.8403 14.7117C22.8321 14.7283 22.8178 14.7411 22.8004 14.7475V14.7475Z" fill="#FFEF12"/>
<path d="M22.7868 14.7187C22.7788 14.7235 22.7692 14.725 22.7601 14.7227C22.751 14.7205 22.7431 14.7148 22.7382 14.7068C22.7357 14.698 22.7366 14.6886 22.7409 14.6805C22.7451 14.6723 22.7523 14.6662 22.761 14.6632C22.7691 14.6584 22.7787 14.657 22.7877 14.6592C22.7968 14.6614 22.8047 14.6671 22.8096 14.6751C22.8121 14.6839 22.8112 14.6934 22.8069 14.7015C22.8027 14.7096 22.7955 14.7158 22.7868 14.7187V14.7187Z" fill="#FFF112"/>
<path d="M23.4511 25.4777C17.6364 25.3624 15.0449 22.7007 15.0008 16.7988C15.0008 16.7036 15.0118 16.6063 15.0118 16.5091C15.0112 15.4201 14.6877 14.3558 14.0823 13.4508C13.4768 12.5457 12.6166 11.8404 11.6104 11.4242C10.6041 11.008 9.49708 10.8995 8.42918 11.1125C7.36128 11.3254 6.38051 11.8502 5.61087 12.6206C4.84124 13.3909 4.31731 14.3722 4.10533 15.4403C3.89336 16.5083 4.00285 17.6153 4.41998 18.6212C4.8371 19.627 5.54312 20.4866 6.44876 21.0912C7.3544 21.6959 8.41899 22.0184 9.50791 22.018C9.60816 22.018 9.70842 22.0059 9.80867 22.0039C15.6514 22.0541 18.3162 24.6035 18.4695 30.3119C22.222 30.3109 23.4511 28.5705 23.4511 25.4777Z" fill="#F78E1E"/>
<path d="M38.4919 11.001C37.7685 11.0007 37.0521 11.143 36.3838 11.4197C35.7154 11.6964 35.1081 12.1021 34.5966 12.6136C34.0851 13.1252 33.6794 13.7324 33.4027 14.4008C33.126 15.0692 32.9837 15.7855 32.9839 16.5089C32.9839 16.6092 32.992 16.7034 33 16.7986C32.9539 22.1552 30.8185 24.842 26.0765 25.3793C25.9863 25.3863 24.8374 25.4575 24.2038 25.4555C24.1356 25.4555 24.0674 25.4505 24.0033 25.4505H23.9822C23.8048 25.4505 23.6293 25.4605 23.4549 25.4766C22.3811 25.5827 21.3613 25.9982 20.5191 26.6727C19.6768 27.3471 19.0485 28.2515 18.7102 29.2761C18.3719 30.3007 18.3383 31.4014 18.6134 32.4447C18.8885 33.4881 19.4605 34.4291 20.26 35.1537C21.0595 35.8783 22.0521 36.3553 23.1173 36.5268C24.1826 36.6983 25.2747 36.5569 26.2612 36.1199C27.2477 35.6828 28.0862 34.9688 28.6748 34.0645C29.2634 33.1602 29.577 32.1045 29.5773 31.0256C29.5773 30.8932 29.5713 30.7629 29.5623 30.6336C29.5383 30.3208 29.5543 29.7834 29.5623 29.613C29.9152 24.3938 32.592 22.0489 38.1911 22.0018C38.2914 22.0018 38.3916 22.0158 38.4919 22.0158C39.9526 22.0158 41.3536 21.4355 42.3865 20.4026C43.4195 19.3697 43.9998 17.9687 43.9998 16.5079C43.9998 15.0471 43.4195 13.6462 42.3865 12.6132C41.3536 11.5803 39.9526 11 38.4919 11V11.001Z" fill="#A84D10"/>
<path d="M18.4253 17.0433C18.4257 15.9409 18.7529 14.8634 19.3657 13.947C19.9784 13.0306 20.8491 12.3165 21.8677 11.8949C22.8862 11.4733 24.0069 11.3632 25.088 11.5785C26.1692 11.7938 27.1622 12.3249 27.9415 13.1045C28.7209 13.8841 29.2516 14.8773 29.4665 15.9586C29.6814 17.0398 29.5709 18.1604 29.1489 19.1788C28.727 20.1973 28.0126 21.0677 27.0959 21.6801C26.1793 22.2925 25.1017 22.6193 23.9994 22.6193C23.2672 22.6192 22.5423 22.4749 21.866 22.1946C21.1896 21.9143 20.5751 21.5035 20.0575 20.9857C19.5399 20.4679 19.1293 19.8533 18.8493 19.1768C18.5692 18.5004 18.4252 17.7754 18.4253 17.0433Z" fill="#F78E1E"/>
</g>
<defs>
<radialGradient id="paint0_radial_4145_21113" cx="0" cy="0" r="1" gradientUnits="userSpaceOnUse" gradientTransform="translate(23.4791 28.1603) scale(2.64067)">
<stop stop-color="#FBED1F"/>
<stop offset="0.13" stop-color="#F9CC1F"/>
<stop offset="0.26" stop-color="#F8B320"/>
<stop offset="0.39" stop-color="#F7A020"/>
<stop offset="0.53" stop-color="#F69620"/>
<stop offset="0.69" stop-color="#F69220"/>
</radialGradient>
</defs>
</svg>
