<svg xmlns="http://www.w3.org/2000/svg" viewBox="0 0 1000 1000" width="1000" height="1000" preserveAspectRatio="xMidYMid meet" style="width: 100%; height: 100%; transform: translate3d(0px, 0px, 0px); content-visibility: visible;"><defs><clipPath id="__lottie_element_2"><rect width="1000" height="1000" x="0" y="0"></rect></clipPath></defs><g clip-path="url(#__lottie_element_2)"><g transform="matrix(-0.9957599639892578,-0.0919896587729454,0.0919896587729454,-0.9957599639892578,434.4103698730469,285.4573059082031)" opacity="1" style="display: block;"><g opacity="1" transform="matrix(1,0,0,1,-47.21099853515625,-11.211000442504883)"><path fill="rgb(155,14,36)" fill-opacity="1" d=" M0,-44.78900146484375 C24.71904945373535,-44.78900146484375 44.78900146484375,-24.71904945373535 44.78900146484375,0 C44.78900146484375,24.71904945373535 24.71904945373535,44.78900146484375 0,44.78900146484375 C-24.71904945373535,44.78900146484375 -44.78900146484375,24.71904945373535 -44.78900146484375,0 C-44.78900146484375,-24.71904945373535 -24.71904945373535,-44.78900146484375 0,-44.78900146484375z"></path><path stroke-linecap="butt" stroke-linejoin="miter" fill-opacity="0" stroke-miterlimit="4" stroke="rgb(155,14,36)" stroke-opacity="1" stroke-width="0" d=" M0,-44.78900146484375 C24.71904945373535,-44.78900146484375 44.78900146484375,-24.71904945373535 44.78900146484375,0 C44.78900146484375,24.71904945373535 24.71904945373535,44.78900146484375 0,44.78900146484375 C-24.71904945373535,44.78900146484375 -44.78900146484375,24.71904945373535 -44.78900146484375,0 C-44.78900146484375,-24.71904945373535 -24.71904945373535,-44.78900146484375 0,-44.78900146484375z"></path></g></g><g transform="matrix(-0.9957599639892578,-0.0919896587729454,0.0919896587729454,-0.9957599639892578,337.5195007324219,321.9282531738281)" opacity="1" style="display: block;"><g opacity="1" transform="matrix(1,0,0,1,-47.21099853515625,-11.211000442504883)"><path fill="rgb(155,14,36)" fill-opacity="1" d=" M0,-44.78900146484375 C24.71904945373535,-44.78900146484375 44.78900146484375,-24.71904945373535 44.78900146484375,0 C44.78900146484375,24.71904945373535 24.71904945373535,44.78900146484375 0,44.78900146484375 C-24.71904945373535,44.78900146484375 -44.78900146484375,24.71904945373535 -44.78900146484375,0 C-44.78900146484375,-24.71904945373535 -24.71904945373535,-44.78900146484375 0,-44.78900146484375z"></path><path stroke-linecap="butt" stroke-linejoin="miter" fill-opacity="0" stroke-miterlimit="4" stroke="rgb(155,14,36)" stroke-opacity="1" stroke-width="0" d=" M0,-44.78900146484375 C24.71904945373535,-44.78900146484375 44.78900146484375,-24.71904945373535 44.78900146484375,0 C44.78900146484375,24.71904945373535 24.71904945373535,44.78900146484375 0,44.78900146484375 C-24.71904945373535,44.78900146484375 -44.78900146484375,24.71904945373535 -44.78900146484375,0 C-44.78900146484375,-24.71904945373535 -24.71904945373535,-44.78900146484375 0,-44.78900146484375z"></path></g></g><g transform="matrix(-0.9957599639892578,-0.0919896587729454,0.0919896587729454,-0.9957599639892578,271.84503173828125,401.9582824707031)" opacity="1" style="display: block;"><g opacity="1" transform="matrix(1,0,0,1,-47.21099853515625,-11.211000442504883)"><path fill="rgb(155,14,36)" fill-opacity="1" d=" M0,-44.78900146484375 C24.71904945373535,-44.78900146484375 44.78900146484375,-24.71904945373535 44.78900146484375,0 C44.78900146484375,24.71904945373535 24.71904945373535,44.78900146484375 0,44.78900146484375 C-24.71904945373535,44.78900146484375 -44.78900146484375,24.71904945373535 -44.78900146484375,0 C-44.78900146484375,-24.71904945373535 -24.71904945373535,-44.78900146484375 0,-44.78900146484375z"></path><path stroke-linecap="butt" stroke-linejoin="miter" fill-opacity="0" stroke-miterlimit="4" stroke="rgb(155,14,36)" stroke-opacity="1" stroke-width="0" d=" M0,-44.78900146484375 C24.71904945373535,-44.78900146484375 44.78900146484375,-24.71904945373535 44.78900146484375,0 C44.78900146484375,24.71904945373535 24.71904945373535,44.78900146484375 0,44.78900146484375 C-24.71904945373535,44.78900146484375 -44.78900146484375,24.71904945373535 -44.78900146484375,0 C-44.78900146484375,-24.71904945373535 -24.71904945373535,-44.78900146484375 0,-44.78900146484375z"></path></g></g><g transform="matrix(-0.9957599639892578,-0.0919896587729454,0.0919896587729454,-0.9957599639892578,254.9841766357422,504.10369873046875)" opacity="1" style="display: block;"><g opacity="1" transform="matrix(1,0,0,1,-47.21099853515625,-11.211000442504883)"><path fill="rgb(155,14,36)" fill-opacity="1" d=" M0,-44.78900146484375 C24.71904945373535,-44.78900146484375 44.78900146484375,-24.71904945373535 44.78900146484375,0 C44.78900146484375,24.71904945373535 24.71904945373535,44.78900146484375 0,44.78900146484375 C-24.71904945373535,44.78900146484375 -44.78900146484375,24.71904945373535 -44.78900146484375,0 C-44.78900146484375,-24.71904945373535 -24.71904945373535,-44.78900146484375 0,-44.78900146484375z"></path><path stroke-linecap="butt" stroke-linejoin="miter" fill-opacity="0" stroke-miterlimit="4" stroke="rgb(155,14,36)" stroke-opacity="1" stroke-width="0" d=" M0,-44.78900146484375 C24.71904945373535,-44.78900146484375 44.78900146484375,-24.71904945373535 44.78900146484375,0 C44.78900146484375,24.71904945373535 24.71904945373535,44.78900146484375 0,44.78900146484375 C-24.71904945373535,44.78900146484375 -44.78900146484375,24.71904945373535 -44.78900146484375,0 C-44.78900146484375,-24.71904945373535 -24.71904945373535,-44.78900146484375 0,-44.78900146484375z"></path></g></g><g transform="matrix(-0.9957599639892578,-0.0919896587729454,0.0919896587729454,-0.9957599639892578,291.4551086425781,600.9945678710938)" opacity="1" style="display: block;"><g opacity="1" transform="matrix(1,0,0,1,-47.21099853515625,-11.211000442504883)"><path fill="rgb(155,14,36)" fill-opacity="1" d=" M0,-44.78900146484375 C24.71904945373535,-44.78900146484375 44.78900146484375,-24.71904945373535 44.78900146484375,0 C44.78900146484375,24.71904945373535 24.71904945373535,44.78900146484375 0,44.78900146484375 C-24.71904945373535,44.78900146484375 -44.78900146484375,24.71904945373535 -44.78900146484375,0 C-44.78900146484375,-24.71904945373535 -24.71904945373535,-44.78900146484375 0,-44.78900146484375z"></path><path stroke-linecap="butt" stroke-linejoin="miter" fill-opacity="0" stroke-miterlimit="4" stroke="rgb(155,14,36)" stroke-opacity="1" stroke-width="0" d=" M0,-44.78900146484375 C24.71904945373535,-44.78900146484375 44.78900146484375,-24.71904945373535 44.78900146484375,0 C44.78900146484375,24.71904945373535 24.71904945373535,44.78900146484375 0,44.78900146484375 C-24.71904945373535,44.78900146484375 -44.78900146484375,24.71904945373535 -44.78900146484375,0 C-44.78900146484375,-24.71904945373535 -24.71904945373535,-44.78900146484375 0,-44.78900146484375z"></path></g></g><g transform="matrix(-0.9957599639892578,-0.0919896587729454,0.0919896587729454,-0.9957599639892578,371.48516845703125,666.6690673828125)" opacity="1" style="display: block;"><g opacity="1" transform="matrix(1,0,0,1,-47.21099853515625,-11.211000442504883)"><path fill="rgb(155,14,36)" fill-opacity="1" d=" M0,-44.78900146484375 C24.71904945373535,-44.78900146484375 44.78900146484375,-24.71904945373535 44.78900146484375,0 C44.78900146484375,24.71904945373535 24.71904945373535,44.78900146484375 0,44.78900146484375 C-24.71904945373535,44.78900146484375 -44.78900146484375,24.71904945373535 -44.78900146484375,0 C-44.78900146484375,-24.71904945373535 -24.71904945373535,-44.78900146484375 0,-44.78900146484375z"></path><path stroke-linecap="butt" stroke-linejoin="miter" fill-opacity="0" stroke-miterlimit="4" stroke="rgb(155,14,36)" stroke-opacity="1" stroke-width="0" d=" M0,-44.78900146484375 C24.71904945373535,-44.78900146484375 44.78900146484375,-24.71904945373535 44.78900146484375,0 C44.78900146484375,24.71904945373535 24.71904945373535,44.78900146484375 0,44.78900146484375 C-24.71904945373535,44.78900146484375 -44.78900146484375,24.71904945373535 -44.78900146484375,0 C-44.78900146484375,-24.71904945373535 -24.71904945373535,-44.78900146484375 0,-44.78900146484375z"></path></g></g><g transform="matrix(-0.9957599639892578,-0.0919896587729454,0.0919896587729454,-0.9957599639892578,473.63055419921875,683.5299072265625)" opacity="1" style="display: block;"><g opacity="1" transform="matrix(1,0,0,1,-47.21099853515625,-11.211000442504883)"><path fill="rgb(155,14,36)" fill-opacity="1" d=" M0,-44.78900146484375 C24.71904945373535,-44.78900146484375 44.78900146484375,-24.71904945373535 44.78900146484375,0 C44.78900146484375,24.71904945373535 24.71904945373535,44.78900146484375 0,44.78900146484375 C-24.71904945373535,44.78900146484375 -44.78900146484375,24.71904945373535 -44.78900146484375,0 C-44.78900146484375,-24.71904945373535 -24.71904945373535,-44.78900146484375 0,-44.78900146484375z"></path><path stroke-linecap="butt" stroke-linejoin="miter" fill-opacity="0" stroke-miterlimit="4" stroke="rgb(155,14,36)" stroke-opacity="1" stroke-width="0" d=" M0,-44.78900146484375 C24.71904945373535,-44.78900146484375 44.78900146484375,-24.71904945373535 44.78900146484375,0 C44.78900146484375,24.71904945373535 24.71904945373535,44.78900146484375 0,44.78900146484375 C-24.71904945373535,44.78900146484375 -44.78900146484375,24.71904945373535 -44.78900146484375,0 C-44.78900146484375,-24.71904945373535 -24.71904945373535,-44.78900146484375 0,-44.78900146484375z"></path></g></g><g transform="matrix(-0.9957599639892578,-0.0919896587729454,0.0919896587729454,-0.9957599639892578,570.5214233398438,647.0589599609375)" opacity="1" style="display: block;"><g opacity="1" transform="matrix(1,0,0,1,-47.21099853515625,-11.211000442504883)"><path fill="rgb(155,14,36)" fill-opacity="1" d=" M0,-44.78900146484375 C24.71904945373535,-44.78900146484375 44.78900146484375,-24.71904945373535 44.78900146484375,0 C44.78900146484375,24.71904945373535 24.71904945373535,44.78900146484375 0,44.78900146484375 C-24.71904945373535,44.78900146484375 -44.78900146484375,24.71904945373535 -44.78900146484375,0 C-44.78900146484375,-24.71904945373535 -24.71904945373535,-44.78900146484375 0,-44.78900146484375z"></path><path stroke-linecap="butt" stroke-linejoin="miter" fill-opacity="0" stroke-miterlimit="4" stroke="rgb(155,14,36)" stroke-opacity="1" stroke-width="0" d=" M0,-44.78900146484375 C24.71904945373535,-44.78900146484375 44.78900146484375,-24.71904945373535 44.78900146484375,0 C44.78900146484375,24.71904945373535 24.71904945373535,44.78900146484375 0,44.78900146484375 C-24.71904945373535,44.78900146484375 -44.78900146484375,24.71904945373535 -44.78900146484375,0 C-44.78900146484375,-24.71904945373535 -24.71904945373535,-44.78900146484375 0,-44.78900146484375z"></path></g></g><g transform="matrix(-0.9957599639892578,-0.0919896587729454,0.0919896587729454,-0.9957599639892578,636.1959228515625,567.0289306640625)" opacity="1" style="display: block;"><g opacity="1" transform="matrix(1,0,0,1,-47.21099853515625,-11.211000442504883)"><path fill="rgb(155,14,36)" fill-opacity="1" d=" M0,-44.78900146484375 C24.71904945373535,-44.78900146484375 44.78900146484375,-24.71904945373535 44.78900146484375,0 C44.78900146484375,24.71904945373535 24.71904945373535,44.78900146484375 0,44.78900146484375 C-24.71904945373535,44.78900146484375 -44.78900146484375,24.71904945373535 -44.78900146484375,0 C-44.78900146484375,-24.71904945373535 -24.71904945373535,-44.78900146484375 0,-44.78900146484375z"></path><path stroke-linecap="butt" stroke-linejoin="miter" fill-opacity="0" stroke-miterlimit="4" stroke="rgb(155,14,36)" stroke-opacity="1" stroke-width="0" d=" M0,-44.78900146484375 C24.71904945373535,-44.78900146484375 44.78900146484375,-24.71904945373535 44.78900146484375,0 C44.78900146484375,24.71904945373535 24.71904945373535,44.78900146484375 0,44.78900146484375 C-24.71904945373535,44.78900146484375 -44.78900146484375,24.71904945373535 -44.78900146484375,0 C-44.78900146484375,-24.71904945373535 -24.71904945373535,-44.78900146484375 0,-44.78900146484375z"></path></g></g><g transform="matrix(-0.9957599639892578,-0.0919896587729454,0.0919896587729454,-0.9957599639892578,653.0567626953125,464.8835144042969)" opacity="1" style="display: block;"><g opacity="1" transform="matrix(1,0,0,1,-47.21099853515625,-11.211000442504883)"><path fill="rgb(155,14,36)" fill-opacity="1" d=" M0,-44.78900146484375 C24.71904945373535,-44.78900146484375 44.78900146484375,-24.71904945373535 44.78900146484375,0 C44.78900146484375,24.71904945373535 24.71904945373535,44.78900146484375 0,44.78900146484375 C-24.71904945373535,44.78900146484375 -44.78900146484375,24.71904945373535 -44.78900146484375,0 C-44.78900146484375,-24.71904945373535 -24.71904945373535,-44.78900146484375 0,-44.78900146484375z"></path><path stroke-linecap="butt" stroke-linejoin="miter" fill-opacity="0" stroke-miterlimit="4" stroke="rgb(155,14,36)" stroke-opacity="1" stroke-width="0" d=" M0,-44.78900146484375 C24.71904945373535,-44.78900146484375 44.78900146484375,-24.71904945373535 44.78900146484375,0 C44.78900146484375,24.71904945373535 24.71904945373535,44.78900146484375 0,44.78900146484375 C-24.71904945373535,44.78900146484375 -44.78900146484375,24.71904945373535 -44.78900146484375,0 C-44.78900146484375,-24.71904945373535 -24.71904945373535,-44.78900146484375 0,-44.78900146484375z"></path></g></g><g transform="matrix(-0.9957599639892578,-0.0919896587729454,0.0919896587729454,-0.9957599639892578,616.5858154296875,367.9926452636719)" opacity="1" style="display: block;"><g opacity="1" transform="matrix(1,0,0,1,-47.21099853515625,-11.211000442504883)"><path fill="rgb(155,14,36)" fill-opacity="1" d=" M0,-44.78900146484375 C24.71904945373535,-44.78900146484375 44.78900146484375,-24.71904945373535 44.78900146484375,0 C44.78900146484375,24.71904945373535 24.71904945373535,44.78900146484375 0,44.78900146484375 C-24.71904945373535,44.78900146484375 -44.78900146484375,24.71904945373535 -44.78900146484375,0 C-44.78900146484375,-24.71904945373535 -24.71904945373535,-44.78900146484375 0,-44.78900146484375z"></path><path stroke-linecap="butt" stroke-linejoin="miter" fill-opacity="0" stroke-miterlimit="4" stroke="rgb(155,14,36)" stroke-opacity="1" stroke-width="0" d=" M0,-44.78900146484375 C24.71904945373535,-44.78900146484375 44.78900146484375,-24.71904945373535 44.78900146484375,0 C44.78900146484375,24.71904945373535 24.71904945373535,44.78900146484375 0,44.78900146484375 C-24.71904945373535,44.78900146484375 -44.78900146484375,24.71904945373535 -44.78900146484375,0 C-44.78900146484375,-24.71904945373535 -24.71904945373535,-44.78900146484375 0,-44.78900146484375z"></path></g></g><g transform="matrix(-0.3331170976161957,0.9428854584693909,-0.9428854584693909,-0.3331170976161957,556.2378540039062,358.6045227050781)" opacity="1" style="display: block;"><g opacity="1" transform="matrix(1,0,0,1,-47.21099853515625,-11.211000442504883)"><path fill="rgb(155,14,36)" fill-opacity="1" d=" M0,-44.78900146484375 C24.71904945373535,-44.78900146484375 44.78900146484375,-24.71904945373535 44.78900146484375,0 C44.78900146484375,24.71904945373535 24.71904945373535,44.78900146484375 0,44.78900146484375 C-24.71904945373535,44.78900146484375 -44.78900146484375,24.71904945373535 -44.78900146484375,0 C-44.78900146484375,-24.71904945373535 -24.71904945373535,-44.78900146484375 0,-44.78900146484375z"></path><path stroke-linecap="butt" stroke-linejoin="miter" fill-opacity="0" stroke-miterlimit="4" stroke="rgb(155,14,36)" stroke-opacity="1" stroke-width="0" d=" M0,-44.78900146484375 C24.71904945373535,-44.78900146484375 44.78900146484375,-24.71904945373535 44.78900146484375,0 C44.78900146484375,24.71904945373535 24.71904945373535,44.78900146484375 0,44.78900146484375 C-24.71904945373535,44.78900146484375 -44.78900146484375,24.71904945373535 -44.78900146484375,0 C-44.78900146484375,-24.71904945373535 -24.71904945373535,-44.78900146484375 0,-44.78900146484375z"></path></g></g><g transform="matrix(0,0,0,0,500,500)" opacity="1" style="display: block;"><g opacity="1" transform="matrix(1,0,0,1,-47.21099853515625,-11.211000442504883)"><path fill="rgb(155,14,36)" fill-opacity="1" d=" M0,-44.78900146484375 C24.71904945373535,-44.78900146484375 44.78900146484375,-24.71904945373535 44.78900146484375,0 C44.78900146484375,24.71904945373535 24.71904945373535,44.78900146484375 0,44.78900146484375 C-24.71904945373535,44.78900146484375 -44.78900146484375,24.71904945373535 -44.78900146484375,0 C-44.78900146484375,-24.71904945373535 -24.71904945373535,-44.78900146484375 0,-44.78900146484375z"></path><path stroke-linecap="butt" stroke-linejoin="miter" fill-opacity="0" stroke-miterlimit="4" stroke="rgb(155,14,36)" stroke-opacity="1" stroke-width="0" d=" M0,-44.78900146484375 C24.71904945373535,-44.78900146484375 44.78900146484375,-24.71904945373535 44.78900146484375,0 C44.78900146484375,24.71904945373535 24.71904945373535,44.78900146484375 0,44.78900146484375 C-24.71904945373535,44.78900146484375 -44.78900146484375,24.71904945373535 -44.78900146484375,0 C-44.78900146484375,-24.71904945373535 -24.71904945373535,-44.78900146484375 0,-44.78900146484375z"></path></g></g></g></svg>