<svg width="72" height="72" viewBox="0 0 72 72" fill="none" xmlns="http://www.w3.org/2000/svg">
<g filter="url(#filter0_d_5300_992)">
<rect x="12" y="8" width="48" height="48" rx="24" fill="#A32A29"/>
<path fill-rule="evenodd" clip-rule="evenodd" d="M28.25 21C28.25 20.0335 29.0335 19.25 30 19.25H42C42.9665 19.25 43.75 20.0335 43.75 21V42.3333C43.75 43.2998 42.9665 44.0833 42 44.0833H30C29.0335 44.0833 28.25 43.2998 28.25 42.3333V21ZM30 20.75C29.8619 20.75 29.75 20.8619 29.75 21V23.6474H42.25V21C42.25 20.8619 42.1381 20.75 42 20.75H30ZM29.75 36.5705V25.1474H42.25V36.5705H29.75ZM29.75 38.0705V42.3333C29.75 42.4714 29.8619 42.5833 30 42.5833H42C42.1381 42.5833 42.25 42.4714 42.25 42.3333V38.0705H29.75Z" fill="white"/>
</g>
<defs>
<filter id="filter0_d_5300_992" x="0" y="0" width="72" height="72" filterUnits="userSpaceOnUse" color-interpolation-filters="sRGB">
<feFlood flood-opacity="0" result="BackgroundImageFix"/>
<feColorMatrix in="SourceAlpha" type="matrix" values="0 0 0 0 0 0 0 0 0 0 0 0 0 0 0 0 0 0 127 0" result="hardAlpha"/>
<feOffset dy="4"/>
<feGaussianBlur stdDeviation="6"/>
<feColorMatrix type="matrix" values="0 0 0 0 0 0 0 0 0 0 0 0 0 0 0 0 0 0 0.16 0"/>
<feBlend mode="normal" in2="BackgroundImageFix" result="effect1_dropShadow_5300_992"/>
<feBlend mode="normal" in="SourceGraphic" in2="effect1_dropShadow_5300_992" result="shape"/>
</filter>
</defs>
</svg>
