<svg width="48" height="48" viewBox="0 0 48 48" fill="none" xmlns="http://www.w3.org/2000/svg">
<path d="M0 24C0 10.7452 10.7452 0 24 0C37.2548 0 48 10.7452 48 24C48 37.2548 37.2548 48 24 48C10.7452 48 0 37.2548 0 24Z" fill="#4B9C54"/>
<path fill-rule="evenodd" clip-rule="evenodd" d="M11.103 25.4739L10.7271 26.3154C10.7271 26.3154 11.6328 26.891 12.6719 26.8495C13.711 26.808 14.739 26.3707 14.7148 25.3607C14.6906 24.3507 13.9942 24.1923 13.1949 23.9851C12.3955 23.7779 12 23.7015 12.0018 23.3702C12.0036 23.0389 12.4073 22.8159 12.8353 22.82C13.5057 22.8264 14.1591 23.2731 14.1591 23.2731L14.535 22.4154C14.535 22.4154 13.9796 21.9619 12.8843 21.93C11.7891 21.8981 10.8221 22.5146 10.8251 23.4511C10.8281 24.3877 11.7211 24.7254 12.4921 24.8752C13.2632 25.0251 13.5331 25.2022 13.5381 25.4739C13.543 25.7456 13.1582 25.9561 12.6882 25.9432C11.8824 25.9212 11.103 25.4739 11.103 25.4739Z" fill="#FEFEFE"/>
<path fill-rule="evenodd" clip-rule="evenodd" d="M17.8103 25.0869C17.7902 25.7053 17.4477 25.9711 17.1413 25.9869C16.8348 26.0026 16.4162 25.8735 16.3906 25.1197C16.365 24.3658 16.7147 24.1492 17.0923 24.1379C17.527 24.1249 17.8305 24.4684 17.8103 25.0869ZM17.7451 23.7452L17.8103 23.6798V23.3525H18.9527V26.7558H17.8103V26.3468L17.7125 26.2977C17.7125 26.2977 17.4746 26.8117 16.7496 26.7886C16.0246 26.7654 15.1705 26.2667 15.2156 25.1197C15.2607 23.9726 15.8488 23.2132 16.7006 23.238C17.5525 23.2627 17.7451 23.7452 17.7451 23.7452Z" fill="#FEFEFE"/>
<path fill-rule="evenodd" clip-rule="evenodd" d="M24.7269 25.0869C24.7068 25.7053 24.3642 25.9711 24.0578 25.9869C23.7513 26.0026 23.3327 25.8735 23.3071 25.1197C23.2815 24.3658 23.6312 24.1492 24.0088 24.1379C24.4435 24.1249 24.747 24.4684 24.7269 25.0869ZM24.6616 23.7452L24.7269 23.6798V23.3525H25.8692V26.7558H24.7269V26.3468L24.629 26.2977C24.629 26.2977 24.3911 26.8117 23.6661 26.7886C22.9411 26.7654 22.087 26.2667 22.1321 25.1197C22.1772 23.9726 22.7653 23.2132 23.6171 23.238C24.469 23.2627 24.6616 23.7452 24.6616 23.7452Z" fill="#FEFEFE"/>
<path fill-rule="evenodd" clip-rule="evenodd" d="M21.688 23.3846V24.248H20.9852V26.7893H19.8247V23.1565C19.8247 23.1565 19.8812 21.8158 21.0996 21.8044C21.7461 21.7984 21.8188 21.9022 21.8188 21.9022V22.7656C21.8188 22.7656 21.7382 22.7311 21.4919 22.733C20.9209 22.7375 21.0015 23.4009 21.0015 23.4009L21.688 23.3846Z" fill="#FEFEFE"/>
<path fill-rule="evenodd" clip-rule="evenodd" d="M26.6172 23.3874C26.6172 23.3874 26.66 23.6583 26.6654 24.0359C26.6795 25.0056 26.6654 26.727 26.6654 26.727H27.759V25.0572C27.759 25.0572 27.7258 24.3472 28.4987 24.2953C28.7399 24.2791 29.1098 24.4412 29.1098 24.4412V23.3712C29.1098 23.3712 28.9651 23.2739 28.5309 23.3063C28.1407 23.3355 27.759 23.89 27.759 23.89H27.6786V23.3874H26.6172Z" fill="#FEFEFE"/>
<mask id="mask0_4145_21147" style="mask-type:alpha" maskUnits="userSpaceOnUse" x="3" y="19" width="42" height="11">
<path fill-rule="evenodd" clip-rule="evenodd" d="M3 29.5935H45V19H3V29.5935Z" fill="white"/>
</mask>
<g mask="url(#mask0_4145_21147)">
<path fill-rule="evenodd" clip-rule="evenodd" d="M29.5459 26.727H30.7299V23.362H29.5459V26.727Z" fill="#FEFEFE"/>
<path fill-rule="evenodd" clip-rule="evenodd" d="M29.5459 21.6795V22.6766H30.7299V21.6954L29.5459 21.6795Z" fill="#FEFEFE"/>
<path fill-rule="evenodd" clip-rule="evenodd" d="M34.223 24.3997L34.5311 23.5977C34.5311 23.5977 34.2068 23.2541 33.1852 23.2377C32.1637 23.2213 31.353 23.8759 31.353 25.0542C31.353 26.2325 32.1637 26.8069 33.2338 26.7889C34.2068 26.7725 34.5311 26.3961 34.5311 26.3961L34.223 25.6433C34.223 25.6433 33.7041 25.987 33.315 25.9543C32.9258 25.9216 32.4718 25.5616 32.5204 25.0051C32.5691 24.4487 32.8934 24.0887 33.396 24.0887C33.8987 24.0887 34.223 24.3997 34.223 24.3997Z" fill="#FEFEFE"/>
<path fill-rule="evenodd" clip-rule="evenodd" d="M38.5816 25.0755C38.5816 26.1508 37.7946 26.835 36.6959 26.8513C35.5972 26.8676 34.8547 26.2665 34.8429 25.0266C34.8309 23.7752 35.9244 23.2997 36.6138 23.2997C37.7781 23.2997 38.5816 24.0002 38.5816 25.0755ZM36.6959 24.1795C36.1549 24.1949 35.9744 24.6194 35.9744 25.0592C35.9744 25.4991 36.1635 26.0196 36.7287 26.0041C37.2905 25.9887 37.401 25.5154 37.4174 25.0918C37.4338 24.6683 37.2698 24.1632 36.6959 24.1795Z" fill="#FEFEFE"/>
<path fill-rule="evenodd" clip-rule="evenodd" d="M39.2046 23.3666L39.237 23.6941L39.2694 26.7729L40.3883 26.7566L40.3721 24.7751C40.3721 24.7751 40.3718 24.1796 40.9721 24.1527C41.4658 24.1307 41.3937 24.9552 41.3937 24.9552L41.4099 26.7893H42.545L42.5287 24.8242C42.5287 24.8242 42.5774 24.1527 43.1287 24.1527C43.5666 24.1527 43.5504 24.6113 43.5504 24.6113L43.5666 26.7811L44.7341 26.7647L44.7503 24.5458C44.7503 24.5458 44.7996 23.3267 43.5828 23.3011C42.8044 23.2847 42.4315 23.9071 42.4315 23.9071C42.4315 23.9071 42.2855 23.3339 41.4586 23.3011C40.6316 23.2684 40.3721 23.8088 40.3721 23.8088L40.2262 23.3666H39.2046Z" fill="#FEFEFE"/>
<path fill-rule="evenodd" clip-rule="evenodd" d="M30.6055 27.5371H32.2256V27.7314H31.5452V29.5935H31.3022V27.7476H30.6055V27.5371Z" fill="#FEFEFE"/>
<path fill-rule="evenodd" clip-rule="evenodd" d="M32.4126 28.0519H32.655L33.1235 29.3176H33.1558L33.6243 28.0519H33.8343L34.319 29.3501H34.3513L34.8198 28.0356H35.0298L34.4482 29.561H34.1736L33.7697 28.3927H33.6889L33.2365 29.5935H33.0589L32.4126 28.0519Z" fill="#FEFEFE"/>
<path fill-rule="evenodd" clip-rule="evenodd" d="M37.2104 28.0519H37.4528L37.9213 29.3176H37.9536L38.4221 28.0519H38.6321L39.1168 29.3501H39.1491L39.6177 28.0356H39.8277L39.2461 29.561H38.9714L38.5675 28.3927H38.4867L38.0344 29.5935H37.8567L37.2104 28.0519Z" fill="#FEFEFE"/>
<path fill-rule="evenodd" clip-rule="evenodd" d="M36.4376 28.919V29.1438C36.4376 29.1438 36.1706 29.4892 35.8665 29.4649C35.5623 29.4406 35.4808 29.274 35.4911 29.1438C35.5014 29.0135 35.5024 28.9509 35.6543 28.903C35.7584 28.87 36.3444 28.8671 36.4376 28.919ZM36.3886 28.7423L36.4376 28.6781C36.4376 28.6781 36.4585 28.545 36.405 28.4213C36.3483 28.2901 36.2272 28.2 35.9971 28.1964C35.7164 28.1921 35.4747 28.3731 35.4747 28.3731L35.3768 28.2446C35.3768 28.2446 35.6043 28.043 35.9807 28.0358C36.5882 28.0244 36.6334 28.4373 36.6334 28.4373L36.6497 29.5774H36.4703L36.3723 29.4167C36.3723 29.4167 36.1868 29.5986 35.8665 29.5934C35.5461 29.5882 35.2713 29.4536 35.279 29.1599C35.2866 28.8661 35.5078 28.7422 35.7196 28.7263C35.9313 28.7105 36.3886 28.7423 36.3886 28.7423Z" fill="#FEFEFE"/>
<path fill-rule="evenodd" clip-rule="evenodd" d="M44.7877 28.919V29.1438C44.7877 29.1438 44.5206 29.4892 44.2165 29.4649C43.9123 29.4406 43.8309 29.274 43.8412 29.1438C43.8514 29.0135 43.8525 28.9509 44.0044 28.903C44.1084 28.87 44.6944 28.8671 44.7877 28.919ZM44.7388 28.7423L44.7877 28.6781C44.7877 28.6781 44.8086 28.545 44.7551 28.4213C44.6983 28.2901 44.5772 28.2 44.3471 28.1964C44.0665 28.1921 43.8249 28.3731 43.8249 28.3731L43.727 28.2446C43.727 28.2446 43.9544 28.043 44.3308 28.0358C44.9382 28.0244 44.9835 28.4373 44.9835 28.4373L44.9998 29.5774H44.8204L44.7224 29.4167C44.7224 29.4167 44.5369 29.5986 44.2165 29.5934C43.8962 29.5882 43.6214 29.4536 43.6291 29.1599C43.6367 28.8661 43.8579 28.7422 44.0696 28.7263C44.2814 28.7105 44.7388 28.7423 44.7388 28.7423Z" fill="#FEFEFE"/>
<path fill-rule="evenodd" clip-rule="evenodd" d="M40.6236 28.2141C41.205 28.2511 41.1869 28.7658 41.1869 28.7658H40.0436C40.0436 28.7658 40.0422 28.1771 40.6236 28.2141ZM40.0602 28.8956H41.3858C41.3858 28.8956 41.4192 28.0397 40.6402 28.0356C39.8939 28.0318 39.8325 28.6379 39.8282 28.8469C39.8239 29.056 39.9456 29.581 40.6567 29.5933C41.0467 29.6002 41.2201 29.3662 41.2201 29.3662L41.1372 29.2851C41.1372 29.2851 40.9375 29.4841 40.6402 29.4635C40.3427 29.443 40.0396 29.2908 40.0602 28.8956Z" fill="#FEFEFE"/>
<path fill-rule="evenodd" clip-rule="evenodd" d="M41.7464 28.0356H42.9895V28.1516L41.9917 29.3945L42.0408 29.4609H43.0059V29.5935H41.6973V29.4774L42.7605 28.2013L42.6951 28.1682H41.7464V28.0356Z" fill="#FEFEFE"/>
<path fill-rule="evenodd" clip-rule="evenodd" d="M10.0415 21.0955L10.1063 21.2264C10.1063 21.2264 14.2128 19.1163 15.7102 20.1951C16.8587 21.0224 15.2081 22.7489 15.2081 22.7489L15.3377 22.8635C15.3377 22.8635 18.2765 20.2319 17.2327 19.3274C15.7118 18.0095 10.0415 21.0955 10.0415 21.0955Z" fill="#D92730"/>
<path fill-rule="evenodd" clip-rule="evenodd" d="M9.2712 21.6523L9.2064 21.5549C9.2064 21.5549 2.99678 25.1397 3 27.3024C3.00152 28.2913 4.36301 28.3358 6.03029 27.8868C7.87264 27.3907 9.8546 26.3931 9.8546 26.3931L9.80599 26.2471C9.80599 26.2471 6.42253 27.546 5.57653 26.2957C5.12397 25.6269 5.90972 24.3491 6.90534 23.4058C7.98569 22.3821 9.2712 21.6523 9.2712 21.6523Z" fill="#D92730"/>
</g>
</svg>
