<svg width="72" height="72" viewBox="0 0 72 72" fill="none" xmlns="http://www.w3.org/2000/svg">
<g filter="url(#filter0_d_5300_634)">
<rect x="12" y="8" width="48" height="48" rx="24" fill="#A32A29"/>
<path d="M40.2708 21.4424C39.9629 21.1654 39.4887 21.1904 39.2117 21.4984C38.9346 21.8063 38.9597 22.2805 39.2676 22.5576L43.045 25.9559H28C27.5858 25.9559 27.25 26.2917 27.25 26.7059C27.25 27.1201 27.5858 27.4559 28 27.4559H43.0449L39.2676 30.8542C38.9597 31.1312 38.9346 31.6054 39.2117 31.9134C39.4887 32.2213 39.9629 32.2464 40.2708 31.9693L45.497 27.2676C45.6522 27.1302 45.75 26.9295 45.75 26.7059C45.75 26.5131 45.6772 26.3372 45.5577 26.2044C45.5401 26.1848 45.5214 26.1661 45.5016 26.1483L40.2708 21.4424Z" fill="white"/>
<path d="M33.7883 32.2484C33.5113 31.9404 33.0371 31.9154 32.7292 32.1924L27.4984 36.8983C27.4744 36.9199 27.452 36.9428 27.4312 36.967C27.3183 37.0983 27.25 37.2691 27.25 37.4559C27.25 37.6795 27.3479 37.8803 27.5031 38.0177L32.7292 42.7193C33.0371 42.9964 33.5113 42.9713 33.7883 42.6634C34.0654 42.3554 34.0403 41.8812 33.7324 41.6042L29.9551 38.2059H45C45.4142 38.2059 45.75 37.8701 45.75 37.4559C45.75 37.0417 45.4142 36.7059 45 36.7059H29.955L33.7324 33.3076C34.0403 33.0305 34.0654 32.5563 33.7883 32.2484Z" fill="white"/>
</g>
<defs>
<filter id="filter0_d_5300_634" x="0" y="0" width="72" height="72" filterUnits="userSpaceOnUse" color-interpolation-filters="sRGB">
<feFlood flood-opacity="0" result="BackgroundImageFix"/>
<feColorMatrix in="SourceAlpha" type="matrix" values="0 0 0 0 0 0 0 0 0 0 0 0 0 0 0 0 0 0 127 0" result="hardAlpha"/>
<feOffset dy="4"/>
<feGaussianBlur stdDeviation="6"/>
<feColorMatrix type="matrix" values="0 0 0 0 0 0 0 0 0 0 0 0 0 0 0 0 0 0 0.16 0"/>
<feBlend mode="normal" in2="BackgroundImageFix" result="effect1_dropShadow_5300_634"/>
<feBlend mode="normal" in="SourceGraphic" in2="effect1_dropShadow_5300_634" result="shape"/>
</filter>
</defs>
</svg>
