<svg width="72" height="72" viewBox="0 0 72 72" fill="none" xmlns="http://www.w3.org/2000/svg">
<g filter="url(#filter0_d_5300_388)">
<rect x="12" y="8" width="48" height="48" rx="24" fill="#A32A29"/>
<path d="M25.25 25.2308C25.25 24.2151 26.0071 23.25 27.1053 23.25H45.8947C46.9929 23.25 47.75 24.2151 47.75 25.2308V31.3846C47.75 31.7988 47.4142 32.1346 47 32.1346C46.5858 32.1346 46.25 31.7988 46.25 31.3846V25.2308C46.25 24.8877 46.0168 24.75 45.8947 24.75H27.1053C26.9832 24.75 26.75 24.8877 26.75 25.2308V38.7692C26.75 39.1123 26.9832 39.25 27.1053 39.25H40.3684C40.7826 39.25 41.1184 39.5858 41.1184 40C41.1184 40.4142 40.7826 40.75 40.3684 40.75H27.1053C26.0071 40.75 25.25 39.7849 25.25 38.7692V25.2308Z" fill="white"/>
<path d="M28.5658 36.3077C28.5658 35.8935 28.9016 35.5577 29.3158 35.5577H34.8421C35.2563 35.5577 35.5921 35.8935 35.5921 36.3077C35.5921 36.7219 35.2563 37.0577 34.8421 37.0577H29.3158C28.9016 37.0577 28.5658 36.7219 28.5658 36.3077Z" fill="white"/>
<path d="M43.1831 32.0574C43.4913 31.7806 43.9655 31.8061 44.2422 32.1143L47.5559 35.8042C47.669 35.9291 47.7407 36.0922 47.7491 36.2719C47.7503 36.2972 47.7503 36.3226 47.7489 36.348C47.7426 36.4674 47.7083 36.5794 47.6526 36.6776C47.6263 36.7238 47.5948 36.7678 47.558 36.8088L44.2422 40.5011C43.9655 40.8093 43.4913 40.8348 43.1831 40.558C42.8749 40.2813 42.8494 39.8071 43.1262 39.4989L45.3185 37.0577H37.0526C36.6384 37.0577 36.3026 36.7219 36.3026 36.3077C36.3026 35.8935 36.6384 35.5577 37.0526 35.5577H45.3184L43.1262 33.1165C42.8494 32.8083 42.8749 32.3341 43.1831 32.0574Z" fill="white"/>
</g>
<defs>
<filter id="filter0_d_5300_388" x="0" y="0" width="72" height="72" filterUnits="userSpaceOnUse" color-interpolation-filters="sRGB">
<feFlood flood-opacity="0" result="BackgroundImageFix"/>
<feColorMatrix in="SourceAlpha" type="matrix" values="0 0 0 0 0 0 0 0 0 0 0 0 0 0 0 0 0 0 127 0" result="hardAlpha"/>
<feOffset dy="4"/>
<feGaussianBlur stdDeviation="6"/>
<feColorMatrix type="matrix" values="0 0 0 0 0 0 0 0 0 0 0 0 0 0 0 0 0 0 0.16 0"/>
<feBlend mode="normal" in2="BackgroundImageFix" result="effect1_dropShadow_5300_388"/>
<feBlend mode="normal" in="SourceGraphic" in2="effect1_dropShadow_5300_388" result="shape"/>
</filter>
</defs>
</svg>
