<svg width="320" height="320" viewBox="0 0 320 320" fill="none" xmlns="http://www.w3.org/2000/svg">
<path d="M263.976 112.406C211.118 -17.95 2.19523 51.4875 58.26 191.399C74.3923 241.028 135.3 254.183 181.962 249.416C240.242 238.41 283.544 169.3 263.976 112.406Z" fill="#F7F7F7"/>
<path d="M267.859 264.478C215.35 253.57 7.77967 259.373 63.4736 271.088C79.5077 275.244 140.012 276.345 186.38 275.953C244.277 275.025 287.351 269.244 267.859 264.478Z" fill="#E0E0E0"/>
<path d="M273.323 134.636C278.537 149.732 275.679 164.424 268.96 166.748C262.241 169.071 254.18 158.153 248.966 143.046C243.753 127.939 244.265 111.839 250.995 109.516C257.725 107.192 268.098 119.54 273.323 134.636Z" fill="#C96F32"/>
<path d="M229.236 172.004C229.236 171.753 226.138 172.113 225.963 171.851C224.469 169.67 222.604 167.903 221.055 165.743C219.506 163.583 218.361 161.173 216.692 159.057C213.52 154.925 210.111 150.981 206.482 147.244C199.339 139.799 191.501 133.053 183.075 127.097C181.82 126.225 180.566 125.385 179.268 124.589C178.337 123.874 177.284 123.334 176.159 122.996C174.96 122.8 172.964 122.691 172.549 124.022C168.055 126.203 164.019 129.475 160.082 132.431C155.642 135.813 151.356 139.336 147.145 143.044C138.681 150.542 130.812 158.686 123.607 167.401C121.654 169.779 119.724 172.178 117.859 174.622C115.993 177.065 113.496 179.617 112.11 182.497C112.043 182.629 112.024 182.781 112.057 182.926C112.09 183.071 112.173 183.199 112.291 183.289C112.41 183.379 112.556 183.424 112.704 183.417C112.853 183.409 112.994 183.35 113.103 183.25C113.256 183.086 113.397 182.901 113.55 182.737C118.857 187.997 124.745 192.637 131.1 196.568C137.568 200.604 144.327 204.151 151.323 207.181C152.071 207.523 152.884 207.7 153.706 207.7C154.529 207.7 155.342 207.523 156.09 207.181C158.107 206.374 160.093 205.414 162.078 204.497C166.179 202.589 170.182 200.593 174.076 198.324C177.908 196.293 181.848 194.472 185.878 192.87C190.012 191.038 196.284 190.492 200.396 188.616C209.613 184.406 215.198 180.861 224.393 176.618C225.385 176.127 229.825 172.582 229.236 172.004Z" fill="#884638"/>
<path d="M273.04 146.317C272.374 142.99 271.731 139.652 270.935 136.347C269.32 129.65 267.553 122.997 265.481 116.43C265.263 115.721 229.879 120.793 217.826 120.521C211.826 120.388 205.848 119.738 199.959 118.579C194.505 117.488 189.052 116.55 183.456 117.248C180.615 117.626 177.837 118.386 175.199 119.506C172.701 120.597 169.996 121.753 168.447 124.055C168.418 124.094 168.402 124.142 168.402 124.191C168.402 124.24 168.418 124.288 168.447 124.327L168.262 124.458C167.802 124.802 167.4 125.218 167.073 125.691C166.999 125.824 166.961 125.975 166.964 126.127C166.138 126.652 165.548 127.477 165.317 128.429C165.153 129.65 166.135 130.479 166.877 131.308C167.618 132.137 168.622 133.271 169.516 134.242C169.499 134.27 169.49 134.302 169.49 134.335C169.49 134.368 169.499 134.4 169.516 134.428C172.21 137.7 176.41 139.881 179.911 142.216C183.62 144.692 187.328 147.157 190.928 149.786C198.094 155.021 202.25 160.202 208.958 166.027C212.754 169.299 215.83 174.567 219.462 178.025C220.193 178.734 224.708 176.738 225.047 176.029C225.047 176.029 230.413 172.866 231.973 171.001C234.346 168.185 237.238 165.852 240.492 164.129C243.95 162.391 247.66 161.209 251.487 160.628C253.504 160.268 255.544 160.006 257.584 159.733C259.165 159.526 274.425 157.148 274.392 156.461C274.211 153.049 273.758 149.657 273.04 146.317Z" fill="#A96050"/>
<path d="M302.72 134.319C300.423 121.299 296.164 108.703 290.089 96.9607C271.677 102.862 253.45 108.708 252.054 109.221C251.432 109.45 259.864 114.86 263.987 135.857C267.259 152.644 267.085 162.591 266.376 166.856C266.288 167.38 276.891 166.584 282.606 165.94C284.929 165.678 294.179 164.457 304.149 163.137C305.014 153.511 304.533 143.812 302.72 134.319Z" fill="#EC752D"/>
<path d="M220.465 177.632C219.112 175.102 217.392 172.787 215.361 170.76C213.343 168.579 211.205 166.463 209.012 164.423C200.079 156.112 189.782 149.458 180.762 141.245C178.101 138.823 175.505 136.314 172.821 133.904C171.73 132.944 170.716 131.93 169.658 130.948C168.895 130.221 168.109 129.494 167.302 128.766C166.087 127.677 164.809 126.661 163.473 125.723C163.037 125.429 162.557 125.047 162.045 124.709C163.364 124.403 164.695 124.098 166.026 123.847C167.607 123.531 169.211 123.356 170.792 123.084C171.543 122.976 172.276 122.77 172.974 122.473C173.204 122.353 173.414 122.199 173.596 122.015C173.73 122.003 173.86 121.962 173.977 121.895L174.119 121.818C174.218 121.764 174.3 121.683 174.356 121.585C174.412 121.487 174.439 121.375 174.436 121.262V121.109C174.422 120.96 174.377 120.815 174.305 120.684C174.308 120.659 174.308 120.633 174.305 120.608C174.186 120.427 174.009 120.292 173.803 120.226C170.965 119.431 168.024 119.063 165.077 119.135C164.706 119.135 164.335 119.048 163.986 118.982C162.535 118.753 161.107 118.306 159.623 118.164C156.624 117.881 153.624 118.819 150.657 119.081C147.69 119.342 144.909 119.626 142.051 120.073C139.193 120.52 136.314 121.295 133.467 121.971C127.609 123.378 121.73 124.807 115.764 125.669C112.655 126.127 109.514 126.509 106.394 126.858C103.484 127.103 100.555 127.005 97.6682 126.563C94.4149 126.127 91.1912 125.494 88.0151 124.665C85.2118 123.956 56.1868 113.561 54.3653 113.049C53.7436 112.874 48.2898 129.934 47.7444 136.053C46.9372 145.182 46.1955 158.108 45.5629 158.108C45.4647 158.108 45.432 158.271 45.5629 158.293C47.5153 158.686 82.7249 168.11 86.608 169.441C94.4276 172.127 101.941 175.634 109.023 179.901C110.888 181.04 112.684 182.29 114.4 183.642C115.972 184.972 117.476 186.381 118.905 187.864C120.261 189.294 121.86 190.473 123.628 191.343C125.504 192.128 127.315 193.066 129.082 194.026C132.456 195.824 135.96 197.366 139.564 198.64C143.509 200.132 147.542 201.381 151.639 202.381C156.067 203.385 175.363 206.308 177.501 206.003C178.22 205.894 178.984 205.817 179.682 205.697L180.217 205.643C181.298 205.518 182.336 205.145 183.249 204.552C184.882 203.476 186.05 201.825 186.521 199.927C188.368 200.162 190.237 200.162 192.084 199.927C193.548 199.663 194.85 198.832 195.705 197.615C196.403 196.603 196.866 195.448 197.058 194.234C197.977 194.388 198.907 194.476 199.839 194.495C202.198 194.573 204.549 194.18 206.755 193.339C207.748 193.01 208.645 192.439 209.363 191.678C210.08 190.916 210.597 189.988 210.867 188.976C211.084 187.951 210.977 186.884 210.561 185.922C213.357 186.008 216.113 185.247 218.469 183.74C220.924 182.312 221.654 180.13 220.465 177.632Z" fill="#884638"/>
<path d="M77.4568 120.478C77.4507 120.4 77.423 120.325 77.3768 120.261C77.3306 120.198 77.2677 120.148 77.195 120.118C69.4507 116.486 41.8873 104.564 28.0129 98.4775C22.6682 106.582 12.906 128.146 17.7926 154.03C29.9654 156.702 62.7971 164.054 67.6619 165.199C67.7565 165.218 67.8546 165.213 67.9465 165.183C68.0383 165.153 68.1208 165.1 68.1858 165.028C68.2507 164.956 68.2959 164.869 68.3169 164.775C68.3379 164.68 68.3339 164.582 68.3054 164.49C68.3323 158.367 68.7696 152.252 69.6143 146.187C70.3851 140.285 71.6067 134.451 73.2683 128.735C73.98 125.893 75.3811 123.271 77.3478 121.1C77.438 121.027 77.4988 120.924 77.5189 120.809C77.5389 120.695 77.5169 120.577 77.4568 120.478Z" fill="#002147"/>
<path d="M197.843 125.069C194.34 122.861 190.591 121.067 186.673 119.725C182.594 118.187 178.591 117.543 174.315 118.634C169.956 119.897 165.676 121.42 161.499 123.193C159.488 123.823 157.556 124.679 155.74 125.746C154.071 126.913 153.209 128.833 152.075 130.458C149.13 134.69 146.621 139.369 144.058 143.819C142.705 146.143 141.32 148.444 139.989 150.778C139.367 151.869 138.756 152.96 138.157 154.051C137.688 154.912 136.859 158.741 137.753 158.883C145.17 160.094 150.929 154.683 155.576 149.677C158.074 146.983 160.593 144.223 163.833 142.478C165.851 141.387 170.77 140.449 171.196 140.296C178.656 138.246 186.346 141.104 193.851 139.642C197.068 139.02 200.93 137.286 201.988 133.894C203.111 130.349 200.646 127 197.843 125.069Z" fill="#A96050"/>
<path d="M111.882 181.014C109.079 183.567 105.992 190.831 111.336 192.423C113.422 193.009 115.644 192.871 117.641 192.031C117.641 192.031 122.669 190.253 124.589 188.355C125.233 187.722 125.854 187.079 126.476 186.424C125.785 187.284 125.162 188.196 124.611 189.151C124.338 189.555 124.087 189.958 123.836 190.373C122.889 191.955 122.086 193.62 121.437 195.347C120.411 198.095 120.215 202.153 123.487 203.484C126.76 204.814 129.966 202.109 132.377 200.146C135.222 197.831 137.939 195.362 140.514 192.751C141.968 191.253 143.394 189.715 144.79 188.137L146.382 186.337C146.376 186.366 146.376 186.396 146.382 186.424C145.285 187.609 144.282 188.879 143.383 190.22C142.017 192.118 140.761 194.092 139.62 196.132C138.452 198.205 137.396 200.339 136.456 202.524C135.998 203.615 135.562 204.705 135.169 205.796C134.693 206.8 134.461 207.903 134.493 209.014C134.711 210.923 136.522 211.697 138.234 211.643C140.161 211.47 142.038 210.934 143.765 210.061C147.427 208.364 150.705 205.936 153.396 202.927C153.799 202.48 154.159 202.011 154.541 201.553C154.029 202.644 153.538 203.789 153.069 204.913C152.27 206.484 151.767 208.188 151.585 209.941C151.531 213.148 154.858 214.62 157.563 213.519C159.007 212.85 160.246 211.807 161.151 210.497C162.23 209.086 163.217 207.606 164.107 206.069C165.149 204.337 166.026 202.511 166.725 200.615C167.161 199.473 167.493 198.294 167.718 197.092C167.814 197.028 167.884 196.931 167.914 196.819C168.459 194.31 169.888 189.947 166.605 188.715C166.064 188.525 165.49 188.447 164.918 188.486C164.346 188.525 163.788 188.681 163.278 188.944C162.474 189.389 161.792 190.026 161.293 190.798C161.703 189.066 161.703 187.262 161.293 185.53C160.754 183.931 159.689 182.562 158.272 181.647C157.453 181.205 156.541 180.962 155.611 180.937C154.68 180.912 153.757 181.107 152.916 181.505C151.393 182.196 149.934 183.017 148.553 183.959C148.674 183.65 148.772 183.333 148.847 183.01C149.078 182.016 149.195 180.999 149.196 179.978C149.232 178.333 148.747 176.718 147.811 175.364C145.826 172.583 142.532 172.201 139.685 173.902C136.815 175.795 134.202 178.05 131.908 180.611C133.889 178.585 135.76 176.455 137.514 174.23C138.414 173.057 139.193 171.796 139.838 170.467C140.35 169.376 140.929 168.089 140.47 166.911C139.456 164.38 135.922 166.114 134.275 166.791C131.6 167.875 128.998 169.132 126.487 170.554L118.634 175.44L111.882 181.014Z" fill="#A96050"/>
</svg>
