<svg width="48" height="48" viewBox="0 0 48 48" fill="none" xmlns="http://www.w3.org/2000/svg">
<path d="M0 24C0 10.7452 10.7452 0 24 0C37.2548 0 48 10.7452 48 24C48 37.2548 37.2548 48 24 48C10.7452 48 0 37.2548 0 24Z" fill="#00B3CC"/>
<path d="M13.5 21.6L13.3 23.1H11.1L10.2 30.3H8.3L9.2 23.1H7L7.1 21.6H13.5Z" fill="white"/>
<path d="M14.9001 25.2C14.6001 25.2 14.3001 25.3 14.1001 25.6C13.9001 25.8 13.7001 26.2 13.6001 26.6C14.0001 26.5 14.3001 26.5 14.5001 26.4C14.7001 26.3 14.9001 26.3 15.1001 26.2C15.2001 26.1 15.3001 26 15.4001 25.9C15.4001 25.8 15.5001 25.7 15.5001 25.6C15.5001 25.5 15.5001 25.4 15.4001 25.3C15.2001 25.3 15.1001 25.2 14.9001 25.2ZM17.1001 25.6C17.1001 25.9 17.0001 26.1 16.9001 26.4C16.8001 26.6 16.6001 26.8 16.3001 27C16.0001 27.2 15.7001 27.3 15.2001 27.5C14.7001 27.6 14.1001 27.7 13.4001 27.8C13.4001 28.2 13.5001 28.5 13.7001 28.7C13.9001 28.9 14.1001 29 14.5001 29C14.7001 29 14.8001 29 14.9001 29C15.0001 29 15.1001 28.9 15.2001 28.9C15.3001 28.9 15.4001 28.8 15.4001 28.8C15.5001 28.8 15.5001 28.7 15.6001 28.7C15.7001 28.7 15.7001 28.6 15.8001 28.6C15.9001 28.6 16.0001 28.6 16.0001 28.6C16.1001 28.6 16.1001 28.6 16.2001 28.6C16.3001 28.6 16.3001 28.7 16.3001 28.7L16.8001 29.3C16.6001 29.5 16.4001 29.7 16.2001 29.9C16.0001 30.1 15.8001 30.2 15.6001 30.3C15.4001 30.4 15.1001 30.5 14.9001 30.5C14.7001 30.5 14.4001 30.6 14.1001 30.6C13.7001 30.6 13.4001 30.5 13.1001 30.4C12.8001 30.3 12.5001 30.1 12.3001 29.9C12.1001 29.7 11.9001 29.4 11.8001 29.1C11.7001 28.8 11.6001 28.4 11.6001 28C11.6001 27.7 11.6001 27.3 11.7001 27C11.8001 26.7 11.9001 26.4 12.0001 26.1C12.1001 25.8 12.3001 25.6 12.5001 25.3C12.7001 25.1 12.9001 24.9 13.2001 24.7C13.4001 24.5 13.7001 24.4 14.0001 24.3C14.3001 24.2 14.6001 24.2 14.9001 24.2C15.2001 24.2 15.5001 24.2 15.8001 24.3C16.1001 24.4 16.3001 24.5 16.4001 24.7C16.6001 24.9 16.7001 25 16.8001 25.2C17.0001 25.2 17.1001 25.4 17.1001 25.6Z" fill="white"/>
<path d="M17.3999 30.3L18.4999 21.3H20.3999L19.2999 30.3H17.3999Z" fill="white"/>
<path d="M23.5001 21.3L22.4001 30.3H20.6001L21.7001 21.3H23.5001Z" fill="white"/>
<path d="M29.2 29C29.4 29 29.6 28.9 29.8 28.8C30 28.7 30.1 28.5 30.2 28.3C30.3 28.1 30.4 27.8 30.5 27.5C30.6 27.2 30.6 26.9 30.6 26.6C30.6 26.2 30.5 25.8 30.4 25.6C30.3 25.4 30.1 25.3 29.8 25.3C29.6 25.3 29.4 25.4 29.2 25.5C29 25.6 28.9 25.8 28.8 26C28.7 26.2 28.6 26.5 28.5 26.8C28.4 27.1 28.4 27.4 28.4 27.7C28.4 28.1 28.5 28.5 28.6 28.7C28.7 28.9 28.9 29 29.2 29ZM29 30.4C28.7 30.4 28.3 30.3 28 30.2C27.7 30.1 27.4 29.9 27.2 29.7C27 29.5 26.8 29.2 26.7 28.9C26.6 28.6 26.5 28.2 26.5 27.8C26.5 27.3 26.6 26.7 26.8 26.3C27 25.8 27.2 25.4 27.5 25.1C27.8 24.8 28.2 24.5 28.6 24.3C29 24.1 29.4 24 29.9 24C30.2 24 30.6 24.1 30.9 24.2C31.2 24.3 31.5 24.5 31.7 24.7C31.9 24.9 32.1 25.2 32.2 25.5C32.3 25.8 32.4 26.2 32.4 26.6C32.4 27.1 32.3 27.6 32.1 28.1C31.9 28.6 31.7 29 31.4 29.3C31.1 29.6 30.7 29.9 30.3 30.1C29.9 30.3 29.4 30.4 29 30.4Z" fill="white"/>
<path d="M32.7002 30.3L33.5002 24.1H34.5002C34.7002 24.1 34.8002 24.1 34.9002 24.2C35.0002 24.3 35.1002 24.4 35.1002 24.6V25C35.4002 24.6 35.6002 24.4 35.9002 24.2C36.2002 24 36.5002 23.9 36.8002 23.9C37.2002 23.9 37.4002 24 37.7002 24.2C37.9002 24.4 38.1002 24.8 38.1002 25.2C38.4002 24.7 38.7002 24.4 39.0002 24.2C39.3002 24 39.7002 23.9 40.1002 23.9C40.3002 23.9 40.5002 23.9 40.7002 24C40.9002 24.1 41.1002 24.2 41.2002 24.4C41.3002 24.6 41.4002 24.8 41.5002 25C41.6002 25.2 41.6002 25.5 41.6002 25.8C41.6002 25.9 41.6002 26 41.6002 26C41.6002 26.1 41.6002 26.2 41.6002 26.2L41.1002 30.1H39.3002L39.8002 26.2C39.8002 26.1 39.8002 26.1 39.8002 26C39.8002 25.9 39.8002 25.9 39.8002 25.8C39.8002 25.6 39.8002 25.5 39.7002 25.4C39.6002 25.3 39.5002 25.3 39.4002 25.3C39.3002 25.3 39.2002 25.3 39.0002 25.4C38.9002 25.5 38.8002 25.6 38.7002 25.7C38.6002 25.8 38.5002 26 38.4002 26.2C38.3002 26.4 38.2002 26.6 38.2002 26.8L37.8002 30.2H36.0002L36.5002 26.3C36.5002 26.2 36.5002 26.2 36.5002 26.1C36.5002 26 36.5002 26 36.5002 25.9C36.5002 25.7 36.5002 25.6 36.4002 25.5C36.3002 25.4 36.2002 25.4 36.1002 25.4C36.0002 25.4 35.9002 25.4 35.7002 25.5C35.6002 25.6 35.5002 25.7 35.4002 25.8C35.3002 25.9 35.2002 26.1 35.1002 26.3C35.0002 26.5 34.9002 26.7 34.9002 26.9L34.5002 30.3H32.7002Z" fill="white"/>
<path d="M26.8999 24.1L25.1999 26.3C25.0999 26.4 24.9999 26.5 24.8999 26.6C24.7999 26.7 24.6999 26.7 24.5999 26.8C24.6999 26.9 24.7999 26.9 24.7999 27C24.8999 27.1 24.8999 27.2 24.9999 27.3L26.1999 30.3H24.5999C24.4999 30.3 24.3999 30.3 24.2999 30.2C24.1999 30.2 24.0999 30.1 24.0999 30L22.8999 26.9L24.6999 24.5C24.7999 24.4 24.8999 24.3 24.9999 24.3C25.0999 24.3 25.1999 24.2 25.2999 24.2H26.8999V24.1Z" fill="#FBE901"/>
<path d="M26.9999 17H28.6999C28.7999 17 28.8999 17 28.9999 17.1C29.0999 17.1 29.0999 17.2 29.1999 17.3L30.0999 19.8L27.6999 23C27.5999 23.1 27.4999 23.2 27.3999 23.2C27.2999 23.2 27.1999 23.3 26.9999 23.3H25.3999L27.7999 20.3C27.8999 20.2 27.9999 20.1 28.0999 20C28.1999 19.9 28.2999 19.8 28.3999 19.8C28.2999 19.7 28.1999 19.7 28.1999 19.6C28.0999 19.5 28.0999 19.4 27.9999 19.3L26.9999 17Z" fill="#FBE901"/>
<path d="M30.1 17H31.8C31.9 17 32 17 32.1 17.1C32.2 17.1 32.2 17.2 32.3 17.3L33.2 19.8L30.8 23C30.7 23.1 30.6 23.2 30.5 23.2C30.4 23.2 30.3 23.3 30.1 23.3H28.5L30.9 20.3C31 20.2 31.1 20.1 31.2 20C31.3 19.9 31.4 19.8 31.5 19.8C31.4 19.7 31.3 19.7 31.3 19.6C31.2 19.5 31.2 19.4 31.1 19.3L30.1 17Z" fill="#FBE901"/>
</svg>
