<svg width="34" height="36" viewBox="0 0 34 36" fill="none" xmlns="http://www.w3.org/2000/svg">
<path d="M0 18.0149C0 8.40021 7.79425 0.605957 17.409 0.605957C27.0237 0.605957 34.8179 8.40021 34.8179 18.0149C34.8179 27.6296 27.0237 35.4239 17.409 35.4239C7.79425 35.4239 0 27.6296 0 18.0149Z" fill="#929497" fill-opacity="0.2"/>
<g clip-path="url(#clip0_2737_350)">
<path d="M13.709 16.7649C13.5354 16.5831 13.542 16.2952 13.7236 16.1214C13.9054 15.9477 14.1937 15.9541 14.3671 16.1359L17.4516 19.3638V11.2164C17.4516 10.9651 17.6555 10.7612 17.9067 10.7612C18.1579 10.7612 18.3618 10.9651 18.3618 11.2164V19.3638L21.4463 16.1359C21.6199 15.9546 21.9083 15.9477 22.0899 16.1214C22.2715 16.2952 22.2781 16.5831 22.1044 16.7649L17.9067 21.1574L13.709 16.7649Z" fill="#A32A29"/>
<path d="M10.6245 19.864C10.6245 19.6127 10.8284 19.4088 11.0796 19.4088C11.3309 19.4088 11.5348 19.6127 11.5348 19.864V21.9328C11.5348 23.0886 12.362 23.9602 13.4589 23.9602H22.3545C23.4514 23.9602 24.2786 23.0886 24.2786 21.9328V19.9673C24.2786 19.716 24.4825 19.5121 24.7337 19.5121C24.985 19.5121 25.1889 19.716 25.1889 19.9673V21.9328C25.1889 23.5801 23.9438 24.8705 22.3547 24.8705H13.4589C11.8695 24.8705 10.6245 23.5801 10.6245 21.9328V19.864Z" fill="#A32A29"/>
</g>
<defs>
<clipPath id="clip0_2737_350">
<rect width="23.2119" height="23.2119" fill="white" transform="translate(5.80298 6.40894)"/>
</clipPath>
</defs>
</svg>
