<svg width="32" height="32" viewBox="0 0 32 32" fill="none" xmlns="http://www.w3.org/2000/svg">
<path fill-rule="evenodd" clip-rule="evenodd" d="M24.1565 12.6786H18.0666C17.8769 12.6786 17.7229 12.526 17.7229 12.3349C17.7229 12.1451 17.8769 11.9925 18.0666 11.9925H24.1565C24.3463 11.9925 24.5002 12.1451 24.5002 12.3349C24.5002 12.526 24.3463 12.6786 24.1565 12.6786Z" fill="#A32A29"/>
<path fill-rule="evenodd" clip-rule="evenodd" d="M24.1565 14.9547H18.0666C17.8769 14.9547 17.7229 14.8007 17.7229 14.6109C17.7229 14.4198 17.8769 14.2672 18.0666 14.2672H24.1565C24.3463 14.2672 24.5002 14.4198 24.5002 14.6109C24.5002 14.8007 24.3463 14.9547 24.1565 14.9547Z" fill="#A32A29"/>
<path fill-rule="evenodd" clip-rule="evenodd" d="M24.1565 17.2307H18.0666C17.8769 17.2307 17.7229 17.0767 17.7229 16.887C17.7229 16.6959 17.8769 16.5432 18.0666 16.5432H24.1565C24.3463 16.5432 24.5002 16.6959 24.5002 16.887C24.5002 17.0767 24.3463 17.2307 24.1565 17.2307Z" fill="#A32A29"/>
<path fill-rule="evenodd" clip-rule="evenodd" d="M24.1565 19.5054H18.0666C17.8769 19.5054 17.7229 19.3528 17.7229 19.1616C17.7229 18.9719 17.8769 18.8179 18.0666 18.8179H24.1565C24.3463 18.8179 24.5002 18.9719 24.5002 19.1616C24.5002 19.3528 24.3463 19.5054 24.1565 19.5054Z" fill="#A32A29"/>
<path fill-rule="evenodd" clip-rule="evenodd" d="M24.1565 21.7813H18.0666C17.8769 21.7813 17.7229 21.6273 17.7229 21.4375C17.7229 21.2478 17.8769 21.0938 18.0666 21.0938H24.1565C24.3463 21.0938 24.5002 21.2478 24.5002 21.4375C24.5002 21.6273 24.3463 21.7813 24.1565 21.7813Z" fill="#A32A29"/>
<path fill-rule="evenodd" clip-rule="evenodd" d="M24.1565 24.056H18.0666C17.8769 24.056 17.7229 23.9033 17.7229 23.7122C17.7229 23.5224 17.8769 23.3698 18.0666 23.3698H24.1565C24.3463 23.3698 24.5002 23.5224 24.5002 23.7122C24.5002 23.9033 24.3463 24.056 24.1565 24.056Z" fill="#A32A29"/>
<path fill-rule="evenodd" clip-rule="evenodd" d="M25.6678 26.2689H16.6175C16.4278 26.2689 16.2738 26.1163 16.2738 25.9251V11.841C16.2738 11.6512 16.4278 11.4986 16.6175 11.4986C16.8086 11.4986 16.9613 11.6512 16.9613 11.841V25.5828H25.324V11.841C25.324 11.6512 25.478 11.4986 25.6678 11.4986C25.8575 11.4986 26.0115 11.6512 26.0115 11.841V25.9251C26.0115 26.1163 25.8575 26.2689 25.6678 26.2689Z" fill="#A32A29"/>
<path fill-rule="evenodd" clip-rule="evenodd" d="M16.6182 12.1845C16.4284 12.1845 16.2738 12.0321 16.2738 11.841C16.2738 11.027 15.6117 10.364 14.7963 10.364C14.6066 10.364 14.4526 10.2086 14.4526 10.0202C14.4526 9.8291 14.6066 9.67648 14.7963 9.67648C15.9898 9.67648 16.9613 10.6475 16.9613 11.841C16.9613 12.0321 16.8079 12.1845 16.6182 12.1845Z" fill="#A32A29"/>
<path fill-rule="evenodd" clip-rule="evenodd" d="M11.1531 22.015C9.95825 22.015 8.9875 21.0443 8.9875 19.8494V8.50979C8.9875 7.69441 8.32475 7.03166 7.50937 7.03166C6.694 7.03166 6.03125 7.69441 6.03125 8.50979V14.5474H8.27387C8.46225 14.5474 8.61625 14.7014 8.61625 14.8912C8.61625 15.0809 8.46225 15.2335 8.27387 15.2335H5.6875C5.49775 15.2335 5.34375 15.0809 5.34375 14.8912V8.50979C5.34375 7.31491 6.3145 6.34416 7.50937 6.34416C8.70287 6.34416 9.675 7.31491 9.675 8.50979V19.8494C9.675 20.6648 10.3377 21.3275 11.1531 21.3275C11.9685 21.3275 12.6312 20.6648 12.6312 19.8494V11.8414C12.6312 10.6465 13.6014 9.67648 14.7963 9.67648C14.9861 9.67648 15.1392 9.82979 15.1392 10.0195C15.1392 10.2093 14.9861 10.364 14.7963 10.364C13.9809 10.364 13.3187 11.0274 13.3187 11.8414V19.8494C13.3187 21.0443 12.3466 22.015 11.1531 22.015Z" fill="#A32A29"/>
<path fill-rule="evenodd" clip-rule="evenodd" d="M25.6678 12.1845C25.478 12.1845 25.324 12.0321 25.324 11.841C25.324 11.027 24.6613 10.364 23.8459 10.364H14.7963C14.6066 10.364 14.4526 10.2086 14.4526 10.0202C14.4526 9.8291 14.6066 9.67648 14.7963 9.67648H23.8459C25.0394 9.67648 26.0115 10.6475 26.0115 11.841C26.0115 12.0321 25.8575 12.1845 25.6678 12.1845Z" fill="#A32A29"/>
<path fill-rule="evenodd" clip-rule="evenodd" d="M15.3251 22.015H11.1531C10.9634 22.015 10.8096 21.861 10.8096 21.6713C10.8096 21.4815 10.9634 21.3275 11.1531 21.3275H15.3251C15.5149 21.3275 15.6689 21.4815 15.6689 21.6713C15.6689 21.861 15.5149 22.015 15.3251 22.015Z" fill="#A32A29"/>
<path fill-rule="evenodd" clip-rule="evenodd" d="M18.4397 8.85313C18.2499 8.85313 18.0959 8.69913 18.0959 8.50938C18.0959 7.694 17.4332 7.03125 16.6178 7.03125L7.50937 7.03166C7.31962 7.03166 7.16604 6.87725 7.16604 6.6875C7.16604 6.49637 7.31962 6.34416 7.50937 6.34416L16.6178 6.34375C17.8113 6.34375 18.7834 7.3145 18.7834 8.50938C18.7834 8.69913 18.6294 8.85313 18.4397 8.85313Z" fill="#A32A29"/>
<path fill-rule="evenodd" clip-rule="evenodd" d="M18.0666 11.7425C17.7401 11.7425 17.4729 12.0058 17.4729 12.3349C17.4729 12.6647 17.7395 12.9286 18.0666 12.9286H24.1565C24.4837 12.9286 24.7503 12.6647 24.7503 12.3349C24.7503 12.0058 24.483 11.7425 24.1565 11.7425H18.0666ZM17.9729 12.3349C17.9729 12.2845 18.0136 12.2425 18.0666 12.2425H24.1565C24.2095 12.2425 24.2503 12.2845 24.2503 12.3349C24.2503 12.3873 24.2088 12.4286 24.1565 12.4286H18.0666C18.0143 12.4286 17.9729 12.3873 17.9729 12.3349Z" fill="#A32A29"/>
<path fill-rule="evenodd" clip-rule="evenodd" d="M18.0666 14.0172C17.7395 14.0172 17.4729 14.2811 17.4729 14.6109C17.4729 14.9388 17.7388 15.2047 18.0666 15.2047H24.1565C24.4843 15.2047 24.7503 14.9388 24.7503 14.6109C24.7503 14.2811 24.4837 14.0172 24.1565 14.0172H18.0666ZM17.9729 14.6109C17.9729 14.5585 18.0143 14.5172 18.0666 14.5172H24.1565C24.2088 14.5172 24.2503 14.5585 24.2503 14.6109C24.2503 14.6626 24.2082 14.7047 24.1565 14.7047H18.0666C18.0149 14.7047 17.9729 14.6626 17.9729 14.6109Z" fill="#A32A29"/>
<path fill-rule="evenodd" clip-rule="evenodd" d="M17.4729 16.887C17.4729 16.5571 17.7395 16.2932 18.0666 16.2932H24.1565C24.4837 16.2932 24.7503 16.5571 24.7503 16.887C24.7503 17.2148 24.4843 17.4807 24.1565 17.4807H18.0666C17.7388 17.4807 17.4729 17.2148 17.4729 16.887ZM18.0666 16.7932C18.0143 16.7932 17.9729 16.8346 17.9729 16.887C17.9729 16.9387 18.0149 16.9807 18.0666 16.9807H24.1565C24.2082 16.9807 24.2503 16.9387 24.2503 16.887C24.2503 16.8346 24.2088 16.7932 24.1565 16.7932H18.0666Z" fill="#A32A29"/>
<path fill-rule="evenodd" clip-rule="evenodd" d="M18.0666 18.5679C17.7388 18.5679 17.4729 18.8338 17.4729 19.1616C17.4729 19.4915 17.7395 19.7554 18.0666 19.7554H24.1565C24.4837 19.7554 24.7503 19.4915 24.7503 19.1616C24.7503 18.8338 24.4843 18.5679 24.1565 18.5679H18.0666ZM17.9729 19.1616C17.9729 19.11 18.0149 19.0679 18.0666 19.0679H24.1565C24.2082 19.0679 24.2503 19.11 24.2503 19.1616C24.2503 19.214 24.2088 19.2554 24.1565 19.2554H18.0666C18.0143 19.2554 17.9729 19.214 17.9729 19.1616Z" fill="#A32A29"/>
<path fill-rule="evenodd" clip-rule="evenodd" d="M17.4729 21.4375C17.4729 21.1097 17.7388 20.8438 18.0666 20.8438H24.1565C24.4843 20.8438 24.7503 21.1097 24.7503 21.4375C24.7503 21.7654 24.4843 22.0313 24.1565 22.0313H18.0666C17.7388 22.0313 17.4729 21.7654 17.4729 21.4375ZM18.0666 21.3438C18.0149 21.3438 17.9729 21.3859 17.9729 21.4375C17.9729 21.4892 18.0149 21.5313 18.0666 21.5313H24.1565C24.2082 21.5313 24.2503 21.4892 24.2503 21.4375C24.2503 21.3859 24.2082 21.3438 24.1565 21.3438H18.0666Z" fill="#A32A29"/>
<path fill-rule="evenodd" clip-rule="evenodd" d="M18.0666 23.1198C17.7401 23.1198 17.4729 23.3831 17.4729 23.7122C17.4729 24.042 17.7395 24.3059 18.0666 24.3059H24.1565C24.4837 24.3059 24.7503 24.042 24.7503 23.7122C24.7503 23.3831 24.483 23.1198 24.1565 23.1198H18.0666ZM17.9729 23.7122C17.9729 23.6618 18.0136 23.6198 18.0666 23.6198H24.1565C24.2095 23.6198 24.2503 23.6618 24.2503 23.7122C24.2503 23.7646 24.2088 23.8059 24.1565 23.8059H18.0666C18.0143 23.8059 17.9729 23.7646 17.9729 23.7122Z" fill="#A32A29"/>
<path fill-rule="evenodd" clip-rule="evenodd" d="M7.48417 6.09429C7.49267 6.09393 7.50121 6.09375 7.50979 6.09375H16.6178C17.9493 6.09375 19.0334 7.17633 19.0334 8.50938C19.0334 8.8372 18.7675 9.10313 18.4397 9.10313C18.1118 9.10313 17.8459 8.8372 17.8459 8.50938C17.8459 7.83207 17.2951 7.28125 16.6178 7.28125H9.58883C9.80233 7.64131 9.925 8.06138 9.925 8.50979V19.8494C9.925 20.5267 10.4758 21.0775 11.1531 21.0775C11.8304 21.0775 12.3812 20.5267 12.3812 19.8494V11.8414C12.3812 10.5085 13.4639 9.42579 14.7969 9.42579C14.8066 9.42579 14.8162 9.42602 14.8257 9.42648H23.8459C25.1773 9.42648 26.2615 10.5089 26.2615 11.8407L26.2615 11.8429V25.9251C26.2615 26.255 25.9949 26.5189 25.6678 26.5189H16.6175C16.2903 26.5189 16.0238 26.255 16.0238 25.9251V11.841C16.0238 11.833 16.0239 11.8251 16.0242 11.8172C16.0116 11.1522 15.4659 10.614 14.7963 10.614C14.7885 10.614 14.7807 10.6138 14.7729 10.6135C14.1067 10.6264 13.5688 11.1733 13.5688 11.8414V19.8494C13.5688 20.2977 13.4462 20.7176 13.2328 21.0775H15.3251C15.653 21.0775 15.9189 21.3435 15.9189 21.6713C15.9189 21.9991 15.653 22.265 15.3251 22.265H11.1534C9.82045 22.265 8.7375 21.1824 8.7375 19.8494V15.2599C8.62874 15.3964 8.46108 15.4835 8.27387 15.4835H5.6875C5.36099 15.4835 5.09375 15.2203 5.09375 14.8912V8.50979C5.09375 7.18525 6.16281 6.10783 7.48417 6.09429ZM6.91604 6.68808C6.14904 6.93826 5.59375 7.66002 5.59375 8.50979V14.8912C5.59375 14.9415 5.63451 14.9835 5.6875 14.9835H8.27387C8.32483 14.9835 8.36625 14.9422 8.36625 14.8912C8.36625 14.8388 8.32353 14.7974 8.27387 14.7974H5.78125V8.50979C5.78125 7.75336 6.26885 7.10945 6.94649 6.87564C6.92679 6.81668 6.9161 6.75362 6.91604 6.68808ZM8.72401 7.28125C9.04095 7.59464 9.2375 8.02953 9.2375 8.50979V19.8494C9.2375 20.6991 9.79272 21.4209 10.5596 21.6711C10.5597 21.6055 10.5703 21.5424 10.59 21.4835C9.91248 21.2496 9.425 20.6058 9.425 19.8494V8.50979C9.425 8.04256 9.25685 7.61399 8.978 7.28125H8.72401ZM9.19539 6.78125H16.6178C17.5712 6.78125 18.3459 7.55593 18.3459 8.50938C18.3459 8.56105 18.388 8.60313 18.4397 8.60313C18.4913 8.60313 18.5334 8.56105 18.5334 8.50938C18.5334 7.45267 17.6733 6.59375 16.6178 6.59375H8.9791C9.05486 6.65199 9.12709 6.71462 9.19539 6.78125ZM8.33459 6.78125H7.50979C7.45811 6.78125 7.41604 6.73918 7.41604 6.6875C7.41604 6.63821 7.45268 6.5987 7.50058 6.59418C7.50351 6.59417 7.50644 6.59416 7.50938 6.59416C7.80458 6.59416 8.0845 6.66135 8.33459 6.78125ZM11.9792 21.5775C11.7289 21.6977 11.4487 21.765 11.1531 21.765C11.1018 21.7646 11.0596 21.7227 11.0596 21.6713C11.0596 21.6196 11.1017 21.5775 11.1534 21.5775H11.9792ZM12.6234 21.765C12.6991 21.7068 12.7713 21.6442 12.8396 21.5775H15.3251C15.3768 21.5775 15.4189 21.6196 15.4189 21.6713C15.4189 21.723 15.3768 21.765 15.3251 21.765H12.6234ZM12.3682 21.0775H12.6221C12.9007 20.7449 13.0687 20.3164 13.0687 19.8494V11.8414C13.0687 11.0865 13.5558 10.4422 14.233 10.2077C14.2133 10.1487 14.2026 10.0856 14.2026 10.0202C13.4361 10.2707 12.8812 10.992 12.8812 11.8414V19.8494C12.8812 20.3295 12.6849 20.7642 12.3682 21.0775ZM14.7966 9.92648C14.7445 9.92669 14.7033 9.96796 14.7033 10.0202C14.7033 10.0675 14.74 10.1078 14.7861 10.1133L14.7969 10.1133C14.8472 10.1133 14.8892 10.0725 14.8892 10.0195C14.8892 9.97067 14.8535 9.9322 14.8085 9.92651L14.7966 9.92648ZM16.0115 10.614C16.1982 10.7986 16.343 11.0253 16.4305 11.2786C16.4894 11.2591 16.5523 11.2486 16.6175 11.2486C16.5409 11.014 16.4207 10.7992 16.2655 10.614H16.0115ZM15.6225 10.114H15.3818C15.3867 10.0835 15.3892 10.0522 15.3892 10.0204C15.4694 10.0466 15.5473 10.0779 15.6225 10.114ZM16.4829 10.114C16.4147 10.0473 16.3424 9.98472 16.2667 9.92648H23.8459C24.6949 9.92648 25.4174 10.4821 25.6677 11.2486C25.6022 11.2486 25.5391 11.2592 25.4801 11.2788C25.2464 10.6016 24.6023 10.114 23.8459 10.114H16.4829ZM16.8763 10.614C17.0895 10.9736 17.212 11.3931 17.212 11.8407C17.212 11.8505 17.2117 11.8602 17.2113 11.8698V25.3327H25.074V11.841L25.074 11.8391C25.0732 11.1641 24.5228 10.614 23.8459 10.614H16.8763ZM25.574 12.4271V25.8327H16.7113V12.4272C16.6809 12.432 16.6498 12.4345 16.6182 12.4345C16.5861 12.4345 16.5545 12.4319 16.5238 12.427V25.9251C16.5238 25.9775 16.5652 26.0189 16.6175 26.0189H25.6678C25.7201 26.0189 25.7615 25.9775 25.7615 25.9251V12.4271C25.731 12.432 25.6996 12.4345 25.6678 12.4345C25.6359 12.4345 25.6046 12.432 25.574 12.4271ZM25.7615 11.841C25.7615 11.7906 25.7207 11.7486 25.6678 11.7486C25.6152 11.7486 25.5747 11.7899 25.574 11.8397L25.574 11.8407C25.574 11.8931 25.6154 11.9345 25.6678 11.9345C25.7198 11.9345 25.7611 11.893 25.7615 11.841ZM8.7375 14.5219V8.50979C8.7375 7.83248 8.18668 7.28166 7.50938 7.28166C6.83207 7.28166 6.28125 7.83248 6.28125 8.50979V14.2974H8.27387C8.4616 14.2974 8.62896 14.3852 8.7375 14.5219ZM16.7113 11.8524C16.7056 11.8991 16.6666 11.9345 16.6182 11.9345C16.5659 11.9345 16.5245 11.8931 16.5245 11.8407L16.5244 11.83C16.5299 11.7846 16.5684 11.7486 16.6175 11.7486C16.6712 11.7486 16.7113 11.79 16.7113 11.841V11.8524Z" fill="#A32A29"/>
</svg>
