<svg width="32" height="32" viewBox="0 0 32 32" fill="currentColor" xmlns="http://www.w3.org/2000/svg">
<path d="M15.6543 23.3005C11.7625 23.3005 8.04036 20.8824 4.58772 16.1096C4.4672 15.9433 4.46279 15.7195 4.57666 15.5485C4.76488 15.2654 9.26393 8.60889 15.7509 8.456C19.7255 8.35119 23.5211 10.7421 27.0408 15.5296C27.1625 15.695 27.1687 15.9187 27.0562 16.0906C26.8678 16.3786 22.3673 23.1454 15.8752 23.2978C15.8017 23.2995 15.7279 23.3005 15.6543 23.3005ZM5.59373 15.8171C8.84782 20.2096 12.3041 22.3964 15.8478 22.3137C21.1082 22.1928 25.1245 17.0899 26.037 15.8298C22.7822 11.5074 19.3231 9.36682 15.7788 9.44014C10.5223 9.56129 6.50983 14.5728 5.59373 15.8171Z" fill="currentColor" stroke="currentColor" stroke-width="0.5"/>
<path d="M15.8154 19.9231C13.5808 19.9231 11.7692 18.1115 11.7692 15.8769C11.7692 13.6423 13.5808 11.8308 15.8154 11.8308C18.05 11.8308 19.8615 13.6423 19.8615 15.8769C19.859 18.1105 18.0489 19.9205 15.8154 19.9231ZM15.8154 12.8154C14.1245 12.8154 12.7538 14.1861 12.7538 15.8769C12.7538 17.5678 14.1245 18.9385 15.8154 18.9385C17.5062 18.9385 18.8769 17.5678 18.8769 15.8769C18.8751 14.1868 17.5055 12.8172 15.8154 12.8154Z" fill="currentColor" stroke="currentColor" stroke-width="0.5"/>
<path d="M10.4661 25.7033L21.3032 6.93301C21.4412 6.69387 21.3593 6.38807 21.1201 6.25C20.881 6.11193 20.5752 6.19387 20.4371 6.43301L9.6001 25.2033C9.46203 25.4424 9.54397 25.7482 9.78312 25.8863C10.0223 26.0244 10.3281 25.9424 10.4661 25.7033Z" fill="currentColor" stroke="currentColor" stroke-width="0.5"/>
</svg>
