<svg xmlns="http://www.w3.org/2000/svg" width="24" height="25" fill="none" viewBox="0 0 24 25">
    <path fill="#221F1F" fill-rule="evenodd" d="M18.34 5.156l.814.813c.301.302.467.704.467 1.132 0 .427-.166.829-.469 1.13l-1.051 1.052-.003.003-.003.003-6.26 6.26c-.068.069-.158.114-.254.127l-2.845.407c-.021.003-.043.004-.064.004-.119 0-.233-.046-.318-.133-.1-.1-.147-.241-.127-.381l.407-2.846c.013-.096.057-.185.126-.254l6.26-6.26.004-.002.003-.003 1.051-1.052c.605-.604 1.658-.604 2.263 0zm-9.137 9.951l2.103-.3 5.839-5.84-1.803-1.802-5.838 5.838-.301 2.104zm9.314-7.512l-.736.737-1.803-1.803.737-.736c.265-.266.725-.266.99 0l.812.813c.133.132.205.308.205.495s-.072.362-.205.494zm.262 8.792v-3.75c0-.249-.202-.45-.45-.45s-.45.201-.45.45v3.75c0 1.407-1.144 2.55-2.55 2.55h-7.5c-1.406 0-2.55-1.143-2.55-2.55v-7.5c0-1.406 1.144-2.55 2.55-2.55h3.75c.248 0 .45-.201.45-.45 0-.248-.201-.45-.45-.45h-3.75c-1.903 0-3.45 1.548-3.45 3.45v7.5c0 1.903 1.547 3.45 3.45 3.45h7.5c1.903 0 3.45-1.547 3.45-3.45z" clip-rule="evenodd"/>
</svg>
