<svg width="32" height="32" viewBox="0 0 32 32" fill="none" xmlns="http://www.w3.org/2000/svg">
<path d="M4.20023 16.1697H15.7211C16.0731 16.1697 16.3611 15.8849 16.3611 15.5367C16.3611 15.1886 16.0731 14.9037 15.7211 14.9037H4.20023C3.8482 14.9037 3.56018 15.1886 3.56018 15.5367C3.56018 15.8849 3.8482 16.1697 4.20023 16.1697Z" fill="#A32A29"/>
<path d="M8.68055 18.3852H4.20023C3.8482 18.3852 3.56018 18.1004 3.56018 17.7522C3.56018 17.4041 3.8482 17.1192 4.20023 17.1192H8.68055C9.03258 17.1192 9.3206 17.4041 9.3206 17.7522C9.3206 18.1004 9.03258 18.3852 8.68055 18.3852Z" fill="#A32A29"/>
<path d="M10.9207 18.3852H13.1609C13.5129 18.3852 13.8009 18.1004 13.8009 17.7522C13.8009 17.4041 13.5129 17.1192 13.1609 17.1192H10.9207C10.5687 17.1192 10.2807 17.4041 10.2807 17.7522C10.2807 18.1004 10.5687 18.3852 10.9207 18.3852Z" fill="#A32A29"/>
<path fill-rule="evenodd" clip-rule="evenodd" d="M4.20023 13.9543H6.76041C7.11244 13.9543 7.40046 13.6694 7.40046 13.3213V10.7893C7.40046 10.4411 7.11244 10.1563 6.76041 10.1563H4.20023C3.8482 10.1563 3.56018 10.4411 3.56018 10.7893V13.3213C3.56018 13.6694 3.8482 13.9543 4.20023 13.9543ZM6.12037 12.6883H4.84028V11.4223H6.12037V12.6883Z" fill="#A32A29"/>
<path fill-rule="evenodd" clip-rule="evenodd" d="M25.3184 21.5492C25.3983 21.5437 25.4498 21.5153 25.4498 21.4869C27.4979 20.8539 29.162 19.4296 30.1221 17.5623C31.0822 15.6633 31.2742 13.5428 30.6021 11.5172C29.386 7.7509 25.6738 5.47212 21.7695 6.10511C21.1935 6.20006 20.6494 6.38996 20.0094 6.64316C19.0142 7.05755 18.1143 7.39659 17.3876 7.6243H3.11215C1.96007 7.6243 1 8.57379 1 9.71318V18.8283C1 19.9677 1.96007 20.9172 3.11215 20.9172H10.3615C10.3385 21.1674 10.3642 21.4246 10.4407 21.6768C10.6967 22.4997 11.4648 23.0061 12.2648 23.0061C12.2865 23.0061 12.3082 23.0057 12.3299 23.0049C12.3166 23.2404 12.3493 23.4784 12.4248 23.7024C12.6808 24.4936 13.4489 25 14.249 25C14.441 25 14.665 24.9683 14.857 24.9367L19.4333 23.4808C19.5542 23.441 19.671 23.3891 19.7818 23.3267L25.2257 21.5818C25.2583 21.5731 25.2892 21.5621 25.3184 21.5492ZM24.9952 20.3529C24.9434 20.3556 24.8918 20.3643 24.8417 20.3791L20.7792 21.6812C20.7804 21.4759 20.7471 21.2703 20.6814 21.0754C20.4193 20.3214 19.7492 19.8305 19.0146 19.7595C19.1593 19.478 19.2413 19.1612 19.2413 18.8283V12.3513C19.5397 12.294 19.8386 12.2271 20.1374 12.1502C20.3294 12.1186 20.4574 12.1502 20.5214 12.1819C20.5854 12.2135 20.5854 12.3401 20.5854 12.4034C20.5534 12.7516 20.8414 13.0681 21.1935 13.0681C21.5455 13.0997 21.8655 12.8149 21.8655 12.4667C21.8655 11.9603 21.6735 11.5172 21.3215 11.2324C20.9374 10.9159 20.3934 10.8209 19.8174 10.9792C18.3452 11.359 16.9051 11.4856 15.497 11.3906C15.145 11.3906 14.825 11.3273 14.505 10.8526C14.441 10.726 14.377 10.5994 14.377 10.4728C14.345 10.1246 14.441 9.77648 14.697 9.55493C14.953 9.30173 15.273 9.20679 15.5931 9.23844H15.6251C15.7531 9.27009 15.9131 9.27009 16.1051 9.27009C17.2892 9.20679 19.4013 8.38389 20.5534 7.8775C21.0654 7.65595 21.5455 7.4977 21.9935 7.4344C25.2577 6.89636 28.394 8.79534 29.418 11.9603C29.9621 13.6377 29.8021 15.4418 29.002 17.0243C28.202 18.6068 26.7939 19.7778 25.0977 20.3158C25.0615 20.3256 25.0273 20.3381 24.9952 20.3529ZM19.0542 22.2341L18.7718 22.3246L14.441 23.7024C14.1209 23.7973 13.7369 23.6074 13.6409 23.2909C13.5769 23.1327 13.6089 22.9744 13.6729 22.8162C13.7487 22.6913 13.8444 22.6058 13.96 22.5442L15.3727 22.0811L18.6333 21.0438C18.6973 21.0121 18.7613 21.0121 18.8253 21.0121C19.0813 21.0121 19.3373 21.202 19.4333 21.4552C19.5256 21.7594 19.3519 22.1219 19.0542 22.2341ZM12.4568 21.6768L14.8131 20.9172H11.6548C11.625 21.0266 11.6223 21.146 11.6568 21.2653C11.7208 21.4236 11.8168 21.5502 11.9768 21.6451C12.1368 21.7084 12.2968 21.7401 12.4568 21.6768ZM17.1292 19.6512H11.4159C11.3454 19.6392 11.2725 19.6396 11.2008 19.6512H3.11215C2.66412 19.6512 2.28009 19.2714 2.28009 18.8283V9.71318C2.28009 9.27009 2.66412 8.89029 3.11215 8.89029H13.5045C13.1811 9.36128 13.0452 9.94868 13.0969 10.5361C13.1289 10.8526 13.2569 11.2007 13.4489 11.4856C14.0569 12.3718 14.793 12.5617 15.401 12.5933C16.2389 12.6451 17.0957 12.631 17.9612 12.5407V18.8283C17.9612 19.2714 17.5772 19.6512 17.1292 19.6512Z" fill="#A32A29"/>
</svg>
