<svg width="24" height="24" viewBox="0 0 24 24" fill="none" xmlns="http://www.w3.org/2000/svg">
<path d="M10.8 15.375C10.8 14.7537 11.3037 14.25 11.925 14.25C12.5463 14.25 13.05 14.7537 13.05 15.375C13.05 15.9963 12.5463 16.5 11.925 16.5C11.3037 16.5 10.8 15.9963 10.8 15.375Z" fill="#E60000"/>
<path d="M12.75 12L12.75 7.5C12.75 7.08579 12.4142 6.75 12 6.75C11.5858 6.75 11.25 7.08579 11.25 7.5L11.25 12C11.25 12.4142 11.5858 12.75 12 12.75C12.4142 12.75 12.75 12.4142 12.75 12Z" fill="#E60000"/>
<path fill-rule="evenodd" clip-rule="evenodd" d="M12 3.75C7.44365 3.75 3.75 7.44365 3.75 12C3.75 16.5563 7.44365 20.25 12 20.25C16.5563 20.25 20.25 16.5563 20.25 12C20.25 7.44365 16.5564 3.75 12 3.75ZM12 4.875C8.06497 4.875 4.875 8.06497 4.875 12C4.875 15.935 8.06497 19.125 12 19.125C15.935 19.125 19.125 15.935 19.125 12C19.125 8.06497 15.935 4.875 12 4.875Z" fill="#E60000"/>
</svg>
