<svg width="18" height="12" viewBox="0 0 18 12" fill="none" xmlns="http://www.w3.org/2000/svg">
<path d="M2.44359 4.66527C2.4437 4.66515 2.44347 4.66539 2.44359 4.66527L6.59928 1.72021C6.59932 1.7202 6.59923 1.72023 6.59928 1.72021L2.44359 4.66527Z" fill="#A32A29"/>
<path fill-rule="evenodd" clip-rule="evenodd" d="M8.52645 0.354463C8.52644 0.354463 8.52645 0.354462 8.52645 0.354463L8.8085 0.154579C11.8773 0.0737656 14.7749 1.92237 17.4317 5.53612C17.5693 5.72328 17.5762 5.9762 17.4491 6.17061C17.3738 6.28556 16.4843 7.62341 14.9969 8.94881C13.5119 10.2722 11.4093 11.6022 8.91079 11.6608C8.85439 11.6621 8.7975 11.6629 8.74071 11.6629C5.73556 11.6629 2.89484 9.79453 0.288929 6.19223L0.441915 6.08381C0.441941 6.08385 0.44189 6.08378 0.441915 6.08381L0.288929 6.19223C0.152696 6.00409 0.147625 5.75101 0.276323 5.55764C0.351581 5.44442 1.24096 4.12829 2.72765 2.82413C4.21212 1.52191 6.31298 0.213482 8.8085 0.154579L8.52645 0.354463ZM1.76165 5.14841C1.76175 5.1483 1.76156 5.14852 1.76165 5.14841L2.44359 4.66527C1.98234 5.15615 1.63721 5.58766 1.42919 5.86286C3.82866 9.06004 6.34153 10.6071 8.88147 10.5478C10.795 10.5039 12.4949 9.5525 13.8111 8.47893C15.0305 7.48436 15.9046 6.39783 16.2938 5.87418C13.895 2.73031 11.3801 1.21509 8.8382 1.26758C8.05176 1.28574 7.30153 1.45447 6.59928 1.72021L7.12545 1.34732C7.12548 1.34732 7.12543 1.34733 7.12545 1.34732L6.59928 1.72021C5.59336 2.10088 4.68575 2.68063 3.91127 3.30187C3.34231 3.75826 2.84813 4.23476 2.44359 4.66527L1.76165 5.14841Z" fill="#A32A29"/>
<path d="M8.8615 8.94232C7.18553 8.94232 5.82689 7.58368 5.82689 5.90771C5.82689 4.23174 7.18553 2.87309 8.8615 2.87309C10.5375 2.87309 11.8961 4.23174 11.8961 5.90771C11.8942 7.58288 10.5367 8.9404 8.8615 8.94232ZM8.8615 3.61155C7.59337 3.61155 6.56535 4.63958 6.56535 5.90771C6.56535 7.17584 7.59337 8.20386 8.8615 8.20386C10.1296 8.20386 11.1577 7.17584 11.1577 5.90771C11.1563 4.64015 10.1291 3.61294 8.8615 3.61155Z" fill="#A32A29"/>
<path fill-rule="evenodd" clip-rule="evenodd" d="M8.8615 3.06059C7.28908 3.06059 6.01439 4.33529 6.01439 5.90771C6.01439 7.48006 7.28897 8.75471 8.86129 8.75482C10.4331 8.75302 11.7068 7.47928 11.7086 5.90749C11.7085 4.33517 10.4338 3.06059 8.8615 3.06059ZM5.63939 5.90771C5.63939 4.12818 7.08198 2.68559 8.8615 2.68559C10.641 2.68559 12.0836 4.12818 12.0836 5.90771C12.0816 7.68627 10.6403 9.12779 8.86172 9.12982C7.08219 9.12982 5.63939 7.68723 5.63939 5.90771ZM6.37785 5.90771C6.37785 4.53603 7.48982 3.42405 8.8615 3.42405C10.2324 3.42556 11.3437 4.53656 11.3452 5.9075C11.3452 7.27919 10.2332 8.39136 8.8615 8.39136C7.48982 8.39136 6.37785 7.27939 6.37785 5.90771ZM8.86138 3.79905C7.69686 3.79912 6.75285 4.74317 6.75285 5.90771C6.75285 7.07229 7.69692 8.01636 8.8615 8.01636C10.026 8.01636 10.97 7.0724 10.9702 5.90791C10.9689 4.74378 10.0255 3.80038 8.86138 3.79905Z" fill="#A32A29"/>
</svg>
