<svg xmlns="http://www.w3.org/2000/svg" width="32" height="32" fill="none" viewBox="0 0 32 32">
    <path fill="#002147" fill-rule="evenodd" d="M8.566 20.308c0-.415.336-.75.75-.75h5.526c.414 0 .75.335.75.75 0 .414-.336.75-.75.75H9.316c-.414 0-.75-.336-.75-.75zM5.25 9.23c0-1.016.757-1.981 1.855-1.981h18.79c1.098 0 1.855.965 1.855 1.98v6.155c0 .414-.336.75-.75.75s-.75-.336-.75-.75V9.23c0-.343-.233-.481-.355-.481H7.105c-.122 0-.355.138-.355.48v13.54c0 .342.233.48.355.48h13.263c.415 0 .75.336.75.75s-.335.75-.75.75H7.105c-1.098 0-1.855-.965-1.855-1.98V9.23zm18.992 6.883c-.277-.308-.75-.333-1.059-.057-.308.277-.334.751-.057 1.06l2.192 2.44h-8.265c-.415 0-.75.337-.75.75 0 .415.335.75.75.75h8.265L23.127 23.5c-.277.308-.251.782.057 1.059.308.277.782.251 1.06-.057l3.315-3.692c.037-.041.068-.085.095-.131.055-.099.09-.21.096-.33v-.076c-.008-.18-.08-.343-.193-.468l-3.314-3.69z" clip-rule="evenodd"/>
</svg>
