<svg width="48" height="48" viewBox="0 0 48 48" fill="none" xmlns="http://www.w3.org/2000/svg">
<path d="M0 24C0 10.7452 10.7452 0 24 0C37.2548 0 48 10.7452 48 24C48 37.2548 37.2548 48 24 48C10.7452 48 0 37.2548 0 24Z" fill="#929497" fill-opacity="0.2"/>
<path d="M36.8999 29.2999V27.1999C36.8999 25.5999 35.6999 24.1999 34.0999 23.8999V15.0999C34.0999 13.3999 32.6999 11.8999 30.8999 11.8999H14.0999C12.3999 11.8999 10.8999 13.2999 10.8999 15.0999V29.2999C10.8999 30.9999 12.2999 32.4999 14.0999 32.4999H29.1999V34.8999C29.1999 35.8999 29.9999 36.7999 31.0999 36.7999H36.2999C37.2999 36.7999 38.1999 35.9999 38.1999 34.8999V31.0999C37.9999 30.2999 37.5999 29.5999 36.8999 29.2999ZM31.3999 29.1999V27.2999C31.3999 26.0999 32.2999 25.0999 33.4999 25.0999C33.5999 25.0999 33.5999 25.0999 33.6999 25.0999C34.8999 25.1999 35.7999 26.0999 35.7999 27.2999V29.1999H31.3999ZM30.2999 27.2999V29.3999C29.5999 29.6999 29.1999 30.3999 29.1999 31.0999V31.3999H14.0999C12.9999 31.3999 12.0999 30.4999 12.0999 29.3999V18.3999H33.0999V23.9999C31.3999 24.2999 30.2999 25.5999 30.2999 27.2999ZM30.1999 31.0999C30.1999 30.6999 30.4999 30.3999 30.8999 30.3999H36.0999C36.4999 30.3999 36.7999 30.6999 36.7999 31.0999V34.8999C36.7999 35.2999 36.4999 35.5999 36.0999 35.5999H30.9999C30.5999 35.5999 30.2999 35.2999 30.2999 34.8999V31.0999H30.1999ZM11.9999 17.1999V15.0999C11.9999 13.9999 12.8999 13.0999 13.9999 13.0999H30.9999C32.0999 13.0999 32.9999 13.9999 32.9999 15.0999V17.1999H11.9999Z" fill="#A32A29"/>
<path d="M13.8999 13.6999C13.0999 13.6999 12.4999 14.2999 12.4999 15.0999C12.4999 15.8999 13.0999 16.4999 13.8999 16.4999C14.6999 16.4999 15.2999 15.8999 15.2999 15.0999C15.2999 14.2999 14.5999 13.7999 13.8999 13.6999ZM14.0999 15.0999C14.0999 15.1999 14.0999 15.1999 13.9999 15.2999C13.9999 15.3999 13.8999 15.3999 13.7999 15.3999C13.6999 15.3999 13.5999 15.2999 13.5999 15.1999C13.5999 15.0999 13.5999 15.0999 13.6999 14.9999C13.6999 14.9999 13.7999 14.8999 13.8999 14.8999C13.9999 14.8999 13.9999 14.8999 14.0999 14.9999C14.1999 15.0999 14.0999 14.9999 14.0999 15.0999Z" fill="#A32A29"/>
<path d="M21.1999 13.7999C20.3999 13.7999 19.7999 14.3999 19.7999 15.1999C19.7999 15.9999 20.3999 16.5999 21.1999 16.5999C21.9999 16.5999 22.5999 15.9999 22.5999 15.1999C22.5999 14.3999 21.9999 13.7999 21.1999 13.7999ZM21.4999 15.0999C21.4999 15.1999 21.3999 15.2999 21.2999 15.3999C21.1999 15.3999 21.0999 15.3999 20.9999 15.2999C20.8999 15.1999 20.9999 15.0999 20.9999 14.9999C20.9999 14.9999 21.0999 14.8999 21.1999 14.8999C21.2999 14.8999 21.4999 14.9999 21.4999 15.0999Z" fill="#A32A29"/>
<path d="M17.4999 13.7999C16.6999 13.7999 16.0999 14.3999 16.0999 15.1999C16.0999 15.9999 16.6999 16.5999 17.4999 16.5999C17.8999 16.5999 18.1999 16.4999 18.4999 16.1999C18.7999 15.8999 18.8999 15.5999 18.8999 15.1999C18.8999 14.7999 18.7999 14.4999 18.4999 14.1999C18.1999 13.8999 17.8999 13.7999 17.4999 13.7999ZM17.2999 15.1999C17.2999 15.0999 17.2999 14.9999 17.3999 14.8999C17.3999 14.8999 17.4999 14.7999 17.5999 14.7999C17.6999 14.7999 17.8999 14.8999 17.8999 15.0999C17.8999 15.1999 17.7999 15.3999 17.5999 15.3999C17.3999 15.3999 17.2999 15.2999 17.2999 15.1999Z" fill="#A32A29"/>
</svg>
