<svg width="177" height="112" viewBox="0 0 177 112" fill="none" xmlns="http://www.w3.org/2000/svg">
<rect width="177" height="112" fill="#F7F7F7"/>
<path d="M165.624 36.5853C133.565 10.8131 70.3506 15.4057 35.0753 32.8032C18.2416 41.1238 -7.1848 61.493 1.91041 83.8613C8.39263 98.2332 31.9598 108.013 56.0797 110.444C79.5966 112.821 103.566 108.985 124.872 104.176C145.977 99.4219 163.664 90.4529 171.403 77.918C179.242 65.2751 180.146 48.2557 165.624 36.5853Z" fill="#F7F7F7"/>
<path d="M95.2238 43.9335L69.2949 31.0204C71.3552 32.9655 71.6567 41.7183 71.8074 43.6633C71.9582 46.0947 81.3549 46.5809 81.9076 46.8511C82.7619 47.2293 73.1642 46.2568 73.1139 47.1753C72.8627 51.9839 72.1089 55.8741 72.1089 55.8741H86.4301L93.8671 55.9281C96.6308 55.9281 98.8418 53.1726 98.8418 49.8227C98.8418 47.1212 97.3343 44.6899 95.2238 43.9335Z" fill="#E28A40"/>
<path d="M73.1143 48.0937C73.064 48.7421 72.9635 49.4445 72.863 50.1469C72.7123 51.3896 72.5615 52.7403 72.3605 54.037C72.26 54.6854 72.1595 55.3878 72.1093 56.0361C71.9083 57.657 71.657 59.2779 71.4058 60.8448C71.3053 61.5471 71.2048 62.1955 71.1043 62.8979C70.853 64.7349 70.5515 66.5179 70.3003 68.1928C70.1998 68.8952 70.0993 69.5976 69.9485 70.2459C69.6973 71.7588 69.4963 73.1095 69.2953 74.2441C69.1445 75.0546 69.044 75.811 68.9435 76.4053C68.7425 77.702 68.5918 78.4044 68.5918 78.4044C68.5918 78.4044 65.225 81.4301 58.5418 81.6462C46.7834 82.0244 43.5674 75.5408 43.5674 75.5408C43.5674 75.5408 43.5674 75.0546 43.6176 74.2441C43.6176 73.7038 43.6679 72.9474 43.6679 72.137C43.6679 71.1104 43.7181 69.9218 43.7684 68.571C43.7684 67.9227 43.8186 67.2203 43.8186 66.5179C43.8689 65.005 43.9191 63.3842 43.9694 61.7092C44.0196 61.0609 44.0196 60.3585 44.0699 59.7101C44.1201 58.3594 44.1704 56.9546 44.2206 55.5498C44.2709 54.8475 44.2709 54.1991 44.3211 53.4967C44.3714 51.9839 44.4719 50.471 44.5221 49.0122C44.5724 48.3099 44.6226 47.6075 44.6226 46.9591C44.7231 45.3382 44.8236 43.8254 44.9241 42.3666C44.9744 41.6642 45.0246 40.9618 45.1251 40.3135C45.2759 38.8006 45.3764 37.5039 45.5774 36.3693C45.6779 35.5048 45.8286 34.8024 45.9291 34.2081C46.0799 33.5057 46.2306 33.0735 46.4316 32.8574C47.7381 31.2365 50.3511 30.7502 55.3258 29.9398C56.5821 29.7236 57.9388 29.6696 59.3458 29.7777C61.2553 29.9398 63.0141 30.1559 64.622 30.4801C68.7928 31.2905 71.9083 32.6953 73.3655 35.1266C73.4158 35.1806 73.466 35.2347 73.466 35.3427C73.667 35.7209 73.7675 36.4233 73.8178 37.3959C73.868 38.4224 73.8178 39.7732 73.7173 41.34C73.667 41.9884 73.6168 42.6908 73.5665 43.3932C73.466 44.7979 73.3153 46.4188 73.1143 48.0937Z" fill="#FBB778"/>
<path d="M73.8692 37.2878C64.0203 33.884 52.2116 35.0726 45.5786 36.2072C45.6791 35.3428 45.8299 34.6404 45.9304 34.046C52.5633 32.9654 63.6685 31.9389 73.3667 35.0186C73.417 35.0726 73.4672 35.1266 73.4672 35.2347C73.7185 35.6129 73.819 36.3153 73.8692 37.2878Z" fill="#E28A40"/>
<path d="M73.617 43.3393C65.2253 40.8539 52.9643 41.4482 44.9746 42.2587C45.0249 41.5563 45.0751 40.8539 45.1756 40.2055C53.1653 39.3951 65.1248 38.8548 73.7677 41.3402C73.7175 41.9345 73.6672 42.6369 73.617 43.3393Z" fill="#E28A40"/>
<path d="M73.1151 48.0937C73.0648 48.7421 72.9643 49.4444 72.8638 50.1468C64.1204 48.0937 52.4624 48.3638 44.5229 48.9041C44.5732 48.2018 44.6235 47.4994 44.6235 46.851C52.6634 46.2567 64.1706 46.0406 73.1151 48.0937Z" fill="#E28A40"/>
<path d="M72.4114 53.983C72.3109 54.6313 72.2104 55.3337 72.1601 55.982C64.2206 54.9555 52.6129 55.0635 44.2715 55.3877C44.3217 54.6853 44.3217 54.037 44.372 53.3346C52.7134 53.0644 64.2709 52.9564 72.4114 53.983Z" fill="#E28A40"/>
<path d="M71.4564 60.8448C71.3559 61.5471 71.2554 62.1955 71.1549 62.8979C62.5622 62.6818 51.7585 62.0874 44.02 61.6552C44.0703 61.0068 44.0703 60.3045 44.1205 59.6561C51.9092 60.0343 62.8637 60.6286 71.4564 60.8448Z" fill="#E28A40"/>
<path d="M70.3507 68.1388C70.2502 68.8412 70.1497 69.5436 69.999 70.1919C63.2153 70.7862 55.0748 70.0839 48.2408 69.1654C46.6831 68.9492 45.1756 68.7331 43.8188 68.517C43.8188 67.8686 43.8691 67.1663 43.8691 66.4639C51.4568 67.6525 62.1098 68.9492 70.3507 68.1388Z" fill="#E28A40"/>
<path d="M69.3451 74.2441C69.1944 75.0546 69.0939 75.811 68.9934 76.4053C63.7171 77.54 58.6922 77.4859 54.2199 76.8916C50.2 76.3513 46.6322 75.3247 43.6675 74.2441C43.6675 73.7038 43.7177 72.9474 43.7177 72.137C49.9487 74.4603 59.1444 76.5674 69.3451 74.2441Z" fill="#E28A40"/>
<path d="M73.5676 55.928V47.9857C73.5676 47.9857 62.6131 50.417 62.4121 55.82L73.5676 55.928Z" fill="#A96050"/>
<path d="M153.563 75.8649C153.563 75.9189 143.463 76.027 131.051 76.027C118.64 76.027 108.54 75.9729 108.54 75.8649C108.54 75.7568 118.64 75.7028 131.051 75.7028C143.463 75.7028 153.563 75.8108 153.563 75.8649Z" stroke="#A42A29" stroke-width="0.75" stroke-miterlimit="10"/>
<path d="M161.402 93.3165C169.478 93.3165 176.025 86.2773 176.025 77.5939C176.025 68.9105 169.478 61.8712 161.402 61.8712C153.327 61.8712 146.78 68.9105 146.78 77.5939C146.78 86.2773 153.327 93.3165 161.402 93.3165Z" fill="white"/>
<path d="M146.78 77.5939C146.78 77.5939 146.78 77.4859 146.78 77.3238C146.78 77.1617 146.78 76.8915 146.78 76.5674C146.78 76.4053 146.78 76.2432 146.78 76.0271C146.78 75.8109 146.83 75.5948 146.881 75.3787C146.931 74.8384 147.031 74.2981 147.182 73.7578C147.534 72.245 148.036 70.8402 148.79 69.5435C150.951 65.5993 154.569 62.8978 158.689 62.0334C159.292 61.9253 159.946 61.8172 160.549 61.8172C160.85 61.8172 161.202 61.7632 161.503 61.7632L162.458 61.8172C162.81 61.8172 163.111 61.8713 163.463 61.9253C163.815 61.9793 164.116 62.0334 164.468 62.0874C165.121 62.2495 165.825 62.4116 166.428 62.6817C167.081 62.9519 167.734 63.222 168.337 63.6002C168.639 63.7623 168.94 63.9784 169.242 64.1946C169.543 64.4107 169.845 64.6268 170.146 64.8429C170.749 65.3292 171.302 65.8154 171.805 66.3557C172.307 66.9501 172.81 67.5444 173.262 68.1927C174.166 69.5435 174.87 71.0023 175.372 72.5692C176.377 75.8109 176.377 79.3229 175.372 82.6187C174.87 84.1855 174.166 85.6443 173.262 86.9951C172.81 87.6434 172.357 88.2378 171.805 88.8321C171.252 89.3724 170.699 89.9127 170.146 90.3449C169.845 90.5611 169.543 90.8312 169.242 90.9933C168.94 91.2094 168.639 91.4255 168.337 91.5876C167.734 91.9118 167.081 92.236 166.428 92.5061C165.775 92.7763 165.121 92.9384 164.468 93.1005C164.116 93.1545 163.815 93.2085 163.463 93.2625C163.111 93.3166 162.81 93.3706 162.458 93.3706L161.503 93.4246C161.202 93.4246 160.85 93.4246 160.549 93.3706C159.946 93.3166 159.292 93.2625 158.689 93.1545C154.519 92.29 150.951 89.5885 148.79 85.6443C148.036 84.3476 147.534 82.8888 147.182 81.43C147.031 80.8897 146.931 80.3494 146.881 79.8091C146.83 79.539 146.83 79.3229 146.78 79.1608C146.73 78.9987 146.78 78.7826 146.78 78.6205C146.78 78.2963 146.78 78.0802 146.78 77.8641C146.78 77.648 146.83 77.648 146.78 77.5939C146.83 77.702 146.83 77.81 146.83 77.8641C146.83 78.0262 146.881 78.2963 146.881 78.6205C146.881 78.7826 146.881 78.9447 146.931 79.1608C146.931 79.3769 146.981 79.593 147.031 79.8091C147.082 80.3494 147.182 80.8897 147.333 81.43C147.685 82.8888 148.237 84.2936 148.941 85.5903C151.102 89.4264 154.669 92.0739 158.74 92.8843C159.343 92.9924 159.946 93.1005 160.599 93.1005C160.9 93.1005 161.202 93.1545 161.554 93.1545L162.508 93.1005C162.81 93.1005 163.162 93.0464 163.463 92.9924C163.765 92.9384 164.116 92.8843 164.418 92.8303C165.071 92.6682 165.724 92.4521 166.378 92.236C167.031 91.9658 167.684 91.6957 168.287 91.3175C168.589 91.1554 168.89 90.9393 169.192 90.7231C169.493 90.507 169.795 90.2909 170.046 90.0748C170.649 89.5885 171.202 89.1022 171.704 88.562C172.207 87.9676 172.709 87.3733 173.111 86.7249C174.016 85.4282 174.719 83.9694 175.171 82.4026C176.176 79.2148 176.176 75.7569 175.171 72.5692C174.719 71.0023 174.016 69.5435 173.111 68.2468C172.659 67.5984 172.207 67.0041 171.704 66.4098C171.202 65.8695 170.649 65.3832 170.046 64.8969C169.744 64.6808 169.493 64.4647 169.192 64.2486C168.89 64.0325 168.589 63.8704 168.287 63.6543C167.684 63.3301 167.031 63.0059 166.378 62.7357C165.724 62.4656 165.121 62.3035 164.418 62.1414C164.116 62.0874 163.765 62.0334 163.463 61.9793C163.162 61.9253 162.81 61.8713 162.508 61.8713L161.554 61.8172C161.252 61.8172 160.9 61.8172 160.599 61.8713C159.996 61.9253 159.343 61.9793 158.74 62.0874C154.619 62.8978 151.051 65.5993 148.891 69.4354C148.137 70.7321 147.584 72.1369 147.283 73.5957C147.132 74.136 147.031 74.6763 146.981 75.2166C146.931 75.4327 146.931 75.6488 146.881 75.865C146.83 76.0811 146.881 76.2432 146.83 76.4053C146.83 76.7294 146.78 76.9456 146.78 77.1617C146.78 77.3778 146.78 77.4859 146.78 77.5939Z" fill="#A42A29"/>
<path d="M161.403 70.5701L155.071 76.7835V84.6178H159.996V79.9172H163.162V84.6178H167.784V76.7835L161.403 70.5701Z" fill="#A42A29"/>
<path d="M115.625 94.7755H4.82466C3.86991 94.7755 3.06592 93.911 3.06592 92.8844V57.4409C3.06592 56.4143 3.86991 55.5499 4.82466 55.5499H115.625C116.58 55.5499 117.384 56.4143 117.384 57.4409V92.9384C117.334 93.965 116.58 94.7755 115.625 94.7755Z" fill="white"/>
<path d="M115.625 94.7753L41.0044 94.8834L22.3617 94.9374H13.0152H8.34201H6.03052H4.87478C4.47278 94.9374 4.02053 94.7753 3.66879 94.5051C3.31704 94.235 3.06579 93.8028 2.96529 93.3705C2.91504 93.1544 2.91504 92.8843 2.91504 92.7222V92.0738V89.5884V84.5637V74.5141V64.4646V59.4399V58.1972V57.5488C2.91504 57.3327 2.91504 57.1166 2.96529 56.8464C3.16629 55.9279 4.02053 55.1715 4.92503 55.1715L79.5459 55.2796L98.1886 55.3336H107.535H112.208H114.52H115.676C116.078 55.3336 116.48 55.4417 116.781 55.7118C117.083 55.982 117.334 56.3602 117.434 56.7924C117.535 57.2246 117.485 57.6569 117.485 58.0351V60.5205V65.5452V75.5947V85.6443V90.669V91.9117C117.485 92.344 117.535 92.7762 117.434 93.1544C117.133 94.181 116.379 94.7753 115.625 94.7753ZM115.625 94.7753C116.429 94.7753 117.133 94.181 117.334 93.3165C117.434 92.8843 117.384 92.506 117.384 92.0738V90.8311V85.8064V75.7568V65.7073V60.6825V58.1972C117.384 57.7649 117.434 57.3327 117.334 56.9545C117.233 56.5763 117.032 56.1981 116.731 55.982C116.128 55.4417 115.274 55.6578 114.52 55.6037H112.208H107.535H98.1886L79.5459 55.6578L4.82453 55.8739C4.17128 55.8739 3.51804 56.4142 3.36729 57.1166C3.31704 57.4408 3.31704 57.873 3.31704 58.3052V59.5479V64.5727V74.6222V84.6717V89.6965V92.1819C3.31704 92.6141 3.26679 93.0463 3.36729 93.3705C3.46779 93.7487 3.66879 94.0729 3.92003 94.289C4.17128 94.5052 4.52303 94.6132 4.87478 94.6132H6.03052H8.34201H13.0152H22.3617L41.0044 94.6672L115.625 94.7753Z" fill="#A42A29"/>
<path d="M109.043 62.0874H15.1265V67.8686H109.043V62.0874Z" fill="#EBEBEB"/>
<path d="M90.6007 73.7038C90.6007 73.8119 78.4403 73.9199 63.4156 73.9199C48.3909 73.9199 36.2305 73.8119 36.2305 73.7038C36.2305 73.5958 48.3909 73.4877 63.4156 73.4877C78.4403 73.5417 90.6007 73.5958 90.6007 73.7038Z" fill="#A42A29"/>
<path d="M90.6007 77.1077C90.6007 77.2158 78.4403 77.3239 63.4156 77.3239C48.3909 77.3239 36.2305 77.2158 36.2305 77.1077C36.2305 76.9997 48.3909 76.8916 63.4156 76.8916C78.4403 76.8916 90.6007 76.9997 90.6007 77.1077Z" fill="#A42A29"/>
<path d="M64.9729 80.4575C64.9729 80.4575 64.5709 80.5115 63.8674 80.5115C63.0634 80.5115 62.0082 80.5656 60.8022 80.5656C58.1892 80.6196 54.6215 80.6196 50.6517 80.6196C46.682 80.6196 43.1143 80.6196 40.5013 80.5656C39.2451 80.5656 38.2401 80.5115 37.4361 80.5115C36.7326 80.5115 36.3306 80.4575 36.3306 80.4575C36.3306 80.4575 36.7326 80.4035 37.4361 80.4035C38.2401 80.4035 39.2953 80.3494 40.5013 80.3494C43.1143 80.2954 46.682 80.2954 50.6517 80.2954C54.6215 80.2954 58.1892 80.2954 60.8022 80.3494C62.0584 80.3494 63.0634 80.4035 63.8674 80.4035C64.5709 80.4035 64.9729 80.4575 64.9729 80.4575Z" fill="#A42A29"/>
<path d="M90.6007 83.9154C90.6007 84.0235 78.4403 84.1315 63.4156 84.1315C48.3909 84.1315 36.2305 84.0235 36.2305 83.9154C36.2305 83.8074 48.3909 83.6993 63.4156 83.6993C78.4403 83.7533 90.6007 83.8614 90.6007 83.9154Z" fill="#A42A29"/>
<path d="M90.6007 87.3192C90.6007 87.4273 78.4403 87.5354 63.4156 87.5354C48.3909 87.5354 36.2305 87.4273 36.2305 87.3192C36.2305 87.2112 48.3909 87.1031 63.4156 87.1031C78.4403 87.1031 90.6007 87.2112 90.6007 87.3192Z" fill="#A42A29"/>
<path d="M104.118 87.9136C108.503 87.9136 112.057 84.0916 112.057 79.3769C112.057 74.6622 108.503 70.8402 104.118 70.8402C99.7328 70.8402 96.1782 74.6622 96.1782 79.3769C96.1782 84.0916 99.7328 87.9136 104.118 87.9136Z" fill="#A42A29"/>
<path d="M56.7834 32.6953C55.8789 32.8574 54.0197 34.1 53.9694 35.0726C53.8187 38.0442 59.1954 40.5296 64.0696 40.1514C68.9941 39.7191 68.9941 36.8556 68.0393 35.4508C67.1348 33.938 64.9741 31.3986 56.7834 32.6953Z" fill="#C96F32"/>
<path d="M33.9696 70.2459H15.0757V90.1288H33.9696V70.2459Z" fill="#EBEBEB"/>
<path d="M31.056 86.6168C30.1515 84.5637 29.0962 82.5105 27.7395 80.7275C27.0862 79.8631 26.1817 79.0526 25.227 78.5664C25.3275 78.5123 25.3777 78.5123 25.4782 78.4583C27.0862 77.5938 27.5385 75.2705 26.5335 73.6496C25.9807 72.7852 25.0762 72.2449 24.1717 71.9207C23.3678 71.5965 22.3628 71.5425 21.6593 72.1908C21.207 72.5691 21.006 73.2174 20.805 73.7577C20.604 74.4061 20.5035 75.0544 20.5538 75.7028C20.604 76.2431 20.8553 76.7834 21.2573 77.1616C21.2573 77.1616 21.3075 77.1616 21.3075 77.2156C21.609 77.7019 22.011 78.1341 22.4633 78.4583C21.4583 78.9446 20.604 79.809 20.0513 80.7275C18.795 82.6726 18.594 85.158 18.3428 87.4813C18.3428 87.6434 18.4935 87.8054 18.6443 87.8054C22.7145 87.8054 26.7345 87.4813 30.7545 87.049C31.0057 86.995 31.1062 86.8329 31.056 86.6168Z" fill="#A42A29"/>
<path d="M67.1345 26.644L65.3757 37.666C65.3757 37.666 62.612 39.395 56.1298 35.5048C56.1298 35.5048 58.7428 26.9681 55.4263 21.4031C55.4263 21.4031 56.18 21.4031 57.3358 21.4571C57.3358 21.4031 58.994 27.7246 67.1345 26.644Z" fill="#884638"/>
<path d="M74.8727 12.3801C74.8727 12.3801 78.2897 10.489 75.8274 9.08426C75.8274 9.08426 77.5359 6.22068 76.3802 5.41024C75.2244 4.59979 73.6667 5.57233 73.2145 4.05949C72.7622 2.54666 71.6567 0.0612943 68.5412 1.57413C65.4257 3.08696 64.5715 -0.695122 63.2148 0.115324C61.8078 0.979799 62.2098 2.92487 60.25 2.76278C58.2903 2.60069 56.431 2.70875 56.431 4.81591C56.4813 6.9771 54.3206 6.65292 54.0191 7.84157C53.6673 9.08426 54.5216 9.62455 54.3708 10.7051C54.2201 11.7857 52.7628 11.9478 52.9638 13.6228C53.1648 15.3517 54.6221 15.4598 54.3206 16.5404C53.9688 17.675 52.5618 19.9983 53.8181 20.6466C55.1246 21.295 55.1246 23.9965 56.7828 23.9965C58.3405 24.1045 74.8727 12.3801 74.8727 12.3801Z" fill="#0E3944"/>
<path d="M56.1305 17.459C53.819 27.6166 66.5322 35.1267 70.0497 30.8043C71.1552 29.3995 72.8134 25.2393 73.7179 22.3216C73.9189 21.6733 74.1199 20.9709 74.2706 20.3225C75.3761 15.676 75.4766 10.8673 73.2154 9.30049C65.2257 3.73542 58.9947 4.97811 56.1305 17.459Z" fill="#A96050"/>
<path d="M58.843 18.2153C58.843 18.2153 59.3455 14.4332 61.858 12.7583C64.3705 11.0834 63.1645 7.51744 63.1645 7.51744C63.1645 7.51744 71.8577 7.89565 74.8727 12.3801C74.8727 12.3801 78.6917 7.73356 71.1542 3.78939C63.6168 -0.154778 49.3458 3.6273 56.7326 24.1046L56.1798 17.4589L58.843 18.2153Z" fill="#0E3944"/>
<path d="M58.6428 17.729C58.6428 17.729 57.2358 14.8654 55.1756 15.946C53.1153 16.9725 55.1756 22.1054 57.0851 22.3755C59.0448 22.6457 58.6428 17.729 58.6428 17.729Z" fill="#A96050"/>
<path d="M43.5169 72.6771C44.7732 74.4601 39.5975 80.2413 36.5322 77.2697C36.5322 77.2697 40.0497 67.8685 43.5169 72.6771Z" fill="#C96F32"/>
<path d="M39.6468 79.6471C39.8981 80.4575 41.7573 86.0766 42.511 86.8871C42.5613 86.9411 42.5613 86.9411 42.6115 86.9951C43.4155 87.6975 44.8728 87.9677 45.526 88.3999C46.1793 88.8322 47.8375 88.4539 48.6415 88.3459C49.2948 88.2378 51.4052 91.5336 51.4052 91.5336C51.4052 91.5336 52.5107 90.5611 52.1087 89.5886C51.6565 88.3999 49.6968 86.671 49.6968 86.671L47.9883 84.4017C47.9883 84.4017 46.8828 80.6737 47.4858 80.3495C48.0888 80.0253 48.541 81.5381 49.3953 82.5107C49.948 83.159 50.7018 82.5647 50.7018 82.5647L49.7973 80.4575C49.7973 80.4575 48.2395 77.594 47.6365 77.2158C47.0335 76.8375 44.32 75.865 44.32 75.865L40.6016 71.1644L35.4761 74.4602C35.4761 74.4062 39.3956 78.8366 39.6468 79.6471Z" fill="#A96050"/>
<path d="M42.6113 86.9412C43.4153 87.6436 44.8726 87.9137 45.5258 88.346C46.1791 88.7782 46.3801 88.5081 47.1841 88.454C47.9881 88.346 48.9428 88.1839 48.9428 88.1839C48.2393 88.0218 47.0333 86.2388 46.7318 86.2388C46.4303 86.2388 46.4806 86.617 46.0283 86.8872C45.6263 87.1033 45.0233 86.3469 44.6716 86.7251C44.3198 87.1033 43.9681 87.3734 43.3651 86.9952C43.1138 86.7251 42.8626 86.8331 42.6113 86.9412Z" fill="#884638"/>
<path d="M49.2454 31.0743C51.1046 35.829 47.6374 45.8785 44.8736 48.688L31.5574 55.6579C31.5574 55.6579 30.8037 57.5489 30.1002 57.0626L43.3661 72.4071C43.3661 72.4071 39.6477 71.9748 36.5824 77.1617C36.5824 77.1617 17.99 61.9253 17.6885 54.4692C17.588 52.308 19.6985 49.3904 21.8592 48.2018C34.8237 38.0982 49.2454 31.0743 49.2454 31.0743Z" fill="#E28A40"/>
<path d="M174.719 106.764C174.719 109.519 132.409 112.221 80.5514 111.734C47.688 111.41 0.000976562 109.951 0.000976562 107.196C0.000976562 104.44 38.6933 100.82 73.8682 100.82C109.043 100.82 174.719 104.008 174.719 106.764Z" fill="#E0E0E0"/>
</svg>
