<svg xmlns="http://www.w3.org/2000/svg" width="32" height="32" fill="none" viewBox="0 0 32 32">
    <path fill="#929497" fill-rule="evenodd" d="M6.16 5.164c-.43 0-.833.146-1.116.434-.283.287-.426.69-.426 1.108v11.818c0 .417.143.816.426 1.1.283.284.684.432 1.107.442h1.036v3.597c.001.198.13.39.312.468.183.078.41.038.555-.1l4.214-3.965h10.33c.43 0 .833-.155 1.116-.442.283-.287.425-.683.425-1.1V6.706c0-.417-.134-.821-.417-1.108-.283-.288-.695-.434-1.124-.434H6.16zm0 1.028h16.438c.211 0 .315.057.385.128.071.072.129.183.129.386v11.818c0 .203-.058.314-.129.386-.07.071-.174.128-.385.128H12.067c-.13 0-.258.049-.353.136l-3.5 3.292v-2.914c0-.27-.245-.514-.514-.514H6.16c-.21-.007-.325-.067-.394-.137-.07-.07-.12-.174-.12-.377V6.706c0-.203.057-.314.128-.386.07-.071.174-.128.385-.128zm20.034 15.415V9.524c-.001-.252.208-.487.458-.514.287-.032.571.225.57.514v12.083c0 .416-.143.817-.426 1.1-.282.283-.68.426-1.1.442h-1.3v3.597c-.001.198-.13.39-.312.469-.183.077-.41.037-.555-.1l-4.214-3.966h-6.477c-.272.003-.521-.243-.521-.514 0-.272.25-.518.52-.514h6.679c.13-.001.258.049.353.137l3.5 3.291v-2.914c0-.27.244-.514.513-.514h1.782c.224-.008.34-.074.41-.144.07-.07.12-.167.12-.37z" clip-rule="evenodd"/>
    <path fill="#929497" d="M5.044 5.598l-.179-.176.179.176zM6.15 20.066l-.005.25h.005v-.25zm1.036 0h.25v-.25h-.25v.25zm0 3.597h-.25v.001l.25-.002zm.312.468l-.098.23.098-.23zm.555-.1l-.172-.181.172.182zm4.214-3.965v-.25h-.1l-.072.068.172.182zM23.722 5.598l.178-.176-.178.176zm-1.124-.434v.25-.25zm0 1.028v.25-.25zm.385.128l-.178.176.178-.176zm0 12.59l-.178-.176.178.175zm-11.27.264l-.169-.183-.002.001.172.182zm-3.499 3.292h-.25v.579l.421-.397-.17-.182zm0-2.914h.25-.25zm-.514-.514v-.25.25zm-1.54 0l-.009.25h.008v-.25zm-.394-.137l-.177.177.177-.177zm.008-12.58l-.178-.176.178.175zm20.42 3.203h.25v-.002l-.25.002zm0 12.083h-.25.25zm.458-12.597l-.028-.249.028.249zm.57.514l-.25-.002v.002h.25zm0 12.083h-.25.25zm-.426 1.1l-.177-.177.177.177zm-1.1.442v.25h.01l-.01-.25zm-1.3 0v-.25h-.25v.25h.25zm0 3.597l.25.002v-.002h-.25zm-.312.469l-.098-.23.098.23zm-.555-.1l.172-.182-.172.182zm-4.214-3.966l.171-.182-.072-.068h-.099v.25zm-6.477 0v-.25h-.004l.004.25zm0-1.028l-.004.25h.004v-.25zm6.678 0v.25h.002l-.002-.25zm.353.137l.171-.183-.001-.001-.17.183zm3.5 3.291l-.172.182.422.397v-.579h-.25zm0-2.914h-.25.25zm.513-.514v-.25.25zm1.782 0v.25h.01l-.01-.25zm.41-.144l-.177-.177.177.177zM5.222 5.773c.228-.232.563-.359.937-.359v-.5c-.484 0-.956.165-1.294.508l.357.351zm-.354.933c0-.363.124-.7.354-.933l-.357-.35c-.336.34-.497.811-.497 1.283h.5zm0 11.818V6.706h-.5v11.818h.5zm.353.924c-.23-.23-.353-.562-.353-.924h-.5c0 .472.162.938.498 1.276l.355-.352zm.936.368c-.37-.009-.707-.138-.936-.368l-.355.352c.337.338.805.505 1.28.516l.011-.5zm1.03 0H6.15v.5h1.036v-.5zm.25 3.847v-3.597h-.5v3.597h.5zm.16.238c-.091-.038-.16-.141-.16-.24l-.5.003c.002.299.19.58.464.697l.196-.46zm.285-.05c-.072.068-.194.09-.285.05l-.196.46c.275.117.608.058.824-.148l-.343-.363zm4.214-3.967L7.882 23.85l.343.364 4.214-3.966-.343-.364zm10.502-.068h-10.33v.5h10.33v-.5zm.938-.367c-.23.234-.567.367-.938.367v.5c.488 0 .958-.176 1.294-.517l-.356-.35zm.353-.925c0 .361-.123.69-.353.925l.356.35c.335-.34.497-.802.497-1.275h-.5zm0-11.818v11.818h.5V6.706h-.5zm-.345-.933c.227.231.345.567.345.933h.5c0-.468-.15-.94-.489-1.284l-.356.351zm-.946-.359c.376 0 .718.128.946.36l.356-.352c-.339-.344-.819-.508-1.302-.508v.5zm-16.439 0H22.6v-.5H6.158v.5zm16.44.528H6.158v.5H22.6v-.5zm.563.203c-.126-.128-.299-.203-.564-.203v.5c.084 0 .13.011.157.02.023.01.037.02.05.034l.357-.351zm.2.56c0-.257-.077-.434-.2-.56l-.357.35c.013.013.025.03.035.057.01.028.022.076.022.154h.5zm0 11.82V6.704h-.5v11.82h.5zm-.2.56c.123-.126.2-.304.2-.56h-.5c0 .077-.011.125-.022.153-.01.027-.022.043-.035.056l.357.35zm-.564.203c.265 0 .438-.075.564-.203l-.357-.351c-.013.014-.027.024-.05.033-.026.01-.073.02-.157.02v.5zm-10.531 0h10.531v-.5H12.067v.5zm-.184.07c.048-.044.115-.07.184-.07v-.5c-.19 0-.38.07-.523.203l.34.367zm-3.498 3.29l3.5-3.291-.342-.365-3.5 3.292.342.364zm-.42-3.096v2.914h.5v-2.914h-.5zm-.265-.264c.131 0 .264.133.264.264h.5c0-.407-.356-.764-.764-.764v.5zm-1.54 0H7.7v-.5H6.16v.5zm-.571-.21c.124.125.304.201.562.21l.017-.5c-.162-.005-.21-.048-.225-.063l-.354.353zm-.193-.554c0 .249.063.423.193.554l.354-.353c-.01-.01-.02-.023-.028-.046-.01-.026-.02-.073-.02-.155h-.5zm0-11.818v11.818h.5V6.706h-.5zm.2-.561c-.124.126-.2.303-.2.56h.5c0-.077.01-.125.021-.153.01-.027.023-.044.035-.056l-.356-.351zm.563-.203c-.265 0-.437.075-.563.203l.356.35c.013-.013.027-.023.05-.032.027-.01.074-.021.157-.021v-.5zm19.785 3.582v12.083h.5V9.524h-.5zm.68-.763c-.377.042-.682.385-.68.764l.5-.003c0-.123.113-.25.235-.264l-.055-.497zm.848.764c0-.227-.11-.428-.26-.564-.15-.136-.362-.224-.588-.2l.055.497c.06-.006.135.017.198.074.064.057.095.129.095.19l.5.003zm0 12.082V9.524h-.5v12.083h.5zm-.499 1.277c.337-.337.498-.806.498-1.277h-.5c0 .361-.123.695-.352.923l.354.354zm-1.267.514c.468-.017.93-.177 1.267-.514l-.354-.354c-.228.23-.56.355-.932.369l.019.5zm-.026 0h.016v-.5h-.016v.5zm-1.284 0h1.284v-.5h-1.284v.5zm.25 3.348v-3.597h-.5v3.597h.5zm-.464.699c.274-.117.462-.4.464-.698l-.5-.003c0 .099-.069.202-.16.24l.196.46zm-.825-.148c.217.205.55.264.825.148l-.196-.46c-.092.038-.213.017-.285-.052l-.344.364zm-4.213-3.966l4.214 3.966.343-.364-4.215-3.966-.342.364zm-6.306.068h6.477v-.5h-6.477v.5zm-.771-.764c0 .41.363.77.774.764l-.007-.5c-.132.002-.268-.132-.268-.264h-.5zm.774-.764c-.41-.006-.774.353-.774.764h.5c0-.132.135-.266.267-.264l.007-.5zm6.675 0h-6.678v.5h6.678v-.5zm.523.203c-.142-.131-.332-.205-.525-.203l.004.5c.066 0 .133.026.181.07l.34-.367zm3.501 3.293l-3.5-3.292-.342.365 3.5 3.291.342-.364zm-.421-2.732v2.914h.5v-2.914h-.5zm.763-.764c-.407 0-.763.357-.763.764h.5c0-.131.133-.264.263-.264v-.5zm1.782 0h-1.782v.5h1.782v-.5zm.233-.071c-.013.012-.031.027-.064.04-.034.014-.09.028-.178.031l.018.5c.276-.01.455-.095.578-.218l-.354-.353zm.047-.193c0 .082-.01.126-.018.149-.007.019-.016.03-.03.044l.355.353c.056-.057.108-.128.144-.225.034-.094.05-.2.05-.32h-.5z"/>
</svg>
