<svg width="32" height="32" viewBox="0 0 32 32" fill="none" xmlns="http://www.w3.org/2000/svg">
<path d="M13.4002 13C13.4002 11.564 14.5643 10.4 16.0002 10.4C17.4361 10.4 18.6002 11.564 18.6002 13C18.6002 13.8236 18.1563 14.5331 17.3665 15.1419C17.0492 15.3863 16.886 15.5656 16.7823 15.7884C16.6733 16.0224 16.6002 16.3697 16.6002 17C16.6002 17.3313 16.3316 17.6 16.0002 17.6C15.6688 17.6 15.4002 17.3313 15.4002 17C15.4002 16.2969 15.478 15.7466 15.6944 15.2818C15.9161 14.8058 16.2529 14.485 16.6339 14.1914C17.2406 13.7238 17.4002 13.3302 17.4002 13C17.4002 12.2268 16.7734 11.6 16.0002 11.6C15.227 11.6 14.6002 12.2268 14.6002 13C14.6002 13.3313 14.3316 13.6 14.0002 13.6C13.6688 13.6 13.4002 13.3313 13.4002 13Z" fill="#D3D4D5"/>
<path d="M17.0002 20.5C17.0002 21.0522 16.5525 21.5 16.0002 21.5C15.4479 21.5 15.0002 21.0522 15.0002 20.5C15.0002 19.9477 15.4479 19.5 16.0002 19.5C16.5525 19.5 17.0002 19.9477 17.0002 20.5Z" fill="#D3D4D5"/>
<path fill-rule="evenodd" clip-rule="evenodd" d="M26.3002 16C26.3002 21.6885 21.6887 26.2999 16.0002 26.2999C10.3117 26.2999 5.7002 21.6885 5.7002 16C5.7002 10.3114 10.3117 5.69995 16.0002 5.69995C21.6887 5.69995 26.3002 10.3114 26.3002 16ZM25.0002 16C25.0002 20.9705 20.9708 25 16.0002 25C11.0296 25 7.0002 20.9705 7.0002 16C7.0002 11.0294 11.0296 6.99995 16.0002 6.99995C20.9708 6.99995 25.0002 11.0294 25.0002 16Z" fill="#D3D4D5"/>
</svg>
