<svg width="245" height="112" viewBox="0 0 245 112" fill="none" xmlns="http://www.w3.org/2000/svg">
<path d="M245 95.316C245 98.8324 144.616 105.042 101.509 104.967C57.5015 104.967 8.24658 100.329 8.24658 96.8124C8.24658 93.296 46.7059 89.63 93.9366 89.63C141.167 89.63 245 91.8745 245 95.316Z" fill="#E0E0E0"/>
<path d="M164.408 83.0462H15.5186C13.6444 83.0462 12.145 81.5499 12.145 79.6795V9.20252C12.145 7.33211 13.6444 5.83578 15.5186 5.83578H164.408C166.282 5.83578 167.781 7.33211 167.781 9.20252V79.6795C167.781 81.5499 166.282 83.0462 164.408 83.0462Z" fill="#F7F7F7"/>
<path d="M164.858 31.9466H15.0688C13.4945 31.9466 12.145 30.6747 12.145 29.0288V8.60393C12.145 7.03279 13.4195 5.6861 15.0688 5.6861H164.858C166.432 5.6861 167.781 6.95797 167.781 8.60393V29.0288C167.781 30.6747 166.432 31.9466 164.858 31.9466Z" fill="#A42A29"/>
<path d="M146.79 74.2926C146.79 74.2926 146.79 73.9185 146.79 73.2451C146.79 72.5718 146.79 71.4495 146.79 70.1028C146.79 67.3346 146.79 63.2946 146.79 58.2071C146.79 47.9572 146.79 33.2184 146.715 15.4869L146.79 15.5618H72.7202L72.8702 15.4121C72.8702 36.66 72.8702 56.7107 72.8702 74.2177L72.7202 74.1429L126.248 74.2177H141.392H145.441H146.49H145.441H141.467H126.323L72.7202 74.2926H72.5703V74.1429C72.5703 56.6359 72.5703 36.5103 72.5703 15.3373V15.1877H72.7202H146.79H146.865V15.2625C146.865 32.994 146.79 47.7328 146.79 57.9826C146.79 63.1449 146.79 67.1102 146.79 69.8784C146.79 71.2251 146.79 72.2725 146.79 73.0207C146.865 73.8437 146.79 74.2926 146.79 74.2926Z" fill="#E0E1E0"/>
<path d="M84.9401 26.3354H82.2412V56.1871H84.9401V26.3354Z" fill="#E0E1E0"/>
<path d="M90.1134 36.5103H87.4146V56.2618H90.1134V36.5103Z" fill="#EBEBEB"/>
<path d="M95.2863 30.0761H92.5874V56.4115H95.2863V30.0761Z" fill="#E0E1E0"/>
<path d="M100.459 27.5324H97.7603V56.2619H100.459V27.5324Z" fill="#EBEBEB"/>
<path d="M105.632 37.1089H102.933V56.1871H105.632V37.1089Z" fill="#E0E1E0"/>
<path d="M110.804 40.8498H108.105V56.1871H110.804V40.8498Z" fill="#EBEBEB"/>
<path d="M115.978 29.4028H113.279V56.187H115.978V29.4028Z" fill="#E0E1E0"/>
<path d="M121.151 34.2658H118.452V56.2618H121.151V34.2658Z" fill="#EBEBEB"/>
<path d="M126.323 30.3755H123.625V56.1871H126.323V30.3755Z" fill="#E0E1E0"/>
<path d="M131.496 38.6053H128.797V56.1871H131.496V38.6053Z" fill="#EBEBEB"/>
<path d="M136.669 35.2385H133.97V56.1871H136.669V35.2385Z" fill="#E0E1E0"/>
<path d="M137.719 58.2818C137.719 58.3567 124.974 58.3567 109.305 58.3567C93.6366 58.3567 80.9668 58.3567 80.9668 58.2818C80.9668 58.207 93.6366 58.207 109.38 58.207C125.124 58.207 137.719 58.207 137.719 58.2818Z" fill="#E0E1E0"/>
<path d="M86.0647 60.676C84.7152 60.8257 83.4408 60.8257 82.0913 60.676C83.4408 60.5264 84.7152 60.5264 86.0647 60.676Z" fill="#E0E1E0"/>
<path d="M92.662 60.7508C91.0877 60.9004 89.5133 60.9004 87.939 60.7508C89.5133 60.6012 91.0877 60.6012 92.662 60.7508Z" fill="#E0E1E0"/>
<path d="M98.2851 60.7508C96.7107 60.9004 95.1364 60.9004 93.562 60.7508C95.1364 60.6012 96.7107 60.6012 98.2851 60.7508Z" fill="#E0E1E0"/>
<path d="M103.908 60.7508C102.333 60.9004 100.759 60.9004 99.1846 60.7508C100.759 60.6012 102.333 60.6012 103.908 60.7508Z" fill="#E0E1E0"/>
<path d="M109.53 60.7508C107.956 60.9004 106.381 60.9004 104.807 60.7508C106.381 60.6012 107.956 60.6012 109.53 60.7508Z" fill="#E0E1E0"/>
<path d="M115.153 60.7508C113.579 60.9004 112.005 60.9004 110.43 60.7508C112.005 60.6012 113.579 60.6012 115.153 60.7508Z" fill="#E0E1E0"/>
<path d="M120.776 60.7508C119.201 60.9004 117.627 60.9004 116.053 60.7508C117.627 60.6012 119.201 60.6012 120.776 60.7508Z" fill="#E0E1E0"/>
<path d="M126.398 60.7508C124.824 60.9004 123.25 60.9004 121.675 60.7508C123.25 60.6012 124.824 60.6012 126.398 60.7508Z" fill="#E0E1E0"/>
<path d="M132.021 60.7508C130.447 60.9004 128.873 60.9004 127.298 60.7508C128.873 60.6012 130.447 60.6012 132.021 60.7508Z" fill="#E0E1E0"/>
<path d="M137.644 60.7508C136.07 60.9004 134.495 60.9004 132.921 60.7508C134.495 60.6012 136.07 60.6012 137.644 60.7508Z" fill="#E0E1E0"/>
<path d="M148.889 15.1129H70.3213V17.3574H148.889V15.1129Z" fill="#EBEBEB"/>
<path d="M68.9718 68.0081C70.996 68.2326 68.672 76.1631 65.5982 75.7142C62.5245 75.2653 64.0239 69.28 64.0239 69.28C64.0239 69.28 66.8727 67.7089 68.9718 68.0081Z" fill="#A1B2B6"/>
<path d="M45.5066 29.1784C50.2296 35.2385 54.5029 62.6213 54.5029 62.6213C54.5029 62.6213 56.1522 62.322 56.0023 63.2946C55.8524 64.2672 68.972 68.008 68.972 68.008C68.972 68.008 64.099 70.4022 65.5984 75.7141C65.5984 75.7141 50.4546 73.4696 46.1063 71.5992C41.7581 69.7288 40.5586 40.7749 40.5586 40.7749L45.5066 29.1784Z" fill="#D0D8DC"/>
<path d="M13.2698 81.8491C13.2698 81.8491 16.3435 84.4676 31.4124 84.0936C43.0326 83.7943 46.1064 80.9513 46.1064 80.9513C46.1064 80.9513 48.4304 33.0688 45.4317 29.2532C43.2575 26.485 38.9843 25.288 33.3616 24.9887C31.2624 24.9139 28.9384 24.9139 26.5394 25.0635C24.7401 25.1383 23.0158 25.4376 21.4415 25.8865C15.219 27.6821 10.8708 31.797 10.271 35.0141C9.52131 38.9793 13.2698 81.8491 13.2698 81.8491Z" fill="#D0D8DC"/>
<path d="M49.78 58.2071C51.0545 61.4991 50.4547 69.7289 49.2552 71.8985C47.9057 74.3675 41.6833 73.32 41.6833 73.32C41.6833 73.32 41.6833 52.5959 40.6337 42.0468C39.5841 31.4977 34.936 24.9887 34.936 24.9887C34.936 24.9887 46.0315 25.3628 47.7558 31.4977C48.8803 35.5378 48.5805 38.7549 48.2056 40.5505C48.0557 41.5231 47.8308 42.0468 47.8308 42.0468H47.9057C48.2806 42.1216 49.4801 42.6454 50.3797 47.0595C51.4293 52.2967 49.1053 57.1597 49.1053 57.1597C49.3302 57.3842 49.5551 57.7582 49.78 58.2071Z" fill="#EF4153"/>
<path d="M39.2088 34.8644C39.2088 34.8644 41.083 28.505 38.759 25.5124C36.4349 22.5197 33.9609 21.996 33.9609 21.996C33.9609 21.996 37.0347 24.9139 37.4845 26.7843C37.9343 28.7295 39.2088 34.8644 39.2088 34.8644Z" fill="#CE374C"/>
<path d="M33.9612 22.0709C30.7375 21.0983 22.7907 19.6767 18.8173 21.3227C18.8173 21.3227 18.5175 24.7643 19.9419 25.8865C21.3663 27.0836 34.8608 20.0508 38.9841 33.5926C38.9841 33.5926 40.0337 23.7916 33.9612 22.0709Z" fill="#B72F49"/>
<path d="M27.7391 52.97C27.7391 70.4022 25.7149 75.4149 25.7149 75.4149C25.7149 75.4149 12.8951 77.2105 10.4961 74.5919C8.17205 72.0481 10.4211 63.8932 10.4211 63.8932C10.4211 63.8932 9.89635 62.6213 9.37156 60.7509C9.14665 59.9279 8.92174 59.0301 8.69683 58.0575C8.47193 57.0849 8.32199 56.0375 8.17205 54.9152C7.87217 52.147 8.47193 49.9773 9.07168 48.7055C9.44653 47.8077 9.89634 47.3588 9.89634 47.3588C9.89634 47.3588 7.34739 37.2586 8.39696 32.7696C8.62187 31.797 9.07168 30.8992 9.59647 30.151C12.8202 25.9613 20.3921 25.8865 20.3921 25.8865C22.5662 26.485 25.7899 32.0214 27.1393 42.7201C27.5142 45.7876 27.7391 49.1544 27.7391 52.97Z" fill="#EF4153"/>
<path d="M33.1365 20.8737L31.1873 28.6546C31.1873 28.6546 28.9382 29.7021 24.1401 26.5598C24.1401 26.5598 26.6141 20.6493 24.365 16.4596C24.365 16.4596 24.9648 16.4596 25.7895 16.6092C25.8644 16.6092 26.7641 21.173 33.1365 20.8737Z" fill="#703E38"/>
<path d="M24.0654 12.4196C24.0654 21.622 32.9118 22.8939 35.2359 19.4523C35.9856 18.3301 36.6603 16.3849 37.0351 14.2152C37.1101 13.6915 37.1851 13.2426 37.26 12.7189C37.6349 9.35214 37.335 5.91059 35.3858 5.0128C28.7135 1.87051 24.0654 3.21721 24.0654 12.4196Z" fill="#8F5045"/>
<path d="M38.1597 5.91054C38.5346 5.31201 38.3097 4.33939 37.485 4.18976C37.485 4.18976 37.485 4.18976 37.485 4.11494C37.6349 3.59123 37.485 2.91788 36.8852 2.61862C36.8852 2.61862 36.8852 2.61862 36.9602 2.61862C36.9602 2.61862 36.8852 2.61862 36.8852 2.5438C36.8852 1.94527 36.5104 1.42156 35.7607 1.42156C35.6857 1.42156 35.6108 1.42156 35.4608 1.42156C35.3109 1.12229 35.011 0.897844 34.4862 0.897844C34.4112 0.897844 34.3363 0.897844 34.2613 0.897844C34.1114 0.673395 33.8115 0.523762 33.4366 0.523762C33.3617 0.523762 33.2867 0.523762 33.2117 0.523762C33.0618 0.37413 32.7619 0.224497 32.462 0.224497C32.1622 0.224497 31.9372 0.37413 31.7123 0.523762C31.5624 0.224497 31.2625 0.0748645 30.8127 0.0748645C30.5878 0.0748645 30.4379 0.149681 30.2879 0.224497C30.138 0.0748645 29.8381 -0.0747681 29.5382 -0.0747681C29.2383 -0.0747681 29.0884 4.82351e-05 28.8635 0.149681C28.7136 0.0748645 28.4887 4.82276e-05 28.2637 4.82276e-05C28.1888 4.82276e-05 28.0388 4.82276e-05 27.9639 0.0748645C27.8889 0.0748645 27.664 4.82276e-05 27.4391 4.82276e-05C27.2142 4.82276e-05 26.9893 0.0748645 26.8393 0.224497C26.6894 0.149681 26.5394 0.0748645 26.3145 0.0748645C25.7898 0.0748645 25.4149 0.448946 25.265 0.823027C24.5902 0.823027 24.2154 1.34674 24.2154 1.87046C24.0655 1.79564 23.9155 1.79564 23.6906 1.79564C22.8659 1.79564 22.4911 2.61862 22.641 3.21715C22.641 3.21715 22.641 3.21715 22.5661 3.21715C21.7414 3.21715 21.4415 3.8905 21.5165 4.56384C20.6169 4.78829 20.4669 5.98535 21.0667 6.50907C20.4669 6.80833 20.392 7.63131 20.6918 8.15502C20.6169 8.52911 20.6918 8.978 20.9167 9.20245C20.6169 9.65135 20.6918 10.3995 21.0667 10.7736C21.2166 13.6914 22.3412 16.7589 25.115 18.6293L24.7402 16.4596C24.7402 16.4596 23.6906 14.5892 24.0655 13.2425C24.4403 11.8958 25.19 13.0181 25.19 13.0181C25.19 13.0181 27.2891 9.57653 27.2891 7.40686C27.2891 5.16237 27.2891 5.16237 27.2891 5.16237C27.2891 5.16237 33.8865 3.51641 36.8103 6.73351C36.8103 6.73351 36.8103 6.73351 36.8852 6.73351C36.8852 7.1076 37.1851 7.55649 37.7099 7.55649C38.6845 7.48168 38.7595 6.28462 38.1597 5.91054Z" fill="#0E3944"/>
<path d="M25.0395 12.4944C25.0395 12.4944 23.69 10.624 22.1906 11.5966C20.6912 12.5692 22.7904 15.9359 24.2898 15.9359C25.7892 15.9359 25.0395 12.4944 25.0395 12.4944Z" fill="#8F5045"/>
<path d="M25.2646 33.7422C25.2646 33.7422 27.2887 27.0835 26.614 25.0635C25.9393 22.9686 19.4169 20.7241 18.8172 21.3975C18.2174 21.996 17.5427 23.8664 18.2174 26.1109C18.2174 26.0361 22.2658 26.6346 25.2646 33.7422Z" fill="#CE374C"/>
<path d="M27.1392 42.7202C25.19 45.2639 13.7197 45.4884 13.7197 45.4884C13.7197 45.4884 6.22271 56.636 11.6955 60.0027C17.0933 63.2946 26.6144 60.9005 26.9892 60.8257C24.8901 62.5465 11.6955 63.8184 9.29646 60.8257C9.22149 60.6761 9.07155 60.5264 9.07155 60.3768C8.84664 59.7783 8.6967 58.9553 8.62173 58.1323C8.32185 55.2145 8.6967 51.1744 8.99658 48.7803C9.37143 47.8825 9.82124 47.4336 9.82124 47.4336C9.82124 47.4336 7.27228 37.3334 8.32185 32.8444C8.54676 31.8718 8.99658 30.974 9.52136 30.2258C16.3436 30.3006 17.0183 42.8698 17.0183 42.8698C18.9675 43.4683 26.8393 42.795 27.1392 42.7202Z" fill="#CE374C"/>
<path d="M11.6957 98.8324C11.7707 100.404 4.34869 103.621 3.97384 101.301C3.67397 98.982 11.3958 94.7923 11.6957 98.8324Z" fill="#A1B2B6"/>
<path d="M5.32286 100.254C5.17292 101.002 4.57317 106.015 4.87304 106.913C4.87304 106.913 4.87304 106.987 4.94801 106.987C5.32286 107.885 6.4474 108.708 6.82225 109.232C7.1971 109.83 7.87182 109.905 8.47158 110.429C8.99636 110.953 10.4208 110.953 10.4208 110.953C10.4208 110.953 12.5949 112.524 12.6699 111.626C12.7448 110.579 11.4704 109.606 11.4704 109.606L10.4958 107.137C10.4958 107.137 11.0205 103.845 11.6953 103.845C12.37 103.845 12.0701 105.192 12.445 106.314C12.6699 107.062 13.4945 106.913 13.4945 106.913L13.5695 104.967C13.5695 104.967 13.4196 102.124 13.0447 101.601C12.6699 101.077 10.8706 99.2065 10.8706 99.2065L10.0459 95.1664L4.57317 95.5405C4.34826 95.5405 5.39783 99.5057 5.32286 100.254Z" fill="#8F5045"/>
<path d="M4.87305 106.987C5.24789 107.885 6.37243 108.708 6.74728 109.232C7.12213 109.83 7.79685 109.905 8.39661 110.429C8.92139 110.953 10.3458 110.953 10.3458 110.953C9.82103 110.579 8.84642 108.259 8.62152 108.11C8.39661 107.96 8.24667 108.334 7.79685 108.334C7.34704 108.334 7.1971 107.511 6.74728 107.661C6.29747 107.81 5.92262 107.885 5.54777 107.287C5.39783 107.062 5.17292 107.062 4.87305 106.987Z" fill="#703E38"/>
<path d="M10.6458 30.8243C14.919 33.0688 16.4934 42.3461 16.1185 46.1617L10.1959 64.6413C10.1959 64.6413 10.046 66.811 9.29631 67.1102L11.6953 98.8324C11.0956 97.6353 4.87312 98.6827 3.97348 101.301C3.97348 101.301 -0.52468 70.7014 0.0750752 62.2472C0.150045 60.6012 10.6458 30.8243 10.6458 30.8243Z" fill="#D0D8DC"/>
<path d="M41.2334 42.0468C41.2334 42.0468 45.1318 41.8972 48.1306 40.5505C47.9806 41.5231 47.7557 42.0468 47.7557 42.0468C47.7557 42.0468 43.5575 42.5705 41.2334 42.0468Z" fill="#CE374C"/>
<path d="M49.7797 58.2072C46.9309 58.5064 42.9575 57.9079 42.9575 57.9079C42.9575 57.9079 47.3807 57.9079 49.18 57.1597C49.3299 57.3842 49.5548 57.7583 49.7797 58.2072Z" fill="#CE374C"/>
<path d="M74.6693 76.163C74.2195 75.6393 72.1953 74.5171 72.1953 74.5171C70.471 73.9185 69.4964 73.6193 68.7467 72.8711C67.997 72.1229 65.2231 72.2726 65.2231 72.2726C65.2231 72.2726 65.598 69.7288 67.3973 67.8584C67.3973 67.8584 68.8217 68.2325 69.2715 68.0829C70.1711 67.7836 70.7709 66.5117 72.4202 66.2124C74.1445 65.988 76.1687 64.8658 76.1687 64.8658C76.1687 64.8658 76.9933 65.3895 76.3936 65.988C75.7938 66.6613 74.3694 66.9606 74.2195 67.3347C74.2195 67.4095 74.1445 67.4843 74.1445 67.5591C74.0695 67.8584 74.0695 68.1577 74.2195 68.3821C74.2195 68.3821 74.2195 68.3821 74.2195 68.4569C74.8942 69.2051 77.1433 69.654 78.1179 69.8036C79.5423 69.9533 81.4165 70.2525 81.0417 71.0755C80.5919 71.8985 79.9171 71.0007 76.7684 71.2251L76.6935 71.5244C76.4686 71.5244 78.4927 72.4222 80.4419 72.7963C81.7914 73.0955 81.1916 73.9185 80.7418 73.9933C80.292 74.143 79.0175 73.6941 78.0429 73.4696C77.3682 73.32 76.7684 73.1704 76.3186 73.0955L76.0937 73.4696C78.2678 75.1156 79.3174 74.8163 79.2424 75.5645C79.1675 76.3126 77.2182 75.7889 76.5435 75.2652C76.2436 75.0408 75.5689 74.8163 74.9692 74.5171C76.3936 76.0882 77.2183 76.0882 77.0683 76.6867C76.6935 77.5097 75.1941 76.6867 74.6693 76.163Z" fill="#8F5045"/>
<path d="M71.8208 69.7288C73.1703 69.4296 73.9949 67.8584 74.0699 67.634C73.9949 67.9332 73.9949 68.2325 74.1449 68.4569C73.1702 69.9533 71.8208 69.7288 71.8208 69.7288Z" fill="#703E38"/>
<path d="M227.277 5.80161L164.381 11.9592L172.82 97.8083L235.716 91.6507L227.277 5.80161Z" fill="#F5F6F6"/>
<path d="M214.458 0.640262L151.562 6.79782L160.001 92.647L222.897 86.4894L214.458 0.640262Z" fill="white"/>
<path d="M222.809 86.5625L222.734 86.1136C222.734 85.8143 222.659 85.4403 222.584 84.9165C222.434 83.7943 222.284 82.298 222.059 80.2031C221.684 76.0882 221.01 70.1029 220.26 62.5465C218.761 47.4336 216.661 26.0361 214.037 0.673398L214.337 0.897847L151.513 7.1076L151.738 6.80833C154.887 38.9045 157.735 68.6066 160.134 92.6974L159.91 92.473L205.566 88.1337L218.311 86.9366L221.684 86.6373L222.809 86.5625C222.809 86.5625 222.509 86.6373 221.684 86.7121L218.386 87.0862L205.716 88.3581L159.91 92.9967H159.685V92.7723C157.436 68.6066 154.437 38.9045 151.288 6.80833V6.50907H151.588L214.487 0.299316H214.712V0.523765C217.186 25.9613 219.21 47.4336 220.71 62.6213C221.384 70.1777 221.984 76.0882 222.359 80.2031C222.584 82.2232 222.659 83.7943 222.809 84.8417L222.884 86.0388C222.884 86.2632 222.884 86.4129 222.809 86.5625Z" fill="#A42A29"/>
<path d="M191.622 20.3502C191.622 20.4998 184.8 21.3228 176.403 22.1458C168.007 22.9687 161.109 23.4925 161.109 23.3428C161.109 23.1932 167.932 22.3702 176.328 21.5472C184.725 20.7242 191.622 20.1257 191.622 20.3502Z" fill="#A42A29"/>
<path d="M208.864 26.1858C208.864 26.3354 198.369 27.5325 185.324 28.8044C172.279 30.0762 161.784 30.974 161.784 30.8244C161.784 30.6748 172.279 29.4777 185.324 28.2058C198.369 26.9339 208.939 26.0361 208.864 26.1858Z" fill="#A42A29"/>
<path d="M209.689 33.9667C209.689 34.1163 199.194 35.3134 186.149 36.5852C173.104 37.8571 162.609 38.7549 162.534 38.6053C162.459 38.4556 173.029 37.2586 186.074 35.9867C199.119 34.7148 209.689 33.817 209.689 33.9667Z" fill="#A42A29"/>
<path d="M210.439 41.7475C210.439 41.8972 199.943 43.0942 186.899 44.3661C173.854 45.638 163.358 46.5358 163.358 46.3862C163.358 46.2365 173.854 45.0395 186.899 43.7676C199.943 42.4957 210.514 41.5979 210.439 41.7475Z" fill="#A42A29"/>
<path d="M211.188 49.5284C211.188 49.6781 200.693 50.8751 187.648 52.147C174.603 53.4189 164.183 54.3167 164.183 54.167C164.183 54.0174 174.678 52.8203 187.723 51.5485C200.693 50.2766 211.188 49.3788 211.188 49.5284Z" fill="#A42A29"/>
<path d="M212.013 57.3093C212.013 57.4589 201.518 58.656 188.473 59.9279C175.428 61.1998 164.933 62.0976 164.933 61.8731C164.933 61.7235 175.428 60.5264 188.473 59.2545C201.443 58.0575 212.013 57.1597 212.013 57.3093Z" fill="#A42A29"/>
<path d="M212.763 65.0903C212.763 65.2399 202.267 66.437 189.223 67.7089C176.178 68.9807 165.682 69.8785 165.682 69.7289C165.682 69.5793 176.178 68.3822 189.223 67.1103C202.267 65.8385 212.763 64.9407 212.763 65.0903Z" fill="#A42A29"/>
<path d="M191.772 74.966C191.772 75.1156 186.149 75.789 179.177 76.4623C172.205 77.1357 166.507 77.5846 166.507 77.4349C166.507 77.2853 172.13 76.612 179.102 75.9386C186.074 75.2653 191.772 74.8164 191.772 74.966Z" fill="#A42A29"/>
</svg>
