<svg width="32" height="32" viewBox="0 0 32 32" fill="none" xmlns="http://www.w3.org/2000/svg">
<path d="M0 16C0 7.16344 7.16344 0 16 0C24.8366 0 32 7.16344 32 16C32 24.8366 24.8366 32 16 32C7.16344 32 0 24.8366 0 16Z" fill="#929497" fill-opacity="0.2"/>
<g clip-path="url(#clip0_2737_3308)">
<path fill-rule="evenodd" clip-rule="evenodd" d="M12.4999 9.25C11.8101 9.25 11.2499 9.81021 11.2499 10.5C11.2499 11.1898 11.8101 11.75 12.4999 11.75C13.1897 11.75 13.7499 11.1898 13.7499 10.5C13.7499 9.81021 13.1897 9.25 12.4999 9.25ZM15.1463 9.75C14.8196 8.59604 13.7581 7.75 12.4999 7.75C11.2416 7.75 10.1801 8.59604 9.85349 9.75H8.49988C8.08566 9.75 7.74988 10.0858 7.74988 10.5C7.74988 10.9142 8.08566 11.25 8.49988 11.25H9.85349C10.1801 12.404 11.2416 13.25 12.4999 13.25C13.7581 13.25 14.8196 12.404 15.1463 11.25H23.4999C23.9141 11.25 24.2499 10.9142 24.2499 10.5C24.2499 10.0858 23.9141 9.75 23.4999 9.75H15.1463ZM16.8535 15.75C17.1801 14.596 18.2416 13.75 19.4999 13.75C20.7581 13.75 21.8196 14.596 22.1463 15.75H23.4999C23.9141 15.75 24.2499 16.0858 24.2499 16.5C24.2499 16.9142 23.9141 17.25 23.4999 17.25H22.1463C21.8196 18.404 20.7581 19.25 19.4999 19.25C18.2416 19.25 17.1801 18.404 16.8535 17.25H8.49988C8.08566 17.25 7.74988 16.9142 7.74988 16.5C7.74988 16.0858 8.08566 15.75 8.49988 15.75H16.8535ZM19.4999 15.25C18.8101 15.25 18.2499 15.8102 18.2499 16.5C18.2499 17.1898 18.8101 17.75 19.4999 17.75C20.1897 17.75 20.7499 17.1898 20.7499 16.5C20.7499 15.8102 20.1897 15.25 19.4999 15.25ZM9.85349 21.75C10.1801 20.596 11.2416 19.75 12.4999 19.75C13.7581 19.75 14.8196 20.596 15.1463 21.75H23.4999C23.9141 21.75 24.2499 22.0858 24.2499 22.5C24.2499 22.9142 23.9141 23.25 23.4999 23.25H15.1463C14.8196 24.404 13.7581 25.25 12.4999 25.25C11.2416 25.25 10.1801 24.404 9.85349 23.25H8.49988C8.08566 23.25 7.74988 22.9142 7.74988 22.5C7.74988 22.0858 8.08566 21.75 8.49988 21.75H9.85349ZM12.4999 21.25C11.8101 21.25 11.2499 21.8102 11.2499 22.5C11.2499 23.1898 11.8101 23.75 12.4999 23.75C13.1897 23.75 13.7499 23.1898 13.7499 22.5C13.7499 21.8102 13.1897 21.25 12.4999 21.25Z" fill="#A32A29"/>
</g>
<defs>
<clipPath id="clip0_2737_3308">
<rect width="102" height="102" fill="white"/>
</clipPath>
</defs>
</svg>
