<svg width="48" height="48" viewBox="0 0 48 48" fill="none" xmlns="http://www.w3.org/2000/svg">
<path d="M0 24C0 10.7452 10.7452 0 24 0C37.2548 0 48 10.7452 48 24C48 37.2548 37.2548 48 24 48C10.7452 48 0 37.2548 0 24Z" fill="#929497" fill-opacity="0.2"/>
<path fill-rule="evenodd" clip-rule="evenodd" d="M28.7826 22.7152C25.4373 22.7152 22.7152 25.4373 22.7152 28.7826C22.7152 32.1279 25.4373 34.85 28.7826 34.85C32.1279 34.85 34.85 32.1279 34.85 28.7826C34.85 25.4373 32.1279 22.7152 28.7826 22.7152ZM22.4152 28.7826C22.4152 25.2716 25.2716 22.4152 28.7826 22.4152C32.2936 22.4152 35.15 25.2716 35.15 28.7826C35.15 32.2936 32.2936 35.15 28.7826 35.15C25.2716 35.15 22.4152 32.2936 22.4152 28.7826ZM23.3717 28.7826C23.3717 25.7996 25.7986 23.3717 28.7826 23.3717C31.7666 23.3717 34.1935 25.7996 34.1935 28.7826C34.1935 31.7656 31.7666 34.1935 28.7826 34.1935C25.7986 34.1935 23.3717 31.7656 23.3717 28.7826ZM28.7826 23.6717C25.9643 23.6717 23.6717 25.9653 23.6717 28.7826C23.6717 31.6 25.9643 33.8935 28.7826 33.8935C31.6009 33.8935 33.8935 31.6 33.8935 28.7826C33.8935 25.9653 31.6009 23.6717 28.7826 23.6717Z" fill="#A32A29"/>
<path d="M15.4506 13C14.0884 13 13 14.1733 13 15.5913V30.8957C13 32.3136 14.0884 33.487 15.4506 33.487H21.3203C21.6905 33.487 21.9704 33.1716 21.9704 32.8087C21.9704 32.4458 21.6905 32.1304 21.3203 32.1304H15.4506C14.8278 32.1304 14.3003 31.5878 14.3003 30.8957V15.5913C14.3003 14.8991 14.8278 14.3565 15.4506 14.3565H26.2537C26.8765 14.3565 27.4041 14.8991 27.4041 15.5913V21.3878C27.4041 21.7507 27.684 22.0661 28.0542 22.0661C28.4244 22.0661 28.7043 21.7507 28.7043 21.3878V15.5913C28.7043 14.1733 27.6159 13 26.2537 13H15.4506Z" fill="#A32A29"/>
<path d="M17.2609 20.5022C16.9249 20.5022 16.6761 20.7974 16.6761 21.1304C16.6761 21.4635 16.9249 21.7587 17.2609 21.7587H25.9565C26.2925 21.7587 26.5413 21.4635 26.5413 21.1304C26.5413 20.7974 26.2925 20.5022 25.9565 20.5022H17.2609Z" fill="#A32A29"/>
<path d="M15.3913 24.3283C15.0444 24.3283 14.763 24.6097 14.763 24.9565C14.763 25.3034 15.0444 25.5848 15.3913 25.5848H21.1304C21.4773 25.5848 21.7587 25.3034 21.7587 24.9565C21.7587 24.6097 21.4773 24.3283 21.1304 24.3283H15.3913Z" fill="#A32A29"/>
<path d="M15.3913 16.6761C15.0444 16.6761 14.763 16.9575 14.763 17.3043C14.763 17.6512 15.0444 17.9326 15.3913 17.9326H20.1739C20.5207 17.9326 20.8022 17.6512 20.8022 17.3043C20.8022 16.9575 20.5207 16.6761 20.1739 16.6761H15.3913Z" fill="#A32A29"/>
<path d="M28.4333 26.3116C28.4333 25.9648 28.7147 25.6833 29.0616 25.6833C29.4084 25.6833 29.6898 25.9648 29.6898 26.3116V28.4333H32.0507C32.3976 28.4333 32.679 28.7148 32.679 29.0616C32.679 29.4084 32.3976 29.6899 32.0507 29.6899H29.6898V32.0507C29.6898 32.3976 29.4084 32.679 29.0616 32.679C28.7147 32.679 28.4333 32.3976 28.4333 32.0507V29.6899H26.3116C25.9647 29.6899 25.6833 29.4084 25.6833 29.0616C25.6833 28.7148 25.9647 28.4333 26.3116 28.4333H28.4333V26.3116Z" fill="#A32A29"/>
<path fill-rule="evenodd" clip-rule="evenodd" d="M28.7826 35C25.3544 35 22.5652 32.2108 22.5652 28.7826C22.5652 25.3544 25.3544 22.5652 28.7826 22.5652C32.2108 22.5652 35 25.3544 35 28.7826C35 32.2108 32.2108 35 28.7826 35ZM28.7826 23.5217C25.8815 23.5217 23.5217 25.8824 23.5217 28.7826C23.5217 31.6828 25.8815 34.0435 28.7826 34.0435C31.6837 34.0435 34.0435 31.6828 34.0435 28.7826C34.0435 25.8824 31.6837 23.5217 28.7826 23.5217Z" fill="#A32A29"/>
</svg>
