<svg width="32" height="32" viewBox="0 0 32 32" fill="none" xmlns="http://www.w3.org/2000/svg">
<path d="M16 32C7.13333 32 0 24.8667 0 16C0 7.13333 7.13333 0 16 0C24.8667 0 32 7.13333 32 16C32 24.8667 24.8667 32 16 32Z" fill="white"/>
<path d="M21.5689 13.9981L21.8541 12.3395C21.8541 12.3395 20.9709 12.0035 20.054 12.0035C19.0604 12.0035 16.7021 12.4413 16.7021 14.5623C16.7021 16.56 19.4713 16.5846 19.4713 17.6328C19.4713 18.681 16.9873 18.4929 16.1685 17.8332L15.8711 19.5688C15.8711 19.5688 16.7635 20.0066 18.1312 20.0066C19.4989 20.0066 21.5597 19.2944 21.5597 17.3584C21.5597 15.3484 18.766 15.1603 18.766 14.2879C18.7629 13.4093 20.7103 13.5233 21.5689 13.9981ZM24.4915 17.1334L25.5433 14.2417L26.1352 17.1334H24.4915ZM26.6964 19.8679H28.5333L26.9295 12.1391H25.3195C24.5773 12.1391 24.3964 12.7156 24.3964 12.7156L21.4125 19.8679H23.4979L23.9149 18.721H26.4603L26.6964 19.8679ZM10.9491 12.1391L9.0416 17.4571L8.81467 16.3133L8.14 12.8359C8.14 12.8359 8.0572 12.1391 7.18933 12.1391H4.0368L4 12.2686C4 12.2686 4.966 12.469 6.09453 13.1534L7.83333 19.8679H9.91867L13.1049 12.1391H10.9491ZM14.6352 19.8679H12.6327L13.8839 12.1391H15.8864L14.6352 19.8679Z" fill="#1A1E5A"/>
</svg>
