<svg width="48" height="48" viewBox="0 0 48 48" fill="none" xmlns="http://www.w3.org/2000/svg">
<path d="M0 24C0 10.7452 10.7452 0 24 0C37.2548 0 48 10.7452 48 24C48 37.2548 37.2548 48 24 48C10.7452 48 0 37.2548 0 24Z" fill="#A32A29"/>
<path d="M10.0645 17.7227H14.3125C16.1549 17.7227 17.5449 17.9896 18.4824 18.5234C19.4199 19.0573 19.8887 19.9785 19.8887 21.2871C19.8887 21.834 19.791 22.3288 19.5957 22.7715C19.4069 23.2077 19.1302 23.569 18.7656 23.8555C18.401 24.1354 17.9518 24.3242 17.418 24.4219V24.5195C17.9714 24.6172 18.4629 24.7897 18.8926 25.0371C19.3288 25.2845 19.6706 25.6393 19.918 26.1016C20.1719 26.5638 20.2988 27.1628 20.2988 27.8984C20.2988 28.7708 20.0905 29.513 19.6738 30.125C19.2637 30.737 18.6745 31.2025 17.9062 31.5215C17.1445 31.8405 16.2396 32 15.1914 32H10.0645V17.7227ZM12.4082 23.6113H14.6543C15.7155 23.6113 16.4512 23.4388 16.8613 23.0938C17.2715 22.7487 17.4766 22.2441 17.4766 21.5801C17.4766 20.903 17.2324 20.4147 16.7441 20.1152C16.2624 19.8158 15.4941 19.666 14.4395 19.666H12.4082V23.6113ZM12.4082 25.5059V30.0371H14.8789C15.9727 30.0371 16.7409 29.8255 17.1836 29.4023C17.6263 28.9792 17.8477 28.4062 17.8477 27.6836C17.8477 27.2409 17.7467 26.8568 17.5449 26.5312C17.3496 26.2057 17.0273 25.9551 16.5781 25.7793C16.1289 25.597 15.5234 25.5059 14.7617 25.5059H12.4082ZM29.4102 32L25.2988 20.0762H25.2109C25.2305 20.3431 25.2533 20.7077 25.2793 21.1699C25.3053 21.6322 25.3281 22.127 25.3477 22.6543C25.3672 23.1816 25.377 23.6862 25.377 24.168V32H23.248V17.7227H26.5391L30.4941 29.1191H30.5527L34.6445 17.7227H37.9258V32H35.6895V24.0508C35.6895 23.6146 35.696 23.1426 35.709 22.6348C35.7285 22.127 35.748 21.6452 35.7676 21.1895C35.7936 20.7337 35.8132 20.3691 35.8262 20.0957H35.748L31.4805 32H29.4102Z" fill="white"/>
</svg>
