<svg width="269" height="239" viewBox="0 0 269 239" fill="none" xmlns="http://www.w3.org/2000/svg">
<path d="M17.4028 141.662C36.0412 205.311 110.085 213.532 161.436 186.702C185.91 173.922 207.016 150.328 217.759 123.897C226.608 113.973 231.951 101.422 232.965 88.1707C235.321 55.9848 215.477 28.5902 190.038 16.5981C165.23 4.90259 135.728 6.21857 108.582 10.3241C81.6771 14.3925 55.7744 28.34 38.6482 52.6115C21.3735 77.1146 8.91388 112.859 17.4028 141.662Z" fill="#F7F7F7"/>
<path d="M207.875 221.27L132.616 221.224C130.464 221.224 128.333 220.8 126.344 219.977C124.356 219.154 122.549 217.947 121.028 216.427C119.506 214.906 118.3 213.101 117.477 211.114C116.654 209.127 116.231 206.998 116.232 204.848V16.3756C116.231 14.224 116.655 12.0933 117.479 10.1054C118.303 8.11742 119.511 6.3113 121.034 4.79032C122.558 3.26934 124.367 2.06335 126.357 1.24138C128.348 0.419406 130.481 -0.00242654 132.635 1.04995e-05H207.894C210.051 1.87444e-06 212.186 0.425099 214.178 1.25095C216.17 2.07679 217.979 3.28715 219.502 4.81268C221.025 6.33821 222.232 8.14892 223.053 10.141C223.874 12.1332 224.293 14.2676 224.287 16.422V204.941C224.277 209.28 222.543 213.437 219.465 216.499C216.388 219.561 212.219 221.277 207.875 221.27Z" fill="#263238"/>
<path d="M207.85 6.70989H193.266C192.789 6.7195 192.319 6.82317 191.882 7.01493C191.446 7.20669 191.051 7.48275 190.722 7.82725C190.393 8.17175 190.135 8.57789 189.963 9.02232C189.791 9.46674 189.709 9.94067 189.722 10.4169V13.0581C189.734 13.5343 189.652 14.0082 189.48 14.4527C189.309 14.8971 189.051 15.3032 188.721 15.6477C188.392 15.9922 187.998 16.2683 187.561 16.4601C187.125 16.6518 186.654 16.7555 186.178 16.7651H157.733C157.257 16.7543 156.787 16.6498 156.351 16.4576C155.915 16.2654 155.521 15.9893 155.192 15.6451C154.863 15.3008 154.605 14.8952 154.433 14.4513C154.261 14.0074 154.178 13.534 154.189 13.0581V10.3798C154.2 9.90392 154.117 9.43051 153.945 8.98663C153.773 8.54275 153.515 8.1371 153.186 7.79285C152.857 7.4486 152.463 7.1725 152.027 6.98032C151.591 6.78814 151.121 6.68365 150.645 6.67282H132.739C129.695 6.67282 126.775 7.88032 124.621 10.0299C122.468 12.1796 121.256 15.0954 121.254 18.1367V202.105C121.253 203.611 121.549 205.103 122.125 206.495C122.701 207.887 123.546 209.152 124.612 210.217C125.678 211.283 126.943 212.128 128.336 212.705C129.729 213.281 131.222 213.578 132.73 213.578L207.878 213.624C210.91 213.607 213.812 212.392 215.951 210.244C218.089 208.096 219.289 205.19 219.289 202.161V18.1923C219.294 15.1551 218.092 12.24 215.947 10.0872C213.803 7.93438 210.89 6.71971 207.85 6.70989Z" fill="white"/>
<path d="M210.078 25.2815C210.078 25.3371 208.176 25.3928 205.838 25.4114C203.5 25.4299 201.598 25.4114 201.598 25.3557C201.598 25.3 203.453 25.2536 205.838 25.2258C208.222 25.198 210.078 25.2351 210.078 25.2815Z" fill="#263238"/>
<path d="M210.095 27.4502C210.095 27.4502 208.193 27.5523 205.855 27.5708C203.517 27.5894 201.615 27.5708 201.615 27.5708C201.615 27.5708 203.471 27.4595 205.855 27.4409C208.24 27.4224 210.095 27.4038 210.095 27.4502Z" fill="#263238"/>
<path d="M210.117 29.6188C210.117 29.6652 208.215 29.7209 205.877 29.7394C203.539 29.758 201.637 29.7394 201.637 29.6838C201.637 29.6281 203.492 29.5817 205.877 29.5632C208.261 29.5446 210.117 29.5724 210.117 29.6188Z" fill="#263238"/>
<path d="M150.467 70.062H132.941V87.5682H150.467V70.062Z" fill="#E7515B"/>
<path d="M184.186 71.9433C184.186 72.0268 178.323 72.0917 171.095 72.0917C163.868 72.0917 158.004 72.0268 158.004 71.9433C158.004 71.8598 163.868 71.7949 171.095 71.7949C178.323 71.7949 184.186 71.8598 184.186 71.9433Z" fill="#E7515B"/>
<path d="M205.05 77.3092C205.05 77.3927 194.52 77.4576 181.532 77.4576C168.543 77.4576 158.004 77.3927 158.004 77.3092C158.004 77.2257 168.534 77.1607 181.532 77.1607C194.529 77.1607 205.05 77.2257 205.05 77.3092Z" fill="#263238"/>
<path d="M204.503 81.146C204.503 81.2295 194.093 81.2944 181.253 81.2944C168.413 81.2944 158.004 81.2295 158.004 81.146C158.004 81.0625 168.413 80.9975 181.253 80.9975C194.093 80.9975 204.503 81.0625 204.503 81.146Z" fill="#263238"/>
<path d="M185.457 84.7976C185.457 84.8811 179.315 84.9461 171.735 84.9461C164.155 84.9461 158.004 84.8811 158.004 84.7976C158.004 84.7141 164.155 84.6492 171.735 84.6492C179.315 84.6492 185.457 84.7141 185.457 84.7976Z" fill="#263238"/>
<path d="M150.467 99.2265H132.941V116.733H150.467V99.2265Z" fill="#E7515B"/>
<path d="M184.186 101.145C184.186 101.229 178.323 101.294 171.095 101.294C163.868 101.294 158.004 101.229 158.004 101.145C158.004 101.062 163.868 100.997 171.095 100.997C178.323 100.997 184.186 101.025 184.186 101.145Z" fill="#E7515B"/>
<path d="M205.05 106.474C205.05 106.558 194.52 106.623 181.532 106.623C168.543 106.623 158.004 106.558 158.004 106.474C158.004 106.391 168.534 106.326 181.532 106.326C194.529 106.326 205.05 106.391 205.05 106.474Z" fill="#263238"/>
<path d="M204.503 110.311C204.503 110.394 194.093 110.459 181.253 110.459C168.413 110.459 158.004 110.394 158.004 110.311C158.004 110.227 168.413 110.162 181.253 110.162C194.093 110.162 204.503 110.227 204.503 110.311Z" fill="#263238"/>
<path d="M185.457 113.962C185.457 114.045 179.315 114.11 171.735 114.11C164.155 114.11 158.004 114.045 158.004 113.962C158.004 113.878 164.155 113.813 171.735 113.813C179.315 113.813 185.457 113.878 185.457 113.962Z" fill="#263238"/>
<path d="M150.467 128.391H132.941V145.898H150.467V128.391Z" fill="#E7515B"/>
<path d="M184.186 130.272C184.186 130.356 178.323 130.421 171.095 130.421C163.868 130.421 158.004 130.356 158.004 130.272C158.004 130.189 163.868 130.124 171.095 130.124C178.323 130.124 184.186 130.189 184.186 130.272Z" fill="#E7515B"/>
<path d="M205.05 135.638C205.05 135.722 194.52 135.787 181.532 135.787C168.543 135.787 158.004 135.722 158.004 135.638C158.004 135.555 168.534 135.49 181.532 135.49C194.529 135.49 205.05 135.564 205.05 135.638Z" fill="#263238"/>
<path d="M204.503 139.475C204.503 139.559 194.093 139.623 181.253 139.623C168.413 139.623 158.004 139.559 158.004 139.475C158.004 139.392 168.413 139.327 181.253 139.327C194.093 139.327 204.503 139.392 204.503 139.475Z" fill="#263238"/>
<path d="M185.457 143.127C185.457 143.21 179.315 143.275 171.735 143.275C164.155 143.275 158.004 143.21 158.004 143.127C158.004 143.043 164.155 142.978 171.735 142.978C179.315 142.978 185.457 143.052 185.457 143.127Z" fill="#263238"/>
<path d="M150.467 157.556H132.941V175.063H150.467V157.556Z" fill="#E7515B"/>
<path d="M184.186 159.447C184.186 159.521 178.323 159.595 171.095 159.595C163.868 159.595 158.004 159.521 158.004 159.447C158.004 159.372 163.868 159.289 171.095 159.289C178.323 159.289 184.186 159.363 184.186 159.447Z" fill="#455B64"/>
<path d="M205.05 164.813C205.05 164.887 194.52 164.961 181.532 164.961C168.543 164.961 158.004 164.887 158.004 164.813C158.004 164.738 168.534 164.664 181.532 164.664C194.529 164.664 205.05 164.729 205.05 164.813Z" fill="#263238"/>
<path d="M204.503 168.64C204.503 168.723 194.093 168.788 181.253 168.788C168.413 168.788 158.004 168.723 158.004 168.64C158.004 168.556 168.413 168.491 181.253 168.491C194.093 168.491 204.503 168.556 204.503 168.64Z" fill="#263238"/>
<path d="M185.457 172.301C185.457 172.376 179.315 172.45 171.735 172.45C164.155 172.45 158.004 172.376 158.004 172.301C158.004 172.227 164.155 172.153 171.735 172.153C179.315 172.153 185.457 172.218 185.457 172.301Z" fill="#263238"/>
<path d="M150.467 186.721H132.941V204.227H150.467V186.721Z" fill="#E0E0E0"/>
<path d="M184.186 188.612C184.186 188.695 178.323 188.76 171.095 188.76C163.868 188.76 158.004 188.695 158.004 188.612C158.004 188.528 163.868 188.463 171.095 188.463C178.323 188.463 184.186 188.528 184.186 188.612Z" fill="#E0E0E0"/>
<path d="M205.05 193.978C205.05 194.061 194.52 194.126 181.532 194.126C168.543 194.126 158.004 194.061 158.004 193.978C158.004 193.894 168.534 193.829 181.532 193.829C194.529 193.829 205.05 193.894 205.05 193.978Z" fill="#EBEBEB"/>
<path d="M204.503 197.805C204.503 197.888 194.093 197.953 181.253 197.953C168.413 197.953 158.004 197.888 158.004 197.805C158.004 197.721 168.413 197.656 181.253 197.656C194.093 197.656 204.503 197.721 204.503 197.805Z" fill="#EBEBEB"/>
<path d="M185.457 201.466C185.457 201.549 179.315 201.614 171.735 201.614C164.155 201.614 158.004 201.549 158.004 201.466C158.004 201.382 164.155 201.317 171.735 201.317C179.315 201.317 185.457 201.382 185.457 201.466Z" fill="#EBEBEB"/>
<g opacity="0.3">
<path opacity="0.3" d="M150.467 157.556H132.941V175.063H150.467V157.556Z" fill="black"/>
</g>
<g opacity="0.3">
<path opacity="0.3" d="M150.467 99.2265H132.941V116.733H150.467V99.2265Z" fill="black"/>
</g>
<path d="M194.242 16.2505L148.283 22.2538L156.506 85.0713L202.465 79.068L194.242 16.2505Z" fill="#F5F6F6"/>
<path d="M184.723 12.749L138.764 18.7524L146.987 81.5699L192.946 75.5666L184.723 12.749Z" fill="white"/>
<path d="M192.923 75.5855L192.868 75.2796C192.868 75.0758 192.803 74.7792 192.747 74.3529C192.636 73.5281 192.478 72.416 192.274 70.9332C191.875 67.9306 191.281 63.5192 190.539 58.0329C189.064 46.9861 187.013 31.3056 184.518 12.7614L184.731 12.9282L138.789 18.9521L138.965 18.7111C142.027 42.1763 144.857 63.8992 147.148 81.5352L146.953 81.3776L180.352 77.1146L189.63 75.9469L192.116 75.6504L192.942 75.5577L192.116 75.6782L189.695 76.0118L180.417 77.2629L146.953 81.7298H146.786V81.563C144.467 63.9548 141.619 42.2134 138.529 18.7574V18.5443H138.733L184.685 12.5204H184.87V12.7151C187.264 31.3334 189.286 47.0603 190.715 58.1256C191.411 63.6861 191.968 67.9954 192.339 70.9981C192.534 72.4716 192.663 73.6115 192.765 74.39L192.868 75.2611C192.951 75.4094 192.932 75.4928 192.923 75.5855Z" fill="#A42A29"/>
<path d="M168.471 27.7194C168.471 27.8398 163.47 28.5905 157.338 29.3968C151.205 30.203 146.158 30.7591 146.148 30.6386C146.139 30.5181 151.14 29.786 157.282 28.9705C163.424 28.1549 168.48 27.6081 168.471 27.7194Z" fill="#A42A29"/>
<path d="M181.27 31.6394C181.27 31.7506 173.597 32.8534 164.097 34.086C154.597 35.3186 146.878 36.2453 146.859 36.1248C146.841 36.0044 154.541 34.9108 164.041 33.6782C173.541 32.4457 181.279 31.4911 181.27 31.6394Z" fill="#A42A29"/>
<path d="M182.039 37.3019C182.039 37.4131 174.366 38.516 164.866 39.7578C155.366 40.9996 147.656 41.88 147.619 41.7966C147.582 41.7132 155.292 40.5826 164.792 39.3408C174.292 38.0989 182.02 37.2 182.039 37.3019Z" fill="#A42A29"/>
<path d="M182.789 43.0011C182.789 43.1123 175.107 44.2151 165.616 45.457C156.126 46.6988 148.388 47.607 148.379 47.4866C148.37 47.3661 156.042 46.2725 165.561 45.0399C175.08 43.8074 182.798 42.8899 182.789 43.0011Z" fill="#A42A29"/>
<path d="M183.538 48.6914C183.538 48.8026 175.866 49.9055 166.356 51.1473C156.847 52.3891 149.146 53.3066 149.146 53.1861C149.146 53.0657 156.819 51.9721 166.319 50.7303C175.819 49.4884 183.52 48.5709 183.538 48.6914Z" fill="#A42A29"/>
<path d="M184.303 54.3905C184.303 54.5017 176.621 55.6045 167.13 56.8464C157.639 58.0882 149.902 58.9964 149.893 58.8852C149.883 58.774 157.565 57.6619 167.074 56.4201C176.584 55.1783 184.266 54.27 184.303 54.3905Z" fill="#A42A29"/>
<path d="M185.014 60.0818C185.014 60.193 177.341 61.2958 167.841 62.5376C158.341 63.7795 150.631 64.697 150.641 64.5857C150.65 64.4745 158.313 63.3624 167.823 62.1206C177.332 60.8788 185.004 59.9613 185.014 60.0818Z" fill="#A42A29"/>
<path d="M169.862 67.8563C169.862 67.9675 165.742 68.607 160.639 69.2742C155.536 69.9415 151.361 70.3863 151.361 70.2658C151.361 70.1453 155.471 69.5152 160.584 68.8572C165.696 68.1992 169.843 67.7822 169.862 67.8563Z" fill="#A42A29"/>
<path d="M268.886 220.464C268.886 227.155 157.64 239.147 109.842 238.999C61.1356 238.869 6.50977 229.991 6.50977 223.3C6.50977 216.608 49.1119 209.574 101.446 209.574C153.78 209.574 268.886 213.782 268.886 220.464Z" fill="#E0E0E0"/>
<path d="M175.564 89.2274C175.499 89.2274 174.117 79.6263 172.493 67.7825C170.87 55.9387 169.599 46.3098 169.71 46.3006C169.821 46.2913 171.157 55.8924 172.79 67.7455C174.423 79.5985 175.639 89.2089 175.564 89.2274Z" fill="#A42A29"/>
<path d="M216.062 36.7079C216.062 36.7079 216.062 36.7635 216.062 36.8562L215.895 37.2825L215.264 38.9136L212.926 44.9096C210.959 49.9696 208.287 56.9573 205.411 64.7698C202.535 72.5823 200.076 79.5977 198.304 84.7782L196.216 90.8577C195.966 91.562 195.78 92.1181 195.641 92.5166L195.483 92.9429L195.428 93.0819C195.428 93.0819 195.428 93.0355 195.428 92.9336L195.558 92.498C195.681 92.1026 195.858 91.5466 196.086 90.8299C196.55 89.3842 197.237 87.2897 198.1 84.7134C199.825 79.5607 202.284 72.471 205.142 64.6771C207.999 56.8832 210.708 49.8492 212.722 44.8447C213.724 42.324 214.577 40.2851 215.134 38.8765C215.431 38.1907 215.654 37.6532 215.811 37.2639L215.997 36.8469C216.015 36.7991 216.037 36.7526 216.062 36.7079Z" fill="#A42A29"/>
<path d="M245.078 74.4732C245.078 74.5288 238.092 80.0337 229.38 86.7526C220.669 93.4715 213.562 98.893 213.516 98.8003C213.469 98.7076 220.502 93.2398 229.223 86.5116C237.943 79.7834 245.041 74.4176 245.078 74.4732Z" fill="#A42A29"/>
<path d="M158.51 91.016C158.454 91.016 155.727 87.5963 152.442 83.287C149.158 78.9776 146.514 75.4467 146.569 75.4003C146.625 75.354 149.353 78.82 152.646 83.1294C155.94 87.4388 158.566 90.9512 158.51 91.016Z" fill="#A42A29"/>
<path d="M241.769 118.058C241.769 118.132 237.437 116.937 232.148 115.389C226.86 113.841 222.573 112.544 222.592 112.479C222.61 112.414 226.925 113.6 232.213 115.148C237.502 116.696 241.788 117.993 241.769 118.058Z" fill="#A42A29"/>
<path d="M80.5331 91.099C75.5139 90.1723 63.481 89.3104 57.8125 92.4243C57.8125 92.4243 57.9053 97.5584 60.1875 99.0876C62.4698 100.617 81.5257 88.013 89.7734 107.604C89.7734 107.604 89.8755 92.7764 80.4959 91.099H80.5331Z" fill="#B72F49"/>
<path d="M53.7138 173.653L49.641 183.718C49.641 183.718 21.6323 177.657 6.41722 182.698C0.628072 184.598 -3.86223 198.926 5.98118 206.367C15.5463 213.578 73.8088 224.244 73.0666 224.254C72.3244 224.263 89.6826 224.606 89.6826 224.606L91.5381 209.018L123.833 209.602C148.298 207.285 149.272 182.587 136.543 179.742C122.209 176.545 100.305 175.108 100.305 175.108L96.8263 167.268L53.7138 173.653Z" fill="#8B383F"/>
<path d="M87.5119 160.151C87.3964 160.408 87.2565 160.653 87.0943 160.883C86.6892 161.529 86.243 162.148 85.7583 162.737C85.0423 163.63 84.2674 164.476 83.4388 165.267C81.4085 167.199 79.0772 168.789 76.5361 169.974C75.504 170.466 74.4372 170.881 73.3444 171.216C72.6115 171.451 71.8647 171.639 71.1084 171.782C70.836 171.855 70.5556 171.896 70.2734 171.902C70.2734 171.837 71.4425 171.615 73.2702 170.975C74.3366 170.607 75.3806 170.177 76.3969 169.687C77.6405 169.079 78.8403 168.386 79.9875 167.611C81.1328 166.839 82.2297 165.997 83.2718 165.09C84.1008 164.324 84.8816 163.507 85.6099 162.644C86.816 161.133 87.4562 160.114 87.5119 160.151Z" fill="#263238"/>
<path d="M100.435 165.739C100.435 165.841 99.2756 166.008 97.9396 166.545C96.6036 167.083 95.6294 167.759 95.5645 167.676C96.1775 167.011 96.9503 166.513 97.8097 166.23C98.6278 165.843 99.5324 165.674 100.435 165.739Z" fill="#263238"/>
<g opacity="0.3">
<path opacity="0.3" d="M73.2559 171.161C78.7894 169.338 83.5201 165.657 86.644 160.744C87.1263 161.732 87.327 162.833 87.2239 163.926C87.1207 165.02 86.7179 166.064 86.0595 166.944C87.8223 167.5 89.6964 166.713 91.4778 166.212C93.2591 165.712 95.523 165.647 96.6085 167.139C88.5866 169.02 80.4515 170.382 72.2539 171.217" fill="black"/>
</g>
<path d="M162.849 84.7688C162.752 84.5911 162.62 84.4353 162.46 84.3109C162.3 84.1866 162.117 84.0964 161.921 84.0459L162.45 82.6372C162.356 82.1712 162.173 81.7276 161.912 81.3305C161.531 80.8023 160.39 80.9691 160.39 80.9691L160.52 80.5799C160.631 80.3033 160.667 80.002 160.623 79.7072C160.579 79.4124 160.457 79.1346 160.269 78.9025L160.075 78.6986C159.635 78.3549 159.101 78.1515 158.544 78.1147C158.544 78.1147 159.101 76.7709 158.72 76.2612C157.338 74.5375 152.643 78.2352 151.651 78.6615C149.313 79.6717 151.289 79.8477 149.387 80.7282C149.242 80.8167 149.08 80.8755 148.912 80.9011C148.744 80.9267 148.573 80.9185 148.408 80.8771C148.243 80.8357 148.088 80.7618 147.951 80.6599C147.815 80.5579 147.701 80.4299 147.615 80.2833C146.859 78.6691 145.855 77.1836 144.637 75.8813C143.245 74.5282 142.104 74.7692 141.455 75.1028C141.382 75.1402 141.319 75.193 141.269 75.2576C141.219 75.3221 141.184 75.3969 141.166 75.4764C141.149 75.556 141.149 75.6385 141.167 75.7181C141.184 75.7976 141.219 75.8724 141.269 75.9369C142.041 76.911 142.75 77.9324 143.394 78.9951C143.811 79.8199 144.85 86.233 144.85 86.233L143.44 89.7917L128.55 119.902C128.55 119.902 99.6319 104.592 99.6876 104.147L100.615 125.119L122.39 136.453C124.255 137.427 126.311 137.981 128.414 138.076C130.516 138.17 132.614 137.804 134.56 137.002C136.505 136.2 138.251 134.981 139.675 133.433C141.099 131.884 142.165 130.043 142.8 128.039L150.593 97.9749L151.994 95.3707L162.57 88.4665C162.938 87.9288 163.157 87.304 163.206 86.6549C163.254 86.0058 163.131 85.3553 162.849 84.7688Z" fill="#8F5045"/>
<path d="M157.117 79.1533C156.783 79.4128 156.403 79.6259 156.059 79.8669L155.002 80.599C154.575 80.8956 154.13 81.1736 153.694 81.4516C153.435 81.4753 153.189 81.5681 152.979 81.7204C152.732 81.8887 152.502 82.0812 152.293 82.295L152.218 82.3784H152.126L151.949 82.2672H151.884L151.829 82.2208L151.68 82.0725L151.587 81.9613V81.8965L151.448 81.7667C151.448 81.7667 151.448 81.7667 151.402 81.7667C151.371 81.7428 151.337 81.724 151.3 81.7111C151.283 81.7022 151.264 81.6975 151.244 81.6975C151.225 81.6975 151.206 81.7022 151.188 81.7111C151.188 81.7111 151.133 81.7574 151.114 81.7945C151.075 81.8721 151.055 81.9578 151.055 82.0447C151.055 82.1317 151.075 82.2174 151.114 82.295C151.132 82.343 151.154 82.3895 151.179 82.434C151.207 82.4845 151.241 82.5313 151.281 82.573C151.32 82.6207 151.363 82.6642 151.411 82.7027L151.625 82.8603C151.697 82.9047 151.775 82.939 151.856 82.9622H151.94C151.7 83.2833 151.513 83.6398 151.383 84.0187C151.276 84.2983 151.252 84.6029 151.315 84.8957C151.377 85.1885 151.524 85.4569 151.736 85.6683C151.915 85.8506 152.15 85.968 152.404 86.0019C152.492 86.0251 152.585 86.0251 152.673 86.0019C152.725 85.9853 152.773 85.9568 152.812 85.9185H152.756C152.882 85.8715 152.985 85.7788 153.044 85.659C153.058 85.636 153.066 85.61 153.068 85.5832C153.07 85.5563 153.065 85.5295 153.054 85.5049C153.043 85.4803 153.026 85.4587 153.005 85.442C152.984 85.4253 152.959 85.4139 152.933 85.4088H152.719C152.583 85.3754 152.45 85.332 152.32 85.2791C152.188 85.207 152.084 85.0928 152.023 84.9547C151.965 84.7423 151.955 84.5192 151.995 84.3025C152.035 84.0858 152.124 83.881 152.255 83.7036C152.48 83.3225 152.754 82.9734 153.072 82.6657C153.239 82.5081 153.397 82.3598 153.573 82.2116C153.672 82.1323 153.765 82.0455 153.851 81.9521C154.359 81.6702 154.852 81.3608 155.326 81.0253C155.67 80.7936 155.994 80.5342 156.319 80.2654C156.644 79.9966 156.931 79.6352 157.247 79.3387C157.191 79.1811 157.154 79.1348 157.117 79.1533Z" fill="#703E38"/>
<path d="M158.9 81.9336C158.457 82.103 158.048 82.351 157.694 82.6657L156.487 83.5925C156.098 83.8798 155.699 84.1485 155.318 84.4358C154.938 84.7231 154.595 85.0568 154.242 85.3626C154.242 85.3626 154.242 85.4367 154.242 85.4275C154.698 85.2797 155.141 85.0969 155.569 84.8807C156.006 84.6431 156.43 84.3832 156.84 84.1022C157.248 83.8334 157.647 83.5647 158.037 83.2867C158.469 83.0272 158.842 82.6799 159.132 82.2672C159.154 82.2305 159.165 82.1881 159.164 82.1451C159.162 82.1022 159.149 82.0605 159.124 82.0253C159.099 81.99 159.065 81.9626 159.025 81.9463C158.986 81.93 158.942 81.9256 158.9 81.9336Z" fill="#703E38"/>
<path d="M160.627 85.1026C160.422 85.1439 160.23 85.2364 160.07 85.3713C159.857 85.5103 159.643 85.6586 159.439 85.8162L158.177 86.7429C157.324 87.3453 156.415 87.8643 155.598 88.513C155.303 88.6664 154.992 88.7876 154.67 88.8744C154.259 88.9678 153.828 88.9015 153.464 88.6891C153.298 88.5985 153.159 88.4645 153.062 88.3013C152.966 88.1381 152.916 87.9518 152.917 87.7623C152.937 87.5363 153 87.3162 153.102 87.1136C153.214 86.9005 153.306 86.6781 153.436 86.4742C153.436 86.4742 153.436 86.4186 153.39 86.4742C153.2 86.6595 153.026 86.8611 152.87 87.0766C152.727 87.3006 152.635 87.5539 152.601 87.8179C152.59 88.0464 152.637 88.2741 152.74 88.4787C152.842 88.6833 152.996 88.858 153.186 88.9857C153.551 89.2411 153.994 89.3622 154.438 89.3286C154.335 89.4115 154.247 89.5118 154.179 89.6251C154.029 89.8996 153.973 90.2149 154.018 90.524C154.063 90.8331 154.208 91.1192 154.429 91.3396C154.686 91.5961 155.006 91.7813 155.357 91.8771C155.573 91.9266 155.794 91.9484 156.016 91.942C156.238 91.942 156.563 91.942 156.656 91.6918C156.682 91.6554 156.696 91.6116 156.696 91.5666C156.696 91.5217 156.682 91.4779 156.656 91.4415C156.507 91.2933 156.331 91.3396 156.146 91.3581C155.994 91.372 155.842 91.372 155.691 91.3581C155.412 91.3523 155.138 91.2792 154.893 91.145C154.695 91.0089 154.547 90.8127 154.47 90.5856C154.393 90.3584 154.392 90.1126 154.466 89.8846C154.546 89.6389 154.702 89.4247 154.912 89.273C155.346 89.1882 155.759 89.0181 156.127 88.7725C156.993 88.359 157.811 87.8525 158.567 87.2619C158.985 86.9561 159.384 86.6317 159.773 86.3352C159.987 86.1636 160.185 85.9745 160.367 85.7698C160.542 85.6262 160.674 85.437 160.747 85.2231C160.747 85.2231 160.655 85.0933 160.627 85.1026Z" fill="#703E38"/>
<path d="M62.9547 96.5297L54.002 99.4489L60.4034 116.075L76.9823 117.836L87.2617 108.772L87.7905 99.1709L77.8729 96.5853L62.9547 96.5297Z" fill="#D0D8DC"/>
<path d="M56.6326 98.4579C56.6326 98.4579 64.7411 115.769 76.0133 112.897C87.2854 110.024 85.1237 98.4764 85.1237 98.4764C85.1237 98.4764 97.4628 100.84 101.563 104.324C105.664 107.809 104.402 116.446 104.402 116.446L102.918 131.988L99.2812 161.847C99.2812 161.847 103.92 173.172 97.5463 175.841L85.4856 179.326L56.3636 181.411C56.3636 181.411 47.0861 185.118 44.0523 182.004C41.0186 178.89 37.8086 172.653 37.8086 172.653L48.589 101.479L56.6326 98.4579Z" fill="#D0D8DC"/>
<path d="M98.1729 102.359C98.5069 102.507 128.39 119.708 128.39 119.708L143.011 89.2921C143.382 93.6293 148.123 99.1063 152.52 97.2343C152.52 97.2343 140.302 148.307 132.713 146.166C130.551 145.564 100.066 130.69 100.066 130.69L93.4043 119.68L98.1729 102.359Z" fill="#D0D8DC"/>
<g opacity="0.3">
<path opacity="0.3" d="M56.6555 146.759C54.8988 142.292 53.1515 137.828 51.4134 133.368C51.1537 132.719 50.764 131.959 50.0681 131.913C49.7407 131.929 49.4318 132.069 49.2043 132.305C48.9768 132.541 48.8478 132.855 48.8435 133.182C48.8091 133.857 48.8684 134.534 49.0197 135.193C49.6321 138.159 50.0867 140.17 51.7289 142.338C54.9298 146.564 53.3711 148.946 53.3711 148.946C54.169 154.432 54.503 161.985 53.3711 167.824L55.7184 174.469C56.7111 169.233 59.7729 164.636 59.8007 159.307C59.8471 154.97 58.2234 150.8 56.6555 146.759Z" fill="black"/>
</g>
<g opacity="0.3">
<path opacity="0.3" d="M102.9 132.08C107.641 133.933 111.974 136.713 116.622 138.771C114.508 135.211 111.364 132.375 107.604 130.634C106.641 130.143 105.545 129.975 104.478 130.152C103.429 130.412 102.733 131.079 103.002 132.126" fill="black"/>
</g>
<g opacity="0.3">
<path opacity="0.3" d="M127.594 119.476C126.063 119.606 125.051 121.117 124.439 122.534C122.721 126.561 122.318 131.027 123.289 135.296C123.465 136.065 123.845 136.964 124.634 137.029C124.917 137.03 125.193 136.941 125.422 136.774C125.651 136.607 125.82 136.372 125.905 136.102C126.059 135.553 126.085 134.976 125.979 134.415C125.692 131.783 124.949 129.633 125.339 126.529C125.78 124.09 126.538 121.719 127.594 119.476Z" fill="black"/>
</g>
<path d="M80.8716 86.7061L78.7284 101.617C78.7284 101.617 70.5638 107.567 60.9054 98.8372C62.233 91.8881 61.5309 84.7043 58.8828 78.143C58.8828 78.143 60.2467 78.0781 62.4177 78.143C62.4177 78.143 65.7578 89.0415 80.8716 86.7524V86.7061Z" fill="#703E38"/>
<path d="M57.1605 68.5418C59.2943 90.7003 80.948 91.627 85.596 82.8693C87.0897 80.0891 88.2215 75.1032 88.6576 69.7836C88.7689 68.5789 88.8338 67.3648 88.8524 66.1415C89.0101 57.8657 87.3401 49.6918 82.5344 47.9866C65.835 42.0461 55.036 46.3833 57.1605 68.5418Z" fill="#8F5045"/>
<path d="M89.4217 49.5251C90.1732 47.9682 89.4217 45.6884 87.3992 45.4938L87.3435 45.3826C87.527 44.7042 87.4509 43.9819 87.1302 43.3565C86.8094 42.7311 86.267 42.2475 85.6086 42V41.9444C85.6617 41.9565 85.7121 41.9785 85.7571 42.0092L85.5994 41.9073C85.5905 41.5445 85.5056 41.1876 85.3501 40.8596C85.1946 40.5316 84.972 40.2398 84.6966 40.0032C84.4212 39.7665 84.0991 39.5901 83.7512 39.4855C83.4034 39.3809 83.0374 39.3503 82.677 39.3958C82.4594 39.4205 82.2449 39.467 82.0368 39.5348C81.7804 39.1424 81.4173 38.831 80.9901 38.6374C80.5629 38.4437 80.0892 38.3756 79.6247 38.4413C79.4249 38.4583 79.2283 38.5019 79.0402 38.571C78.7664 38.3243 78.4416 38.1409 78.0889 38.0336C77.7361 37.9262 77.3641 37.8978 76.9991 37.9501C76.8008 37.9705 76.6049 38.0109 76.4147 38.0706C75.8821 37.6814 75.2249 37.5012 74.568 37.5645C73.9112 37.6277 73.3005 37.9298 72.8521 38.4135C72.583 38.0668 72.2262 37.7982 71.8185 37.6353C71.4108 37.4724 70.9669 37.4211 70.5327 37.4867C70.0616 37.5284 69.6101 37.6948 69.2246 37.9686C68.9603 37.7562 68.655 37.6005 68.3278 37.5112C68.0006 37.4219 67.6584 37.4009 67.3227 37.4496C66.7619 37.4905 66.2302 37.7153 65.8105 38.0891C65.371 37.8943 64.8864 37.8238 64.4096 37.8852C64.1809 37.913 63.9565 37.969 63.7416 38.052C63.2735 37.8525 62.7596 37.7851 62.2558 37.857C61.752 37.9289 61.2776 38.1374 60.8842 38.4598C60.4723 38.2829 60.0216 38.2158 59.576 38.2652C59.0217 38.3012 58.4957 38.523 58.0832 38.8947C57.6707 39.2663 57.3959 39.7662 57.303 40.3133H57.2288C56.8913 40.3401 56.5624 40.4335 56.2613 40.5881C55.9601 40.7428 55.6927 40.9555 55.4744 41.2141C55.2561 41.4726 55.0913 41.7719 54.9895 42.0945C54.8878 42.4171 54.8511 42.7567 54.8816 43.0935C54.4896 42.9532 54.0697 42.9087 53.657 42.9638C53.2411 43.0077 52.8413 43.1488 52.4902 43.3757C52.139 43.6027 51.8463 43.9091 51.6358 44.2701C51.4253 44.6311 51.3029 45.0366 51.2785 45.4537C51.2541 45.8708 51.3284 46.2877 51.4953 46.6708H51.3562C50.9655 46.707 50.5879 46.8298 50.2509 47.0304C49.9139 47.231 49.626 47.5042 49.4081 47.8302C49.1903 48.1561 49.0481 48.5265 48.9919 48.9143C48.9357 49.3022 48.9669 49.6977 49.0832 50.0719C47.0143 50.8226 46.9679 53.677 48.4987 54.8447C47.9032 55.304 47.5101 55.9769 47.4027 56.7207C47.2953 57.4646 47.4821 58.221 47.9235 58.8297C47.8489 59.2872 47.8804 59.7556 48.0155 60.1991C48.1506 60.6425 48.3858 61.0491 48.7028 61.3875C48.3854 62.0037 48.2932 62.7112 48.4423 63.3879C48.5913 64.0647 48.9722 64.6683 49.5192 65.0945C50.5954 72.1099 54.0374 79.1161 61.1718 82.9714L59.7523 78.0133C59.7523 78.0133 56.7742 73.7039 57.4144 70.4603C58.0545 67.2167 60.0492 69.5336 60.0492 69.5336C60.0492 69.5336 64.2333 60.8407 63.6674 55.4749L63.0922 50.109C63.0922 50.109 78.6876 44.7617 86.425 51.7215L86.6199 51.6659C86.645 51.9228 86.7217 52.172 86.8455 52.3986C86.9692 52.6251 87.1375 52.8244 87.3402 52.9845C87.5429 53.1446 87.7759 53.2622 88.0251 53.3302C88.2744 53.3982 88.5348 53.4153 88.7908 53.3804C91.0174 53.2136 91.0452 50.2758 89.4217 49.5251Z" fill="#0E3944"/>
<path d="M59.4827 68.4492C59.4827 68.4492 55.7715 64.2603 52.4871 66.9015C49.2028 69.5427 54.918 77.2532 58.5364 76.9104C62.1548 76.5675 59.4642 68.4492 59.4642 68.4492H59.4827Z" fill="#8F5045"/>
<path d="M59.8164 210.037C59.8164 210.037 35.3795 217.359 34.025 217.831C25.5732 220.806 31.4922 237.571 47.6814 232.956C50.7059 232.344 71.3112 225.894 71.3112 225.894L59.8164 210.037Z" fill="#0E3944"/>
<path d="M48.9477 224.402C48.725 223.717 48.4838 223.04 48.2147 222.373C47.9457 221.705 47.6673 221.094 47.3612 220.464C47.1198 219.823 46.7055 219.262 46.1643 218.842C46.134 218.821 46.0991 218.808 46.0627 218.805C46.0262 218.801 45.9894 218.806 45.9554 218.82C45.9215 218.833 45.8914 218.855 45.868 218.883C45.8445 218.912 45.8284 218.945 45.821 218.981C45.7975 219.639 45.931 220.293 46.2107 220.89C46.4334 221.548 46.656 222.215 46.8694 222.882C47.0828 223.55 47.2869 224.208 47.491 224.884C47.5741 225.594 47.8501 226.267 48.2889 226.83C48.3678 226.892 48.4603 226.934 48.5586 226.953C48.6569 226.972 48.7583 226.967 48.8544 226.939C48.9505 226.911 49.0385 226.86 49.1112 226.791C49.1839 226.722 49.2392 226.637 49.2724 226.543C49.3857 225.813 49.2724 225.066 48.9477 224.402Z" fill="#D0D8DC"/>
<path d="M54.3733 224.198C53.8444 223.16 53.3527 222.103 52.8703 221.047C52.629 220.528 52.3878 220.009 52.128 219.499C51.8682 218.989 51.6641 218.396 51.1446 218.257L51.0332 218.137C50.959 218.044 50.7642 218.072 50.7642 218.211C50.7642 218.35 50.6436 218.489 50.6157 218.665C50.602 218.794 50.602 218.925 50.6157 219.054C50.6667 219.369 50.7443 219.679 50.8477 219.981C51.0054 220.528 51.2002 221.065 51.4044 221.603C51.8497 222.706 52.3321 223.771 52.8795 224.837C52.9335 224.968 53.0214 225.083 53.1343 225.168C53.2472 225.254 53.381 225.308 53.5218 225.325C53.6626 225.342 53.8055 225.322 53.9355 225.265C54.0656 225.209 54.1783 225.118 54.262 225.004C54.3541 224.893 54.4135 224.759 54.4331 224.617C54.4528 224.474 54.4321 224.329 54.3733 224.198Z" fill="#D0D8DC"/>
<path d="M90.5577 208.49C90.5577 208.49 115.913 208.925 117.323 208.879C125.673 208.638 128.196 222.678 115.032 223.614C111.998 223.828 86.8281 224.439 86.8281 224.439L90.5577 208.49Z" fill="#0E3944"/>
<path d="M97.1295 212.984C97.1174 212.919 97.0871 212.859 97.0422 212.81C96.9973 212.761 96.9396 212.726 96.8757 212.709C96.8118 212.691 96.7443 212.692 96.6809 212.712C96.6174 212.731 96.5607 212.767 96.5172 212.817C96.3333 213.102 96.1985 213.415 96.1182 213.744C96.0162 214.105 95.9141 214.467 95.8306 214.828C95.645 215.542 95.5059 216.265 95.3853 216.988C95.2394 217.7 95.1433 218.421 95.0977 219.147C95.0977 219.907 95.9512 220.704 96.6656 220.139C96.7703 220.058 96.8515 219.952 96.9005 219.829C96.9494 219.707 96.9645 219.574 96.944 219.443C96.9213 219.322 96.8705 219.208 96.7955 219.11C96.9509 218.209 97.0378 217.299 97.0553 216.385L97.1388 214.708C97.1388 214.513 97.1388 214.319 97.1388 214.124C97.2055 213.747 97.2024 213.36 97.1295 212.984Z" fill="#D0D8DC"/>
<path d="M101.938 213.282C101.907 213.206 101.866 213.134 101.817 213.068C101.808 213.062 101.796 213.058 101.785 213.058C101.773 213.058 101.761 213.062 101.752 213.068C101.352 213.509 101.122 214.077 101.103 214.672C100.982 215.274 100.917 215.886 100.852 216.525C100.647 217.782 100.539 219.052 100.527 220.325C100.527 221.122 101.854 221.103 101.919 220.325C101.919 220.325 101.919 220.241 101.919 220.195C101.97 220.137 102.011 220.072 102.04 220C102.141 219.683 102.182 219.35 102.16 219.018C102.16 218.712 102.16 218.397 102.16 218.091C102.16 217.498 102.234 216.905 102.29 216.312C102.346 215.719 102.411 215.126 102.466 214.533C102.522 214.097 102.504 213.282 101.938 213.282Z" fill="#D0D8DC"/>
<path d="M109.705 142.663C112.173 147.408 112.489 159.808 111.088 163.246C109.473 167.138 100.028 166.555 100.028 166.555C100.028 166.555 96.7256 135.573 93.469 120.004C90.2124 104.435 82.252 95.4453 82.252 95.4453C82.252 95.4453 98.8687 94.1942 102.404 103.119C104.14 107.358 104.867 111.942 104.528 116.51C104.47 117.274 104.359 118.033 104.194 118.781H104.333C104.881 118.781 106.792 119.429 108.815 125.87C111.208 133.479 108.573 141.199 108.573 141.199C109.051 141.604 109.437 142.106 109.705 142.672V142.663Z" fill="#EF4153"/>
<path d="M90.2833 109.486C90.2833 109.486 92.0461 99.6993 88.1309 95.5845C84.2156 91.4697 80.4395 91.1361 80.4395 91.1361C80.4395 91.1361 85.5145 94.9821 86.4515 97.7716C87.3886 100.561 90.2833 109.486 90.2833 109.486Z" fill="#CE374C"/>
<path d="M94.4805 119.884C97.9973 119.338 101.395 118.197 104.528 116.51C104.471 117.274 104.359 118.033 104.194 118.781C104.194 118.781 98.0339 120.292 94.4805 119.884Z" fill="#CE374C"/>
<path d="M109.701 142.663C106.314 143.25 102.874 143.47 99.4395 143.321C99.4395 143.321 106.064 142.645 108.569 141.19C109.047 141.595 109.433 142.097 109.701 142.663Z" fill="#CE374C"/>
<path d="M69.0131 110.024C69.0131 110.024 70.9615 99.8294 69.6626 96.8174C68.3637 93.8055 58.26 91.4794 57.4621 92.5266C56.6642 93.5738 55.9776 96.4653 57.3136 99.6996C57.3136 99.6996 63.4556 99.9498 69.0131 110.024Z" fill="#CE374C"/>
<path d="M80.5347 91.0985L79.375 97.1409C83.3552 98.3179 87.1313 101.293 89.7756 107.604C89.7756 107.604 89.8776 92.776 80.4976 91.0985H80.5347Z" fill="#B72F49"/>
<path d="M76.0999 137.853C78.8368 163.886 72.491 172.569 72.491 172.569C72.491 172.569 53.5928 177.203 49.6962 173.783C45.7997 170.364 47.8407 157.843 47.8407 157.843C47.0572 156.361 46.3511 154.839 45.7255 153.284C45.243 152.125 44.7235 150.781 44.2411 149.326C43.7586 147.871 43.3133 146.333 42.9515 144.739C42.2033 141.626 42.3349 138.366 43.3319 135.323C43.5594 134.571 43.8706 133.847 44.2596 133.164C44.2596 133.164 38.8694 118.484 39.7322 111.608C39.9065 110.167 40.3941 108.782 41.1609 107.549C45.308 100.719 56.5616 98.4666 56.5616 98.4666C59.8458 98.9671 69.2624 103.378 72.927 119.17L76.0999 137.853Z" fill="#EF4153"/>
<path d="M69.4392 123.535C66.9806 127.594 49.873 129.726 49.873 129.726C49.873 129.726 40.4656 147.556 49.1772 151.745C57.731 155.85 71.6101 150.698 72.1204 150.512C69.2629 153.45 49.7338 157.444 45.7723 153.293C45.5893 153.109 45.4387 152.896 45.327 152.662C44.8467 151.601 44.5038 150.483 44.3065 149.335C43.5675 144.706 43.257 140.019 43.3787 135.332C43.6063 134.58 43.9175 133.856 44.3065 133.173C44.3065 133.173 38.9163 118.493 39.7791 111.617C39.9534 110.176 40.441 108.791 41.2078 107.558C51.413 106.631 54.354 125.268 54.354 125.268C57.295 125.963 69.4113 123.553 69.4113 123.553L69.4392 123.535Z" fill="#CE374C"/>
<path d="M66.7043 210.612L62.2789 203.291L50.9789 161.467C50.9789 161.467 42.3973 157.139 36.135 167.954C35.8845 168.39 47.1473 198.175 50.2831 206.46L51.0903 214.495C51.0903 214.495 51.0903 224.069 51.6469 224.875C52.0958 225.44 52.698 225.865 53.3818 226.098C53.3531 226.436 53.3991 226.777 53.5166 227.095C53.6341 227.414 53.8203 227.703 54.0619 227.941C54.3035 228.18 54.5947 228.363 54.9149 228.477C55.235 228.591 55.5763 228.633 55.9146 228.6C55.9146 228.6 56.2949 231.214 58.3081 230.741C58.8576 230.64 59.3789 230.423 59.8367 230.103C60.2945 229.783 60.6781 229.369 60.9615 228.888C60.9615 228.888 61.1378 232.224 62.9098 231.77C64.6818 231.316 64.9044 229.87 65.2106 229.379C65.5167 228.888 65.6281 223.967 65.6281 223.967L65.1642 215.885L70.0349 219.416C71.4172 220.019 73.4304 220.742 74.5066 219.676L66.7043 210.612Z" fill="#8F5045"/>
<path d="M41.2197 108.995C33.7417 112.211 33.3706 152.654 33.2871 161.819C33.2871 161.819 47.7514 202.374 48.6235 204.635C50.173 208.675 62.8745 200.928 62.8745 200.928L51.2399 159.938L50.1822 130.801C50.1822 130.801 52.1677 121.645 48.8555 115.111C45.5433 108.578 41.2197 108.995 41.2197 108.995Z" fill="#D0D8DC"/>
<path d="M241.611 108.17H126.802C124.976 108.17 123.225 108.894 121.934 110.184C120.643 111.473 119.918 113.222 119.918 115.046V160.874C119.92 162.696 120.647 164.443 121.937 165.73C123.228 167.018 124.978 167.741 126.802 167.741H241.611C243.435 167.741 245.184 167.018 246.475 165.73C247.766 164.443 248.492 162.696 248.495 160.874V115.046C248.495 113.222 247.769 111.473 246.478 110.184C245.187 108.894 243.436 108.17 241.611 108.17Z" fill="#FAFBFB"/>
<path d="M241.611 108.17L150.469 108.29H127.683C126.747 108.237 125.808 108.331 124.9 108.568C124.005 108.828 123.176 109.277 122.469 109.884C121.759 110.484 121.181 111.224 120.772 112.058C120.363 112.893 120.132 113.803 120.094 114.731V126.167V148.928V160.309C120.028 161.23 120.15 162.156 120.453 163.029C120.756 163.902 121.234 164.704 121.857 165.387C122.481 166.064 123.238 166.605 124.081 166.975C124.924 167.345 125.835 167.537 126.756 167.537L217.898 167.648H240.683C241.62 167.699 242.558 167.605 243.466 167.37C244.369 167.108 245.207 166.66 245.925 166.054C246.645 165.447 247.231 164.697 247.646 163.851C248.062 163.006 248.297 162.084 248.337 161.143V149.772V127.011V115.639C248.406 114.691 248.281 113.739 247.97 112.84C247.659 111.942 247.168 111.116 246.528 110.413C245.904 109.725 245.146 109.172 244.3 108.786C243.455 108.4 242.54 108.191 241.611 108.17ZM241.611 108.17C242.566 108.171 243.509 108.37 244.383 108.754C245.257 109.139 246.041 109.7 246.686 110.403C247.332 111.106 247.83 111.932 248.149 112.832C248.468 113.732 248.601 114.687 248.541 115.639V127.02V149.781V161.161C248.501 162.123 248.262 163.066 247.839 163.93C247.416 164.795 246.818 165.562 246.083 166.184C245.349 166.807 244.493 167.268 243.568 167.537C242.641 167.785 241.679 167.882 240.72 167.825H217.935L126.793 167.945C125.808 167.942 124.834 167.734 123.933 167.335C123.032 166.936 122.224 166.355 121.56 165.628C120.906 164.902 120.405 164.052 120.086 163.129C119.767 162.206 119.637 161.227 119.705 160.253V148.9V126.14V114.75C119.744 113.778 119.986 112.825 120.416 111.952C120.846 111.079 121.454 110.305 122.2 109.681C122.94 109.048 123.807 108.58 124.742 108.309C125.677 108.065 126.645 107.971 127.609 108.031H150.395L241.611 108.17Z" fill="#A42A29"/>
<path d="M235.184 132.256C235.184 132.488 212.778 132.664 185.15 132.664C157.522 132.664 135.107 132.488 135.107 132.256C135.107 132.024 157.503 131.857 185.15 131.857C212.797 131.857 235.184 132.033 235.184 132.256Z" fill="#A42A29"/>
<path d="M235.184 139.337C235.184 139.569 212.778 139.745 185.15 139.745C157.522 139.745 135.107 139.569 135.107 139.337C135.107 139.105 157.503 138.938 185.15 138.938C212.797 138.938 235.184 139.142 235.184 139.337Z" fill="#A42A29"/>
<path d="M187.989 146.444C187.303 146.562 186.607 146.615 185.911 146.602L180.242 146.723C175.464 146.797 168.85 146.843 161.548 146.843C154.247 146.843 147.632 146.797 142.854 146.723L137.186 146.602C136.489 146.615 135.794 146.562 135.107 146.444C135.793 146.321 136.489 146.268 137.186 146.287L142.854 146.157C147.641 146.083 154.247 146.036 161.548 146.036C168.85 146.036 175.464 146.083 180.242 146.157L185.911 146.287C186.607 146.268 187.304 146.321 187.989 146.444Z" fill="#A42A29"/>
<path d="M233.565 152.005C233.741 152.153 231.579 154.915 228.759 158.168L227.265 159.854L226.978 160.179L226.69 159.873C224.5 157.51 222.979 155.721 223.127 155.601C223.276 155.48 224.983 157.046 227.247 159.308H226.681C227.154 158.752 227.608 158.177 228.147 157.593C230.93 154.387 233.361 151.866 233.565 152.005Z" fill="#A42A29"/>
<path d="M237.956 152.005C238.123 152.153 236.453 154.359 234.245 156.936C233.271 158.048 232.389 159.058 231.629 159.808L231.369 160.077L231.155 159.818C230.274 158.724 229.764 157.964 229.857 157.909C229.949 157.853 230.627 158.4 231.619 159.391H231.155C231.796 158.567 232.658 157.538 233.633 156.398C235.841 153.831 237.789 151.866 237.956 152.005Z" fill="#A42A29"/>
<path d="M196.914 100.858C195.609 98.6339 193.757 96.7804 191.533 95.4732L191.366 95.3713L187.757 93.8514L183.731 93.3139C182.343 93.4062 180.964 93.5919 179.602 93.8699L178.674 94.0646L178.257 94.1943C177.999 94.2575 177.745 94.3348 177.496 94.426L176.874 94.6669C176.643 94.7596 176.42 94.8523 176.197 94.9635L175.511 95.3435C175.381 95.4269 175.242 95.4825 175.112 95.5659C172.924 96.8863 171.09 98.7183 169.768 100.904C169.684 101.043 169.62 101.173 169.545 101.312C169.471 101.451 169.286 101.757 169.165 101.988C169.044 102.22 168.961 102.442 168.868 102.665C168.775 102.887 168.692 103.073 168.618 103.286C168.543 103.499 168.46 103.795 168.386 104.046C168.311 104.296 168.302 104.324 168.265 104.463V104.667C168.137 105.252 168.057 105.847 168.024 106.446C167.898 107.032 167.817 107.627 167.783 108.225V108.42C167.783 108.503 167.783 108.587 167.783 108.67C167.753 109.89 167.919 111.107 168.274 112.275C168.274 112.275 168.274 112.275 168.274 112.331C168.269 112.346 168.269 112.362 168.274 112.377V112.442C168.622 113.663 169.121 114.837 169.759 115.936C170.727 117.589 172.006 119.039 173.525 120.208C173.869 120.477 174.23 120.699 174.592 120.931C174.768 121.042 174.926 121.172 175.102 121.274C176.218 121.921 177.412 122.422 178.656 122.766L179.584 122.961C180.196 123.087 180.815 123.174 181.439 123.22H181.643C184.301 123.576 187.007 123.221 189.483 122.191C190.185 122.013 190.853 121.719 191.459 121.32C193.682 120.017 195.535 118.166 196.84 115.945C198.182 113.649 198.89 111.037 198.89 108.378C198.89 105.719 198.182 103.108 196.84 100.811L196.914 100.858Z" fill="#EBEBEB"/>
<path d="M196.912 100.857C196.243 99.7244 195.429 98.6838 194.49 97.762C193.549 96.845 192.495 96.051 191.354 95.3988L187.736 93.8882L183.71 93.3785C182.214 93.4944 180.729 93.7174 179.266 94.0458C178.898 94.1144 178.536 94.2073 178.18 94.3238C177.824 94.4248 177.474 94.5454 177.132 94.6852C176.445 94.9697 175.781 95.3074 175.147 95.6954C174.044 96.3059 173.05 97.0951 172.206 98.0308C171.287 98.8873 170.516 99.8892 169.923 100.996L169.478 101.83C169.328 102.11 169.195 102.397 169.079 102.692C168.952 102.994 168.843 103.304 168.754 103.619L168.485 104.546V104.75L168.253 106.483V106.529L168.021 108.271V108.466C168.021 108.809 168.021 109.133 168.021 109.458C168.021 109.782 168.068 110.116 168.114 110.44C168.198 111.084 168.338 111.72 168.532 112.34V112.395C169.047 114.198 169.9 115.887 171.046 117.372C171.612 118.121 172.252 118.81 172.957 119.429C173.675 120.032 174.435 120.583 175.23 121.079C176.327 121.715 177.499 122.213 178.718 122.562L179.479 122.719C179.731 122.772 179.984 122.812 180.24 122.84L181.761 123.062H181.808C183.086 123.411 184.435 123.411 185.714 123.062H185.769C187.066 123.082 188.346 122.763 189.48 122.135C190.498 121.847 191.456 121.379 192.31 120.755C195.453 118.647 197.675 115.422 198.523 111.736C199.371 108.05 198.781 104.18 196.874 100.913L196.912 100.857ZM196.912 100.857C198.004 102.714 198.685 104.784 198.907 106.927C199.13 109.069 198.889 111.234 198.201 113.276C197.517 115.324 196.403 117.204 194.935 118.79C194.198 119.58 193.38 120.291 192.496 120.912C191.625 121.57 190.645 122.068 189.601 122.386C188.423 123.091 187.078 123.469 185.704 123.479H185.751C184.399 123.845 182.974 123.845 181.622 123.479L180.054 123.275C179.795 123.229 179.526 123.21 179.275 123.155L178.514 123.007C177.248 122.662 176.031 122.155 174.896 121.496C174.074 120.979 173.284 120.413 172.53 119.8C171.798 119.159 171.13 118.449 170.536 117.678C169.333 116.141 168.45 114.38 167.938 112.497V112.442C167.741 111.787 167.598 111.118 167.511 110.44C167.465 110.102 167.437 109.762 167.428 109.42C167.428 109.078 167.428 108.735 167.428 108.401V108.197L167.678 106.344V106.39L167.929 104.537V104.333L168.216 103.406C168.309 103.091 168.448 102.794 168.569 102.479C168.699 102.179 168.845 101.885 169.005 101.599L169.487 100.737C170.121 99.6024 170.936 98.5788 171.899 97.7064C172.783 96.7574 173.822 95.9647 174.97 95.3617C175.624 94.971 176.31 94.6362 177.021 94.3609C177.375 94.2227 177.738 94.1051 178.106 94.0087C178.464 93.896 178.83 93.8093 179.201 93.7492C180.679 93.4458 182.176 93.2476 183.682 93.1561L187.699 93.7214L191.308 95.2505C192.443 95.918 193.493 96.7209 194.435 97.6415C195.398 98.5997 196.231 99.6811 196.912 100.857Z" fill="#A42A29"/>
<path d="M191.191 101.015C188.556 102.943 181.755 109.411 179.417 111.367L177.905 109.763C177.165 108.79 176.15 108.061 174.991 107.669C174.865 107.646 174.734 107.654 174.611 107.692C174.488 107.731 174.376 107.799 174.284 107.89C174.193 107.981 174.126 108.093 174.087 108.216C174.049 108.339 174.041 108.469 174.064 108.596C174.393 109.785 175.06 110.854 175.984 111.673L178.536 114.508C178.807 114.778 179.174 114.929 179.556 114.929C179.939 114.929 180.306 114.778 180.577 114.508C182.432 112.349 190.43 104.462 192.341 102.377C192.454 102.21 192.509 102.011 192.498 101.81C192.487 101.609 192.41 101.417 192.28 101.263C192.15 101.109 191.974 101.001 191.777 100.957C191.58 100.912 191.375 100.932 191.191 101.015Z" fill="#A42A29"/>
</svg>
