<svg width="34" height="36" viewBox="0 0 34 36" fill="none" xmlns="http://www.w3.org/2000/svg">
<path d="M0 18.0149C0 8.40021 7.79425 0.605957 17.409 0.605957C27.0237 0.605957 34.8179 8.40021 34.8179 18.0149C34.8179 27.6296 27.0237 35.4239 17.409 35.4239C7.79425 35.4239 0 27.6296 0 18.0149Z" fill="#929497" fill-opacity="0.2"/>
<g clip-path="url(#clip0_2737_2765)">
<path d="M21.3532 20.6388C20.5023 20.6388 19.7462 21.0673 19.2751 21.7268L15.2188 19.5789C15.2869 19.3393 15.3236 19.086 15.3236 18.8239C15.3236 18.469 15.2564 18.13 15.1348 17.8197L19.386 15.1731C19.8603 15.75 20.5662 16.1165 21.3532 16.1165C22.7781 16.1165 23.9374 14.9153 23.9374 13.4389C23.9374 11.9624 22.7781 10.7612 21.3532 10.7612C19.9283 10.7612 18.7691 11.9624 18.7691 13.4389C18.7691 13.7801 18.8311 14.1066 18.9439 14.407L14.6821 17.0602C14.2081 16.5004 13.513 16.1463 12.7394 16.1463C11.3145 16.1463 10.1553 17.3475 10.1553 18.8239C10.1553 20.3004 11.3145 21.5016 12.7394 21.5016C13.6043 21.5016 14.3712 21.059 14.8405 20.3809L18.885 22.5226C18.8097 22.7735 18.7691 23.0401 18.7691 23.3164C18.7691 24.7929 19.9283 25.9941 21.3532 25.9941C22.7781 25.9941 23.9374 24.7929 23.9374 23.3164C23.9374 21.84 22.7781 20.6388 21.3532 20.6388ZM21.3532 11.6538C22.3032 11.6538 23.076 12.4546 23.076 13.4389C23.076 14.4232 22.3032 15.224 21.3532 15.224C20.4033 15.224 19.6305 14.4232 19.6305 13.4389C19.6305 12.4546 20.4033 11.6538 21.3532 11.6538ZM12.7394 20.609C11.7895 20.609 11.0167 19.8082 11.0167 18.8239C11.0167 17.8396 11.7895 17.0388 12.7394 17.0388C13.6893 17.0388 14.4622 17.8396 14.4622 18.8239C14.4622 19.8082 13.6893 20.609 12.7394 20.609ZM21.3532 25.1015C20.4033 25.1015 19.6305 24.3007 19.6305 23.3164C19.6305 22.3321 20.4033 21.5313 21.3532 21.5313C22.3032 21.5313 23.076 22.3321 23.076 23.3164C23.076 24.3007 22.3032 25.1015 21.3532 25.1015Z" fill="#A32A29"/>
</g>
<defs>
<clipPath id="clip0_2737_2765">
<rect width="23.2119" height="23.2119" fill="white" transform="translate(5.80298 6.40894)"/>
</clipPath>
</defs>
</svg>
