<svg width="48" height="48" viewBox="0 0 48 48" fill="none" xmlns="http://www.w3.org/2000/svg">
<path d="M0 24C0 10.7452 10.7452 0 24 0V0C37.2548 0 48 10.7452 48 24V24C48 37.2548 37.2548 48 24 48V48C10.7452 48 0 37.2548 0 24V24Z" fill="#929497" fill-opacity="0.2"/>
<path d="M20.0616 29.5972H15.9375C15.6933 29.5972 15.4956 29.7948 15.4956 30.039C15.4956 30.2832 15.6933 30.4809 15.9375 30.4809H20.0616C20.3058 30.4809 20.5035 30.2832 20.5035 30.039C20.5035 29.7948 20.3058 29.5972 20.0616 29.5972Z" fill="#A32A29"/>
<path d="M20.0616 26.6514H15.9375C15.6933 26.6514 15.4956 26.849 15.4956 27.0932C15.4956 27.3374 15.6933 27.5351 15.9375 27.5351H20.0616C20.3058 27.5351 20.5035 27.3374 20.5035 27.0932C20.5035 26.849 20.3058 26.6514 20.0616 26.6514Z" fill="#A32A29"/>
<path d="M20.0616 23.7053H15.9375C15.6933 23.7053 15.4956 23.903 15.4956 24.1472C15.4956 24.3914 15.6933 24.5891 15.9375 24.5891H20.0616C20.3058 24.5891 20.5035 24.3914 20.5035 24.1472C20.5035 23.903 20.3058 23.7053 20.0616 23.7053Z" fill="#A32A29"/>
<path d="M20.0616 20.7595H15.9375C15.6933 20.7595 15.4956 20.9572 15.4956 21.2014C15.4956 21.4456 15.6933 21.6433 15.9375 21.6433H20.0616C20.3058 21.6433 20.5035 21.4456 20.5035 21.2014C20.5035 20.9572 20.3058 20.7595 20.0616 20.7595Z" fill="#A32A29"/>
<path d="M20.0616 17.814H15.9375C15.6933 17.814 15.4956 18.0116 15.4956 18.2558C15.4956 18.5 15.6933 18.6977 15.9375 18.6977H20.0616C20.3058 18.6977 20.5035 18.5 20.5035 18.2558C20.5035 18.0116 20.3058 17.814 20.0616 17.814Z" fill="#A32A29"/>
<path d="M27.4261 29.5972H25.364C25.1198 29.5972 24.9221 29.7948 24.9221 30.039C24.9221 30.2832 25.1198 30.4809 25.364 30.4809H27.4261C27.6703 30.4809 27.8679 30.2832 27.8679 30.039C27.8679 29.7948 27.6703 29.5972 27.4261 29.5972Z" fill="#A32A29"/>
<path d="M27.4261 26.6514H25.364C25.1198 26.6514 24.9221 26.849 24.9221 27.0932C24.9221 27.3374 25.1198 27.5351 25.364 27.5351H27.4261C27.6703 27.5351 27.8679 27.3374 27.8679 27.0932C27.8679 26.849 27.6703 26.6514 27.4261 26.6514Z" fill="#A32A29"/>
<path d="M27.4261 23.7053H25.364C25.1198 23.7053 24.9221 23.903 24.9221 24.1472C24.9221 24.3914 25.1198 24.5891 25.364 24.5891H27.4261C27.6703 24.5891 27.8679 24.3914 27.8679 24.1472C27.8679 23.903 27.6703 23.7053 27.4261 23.7053Z" fill="#A32A29"/>
<path d="M27.4261 20.7595H25.364C25.1198 20.7595 24.9221 20.9572 24.9221 21.2014C24.9221 21.4456 25.1198 21.6433 25.364 21.6433H27.4261C27.6703 21.6433 27.8679 21.4456 27.8679 21.2014C27.8679 20.9572 27.6703 20.7595 27.4261 20.7595Z" fill="#A32A29"/>
<path d="M32.4339 29.5972H30.3718C30.1276 29.5972 29.9299 29.7948 29.9299 30.039C29.9299 30.2832 30.1276 30.4809 30.3718 30.4809H32.4339C32.6781 30.4809 32.8757 30.2832 32.8757 30.039C32.8757 29.7948 32.6781 29.5972 32.4339 29.5972Z" fill="#A32A29"/>
<path d="M32.4339 26.6514H30.3718C30.1276 26.6514 29.9299 26.849 29.9299 27.0932C29.9299 27.3374 30.1276 27.5351 30.3718 27.5351H32.4339C32.6781 27.5351 32.8757 27.3374 32.8757 27.0932C32.8757 26.849 32.6781 26.6514 32.4339 26.6514Z" fill="#A32A29"/>
<path d="M32.4339 23.7053H30.3718C30.1276 23.7053 29.9299 23.903 29.9299 24.1472C29.9299 24.3914 30.1276 24.5891 30.3718 24.5891H32.4339C32.6781 24.5891 32.8757 24.3914 32.8757 24.1472C32.8757 23.903 32.6781 23.7053 32.4339 23.7053Z" fill="#A32A29"/>
<path d="M32.4339 20.7595H30.3718C30.1276 20.7595 29.9299 20.9572 29.9299 21.2014C29.9299 21.4456 30.1276 21.6433 30.3718 21.6433H32.4339C32.6781 21.6433 32.8757 21.4456 32.8757 21.2014C32.8757 20.9572 32.6781 20.7595 32.4339 20.7595Z" fill="#A32A29"/>
<path d="M36.558 33.4266H35.4846C35.5096 33.3318 35.527 33.2343 35.527 33.1321V18.6976C35.527 18.0495 34.9968 17.5193 34.3487 17.5193H32.2675C32.2784 17.4592 32.2863 17.3982 32.2863 17.3351V16.9215C32.2863 16.2735 31.7564 15.7432 31.108 15.7432H27.573C26.9252 15.7432 26.3947 16.2735 26.3947 16.9215V17.3351C26.3947 17.3982 26.4026 17.4592 26.4135 17.5193H23.4492C23.347 17.5193 23.2492 17.5366 23.1546 17.5614V14.868C23.1546 14.2199 22.6243 13.6897 21.9763 13.6897H14.0226C13.3745 13.6897 12.8442 14.2199 12.8442 14.868V33.1321C12.8442 33.2343 12.8616 33.3318 12.8867 33.4266H11.8132C11.569 33.4266 11.3713 33.6243 11.3713 33.8685C11.3713 34.1127 11.569 34.3104 11.8132 34.3104H36.558C36.8023 34.3104 36.9999 34.1127 36.9999 33.8685C36.9999 33.6243 36.8023 33.4266 36.558 33.4266ZM27.2784 17.3351V16.9215C27.2784 16.7619 27.4136 16.627 27.573 16.627H31.108C31.268 16.627 31.4026 16.7619 31.4026 16.9215V17.3351C31.4026 17.4053 31.3734 17.468 31.331 17.5193H27.3503C27.3079 17.468 27.2784 17.4053 27.2784 17.3351ZM14.0226 33.4266C13.8629 33.4266 13.728 33.2917 13.728 33.1321V14.868C13.728 14.7084 13.8629 14.5734 14.0226 14.5734H21.9763C22.1359 14.5734 22.2708 14.7084 22.2708 14.868V18.6976V33.1321C22.2708 33.2917 22.1359 33.4266 21.9763 33.4266H14.0226ZM23.4492 33.4266C23.2895 33.4266 23.1546 33.2917 23.1546 33.1321V18.6976C23.1546 18.5379 23.2895 18.403 23.4492 18.403H34.3487C34.5083 18.403 34.6433 18.5379 34.6433 18.6976V33.1321C34.6433 33.2917 34.5083 33.4266 34.3487 33.4266H23.4492Z" fill="#A32A29"/>
</svg>
