<svg width="48" height="48" viewBox="0 0 48 48" fill="none" xmlns="http://www.w3.org/2000/svg">
<path d="M0 24C0 10.7452 10.7452 0 24 0C37.2548 0 48 10.7452 48 24C48 37.2548 37.2548 48 24 48C10.7452 48 0 37.2548 0 24Z" fill="#929497" fill-opacity="0.2"/>
<g clip-path="url(#clip0_1898:58682)">
<path d="M19.6706 31.7633C19.6706 31.9842 19.8495 32.1633 20.0706 32.1633C20.2917 32.1633 20.4706 31.9842 20.4706 31.7633V26.7895C20.4706 26.5686 20.2917 26.3895 20.0706 26.3895C19.8495 26.3895 19.6706 26.5686 19.6706 26.7895V31.7633Z" fill="#A32A29"/>
<path fill-rule="evenodd" clip-rule="evenodd" d="M15.1706 14.9C14.4669 14.9 13.8999 15.4886 13.8999 16.206V21.7938C13.8999 22.5114 14.4669 23.1 15.1706 23.1H17.9999V33.1173C17.9999 33.604 18.4189 34 18.9336 34H29.0662C29.5809 34 29.9999 33.604 29.9999 33.1173V23.1H32.8296C33.5329 23.1 34.0999 22.5114 34.0999 21.7938V16.206C34.0999 15.4886 33.5329 14.9 32.8296 14.9H15.1706ZM25.3175 33H26.6495V18H25.3175V33ZM28.8803 33H27.6495V18H28.9999V32.8862C28.9999 32.9489 28.9462 33 28.8803 33ZM18.9999 18H24.3175V33H19.1195C19.0536 33 18.9999 32.9489 18.9999 32.8862V18ZM18.4981 16.8407C18.489 16.8402 18.4798 16.84 18.4706 16.84H16.3374C16.0668 16.84 15.8374 17.0478 15.8374 17.3166V20.5634C15.8374 20.8322 16.0668 21.04 16.3374 21.04H17.9999V21.9H15.3625C15.2174 21.9 15.0999 21.7824 15.0999 21.6393V16.3605C15.0999 16.2176 15.2174 16.1 15.3625 16.1H32.6376C32.7827 16.1 32.8999 16.2175 32.8999 16.3605V21.6393C32.8999 21.7826 32.7827 21.9 32.6376 21.9H29.9999V21.04H31.6628C31.9334 21.04 32.1628 20.8322 32.1628 20.5634V17.3166C32.1628 17.0478 31.9334 16.84 31.6628 16.84H29.5292C29.52 16.84 29.5108 16.8402 29.5017 16.8407C29.4717 16.835 29.4407 16.832 29.409 16.832H18.5908C18.5591 16.832 18.5281 16.835 18.4981 16.8407ZM16.8374 17.7932V20.0868H17.9706V17.7932H16.8374ZM30.0292 17.7932V20.0868H31.1628V17.7932H30.0292Z" fill="#A32A29"/>
</g>
<defs>
<clipPath id="clip0_1898:58682">
<rect width="32" height="32" fill="white" transform="translate(8 8)"/>
</clipPath>
</defs>
</svg>
