<svg width="32" height="32" viewBox="0 0 32 32" fill="none" xmlns="http://www.w3.org/2000/svg">
<path fill-rule="evenodd" clip-rule="evenodd" d="M16.601 4C16.601 4.33137 16.3323 4.6 16.001 4.6C15.6696 4.6 15.401 4.33137 15.401 4C15.401 3.66863 15.6696 3.4 16.001 3.4C16.3323 3.4 16.601 3.66863 16.601 4ZM17.4179 5.41147C17.7782 5.04976 18.001 4.55089 18.001 4C18.001 2.89543 17.1055 2 16.001 2C14.8964 2 14.001 2.89543 14.001 4C14.001 4.55086 14.2237 5.04971 14.584 5.41142C13.0817 5.64978 11.636 6.27205 10.4733 7.29225C8.93407 8.64286 7.93236 10.656 7.93236 13.2736V22.3911C7.93236 22.4499 7.89402 22.6584 7.65295 22.8631C7.41772 23.0628 6.93654 23.3 6.00078 23.3C5.61418 23.3 5.30078 23.6134 5.30078 24C5.30078 24.3866 5.61418 24.7 6.00078 24.7H13.919C13.3531 25.1547 13.001 25.7931 13.001 26.5C13.001 27.8807 14.3441 29 16.001 29C17.6578 29 19.001 27.8807 19.001 26.5C19.001 25.7931 18.6489 25.1547 18.0829 24.7H26.0008C26.3874 24.7 26.7008 24.3866 26.7008 24C26.7008 23.6134 26.3874 23.3 26.0008 23.3C25.065 23.3 24.5838 23.0628 24.3486 22.8631C24.1075 22.6584 24.0692 22.4499 24.0692 22.3911V13.2736C24.0692 10.656 23.0675 8.64286 21.5283 7.29225C20.3657 6.27213 18.9201 5.64987 17.4179 5.41147ZM9.08227 23.3C9.25557 22.9897 9.33236 22.6701 9.33236 22.3911V13.2736C9.33236 11.0422 10.1728 9.41852 11.3967 8.34458C12.6342 7.25875 14.3054 6.7 16.0008 6.7C17.6962 6.7 19.3674 7.25875 20.6049 8.34458C21.8288 9.41852 22.6692 11.0422 22.6692 13.2736V22.3911C22.6692 22.6701 22.746 22.9897 22.9193 23.3H9.08227ZM16.001 27.6C17.1345 27.6 17.601 26.8794 17.601 26.5C17.601 26.1206 17.1345 25.4 16.001 25.4C14.8675 25.4 14.401 26.1206 14.401 26.5C14.401 26.8794 14.8675 27.6 16.001 27.6Z" fill="#A32A29"/>
</svg>
