<svg width="39" height="37" viewBox="0 0 39 37" fill="none" xmlns="http://www.w3.org/2000/svg">
<path d="M2.24585 0.168457H0.427734V1.90921H2.24585V0.168457Z" fill="#A32A29"/>
<path d="M4.06397 0.168457H2.24585V1.90921H4.06397V0.168457Z" fill="#A32A29"/>
<path d="M5.88209 0.168457H4.06397V1.90921H5.88209V0.168457Z" fill="#A32A29"/>
<path d="M7.70021 0.168457H5.88209V1.90921H7.70021V0.168457Z" fill="#A32A29"/>
<path d="M9.51833 0.168457H7.70021V1.90921H9.51833V0.168457Z" fill="#A32A29"/>
<path d="M11.3365 0.168457H9.51833V1.90921H11.3365V0.168457Z" fill="#A32A29"/>
<path d="M13.1546 0.168457H11.3365V1.90921H13.1546V0.168457Z" fill="#A32A29"/>
<path d="M18.6089 0.168457H16.7908V1.90921H18.6089V0.168457Z" fill="#A32A29"/>
<path d="M22.2452 0.168457H20.4271V1.90921H22.2452V0.168457Z" fill="#A32A29"/>
<path d="M24.0633 0.168457H22.2452V1.90921H24.0633V0.168457Z" fill="#A32A29"/>
<path d="M27.6995 0.168457H25.8814V1.90921H27.6995V0.168457Z" fill="#A32A29"/>
<path d="M29.5177 0.168457H27.6995V1.90921H29.5177V0.168457Z" fill="#A32A29"/>
<path d="M31.3358 0.168457H29.5177V1.90921H31.3358V0.168457Z" fill="#A32A29"/>
<path d="M33.1539 0.168457H31.3358V1.90921H33.1539V0.168457Z" fill="#A32A29"/>
<path d="M34.972 0.168457H33.1539V1.90921H34.972V0.168457Z" fill="#A32A29"/>
<path d="M36.7901 0.168457H34.972V1.90921H36.7901V0.168457Z" fill="#A32A29"/>
<path d="M38.6083 0.168457H36.7901V1.90921H38.6083V0.168457Z" fill="#A32A29"/>
<path d="M2.24585 1.90921H0.427734V3.64996H2.24585V1.90921Z" fill="#A32A29"/>
<path d="M13.1546 1.90921H11.3365L11.3365 3.64996H13.1546V1.90921Z" fill="#A32A29"/>
<path d="M18.6089 1.90921H16.7908V3.64996H18.6089V1.90921Z" fill="#A32A29"/>
<path d="M20.4271 1.90921H18.6089V3.64996H20.4271L20.4271 1.90921Z" fill="#A32A29"/>
<path d="M22.2452 1.90921H20.4271L20.4271 3.64996H22.2452V1.90921Z" fill="#A32A29"/>
<path d="M27.6995 1.90921H25.8814V3.64996H27.6995V1.90921Z" fill="#A32A29"/>
<path d="M38.6083 1.90921H36.7901V3.64996H38.6083V1.90921Z" fill="#A32A29"/>
<path d="M2.24585 3.64996H0.427734V5.39071H2.24585V3.64996Z" fill="#A32A29"/>
<path d="M5.88209 3.64996H4.06397V5.39071H5.88209V3.64996Z" fill="#A32A29"/>
<path d="M7.70021 3.64996H5.88209V5.39071H7.70021V3.64996Z" fill="#A32A29"/>
<path d="M9.51833 3.64996H7.70021V5.39071H9.51833V3.64996Z" fill="#A32A29"/>
<path d="M13.1546 3.64996H11.3365V5.39071H13.1546V3.64996Z" fill="#A32A29"/>
<path d="M16.7908 3.64996L14.9727 3.64996V5.39071H16.7908L16.7908 3.64996Z" fill="#A32A29"/>
<path d="M18.6089 3.64996H16.7908L16.7908 5.39071H18.6089V3.64996Z" fill="#A32A29"/>
<path d="M22.2452 3.64996H20.4271L20.4271 5.39071H22.2452V3.64996Z" fill="#A32A29"/>
<path d="M24.0633 3.64996L22.2452 3.64996V5.39071H24.0633V3.64996Z" fill="#A32A29"/>
<path d="M27.6995 3.64996H25.8814V5.39071H27.6995V3.64996Z" fill="#A32A29"/>
<path d="M31.3358 3.64996H29.5177V5.39071H31.3358V3.64996Z" fill="#A32A29"/>
<path d="M33.1539 3.64996H31.3358V5.39071H33.1539V3.64996Z" fill="#A32A29"/>
<path d="M34.972 3.64996H33.1539V5.39071H34.972V3.64996Z" fill="#A32A29"/>
<path d="M38.6083 3.64996H36.7901V5.39071H38.6083V3.64996Z" fill="#A32A29"/>
<path d="M2.24585 5.39071H0.427734V7.13147H2.24585V5.39071Z" fill="#A32A29"/>
<path d="M5.88209 5.39071H4.06397V7.13147H5.88209V5.39071Z" fill="#A32A29"/>
<path d="M7.70021 5.39071H5.88209V7.13147H7.70021V5.39071Z" fill="#A32A29"/>
<path d="M9.51833 5.39071H7.70021V7.13147H9.51833V5.39071Z" fill="#A32A29"/>
<path d="M13.1546 5.39071H11.3365V7.13147H13.1546V5.39071Z" fill="#A32A29"/>
<path d="M18.6089 5.39071H16.7908L16.7908 7.13147H18.6089V5.39071Z" fill="#A32A29"/>
<path d="M22.2452 5.39071H20.4271V7.13147H22.2452V5.39071Z" fill="#A32A29"/>
<path d="M27.6995 5.39071H25.8814V7.13147H27.6995V5.39071Z" fill="#A32A29"/>
<path d="M31.3358 5.39071H29.5177V7.13147H31.3358V5.39071Z" fill="#A32A29"/>
<path d="M33.1539 5.39071H31.3358V7.13147H33.1539V5.39071Z" fill="#A32A29"/>
<path d="M34.972 5.39071H33.1539V7.13147H34.972V5.39071Z" fill="#A32A29"/>
<path d="M38.6083 5.39071H36.7901V7.13147H38.6083V5.39071Z" fill="#A32A29"/>
<path d="M2.24585 7.13147H0.427734V8.87222H2.24585V7.13147Z" fill="#A32A29"/>
<path d="M5.88209 7.13147H4.06397V8.87222H5.88209V7.13147Z" fill="#A32A29"/>
<path d="M7.70021 7.13147H5.88209V8.87222H7.70021V7.13147Z" fill="#A32A29"/>
<path d="M9.51833 7.13147H7.70021V8.87222H9.51833V7.13147Z" fill="#A32A29"/>
<path d="M13.1546 7.13147H11.3365V8.87222H13.1546V7.13147Z" fill="#A32A29"/>
<path d="M20.4271 7.13147H18.6089L18.6089 8.87222H20.4271L20.4271 7.13147Z" fill="#A32A29"/>
<path d="M24.0633 7.13147H22.2452L22.2452 8.87222H24.0633V7.13147Z" fill="#A32A29"/>
<path d="M27.6995 7.13147H25.8814V8.87222H27.6995V7.13147Z" fill="#A32A29"/>
<path d="M31.3358 7.13147H29.5177V8.87222H31.3358V7.13147Z" fill="#A32A29"/>
<path d="M33.1539 7.13147H31.3358V8.87222H33.1539V7.13147Z" fill="#A32A29"/>
<path d="M34.972 7.13147H33.1539V8.87222H34.972V7.13147Z" fill="#A32A29"/>
<path d="M38.6083 7.13147H36.7901V8.87222H38.6083V7.13147Z" fill="#A32A29"/>
<path d="M2.24585 8.87222H0.427734V10.613H2.24585V8.87222Z" fill="#A32A29"/>
<path d="M13.1546 8.87222H11.3365V10.613H13.1546V8.87222Z" fill="#A32A29"/>
<path d="M24.0633 8.87222H22.2452V10.613H24.0633V8.87222Z" fill="#A32A29"/>
<path d="M27.6995 8.87222H25.8814V10.613H27.6995V8.87222Z" fill="#A32A29"/>
<path d="M38.6083 8.87222H36.7901V10.613H38.6083V8.87222Z" fill="#A32A29"/>
<path d="M2.24585 10.613H0.427734V12.3537H2.24585V10.613Z" fill="#A32A29"/>
<path d="M4.06397 10.613L2.24585 10.613V12.3537H4.06397V10.613Z" fill="#A32A29"/>
<path d="M5.88209 10.613H4.06397V12.3537H5.88209V10.613Z" fill="#A32A29"/>
<path d="M7.70021 10.613H5.88209V12.3537H7.70021V10.613Z" fill="#A32A29"/>
<path d="M9.51833 10.613H7.70021V12.3537H9.51833V10.613Z" fill="#A32A29"/>
<path d="M11.3365 10.613L9.51833 10.613V12.3537H11.3365L11.3365 10.613Z" fill="#A32A29"/>
<path d="M13.1546 10.613H11.3365L11.3365 12.3537H13.1546V10.613Z" fill="#A32A29"/>
<path d="M16.7908 10.613H14.9727V12.3537H16.7908V10.613Z" fill="#A32A29"/>
<path d="M20.4271 10.613H18.6089V12.3537H20.4271V10.613Z" fill="#A32A29"/>
<path d="M24.0633 10.613H22.2452V12.3537H24.0633V10.613Z" fill="#A32A29"/>
<path d="M27.6995 10.613H25.8814V12.3537H27.6995V10.613Z" fill="#A32A29"/>
<path d="M29.5177 10.613L27.6995 10.613V12.3537H29.5177V10.613Z" fill="#A32A29"/>
<path d="M31.3358 10.613H29.5177V12.3537H31.3358V10.613Z" fill="#A32A29"/>
<path d="M33.1539 10.613H31.3358V12.3537H33.1539V10.613Z" fill="#A32A29"/>
<path d="M34.972 10.613H33.1539V12.3537H34.972V10.613Z" fill="#A32A29"/>
<path d="M36.7901 10.613L34.972 10.613V12.3537H36.7901V10.613Z" fill="#A32A29"/>
<path d="M38.6083 10.613H36.7901V12.3537H38.6083V10.613Z" fill="#A32A29"/>
<path d="M16.7908 12.3537H14.9727V14.0945H16.7908V12.3537Z" fill="#A32A29"/>
<path d="M18.6089 12.3537H16.7908V14.0945H18.6089L18.6089 12.3537Z" fill="#A32A29"/>
<path d="M22.2452 12.3537H20.4271L20.4271 14.0945H22.2452L22.2452 12.3537Z" fill="#A32A29"/>
<path d="M24.0633 12.3537H22.2452L22.2452 14.0945H24.0633V12.3537Z" fill="#A32A29"/>
<path d="M2.24585 14.0945H0.427734V15.8352H2.24585V14.0945Z" fill="#A32A29"/>
<path d="M4.06397 14.0945H2.24585V15.8352H4.06397V14.0945Z" fill="#A32A29"/>
<path d="M5.88209 14.0945H4.06397V15.8352H5.88209V14.0945Z" fill="#A32A29"/>
<path d="M9.51833 14.0945H7.70021V15.8352H9.51833V14.0945Z" fill="#A32A29"/>
<path d="M11.3365 14.0945H9.51833V15.8352H11.3365V14.0945Z" fill="#A32A29"/>
<path d="M13.1546 14.0945H11.3365V15.8352H13.1546V14.0945Z" fill="#A32A29"/>
<path d="M14.9727 14.0945L13.1546 14.0945V15.8352H14.9727L14.9727 14.0945Z" fill="#A32A29"/>
<path d="M16.7908 14.0945H14.9727L14.9727 15.8352H16.7908V14.0945Z" fill="#A32A29"/>
<path d="M18.6089 14.0945H16.7908V15.8352H18.6089V14.0945Z" fill="#A32A29"/>
<path d="M20.4271 14.0945H18.6089V15.8352H20.4271L20.4271 14.0945Z" fill="#A32A29"/>
<path d="M22.2452 14.0945H20.4271L20.4271 15.8352H22.2452V14.0945Z" fill="#A32A29"/>
<path d="M25.8814 14.0945L24.0633 14.0945V15.8352H25.8814V14.0945Z" fill="#A32A29"/>
<path d="M27.6995 14.0945H25.8814V15.8352H27.6995V14.0945Z" fill="#A32A29"/>
<path d="M34.972 14.0945H33.1539V15.8352H34.972V14.0945Z" fill="#A32A29"/>
<path d="M7.70021 15.8352H5.88209L5.88209 17.576H7.70021V15.8352Z" fill="#A32A29"/>
<path d="M11.3365 15.8352H9.51833V17.576H11.3365V15.8352Z" fill="#A32A29"/>
<path d="M14.9727 15.8352H13.1546L13.1546 17.576H14.9727V15.8352Z" fill="#A32A29"/>
<path d="M16.7908 15.8352H14.9727V17.576H16.7908V15.8352Z" fill="#A32A29"/>
<path d="M18.6089 15.8352H16.7908V17.576H18.6089V15.8352Z" fill="#A32A29"/>
<path d="M20.4271 15.8352H18.6089V17.576H20.4271V15.8352Z" fill="#A32A29"/>
<path d="M27.6995 15.8352H25.8814L25.8814 17.576H27.6995V15.8352Z" fill="#A32A29"/>
<path d="M29.5177 15.8352L27.6995 15.8352V17.576H29.5177V15.8352Z" fill="#A32A29"/>
<path d="M31.3358 15.8352H29.5177V17.576H31.3358V15.8352Z" fill="#A32A29"/>
<path d="M36.7901 15.8352L34.972 15.8352V17.576H36.7901V15.8352Z" fill="#A32A29"/>
<path d="M38.6083 15.8352H36.7901V17.576H38.6083V15.8352Z" fill="#A32A29"/>
<path d="M2.24585 17.576H0.427734V19.3167H2.24585V17.576Z" fill="#A32A29"/>
<path d="M4.06397 17.576H2.24585V19.3167H4.06397V17.576Z" fill="#A32A29"/>
<path d="M5.88209 17.576L4.06397 17.576V19.3167H5.88209L5.88209 17.576Z" fill="#A32A29"/>
<path d="M9.51833 17.576H7.70021V19.3167H9.51833V17.576Z" fill="#A32A29"/>
<path d="M11.3365 17.576H9.51833V19.3167H11.3365V17.576Z" fill="#A32A29"/>
<path d="M13.1546 17.576H11.3365V19.3167H13.1546L13.1546 17.576Z" fill="#A32A29"/>
<path d="M14.9727 17.576H13.1546L13.1546 19.3167H14.9727V17.576Z" fill="#A32A29"/>
<path d="M18.6089 17.576H16.7908L16.7908 19.3167H18.6089V17.576Z" fill="#A32A29"/>
<path d="M24.0633 17.576H22.2452V19.3167H24.0633V17.576Z" fill="#A32A29"/>
<path d="M25.8814 17.576L24.0633 17.576V19.3167H25.8814L25.8814 17.576Z" fill="#A32A29"/>
<path d="M29.5177 17.576H27.6995V19.3167H29.5177V17.576Z" fill="#A32A29"/>
<path d="M31.3358 17.576H29.5177V19.3167H31.3358V17.576Z" fill="#A32A29"/>
<path d="M33.1539 17.576L31.3358 17.576V19.3167H33.1539V17.576Z" fill="#A32A29"/>
<path d="M34.972 17.576L33.1539 17.576V19.3167H34.972V17.576Z" fill="#A32A29"/>
<path d="M36.7901 17.576H34.972V19.3167H36.7901V17.576Z" fill="#A32A29"/>
<path d="M38.6083 17.576H36.7901V19.3167H38.6083V17.576Z" fill="#A32A29"/>
<path d="M4.06397 19.3167H2.24585L2.24585 21.0575H4.06397V19.3167Z" fill="#A32A29"/>
<path d="M9.51833 19.3167H7.70021V21.0575H9.51833V19.3167Z" fill="#A32A29"/>
<path d="M14.9727 19.3167H13.1546L13.1546 21.0575H14.9727V19.3167Z" fill="#A32A29"/>
<path d="M18.6089 19.3167H16.7908V21.0575H18.6089V19.3167Z" fill="#A32A29"/>
<path d="M20.4271 19.3167H18.6089V21.0575H20.4271V19.3167Z" fill="#A32A29"/>
<path d="M31.3358 19.3167H29.5177V21.0575H31.3358V19.3167Z" fill="#A32A29"/>
<path d="M36.7901 19.3167H34.972V21.0575H36.7901V19.3167Z" fill="#A32A29"/>
<path d="M2.24585 21.0575L0.427734 21.0575V22.7982H2.24585L2.24585 21.0575Z" fill="#A32A29"/>
<path d="M4.06397 21.0575H2.24585L2.24585 22.7982H4.06397V21.0575Z" fill="#A32A29"/>
<path d="M5.88209 21.0575L4.06397 21.0575V22.7982H5.88209V21.0575Z" fill="#A32A29"/>
<path d="M9.51833 21.0575H7.70021V22.7982H9.51833V21.0575Z" fill="#A32A29"/>
<path d="M13.1546 21.0575L11.3365 21.0575V22.7982H13.1546L13.1546 21.0575Z" fill="#A32A29"/>
<path d="M14.9727 21.0575H13.1546L13.1546 22.7982H14.9727V21.0575Z" fill="#A32A29"/>
<path d="M20.4271 21.0575H18.6089L18.6089 22.7982H20.4271V21.0575Z" fill="#A32A29"/>
<path d="M24.0633 21.0575H22.2452V22.7982H24.0633V21.0575Z" fill="#A32A29"/>
<path d="M25.8814 21.0575H24.0633V22.7982H25.8814V21.0575Z" fill="#A32A29"/>
<path d="M29.5177 21.0575L27.6995 21.0575V22.7982H29.5177V21.0575Z" fill="#A32A29"/>
<path d="M31.3358 21.0575H29.5177V22.7982H31.3358V21.0575Z" fill="#A32A29"/>
<path d="M16.7908 22.7982L14.9727 22.7982L14.9727 24.539H16.7908V22.7982Z" fill="#A32A29"/>
<path d="M22.2452 22.7982H20.4271L20.4271 24.539H22.2452L22.2452 22.7982Z" fill="#A32A29"/>
<path d="M25.8814 22.7982H24.0633V24.539H25.8814V22.7982Z" fill="#A32A29"/>
<path d="M31.3358 22.7982H29.5177V24.539H31.3358V22.7982Z" fill="#A32A29"/>
<path d="M34.972 22.7982H33.1539V24.539H34.972V22.7982Z" fill="#A32A29"/>
<path d="M36.7901 22.7982H34.972V24.539H36.7901V22.7982Z" fill="#A32A29"/>
<path d="M38.6083 22.7982H36.7901V24.539H38.6083V22.7982Z" fill="#A32A29"/>
<path d="M2.24585 24.539H0.427734V26.2798H2.24585V24.539Z" fill="#A32A29"/>
<path d="M4.06397 24.539H2.24585V26.2798H4.06397V24.539Z" fill="#A32A29"/>
<path d="M5.88209 24.539H4.06397V26.2798H5.88209V24.539Z" fill="#A32A29"/>
<path d="M7.70021 24.539H5.88209V26.2798H7.70021V24.539Z" fill="#A32A29"/>
<path d="M9.51833 24.539H7.70021V26.2798H9.51833V24.539Z" fill="#A32A29"/>
<path d="M11.3365 24.539H9.51833V26.2798H11.3365V24.539Z" fill="#A32A29"/>
<path d="M13.1546 24.539H11.3365V26.2798H13.1546V24.539Z" fill="#A32A29"/>
<path d="M16.7908 24.539H14.9727V26.2798H16.7908V24.539Z" fill="#A32A29"/>
<path d="M22.2452 24.539H20.4271V26.2798H22.2452V24.539Z" fill="#A32A29"/>
<path d="M29.5177 24.539L27.6995 24.539V26.2798H29.5177V24.539Z" fill="#A32A29"/>
<path d="M31.3358 24.539H29.5177V26.2798H31.3358V24.539Z" fill="#A32A29"/>
<path d="M34.972 24.539H33.1539V26.2798H34.972V24.539Z" fill="#A32A29"/>
<path d="M36.7901 24.539H34.972V26.2798H36.7901V24.539Z" fill="#A32A29"/>
<path d="M38.6083 24.539H36.7901V26.2798H38.6083V24.539Z" fill="#A32A29"/>
<path d="M2.24585 26.2798H0.427734V28.0205H2.24585V26.2798Z" fill="#A32A29"/>
<path d="M13.1546 26.2798H11.3365L11.3365 28.0205H13.1546V26.2798Z" fill="#A32A29"/>
<path d="M16.7908 26.2798H14.9727V28.0205H16.7908V26.2798Z" fill="#A32A29"/>
<path d="M18.6089 26.2798L16.7908 26.2798V28.0205H18.6089V26.2798Z" fill="#A32A29"/>
<path d="M20.4271 26.2798L18.6089 26.2798V28.0205H20.4271L20.4271 26.2798Z" fill="#A32A29"/>
<path d="M22.2452 26.2798H20.4271L20.4271 28.0205H22.2452V26.2798Z" fill="#A32A29"/>
<path d="M24.0633 26.2798L22.2452 26.2798V28.0205H24.0633V26.2798Z" fill="#A32A29"/>
<path d="M29.5177 26.2798H27.6995V28.0205H29.5177V26.2798Z" fill="#A32A29"/>
<path d="M38.6083 26.2798H36.7901V28.0205H38.6083V26.2798Z" fill="#A32A29"/>
<path d="M2.24585 28.0205H0.427734V29.7613H2.24585V28.0205Z" fill="#A32A29"/>
<path d="M5.88209 28.0205H4.06397V29.7613H5.88209V28.0205Z" fill="#A32A29"/>
<path d="M7.70021 28.0205H5.88209V29.7613H7.70021V28.0205Z" fill="#A32A29"/>
<path d="M9.51833 28.0205H7.70021V29.7613H9.51833V28.0205Z" fill="#A32A29"/>
<path d="M13.1546 28.0205H11.3365V29.7613H13.1546V28.0205Z" fill="#A32A29"/>
<path d="M16.7908 28.0205H14.9727V29.7613H16.7908V28.0205Z" fill="#A32A29"/>
<path d="M20.4271 28.0205H18.6089L18.6089 29.7613H20.4271V28.0205Z" fill="#A32A29"/>
<path d="M22.2452 28.0205H20.4271V29.7613H22.2452V28.0205Z" fill="#A32A29"/>
<path d="M31.3358 28.0205L29.5177 28.0205V29.7613H31.3358V28.0205Z" fill="#A32A29"/>
<path d="M2.24585 29.7613H0.427734V31.502H2.24585V29.7613Z" fill="#A32A29"/>
<path d="M5.88209 29.7613H4.06397V31.502H5.88209V29.7613Z" fill="#A32A29"/>
<path d="M7.70021 29.7613H5.88209V31.502H7.70021V29.7613Z" fill="#A32A29"/>
<path d="M9.51833 29.7613H7.70021V31.502H9.51833V29.7613Z" fill="#A32A29"/>
<path d="M13.1546 29.7613H11.3365V31.502H13.1546V29.7613Z" fill="#A32A29"/>
<path d="M18.6089 29.7613H16.7908L16.7908 31.502H18.6089L18.6089 29.7613Z" fill="#A32A29"/>
<path d="M20.4271 29.7613H18.6089L18.6089 31.502H20.4271V29.7613Z" fill="#A32A29"/>
<path d="M22.2452 29.7613H20.4271V31.502H22.2452V29.7613Z" fill="#A32A29"/>
<path d="M27.6995 29.7613H25.8814V31.502H27.6995V29.7613Z" fill="#A32A29"/>
<path d="M29.5177 29.7613L27.6995 29.7613V31.502H29.5177V29.7613Z" fill="#A32A29"/>
<path d="M31.3358 29.7613H29.5177V31.502H31.3358V29.7613Z" fill="#A32A29"/>
<path d="M34.972 29.7613H33.1539V31.502H34.972V29.7613Z" fill="#A32A29"/>
<path d="M36.7901 29.7613H34.972V31.502H36.7901V29.7613Z" fill="#A32A29"/>
<path d="M2.24585 31.502H0.427734V33.2428H2.24585V31.502Z" fill="#A32A29"/>
<path d="M5.88209 31.502H4.06397V33.2428H5.88209V31.502Z" fill="#A32A29"/>
<path d="M7.70021 31.502H5.88209V33.2428H7.70021V31.502Z" fill="#A32A29"/>
<path d="M9.51833 31.502H7.70021V33.2428H9.51833V31.502Z" fill="#A32A29"/>
<path d="M13.1546 31.502H11.3365V33.2428H13.1546V31.502Z" fill="#A32A29"/>
<path d="M16.7908 31.502L14.9727 31.502V33.2428H16.7908L16.7908 31.502Z" fill="#A32A29"/>
<path d="M18.6089 31.502H16.7908L16.7908 33.2428H18.6089V31.502Z" fill="#A32A29"/>
<path d="M24.0633 31.502L22.2452 31.502L22.2452 33.2428H24.0633V31.502Z" fill="#A32A29"/>
<path d="M27.6995 31.502H25.8814V33.2428H27.6995V31.502Z" fill="#A32A29"/>
<path d="M31.3358 31.502H29.5177V33.2428H31.3358V31.502Z" fill="#A32A29"/>
<path d="M34.972 31.502H33.1539V33.2428H34.972V31.502Z" fill="#A32A29"/>
<path d="M38.6083 31.502L36.7901 31.502V33.2428H38.6083V31.502Z" fill="#A32A29"/>
<path d="M2.24585 33.2428H0.427734V34.9835H2.24585V33.2428Z" fill="#A32A29"/>
<path d="M13.1546 33.2428H11.3365V34.9835H13.1546V33.2428Z" fill="#A32A29"/>
<path d="M16.7908 33.2428H14.9727V34.9835H16.7908V33.2428Z" fill="#A32A29"/>
<path d="M20.4271 33.2428H18.6089L18.6089 34.9835H20.4271V33.2428Z" fill="#A32A29"/>
<path d="M22.2452 33.2428H20.4271V34.9835H22.2452L22.2452 33.2428Z" fill="#A32A29"/>
<path d="M31.3358 33.2428H29.5177V34.9835H31.3358V33.2428Z" fill="#A32A29"/>
<path d="M36.7901 33.2428H34.972V34.9835H36.7901V33.2428Z" fill="#A32A29"/>
<path d="M2.24585 34.9835H0.427734V36.7243H2.24585V34.9835Z" fill="#A32A29"/>
<path d="M4.06397 34.9835H2.24585V36.7243H4.06397V34.9835Z" fill="#A32A29"/>
<path d="M5.88209 34.9835H4.06397V36.7243H5.88209V34.9835Z" fill="#A32A29"/>
<path d="M7.70021 34.9835H5.88209V36.7243H7.70021V34.9835Z" fill="#A32A29"/>
<path d="M9.51833 34.9835H7.70021V36.7243H9.51833V34.9835Z" fill="#A32A29"/>
<path d="M11.3365 34.9835H9.51833V36.7243H11.3365L11.3365 34.9835Z" fill="#A32A29"/>
<path d="M13.1546 34.9835H11.3365L11.3365 36.7243H13.1546V34.9835Z" fill="#A32A29"/>
<path d="M16.7908 34.9835H14.9727V36.7243H16.7908V34.9835Z" fill="#A32A29"/>
<path d="M18.6089 34.9835H16.7908V36.7243H18.6089L18.6089 34.9835Z" fill="#A32A29"/>
<path d="M22.2452 34.9835H20.4271L20.4271 36.7243H22.2452V34.9835Z" fill="#A32A29"/>
<path d="M24.0633 34.9835H22.2452V36.7243H24.0633V34.9835Z" fill="#A32A29"/>
<path d="M29.5177 34.9835H27.6995V36.7243H29.5177V34.9835Z" fill="#A32A29"/>
<path d="M36.7901 34.9835H34.972V36.7243H36.7901V34.9835Z" fill="#A32A29"/>
<path d="M38.6083 34.9835H36.7901V36.7243H38.6083V34.9835Z" fill="#A32A29"/>
</svg>
