<svg width="240" height="284" viewBox="0 0 240 284" fill="none" xmlns="http://www.w3.org/2000/svg">
<path d="M212.15 269.454C222.33 270.314 226.88 274.204 211.37 278.024C202.06 280.314 185.01 280.414 158.15 282.024C91.47 285.914 0 278.894 0 275.714C0 273.284 16.34 269.204 55.91 268.214C68.17 267.914 84.16 264.654 101.21 264.654C173.28 264.614 182.69 267.024 212.15 269.454Z" fill="#E0E0E0"/>
<path d="M43.74 245.343C-8.60001 191.583 16.41 100.123 64.74 52.9235C87.74 30.4235 119.6 17.2935 149.53 17.8035C162.61 12.6335 176.65 11.9035 190.3 17.6335C221.99 30.9135 239.3 67.9935 239.42 103.993C239.55 139.093 225.21 173.253 209.26 203.233C193.45 232.953 168.68 256.543 137.97 264.643C106.98 272.803 67.42 269.673 43.74 245.343Z" fill="#F7F7F7"/>
<path d="M222.75 74.124C207.22 72.794 191.75 71.364 176.29 69.064C175.86 68.964 175.42 69.214 175.29 69.634C174.87 70.834 174.4 72.014 173.88 73.174C169.83 79.584 166.26 86.294 163.2 93.234C163.02 93.624 163.12 94.234 163.64 94.354C179.74 96.974 196 98.664 212.24 100.004C212.57 99.994 212.86 99.774 212.94 99.454C216.16 91.264 219.43 83.094 223.37 75.234C223.57 74.874 223.44 74.414 223.07 74.214C222.97 74.164 222.86 74.134 222.75 74.124Z" fill="#EBEBEB"/>
<path d="M100.1 270.914C98.1002 269.324 93.1002 262.504 92.0302 259.074C90.5602 254.234 90.3702 220.074 90.3702 220.074L80.4302 221.254C80.4302 221.254 82.8602 235.654 83.6602 243.774C84.5702 253.044 83.8802 256.274 84.2602 257.864C84.2302 258.344 84.1302 258.814 83.9802 259.264C83.7702 259.994 83.3502 271.014 83.3502 271.014H100.3H100.15H100.1V270.914Z" fill="#A55A51"/>
<path d="M91.8999 190.784C91.3499 187.464 94.6099 182.184 94.3199 169.204C95.1499 154.484 96.1099 120.764 89.3699 101.044L69.9099 99.9639C69.4999 115.164 53.5199 130.344 70.0099 149.274C71.8199 155.994 75.0099 182.714 76.0999 192.514C77.4199 204.074 92.7499 195.914 91.8999 190.784Z" fill="#A55A51"/>
<path d="M82.5398 271.024C82.5398 271.024 81.9098 259.094 83.7698 258.304C85.6298 257.514 85.9498 261.764 88.9298 261.764C90.8698 261.764 91.6498 257.294 93.3098 258.304C94.7698 259.184 95.7498 261.704 99.6598 264.304C103.57 266.904 106.76 266.144 107 271.044L82.5398 271.024Z" fill="#0E3944"/>
<path d="M51.76 223.134H41.04C39.3 233.054 34.04 270.984 34.04 270.984H44.86C43.41 264.734 43.37 258.244 44.74 251.984C47.43 238.904 51.76 223.134 51.76 223.134Z" fill="#B86658"/>
<path d="M43.6299 164.274C44.3599 170.824 45.7799 175.274 46.3299 180.784C47.1199 188.784 58.0899 191.784 59.5899 179.664C60.2299 174.564 61.6799 167.374 63.1199 160.844C63.1199 160.844 67.4899 141.844 70.3999 140.484C82.3099 134.804 89.3999 101.044 89.3999 101.044L60.2199 100.104C60.2199 100.104 42.1699 112.834 44.6399 138.234C44.6399 138.234 44.6399 138.494 44.5399 138.934C42.8999 150.674 42.9899 158.344 43.6599 164.274H43.6299Z" fill="#B86658"/>
<path d="M35.6799 260.464C35.6799 260.464 35.8099 257.114 40.4499 257.464C45.0899 257.814 44.7699 261.224 44.7699 261.224C45.1499 260.924 45.6999 260.924 46.0799 261.224C46.6899 261.764 46.2299 270.944 46.2299 270.944H32.6599C32.6599 270.944 31.9299 267.634 33.2699 266.414C34.6099 265.194 33.1199 260.794 35.6799 260.414V260.464Z" fill="#0E3944"/>
<path d="M91.0202 226.374C87.4702 227.774 83.6202 228.214 79.8502 227.624V226.024C79.8502 226.024 70.5902 162.804 69.9902 160.024C68.5002 152.894 67.3102 145.704 67.2602 140.524C67.1002 125.824 73.6602 88.1436 73.6602 88.1436L86.9602 88.8636H87.9602C87.9602 88.8636 91.4302 97.1836 94.0102 113.174C96.2702 127.174 97.8602 147.064 95.8602 172.414L91.0002 226.334L91.0202 226.374Z" fill="#8B383F"/>
<path d="M73.3899 141.694C64.3399 170.974 57.0299 200.774 51.4799 230.914C51.4799 230.914 43.3199 232.254 38.3999 230.914V227.804C38.3999 227.804 40.4899 198.534 43.8199 180.964C43.8199 180.964 36.3199 154.334 45.8199 117.424C48.4199 107.414 51.9599 97.6739 56.4099 88.3439L62.0599 88.2739L80.6399 88.0439C80.6399 88.0439 93.3699 114.234 73.3599 141.694H73.3899Z" fill="#8B383F"/>
<path d="M65.4601 89.7034C65.4601 89.7034 58.2101 112.923 45.8501 117.423C48.4501 107.413 51.9901 97.6734 56.4401 88.3434L62.0901 88.2734C63.2601 88.6334 64.3901 89.1134 65.4601 89.7034Z" fill="#662D34"/>
<path d="M94.0302 113.214C93.0402 112.064 92.3502 110.694 92.0302 109.214C91.0302 104.214 88.0302 93.0738 86.9102 88.8438H87.9102C87.9102 88.8438 91.3802 97.1638 93.9602 113.154L94.0302 113.214Z" fill="#662D34"/>
<path d="M76.2402 156.924C74.1602 159.744 70.5902 162.824 69.9902 160.014C70.5702 157.934 73.1902 147.864 75.3902 130.424C77.8802 110.744 76.5102 88.8538 76.5102 88.8538L78.0302 88.5938C78.0302 88.5938 83.8602 118.224 74.8402 137.594C75.1702 137.294 80.4402 132.274 82.1802 127.594C82.1802 127.594 82.8302 147.964 76.2402 156.904V156.924Z" fill="#662D34"/>
<path d="M79.9399 45.4238C89.0399 48.6338 90.1699 54.3038 97.4299 86.0038C101.2 86.5038 104.85 87.6138 108.26 89.2938C112.33 91.3738 123.26 94.2438 128.21 95.4838C127.14 96.0538 126.21 97.2938 125.99 100.074C118.27 99.4438 96.8799 97.5438 93.5199 95.4938C89.3999 92.9838 81.3399 66.4938 81.3399 66.4938L79.9399 45.4338V45.4238Z" fill="#3A201C"/>
<path d="M56.4501 88.3537C78.5801 95.2337 87.9801 88.9037 87.9801 88.9037C103.19 67.0737 80.4101 45.6337 80.4101 45.6337L79.9401 45.4237C76.9401 44.1537 60.3101 37.5937 48.6201 43.8337C47.8401 44.2437 47.1001 44.7137 46.3901 45.2337C33.5801 54.5637 56.4501 88.3537 56.4501 88.3537Z" fill="#D95D7B"/>
<path d="M48.6201 43.834C50.0001 44.744 51.6701 45.744 53.6201 46.834C89.2001 66.254 81.7601 50.104 81.7601 50.104C81.8101 48.984 81.5401 47.874 80.9701 46.904C80.6901 46.394 80.3501 45.904 79.9701 45.464C77.0401 44.224 61.0301 37.894 49.3801 43.464C49.1301 43.574 48.8901 43.694 48.6501 43.824L48.6201 43.834Z" fill="#B86658"/>
<path d="M48.6199 43.8334C49.9999 44.7434 51.6699 45.7434 53.6199 46.8334C89.1999 66.2534 81.7599 50.1034 81.7599 50.1034C81.8099 48.9834 81.5399 47.8734 80.9699 46.9034C79.2899 47.5734 77.5699 48.1334 75.8199 48.5934L75.0499 50.8134L72.0499 48.5234C64.2799 47.9334 56.6399 46.2534 49.3399 43.5234C49.0899 43.6334 48.8499 43.7534 48.6099 43.8834L48.6199 43.8334Z" fill="#3A201C"/>
<path d="M45.3298 46.1442C51.3998 42.8442 54.9098 55.0842 53.5098 62.8742C52.8898 66.3842 53.2798 87.1242 53.2798 87.1242L90.5398 97.2742C90.5398 97.2742 89.2098 101.664 87.7698 102.544C83.5398 105.114 44.7698 98.9642 42.1598 96.6042C39.5498 94.2442 37.2598 51.4742 45.3298 46.1442Z" fill="#3A201C"/>
<path d="M80.7598 37.2042C80.7598 37.2042 65.2598 31.5342 51.8598 37.0342C51.8598 37.0342 40.0498 0.204206 65.3698 2.58421C90.6898 4.96421 83.5398 31.0242 80.7598 37.2042Z" fill="#0E3944"/>
<path d="M59.2798 4.84417C59.2798 4.84417 76.9598 0.434168 79.4698 12.8442C81.9798 25.2542 77.8198 37.7842 69.7998 36.2942C58.5198 34.1942 45.3598 10.6042 59.2798 4.84417Z" fill="#B86658"/>
<path d="M65.65 11.6143C62.95 14.7843 61.32 18.7243 60.99 22.8743C60.99 22.8743 58.38 19.1043 56.63 22.0543C54.88 25.0043 60.54 30.0243 60.54 30.0243C60.54 30.0243 50.75 29.8043 50.6 17.1043C50.54 11.7443 57.82 7.44433 65.6 11.6443L65.65 11.6143Z" fill="#0E3944"/>
<path d="M61 27.2842C62 30.9542 66.62 37.5142 72.13 36.1842C72.13 36.1842 70.36 41.3842 72.44 43.4942C72.44 43.4942 74.44 47.7842 69.06 47.9442C62.29 48.1442 58.98 42.4242 58.98 42.4242C62.42 36.1442 59.03 27.7942 59.03 27.7942C59.47 28.2742 60.21 28.3042 60.68 27.8642C60.85 27.7042 60.97 27.5042 61.03 27.2842H61Z" fill="#A55A51"/>
<path d="M70.29 8.45432C70.29 8.45432 71.81 22.3343 60.99 22.8743C60.99 22.8743 57.68 16.0643 52.27 20.2143C52.27 20.2143 48.05 4.96432 60.95 3.59432C60.95 3.59432 63.87 -1.89568 73.62 0.694325C87.23 4.30432 89.76 21.3143 80.76 37.2043C80.76 37.2043 89.87 8.04432 70.29 8.45432Z" fill="#0E3944"/>
<path d="M142.05 71.3734L127.08 106.813L66.2802 106.353L65.2402 103.033L86.5502 102.773L97.5502 71.2734L142.05 71.3734Z" fill="#455B64"/>
<path d="M115.76 84.8236C116.8 85.0436 117.62 85.8536 117.84 86.8936C117.99 87.8236 116.56 89.8936 115.73 90.3236C114.88 90.7736 113.84 90.7036 113.06 90.1436C112.25 89.5636 112.76 87.3636 113.14 86.4436C113.56 85.3936 114.63 84.7336 115.76 84.8236Z" fill="#EBEBEB"/>
<path d="M112.58 110.434H104.73V264.234H112.58V110.434Z" fill="#455B64"/>
<path d="M112.57 110.434H110.4V264.234H112.57V110.434Z" fill="#556F77"/>
<path d="M151.92 270.984H61.6001V269.374L94.0301 266.724L104.73 264.224H112.57L122.48 266.724L151.92 269.374V270.984Z" fill="#556F77"/>
<path d="M61.6099 271.024V269.414L94.0299 266.764L104.73 264.264H110.4C110.4 264.264 96.6699 267.644 103.54 267.644C107.67 267.654 111.71 268.824 115.21 271.024H61.6099Z" fill="#455B64"/>
<path d="M114.53 110.434H102.78V113.964H114.53V110.434Z" fill="#455B64"/>
<path d="M114.53 110.434H111.27V113.964H114.53V110.434Z" fill="#556F77"/>
<path d="M156.21 105.734H61.6099V107.894H156.21V105.734Z" fill="#A55A51"/>
<path d="M61.6099 107.694H156.21V109.094C156.21 110.484 155.08 111.614 153.69 111.614H64.1299C62.7399 111.614 61.6099 110.484 61.6099 109.094V107.694Z" fill="#995037"/>
<path d="M138.05 64.2843C138.05 64.2843 138.4 60.9543 138.87 56.8543C139.34 52.7543 139.75 49.4443 139.78 49.4443C139.81 49.4443 139.44 52.7643 138.96 56.8643C138.48 60.9643 138.08 64.2843 138.05 64.2843Z" fill="#263238"/>
<path d="M156.07 50.2241L155.98 50.3541L155.63 50.8441C155.32 51.2741 154.87 51.8441 154.33 52.6441C153.24 54.1641 151.74 56.2741 150.12 58.6441C148.5 61.0141 147.06 63.1541 146.03 64.7141L144.81 66.5641L144.47 67.0641L144.38 67.1941V67.2441V67.1941L144.46 67.0641L144.78 66.5441C145.06 66.1041 145.46 65.4641 145.97 64.6841C146.97 63.1041 148.42 60.9541 150.04 58.5941C151.66 56.2341 153.17 54.1341 154.28 52.5941C154.83 51.8441 155.28 51.2341 155.6 50.8141L155.96 50.3341L156.06 50.2041L156.07 50.2241Z" fill="#263238"/>
<path d="M162.54 65.3235C162.54 65.3235 159.74 66.5835 156.25 68.0735C152.76 69.5635 149.93 70.7735 149.92 70.7435C149.91 70.7135 152.73 69.4935 156.22 67.9935C159.71 66.4935 162.54 65.3035 162.54 65.3235Z" fill="#263238"/>
<path d="M132.21 63.4139C132.21 63.4139 131.58 62.0339 130.85 60.3139C130.12 58.5939 129.55 57.1839 129.57 57.1739C129.59 57.1639 130.21 58.5539 130.93 60.2739C131.65 61.9939 132.24 63.4039 132.21 63.4139Z" fill="#263238"/>
<path d="M157.65 79.5944C157.65 79.5944 156.3 78.8444 154.65 77.8744C153 76.9044 151.7 76.1044 151.72 76.0844C151.74 76.0644 153.06 76.8344 154.72 77.7944C156.38 78.7544 157.66 79.5744 157.65 79.5944Z" fill="#263238"/>
<path d="M171.13 86.4436C172.85 82.9036 174.64 79.3536 176.02 75.6736C177.4 71.9936 178.72 68.3836 180.02 64.6736C180.26 63.9836 188.31 64.6736 189.77 64.7336C192.64 64.7336 195.51 64.8036 198.37 64.9036C204.15 65.0936 209.95 65.3136 215.72 65.6636C216.01 65.6636 216.36 65.9336 216.32 66.2736C215.64 68.8636 214.83 71.4136 213.89 73.9236C213.3 75.7036 212.65 77.4636 211.94 79.1836C210.54 82.6136 208.94 85.9636 207.26 89.2436C207.15 89.4336 206.94 89.5536 206.72 89.5536C200.87 89.2836 173.13 87.4536 171.67 87.3236C171.33 87.3236 171.06 87.0436 171.07 86.7036C171.07 86.6236 171.09 86.5336 171.13 86.4436Z" fill="#F1F2F2" stroke="#A42A29" stroke-width="0.16" stroke-miterlimit="10"/>
<path d="M189.75 65.934C188.29 65.934 186.83 65.874 185.37 65.874C183.91 65.874 182.57 66.014 181.19 65.874C181.69 66.804 182.19 67.764 182.67 68.674C183.36 69.844 184.09 70.984 184.88 72.094C186.44 74.304 188.19 76.374 190.11 78.274C190.59 78.744 191.11 79.204 191.57 79.654C191.66 79.734 191.81 79.904 191.95 79.894C192.09 79.884 192.32 79.714 192.43 79.654L193.43 79.074L197.6 76.704C200.35 75.134 203.1 73.554 205.86 72.004C207.42 71.134 208.96 70.244 210.5 69.354C212.04 68.464 213.45 67.584 214.98 66.824C209.43 66.464 203.9 66.174 198.33 66.054C195.48 66.024 192.62 65.964 189.75 65.934Z" fill="#F1F2F2" stroke="#A42A29" stroke-width="0.16" stroke-miterlimit="10"/>
<path d="M180.41 87.0236C183.32 87.2436 186.23 87.4036 189.16 87.5136C194.89 87.7236 200.6 88.0636 206.32 88.3036C207.95 85.1336 209.45 81.8936 210.78 78.5836C211.45 76.9436 212.09 75.2936 212.72 73.6336C212.99 72.9136 213.25 72.1936 213.53 71.4736C213.81 70.7536 214.11 69.9336 214.39 69.1636C214.59 68.6236 214.74 68.0736 214.86 67.5136C213.65 68.2836 212.38 68.9536 211.15 69.6636C209.74 70.4736 208.33 71.2736 206.93 72.1036C204.06 73.7836 201.18 75.4436 198.3 77.1036L194.02 79.5836L193.02 80.1736C192.74 80.3936 192.41 80.5436 192.07 80.6436C191.45 80.7336 190.96 80.1236 190.56 79.7536C188.5 77.8336 186.62 75.7336 184.94 73.4736C184 72.2236 183.14 70.9236 182.34 69.5836C181.78 68.6436 181.18 67.6636 180.7 66.6436C179.57 69.8136 178.33 72.9636 176.97 76.0436C175.46 79.4136 174.11 82.8436 172.57 86.2036C175.18 86.4636 177.77 86.8236 180.41 87.0236Z" stroke="#A42A29" stroke-width="0.16" stroke-miterlimit="10"/>
<path d="M165.41 186.884C164.41 184.774 163.31 182.654 162.48 180.444C161.65 178.234 160.86 176.094 160.1 173.894C159.96 173.474 155.1 173.894 154.27 173.894C152.56 173.894 150.84 173.894 149.13 173.994C145.67 174.114 142.2 174.244 138.75 174.454C138.58 174.454 138.36 174.614 138.39 174.814C138.8 176.364 139.28 177.894 139.85 179.394C140.2 180.454 140.58 181.504 141.01 182.534C141.85 184.584 142.78 186.584 143.81 188.534C143.88 188.644 144 188.714 144.13 188.714C147.63 188.564 164.22 187.464 165.13 187.384C165.33 187.344 165.47 187.154 165.43 186.954C165.43 186.934 165.42 186.914 165.41 186.884Z" fill="#F1F2F2" stroke="#A42A29" stroke-width="0.09" stroke-miterlimit="10"/>
<path d="M154.27 174.624H156.89C157.72 174.624 158.57 174.714 159.39 174.624C159.09 175.174 158.82 175.744 158.5 176.294C158.09 176.994 157.65 177.664 157.18 178.294C156.25 179.614 155.2 180.854 154.05 181.994C153.77 182.274 153.48 182.554 153.18 182.814C153.18 182.864 153.04 182.964 152.95 182.964C152.86 182.964 152.74 182.854 152.67 182.814L152.05 182.464L149.54 181.084L144.6 178.274C143.67 177.754 142.75 177.224 141.83 176.694C140.91 176.164 140.07 175.634 139.15 175.174C142.47 174.964 145.78 174.784 149.15 174.714C150.84 174.684 152.54 174.644 154.27 174.624Z" fill="white"/>
<path d="M160.1 173.894C159.75 173.324 151.01 163.834 150.68 163.564C150.62 163.564 150.52 163.414 150.43 163.424C150.34 163.434 150.21 163.554 150.14 163.604C150.07 163.654 139.54 174.024 138.54 174.544C142.17 174.314 159.23 173.874 160.1 173.894Z" fill="#F1F2F2" stroke="#A42A29" stroke-width="0.09" stroke-miterlimit="10"/>
<path d="M159.86 187.244C158.11 187.374 156.37 187.474 154.62 187.534C151.2 187.664 147.78 187.864 144.36 188.004C143.38 186.114 142.49 184.184 141.69 182.194C141.29 181.194 140.9 180.194 140.53 179.194C140.37 178.764 140.22 178.334 140.05 177.904C139.88 177.474 139.7 176.984 139.53 176.524C139.42 176.194 139.32 175.864 139.25 175.524C139.97 175.984 140.74 176.384 141.47 176.814L144 178.264C145.71 179.264 147.44 180.264 149.16 181.264L151.71 182.754C151.92 182.864 152.12 182.984 152.32 183.104C152.49 183.224 152.69 183.324 152.89 183.384C153.26 183.434 153.56 183.074 153.8 182.854C155.03 181.704 156.15 180.444 157.16 179.094C158.07 177.774 158.92 176.414 159.69 175.014C160.37 176.904 161.11 178.794 161.93 180.634C162.83 182.634 163.63 184.704 164.56 186.704C162.99 186.904 161.43 187.114 159.86 187.244Z" fill="#F1F2F2"/>
<path d="M159.73 174.773C159.38 175.403 158.08 177.923 153.11 183.523C153.04 183.583 153.11 183.713 153.21 183.653C153.78 183.233 160.51 175.063 159.75 174.783L159.73 174.773Z" fill="#A42A29"/>
<path d="M152.4 183.214C150.75 182.294 140.56 176.294 139.55 175.884C140.38 176.414 151.38 182.994 152.37 183.294C152.4 183.284 152.41 183.264 152.41 183.234C152.41 183.234 152.4 183.224 152.4 183.214Z" fill="#A42A29"/>
<path d="M87.5398 274.944C88.9998 271.944 90.5398 268.894 91.7098 265.744C92.8798 262.594 94.0198 259.534 95.1098 256.394C95.3098 255.804 102.18 256.394 103.43 256.444C105.87 256.444 108.32 256.504 110.77 256.584C115.7 256.754 120.65 256.944 125.57 257.234C125.82 257.234 126.12 257.464 126.09 257.754C125.51 259.964 124.81 262.144 124.01 264.284C123.51 265.794 123.01 267.284 122.35 268.774C121.15 271.694 119.82 274.554 118.35 277.354C118.26 277.524 118.08 277.624 117.89 277.614C112.89 277.394 89.2298 275.824 87.9798 275.714C87.6898 275.704 87.4698 275.464 87.4798 275.174C87.4798 275.104 87.4998 275.024 87.5398 274.944Z" fill="#F1F2F2" stroke="#A42A29" stroke-width="0.13" stroke-miterlimit="10"/>
<path d="M103.28 257.444C102.03 257.444 100.79 257.394 99.5402 257.384C98.2902 257.374 97.1502 257.514 95.9702 257.384C96.4102 258.174 96.7902 258.994 97.2402 259.774C97.8302 260.774 98.4502 261.774 99.1202 262.694C100.45 264.584 101.95 266.344 103.59 267.964C104 268.364 104.41 268.764 104.83 269.144C104.91 269.214 105.04 269.354 105.16 269.354C105.31 269.304 105.44 269.234 105.57 269.144L106.44 268.644L110 266.644C112.35 265.304 114.69 263.954 117 262.644C118.32 261.904 119.64 261.144 121 260.384C122.36 259.624 123.51 258.874 124.82 258.224C120.09 257.914 104.45 257.454 103.28 257.444Z" fill="white"/>
<path d="M95.0898 256.394C95.5898 255.584 108.09 242.034 108.53 241.664C108.62 241.594 108.76 241.444 108.89 241.464C109.02 241.484 109.2 241.644 109.3 241.714C109.6 241.904 124.5 256.564 125.84 257.334C120.67 257.024 96.3298 256.374 95.0898 256.394Z" fill="#F1F2F2" stroke="#A42A29" stroke-width="0.13" stroke-miterlimit="10"/>
<path d="M95.43 275.444C97.92 275.634 100.43 275.763 102.91 275.863C107.79 276.043 112.67 276.334 117.55 276.534C118.94 273.834 120.22 271.063 121.36 268.243C121.93 266.844 122.48 265.434 123.01 264.014C123.24 263.404 123.46 262.784 123.7 262.174C123.94 261.564 124.2 260.864 124.44 260.174C124.6 259.714 124.74 259.244 124.84 258.764C123.84 259.424 122.72 259.994 121.67 260.604C120.62 261.214 119.26 261.974 118.07 262.684L110.71 267.023L107.05 269.144L106.18 269.654C105.93 269.834 105.66 269.963 105.37 270.053C104.84 270.123 104.43 269.604 104.08 269.284C102.32 267.644 100.71 265.854 99.28 263.924C98.49 262.864 96.08 258.974 95.67 258.104C94.67 260.814 93.67 263.494 92.48 266.104C91.2 268.984 90.04 271.903 88.73 274.773C90.97 274.953 93.19 275.264 95.43 275.444Z" fill="#F1F2F2"/>
<path d="M95.61 257.654C96.11 258.544 97.97 262.144 105.06 270.144C105.16 270.234 105.06 270.414 104.92 270.324C104.11 269.724 94.5 258.064 95.59 257.664L95.61 257.654Z" fill="#A42A29"/>
<path d="M106.08 269.694C108.44 268.384 122.97 259.824 124.42 259.244C123.24 259.994 107.54 269.394 106.13 269.814C106.09 269.814 106.06 269.784 106.06 269.744C106.06 269.734 106.07 269.714 106.08 269.694Z" fill="#A42A29"/>
<path d="M152.68 237.354C154.15 234.354 155.68 231.354 156.86 228.164C158.04 224.974 159.17 221.944 160.25 218.814C160.46 218.214 167.33 218.814 168.57 218.814C171.02 218.814 173.47 218.864 175.92 218.954C180.85 219.124 185.79 219.304 190.72 219.604C190.97 219.604 191.27 219.834 191.23 220.124C190.65 222.334 189.96 224.514 189.16 226.654C188.66 228.164 188.1 229.654 187.5 231.144C186.3 234.064 184.97 236.924 183.5 239.724C183.41 239.894 183.23 239.994 183.04 239.984C178.04 239.764 154.37 238.194 153.13 238.084C152.84 238.064 152.62 237.804 152.64 237.514C152.65 237.464 152.66 237.414 152.68 237.354Z" fill="#F1F2F2" stroke="#A42A29" stroke-width="0.13" stroke-miterlimit="10"/>
<path d="M168.54 219.864L164.81 219.804C163.63 219.804 162.41 219.924 161.24 219.804C161.67 220.594 162.05 221.414 162.51 222.194C163.09 223.194 163.72 224.194 164.39 225.114C165.72 227.004 167.21 228.764 168.86 230.384C169.26 230.784 169.67 231.174 170.1 231.564C170.18 231.634 170.3 231.774 170.43 231.764C170.56 231.754 170.73 231.614 170.83 231.554L171.71 231.064L175.26 229.064C177.61 227.724 179.95 226.374 182.31 225.064L186.31 222.804C187.57 222.084 188.82 221.294 190.13 220.644C185.39 220.334 180.67 220.084 175.93 219.994C173.47 219.934 171.02 219.884 168.54 219.864Z" fill="white"/>
<path d="M160.25 218.814C160.76 218.004 173.25 204.454 173.69 204.084C173.78 204.004 173.92 203.864 174.05 203.884C174.18 203.904 174.37 204.064 174.47 204.134C174.76 204.324 189.67 218.984 191.01 219.754C185.84 219.414 161.54 218.784 160.25 218.814Z" fill="#F1F2F2" stroke="#A42A29" stroke-width="0.13" stroke-miterlimit="10"/>
<path d="M160.6 237.864C163.09 238.054 165.6 238.184 168.08 238.284C172.96 238.464 177.84 238.754 182.72 238.954C184.11 236.254 185.37 233.494 186.52 230.664C187.09 229.264 187.65 227.854 188.18 226.434C188.41 225.824 188.63 225.204 188.87 224.594C189.11 223.984 189.36 223.284 189.6 222.594C189.77 222.134 189.9 221.664 190 221.184C189 221.834 187.89 222.414 186.83 223.024C185.77 223.634 184.43 224.394 183.23 225.094C180.79 226.534 178.33 227.944 175.87 229.374L172.22 231.494L171.35 231.994C171.11 232.174 170.83 232.314 170.54 232.394C170.01 232.474 169.59 231.954 169.25 231.634C167.49 230.004 165.88 228.204 164.45 226.274C163.65 225.214 161.25 221.274 160.84 220.454C159.84 223.154 158.84 225.844 157.65 228.454C156.37 231.334 155.21 234.264 153.9 237.134C156.14 237.374 158.36 237.684 160.6 237.864Z" fill="#F1F2F2"/>
<path d="M160.78 220.074C161.28 220.964 163.14 224.564 170.23 232.554C170.33 232.644 170.23 232.824 170.08 232.744C169.27 232.144 159.67 220.484 160.76 220.084C160.76 220.074 160.77 220.024 160.78 220.074Z" fill="#A42A29"/>
<path d="M171.25 232.114C173.6 230.794 188.14 222.244 189.58 221.654C188.4 222.404 172.7 231.804 171.29 232.214C171.23 232.264 171.18 232.154 171.25 232.114Z" fill="#A42A29"/>
<path d="M160.44 269.784C162.74 269.494 165.11 269.224 167.16 268.864C169.21 268.504 171.16 268.164 173.16 267.784C173.54 267.714 180.02 269.044 181.23 269.274C183.6 269.704 185.97 270.144 188.32 270.594C193.06 271.494 197.8 272.404 202.5 273.334C202.74 273.334 202.97 273.474 202.85 273.514C202.33 273.714 199.4 274.234 198.94 274.324C198.01 274.504 197.04 274.674 196.02 274.834C194.02 275.144 191.9 275.414 189.65 275.664C189.48 275.684 189.3 275.684 189.13 275.664C184.35 274.744 161.81 270.274 160.64 270.034C160.27 269.924 160.16 269.814 160.44 269.784Z" fill="#F1F2F2" stroke="#A42A29" stroke-width="0.21" stroke-miterlimit="10"/>
<path d="M180.73 269.234L177.12 268.554C175.97 268.344 174.76 268.154 173.64 267.934C173.83 268.154 173.97 268.364 174.18 268.584C174.49 268.894 174.83 269.184 175.18 269.444C176.06 270.104 177 270.694 177.99 271.184L178.85 271.614C178.93 271.654 179.02 271.684 179.11 271.704H179.57L180.57 271.764L184.57 272.034L192.57 272.564L197.07 272.854C198.5 272.944 199.95 273.024 201.4 273.144C196.89 272.254 192.4 271.374 187.8 270.514C185.46 270.114 183.1 269.664 180.73 269.234Z" fill="#F1F2F2"/>
<path d="M167.76 271.214C170.12 271.694 172.5 272.154 174.9 272.614L188.84 275.304C188.89 275.324 188.95 275.324 189 275.304C191.11 275.064 193.12 274.804 195 274.494L197.84 274.034L199.04 273.824C199.41 273.734 199.9 273.674 200.33 273.604C200.76 273.534 200.88 273.484 201.12 273.414C199.93 273.354 198.71 273.264 197.51 273.184L193.41 272.924L185.03 272.384L180.86 272.124L179.86 272.064C179.58 272.064 179.26 272.064 178.96 271.984C178.61 271.924 178.27 271.804 177.96 271.624C176.88 271.104 175.84 270.504 174.85 269.814C174.28 269.354 173.73 268.854 173.21 268.334C173.09 268.204 172.91 268.144 172.74 268.174C171.1 268.474 169.4 268.754 167.61 269.004C166.55 269.144 165.51 269.304 164.47 269.464C164.18 269.504 163.98 269.774 164.02 270.064C164.05 270.304 164.24 270.484 164.47 270.514L167.76 271.214Z" fill="#F1F2F2"/>
<path d="M173.32 268.114C173.55 268.354 174.32 269.334 178.87 272.024C178.94 272.024 178.76 272.024 178.67 272.024C178.06 271.774 172.12 267.974 173.3 268.094L173.32 268.114Z" fill="#A42A29"/>
<path d="M179.99 272.124C182.66 272.304 199.25 273.344 200.83 273.494C199.46 273.414 181.49 272.334 180 272.154C179.93 272.144 179.91 272.114 179.99 272.124Z" fill="#A42A29"/>
<path d="M129.54 266.404C129.68 266.344 138.26 268.094 138.26 268.094L148.48 268.974L163.37 267.894C163.37 267.894 167.55 267.894 166.56 273.894C165.57 279.894 162.83 279.264 162.83 279.264L144.4 275.704L137.55 274.774L128.68 274.654C128.68 274.654 125.02 273.554 125.51 269.964C125.79 267.944 127.5 266.434 129.54 266.404Z" fill="#F1F2F2" stroke="#A42A29" stroke-width="0.13" stroke-miterlimit="10"/>
<path d="M161.82 266.404C161.64 266.544 158.58 270.584 158.73 274.134C158.88 277.684 162.78 279.304 162.78 279.304L138.16 274.714H128.63C128.63 274.714 124.83 274.074 124.83 270.394C124.83 267.904 127.45 265.864 127.45 265.864C127.45 265.864 134.13 268.284 135.82 268.444C137.51 268.604 148.13 269.444 151.96 268.744C155.79 268.044 161.82 266.404 161.82 266.404Z" fill="#F1F2F2" stroke="#A42A29" stroke-width="0.13" stroke-miterlimit="10"/>
<path d="M148.43 268.674C146.17 268.324 138.69 267.834 138.53 267.894C137.2 268.374 136.2 269.504 135.91 270.894C135.54 272.664 136.48 274.444 138.15 275.144C140.12 275.574 142.13 275.834 144.15 275.924C144.27 275.924 144.37 275.824 144.37 275.704C144.37 275.644 144.35 275.594 144.31 275.554C143.12 274.344 142.94 272.454 143.9 271.044C144.95 269.624 146.68 268.864 148.44 269.044C148.54 268.944 148.59 268.694 148.43 268.674Z" fill="#8F2524"/>
<path d="M156.59 271.174C155.59 271.184 154.58 271.264 153.59 271.394C152.59 271.454 151.65 271.474 150.68 271.464C148.68 271.464 146.75 271.174 144.78 271.004C146.73 271.324 148.7 271.474 150.68 271.474C151.68 271.474 152.68 271.474 153.68 271.474C154.66 271.514 155.64 271.444 156.6 271.264C156.62 271.244 156.62 271.204 156.59 271.174C156.59 271.184 156.59 271.184 156.59 271.174Z" fill="#A42A29"/>
<path d="M155.92 273.304C153.92 273.304 151.92 273.234 149.92 273.044C148.87 272.944 147.84 272.794 146.81 272.614C145.78 272.434 144.94 272.164 144 272.074C143.95 272.074 143.93 272.144 144 272.164C144.93 272.504 145.9 272.734 146.88 272.834C147.88 272.984 148.78 273.064 149.74 273.134C151.81 273.284 153.89 273.324 155.97 273.374C155.96 273.374 155.96 273.304 155.92 273.304Z" fill="#A42A29"/>
<path d="M156.54 275.684C154.43 275.344 152.31 275.084 150.19 274.754C149.19 274.594 148.12 274.414 147.08 274.264C146.04 274.114 145.08 273.904 144.08 273.854L156.54 275.684ZM144.08 273.904C145.13 274.174 146.23 274.264 147.3 274.434C148.37 274.604 149.3 274.704 150.3 274.844C152.38 275.144 154.45 275.504 156.53 275.794C156.54 275.794 156.59 275.694 156.54 275.684L144.08 273.904Z" fill="#A42A29"/>
<path d="M155.93 277.224C154.14 276.684 152.32 276.274 150.48 275.974C149.59 275.824 148.71 275.674 147.82 275.554C146.93 275.384 146.03 275.294 145.12 275.294C145.99 275.494 146.88 275.634 147.77 275.724C148.7 275.864 149.62 276.014 150.53 276.184C152.34 276.504 154.12 276.954 155.93 277.274C155.96 277.304 155.98 277.244 155.93 277.224Z" fill="#A42A29"/>
<path d="M134.72 269.753C133.51 269.433 132.31 269.103 131.12 268.753C130.53 268.563 129.92 268.403 129.34 268.183C128.77 267.933 128.18 267.723 127.58 267.563C128.08 267.863 128.62 268.093 129.18 268.263C129.79 268.483 130.38 268.733 131 268.923C132.21 269.313 133.45 269.613 134.7 269.843C134.7 269.843 134.76 269.763 134.72 269.753Z" fill="#A42A29"/>
<path d="M134.81 271.084C133.43 270.674 131.97 270.404 130.56 270.084C129.2 269.724 127.82 269.464 126.42 269.284C127.78 269.704 129.17 270.034 130.58 270.284C131.98 270.584 133.38 270.934 134.79 271.124C134.84 271.164 134.86 271.094 134.81 271.084Z" fill="#A42A29"/>
<path d="M135.36 272.614C134.7 272.484 134.03 272.404 133.36 272.354L131.16 272.104C129.7 271.884 128.23 271.764 126.75 271.734C128.15 272.004 129.57 272.174 130.99 272.264L133.19 272.474C133.92 272.574 134.65 272.644 135.39 272.654L135.36 272.614Z" fill="#A42A29"/>
<path d="M135.54 273.914C134.96 273.784 134.38 273.704 133.79 273.674C133.15 273.614 132.52 273.554 131.89 273.524C130.62 273.484 129.35 273.504 128.08 273.594C129.32 273.594 130.57 273.654 131.81 273.704C132.42 273.704 133.03 273.764 133.64 273.814C134.25 273.864 134.91 273.974 135.53 273.954C135.54 273.964 135.54 273.924 135.54 273.914Z" fill="#A42A29"/>
<path d="M166.01 271.193C166 270.773 165.91 270.363 165.74 269.973C165.57 269.603 165.31 269.283 164.98 269.043C164.75 268.883 164.48 268.783 164.2 268.753C164.17 268.683 164.09 268.653 164.03 268.683C164.02 268.683 164.01 268.693 164 268.703H163.95C163.84 268.683 163.74 268.683 163.63 268.703C163.45 268.763 163.28 268.833 163.11 268.913C162.74 269.083 162.41 269.313 162.11 269.593C161.81 269.883 161.56 270.223 161.36 270.593C161.25 270.773 161.16 270.953 161.07 271.133C160.98 271.313 161.02 271.263 161 271.323C160.7 271.873 160.49 272.453 160.36 273.063C160.11 274.123 160.18 275.243 160.58 276.263C160.89 276.993 161.72 278.263 162.84 278.263C163.96 278.263 164.84 277.083 165.22 276.263C165.75 275.213 166.02 274.053 166.02 272.873C166.02 272.653 166.02 272.383 166.02 272.103C166.05 271.803 166.04 271.503 166.01 271.193Z" fill="#A42A29"/>
<path d="M165.02 276.144C164.67 276.894 163.76 278.394 162.46 277.994C161.99 277.784 161.59 277.434 161.32 276.994C161.01 276.604 160.76 276.164 160.57 275.694C160.22 274.724 160.22 273.664 160.57 272.694C160.71 272.284 160.88 271.874 161.07 271.484L161.2 271.284C161.29 271.134 161.37 270.974 161.46 270.814C161.64 270.494 161.85 270.194 162.09 269.914C162.31 269.654 162.56 269.424 162.83 269.224C163.13 269.014 163.47 268.854 163.83 268.764C163.85 268.754 163.87 268.754 163.89 268.764C163.91 268.804 163.95 268.834 164 268.834C164.08 268.834 164.16 268.804 164.2 268.734C164.55 268.824 164.85 269.014 165.08 269.294C165.34 269.564 165.55 269.894 165.69 270.244C165.76 270.404 165.82 270.584 165.86 270.754C165.88 270.914 165.88 271.084 165.86 271.244C165.77 270.804 165.46 270.424 165.05 270.244C164.03 269.954 162.94 270.354 162.36 271.244C161.64 272.114 161.27 273.214 161.3 274.334C161.3 275.044 161.6 276.854 162.92 276.734C163.43 276.624 163.85 276.274 164.05 275.794C164.41 275.174 164.72 274.534 164.97 273.864C164.97 273.864 164.97 273.864 164.91 273.864C164.97 273.684 165.03 273.504 165.07 273.324C165.15 272.934 165.15 272.544 165.07 272.154C165.01 271.904 164.9 271.444 164.51 271.394C164.14 271.404 163.78 271.544 163.51 271.794C163.24 272.024 163.01 272.314 162.86 272.634C162.68 273.024 162.57 273.434 162.54 273.864C162.53 274.084 162.53 274.294 162.54 274.514C162.54 274.664 162.59 274.804 162.68 274.914C163.01 275.254 163.36 274.774 163.51 274.564C163.85 274.074 164.08 273.564 164.42 273.054C164.42 273.054 164.42 272.984 164.36 272.994C163.88 273.094 163.38 273.114 162.89 273.054C163.01 272.594 163.27 272.174 163.62 271.854C163.8 271.694 164.01 271.574 164.24 271.504C164.69 271.364 164.86 271.704 164.95 271.984C165.07 272.424 165.07 272.894 164.95 273.334C164.79 273.924 164.57 274.494 164.31 275.044C164.27 275.114 164.24 275.184 164.21 275.254C164.03 275.724 163.73 276.144 163.35 276.464C162.54 276.984 161.89 276.164 161.67 275.604C161.5 275.154 161.41 274.674 161.41 274.194C161.42 273.234 161.72 272.304 162.27 271.514C162.56 271.104 162.93 270.754 163.37 270.514C164.01 270.124 164.84 270.234 165.37 270.764C165.71 271.254 165.87 271.844 165.84 272.444C165.84 272.524 165.84 272.614 165.84 272.694C165.84 272.914 165.84 273.134 165.84 273.334C165.73 274.314 165.46 275.264 165.02 276.144Z" fill="#E6E7E8"/>
<path d="M162.87 273.174C163.35 273.234 163.83 273.194 164.3 273.074C164.07 273.454 163.81 273.814 163.53 274.164L163.31 274.454C163.26 274.554 163.19 274.644 163.11 274.724C162.73 274.944 162.73 274.304 162.72 274.164C162.72 273.834 162.77 273.494 162.87 273.174Z" fill="#D1D3D4"/>
<path d="M221.94 64.164C219.51 55.714 206.69 59.164 208.94 67.744C211.37 76.194 224.19 72.704 221.94 64.164Z" fill="#A42A29"/>
<path d="M214.02 65.7336C214.1 66.7336 214.14 67.6536 214.19 68.6136H213.92C213.83 68.6236 213.73 68.6636 213.65 68.7036L213.5 68.7836C213.24 68.9436 213.16 69.2836 213.32 69.5436C213.34 69.5736 213.36 69.6136 213.39 69.6336C213.48 69.7136 213.58 69.7836 213.68 69.8436C213.8 69.9136 213.94 69.9536 214.08 69.9636C214.31 69.9936 214.53 69.9936 214.76 69.9636C214.99 69.9536 215.22 69.9336 215.45 69.8836C215.74 69.8636 216.01 69.7536 216.22 69.5636C216.36 69.4136 216.43 69.2036 216.4 69.0036C216.39 68.7936 216.26 68.6136 216.08 68.5136C216.01 68.4736 215.93 68.4436 215.85 68.4236C215.75 68.4036 215.64 68.4036 215.54 68.4236C215.54 67.4836 215.54 66.5436 215.47 65.6136C215.47 64.4936 215.37 63.3736 215.15 62.2736C215.05 61.9236 214.69 61.7236 214.35 61.8236C214.24 61.8536 214.14 61.9136 214.06 61.9936C213.54 62.4636 213.12 63.0336 212.84 63.6736C212.79 63.8636 212.9 64.0636 213.09 64.1136C213.18 64.1336 213.28 64.1236 213.36 64.0836C213.54 63.9736 213.72 63.8436 213.89 63.7136C213.89 64.3636 214 65.0236 214.05 65.7136" fill="#F2F2F3"/>
<path d="M214.79 71.9541C214.58 71.8841 214.38 71.7741 214.16 71.7041L213.52 71.4841C213.08 71.3141 212.66 71.1041 212.27 70.8441C211.93 70.6141 211.62 70.3441 211.34 70.0341C211.21 69.8841 211.09 69.7141 210.96 69.5541L210.78 69.3241C210.72 69.2441 210.57 69.1341 210.53 69.0541C210.49 68.9741 210.53 69.0541 210.53 69.0541C210.53 69.0541 210.53 69.2941 210.53 69.3941C210.55 69.4941 210.59 69.5941 210.63 69.6841C210.73 69.8841 210.85 70.0641 210.99 70.2341C211.28 70.5941 211.61 70.9041 211.99 71.1641C212.4 71.4341 212.83 71.6541 213.29 71.8241C213.52 71.9141 213.77 71.9841 214.01 72.0441C214.26 72.0841 214.5 72.1041 214.75 72.1141C214.8 72.1041 214.83 72.0641 214.82 72.0141C214.82 71.9941 214.81 71.9741 214.79 71.9541Z" fill="#F2F2F3"/>
<path d="M221.42 63.9239C221.05 62.8439 220.38 61.8939 219.48 61.1939C218.78 60.6039 217.93 60.2139 217.03 60.0539C216.86 59.9839 216.69 59.9239 216.51 59.8739C216.06 59.7139 215.58 59.7139 215.13 59.8739C214.81 60.0239 214.68 60.4139 214.83 60.7239C214.87 60.8039 214.93 60.8839 215 60.9439C215.17 61.0839 215.37 61.1939 215.58 61.2539L216.51 61.5939C217.12 61.8339 217.69 62.1439 218.22 62.5339C218.75 62.8839 219.03 63.5039 218.94 64.1339C218.81 64.6739 218.28 65.0439 217.94 65.4639C217.17 66.2639 216.92 67.4239 217.29 68.4639C217.68 69.4039 218.66 69.9639 219.67 69.8039C220.14 69.7239 220.58 69.4939 220.9 69.1339C221.25 68.6839 221.47 68.1539 221.53 67.5839C221.79 66.3739 221.75 65.1239 221.42 63.9239Z" fill="white" fill-opacity="0.2"/>
<path d="M217.71 72.9141C217.23 73.0241 216.73 73.1141 216.24 73.1641C215.75 73.2241 215.25 73.2341 214.76 73.2141C211.68 73.0441 209.06 70.9241 208.25 67.9541C208.1 67.4441 207.99 66.9241 207.92 66.3941C207.83 65.8241 207.77 65.2541 207.75 64.6841C207.74 64.6541 207.7 64.6441 207.67 64.6541C207.66 64.6641 207.65 64.6741 207.64 64.6841C207.44 65.1841 207.19 64.8341 207.15 65.3741C207.17 66.2041 207.26 67.0341 207.42 67.8441C207.66 68.9041 208.12 69.9141 208.78 70.7841C210.51 73.0341 213.31 74.1741 216.12 73.7841C216.72 73.6941 217.3 73.5041 217.84 73.2241C218.01 73.1341 217.89 72.8641 217.71 72.9141Z" fill="#A42A29"/>
<path d="M223.16 64.2543C223.08 63.9243 222.97 63.4143 222.65 63.2543C222.63 63.2343 222.59 63.2343 222.57 63.2543C222.51 63.5843 222.53 63.9343 222.64 64.2543C222.72 64.6843 222.76 65.1243 222.78 65.5643C222.8 66.3943 222.69 67.2243 222.44 68.0143C222.23 68.6943 221.93 69.3343 221.54 69.9343C221.34 70.2643 221.11 70.5743 220.87 70.8743C220.63 71.1443 220.35 71.3843 220.09 71.6443C220.06 71.6843 220.06 71.7343 220.09 71.7743C220.12 71.8043 220.16 71.8043 220.2 71.7843C220.52 71.5843 220.81 71.3443 221.07 71.0743C221.35 70.8143 221.61 70.5343 221.85 70.2343C222.32 69.6043 222.69 68.9043 222.95 68.1543C223.23 67.3043 223.36 66.4043 223.32 65.5043C223.31 65.0843 223.25 64.6743 223.16 64.2543Z" fill="#A42A29"/>
<path d="M192.14 60.8643C191.94 61.1543 191.87 61.5143 191.95 61.8643V63.1143V64.3243C191.94 64.5943 191.94 64.8543 191.95 65.1243C191.89 65.1443 191.84 65.1743 191.79 65.2043C191.67 65.2743 191.55 65.3643 191.45 65.4643C191.25 65.6643 191.09 65.9043 190.99 66.1743L190.93 66.3443C190.89 66.4443 190.89 66.5643 190.93 66.6643C190.97 66.7543 191.07 66.8143 191.17 66.7943C191.28 66.7643 191.36 66.6643 191.37 66.5543C191.39 66.4943 191.41 66.4343 191.44 66.3743V66.3043V66.2443C191.44 66.1943 191.44 66.2443 191.44 66.2443C191.5 66.1343 191.57 66.0243 191.65 65.9243C191.62 66.1043 191.62 66.2943 191.65 66.4743C191.65 66.6043 191.72 66.7943 191.86 66.8443C191.93 66.8743 192.01 66.8443 192.06 66.7843C192.08 66.7143 192.08 66.6443 192.06 66.5743C192.06 66.5143 192.06 66.4443 192.06 66.3843C192.06 66.4343 192.06 66.3843 192.06 66.3843V66.2843C192.06 66.2343 192.06 66.1843 192.06 66.1343C192.06 66.1043 192.06 66.0743 192.06 66.0443C192.08 65.9843 192.1 65.9243 192.13 65.8643V65.7843C192.17 65.7243 192.2 65.6543 192.22 65.5843C192.24 65.5343 192.24 65.4843 192.22 65.4343C192.22 65.4343 192.22 65.4343 192.22 65.3743C192.23 65.2943 192.23 65.2043 192.22 65.1243C192.22 64.9243 192.22 64.7243 192.22 64.5143V63.3043V62.0943C192.37 61.5343 192.4 61.1043 192.14 60.8643Z" fill="#D8D8D8"/>
<path d="M204.04 51.7341C200.95 51.9541 194.75 50.4341 193.46 49.2241C190.84 46.7441 191.58 41.4941 188.08 41.4941C184.14 41.4941 183.34 47.3241 183.34 49.3741C183.34 51.4241 183.34 58.4941 190.95 61.2141C202.95 65.5241 206.88 52.9741 207.03 50.9541C207.06 50.6141 205.71 51.6141 204.04 51.7341Z" fill="#D8D8D8"/>
<path d="M195.24 61.624C195.24 61.544 195.17 60.904 194.96 61.034C194.75 61.164 194.79 61.674 194.8 61.894C194.81 62.114 194.8 62.584 194.8 62.894C194.8 63.604 194.87 64.314 194.9 65.034H194.77C194.69 65.074 194.62 65.114 194.56 65.174C194.44 65.274 194.32 65.384 194.23 65.514C194.14 65.644 194.06 65.784 193.99 65.924C193.91 66.074 193.89 66.254 193.93 66.424C193.96 66.484 194.04 66.514 194.11 66.474C194.13 66.464 194.15 66.444 194.16 66.424C194.26 66.314 194.33 66.194 194.37 66.054L194.47 65.874C194.45 65.964 194.45 66.064 194.47 66.154C194.46 66.344 194.54 66.534 194.69 66.654C194.79 66.714 194.9 66.654 194.93 66.534C194.94 66.454 194.94 66.384 194.93 66.304V66.134V65.924V65.824C194.93 65.804 194.93 65.784 194.93 65.764L195.11 65.384C195.15 65.324 195.17 65.254 195.19 65.184C195.2 65.154 195.2 65.124 195.19 65.094C195.24 65.054 195.26 64.984 195.25 64.924C195.25 64.154 195.2 63.394 195.17 62.624C195.29 62.364 195.28 62.024 195.24 61.624Z" fill="#EBEBEB"/>
<path d="M204.44 51.8343C204.27 51.9443 204.11 52.0643 203.96 52.1943C203.96 52.0643 203.96 51.9343 204.01 51.8043C204.01 51.4943 202.26 52.1943 199.08 51.6543C197.32 51.3343 195.19 50.0743 192.78 51.3743C188.88 54.3743 191.1 58.7143 193.58 59.1243C195.13 59.4043 196.73 59.2943 198.23 58.8143C201.05 58.0943 203.46 54.7343 203.64 54.4343C204.08 53.7243 204.72 51.6543 204.44 51.8343Z" fill="#EBEBEB"/>
<path d="M188.7 44.6035C188.71 44.5535 188.71 44.5135 188.7 44.4635V44.3735C188.67 44.3235 188.62 44.2735 188.57 44.2435C188.51 44.2235 188.43 44.2235 188.37 44.2435H188.26C188.2 44.2635 188.14 44.2935 188.09 44.3435C188.05 44.3935 188.02 44.4435 188 44.5035C187.98 44.5535 187.98 44.5935 188 44.6435C187.99 44.6935 187.99 44.7335 188 44.7835C188.01 44.8135 188.03 44.8435 188.05 44.8635C188.1 44.9035 188.16 44.9335 188.22 44.9535C188.29 44.9735 188.35 44.9735 188.42 44.9535C188.47 44.9435 188.52 44.9135 188.55 44.8735C188.59 44.8435 188.63 44.8135 188.66 44.7735C188.7 44.7335 188.71 44.6635 188.7 44.6035Z" fill="#EBEBEB"/>
<path d="M188.52 44.874H188.53L188.52 44.884V44.874Z" fill="#EBEBEB"/>
<path d="M185.96 45.7343C185.96 45.6543 184.87 44.9443 184.87 44.9443C184.87 44.9443 184.87 44.9443 184.82 44.9443C184.77 44.9443 182.37 45.4443 182.16 45.5343C182.1 45.5643 182.08 45.6243 182.11 45.6843C182.12 45.7043 182.14 45.7243 182.16 45.7343C182.45 45.7943 184.31 46.3243 184.57 46.3343C185.02 46.2543 185.46 46.1343 185.88 45.9643C186.03 45.9043 186.03 45.8543 185.96 45.7343Z" fill="#EBEBEB"/>
</svg>
