<svg width="15" height="19" viewBox="0 0 15 19" fill="none" xmlns="http://www.w3.org/2000/svg">
<path fill-rule="evenodd" clip-rule="evenodd" d="M7.5 0.3125C4.75584 0.3125 2.53125 2.53709 2.53125 5.28125C2.53125 6.93658 3.34071 8.40284 4.5854 9.30581C1.90782 10.3731 0 12.8681 0 15.8281C0 16.5023 0.336419 17.0323 0.813336 17.4119C1.26941 17.775 1.87541 18.0231 2.53165 18.2002C3.85007 18.5559 5.61675 18.6875 7.5 18.6875C9.38325 18.6875 11.1499 18.5559 12.4683 18.2002C13.1246 18.0231 13.7306 17.775 14.1867 17.4119C14.6636 17.0323 15 16.5023 15 15.8281C15 12.8681 13.0922 10.3731 10.4146 9.30581C11.6593 8.40284 12.4688 6.93658 12.4688 5.28125C12.4688 2.53709 10.2442 0.3125 7.5 0.3125ZM7.5 8.75C9.41574 8.75 10.9688 7.19699 10.9688 5.28125C10.9688 3.36551 9.41574 1.8125 7.5 1.8125C5.58426 1.8125 4.03125 3.36551 4.03125 5.28125C4.03125 7.19699 5.58426 8.75 7.5 8.75ZM7.5 10.25C4.13996 10.25 1.5 12.7923 1.5 15.8281C1.5 15.9449 1.54134 16.0742 1.74756 16.2384C1.97462 16.4191 2.35714 16.5994 2.92241 16.752C4.04701 17.0554 5.65533 17.1875 7.5 17.1875C9.34467 17.1875 10.953 17.0554 12.0776 16.752C12.6429 16.5994 13.0254 16.4191 13.2524 16.2384C13.4587 16.0742 13.5 15.9449 13.5 15.8281C13.5 12.7923 10.86 10.25 7.5 10.25Z" fill="#A32A29"/>
</svg>
