<svg width="28" height="24" viewBox="0 0 28 24" fill="none" xmlns="http://www.w3.org/2000/svg">
<path fill-rule="evenodd" clip-rule="evenodd" d="M10.2051 0.849609C7.94337 0.849609 6.10988 2.68309 6.10988 4.94481C6.10988 6.34808 6.81575 7.58634 7.89122 8.32413C5.45968 9.32944 3.70351 11.8684 3.49961 14.877H3.19139C1.89806 14.877 0.849609 15.9255 0.849609 17.2188V21.6023C0.849609 22.8957 1.89806 23.9441 3.19139 23.9441H24.7393C26.0327 23.9441 27.0811 22.8957 27.0811 21.6023V17.2188C27.0811 15.9255 26.0327 14.877 24.7393 14.877H21.9441V12.5469H25.7393C26.0643 12.5469 26.3277 12.2835 26.3277 11.9585V6.69824C26.3277 6.3733 26.0643 6.10988 25.7393 6.10988H16.9722C16.6473 6.10988 16.3839 6.3733 16.3839 6.69824V11.9585C16.3839 12.2835 16.6473 12.5469 16.9722 12.5469H20.7674V14.877H16.9106C16.7067 11.8684 14.9505 9.32944 12.519 8.32413C13.5944 7.58634 14.3003 6.34808 14.3003 4.94481C14.3003 2.68309 12.4668 0.849609 10.2051 0.849609ZM7.2866 4.94481C7.2866 3.33298 8.59325 2.02632 10.2051 2.02632C11.8169 2.02632 13.1236 3.33298 13.1236 4.94481C13.1236 6.55665 11.8169 7.86331 10.2051 7.86331C8.59325 7.86331 7.2866 6.55665 7.2866 4.94481ZM17.5606 11.3702V7.2866H25.151V11.3702H17.5606ZM15.7308 14.877H4.67939C4.93777 11.5767 7.34165 9.04002 10.2051 9.04002C13.0685 9.04002 15.4724 11.5767 15.7308 14.877ZM2.02632 17.2188C2.02632 16.5753 2.54794 16.0537 3.19139 16.0537H24.7393C25.3828 16.0537 25.9044 16.5753 25.9044 17.2188V21.6023C25.9044 22.2458 25.3828 22.7674 24.7393 22.7674H3.19139C2.54794 22.7674 2.02632 22.2458 2.02632 21.6023V17.2188Z" fill="#A32A29"/>
</svg>
