<svg width="48" height="48" viewBox="0 0 48 48" fill="none" xmlns="http://www.w3.org/2000/svg">
<path d="M0 24C0 10.7452 10.7452 0 24 0C37.2548 0 48 10.7452 48 24C48 37.2548 37.2548 48 24 48C10.7452 48 0 37.2548 0 24Z" fill="#929497" fill-opacity="0.2"/>
<path fill-rule="evenodd" clip-rule="evenodd" d="M20.2056 12.8501C17.9439 12.8501 16.1104 14.6836 16.1104 16.9453C16.1104 18.3486 16.8162 19.5868 17.8917 20.3246C15.4602 21.3299 13.704 23.8689 13.5001 26.8775H13.1919C11.8985 26.8775 10.8501 27.9259 10.8501 29.2193V33.6028C10.8501 34.8962 11.8985 35.9446 13.1919 35.9446H34.7398C36.0332 35.9446 37.0816 34.8962 37.0816 33.6028V29.2193C37.0816 27.9259 36.0332 26.8775 34.7398 26.8775H31.9446V24.5474H35.7398C36.0648 24.5474 36.3282 24.2839 36.3282 23.959V18.6987C36.3282 18.3738 36.0648 18.1104 35.7398 18.1104H26.9727C26.6478 18.1104 26.3843 18.3738 26.3843 18.6987V23.959C26.3843 24.2839 26.6478 24.5474 26.9727 24.5474H30.7679V26.8775H26.9111C26.7072 23.8689 24.951 21.3299 22.5194 20.3246C23.5949 19.5868 24.3008 18.3486 24.3008 16.9453C24.3008 14.6836 22.4673 12.8501 20.2056 12.8501ZM17.2871 16.9453C17.2871 15.3335 18.5937 14.0268 20.2056 14.0268C21.8174 14.0268 23.1241 15.3335 23.1241 16.9453C23.1241 18.5571 21.8174 19.8638 20.2056 19.8638C18.5937 19.8638 17.2871 18.5571 17.2871 16.9453ZM27.5611 23.3706V19.2871H35.1515V23.3706H27.5611ZM25.7313 26.8775H14.6799C14.9383 23.5771 17.3421 21.0405 20.2056 21.0405C23.069 21.0405 25.4729 23.5771 25.7313 26.8775ZM12.0268 29.2193C12.0268 28.5758 12.5484 28.0542 13.1919 28.0542H34.7398C35.3833 28.0542 35.9049 28.5758 35.9049 29.2193V33.6028C35.9049 34.2463 35.3833 34.7679 34.7398 34.7679H13.1919C12.5484 34.7679 12.0268 34.2463 12.0268 33.6028V29.2193Z" fill="#A32A29"/>
</svg>
