<svg width="343" height="171" viewBox="0 0 343 171" fill="none" xmlns="http://www.w3.org/2000/svg">
<rect width="343" height="136" fill="#EEEEEE"/>
<path fill-rule="evenodd" clip-rule="evenodd" d="M185.467 80.9999H156.907C156.18 80.9999 155.482 80.7109 154.968 80.1966C154.454 79.6822 154.165 78.9846 154.165 78.2573V55.8725C154.165 55.1451 154.454 54.4475 154.968 53.9332C155.482 53.4188 156.18 53.1299 156.907 53.1299H185.467C186.194 53.1299 186.892 53.4188 187.406 53.9332C187.921 54.4475 188.209 55.1451 188.209 55.8725V78.2573C188.209 78.9846 187.921 79.6822 187.406 80.1966C186.892 80.7109 186.194 80.9999 185.467 80.9999ZM156.907 55.2684C156.747 55.2684 156.593 55.332 156.48 55.4453C156.367 55.5586 156.303 55.7123 156.303 55.8725V78.2573C156.303 78.3366 156.319 78.4152 156.349 78.4884C156.379 78.5617 156.424 78.6283 156.48 78.6844C156.536 78.7405 156.603 78.785 156.676 78.8154C156.749 78.8458 156.828 78.8614 156.907 78.8614H185.467C185.626 78.86 185.778 78.7957 185.891 78.6826C186.003 78.5694 186.066 78.4166 186.066 78.2573V55.8725C186.066 55.7132 186.003 55.5603 185.891 55.4472C185.778 55.3341 185.626 55.2698 185.467 55.2684H156.907ZM160.593 73.851H181.716C181.886 73.8558 182.053 73.813 182.199 73.7275C182.345 73.642 182.464 73.5172 182.542 73.3673C182.621 73.2174 182.656 73.0485 182.643 72.8798C182.63 72.711 182.57 72.5492 182.47 72.4129L179.556 68.4566C179.48 68.3514 179.383 68.2637 179.27 68.1997C179.157 68.1357 179.031 68.0968 178.902 68.0856C178.772 68.0744 178.642 68.0913 178.52 68.135C178.398 68.1788 178.286 68.2483 178.193 68.339L175.199 71.1886L168.249 61.7524C168.163 61.6346 168.049 61.5394 167.917 61.4753C167.786 61.4111 167.641 61.3797 167.495 61.3839C167.349 61.3881 167.206 61.4278 167.078 61.4994C166.951 61.571 166.843 61.6726 166.763 61.7952L159.813 72.4556C159.723 72.5936 159.673 72.7535 159.667 72.918C159.662 73.0824 159.702 73.2453 159.782 73.3889C159.862 73.5325 159.98 73.6514 160.123 73.7329C160.266 73.8143 160.429 73.8552 160.593 73.851ZM182.515 61.8026C182.515 63.5536 181.096 64.973 179.345 64.973C177.594 64.973 176.174 63.5536 176.174 61.8026C176.174 60.0517 177.594 58.6323 179.345 58.6323C181.096 58.6323 182.515 60.0517 182.515 61.8026Z" fill="#929497" fill-opacity="0.4"/>
<path d="M303 24C303 15.1634 310.163 8 319 8C327.837 8 335 15.1634 335 24C335 32.8366 327.837 40 319 40C310.163 40 303 32.8366 303 24Z" fill="#929497" fill-opacity="0.2"/>
<path d="M319.733 23.9999L323.067 20.6665C323.267 20.4665 323.267 20.1332 323.067 19.9332C322.867 19.7332 322.533 19.7332 322.333 19.9332L319 23.2665L315.667 19.9332C315.467 19.7332 315.133 19.7332 314.933 19.9332C314.733 20.1332 314.733 20.4665 314.933 20.6665L318.267 23.9999L314.933 27.3332C314.733 27.5332 314.733 27.8665 314.933 28.0665C315 28.1332 315.133 28.1999 315.267 28.1999C315.4 28.1999 315.533 28.1332 315.6 28.0665L318.933 24.7332L322.267 28.0665C322.333 28.1332 322.467 28.1999 322.6 28.1999C322.733 28.1999 322.867 28.1332 322.933 28.0665C323.133 27.8665 323.133 27.5332 322.933 27.3332L319.733 23.9999Z" fill="#A32A29"/>
<path d="M249.417 50.4993C217.781 26.8468 155.402 31.0616 120.592 47.0283C103.981 54.6646 78.8906 73.3585 87.8656 93.8872C94.2623 107.077 117.518 116.052 141.319 118.284C164.526 120.465 188.178 116.945 209.203 112.532C230.029 108.168 247.483 99.9367 255.12 88.4327C262.855 76.8296 263.748 61.2099 249.417 50.4993Z" fill="#F7F7F7"/>
<path d="M179.947 57.2432L154.361 45.3921C156.394 47.1772 156.691 55.2101 156.84 56.9952C156.989 59.2266 166.262 59.6729 166.807 59.9208C167.65 60.2679 158.179 59.3754 158.129 60.2183C157.881 64.6315 157.138 68.2017 157.138 68.2017H171.27L178.608 68.2513C181.336 68.2513 183.517 65.7224 183.517 62.6481C183.517 60.1688 182.03 57.9374 179.947 57.2432Z" fill="#8F8F8F"/>
<path d="M158.129 61.0614C158.08 61.6565 157.981 62.3011 157.881 62.9457C157.733 64.0862 157.584 65.3258 157.386 66.5159C157.286 67.1109 157.187 67.7556 157.138 68.3506C156.939 69.8382 156.691 71.3258 156.443 72.7638C156.344 73.4084 156.245 74.0034 156.146 74.648C155.898 76.334 155.6 77.9703 155.352 79.5075C155.253 80.1521 155.154 80.7967 155.005 81.3917C154.757 82.7802 154.559 84.0198 154.361 85.0611C154.212 85.8049 154.113 86.4991 154.014 87.0446C153.815 88.2346 153.667 88.8793 153.667 88.8793C153.667 88.8793 150.344 91.6561 143.749 91.8544C132.146 92.2015 128.973 86.2512 128.973 86.2512C128.973 86.2512 128.973 85.8049 129.022 85.0611C129.022 84.5653 129.072 83.8711 129.072 83.1273C129.072 82.1851 129.121 81.0942 129.171 79.8546C129.171 79.2595 129.221 78.6149 129.221 77.9703C129.27 76.5819 129.32 75.0943 129.369 73.5571C129.419 72.9621 129.419 72.3175 129.469 71.7225C129.518 70.4828 129.568 69.1936 129.617 67.9043C129.667 67.2597 129.667 66.6647 129.716 66.02C129.766 64.6316 129.865 63.2432 129.915 61.9044C129.964 61.2598 130.014 60.6152 130.014 60.0201C130.113 58.5325 130.212 57.1441 130.311 55.8053C130.361 55.1607 130.411 54.5161 130.51 53.921C130.659 52.5326 130.758 51.3426 130.956 50.3012C131.055 49.5079 131.204 48.8632 131.303 48.3178C131.452 47.6732 131.601 47.2765 131.799 47.0781C133.088 45.5906 135.667 45.1443 140.576 44.4005C141.815 44.2021 143.154 44.1526 144.543 44.2517C146.427 44.4005 148.162 44.5988 149.749 44.8964C153.865 45.6401 156.939 46.9294 158.377 49.1608C158.427 49.2103 158.476 49.2599 158.476 49.3591C158.675 49.7062 158.774 50.3508 158.824 51.2434C158.873 52.1855 158.824 53.4252 158.724 54.8632C158.675 55.4582 158.625 56.1028 158.576 56.7474C158.476 58.0367 158.328 59.5243 158.129 61.0614Z" fill="#B4B2B2"/>
<path d="M158.873 51.1441C149.154 48.0202 137.501 49.1111 130.956 50.1524C131.055 49.359 131.204 48.7144 131.303 48.1689C137.849 47.1772 148.807 46.2351 158.377 49.0615C158.427 49.1111 158.476 49.1607 158.476 49.2598C158.724 49.6069 158.823 50.2516 158.873 51.1441Z" fill="#8F8F8F"/>
<path d="M158.625 56.6976C150.344 54.4166 138.245 54.9621 130.361 55.7058C130.41 55.0612 130.46 54.4166 130.559 53.8216C138.443 53.0778 150.245 52.5819 158.774 54.8629C158.724 55.4083 158.675 56.0529 158.625 56.6976Z" fill="#8F8F8F"/>
<path d="M158.13 61.0609C158.08 61.6559 157.981 62.3005 157.882 62.9451C149.254 61.0609 137.75 61.3088 129.915 61.8047C129.965 61.16 130.014 60.5154 130.014 59.9204C137.948 59.3749 149.303 59.1766 158.13 61.0609Z" fill="#8F8F8F"/>
<path d="M157.435 66.466C157.336 67.061 157.237 67.7056 157.187 68.3007C149.353 67.3585 137.898 67.4577 129.667 67.7552C129.717 67.1106 129.717 66.5156 129.766 65.8709C137.997 65.623 149.402 65.5238 157.435 66.466Z" fill="#8F8F8F"/>
<path d="M156.493 72.7637C156.394 73.4084 156.295 74.0034 156.195 74.648C147.716 74.4497 137.055 73.9042 129.419 73.5075C129.469 72.9125 129.469 72.2679 129.518 71.6729C137.204 72.02 148.014 72.5654 156.493 72.7637Z" fill="#8F8F8F"/>
<path d="M155.402 79.4576C155.303 80.1022 155.204 80.7468 155.055 81.3419C148.361 81.8873 140.328 81.2427 133.584 80.3997C132.047 80.2014 130.56 80.003 129.221 79.8047C129.221 79.2097 129.27 78.565 129.27 77.9204C136.758 79.0113 147.27 80.2014 155.402 79.4576Z" fill="#8F8F8F"/>
<path d="M154.41 85.0608C154.262 85.8046 154.162 86.4988 154.063 87.0443C148.857 88.0856 143.898 88.036 139.485 87.4905C135.518 86.9947 131.997 86.0525 129.072 85.0608C129.072 84.565 129.121 83.8707 129.121 83.127C135.27 85.2592 144.344 87.193 154.41 85.0608Z" fill="#8F8F8F"/>
<path d="M158.576 68.2511V60.9619C158.576 60.9619 147.766 63.1933 147.567 68.1519L158.576 68.2511Z" fill="#A96050"/>
<path d="M245.252 102.565C253.221 102.565 259.681 96.1046 259.681 88.1354C259.681 80.1661 253.221 73.7058 245.252 73.7058C237.283 73.7058 230.822 80.1661 230.822 88.1354C230.822 96.1046 237.283 102.565 245.252 102.565Z" fill="white"/>
<path d="M230.822 88.1354C230.822 88.1354 230.822 88.0363 230.822 87.8875C230.822 87.7387 230.822 87.4908 230.822 87.1933C230.822 87.0445 230.822 86.8958 230.822 86.6974C230.822 86.4991 230.872 86.3007 230.921 86.1024C230.971 85.6065 231.07 85.1107 231.219 84.6148C231.566 83.2264 232.062 81.9372 232.806 80.7471C234.938 77.1273 238.508 74.648 242.574 73.8546C243.169 73.7554 243.814 73.6563 244.409 73.6563C244.706 73.6563 245.054 73.6067 245.351 73.6067L246.293 73.6563C246.64 73.6563 246.938 73.7059 247.285 73.7554C247.632 73.805 247.93 73.8546 248.277 73.9042C248.921 74.053 249.615 74.2017 250.211 74.4497C250.855 74.6976 251.5 74.9455 252.095 75.2926C252.392 75.4414 252.69 75.6397 252.987 75.8381C253.285 76.0364 253.582 76.2348 253.88 76.4331C254.475 76.8794 255.02 77.3257 255.516 77.8215C256.012 78.367 256.508 78.9124 256.954 79.5074C257.847 80.7471 258.541 82.0859 259.037 83.5239C260.029 86.4991 260.029 89.7222 259.037 92.7469C258.541 94.1849 257.847 95.5238 256.954 96.7634C256.508 97.3585 256.062 97.9039 255.516 98.4493C254.971 98.9452 254.425 99.4411 253.88 99.8378C253.582 100.036 253.285 100.284 252.987 100.433C252.69 100.631 252.392 100.829 252.095 100.978C251.5 101.276 250.855 101.573 250.211 101.821C249.566 102.069 248.921 102.218 248.277 102.367C247.93 102.416 247.632 102.466 247.285 102.515C246.938 102.565 246.64 102.615 246.293 102.615L245.351 102.664C245.054 102.664 244.706 102.664 244.409 102.615C243.814 102.565 243.169 102.515 242.574 102.416C238.459 101.623 234.938 99.1436 232.806 95.5238C232.062 94.3337 231.566 92.9949 231.219 91.656C231.07 91.1602 230.971 90.6643 230.921 90.1685C230.872 89.9205 230.872 89.7222 230.822 89.5734C230.773 89.4247 230.822 89.2263 230.822 89.0776C230.822 88.7801 230.822 88.5817 230.822 88.3834C230.822 88.185 230.872 88.185 230.822 88.1354C230.872 88.2346 230.872 88.3338 230.872 88.3834C230.872 88.5321 230.921 88.7801 230.921 89.0776C230.921 89.2263 230.921 89.3751 230.971 89.5734C230.971 89.7718 231.021 89.9701 231.07 90.1685C231.12 90.6643 231.219 91.1602 231.368 91.656C231.715 92.9949 232.26 94.2841 232.955 95.4742C235.087 98.9948 238.607 101.425 242.624 102.168C243.219 102.267 243.814 102.367 244.459 102.367C244.756 102.367 245.054 102.416 245.401 102.416L246.343 102.367C246.64 102.367 246.987 102.317 247.285 102.267C247.582 102.218 247.93 102.168 248.227 102.119C248.872 101.97 249.516 101.772 250.161 101.573C250.806 101.325 251.45 101.077 252.045 100.73C252.343 100.582 252.64 100.383 252.938 100.185C253.235 99.9865 253.533 99.7882 253.781 99.5898C254.376 99.1436 254.921 98.6973 255.417 98.2014C255.913 97.656 256.409 97.1105 256.805 96.5155C257.698 95.3254 258.392 93.9866 258.838 92.5486C259.83 89.623 259.83 86.4495 258.838 83.5239C258.392 82.0859 257.698 80.7471 256.805 79.557C256.359 78.962 255.913 78.4165 255.417 77.8711C254.921 77.3752 254.376 76.929 253.781 76.4827C253.483 76.2843 253.235 76.086 252.938 75.8877C252.64 75.6893 252.343 75.5405 252.045 75.3422C251.45 75.0447 250.806 74.7472 250.161 74.4992C249.516 74.2513 248.921 74.1025 248.227 73.9538C247.93 73.9042 247.582 73.8546 247.285 73.805C246.987 73.7554 246.64 73.7059 246.343 73.7059L245.401 73.6563C245.103 73.6563 244.756 73.6563 244.459 73.7059C243.863 73.7554 243.219 73.805 242.624 73.9042C238.558 74.648 235.037 77.1273 232.905 80.6479C232.161 81.838 231.616 83.1272 231.318 84.4661C231.169 84.9619 231.07 85.4578 231.021 85.9536C230.971 86.152 230.971 86.3503 230.921 86.5487C230.872 86.747 230.922 86.8958 230.872 87.0445C230.872 87.342 230.822 87.5404 230.822 87.7387C230.822 87.9371 230.822 88.0363 230.822 88.1354Z" fill="#A42A29"/>
<path d="M245.252 81.689L239.004 87.3914V94.5814H243.864V90.2674H246.988V94.5814H251.55V87.3914L245.252 81.689Z" fill="#E0E0E0"/>
<path d="M200.079 103.904H90.7419C89.7997 103.904 89.0063 103.11 89.0063 102.168V69.6398C89.0063 68.6977 89.7997 67.9043 90.7419 67.9043H200.079C201.021 67.9043 201.815 68.6977 201.815 69.6398V102.218C201.765 103.16 201.021 103.904 200.079 103.904Z" fill="white"/>
<path d="M200.079 103.904L126.444 104.003L108.047 104.052H98.8242H94.2127H91.9318H90.7913C90.3946 104.052 89.9483 103.904 89.6012 103.656C89.2541 103.408 89.0062 103.011 88.907 102.614C88.8574 102.416 88.8574 102.168 88.8574 102.019V101.424V99.1433V94.5318V85.3087V76.0857V71.4742V70.3337V69.7387C88.8574 69.5403 88.8574 69.342 88.907 69.0941C89.1054 68.2511 89.9483 67.5569 90.8409 67.5569L164.476 67.6561L182.873 67.7056H192.096H196.707H198.988H200.129C200.525 67.7056 200.922 67.8048 201.22 68.0527C201.517 68.3007 201.765 68.6478 201.864 69.0445C201.963 69.4412 201.914 69.8378 201.914 70.185V72.4659V77.0774V86.3004V95.5235V100.135V101.275C201.914 101.672 201.963 102.069 201.864 102.416C201.567 103.358 200.823 103.904 200.079 103.904ZM200.079 103.904C200.872 103.904 201.567 103.358 201.765 102.565C201.864 102.168 201.815 101.821 201.815 101.424V100.284V95.6722V86.4492V77.2262V72.6147V70.3337C201.815 69.937 201.864 69.5403 201.765 69.1932C201.666 68.8461 201.468 68.499 201.17 68.3007C200.575 67.8048 199.732 68.0032 198.988 67.9536H196.707H192.096H182.873L164.476 68.0032L90.7417 68.2015C90.0971 68.2015 89.4525 68.6974 89.3037 69.342C89.2541 69.6395 89.2541 70.0362 89.2541 70.4329V71.5734V76.1849V85.4079V94.6309V99.2424V101.523C89.2541 101.92 89.2045 102.317 89.3037 102.614C89.4029 102.961 89.6012 103.259 89.8491 103.457C90.0971 103.656 90.4442 103.755 90.7913 103.755H91.9318H94.2127H98.8242H108.047L126.444 103.804L200.079 103.904Z" fill="#A42A29"/>
<path d="M193.583 73.9041H100.907V79.2098H193.583V73.9041Z" fill="#EBEBEB"/>
<path d="M175.385 84.5653C175.385 84.6645 163.385 84.7636 148.559 84.7636C133.733 84.7636 121.733 84.6645 121.733 84.5653C121.733 84.4661 133.733 84.3669 148.559 84.3669C163.385 84.4165 175.385 84.4661 175.385 84.5653Z" fill="#A42A29"/>
<path d="M175.385 87.6891C175.385 87.7882 163.385 87.8874 148.559 87.8874C133.733 87.8874 121.733 87.7882 121.733 87.6891C121.733 87.5899 133.733 87.4907 148.559 87.4907C163.385 87.4907 175.385 87.5899 175.385 87.6891Z" fill="#A42A29"/>
<path d="M150.096 90.7635C150.096 90.7635 149.699 90.8131 149.005 90.8131C148.212 90.8131 147.171 90.8627 145.98 90.8627C143.402 90.9123 139.881 90.9123 135.964 90.9123C132.047 90.9123 128.526 90.9123 125.948 90.8627C124.708 90.8627 123.716 90.8131 122.923 90.8131C122.229 90.8131 121.832 90.7635 121.832 90.7635C121.832 90.7635 122.229 90.7139 122.923 90.7139C123.716 90.7139 124.758 90.6643 125.948 90.6643C128.526 90.6147 132.047 90.6147 135.964 90.6147C139.881 90.6147 143.402 90.6147 145.98 90.6643C147.22 90.6643 148.212 90.7139 149.005 90.7139C149.699 90.7139 150.096 90.7635 150.096 90.7635Z" fill="#A42A29"/>
<path d="M175.385 93.9374C175.385 94.0365 163.385 94.1357 148.559 94.1357C133.733 94.1357 121.733 94.0365 121.733 93.9374C121.733 93.8382 133.733 93.739 148.559 93.739C163.385 93.7886 175.385 93.8878 175.385 93.9374Z" fill="#A42A29"/>
<path d="M175.385 97.0607C175.385 97.1598 163.385 97.259 148.559 97.259C133.733 97.259 121.733 97.1598 121.733 97.0607C121.733 96.9615 133.733 96.8623 148.559 96.8623C163.385 96.8623 175.385 96.9615 175.385 97.0607Z" fill="#A42A29"/>
<path d="M188.724 97.6062C193.051 97.6062 196.558 94.0986 196.558 89.7716C196.558 85.4447 193.051 81.937 188.724 81.937C184.397 81.937 180.889 85.4447 180.889 89.7716C180.889 94.0986 184.397 97.6062 188.724 97.6062Z" fill="#E0E0E0"/>
<path d="M142.014 46.9293C141.121 47.078 139.287 48.2185 139.237 49.1111C139.088 51.8383 144.394 54.1193 149.204 53.7722C154.063 53.3755 154.063 50.7474 153.121 49.4582C152.229 48.0698 150.096 45.7392 142.014 46.9293Z" fill="#6C6C6C"/>
<path d="M119.502 81.3916H100.857V99.6393H119.502V81.3916Z" fill="#EBEBEB"/>
<path d="M116.626 96.4165C115.733 94.5322 114.692 92.6479 113.353 91.0116C112.709 90.2182 111.816 89.4744 110.874 89.0281C110.973 88.9786 111.023 88.9786 111.122 88.929C112.709 88.1356 113.155 86.0034 112.163 84.5158C111.618 83.7224 110.725 83.2266 109.833 82.9291C109.039 82.6315 108.047 82.582 107.353 83.177C106.907 83.5241 106.709 84.1191 106.51 84.615C106.312 85.21 106.213 85.805 106.262 86.4001C106.312 86.8959 106.56 87.3918 106.957 87.7389C106.957 87.7389 107.006 87.7389 107.006 87.7885C107.304 88.2348 107.7 88.6315 108.147 88.929C107.155 89.3752 106.312 90.1686 105.766 91.0116C104.527 92.7967 104.328 95.0776 104.081 97.2099C104.081 97.3586 104.229 97.5074 104.378 97.5074C108.395 97.5074 112.361 97.2099 116.328 96.8132C116.576 96.7636 116.675 96.6148 116.626 96.4165Z" fill="#E0E0E0"/>
<path d="M152.229 41.3753L150.493 51.4909C150.493 51.4909 147.766 53.0776 141.369 49.5074C141.369 49.5074 143.948 41.6728 140.675 36.5654C140.675 36.5654 141.419 36.5654 142.56 36.615C142.56 36.5654 144.196 42.367 152.229 41.3753Z" fill="#884638"/>
<path d="M159.865 28.2847C159.865 28.2847 163.237 26.5492 160.807 25.2599C160.807 25.2599 162.493 22.6319 161.352 21.8881C160.212 21.1443 158.675 22.0368 158.229 20.6484C157.782 19.26 156.691 16.979 153.617 18.3675C150.543 19.7559 149.7 16.2848 148.361 17.0286C146.972 17.822 147.369 19.6071 145.435 19.4584C143.501 19.3096 141.667 19.4088 141.667 21.3426C141.716 23.3261 139.584 23.0286 139.287 24.1195C138.94 25.2599 139.782 25.7558 139.634 26.7475C139.485 27.7392 138.047 27.888 138.245 29.4252C138.444 31.0119 139.882 31.1111 139.584 32.1028C139.237 33.1441 137.849 35.2763 139.088 35.8714C140.378 36.4664 140.378 38.9457 142.014 38.9457C143.551 39.0449 159.865 28.2847 159.865 28.2847Z" fill="#0E3944"/>
<path d="M141.369 32.9456C139.089 42.2677 151.634 49.1602 155.105 45.1933C156.196 43.9041 157.832 40.086 158.725 37.4083C158.923 36.8133 159.121 36.1687 159.27 35.5736C160.361 31.3092 160.46 26.896 158.229 25.458C150.345 20.3507 144.196 21.4912 141.369 32.9456Z" fill="#A96050"/>
<path d="M144.047 33.6399C144.047 33.6399 144.543 30.1688 147.022 28.6317C149.501 27.0945 148.311 23.8218 148.311 23.8218C148.311 23.8218 156.89 24.1689 159.865 28.2846C159.865 28.2846 163.633 24.0202 156.195 20.4004C148.757 16.7806 134.675 20.2516 141.964 39.0448L141.419 32.9457L144.047 33.6399Z" fill="#0E3944"/>
<path d="M143.848 33.1937C143.848 33.1937 142.46 30.5656 140.427 31.5574C138.394 32.4995 140.427 37.2102 142.311 37.4581C144.245 37.706 143.848 33.1937 143.848 33.1937Z" fill="#A96050"/>
<path d="M161.402 71.7224C163.435 71.4745 165.418 78.5653 161.501 79.7554C161.501 79.7554 155.848 72.4166 161.402 71.7224Z" fill="#C96F32"/>
<path d="M164.972 78.2677C165.765 78.4661 171.121 79.5074 172.112 79.2099C172.162 79.2099 172.162 79.2099 172.212 79.1603C173.154 78.8132 174.145 77.6727 174.79 77.3256C175.484 76.9785 176.03 75.3917 176.278 74.6479C176.526 74.0033 180.195 73.805 180.195 73.805C180.195 73.805 179.947 72.4166 179.054 72.2678C177.914 72.119 175.534 72.962 175.534 72.962L172.856 73.3587C172.856 73.3587 169.336 72.5653 169.385 71.8711C169.435 71.1769 170.873 71.524 172.063 71.2265C172.856 71.0282 172.757 70.1852 172.757 70.1852L170.625 69.9868C170.625 69.9868 167.551 69.9373 166.955 70.3339C166.36 70.6811 164.228 72.5157 164.228 72.5157L158.625 73.4579V79.3586C158.724 79.309 164.179 78.0694 164.972 78.2677Z" fill="#A96050"/>
<path d="M172.211 79.16C173.154 78.8128 174.145 77.6724 174.79 77.3253C175.484 76.9782 175.385 76.6806 175.682 75.9864C176.03 75.2922 176.377 74.3501 176.377 74.3501C175.881 74.8955 173.897 75.0443 173.699 75.2922C173.55 75.5402 173.897 75.6889 173.848 76.1848C173.798 76.6311 172.906 76.7798 173.005 77.2261C173.154 77.6724 173.154 78.1682 172.509 78.4657C172.311 78.6145 172.211 78.912 172.211 79.16Z" fill="#884638"/>
<path d="M131.452 47.3756C132.939 44.8467 135.914 47.1773 137.105 50.1524L141.964 73.9042C141.964 73.9042 143.055 75.4414 142.361 75.8381L161.154 71.772C161.154 71.772 158.922 74.7472 161.501 79.7554C161.501 79.7554 140.129 88.3834 134.08 85.1603C132.344 84.2181 131.105 81.0942 131.204 78.7141C128.377 60.9622 131.452 47.3756 131.452 47.3756Z" fill="#8F8F8F"/>
<path d="M196.856 67.5569C197.352 66.7139 197.996 66.0197 198.79 65.5239L198.839 65.4743C199.286 65.2759 199.732 65.0776 200.129 64.8792L201.567 64.6809C202.062 64.7305 202.558 64.7801 203.054 64.8792C203.153 64.8792 203.302 64.9288 203.401 64.9288C203.451 64.9288 203.5 64.9784 203.55 64.9784C203.649 65.028 203.748 65.028 203.847 65.0776C203.947 65.1272 203.996 65.1272 204.095 65.1768C204.195 65.2264 204.244 65.2264 204.343 65.2759C204.443 65.3255 204.492 65.3751 204.591 65.4247C204.641 65.4743 204.69 65.4743 204.74 65.5239C205.137 65.7718 205.533 66.0693 205.831 66.4164C206.178 66.7139 206.476 67.1106 206.674 67.5569C206.723 67.6065 206.723 67.6561 206.773 67.7057C206.823 67.8048 206.872 67.8544 206.922 67.9536C206.971 68.0528 207.021 68.1023 207.021 68.2015C207.071 68.3007 207.071 68.3503 207.12 68.4495C207.17 68.5486 207.17 68.6478 207.219 68.747C207.219 68.7966 207.269 68.8461 207.269 68.8957C207.269 68.9453 207.269 68.9453 207.269 68.9949C207.319 69.1932 207.368 69.4412 207.368 69.6395C207.418 69.8875 207.418 70.0858 207.467 70.3337C207.467 70.3833 207.467 70.3833 207.467 70.4329C207.467 70.4825 207.467 70.4825 207.467 70.5321C207.467 70.9783 207.418 71.4246 207.269 71.8709C207.17 72.3172 206.971 72.7634 206.723 73.2097C206.376 73.8543 205.93 74.3998 205.385 74.7965C205.285 74.8956 205.137 74.9948 204.988 75.0444C204.938 75.094 204.889 75.1436 204.79 75.1932C204.393 75.4411 203.947 75.6394 203.5 75.7386C203.401 75.7386 203.252 75.7882 203.153 75.7882C202.905 75.8378 202.707 75.8874 202.459 75.8874C202.409 75.8874 202.409 75.8874 202.36 75.8874C201.864 76.0361 201.368 76.0361 200.922 75.8874C200.426 75.8874 199.98 75.7386 199.533 75.4907C199.286 75.4411 199.038 75.2923 198.839 75.1436C198.046 74.6477 197.352 73.9535 196.905 73.1105C196.41 72.218 196.162 71.2759 196.162 70.2841C196.162 69.3916 196.41 68.4495 196.856 67.5569Z" fill="#EBEBEB"/>
<path d="M196.856 67.5571C197.104 67.1109 197.401 66.7638 197.699 66.3671C198.046 66.02 198.443 65.7225 198.839 65.4745L200.129 64.8795L201.567 64.6812C202.112 64.7307 202.657 64.7803 203.203 64.8795C203.451 64.9291 203.748 65.0283 203.996 65.1274C204.244 65.2266 204.492 65.3754 204.74 65.5241C205.137 65.772 205.534 66.0696 205.881 66.4167C206.228 66.7638 206.525 67.1109 206.773 67.5571L206.972 67.9043C207.021 68.0034 207.071 68.1522 207.12 68.2514C207.219 68.4993 207.269 68.6976 207.368 68.9456V69.0447L207.467 69.7389V69.6894L207.567 70.4332C207.567 70.5323 207.567 70.6811 207.567 70.8298C207.567 70.9786 207.567 71.0778 207.517 71.2265C207.467 71.4745 207.418 71.7224 207.368 71.9703C207.17 72.6645 206.872 73.3587 206.426 73.9042C206.228 74.2017 205.98 74.4496 205.682 74.6976C205.434 74.9455 205.087 75.1438 204.79 75.3422C204.393 75.5901 203.947 75.7885 203.451 75.9372C203.253 75.9868 203.104 76.0364 202.905 76.0364L202.31 76.086H202.36C201.864 76.2347 201.319 76.2347 200.823 76.086H200.872C200.377 76.086 199.881 75.9372 199.434 75.6397C199.038 75.5405 198.691 75.2926 198.344 75.0447C197.996 74.7967 197.699 74.5488 197.451 74.2017C196.905 73.6067 196.509 72.8629 196.31 72.1191C195.914 70.6811 196.063 68.9456 196.856 67.5571ZM196.856 67.5571C196.063 68.9456 195.914 70.6811 196.41 72.1687C196.658 72.9125 197.054 73.6067 197.6 74.2017C197.848 74.4992 198.145 74.7471 198.492 74.9951C198.839 75.1934 199.137 75.4414 199.534 75.5405C199.93 75.7885 200.377 75.8876 200.872 75.8876C201.319 75.9868 201.815 75.9868 202.261 75.8876H202.31L202.856 75.7885C203.054 75.7885 203.203 75.7389 203.401 75.6893C203.848 75.5405 204.244 75.3918 204.641 75.1438C204.938 74.9455 205.236 74.7471 205.434 74.4992C205.682 74.2513 205.93 74.0034 206.129 73.7554C206.525 73.21 206.823 72.5654 207.021 71.9207C207.071 71.6728 207.12 71.4745 207.17 71.2265C207.17 71.1274 207.219 70.9786 207.219 70.8794C207.219 70.7803 207.219 70.6315 207.219 70.5323L207.12 69.7885V69.7389L207.021 69.0943V68.9952C206.972 68.7472 206.922 68.5489 206.823 68.3505C206.773 68.2514 206.724 68.1522 206.674 68.053L206.525 67.7555C206.327 67.3588 206.029 66.9621 205.732 66.6646C205.434 66.3175 205.087 66.02 204.691 65.772C204.443 65.6233 204.244 65.4745 203.996 65.3754C203.748 65.2762 203.5 65.177 203.253 65.1274C202.707 64.9787 202.211 64.9291 201.666 64.8795L200.228 65.0778L198.939 65.6233C198.542 65.8712 198.145 66.1687 197.798 66.5158C197.401 66.7638 197.104 67.1109 196.856 67.5571Z" fill="#A42A29"/>
<path d="M204.988 72.8628C204.79 72.2678 204.393 71.7224 203.996 71.2265C203.649 70.7802 203.203 70.3835 202.806 69.9868C203.501 69.2431 204.145 68.5488 204.443 68.2513C204.691 67.9538 204.393 67.5571 204.046 67.7059C203.6 68.053 202.906 68.6976 202.162 69.3918C201.864 69.1439 201.567 68.896 201.22 68.6976C200.724 68.3505 200.178 67.9042 199.534 67.7059C199.385 67.6563 199.187 67.7555 199.137 67.8546C199.087 67.9042 199.087 68.0034 199.087 68.053C199.087 68.3505 199.435 68.5488 199.633 68.6976C199.881 68.896 200.178 69.0943 200.426 69.2926C200.773 69.5406 201.12 69.7885 201.468 70.0364C200.773 70.6811 200.426 70.9786 199.782 71.6232C199.137 72.2678 199.286 72.6645 199.435 72.8133C199.583 72.962 199.98 73.0116 200.178 72.8133C200.476 72.4166 201.319 71.524 202.211 70.6315C202.608 70.9786 203.005 71.3257 203.352 71.7224C203.798 72.1686 204.195 72.7141 204.74 73.0612C204.839 73.1604 205.038 73.0116 204.988 72.8628Z" fill="#A42A29"/>
<path d="M227.5 78.8135C227.996 77.9705 228.64 77.2763 229.434 76.7805L229.483 76.7309C229.929 76.5325 230.376 76.3342 230.772 76.1358L232.21 75.9375C232.706 75.9871 233.202 76.0367 233.698 76.1358C233.797 76.1358 233.946 76.1854 234.045 76.1854C234.095 76.1854 234.144 76.235 234.194 76.235C234.293 76.2846 234.392 76.2846 234.491 76.3342C234.591 76.3838 234.64 76.3838 234.739 76.4334C234.838 76.4829 234.888 76.4829 234.987 76.5325C235.086 76.5821 235.136 76.6317 235.235 76.6813C235.285 76.7309 235.334 76.7309 235.384 76.7805C235.781 77.0284 236.177 77.3259 236.475 77.673C236.822 77.9705 237.119 78.3672 237.318 78.8135C237.367 78.8631 237.367 78.9127 237.417 78.9623C237.467 79.0614 237.516 79.111 237.566 79.2102C237.615 79.3094 237.665 79.3589 237.665 79.4581C237.714 79.5573 237.714 79.6069 237.764 79.706C237.814 79.8052 237.814 79.9044 237.863 80.0036C237.863 80.0531 237.913 80.1027 237.913 80.1523C237.913 80.2019 237.913 80.2019 237.913 80.2515C237.962 80.4498 238.012 80.6978 238.012 80.8961C238.062 81.144 238.062 81.3424 238.111 81.5903C238.111 81.6399 238.111 81.6399 238.111 81.6895C238.111 81.7391 238.111 81.7391 238.111 81.7887C238.111 82.2349 238.062 82.6812 237.913 83.1275C237.814 83.5738 237.615 84.02 237.367 84.4663C237.02 85.1109 236.574 85.6564 236.029 86.0531C235.929 86.1522 235.781 86.2514 235.632 86.301C235.582 86.3506 235.533 86.4002 235.434 86.4498C235.037 86.6977 234.591 86.896 234.144 86.9952C234.045 86.9952 233.896 87.0448 233.797 87.0448C233.549 87.0944 233.351 87.144 233.103 87.144C233.053 87.144 233.053 87.144 233.004 87.144C232.508 87.2927 232.012 87.2927 231.566 87.144C231.07 87.144 230.624 86.9952 230.177 86.7473C229.929 86.6977 229.682 86.5489 229.483 86.4002C228.69 85.9043 227.996 85.2101 227.549 84.3671C227.053 83.4746 226.806 82.5325 226.806 81.5407C226.756 80.6482 227.004 79.706 227.5 78.8135Z" fill="#EBEBEB"/>
<path d="M227.5 78.8133C227.748 78.367 228.045 78.0199 228.343 77.6232C228.69 77.2761 229.087 76.9786 229.483 76.7306L230.773 76.1356L232.211 75.9373C232.756 75.9868 233.302 76.0364 233.847 76.1356C234.095 76.1852 234.392 76.2844 234.64 76.3835C234.888 76.4827 235.136 76.6315 235.384 76.7802C235.781 77.0281 236.178 77.3257 236.525 77.6728C236.872 78.0199 237.169 78.367 237.417 78.8133L237.616 79.1604C237.665 79.2595 237.715 79.4083 237.764 79.5075C237.863 79.7554 237.913 79.9537 238.012 80.2017V80.3008L238.111 80.995V80.9455L238.211 81.6892C238.211 81.7884 238.211 81.9372 238.211 82.0859C238.211 82.2347 238.211 82.3339 238.161 82.4826C238.111 82.7306 238.062 82.9785 238.012 83.2264C237.814 83.9206 237.516 84.6148 237.07 85.1603C236.872 85.4578 236.624 85.7057 236.326 85.9536C236.078 86.2016 235.731 86.3999 235.434 86.5983C235.037 86.8462 234.591 87.0445 234.095 87.1933C233.897 87.2429 233.748 87.2925 233.549 87.2925L232.954 87.3421H233.004C232.508 87.4908 231.963 87.4908 231.467 87.3421H231.516C231.021 87.3421 230.525 87.1933 230.078 86.8958C229.682 86.7966 229.335 86.5487 228.988 86.3007C228.64 86.0528 228.343 85.8049 228.095 85.4578C227.55 84.8628 227.153 84.119 226.955 83.3752C226.508 81.9372 226.707 80.2017 227.5 78.8133ZM227.5 78.8133C226.707 80.2017 226.558 81.9372 227.054 83.4248C227.302 84.1686 227.698 84.8628 228.244 85.4578C228.492 85.7553 228.789 86.0032 229.136 86.2512C229.483 86.4495 229.781 86.6974 230.178 86.7966C230.574 87.0445 231.021 87.1437 231.516 87.1437C231.963 87.2429 232.459 87.2429 232.905 87.1437H232.954L233.5 87.0445C233.698 87.0445 233.847 86.995 234.045 86.9454C234.492 86.7966 234.888 86.6479 235.285 86.3999C235.583 86.2016 235.88 86.0032 236.078 85.7553C236.326 85.5074 236.574 85.2594 236.773 85.0115C237.169 84.4661 237.467 83.8214 237.665 83.1768C237.715 82.9289 237.764 82.7306 237.814 82.4826C237.814 82.3834 237.863 82.2347 237.863 82.1355C237.863 82.0363 237.863 81.8876 237.863 81.7884L237.764 81.0446V80.995L237.665 80.3504V80.2512C237.616 80.0033 237.566 79.805 237.467 79.6066C237.417 79.5075 237.368 79.4083 237.318 79.3091L237.219 78.9124C237.021 78.5157 236.723 78.119 236.425 77.8215C236.128 77.4744 235.781 77.1769 235.384 76.929C235.136 76.7802 234.938 76.6315 234.69 76.5323C234.442 76.4331 234.194 76.3339 233.946 76.2844C233.401 76.1356 232.905 76.086 232.359 76.0364L230.921 76.2348L229.632 76.7802C229.235 77.0281 228.839 77.3257 228.492 77.6728C228.045 78.0199 227.748 78.4166 227.5 78.8133Z" fill="#A42A29"/>
<path d="M235.582 84.1194C235.384 83.5244 234.987 82.9789 234.591 82.4831C234.244 82.0368 233.797 81.6401 233.401 81.2434C234.095 80.4996 234.739 79.8054 235.037 79.5079C235.285 79.2104 234.987 78.8137 234.64 78.9625C234.194 79.3096 233.5 79.9542 232.756 80.6484C232.458 80.4005 232.161 80.1525 231.814 79.9542C231.318 79.6071 230.773 79.1608 230.128 78.9625C229.979 78.9129 229.781 79.0121 229.731 79.1112C229.682 79.1608 229.682 79.26 229.682 79.3096C229.682 79.6071 230.029 79.8054 230.227 79.9542C230.475 80.1525 230.773 80.3509 231.02 80.5492C231.368 80.7972 231.715 81.0451 232.062 81.293C231.368 81.9376 231.02 82.2352 230.376 82.8798C229.731 83.5244 229.88 83.9211 230.029 84.0698C230.178 84.2186 230.574 84.2682 230.773 84.0698C231.07 83.6731 231.913 82.7806 232.806 81.8881C233.202 82.2352 233.599 82.5823 233.946 82.9789C234.392 83.4252 234.789 83.9707 235.334 84.3178C235.434 84.4665 235.632 84.2682 235.582 84.1194Z" fill="#A42A29"/>
<path d="M226.36 66.7635C224.525 61.4082 216.74 60.0693 212.674 63.4908C210.244 65.5734 213.765 69.0444 216.195 67.0114C217.335 66.0197 220.162 66.5155 221.153 67.656C222.69 69.3915 221.005 70.9287 219.368 71.6229C216.492 72.9121 214.41 75.0443 213.914 78.2674C213.467 81.3914 218.228 82.7302 218.674 79.6063C219.17 76.1848 222.343 76.3336 224.476 74.251C226.509 72.2675 227.302 69.3915 226.36 66.7635Z" fill="#E0E0E0"/>
<path d="M217.831 86.5482C217.732 86.2011 217.583 85.9531 217.385 85.7052C217.186 85.4573 216.988 85.2093 216.69 85.0606C216.641 85.0606 216.591 85.011 216.542 85.011C216.492 84.9614 216.443 84.9614 216.393 84.9118C215.798 84.5151 215.005 84.416 214.31 84.6143L213.715 84.8622C213.715 84.8622 213.715 84.8622 213.666 84.8622C213.666 84.8622 213.269 85.1102 213.12 85.2589C212.823 85.5564 212.575 86.0027 212.476 86.3994C212.426 86.6473 212.376 86.8953 212.376 87.1432C212.426 87.3415 212.426 87.5895 212.476 87.7878C212.476 87.7878 212.476 87.7878 212.476 87.8374C212.525 88.0357 212.624 88.2341 212.724 88.4324C213.021 89.0275 213.666 89.5233 214.31 89.6721C214.757 89.8208 215.401 89.8208 215.847 89.6721C216.046 89.5729 216.244 89.5233 216.443 89.4242H216.492C216.641 89.325 216.988 89.0275 217.038 88.9779C217.236 88.8291 217.385 88.5812 217.484 88.3829C217.682 88.0853 217.781 87.7878 217.781 87.4407C217.98 87.1928 217.93 86.8457 217.831 86.5482Z" fill="#E0E0E0"/>
<path d="M258.392 125.87C258.392 128.399 216.641 130.878 165.468 130.432C133.039 130.134 85.9814 128.796 85.9814 126.267C85.9814 123.738 124.163 120.416 158.873 120.416C193.583 120.416 258.392 123.341 258.392 125.87Z" fill="#E0E0E0"/>
</svg>
