<svg width="245" height="112" viewBox="0 0 245 112" fill="none" xmlns="http://www.w3.org/2000/svg">
<g clip-path="url(#clip0)">
<rect width="236" height="112" fill="#F7F7F7"/>
<path d="M244.999 95.3159C244.999 98.8323 144.615 105.042 101.508 104.967C57.501 104.967 8.24609 100.329 8.24609 96.8122C8.24609 93.2959 46.7054 89.6299 93.9361 89.6299C141.167 89.6299 244.999 91.8744 244.999 95.3159Z" fill="#E0E0E0"/>
<path d="M164.407 83.0461H15.5182C13.6439 83.0461 12.1445 81.5498 12.1445 79.6794V9.20243C12.1445 7.33202 13.6439 5.83569 15.5182 5.83569H164.407C166.282 5.83569 167.781 7.33202 167.781 9.20243V79.6794C167.781 81.5498 166.282 83.0461 164.407 83.0461Z" fill="#F7F7F7"/>
<path d="M164.857 31.9466H15.0683C13.494 31.9466 12.1445 30.6747 12.1445 29.0287V8.60387C12.1445 7.03273 13.419 5.68604 15.0683 5.68604H164.857C166.432 5.68604 167.781 6.95791 167.781 8.60387V29.0287C167.781 30.6747 166.432 31.9466 164.857 31.9466Z" fill="#A42A29"/>
<path d="M146.79 74.2926C146.79 74.2926 146.79 73.9185 146.79 73.2452C146.79 72.5719 146.79 71.4496 146.79 70.1029C146.79 67.3347 146.79 63.2946 146.79 58.2071C146.79 47.9573 146.79 33.2185 146.715 15.487L146.79 15.5618H72.7202L72.8702 15.4122C72.8702 36.66 72.8702 56.7108 72.8702 74.2178L72.7202 74.143L126.248 74.2178H141.392H145.441H146.49H145.441H141.467H126.323L72.7202 74.2926H72.5703V74.143C72.5703 56.636 72.5703 36.5104 72.5703 15.3374V15.1877H72.7202H146.79H146.865V15.2626C146.865 32.994 146.79 47.7328 146.79 57.9827C146.79 63.145 146.79 67.1103 146.79 69.8785C146.79 71.2252 146.79 72.2726 146.79 73.0207C146.865 73.8437 146.79 74.2926 146.79 74.2926Z" fill="#E0E1E0"/>
<path d="M84.9401 26.3353H82.2412V56.187H84.9401V26.3353Z" fill="#E0E1E0"/>
<path d="M90.1129 36.5104H87.4141V56.2619H90.1129V36.5104Z" fill="#EBEBEB"/>
<path d="M95.2858 30.0762H92.5869V56.4115H95.2858V30.0762Z" fill="#E0E1E0"/>
<path d="M100.459 27.5323H97.7598V56.2618H100.459V27.5323Z" fill="#EBEBEB"/>
<path d="M105.631 37.1089H102.933V56.187H105.631V37.1089Z" fill="#E0E1E0"/>
<path d="M110.804 40.8497H108.105V56.1871H110.804V40.8497Z" fill="#EBEBEB"/>
<path d="M115.978 29.4027H113.279V56.1869H115.978V29.4027Z" fill="#E0E1E0"/>
<path d="M121.15 34.2659H118.451V56.2619H121.15V34.2659Z" fill="#EBEBEB"/>
<path d="M126.324 30.3755H123.625V56.1871H126.324V30.3755Z" fill="#E0E1E0"/>
<path d="M131.497 38.6052H128.798V56.1871H131.497V38.6052Z" fill="#EBEBEB"/>
<path d="M136.669 35.2385H133.97V56.1871H136.669V35.2385Z" fill="#E0E1E0"/>
<path d="M137.719 58.2818C137.719 58.3567 124.974 58.3567 109.305 58.3567C93.6366 58.3567 80.9668 58.3567 80.9668 58.2818C80.9668 58.207 93.6366 58.207 109.38 58.207C125.124 58.207 137.719 58.207 137.719 58.2818Z" fill="#E0E1E0"/>
<path d="M86.0652 60.6761C84.7157 60.8257 83.4412 60.8257 82.0918 60.6761C83.4412 60.5264 84.7157 60.5264 86.0652 60.6761Z" fill="#E0E1E0"/>
<path d="M92.6625 60.7508C91.0882 60.9004 89.5138 60.9004 87.9395 60.7508C89.5138 60.6011 91.0882 60.6011 92.6625 60.7508Z" fill="#E0E1E0"/>
<path d="M98.2846 60.7508C96.7102 60.9004 95.1359 60.9004 93.5615 60.7508C95.1359 60.6011 96.7102 60.6011 98.2846 60.7508Z" fill="#E0E1E0"/>
<path d="M103.908 60.7508C102.333 60.9004 100.759 60.9004 99.1846 60.7508C100.759 60.6011 102.333 60.6011 103.908 60.7508Z" fill="#E0E1E0"/>
<path d="M109.531 60.7508C107.956 60.9004 106.382 60.9004 104.808 60.7508C106.382 60.6011 107.956 60.6011 109.531 60.7508Z" fill="#E0E1E0"/>
<path d="M115.153 60.7508C113.578 60.9004 112.004 60.9004 110.43 60.7508C112.004 60.6011 113.578 60.6011 115.153 60.7508Z" fill="#E0E1E0"/>
<path d="M120.776 60.7508C119.201 60.9004 117.627 60.9004 116.053 60.7508C117.627 60.6011 119.201 60.6011 120.776 60.7508Z" fill="#E0E1E0"/>
<path d="M126.399 60.7508C124.824 60.9004 123.25 60.9004 121.676 60.7508C123.25 60.6011 124.824 60.6011 126.399 60.7508Z" fill="#E0E1E0"/>
<path d="M132.021 60.7508C130.447 60.9004 128.872 60.9004 127.298 60.7508C128.872 60.6011 130.447 60.6011 132.021 60.7508Z" fill="#E0E1E0"/>
<path d="M137.644 60.7508C136.07 60.9004 134.495 60.9004 132.921 60.7508C134.495 60.6011 136.07 60.6011 137.644 60.7508Z" fill="#E0E1E0"/>
<path d="M148.889 15.1129H70.3213V17.3574H148.889V15.1129Z" fill="#EBEBEB"/>
<path d="M68.9718 68.0081C70.996 68.2326 68.672 76.1631 65.5982 75.7142C62.5245 75.2653 64.0239 69.28 64.0239 69.28C64.0239 69.28 66.8727 67.7089 68.9718 68.0081Z" fill="#A1B2B6"/>
<path d="M45.5066 29.1783C50.2296 35.2385 54.5029 62.6212 54.5029 62.6212C54.5029 62.6212 56.1522 62.322 56.0023 63.2946C55.8524 64.2672 68.972 68.008 68.972 68.008C68.972 68.008 64.099 70.4021 65.5984 75.7141C65.5984 75.7141 50.4546 73.4696 46.1063 71.5992C41.7581 69.7288 40.5586 40.7749 40.5586 40.7749L45.5066 29.1783Z" fill="#D0D8DC"/>
<path d="M13.2688 81.849C13.2688 81.849 16.3426 84.4676 31.4114 84.0935C43.0317 83.7942 46.1054 80.9512 46.1054 80.9512C46.1054 80.9512 48.4295 33.0688 45.4307 29.2531C43.2566 26.4849 38.9833 25.2879 33.3606 24.9886C31.2615 24.9138 28.9374 24.9138 26.5384 25.0634C24.7391 25.1382 23.0148 25.4375 21.4405 25.8864C15.218 27.682 10.8698 31.7969 10.27 35.014C9.52034 38.9792 13.2688 81.849 13.2688 81.849Z" fill="#D0D8DC"/>
<path d="M49.7795 58.2071C51.054 61.499 50.4542 69.7288 49.2547 71.8985C47.9053 74.3674 41.6828 73.32 41.6828 73.32C41.6828 73.32 41.6828 52.5959 40.6332 42.0468C39.5837 31.4977 34.9355 24.9886 34.9355 24.9886C34.9355 24.9886 46.031 25.3627 47.7553 31.4977C48.8799 35.5377 48.58 38.7548 48.2051 40.5504C48.0552 41.523 47.8303 42.0468 47.8303 42.0468H47.9053C48.2801 42.1216 49.4796 42.6453 50.3792 47.0595C51.4288 52.2966 49.1048 57.1597 49.1048 57.1597C49.3297 57.3841 49.5546 57.7582 49.7795 58.2071Z" fill="#EF4153"/>
<path d="M39.2088 34.8644C39.2088 34.8644 41.083 28.505 38.759 25.5123C36.4349 22.5197 33.9609 21.996 33.9609 21.996C33.9609 21.996 37.0347 24.9138 37.4845 26.7842C37.9343 28.7294 39.2088 34.8644 39.2088 34.8644Z" fill="#CE374C"/>
<path d="M33.9612 22.0707C30.7375 21.0981 22.7907 19.6766 18.8173 21.3226C18.8173 21.3226 18.5175 24.7641 19.9419 25.8864C21.3663 27.0834 34.8608 20.0507 38.9841 33.5925C38.9841 33.5925 40.0337 23.7915 33.9612 22.0707Z" fill="#B72F49"/>
<path d="M27.7386 52.97C27.7386 70.4022 25.7144 75.4149 25.7144 75.4149C25.7144 75.4149 12.8946 77.2105 10.4956 74.5919C8.17156 72.0481 10.4206 63.8932 10.4206 63.8932C10.4206 63.8932 9.89586 62.6213 9.37107 60.7509C9.14616 59.9279 8.92125 59.0301 8.69635 58.0575C8.47144 57.0849 8.3215 56.0375 8.17156 54.9152C7.87168 52.147 8.47144 49.9773 9.07119 48.7055C9.44604 47.8077 9.89586 47.3588 9.89586 47.3588C9.89586 47.3588 7.3469 37.2586 8.39647 32.7696C8.62138 31.797 9.07119 30.8992 9.59598 30.151C12.8197 25.9613 20.3916 25.8865 20.3916 25.8865C22.5657 26.485 25.7894 32.0214 27.1388 42.7201C27.5137 45.7876 27.7386 49.1544 27.7386 52.97Z" fill="#EF4153"/>
<path d="M33.136 20.8736L31.1868 28.6545C31.1868 28.6545 28.9377 29.702 24.1396 26.5597C24.1396 26.5597 26.6136 20.6492 24.3646 16.4595C24.3646 16.4595 24.9643 16.4595 25.789 16.6091C25.8639 16.6091 26.7636 21.1729 33.136 20.8736Z" fill="#703E38"/>
<path d="M24.0645 12.4196C24.0645 21.622 32.9108 22.8939 35.2349 19.4523C35.9846 18.3301 36.6593 16.3848 37.0342 14.2152C37.1091 13.6915 37.1841 13.2426 37.2591 12.7188C37.6339 9.35211 37.334 5.91056 35.3848 5.01277C28.7126 1.87048 24.0645 3.21718 24.0645 12.4196Z" fill="#8F5045"/>
<path d="M38.1587 5.91047C38.5336 5.31194 38.3087 4.33933 37.484 4.1897C37.484 4.1897 37.484 4.1897 37.484 4.11488C37.6339 3.59117 37.484 2.91782 36.8843 2.61856C36.8843 2.61856 36.8843 2.61856 36.9592 2.61856C36.9592 2.61856 36.8843 2.61856 36.8843 2.54374C36.8843 1.94521 36.5094 1.4215 35.7597 1.4215C35.6847 1.4215 35.6098 1.4215 35.4598 1.4215C35.3099 1.12223 35.01 0.897783 34.4852 0.897783C34.4103 0.897783 34.3353 0.897783 34.2603 0.897783C34.1104 0.673334 33.8105 0.523701 33.4357 0.523701C33.3607 0.523701 33.2857 0.523701 33.2108 0.523701C33.0608 0.374069 32.7609 0.224436 32.4611 0.224436C32.1612 0.224436 31.9363 0.374069 31.7114 0.523701C31.5614 0.224436 31.2615 0.0748035 30.8117 0.0748035C30.5868 0.0748035 30.4369 0.14962 30.2869 0.224436C30.137 0.0748035 29.8371 -0.0748291 29.5373 -0.0748291C29.2374 -0.0748291 29.0874 -1.28001e-05 28.8625 0.14962C28.7126 0.0748035 28.4877 -1.28075e-05 28.2628 -1.28075e-05C28.1878 -1.28075e-05 28.0379 -1.28075e-05 27.9629 0.0748035C27.8879 0.0748035 27.663 -1.28075e-05 27.4381 -1.28075e-05C27.2132 -1.28075e-05 26.9883 0.0748035 26.8383 0.224436C26.6884 0.14962 26.5385 0.0748035 26.3136 0.0748035C25.7888 0.0748035 25.4139 0.448885 25.264 0.822966C24.5893 0.822966 24.2144 1.34668 24.2144 1.87039C24.0645 1.79558 23.9145 1.79558 23.6896 1.79558C22.865 1.79558 22.4901 2.61856 22.6401 3.21709C22.6401 3.21709 22.6401 3.21709 22.5651 3.21709C21.7404 3.21709 21.4406 3.89043 21.5155 4.56378C20.6159 4.78823 20.4659 5.98529 21.0657 6.509C20.4659 6.80827 20.391 7.63125 20.6909 8.15496C20.6159 8.52904 20.6909 8.97794 20.9158 9.20239C20.6159 9.65129 20.6909 10.3995 21.0657 10.7735C21.2156 13.6914 22.3402 16.7588 25.1141 18.6292L24.7392 16.4596C24.7392 16.4596 23.6896 14.5892 24.0645 13.2425C24.4393 11.8958 25.189 13.018 25.189 13.018C25.189 13.018 27.2882 9.57647 27.2882 7.4068C27.2882 5.16231 27.2882 5.16231 27.2882 5.16231C27.2882 5.16231 33.8855 3.51635 36.8093 6.73345C36.8093 6.73345 36.8093 6.73345 36.8843 6.73345C36.8843 7.10754 37.1841 7.55643 37.7089 7.55643C38.6835 7.48162 38.7585 6.28456 38.1587 5.91047Z" fill="#0E3944"/>
<path d="M25.0395 12.4943C25.0395 12.4943 23.69 10.6239 22.1906 11.5965C20.6912 12.5691 22.7904 15.9358 24.2898 15.9358C25.7892 15.9358 25.0395 12.4943 25.0395 12.4943Z" fill="#8F5045"/>
<path d="M25.2641 33.7421C25.2641 33.7421 27.2882 27.0834 26.6135 25.0634C25.9388 22.9685 19.4165 20.724 18.8167 21.3974C18.2169 21.9959 17.5422 23.8663 18.2169 26.1108C18.2169 26.036 22.2653 26.6345 25.2641 33.7421Z" fill="#CE374C"/>
<path d="M27.1382 42.7202C25.189 45.2639 13.7187 45.4884 13.7187 45.4884C13.7187 45.4884 6.22174 56.636 11.6945 60.0027C17.0923 63.2946 26.6134 60.9005 26.9883 60.8257C24.8891 62.5465 11.6945 63.8184 9.29548 60.8257C9.22051 60.6761 9.07057 60.5264 9.07057 60.3768C8.84566 59.7783 8.69573 58.9553 8.62076 58.1323C8.32088 55.2145 8.69573 51.1744 8.9956 48.7803C9.37045 47.8825 9.82027 47.4336 9.82027 47.4336C9.82027 47.4336 7.27131 37.3334 8.32088 32.8444C8.54579 31.8718 8.9956 30.974 9.52039 30.2258C16.3426 30.3006 17.0173 42.8698 17.0173 42.8698C18.9665 43.4683 26.8383 42.795 27.1382 42.7202Z" fill="#CE374C"/>
<path d="M11.6952 98.8323C11.7702 100.403 4.3482 103.62 3.97336 101.301C3.67348 98.9819 11.3953 94.7922 11.6952 98.8323Z" fill="#A1B2B6"/>
<path d="M5.32237 100.254C5.17243 101.002 4.57268 106.015 4.87256 106.912C4.87256 106.912 4.87256 106.987 4.94753 106.987C5.32237 107.885 6.44691 108.708 6.82176 109.232C7.19661 109.83 7.87133 109.905 8.47109 110.429C8.99587 110.953 10.4203 110.952 10.4203 110.952C10.4203 110.952 12.5944 112.524 12.6694 111.626C12.7443 110.578 11.4699 109.606 11.4699 109.606L10.4953 107.137C10.4953 107.137 11.02 103.845 11.6948 103.845C12.3695 103.845 12.0696 105.192 12.4445 106.314C12.6694 107.062 13.494 106.912 13.494 106.912L13.569 104.967C13.569 104.967 13.4191 102.124 13.0442 101.6C12.6694 101.077 10.8701 99.2063 10.8701 99.2063L10.0454 95.1663L4.57268 95.5403C4.34777 95.5403 5.39734 99.5056 5.32237 100.254Z" fill="#8F5045"/>
<path d="M4.87207 106.987C5.24692 107.885 6.37146 108.708 6.7463 109.232C7.12115 109.83 7.79588 109.905 8.39563 110.429C8.92042 110.953 10.3448 110.953 10.3448 110.953C9.82005 110.578 8.84545 108.259 8.62054 108.11C8.39563 107.96 8.24569 108.334 7.79588 108.334C7.34606 108.334 7.19612 107.511 6.7463 107.661C6.29649 107.81 5.92164 107.885 5.54679 107.287C5.39686 107.062 5.17195 107.062 4.87207 106.987Z" fill="#703E38"/>
<path d="M10.6453 30.8242C14.9185 33.0687 16.4929 42.3459 16.118 46.1616L10.1955 64.6412C10.1955 64.6412 10.0455 66.8109 9.29582 67.1101L11.6948 98.8322C11.0951 97.6352 4.87263 98.6826 3.973 101.301C3.973 101.301 -0.525168 70.7013 0.0745869 62.2471C0.149556 60.6011 10.6453 30.8242 10.6453 30.8242Z" fill="#D0D8DC"/>
<path d="M41.2324 42.0467C41.2324 42.0467 45.1308 41.8971 48.1296 40.5504C47.9797 41.523 47.7548 42.0467 47.7548 42.0467C47.7548 42.0467 43.5565 42.5705 41.2324 42.0467Z" fill="#CE374C"/>
<path d="M49.7793 58.2071C46.9304 58.5064 42.957 57.9078 42.957 57.9078C42.957 57.9078 47.3802 57.9078 49.1795 57.1597C49.3294 57.3841 49.5543 57.7582 49.7793 58.2071Z" fill="#CE374C"/>
<path d="M74.6688 76.163C74.219 75.6393 72.1948 74.517 72.1948 74.517C70.4705 73.9185 69.4959 73.6192 68.7462 72.8711C67.9965 72.1229 65.2227 72.2725 65.2227 72.2725C65.2227 72.2725 65.5975 69.7288 67.3968 67.8584C67.3968 67.8584 68.8212 68.2325 69.271 68.0828C70.1706 67.7836 70.7704 66.5117 72.4197 66.2124C74.144 65.988 76.1682 64.8657 76.1682 64.8657C76.1682 64.8657 76.9929 65.3894 76.3931 65.988C75.7933 66.6613 74.3689 66.9606 74.219 67.3347C74.219 67.4095 74.144 67.4843 74.144 67.5591C74.069 67.8584 74.069 68.1576 74.219 68.3821C74.219 68.3821 74.219 68.3821 74.219 68.4569C74.8937 69.2051 77.1428 69.654 78.1174 69.8036C79.5418 69.9532 81.416 70.2525 81.0412 71.0755C80.5914 71.8985 79.9167 71.0007 76.7679 71.2251L76.693 71.5244C76.4681 71.5244 78.4922 72.4222 80.4414 72.7963C81.7909 73.0955 81.1911 73.9185 80.7413 73.9933C80.2915 74.1429 79.017 73.694 78.0424 73.4696C77.3677 73.32 76.7679 73.1703 76.3181 73.0955L76.0932 73.4696C78.2673 75.1156 79.3169 74.8163 79.2419 75.5645C79.167 76.3126 77.2178 75.7889 76.543 75.2652C76.2432 75.0407 75.5684 74.8163 74.9687 74.517C76.3931 76.0882 77.2178 76.0882 77.0678 76.6867C76.693 77.5097 75.1936 76.6867 74.6688 76.163Z" fill="#8F5045"/>
<path d="M71.8203 69.7288C73.1698 69.4295 73.9944 67.8584 74.0694 67.6339C73.9944 67.9332 73.9944 68.2324 74.1444 68.4569C73.1698 69.9532 71.8203 69.7288 71.8203 69.7288Z" fill="#703E38"/>
<path d="M227.277 5.80155L164.381 11.9591L172.82 97.8082L235.716 91.6507L227.277 5.80155Z" fill="#F5F6F6"/>
<path d="M214.458 0.640171L151.562 6.79773L160.002 92.6469L222.897 86.4893L214.458 0.640171Z" fill="white"/>
<path d="M222.809 86.5624L222.734 86.1135C222.734 85.8142 222.659 85.4401 222.584 84.9164C222.434 83.7942 222.284 82.2979 222.059 80.203C221.684 76.0881 221.01 70.1028 220.26 62.5464C218.761 47.4335 216.661 26.036 214.037 0.673276L214.337 0.897725L151.513 7.10748L151.738 6.80821C154.887 38.9044 157.735 68.6065 160.134 92.6973L159.91 92.4729L205.566 88.1335L218.311 86.9365L221.684 86.6372L222.809 86.5624C222.809 86.5624 222.509 86.6372 221.684 86.712L218.386 87.0861L205.716 88.358L159.91 92.9966H159.685V92.7721C157.436 68.6065 154.437 38.9044 151.288 6.80821V6.50895H151.588L214.487 0.299194H214.712V0.523643C217.186 25.9612 219.21 47.4335 220.71 62.6212C221.384 70.1776 221.984 76.0881 222.359 80.203C222.584 82.223 222.659 83.7942 222.809 84.8416L222.884 86.0387C222.884 86.2631 222.884 86.4128 222.809 86.5624Z" fill="#A42A29"/>
<path d="M191.622 20.35C191.622 20.4997 184.8 21.3227 176.403 22.1456C168.007 22.9686 161.109 23.4923 161.109 23.3427C161.109 23.1931 167.932 22.3701 176.328 21.5471C184.725 20.7241 191.622 20.1256 191.622 20.35Z" fill="#A42A29"/>
<path d="M208.865 26.1857C208.865 26.3354 198.369 27.5324 185.325 28.8043C172.28 30.0762 161.784 30.974 161.784 30.8243C161.784 30.6747 172.28 29.4776 185.325 28.2058C198.369 26.9339 208.94 26.0361 208.865 26.1857Z" fill="#A42A29"/>
<path d="M209.689 33.9665C209.689 34.1161 199.194 35.3132 186.149 36.5851C173.104 37.8569 162.609 38.7547 162.534 38.6051C162.459 38.4555 173.029 37.2584 186.074 35.9865C199.119 34.7146 209.689 33.8168 209.689 33.9665Z" fill="#A42A29"/>
<path d="M210.439 41.7475C210.439 41.8971 199.943 43.0942 186.899 44.3661C173.854 45.6379 163.358 46.5357 163.358 46.3861C163.358 46.2365 173.854 45.0394 186.899 43.7675C199.943 42.4956 210.514 41.5979 210.439 41.7475Z" fill="#A42A29"/>
<path d="M211.188 49.5282C211.188 49.6779 200.693 50.8749 187.648 52.1468C174.603 53.4187 164.183 54.3165 164.183 54.1669C164.183 54.0172 174.678 52.8202 187.723 51.5483C200.693 50.2764 211.188 49.3786 211.188 49.5282Z" fill="#A42A29"/>
<path d="M212.013 57.3092C212.013 57.4588 201.518 58.6559 188.473 59.9277C175.428 61.1996 164.933 62.0974 164.933 61.873C164.933 61.7233 175.428 60.5263 188.473 59.2544C201.443 58.0573 212.013 57.1595 212.013 57.3092Z" fill="#A42A29"/>
<path d="M212.763 65.0901C212.763 65.2398 202.268 66.4368 189.223 67.7087C176.178 68.9806 165.683 69.8784 165.683 69.7288C165.683 69.5791 176.178 68.3821 189.223 67.1102C202.268 65.8383 212.763 64.9405 212.763 65.0901Z" fill="#A42A29"/>
<path d="M191.772 74.9658C191.772 75.1155 186.149 75.7888 179.177 76.4622C172.205 77.1355 166.507 77.5844 166.507 77.4348C166.507 77.2852 172.13 76.6118 179.102 75.9385C186.074 75.2651 191.772 74.8162 191.772 74.9658Z" fill="#A42A29"/>
</g>
<defs>
<clipPath id="clip0">
<rect width="245" height="112" fill="white"/>
</clipPath>
</defs>
</svg>
