<svg width="320" height="320" viewBox="0 0 320 320" fill="none" xmlns="http://www.w3.org/2000/svg">
<path d="M34.9104 195.895C54.8956 264.216 134.289 273.04 189.35 244.241C215.592 230.523 238.224 205.196 249.743 176.825C259.232 166.173 264.96 152.7 266.048 138.476C268.575 103.927 247.296 74.5215 220.019 61.6491C193.419 49.0949 161.785 50.5075 132.677 54.9144C103.829 59.2815 76.0546 74.2529 57.6909 100.306C39.1681 126.608 25.8082 164.977 34.9104 195.895Z" fill="#F7F7F7"/>
<path d="M239.149 281.347L158.453 281.297C156.145 281.297 153.859 280.842 151.727 279.959C149.595 279.075 147.658 277.78 146.027 276.148C144.395 274.516 143.101 272.578 142.219 270.445C141.337 268.313 140.883 266.027 140.885 263.719V61.4106C140.883 59.101 141.338 56.8139 142.221 54.68C143.105 52.5461 144.4 50.6074 146.034 48.9748C147.667 47.3421 149.607 46.0476 151.741 45.1653C153.876 44.283 156.163 43.8302 158.473 43.8328H239.169C241.482 43.8328 243.771 44.2891 245.907 45.1755C248.043 46.062 249.983 47.3612 251.616 48.9988C253.249 50.6363 254.543 52.5799 255.423 54.7183C256.304 56.8567 256.753 59.1478 256.747 61.4603V263.819C256.736 268.476 254.877 272.939 251.577 276.226C248.277 279.513 243.807 281.355 239.149 281.347V281.347Z" fill="#263238"/>
<path d="M239.119 51.0347H223.481C222.97 51.045 222.466 51.1563 221.998 51.3621C221.53 51.5679 221.107 51.8643 220.754 52.2341C220.401 52.6038 220.124 53.0398 219.94 53.5169C219.756 53.9939 219.668 54.5026 219.681 55.0138V57.8489C219.694 58.3601 219.606 58.8688 219.422 59.3459C219.238 59.8229 218.962 60.2589 218.609 60.6287C218.255 60.9984 217.833 61.2948 217.365 61.5006C216.897 61.7065 216.392 61.8177 215.881 61.828H185.381C184.87 61.8164 184.367 61.7043 183.899 61.498C183.432 61.2917 183.01 60.9953 182.657 60.6258C182.304 60.2563 182.027 59.8208 181.843 59.3444C181.658 58.8679 181.569 58.3597 181.581 57.8489V54.974C181.593 54.4632 181.504 53.955 181.32 53.4785C181.135 53.0021 180.858 52.5666 180.505 52.1971C180.153 51.8276 179.73 51.5312 179.263 51.3249C178.795 51.1187 178.292 51.0065 177.781 50.9949H158.582C155.317 50.9949 152.186 52.291 149.877 54.5985C147.568 56.9059 146.269 60.0358 146.266 63.3003V260.774C146.265 262.391 146.582 263.992 147.2 265.486C147.818 266.981 148.724 268.338 149.867 269.482C151.01 270.626 152.367 271.533 153.86 272.152C155.354 272.771 156.955 273.09 158.572 273.09L239.149 273.139C242.401 273.121 245.513 271.816 247.805 269.511C250.098 267.205 251.385 264.086 251.385 260.834V63.36C251.39 60.0998 250.101 56.9708 247.802 54.6599C245.502 52.349 242.379 51.0452 239.119 51.0347Z" fill="white"/>
<path d="M241.507 70.9699C241.507 71.0295 239.468 71.0892 236.961 71.1091C234.454 71.129 232.415 71.1091 232.415 71.0494C232.415 70.9898 234.404 70.94 236.961 70.9102C239.517 70.8803 241.507 70.9201 241.507 70.9699Z" fill="#263238"/>
<path d="M241.527 73.2981C241.527 73.2981 239.488 73.4075 236.981 73.4274C234.474 73.4473 232.435 73.4274 232.435 73.4274C232.435 73.4274 234.424 73.308 236.981 73.2881C239.537 73.2682 241.527 73.2483 241.527 73.2981Z" fill="#263238"/>
<path d="M241.547 75.626C241.547 75.6757 239.507 75.7354 237 75.7553C234.494 75.7752 232.454 75.7553 232.454 75.6956C232.454 75.6359 234.444 75.5862 237 75.5663C239.557 75.5464 241.547 75.5762 241.547 75.626Z" fill="#263238"/>
<path d="M177.592 119.038H158.801V137.83H177.592V119.038Z" fill="#E7515B"/>
<path d="M213.743 121.058C213.743 121.147 207.456 121.217 199.706 121.217C191.957 121.217 185.67 121.147 185.67 121.058C185.67 120.968 191.957 120.898 199.706 120.898C207.456 120.898 213.743 120.968 213.743 121.058Z" fill="#E7515B"/>
<path d="M236.115 126.817C236.115 126.907 224.824 126.977 210.898 126.977C196.971 126.977 185.67 126.907 185.67 126.817C185.67 126.728 196.961 126.658 210.898 126.658C224.834 126.658 236.115 126.728 236.115 126.817Z" fill="#263238"/>
<path d="M235.528 130.936C235.528 131.025 224.367 131.095 210.599 131.095C196.831 131.095 185.67 131.025 185.67 130.936C185.67 130.846 196.831 130.776 210.599 130.776C224.367 130.776 235.528 130.846 235.528 130.936Z" fill="#263238"/>
<path d="M215.105 134.855C215.105 134.944 208.52 135.014 200.393 135.014C192.265 135.014 185.67 134.944 185.67 134.855C185.67 134.765 192.265 134.696 200.393 134.696C208.52 134.696 215.105 134.765 215.105 134.855Z" fill="#263238"/>
<path d="M177.592 150.344H158.801V169.135H177.592V150.344Z" fill="#E7515B"/>
<path d="M213.743 152.403C213.743 152.493 207.456 152.562 199.706 152.562C191.957 152.562 185.67 152.493 185.67 152.403C185.67 152.314 191.957 152.244 199.706 152.244C207.456 152.244 213.743 152.274 213.743 152.403Z" fill="#E7515B"/>
<path d="M236.115 158.123C236.115 158.213 224.824 158.282 210.898 158.282C196.971 158.282 185.67 158.213 185.67 158.123C185.67 158.034 196.961 157.964 210.898 157.964C224.834 157.964 236.115 158.034 236.115 158.123Z" fill="#263238"/>
<path d="M235.528 162.241C235.528 162.331 224.367 162.4 210.599 162.4C196.831 162.4 185.67 162.331 185.67 162.241C185.67 162.152 196.831 162.082 210.599 162.082C224.367 162.082 235.528 162.152 235.528 162.241Z" fill="#263238"/>
<path d="M215.105 166.161C215.105 166.25 208.52 166.32 200.393 166.32C192.265 166.32 185.67 166.25 185.67 166.161C185.67 166.071 192.265 166.001 200.393 166.001C208.52 166.001 215.105 166.071 215.105 166.161Z" fill="#263238"/>
<path d="M177.592 181.649H158.801V200.441H177.592V181.649Z" fill="#E7515B"/>
<path d="M213.743 183.669C213.743 183.758 207.456 183.828 199.706 183.828C191.957 183.828 185.67 183.758 185.67 183.669C185.67 183.579 191.957 183.51 199.706 183.51C207.456 183.51 213.743 183.579 213.743 183.669Z" fill="#E7515B"/>
<path d="M236.115 189.429C236.115 189.518 224.824 189.588 210.898 189.588C196.971 189.588 185.67 189.518 185.67 189.429C185.67 189.339 196.961 189.27 210.898 189.27C224.834 189.27 236.115 189.349 236.115 189.429Z" fill="#263238"/>
<path d="M235.528 193.547C235.528 193.637 224.367 193.706 210.599 193.706C196.831 193.706 185.67 193.637 185.67 193.547C185.67 193.458 196.831 193.388 210.599 193.388C224.367 193.388 235.528 193.458 235.528 193.547Z" fill="#263238"/>
<path d="M215.105 197.466C215.105 197.556 208.52 197.625 200.393 197.625C192.265 197.625 185.67 197.556 185.67 197.466C185.67 197.377 192.265 197.307 200.393 197.307C208.52 197.307 215.105 197.387 215.105 197.466Z" fill="#263238"/>
<path d="M177.592 212.956H158.801V231.747H177.592V212.956Z" fill="#E7515B"/>
<path d="M213.743 214.984C213.743 215.064 207.456 215.144 199.706 215.144C191.957 215.144 185.67 215.064 185.67 214.984C185.67 214.905 191.957 214.815 199.706 214.815C207.456 214.815 213.743 214.895 213.743 214.984Z" fill="#455B64"/>
<path d="M236.115 220.745C236.115 220.824 224.824 220.904 210.898 220.904C196.971 220.904 185.67 220.824 185.67 220.745C185.67 220.665 196.961 220.585 210.898 220.585C224.834 220.585 236.115 220.655 236.115 220.745Z" fill="#263238"/>
<path d="M235.528 224.853C235.528 224.942 224.367 225.012 210.599 225.012C196.831 225.012 185.67 224.942 185.67 224.853C185.67 224.763 196.831 224.694 210.599 224.694C224.367 224.694 235.528 224.763 235.528 224.853Z" fill="#263238"/>
<path d="M215.105 228.782C215.105 228.862 208.52 228.942 200.393 228.942C192.265 228.942 185.67 228.862 185.67 228.782C185.67 228.703 192.265 228.623 200.393 228.623C208.52 228.623 215.105 228.693 215.105 228.782Z" fill="#263238"/>
<path d="M177.592 244.261H158.801V263.053H177.592V244.261Z" fill="#E0E0E0"/>
<path d="M213.743 246.29C213.743 246.38 207.456 246.449 199.706 246.449C191.957 246.449 185.67 246.38 185.67 246.29C185.67 246.201 191.957 246.131 199.706 246.131C207.456 246.131 213.743 246.201 213.743 246.29Z" fill="#E0E0E0"/>
<path d="M236.115 252.05C236.115 252.14 224.824 252.209 210.898 252.209C196.971 252.209 185.67 252.14 185.67 252.05C185.67 251.961 196.961 251.891 210.898 251.891C224.834 251.891 236.115 251.961 236.115 252.05Z" fill="#EBEBEB"/>
<path d="M235.528 256.159C235.528 256.248 224.367 256.318 210.599 256.318C196.831 256.318 185.67 256.248 185.67 256.159C185.67 256.069 196.831 256 210.599 256C224.367 256 235.528 256.069 235.528 256.159Z" fill="#EBEBEB"/>
<path d="M215.105 260.088C215.105 260.178 208.52 260.247 200.393 260.247C192.265 260.247 185.67 260.178 185.67 260.088C185.67 259.999 192.265 259.929 200.393 259.929C208.52 259.929 215.105 259.999 215.105 260.088Z" fill="#EBEBEB"/>
<g opacity="0.3">
<path opacity="0.3" d="M177.592 212.956H158.801V231.747H177.592V212.956Z" fill="black"/>
</g>
<g opacity="0.3">
<path opacity="0.3" d="M177.592 150.344H158.801V169.135H177.592V150.344Z" fill="black"/>
</g>
<path d="M224.53 61.2757L175.25 67.7197L184.068 135.149L233.347 128.705L224.53 61.2757Z" fill="#F5F6F6"/>
<path d="M214.322 57.5176L165.042 63.9617L173.859 131.391L223.139 124.947L214.322 57.5176Z" fill="white"/>
<path d="M223.113 124.967L223.054 124.639C223.054 124.42 222.984 124.102 222.924 123.644C222.805 122.759 222.636 121.565 222.417 119.973C221.989 116.75 221.353 112.015 220.557 106.126C218.975 94.2681 216.777 77.4364 214.101 57.5309L214.329 57.7099L165.068 64.176L165.257 63.9174C168.54 89.1052 171.574 112.423 174.031 131.354L173.822 131.184L209.634 126.608L219.582 125.355L222.248 125.037L223.133 124.937L222.248 125.067L219.651 125.425L209.704 126.768L173.822 131.562H173.643V131.383C171.156 112.483 168.102 89.145 164.789 63.9671V63.7383H165.008L214.28 57.2722H214.479V57.4811C217.045 77.4663 219.214 94.3477 220.746 106.225C221.492 112.194 222.089 116.82 222.487 120.043C222.695 121.625 222.835 122.848 222.944 123.684L223.054 124.619C223.143 124.778 223.123 124.868 223.113 124.967Z" fill="#A42A29"/>
<path d="M196.901 73.5867C196.901 73.716 191.539 74.5218 184.964 75.3872C178.388 76.2527 172.977 76.8496 172.967 76.7203C172.957 76.5909 178.318 75.8051 184.904 74.9296C191.489 74.0542 196.911 73.4673 196.901 73.5867Z" fill="#A42A29"/>
<path d="M210.619 77.7947C210.619 77.914 202.392 79.0978 192.205 80.4209C182.019 81.7439 173.742 82.7387 173.722 82.6094C173.703 82.4801 181.959 81.3062 192.146 79.9832C202.332 78.6601 210.629 77.6355 210.619 77.7947Z" fill="#A42A29"/>
<path d="M211.445 83.8727C211.445 83.9921 203.218 85.1759 193.031 86.5089C182.845 87.8419 174.578 88.7869 174.538 88.6974C174.499 88.6079 182.765 87.3942 192.952 86.0612C203.138 84.7282 211.425 83.7633 211.445 83.8727Z" fill="#A42A29"/>
<path d="M212.25 89.9905C212.25 90.1099 204.013 91.2937 193.837 92.6267C183.66 93.9597 175.363 94.9346 175.354 94.8053C175.344 94.6759 183.57 93.5021 193.777 92.179C203.983 90.856 212.26 89.8711 212.25 89.9905Z" fill="#A42A29"/>
<path d="M213.046 96.0983C213.046 96.2177 204.819 97.4015 194.623 98.7345C184.426 100.068 176.169 101.052 176.169 100.923C176.169 100.794 184.396 99.6199 194.583 98.2869C204.769 96.9539 213.026 95.969 213.046 96.0983Z" fill="#A42A29"/>
<path d="M213.872 102.216C213.872 102.336 205.635 103.52 195.458 104.853C185.282 106.186 176.985 107.16 176.975 107.041C176.965 106.922 185.202 105.728 195.399 104.395C205.595 103.062 213.832 102.087 213.872 102.216Z" fill="#A42A29"/>
<path d="M214.638 108.324C214.638 108.444 206.411 109.628 196.224 110.961C186.038 112.294 177.771 113.278 177.781 113.159C177.791 113.04 186.008 111.846 196.204 110.513C206.401 109.18 214.628 108.195 214.638 108.324Z" fill="#A42A29"/>
<path d="M198.383 116.671C198.383 116.79 193.966 117.477 188.495 118.193C183.024 118.909 178.547 119.386 178.547 119.257C178.547 119.128 182.954 118.451 188.435 117.745C193.916 117.039 198.363 116.591 198.383 116.671Z" fill="#A42A29"/>
<path d="M304.566 280.481C304.566 287.663 185.282 300.536 134.031 300.377C81.8045 300.237 23.2318 290.707 23.2318 283.525C23.2318 276.343 68.9122 268.792 125.028 268.792C181.143 268.792 304.566 273.309 304.566 280.481Z" fill="#E0E0E0"/>
<path d="M204.501 139.61C204.432 139.61 202.949 129.305 201.208 116.591C199.468 103.878 198.105 93.5422 198.224 93.5322C198.343 93.5223 199.776 103.828 201.527 116.551C203.278 129.275 204.581 139.591 204.501 139.61Z" fill="#A42A29"/>
<path d="M247.923 83.2356C247.923 83.2356 247.923 83.2953 247.923 83.3948L247.744 83.8524L247.068 85.6032L244.561 92.0394C242.452 97.4709 239.587 104.972 236.503 113.358C233.419 121.744 230.783 129.274 228.883 134.835L226.645 141.361C226.376 142.117 226.177 142.714 226.028 143.141L225.859 143.599L225.799 143.748C225.799 143.748 225.799 143.698 225.799 143.589L225.939 143.121C226.071 142.697 226.26 142.1 226.506 141.331C227.003 139.779 227.739 137.531 228.664 134.765C230.515 129.234 233.151 121.624 236.215 113.258C239.279 104.892 242.183 97.3416 244.342 91.9698C245.416 89.264 246.332 87.0754 246.928 85.5634C247.247 84.8272 247.486 84.2503 247.655 83.8325L247.854 83.3848C247.873 83.3335 247.896 83.2836 247.923 83.2356Z" fill="#A42A29"/>
<path d="M279.04 123.773C279.04 123.833 271.549 129.742 262.208 136.954C252.867 144.166 245.247 149.986 245.197 149.886C245.148 149.787 252.688 143.918 262.039 136.695C271.39 129.473 279 123.713 279.04 123.773Z" fill="#A42A29"/>
<path d="M186.217 141.53C186.157 141.53 183.232 137.859 179.711 133.234C176.189 128.608 173.354 124.818 173.414 124.768C173.473 124.718 176.398 128.439 179.93 133.065C183.461 137.69 186.276 141.461 186.217 141.53Z" fill="#A42A29"/>
<path d="M275.488 170.558C275.488 170.637 270.843 169.354 265.173 167.693C259.502 166.031 254.906 164.639 254.926 164.569C254.946 164.499 259.572 165.773 265.242 167.434C270.912 169.095 275.508 170.488 275.488 170.558Z" fill="#A42A29"/>
<path d="M102.606 141.62C97.2238 140.625 84.3215 139.7 78.2434 143.042C78.2434 143.042 78.3429 148.553 80.7901 150.195C83.2372 151.836 103.67 138.307 112.514 159.337C112.514 159.337 112.623 143.42 102.566 141.62H102.606Z" fill="#B72F49"/>
<path d="M73.8463 230.234L69.4792 241.038C69.4792 241.038 39.4468 234.532 23.1324 239.943C16.9249 241.983 12.1102 257.362 22.6648 265.35C32.921 273.09 95.3933 284.54 94.5975 284.549C93.8016 284.559 112.414 284.927 112.414 284.927L114.404 268.195L149.032 268.822C175.264 266.335 176.309 239.824 162.66 236.77C147.291 233.338 123.804 231.796 123.804 231.796L120.074 223.38L73.8463 230.234Z" fill="#8B383F"/>
<path d="M110.086 215.741C109.963 216.016 109.813 216.28 109.639 216.527C109.204 217.22 108.726 217.884 108.206 218.516C107.439 219.476 106.608 220.383 105.719 221.232C103.542 223.306 101.043 225.013 98.3182 226.285C97.2116 226.813 96.0678 227.258 94.8961 227.618C94.1102 227.87 93.3096 228.073 92.4987 228.225C92.2065 228.304 91.9059 228.348 91.6034 228.355C91.6034 228.285 92.8568 228.046 94.8165 227.36C95.96 226.965 97.0793 226.503 98.1689 225.977C99.5024 225.325 100.789 224.58 102.019 223.749C103.247 222.92 104.423 222.016 105.54 221.043C106.429 220.22 107.266 219.343 108.047 218.417C109.34 216.795 110.027 215.701 110.086 215.741Z" fill="#263238"/>
<path d="M123.943 221.739C123.943 221.848 122.7 222.027 121.267 222.604C119.835 223.181 118.79 223.908 118.721 223.818C119.378 223.104 120.207 222.57 121.128 222.266C122.005 221.85 122.975 221.669 123.943 221.739V221.739Z" fill="#263238"/>
<g opacity="0.3">
<path opacity="0.3" d="M94.7967 227.559C100.73 225.602 105.802 221.651 109.151 216.377C109.669 217.437 109.884 218.619 109.773 219.793C109.663 220.967 109.231 222.088 108.525 223.032C110.415 223.629 112.424 222.784 114.334 222.246C116.244 221.709 118.671 221.64 119.835 223.241C111.234 225.261 102.512 226.723 93.7223 227.618" fill="black"/>
</g>
<path d="M190.873 134.825C190.769 134.634 190.627 134.467 190.456 134.334C190.285 134.2 190.088 134.103 189.878 134.049L190.445 132.537C190.344 132.037 190.148 131.561 189.868 131.134C189.46 130.567 188.236 130.746 188.236 130.746L188.376 130.329C188.495 130.032 188.533 129.708 188.486 129.392C188.438 129.075 188.308 128.777 188.107 128.528L187.898 128.309C187.426 127.94 186.854 127.722 186.257 127.682C186.257 127.682 186.854 126.24 186.446 125.693C184.964 123.843 179.93 127.812 178.866 128.269C176.359 129.354 178.478 129.543 176.438 130.488C176.283 130.583 176.11 130.646 175.929 130.673C175.749 130.701 175.565 130.692 175.388 130.648C175.211 130.603 175.045 130.524 174.899 130.414C174.753 130.305 174.63 130.168 174.538 130.01C173.728 128.278 172.651 126.683 171.345 125.285C169.853 123.833 168.629 124.091 167.933 124.449C167.855 124.49 167.787 124.546 167.734 124.616C167.68 124.685 167.643 124.765 167.624 124.851C167.605 124.936 167.605 125.024 167.624 125.11C167.643 125.195 167.681 125.275 167.734 125.345C168.561 126.39 169.322 127.487 170.012 128.628C170.46 129.513 171.574 136.397 171.574 136.397L170.062 140.217L154.096 172.537C154.096 172.537 123.088 156.103 123.148 155.626L124.143 178.138L147.49 190.304C149.49 191.349 151.695 191.944 153.95 192.045C156.204 192.147 158.454 191.754 160.54 190.893C162.626 190.032 164.498 188.724 166.024 187.062C167.551 185.4 168.695 183.423 169.375 181.271L177.732 149.001L179.234 146.205L190.574 138.794C190.968 138.217 191.203 137.546 191.255 136.85C191.308 136.153 191.176 135.455 190.873 134.825V134.825Z" fill="#8F5045"/>
<path d="M184.725 128.797C184.367 129.075 183.959 129.304 183.591 129.563L182.457 130.349C181.999 130.667 181.522 130.965 181.054 131.264C180.778 131.289 180.513 131.389 180.288 131.552C180.023 131.733 179.777 131.94 179.552 132.169L179.473 132.259H179.373L179.184 132.139H179.115L179.055 132.09L178.896 131.93L178.796 131.811V131.741L178.647 131.602C178.647 131.602 178.647 131.602 178.597 131.602C178.564 131.576 178.527 131.556 178.488 131.542C178.469 131.533 178.449 131.528 178.428 131.528C178.407 131.528 178.387 131.533 178.368 131.542C178.368 131.542 178.309 131.592 178.289 131.632C178.247 131.715 178.225 131.807 178.225 131.901C178.225 131.994 178.247 132.086 178.289 132.169C178.308 132.221 178.331 132.271 178.358 132.318C178.388 132.373 178.425 132.423 178.468 132.468C178.509 132.519 178.556 132.566 178.607 132.607L178.836 132.776C178.913 132.824 178.997 132.86 179.085 132.885H179.174C178.917 133.23 178.716 133.613 178.577 134.019C178.462 134.32 178.437 134.647 178.504 134.961C178.571 135.275 178.728 135.563 178.955 135.79C179.148 135.986 179.4 136.112 179.672 136.148C179.766 136.173 179.866 136.173 179.96 136.148C180.016 136.13 180.067 136.1 180.109 136.059H180.05C180.184 136.008 180.294 135.909 180.358 135.78C180.373 135.756 180.382 135.728 180.384 135.699C180.385 135.67 180.38 135.641 180.368 135.615C180.357 135.588 180.339 135.565 180.316 135.547C180.294 135.529 180.267 135.517 180.239 135.512H180.01C179.864 135.476 179.721 135.429 179.582 135.372C179.44 135.295 179.328 135.172 179.264 135.024C179.201 134.796 179.19 134.557 179.233 134.324C179.277 134.091 179.372 133.872 179.512 133.681C179.753 133.272 180.047 132.897 180.388 132.567C180.567 132.398 180.736 132.239 180.925 132.08C181.031 131.995 181.131 131.901 181.223 131.801C181.768 131.499 182.296 131.166 182.805 130.806C183.173 130.558 183.521 130.279 183.87 129.991C184.218 129.702 184.526 129.314 184.864 128.996C184.805 128.827 184.765 128.777 184.725 128.797Z" fill="#703E38"/>
<path d="M186.634 131.781C186.16 131.963 185.721 132.229 185.341 132.567L184.048 133.562C183.63 133.87 183.202 134.159 182.795 134.467C182.387 134.776 182.019 135.134 181.641 135.462C181.641 135.462 181.641 135.542 181.641 135.532C182.129 135.373 182.605 135.177 183.063 134.945C183.531 134.69 183.986 134.411 184.426 134.109C184.864 133.821 185.291 133.532 185.709 133.234C186.173 132.955 186.573 132.582 186.883 132.139C186.907 132.1 186.919 132.054 186.917 132.008C186.916 131.962 186.901 131.918 186.875 131.88C186.849 131.842 186.812 131.812 186.769 131.795C186.727 131.777 186.68 131.773 186.634 131.781V131.781Z" fill="#703E38"/>
<path d="M188.485 135.183C188.265 135.227 188.06 135.327 187.888 135.472C187.659 135.621 187.43 135.78 187.212 135.949L185.859 136.944C184.943 137.591 183.969 138.148 183.093 138.844C182.776 139.009 182.443 139.139 182.098 139.232C181.658 139.332 181.195 139.261 180.805 139.033C180.627 138.936 180.478 138.792 180.374 138.617C180.271 138.442 180.217 138.242 180.218 138.038C180.24 137.796 180.308 137.559 180.417 137.342C180.537 137.113 180.636 136.874 180.775 136.655C180.775 136.655 180.775 136.596 180.726 136.655C180.521 136.854 180.335 137.071 180.169 137.302C180.014 137.543 179.916 137.814 179.88 138.098C179.867 138.343 179.919 138.587 180.028 138.807C180.138 139.027 180.303 139.214 180.507 139.351C180.898 139.625 181.373 139.755 181.85 139.719C181.739 139.808 181.645 139.916 181.571 140.038C181.411 140.332 181.351 140.671 181.399 141.003C181.448 141.334 181.602 141.641 181.84 141.878C182.116 142.153 182.459 142.352 182.835 142.455C183.066 142.508 183.303 142.532 183.541 142.525C183.78 142.525 184.128 142.525 184.227 142.256C184.256 142.217 184.271 142.17 184.271 142.122C184.271 142.074 184.256 142.027 184.227 141.987C184.068 141.828 183.879 141.878 183.68 141.898C183.518 141.913 183.355 141.913 183.193 141.898C182.893 141.892 182.6 141.813 182.337 141.669C182.125 141.523 181.966 141.312 181.884 141.069C181.801 140.825 181.8 140.561 181.88 140.316C181.965 140.052 182.133 139.823 182.357 139.66V139.66C182.823 139.569 183.266 139.386 183.66 139.122C184.589 138.679 185.466 138.135 186.276 137.501C186.724 137.173 187.152 136.825 187.57 136.506C187.798 136.322 188.011 136.119 188.206 135.899C188.394 135.745 188.535 135.542 188.614 135.312C188.614 135.312 188.515 135.173 188.485 135.183Z" fill="#703E38"/>
<path d="M83.7545 147.449L74.1549 150.582L81.0189 168.429L98.7956 170.319L109.818 160.59L110.385 150.284L99.7506 147.508L83.7545 147.449Z" fill="#D0D8DC"/>
<path d="M76.9799 149.518C76.9799 149.518 85.6743 168.101 97.7609 165.017C109.847 161.933 107.53 149.538 107.53 149.538C107.53 149.538 120.76 152.075 125.157 155.815C129.554 159.555 128.201 168.827 128.201 168.827L126.61 185.509L122.71 217.561C122.71 217.561 127.684 229.717 120.85 232.582L107.918 236.323L76.6914 238.561C76.6914 238.561 66.7436 242.54 63.4907 239.198C60.2377 235.855 56.7958 229.16 56.7958 229.16L68.3551 152.761L76.9799 149.518Z" fill="#D0D8DC"/>
<path d="M121.516 153.706C121.874 153.865 153.916 172.328 153.916 172.328L169.594 139.68C169.992 144.335 175.075 150.214 179.79 148.205C179.79 148.205 166.689 203.027 158.552 200.729C156.234 200.083 123.545 184.117 123.545 184.117L116.403 172.299L121.516 153.706Z" fill="#D0D8DC"/>
<g opacity="0.3">
<path opacity="0.3" d="M77 201.366C75.1165 196.571 73.243 191.78 71.3795 186.992C71.1009 186.295 70.6831 185.479 69.937 185.43C69.5859 185.447 69.2547 185.598 69.0108 185.851C68.7669 186.104 68.6285 186.441 68.6239 186.793C68.5871 187.517 68.6507 188.244 68.8129 188.951C69.4695 192.135 69.9569 194.293 71.7177 196.621C75.1497 201.157 73.4784 203.714 73.4784 203.714C74.334 209.603 74.6921 217.71 73.4784 223.977L75.9952 231.11C77.0597 225.49 80.3424 220.555 80.3723 214.835C80.422 210.18 78.6811 205.703 77 201.366Z" fill="black"/>
</g>
<g opacity="0.3">
<path opacity="0.3" d="M126.59 185.608C131.673 187.598 136.319 190.582 141.303 192.791C139.035 188.97 135.664 185.925 131.633 184.057C130.6 183.53 129.425 183.349 128.281 183.539C127.157 183.818 126.411 184.534 126.699 185.658" fill="black"/>
</g>
<g opacity="0.3">
<path opacity="0.3" d="M153.061 172.08C151.419 172.219 150.335 173.841 149.679 175.363C147.836 179.685 147.404 184.479 148.445 189.061C148.634 189.886 149.042 190.851 149.888 190.921C150.191 190.922 150.487 190.826 150.732 190.647C150.978 190.469 151.159 190.216 151.25 189.926C151.416 189.337 151.443 188.717 151.33 188.116C151.022 185.291 150.226 182.983 150.644 179.65C151.116 177.032 151.929 174.487 153.061 172.08Z" fill="black"/>
</g>
<path d="M102.964 136.904L100.666 152.91C100.666 152.91 91.9116 159.297 81.556 149.926C82.9794 142.467 82.2266 134.755 79.3873 127.712C79.3873 127.712 80.8497 127.643 83.1774 127.712C83.1774 127.712 86.7587 139.411 102.964 136.954V136.904Z" fill="#703E38"/>
<path d="M77.5372 117.406C79.8251 141.192 103.043 142.186 108.027 132.786C109.629 129.801 110.842 124.449 111.31 118.739C111.429 117.446 111.499 116.143 111.519 114.83C111.688 105.946 109.897 97.1725 104.744 95.3421C86.8384 88.9656 75.2591 93.6212 77.5372 117.406V117.406Z" fill="#8F5045"/>
<path d="M112.135 96.9936C112.941 95.3224 112.135 92.8752 109.967 92.6663L109.907 92.547C110.104 91.8188 110.022 91.0434 109.678 90.3721C109.334 89.7008 108.753 89.1817 108.047 88.916V88.8563C108.104 88.8694 108.158 88.893 108.206 88.926L108.037 88.8165C108.027 88.4271 107.936 88.044 107.77 87.6919C107.603 87.3398 107.364 87.0267 107.069 86.7726C106.774 86.5186 106.428 86.3293 106.055 86.217C105.682 86.1047 105.29 86.0719 104.903 86.1207C104.67 86.1472 104.44 86.1971 104.217 86.2699C103.942 85.8486 103.553 85.5144 103.095 85.3065C102.636 85.0986 102.129 85.0256 101.63 85.0961C101.416 85.1143 101.206 85.1611 101.004 85.2353C100.71 84.9706 100.362 84.7736 99.9837 84.6584C99.6055 84.5432 99.2066 84.5126 98.8153 84.5688C98.6025 84.5908 98.3926 84.6341 98.1885 84.6981C97.6175 84.2804 96.9128 84.087 96.2085 84.1549C95.5042 84.2227 94.8494 84.5471 94.3686 85.0662C94.0801 84.6941 93.6974 84.4058 93.2603 84.2309C92.8231 84.056 92.3472 84.001 91.8816 84.0714C91.3764 84.1162 90.8923 84.2948 90.479 84.5887C90.1956 84.3607 89.8683 84.1935 89.5174 84.0977C89.1665 84.0018 88.7996 83.9793 88.4397 84.0316C87.8383 84.0755 87.2683 84.3168 86.8182 84.718C86.347 84.5089 85.8274 84.4332 85.3161 84.4992C85.0708 84.529 84.8303 84.5891 84.5998 84.6782C84.0979 84.4641 83.5469 84.3917 83.0067 84.4689C82.4665 84.546 81.9578 84.7698 81.5359 85.116C81.0943 84.926 80.611 84.854 80.1333 84.907C79.5389 84.9457 78.9749 85.1838 78.5326 85.5827C78.0903 85.9817 77.7956 86.5182 77.6961 87.1055H77.6165C77.2546 87.1343 76.9019 87.2346 76.579 87.4005C76.2561 87.5665 75.9693 87.7949 75.7352 88.0724C75.5012 88.35 75.3245 88.6712 75.2154 89.0175C75.1063 89.3638 75.067 89.7283 75.0997 90.0899C74.6794 89.9392 74.2291 89.8915 73.7866 89.9506C73.3406 89.9977 72.912 90.1492 72.5354 90.3928C72.1589 90.6364 71.8451 90.9653 71.6193 91.3528C71.3936 91.7403 71.2623 92.1756 71.2362 92.6233C71.21 93.071 71.2897 93.5185 71.4687 93.9297H71.3195C70.9007 93.9686 70.4958 94.1005 70.1344 94.3158C69.773 94.5311 69.4643 94.8243 69.2307 95.1742C68.9972 95.5241 68.8447 95.9217 68.7844 96.338C68.7241 96.7543 68.7576 97.1788 68.8823 97.5806C66.6639 98.3863 66.6142 101.45 68.2556 102.704C67.617 103.197 67.1955 103.919 67.0804 104.717C66.9652 105.516 67.1655 106.328 67.6388 106.981C67.5589 107.472 67.5926 107.975 67.7375 108.451C67.8823 108.927 68.1345 109.364 68.4744 109.727C68.1341 110.388 68.0353 111.148 68.1951 111.874C68.3549 112.601 68.7633 113.248 69.3499 113.706C70.5038 121.236 74.1944 128.757 81.8443 132.895L80.3223 127.573C80.3223 127.573 77.129 122.947 77.8154 119.466C78.5018 115.984 80.6406 118.471 80.6406 118.471C80.6406 118.471 85.1271 109.14 84.5203 103.38L83.9035 97.6203C83.9035 97.6203 100.626 91.8805 108.922 99.3513L109.131 99.2916C109.158 99.5673 109.24 99.8348 109.373 100.078C109.506 100.321 109.686 100.535 109.904 100.707C110.121 100.879 110.371 101.005 110.638 101.078C110.905 101.151 111.184 101.169 111.459 101.132C113.846 100.953 113.876 97.7994 112.135 96.9936Z" fill="#0E3944"/>
<path d="M80.0342 117.307C80.0342 117.307 76.0551 112.81 72.5336 115.645C69.0121 118.481 75.1399 126.757 79.0196 126.389C82.8992 126.021 80.0143 117.307 80.0143 117.307H80.0342Z" fill="#8F5045"/>
<path d="M80.3919 269.29C80.3919 269.29 54.1894 277.149 52.737 277.656C43.6745 280.849 50.0212 298.845 67.3802 293.891C70.6231 293.234 92.7172 286.31 92.7172 286.31L80.3919 269.29Z" fill="#0E3944"/>
<path d="M68.7334 284.709C68.4947 283.973 68.236 283.246 67.9476 282.53C67.6591 281.814 67.3606 281.157 67.0324 280.481C66.7735 279.793 66.3294 279.191 65.7491 278.74C65.7166 278.718 65.6792 278.704 65.6401 278.7C65.601 278.696 65.5616 278.701 65.5252 278.716C65.4887 278.731 65.4565 278.754 65.4314 278.785C65.4063 278.815 65.389 278.851 65.381 278.889C65.3558 279.596 65.499 280.298 65.7988 280.939C66.0376 281.645 66.2763 282.361 66.5051 283.077C66.7339 283.794 66.9528 284.5 67.1716 285.226C67.2607 285.987 67.5566 286.71 68.0271 287.315C68.1117 287.381 68.2108 287.426 68.3163 287.446C68.4217 287.467 68.5304 287.461 68.6334 287.431C68.7365 287.401 68.8309 287.347 68.9088 287.273C68.9867 287.199 69.046 287.108 69.0816 287.007V287.007C69.2031 286.223 69.0816 285.421 68.7334 284.709V284.709Z" fill="#D0D8DC"/>
<path d="M74.5528 284.49C73.9858 283.376 73.4585 282.242 72.9413 281.108C72.6826 280.551 72.424 279.993 72.1454 279.446C71.8669 278.899 71.648 278.263 71.091 278.113L70.9716 277.984C70.892 277.885 70.6831 277.914 70.6831 278.064C70.6831 278.213 70.5538 278.362 70.5239 278.551C70.5093 278.69 70.5093 278.83 70.5239 278.969C70.5786 279.307 70.6618 279.64 70.7726 279.964C70.9417 280.551 71.1506 281.128 71.3695 281.704C71.847 282.888 72.3643 284.032 72.9512 285.176C73.009 285.317 73.1033 285.44 73.2244 285.532C73.3454 285.624 73.4888 285.682 73.6398 285.7C73.7908 285.718 73.944 285.696 74.0834 285.636C74.2229 285.575 74.3438 285.478 74.4334 285.355C74.5323 285.237 74.5959 285.093 74.617 284.94C74.6381 284.787 74.6158 284.631 74.5528 284.49V284.49Z" fill="#D0D8DC"/>
<path d="M113.349 267.628C113.349 267.628 140.536 268.096 142.048 268.046C151.001 267.788 153.707 282.859 139.591 283.863C136.338 284.092 109.35 284.749 109.35 284.749L113.349 267.628Z" fill="#0E3944"/>
<path d="M120.402 272.453C120.389 272.383 120.357 272.318 120.308 272.266C120.26 272.214 120.198 272.176 120.13 272.157C120.061 272.139 119.989 272.14 119.921 272.16C119.853 272.181 119.792 272.22 119.746 272.274C119.548 272.579 119.404 272.915 119.318 273.268C119.208 273.656 119.099 274.044 119.009 274.432C118.81 275.198 118.661 275.974 118.532 276.75C118.375 277.515 118.272 278.289 118.224 279.068C118.224 279.884 119.139 280.739 119.905 280.132C120.017 280.046 120.104 279.932 120.156 279.8C120.209 279.669 120.225 279.526 120.203 279.386C120.179 279.256 120.124 279.134 120.044 279.028C120.211 278.062 120.304 277.084 120.322 276.104L120.412 274.303C120.412 274.094 120.412 273.885 120.412 273.676C120.484 273.271 120.48 272.857 120.402 272.453V272.453Z" fill="#D0D8DC"/>
<path d="M125.555 272.772C125.522 272.69 125.479 272.613 125.426 272.543C125.416 272.535 125.404 272.531 125.391 272.531C125.379 272.531 125.366 272.535 125.356 272.543C124.928 273.016 124.681 273.626 124.66 274.264C124.531 274.91 124.461 275.567 124.391 276.253C124.172 277.602 124.055 278.965 124.043 280.332C124.043 281.187 125.466 281.168 125.535 280.332C125.535 280.332 125.535 280.242 125.535 280.193C125.59 280.131 125.633 280.06 125.665 279.984C125.773 279.643 125.817 279.286 125.794 278.929C125.794 278.601 125.794 278.263 125.794 277.934C125.794 277.298 125.873 276.661 125.933 276.024C125.993 275.388 126.063 274.751 126.122 274.114C126.182 273.647 126.162 272.772 125.555 272.772Z" fill="#D0D8DC"/>
<path d="M133.881 196.969C136.528 202.062 136.866 215.372 135.364 219.063C133.633 223.241 123.506 222.614 123.506 222.614C123.506 222.614 119.964 189.359 116.473 172.647C112.981 155.934 104.446 146.285 104.446 146.285C104.446 146.285 122.262 144.942 126.052 154.522C127.914 159.072 128.694 163.993 128.331 168.896C128.268 169.716 128.149 170.53 127.972 171.333H128.122C128.709 171.333 130.758 172.03 132.926 178.944C135.493 187.111 132.668 195.397 132.668 195.397C133.18 195.832 133.594 196.371 133.881 196.979V196.969Z" fill="#EF4153"/>
<path d="M113.061 161.356C113.061 161.356 114.951 150.851 110.753 146.434C106.555 142.018 102.506 141.659 102.506 141.659C102.506 141.659 107.948 145.788 108.952 148.782C109.957 151.776 113.061 161.356 113.061 161.356Z" fill="#CE374C"/>
<path d="M117.557 172.517C121.328 171.931 124.971 170.707 128.33 168.896C128.268 169.716 128.149 170.531 127.972 171.334C127.972 171.334 121.367 172.955 117.557 172.517Z" fill="#CE374C"/>
<path d="M133.881 196.969C130.25 197.599 126.561 197.836 122.879 197.675C122.879 197.675 129.982 196.949 132.668 195.387C133.18 195.822 133.594 196.362 133.881 196.969V196.969Z" fill="#CE374C"/>
<path d="M90.2505 161.933C90.2505 161.933 92.3395 150.99 90.9468 147.757C89.5541 144.524 78.721 142.027 77.8655 143.152C77.0099 144.276 76.2738 147.379 77.7063 150.851C77.7063 150.851 84.2917 151.12 90.2505 161.933V161.933Z" fill="#CE374C"/>
<path d="M102.605 141.619L101.362 148.105C105.63 149.368 109.678 152.562 112.513 159.336C112.513 159.336 112.623 143.42 102.566 141.619H102.605Z" fill="#B72F49"/>
<path d="M97.8505 191.807C100.785 219.75 93.9808 229.071 93.9808 229.071C93.9808 229.071 73.7171 234.045 69.539 230.374C65.3609 226.703 67.5494 213.264 67.5494 213.264C66.7093 211.673 65.9522 210.039 65.2813 208.37V208.37C64.7641 207.126 64.207 205.684 63.6897 204.122C63.1724 202.56 62.6949 200.909 62.3069 199.198C61.5047 195.856 61.6459 192.357 62.7148 189.091C62.9588 188.283 63.2925 187.506 63.7096 186.773C63.7096 186.773 57.9299 171.016 58.8551 163.634C59.0419 162.088 59.5648 160.6 60.387 159.277C64.8337 151.946 76.9004 149.528 76.9004 149.528C80.4219 150.066 90.5189 154.801 94.4483 171.752L97.8505 191.807Z" fill="#EF4153"/>
<path d="M90.7082 176.437C88.0721 180.794 69.7283 183.082 69.7283 183.082C69.7283 183.082 59.6412 202.222 68.9822 206.718C78.1541 211.125 93.036 205.594 93.5832 205.395C90.5192 208.548 69.5791 212.836 65.3314 208.379C65.1351 208.182 64.9736 207.954 64.8539 207.703C64.3389 206.564 63.9712 205.364 63.7596 204.132C62.9673 199.162 62.6343 194.131 62.7649 189.1C63.0088 188.293 63.3425 187.516 63.7596 186.783C63.7596 186.783 57.98 171.025 58.9051 163.644C59.092 162.097 59.6148 160.61 60.4371 159.287C71.3797 158.292 74.5331 178.297 74.5331 178.297C77.6866 179.043 90.6784 176.457 90.6784 176.457L90.7082 176.437Z" fill="#CE374C"/>
<path d="M87.7733 269.906L83.0282 262.048L70.9117 217.153C70.9117 217.153 61.71 212.508 54.9953 224.117C54.7267 224.584 66.8033 256.556 70.1657 265.45L71.0311 274.075C71.0311 274.075 71.0311 284.351 71.628 285.216C72.1093 285.823 72.755 286.279 73.4882 286.529C73.4574 286.892 73.5068 287.258 73.6328 287.6C73.7588 287.941 73.9584 288.252 74.2175 288.508C74.4765 288.764 74.7888 288.96 75.132 289.082C75.4753 289.205 75.8413 289.25 76.204 289.215C76.204 289.215 76.6118 292.02 78.7705 291.513C79.3596 291.405 79.9186 291.171 80.4095 290.828C80.9004 290.484 81.3117 290.04 81.6156 289.523C81.6156 289.523 81.8046 293.105 83.7046 292.617C85.6047 292.13 85.8434 290.578 86.1717 290.051C86.5 289.523 86.6193 284.241 86.6193 284.241L86.1219 275.567L91.3445 279.357C92.8268 280.003 94.9854 280.779 96.1394 279.635L87.7733 269.906Z" fill="#8F5045"/>
<path d="M60.4471 160.829C52.4292 164.281 52.0313 207.693 51.9418 217.531C51.9418 217.531 67.4504 261.063 68.3855 263.49C70.0468 267.827 83.6653 259.511 83.6653 259.511L71.1908 215.512L70.0567 184.236C70.0567 184.236 72.1856 174.407 68.6342 167.394C65.0828 160.381 60.4471 160.829 60.4471 160.829Z" fill="#D0D8DC"/>
<path d="M275.319 159.943H152.215C150.257 159.943 148.38 160.721 146.996 162.105C145.611 163.49 144.834 165.367 144.834 167.325V216.517C144.836 218.472 145.615 220.347 146.999 221.729C148.383 223.112 150.259 223.888 152.215 223.888H275.319C277.275 223.888 279.151 223.112 280.535 221.729C281.919 220.347 282.698 218.472 282.7 216.517V167.325C282.7 165.367 281.923 163.49 280.539 162.105C279.154 160.721 277.277 159.943 275.319 159.943Z" fill="#FAFBFB"/>
<path d="M275.319 159.944L177.592 160.073H153.16C152.156 160.016 151.149 160.117 150.176 160.371C149.216 160.65 148.327 161.132 147.57 161.784C146.808 162.427 146.188 163.222 145.749 164.118C145.311 165.013 145.064 165.99 145.023 166.987V179.262V203.694V215.91C144.952 216.899 145.083 217.893 145.407 218.83C145.732 219.767 146.245 220.629 146.913 221.361C147.581 222.088 148.393 222.669 149.297 223.066C150.201 223.463 151.178 223.669 152.165 223.669L249.893 223.789H274.325C275.329 223.843 276.335 223.742 277.309 223.49C278.277 223.209 279.175 222.728 279.945 222.078C280.717 221.425 281.346 220.62 281.791 219.713C282.236 218.805 282.488 217.815 282.532 216.805V204.599V180.168V167.962C282.605 166.944 282.471 165.922 282.138 164.957C281.804 163.993 281.278 163.106 280.592 162.351C279.922 161.613 279.11 161.019 278.203 160.605C277.297 160.191 276.316 159.966 275.319 159.944V159.944ZM275.319 159.944C276.343 159.945 277.355 160.158 278.292 160.571C279.228 160.984 280.069 161.586 280.761 162.341C281.454 163.095 281.988 163.982 282.33 164.948C282.672 165.914 282.815 166.939 282.75 167.962V180.178V204.609V216.825C282.708 217.857 282.451 218.869 281.998 219.797C281.544 220.725 280.902 221.549 280.114 222.217C279.328 222.886 278.409 223.381 277.418 223.669C276.423 223.935 275.392 224.04 274.364 223.978H249.933L152.205 224.107C151.149 224.103 150.105 223.881 149.139 223.453C148.173 223.024 147.307 222.4 146.595 221.62C145.893 220.841 145.355 219.929 145.014 218.937C144.672 217.946 144.533 216.896 144.605 215.85V203.664V179.232V167.007C144.647 165.963 144.907 164.94 145.368 164.003C145.829 163.066 146.48 162.236 147.281 161.565C148.075 160.886 149.004 160.384 150.007 160.093C151.009 159.831 152.047 159.73 153.081 159.794H177.512L275.319 159.944Z" fill="#A42A29"/>
<path d="M268.426 185.798C268.426 186.046 244.402 186.235 214.777 186.235C185.153 186.235 161.119 186.046 161.119 185.798C161.119 185.549 185.133 185.37 214.777 185.37C244.422 185.37 268.426 185.559 268.426 185.798Z" fill="#A42A29"/>
<path d="M268.426 193.398C268.426 193.647 244.402 193.836 214.777 193.836C185.153 193.836 161.119 193.647 161.119 193.398C161.119 193.149 185.133 192.97 214.777 192.97C244.422 192.97 268.426 193.189 268.426 193.398Z" fill="#A42A29"/>
<path d="M217.822 201.028C217.086 201.154 216.34 201.211 215.593 201.197L209.515 201.326C204.392 201.406 197.299 201.455 189.47 201.455C181.641 201.455 174.549 201.406 169.425 201.326L163.347 201.197C162.601 201.211 161.855 201.154 161.119 201.028C161.854 200.895 162.601 200.838 163.347 200.858L169.425 200.719C174.559 200.64 181.641 200.59 189.47 200.59C197.299 200.59 204.392 200.64 209.515 200.719L215.593 200.858C216.34 200.838 217.087 200.895 217.822 201.028V201.028Z" fill="#A42A29"/>
<path d="M266.695 206.997C266.884 207.156 264.566 210.12 261.542 213.612L259.94 215.422L259.632 215.771L259.323 215.442C256.976 212.906 255.344 210.986 255.503 210.856C255.663 210.727 257.493 212.408 259.92 214.835H259.313C259.821 214.239 260.308 213.622 260.885 212.995C263.869 209.553 266.476 206.847 266.695 206.997Z" fill="#A42A29"/>
<path d="M271.4 206.996C271.579 207.156 269.788 209.523 267.421 212.289C266.376 213.482 265.431 214.567 264.615 215.373L264.337 215.661L264.108 215.383C263.163 214.209 262.616 213.393 262.715 213.333C262.815 213.274 263.541 213.861 264.605 214.925H264.108C264.794 214.04 265.719 212.935 266.764 211.712C269.132 208.956 271.221 206.847 271.4 206.996Z" fill="#A42A29"/>
<path d="M227.391 152.095C225.992 149.708 224.006 147.718 221.621 146.315L221.442 146.205L217.572 144.574L213.255 143.997C211.768 144.096 210.289 144.296 208.828 144.594L207.833 144.803L207.386 144.942C207.109 145.01 206.837 145.093 206.57 145.191L205.903 145.449C205.655 145.549 205.416 145.648 205.177 145.768L204.441 146.176C204.302 146.265 204.153 146.325 204.013 146.414C201.667 147.832 199.701 149.798 198.283 152.144C198.194 152.294 198.124 152.433 198.045 152.582C197.965 152.731 197.766 153.06 197.637 153.308C197.508 153.557 197.418 153.796 197.319 154.034C197.219 154.273 197.13 154.472 197.05 154.701C196.97 154.93 196.881 155.248 196.801 155.517C196.722 155.785 196.712 155.815 196.672 155.964V156.183C196.535 156.812 196.449 157.451 196.413 158.093C196.278 158.722 196.192 159.361 196.155 160.003V160.212C196.155 160.302 196.155 160.391 196.155 160.481C196.123 161.79 196.301 163.097 196.682 164.35C196.682 164.35 196.682 164.35 196.682 164.41C196.676 164.426 196.676 164.444 196.682 164.46V164.529C197.055 165.841 197.59 167.1 198.274 168.28C199.312 170.054 200.684 171.611 202.312 172.866C202.68 173.154 203.068 173.393 203.456 173.642C203.645 173.761 203.814 173.9 204.003 174.01C205.2 174.704 206.48 175.243 207.813 175.611L208.808 175.82C209.465 175.956 210.129 176.049 210.798 176.099H211.017C213.867 176.481 216.768 176.1 219.423 174.994C220.176 174.803 220.892 174.487 221.541 174.059C223.926 172.66 225.912 170.674 227.311 168.29C228.751 165.825 229.509 163.022 229.509 160.167C229.509 157.313 228.751 154.51 227.311 152.045L227.391 152.095Z" fill="#EBEBEB"/>
<path d="M227.391 152.095C226.674 150.878 225.802 149.761 224.795 148.772C223.786 147.788 222.656 146.935 221.432 146.235V146.235L217.553 144.614L213.235 144.067C211.632 144.191 210.04 144.43 208.47 144.783C208.076 144.857 207.687 144.956 207.307 145.081C206.925 145.19 206.55 145.319 206.182 145.469C205.446 145.775 204.734 146.137 204.054 146.554C202.871 147.209 201.805 148.056 200.9 149.06C199.915 149.98 199.088 151.055 198.453 152.244V152.244L197.975 153.139C197.815 153.439 197.672 153.748 197.548 154.064C197.411 154.388 197.295 154.72 197.2 155.059L196.911 156.054V156.273L196.662 158.133V158.183L196.414 160.053V160.262C196.414 160.63 196.414 160.978 196.414 161.326C196.414 161.674 196.463 162.032 196.513 162.381C196.603 163.072 196.753 163.754 196.961 164.42V164.42V164.48C197.514 166.415 198.428 168.227 199.657 169.821C200.263 170.625 200.95 171.365 201.706 172.03C202.476 172.677 203.29 173.268 204.143 173.801V173.801C205.32 174.483 206.576 175.018 207.883 175.392V175.392L208.699 175.561C208.969 175.618 209.241 175.661 209.515 175.691L211.146 175.929H211.196C212.567 176.303 214.013 176.303 215.384 175.929H215.444C216.834 175.951 218.206 175.608 219.423 174.935C220.514 174.625 221.542 174.123 222.457 173.452C225.828 171.19 228.21 167.728 229.119 163.772C230.028 159.815 229.396 155.661 227.351 152.154L227.391 152.095ZM227.391 152.095C228.563 154.088 229.292 156.31 229.531 158.609C229.77 160.909 229.511 163.233 228.774 165.425C228.04 167.624 226.846 169.641 225.272 171.344C224.481 172.191 223.604 172.955 222.656 173.622C221.723 174.327 220.672 174.863 219.552 175.203V175.203C218.289 175.961 216.847 176.366 215.374 176.377H215.424C213.975 176.77 212.447 176.77 210.997 176.377V176.377L209.316 176.158C209.037 176.109 208.749 176.089 208.48 176.029L207.665 175.87C206.306 175.5 205.002 174.955 203.785 174.248V174.248C202.903 173.694 202.056 173.086 201.248 172.428C200.463 171.74 199.746 170.977 199.109 170.15C197.82 168.5 196.873 166.609 196.324 164.589V164.589V164.529C196.113 163.827 195.96 163.108 195.867 162.381C195.817 162.018 195.787 161.652 195.777 161.286C195.777 160.918 195.777 160.55 195.777 160.192V159.973L196.046 157.984V158.033L196.314 156.044V155.825L196.623 154.83C196.722 154.492 196.871 154.174 197.001 153.835C197.14 153.513 197.296 153.197 197.468 152.89L197.985 151.965C198.665 150.747 199.539 149.649 200.572 148.712V148.712C201.52 147.694 202.633 146.843 203.865 146.195V146.195C204.566 145.776 205.301 145.417 206.063 145.121C206.443 144.973 206.832 144.847 207.227 144.743C207.611 144.622 208.003 144.529 208.401 144.465C209.985 144.139 211.591 143.926 213.206 143.828V143.828L217.513 144.435L221.383 146.076C222.6 146.793 223.726 147.654 224.735 148.643C225.769 149.671 226.662 150.832 227.391 152.095Z" fill="#A42A29"/>
<path d="M221.253 152.263C218.428 154.332 211.136 161.276 208.63 163.375L207.008 161.654C206.215 160.609 205.127 159.826 203.885 159.406C203.748 159.381 203.608 159.39 203.476 159.431C203.344 159.472 203.224 159.545 203.127 159.643C203.029 159.74 202.956 159.86 202.915 159.992C202.874 160.125 202.865 160.265 202.89 160.401C203.243 161.677 203.958 162.825 204.949 163.703L207.685 166.747C207.975 167.037 208.369 167.199 208.779 167.199C209.189 167.199 209.582 167.037 209.873 166.747C211.863 164.43 220.438 155.964 222.487 153.726C222.608 153.546 222.666 153.332 222.655 153.116C222.643 152.901 222.561 152.694 222.422 152.529C222.282 152.364 222.093 152.249 221.882 152.201C221.671 152.153 221.451 152.175 221.253 152.263Z" fill="#A42A29"/>
</svg>
