<svg id="Layer_1" data-name="Layer 1" xmlns="http://www.w3.org/2000/svg" viewBox="0 0 400 400"><defs><style>.cls-1{fill:#f7f7f7;}.cls-2{fill:#e28a40;}.cls-3{fill:#fbb778;}.cls-4{fill:#a96050;}.cls-5{fill:none;stroke:#a42a29;stroke-miterlimit:10;stroke-width:0.75px;}.cls-6{fill:#fff;}.cls-7{fill:#a42a29;}.cls-8{fill:#ebebeb;}.cls-9{fill:#c96f32;}.cls-10{fill:#884638;}.cls-11{fill:#0e3944;}.cls-12{fill:#e0e0e0;}</style></defs><path class="cls-1" d="M338.35,244.05C372,164.58,304.74,89.24,231.4,69c-35-9.68-106.61-12.9-152.45,31.76C50.17,130.2,47.49,175.14,63.07,210c15.19,34,45.76,59.54,76.26,80.17,30.23,20.45,67.57,30.27,104.61,22C281.32,303.82,323.13,280,338.35,244.05Z"/><g id="freepik--Character--inject-2"><path class="cls-2" d="M271,140.12l-51.6-23.88c4.06,3.63,4.75,19.82,5,23.44.34,4.5,19,5.42,20.09,5.87,1.67.69-17.41-1.15-17.5.57a109.38,109.38,0,0,1-2,16.12h28.58l14.78.07c5.49,0,9.94-5.05,9.94-11.29C278.21,145.94,275.25,141.49,271,140.12Z"/><path class="cls-3" d="M227,147.75c-.15,1.24-.31,2.5-.48,3.76-.3,2.35-.63,4.77-1,7.21-.17,1.24-.35,2.49-.54,3.73-.43,3-.89,6-1.35,8.9-.2,1.26-.4,2.51-.59,3.75-.55,3.41-1.1,6.7-1.61,9.76-.23,1.33-.44,2.61-.66,3.83-.46,2.79-.91,5.31-1.28,7.45-.27,1.52-.51,2.86-.71,4-.43,2.35-.67,3.71-.67,3.71s-6.72,5.61-20,6c-23.38.72-29.81-11.3-29.81-11.3s0-.88.05-2.44c0-1,0-2.37.09-3.94,0-1.88.11-4.11.18-6.6,0-1.22.07-2.5.11-3.83.09-2.78.19-5.79.29-8.94.05-1.23.1-2.48.16-3.74.09-2.52.2-5.11.32-7.7,0-1.27.11-2.54.18-3.8.12-2.79.28-5.57.43-8.29.08-1.3.16-2.57.24-3.83.19-3,.4-5.83.61-8.49.12-1.34.23-2.63.36-3.85.26-2.76.55-5.23.87-7.3.24-1.57.48-2.91.75-4a6.64,6.64,0,0,1,1-2.53c2.65-3,7.77-3.88,17.72-5.35a35.78,35.78,0,0,1,8-.26,105,105,0,0,1,10.5,1.29c8.29,1.51,14.53,4.1,17.43,8.63.08.13.16.25.23.38a9.23,9.23,0,0,1,.66,3.84,71.21,71.21,0,0,1-.22,7.34c-.07,1.2-.18,2.46-.31,3.79-.25,2.72-.57,5.69-.95,8.8Z"/><path class="cls-2" d="M228.51,127.82c-19.56-6.34-43.14-4.12-56.27-2,.24-1.57.48-2.91.75-4,13.2-2,35.29-3.9,54.63,1.78.08.13.16.25.23.38a9.23,9.23,0,0,1,.66,3.84Z"/><path class="cls-2" d="M228,139c-16.73-4.6-41-3.5-57-2,.12-1.34.23-2.63.36-3.85,15.93-1.48,39.72-2.48,56.92,2.07-.07,1.2-.18,2.46-.31,3.79Z"/><path class="cls-2" d="M227,147.75c-.15,1.24-.31,2.5-.48,3.76-17.42-3.77-40.58-3.27-56.39-2.25.08-1.3.16-2.57.24-3.83,15.88-1,38.84-1.47,56.63,2.32Z"/><path class="cls-2" d="M225.57,158.72c-.17,1.24-.35,2.49-.54,3.73-15.79-1.91-38.91-1.65-55.48-1.1,0-1.27.11-2.54.18-3.8,16.65-.56,39.72-.8,55.84,1.17Z"/><path class="cls-2" d="M223.68,171.35c-.2,1.26-.4,2.51-.59,3.75-17.06-.39-38.61-1.46-54-2.31.05-1.23.1-2.48.16-3.74,15.54.84,37.35,1.92,54.45,2.3Z"/><path class="cls-2" d="M221.48,184.86c-.23,1.33-.44,2.61-.66,3.83-13.49,1.11-29.68-.18-43.33-1.91-3.09-.39-6.06-.81-8.82-1.22,0-1.22.07-2.5.11-3.83,15.15,2.27,36.33,4.6,52.7,3.13Z"/><path class="cls-2" d="M219.54,196.14c-.27,1.52-.51,2.86-.71,4a92.13,92.13,0,0,1-29.43.88,107.57,107.57,0,0,1-21-4.89c0-1,0-2.37.09-3.94,12.4,4.38,30.76,8.31,51,4Z"/><path class="cls-4" d="M227.87,162.29V147.6s-21.81,4.52-22.21,14.51Z"/></g><g id="freepik--search-engine--inject-2"><path class="cls-5" d="M81,126.29c.1-.09,14.86,18.17,33,40.75s32.67,41,32.52,41.11-14.86-18.17-33-40.76S80.86,126.37,81,126.29Z"/><circle class="cls-6" cx="70.8" cy="117.66" r="29.15"/><path class="cls-7" d="M100,117.18a4,4,0,0,1-.06-.47c0-.34-.07-.8-.12-1.39a6.09,6.09,0,0,0-.08-1c-.07-.36-.13-.78-.21-1.22a21.85,21.85,0,0,0-.66-3,27.59,27.59,0,0,0-3.37-7.66A29.11,29.11,0,0,0,75.67,89.17,25.2,25.2,0,0,0,72,88.81c-.62,0-1.25-.06-1.88,0l-1.92.13a12.29,12.29,0,0,0-1.92.24c-.64.11-1.3.2-1.94.35a28.93,28.93,0,0,0-3.84,1.2,28.12,28.12,0,0,0-3.74,1.72c-.61.34-1.18.73-1.78,1.1a14.93,14.93,0,0,0-1.72,1.23A33.7,33.7,0,0,0,50,97.59,34.69,34.69,0,0,0,47.25,101a28,28,0,0,0-4,8.07,28.65,28.65,0,0,0,.31,18.23,28,28,0,0,0,4.26,7.93,33.57,33.57,0,0,0,2.89,3.31A31,31,0,0,0,54,141.24a16,16,0,0,0,1.76,1.19c.62.34,1.2.72,1.82,1a32.42,32.42,0,0,0,3.8,1.59,28.53,28.53,0,0,0,3.88,1.07c.64.13,1.3.19,1.94.29a14,14,0,0,0,1.93.17l1.93.07a16.74,16.74,0,0,0,1.87-.1,28.2,28.2,0,0,0,3.66-.48A29.09,29.09,0,0,0,96,132.14a27.85,27.85,0,0,0,3.11-7.77,21.86,21.86,0,0,0,.56-3c.06-.44.13-.85.17-1.22l0-1c0-.59.06-1,.08-1.38a3.57,3.57,0,0,1,0-.47v.47l0,1.39,0,1c0,.35-.1.79-.15,1.23a22,22,0,0,1-.51,3,27.57,27.57,0,0,1-3.06,7.87,29.33,29.33,0,0,1-19.53,14.15,27.18,27.18,0,0,1-3.7.5c-.63,0-1.27.11-1.92.11L69.19,147a12.18,12.18,0,0,1-2-.17c-.67-.1-1.33-.16-2-.29a30.24,30.24,0,0,1-3.94-1.08,31.75,31.75,0,0,1-3.86-1.61c-.63-.32-1.24-.7-1.85-1.06a14.37,14.37,0,0,1-1.8-1.19,34.69,34.69,0,0,1-3.39-2.77,33.67,33.67,0,0,1-2.94-3.36,28.72,28.72,0,0,1-4.34-8,29,29,0,0,1-.31-18.56,28.67,28.67,0,0,1,4.07-8.17,34.81,34.81,0,0,1,2.84-3.46,34.48,34.48,0,0,1,3.28-2.88,15.2,15.2,0,0,1,1.76-1.25c.61-.37,1.2-.77,1.81-1.12A31.85,31.85,0,0,1,64.22,89c.66-.15,1.32-.24,2-.36a13.35,13.35,0,0,1,2-.24l1.94-.13c.65,0,1.28,0,1.92,0a28.93,28.93,0,0,1,3.72.37,29.36,29.36,0,0,1,20,13.56,27.66,27.66,0,0,1,3.32,7.77,20.32,20.32,0,0,1,.61,3c.07.44.15.85.19,1.22s0,.72,0,1l0,1.39A2.85,2.85,0,0,0,100,117.18Z"/><rect class="cls-7" x="59.19" y="102.48" width="22.89" height="30.35" transform="translate(-1.95 1.19) rotate(-0.96)"/><path class="cls-8" d="M71.57,107.32a27,27,0,0,1-7.51.12A27,27,0,0,1,71.57,107.32Z"/><path class="cls-8" d="M78.27,111.48a55.47,55.47,0,0,1-7.52.38,55.38,55.38,0,0,1-7.51-.13,55.41,55.41,0,0,1,7.51-.39A55.53,55.53,0,0,1,78.27,111.48Z"/><path class="cls-8" d="M78.31,114.08a57.08,57.08,0,0,1-7.51.38,55.5,55.5,0,0,1-7.52-.13,52.36,52.36,0,0,1,7.51-.4A52.43,52.43,0,0,1,78.31,114.08Z"/><path class="cls-8" d="M78.36,116.67a57.31,57.31,0,0,1-7.52.38,55.38,55.38,0,0,1-7.51-.13,55.35,55.35,0,0,1,7.5-.39A55.68,55.68,0,0,1,78.36,116.67Z"/><path class="cls-8" d="M78.4,119.3a57.08,57.08,0,0,1-7.51.38,55.5,55.5,0,0,1-7.52-.13,51,51,0,0,1,7.51-.4A52.46,52.46,0,0,1,78.4,119.3Z"/><path class="cls-8" d="M78.44,121.85a55.41,55.41,0,0,1-7.51.39,55.5,55.5,0,0,1-7.52-.13,55.41,55.41,0,0,1,7.51-.39A55.5,55.5,0,0,1,78.44,121.85Z"/><path class="cls-8" d="M78.49,124.44a51.16,51.16,0,0,1-7.52.4,53.81,53.81,0,0,1-7.51-.14,55.27,55.27,0,0,1,7.5-.39A55.68,55.68,0,0,1,78.49,124.44Z"/><path class="cls-8" d="M78.53,127a55.48,55.48,0,0,1-7.52.39,53.81,53.81,0,0,1-7.51-.14,57.08,57.08,0,0,1,7.51-.38A55.53,55.53,0,0,1,78.53,127Z"/><path class="cls-5" d="M315.81,132.22c.08.11-17.93,14.62-40.25,32.4s-40.49,32.11-40.57,32,17.95-14.61,40.23-32.36S315.72,132.16,315.81,132.22Z"/><circle class="cls-6" cx="328.45" cy="125.46" r="29.15"/><path class="cls-7" d="M331.51,154.45l-.47.05c-.31,0-.79.08-1.39.1l-1,.1a10.53,10.53,0,0,1-1.23,0,22,22,0,0,1-3-.26,27.67,27.67,0,0,1-8.11-2.35,29.34,29.34,0,0,1-16-18.22,28.71,28.71,0,0,1-.82-3.65c-.06-.62-.22-1.25-.28-1.89l-.1-2a13.49,13.49,0,0,1,0-2c0-.66,0-1.33.1-2a32.92,32.92,0,0,1,2-8c.28-.65.6-1.29.9-1.94a13.28,13.28,0,0,1,1-1.89,26.76,26.76,0,0,1,5.56-6.84,28.09,28.09,0,0,1,7.61-5,29.17,29.17,0,0,1,18.46-1.93,28.45,28.45,0,0,1,8.5,3.35,34.19,34.19,0,0,1,3.68,2.52,32.31,32.31,0,0,1,3.16,3,15.44,15.44,0,0,1,1.4,1.63c.43.58.88,1.14,1.28,1.72a32.08,32.08,0,0,1,3.6,7.43c.21.63.35,1.29.53,2a13.28,13.28,0,0,1,.42,2l.29,1.93c.06.64.08,1.28.12,1.91a27.44,27.44,0,0,1-.05,3.74A29.44,29.44,0,0,1,345.94,149a28.11,28.11,0,0,1-7.45,4,23,23,0,0,1-2.93.88c-.44.11-.83.22-1.2.29s-.71.07-1,.1a12.12,12.12,0,0,0-1.38.19,1,1,0,0,1-.46.05,2.3,2.3,0,0,0,.46-.1c.3-.08.78-.13,1.36-.23l1-.17a9.57,9.57,0,0,0,1.19-.31,21.1,21.1,0,0,0,2.92-.93,27.5,27.5,0,0,0,7.35-4,29.18,29.18,0,0,0,11.51-20.87,28.23,28.23,0,0,0,0-3.68c-.06-.63-.05-1.25-.12-1.89l-.3-1.89a12.25,12.25,0,0,0-.41-1.89c-.18-.64-.31-1.28-.52-1.91a32.44,32.44,0,0,0-1.52-3.71,30.86,30.86,0,0,0-2-3.58c-.4-.57-.85-1.12-1.27-1.68a13.1,13.1,0,0,0-1.37-1.61,32.3,32.3,0,0,0-3.11-3,31.78,31.78,0,0,0-3.63-2.47,27.82,27.82,0,0,0-8.39-3.28,28.7,28.7,0,0,0-18.13,1.89,28.11,28.11,0,0,0-7.53,4.94,32.41,32.41,0,0,0-3,3.16,33.09,33.09,0,0,0-2.43,3.54,14.64,14.64,0,0,0-1,1.87c-.3.63-.62,1.26-.89,1.9a27.93,27.93,0,0,0-1.25,3.92,31.22,31.22,0,0,0-.74,4c-.06.66-.07,1.31-.1,2a12.55,12.55,0,0,0,0,1.94l.1,1.91c.06.63.19,1.25.27,1.87a26.18,26.18,0,0,0,.8,3.59,29,29,0,0,0,15.57,18.05,27.37,27.37,0,0,0,8,2.41,20.88,20.88,0,0,0,3.05.31c.44,0,.85.05,1.23.05s.71,0,1,0c.59-.06,1,0,1.39-.06A2.52,2.52,0,0,1,331.51,154.45Z"/><polygon class="cls-7" points="320.81 117.18 315.28 139.66 327.3 138.83 339.1 141.28 335.86 118.21 320.81 117.18"/><path class="cls-7" d="M333.75,118.37c-.09,0-.27-.84-.86-2.07a6.36,6.36,0,0,0-1.3-1.94,4.81,4.81,0,0,0-1.12-.76,4.55,4.55,0,0,0-1.41-.34,5,5,0,0,0-2.76.47,4.27,4.27,0,0,0-1.6,1.64c-.69,1.18-.94,2-1,2a5.35,5.35,0,0,1,.71-2.17,4.41,4.41,0,0,1,1.69-1.89,5.12,5.12,0,0,1,3.05-.56,4.55,4.55,0,0,1,1.57.4,4.68,4.68,0,0,1,1.25.87,6.23,6.23,0,0,1,1.3,2.15A5.58,5.58,0,0,1,333.75,118.37Z"/><path class="cls-5" d="M204.93,270c-.15,0-.26-20.07-.26-44.83s.11-44.83.26-44.83.26,20.06.26,44.83S205.07,270,204.93,270Z"/><circle class="cls-6" cx="204.33" cy="281.95" r="29.15"/><path class="cls-7" d="M175.18,282v-2.86a10.73,10.73,0,0,1,.17-1.22,18.91,18.91,0,0,1,.57-3,27.49,27.49,0,0,1,3.18-7.82,29.29,29.29,0,0,1,19.73-13.89,27.4,27.4,0,0,1,3.71-.44c.64,0,1.28-.08,1.92-.08l1.94.1a11.22,11.22,0,0,1,2,.21c.66.1,1.32.18,2,.31a29,29,0,0,1,7.78,2.75c.62.34,1.22.73,1.83,1.09a15.08,15.08,0,0,1,1.83,1.24,34.68,34.68,0,0,1,3.34,2.83,32.26,32.26,0,0,1,2.88,3.41,28.41,28.41,0,0,1,4.21,8.1,29,29,0,0,1,0,18.56,28,28,0,0,1-4.21,8.1,33.19,33.19,0,0,1-2.88,3.4,34.68,34.68,0,0,1-3.34,2.83,15.56,15.56,0,0,1-1.78,1.22c-.61.37-1.21.76-1.83,1.09a32.81,32.81,0,0,1-3.84,1.68,33.18,33.18,0,0,1-3.92,1.14c-.66.14-1.32.21-2,.32a13.43,13.43,0,0,1-2,.21l-1.94.09c-.65,0-1.28-.05-1.92-.08a27.4,27.4,0,0,1-3.71-.44,29.33,29.33,0,0,1-19.73-13.88A27.73,27.73,0,0,1,176,289.1a19.35,19.35,0,0,1-.57-3c-.06-.45-.13-.85-.17-1.23a8.3,8.3,0,0,1,0-1V282a3.56,3.56,0,0,1,.05.47c0,.33.06.79.1,1.38a9.19,9.19,0,0,0,.06,1,8.69,8.69,0,0,0,.19,1.22,23.8,23.8,0,0,0,.61,3,28.18,28.18,0,0,0,3.24,7.72A29.18,29.18,0,0,0,199,310.34a28.09,28.09,0,0,0,3.66.42c.62,0,1.25.08,1.88.07l1.92-.1a12.52,12.52,0,0,0,1.93-.21c.64-.11,1.3-.18,1.94-.32a30.46,30.46,0,0,0,3.86-1.13,32.42,32.42,0,0,0,3.77-1.66c.61-.33,1.19-.72,1.8-1.07a16.34,16.34,0,0,0,1.74-1.21,31.08,31.08,0,0,0,3.28-2.78A33.53,33.53,0,0,0,227.6,299a27.9,27.9,0,0,0,4.13-8,28.58,28.58,0,0,0,0-18.23,27.64,27.64,0,0,0-4.13-8,26.45,26.45,0,0,0-6.11-6.14,12.82,12.82,0,0,0-1.74-1.2c-.61-.36-1.19-.74-1.8-1.07a27,27,0,0,0-3.77-1.66,28.94,28.94,0,0,0-3.86-1.14c-.64-.13-1.3-.21-1.94-.31a10.37,10.37,0,0,0-1.93-.21l-1.91-.1c-.64,0-1.27,0-1.89.07a25,25,0,0,0-3.66.42A29.12,29.12,0,0,0,179.43,267a28,28,0,0,0-3.24,7.72,21.55,21.55,0,0,0-.61,3c-.07.44-.15.84-.19,1.22s0,.71-.06,1a13.3,13.3,0,0,1-.1,1.39A4,4,0,0,1,175.18,282Z"/><polygon class="cls-7" points="204.33 268.89 191.69 280.38 191.69 294.95 201.53 294.95 201.53 286.22 207.8 286.22 207.8 294.95 216.98 294.95 216.98 280.38 204.33 268.89"/><rect class="cls-6" x="87.6" y="161.64" width="227.45" height="72.56" rx="3.47"/><path class="cls-7" d="M311.57,234.2l-148.51.25-37.13.06-18.56,0H91.13a3.87,3.87,0,0,1-3.79-2.89,4.53,4.53,0,0,1-.12-1.25v-5.8l0-9.28,0-18.56,0-18.57,0-9.28v-3.48a4.75,4.75,0,0,1,.11-1.27,4,4,0,0,1,3.85-3.05l148.51.25,37.13.06,18.56,0,9.29,0h7a3.67,3.67,0,0,1,2.23.74,3.57,3.57,0,0,1,1.3,2,10.86,10.86,0,0,1,.11,2.34v4.64l0,9.28,0,18.57,0,18.56,0,9.28v2.33a12.73,12.73,0,0,1-.1,2.31A3.51,3.51,0,0,1,311.57,234.2Zm0,0a3.49,3.49,0,0,0,3.37-2.67,11.88,11.88,0,0,0,.09-2.31v-2.33l0-9.28,0-18.56,0-18.57V166.56a11.44,11.44,0,0,0-.11-2.28,3.32,3.32,0,0,0-1.22-1.83c-1.21-1-2.88-.6-4.4-.68h-4.64l-9.29,0-18.56,0-37.13.06-148.51.25a3,3,0,0,0-2.9,2.28,13.86,13.86,0,0,0-.09,2.2v2.32l0,9.28,0,18.57,0,18.56v13.92a10.58,10.58,0,0,0,.1,2.22,3,3,0,0,0,1.11,1.69,3.13,3.13,0,0,0,1.94.65h16.24l18.56,0,37.13.07Z"/><rect class="cls-8" x="111.62" y="173.65" width="186.85" height="10.74"/><path class="cls-7" d="M261.78,195.2c0,.2-24.22.36-54.08.36s-54.1-.16-54.1-.36,24.22-.35,54.1-.35S261.78,195,261.78,195.2Z"/><path class="cls-7" d="M261.78,201.44c0,.19-24.22.35-54.08.35s-54.1-.16-54.1-.35,24.22-.36,54.1-.36S261.78,201.24,261.78,201.44Z"/><path class="cls-7" d="M210.77,207.69a15.57,15.57,0,0,1-2.25.13l-6.12.12c-5.17.06-12.32.1-20.21.1s-15,0-20.22-.1l-6.12-.12a15.57,15.57,0,0,1-2.25-.13,13,13,0,0,1,2.25-.14l6.12-.12c5.18-.06,12.32-.1,20.22-.1s15,0,20.21.1l6.12.12A13,13,0,0,1,210.77,207.69Z"/><path class="cls-7" d="M261.78,214.12c0,.2-24.22.36-54.08.36s-54.1-.16-54.1-.36,24.22-.36,54.1-.36S261.78,213.92,261.78,214.12Z"/><path class="cls-7" d="M261.78,220.35c0,.2-24.22.36-54.08.36s-54.1-.16-54.1-.36,24.22-.35,54.1-.35S261.78,220.16,261.78,220.35Z"/><polygon class="cls-7" points="290.62 225.44 284.48 221.26 278.71 225.44 278.71 212.79 290.62 212.79 290.62 225.44"/><path class="cls-8" d="M295.5,196.45a12,12,0,0,0-4.29-4.3l-.13-.08-2.89-1.22-3.21-.43a25.77,25.77,0,0,0-3.29.45l-.76.16c-.12,0-.22.07-.34.1s-.41.11-.61.18l-.49.2-.54.24a5.86,5.86,0,0,0-.55.3l-.32.17a9.17,9.17,0,0,0-2.39,1.87,9.39,9.39,0,0,0-1.87,2.4c-.07.11-.12.21-.18.32s-.21.36-.3.55-.16.35-.24.54a4.14,4.14,0,0,0-.19.49,6.17,6.17,0,0,0-.19.61c0,.11-.07.22-.1.33a1,1,0,0,0,0,.17,8.25,8.25,0,0,0-.19,1.41,8.76,8.76,0,0,0-.19,1.43l0,.15c0,.07,0,.14,0,.2a9.22,9.22,0,0,0,.39,2.88v.05s0,0,0,0l0,0a11.8,11.8,0,0,0,4.18,6.21c.28.21.57.39.86.58.14.09.26.19.4.27h0a11.55,11.55,0,0,0,2.84,1.2l.76.16h0a13,13,0,0,0,1.49.21l.17,0a12.1,12.1,0,0,0,6.25-.82,5.22,5.22,0,0,0,1.58-.7,12,12,0,0,0,4.29-16.38Z"/><path class="cls-7" d="M295.5,196.45a11.56,11.56,0,0,0-1.94-2.47,12.54,12.54,0,0,0-2.5-1.89h0l-2.88-1.21h0l-3.22-.4h0a24.59,24.59,0,0,0-3.54.54,9.55,9.55,0,0,0-1.7.51,11.2,11.2,0,0,0-1.58.81h0a8.68,8.68,0,0,0-2.32,1.86h0a9,9,0,0,0-1.8,2.36v0l-.35.66c-.13.22-.21.46-.32.68s-.19.47-.25.71l-.21.72v0l0,.16v0l-.18,1.37V201l-.18,1.38v0l0,.16v0c0,.27,0,.54,0,.79a6.48,6.48,0,0,0,.07.77,8.76,8.76,0,0,0,.33,1.52v0l0,.05h0v0a11.86,11.86,0,0,0,2,3.95,11.74,11.74,0,0,0,1.52,1.63,16.63,16.63,0,0,0,1.8,1.32h0A11.67,11.67,0,0,0,281,213.7h0c.4.08.81.18,1.21.22l1.2.18h.05a5.89,5.89,0,0,0,3.09,0h.06a5.81,5.81,0,0,0,3-.76h0a7.1,7.1,0,0,0,2.25-1.09,12.13,12.13,0,0,0,2-1.63,11.93,11.93,0,0,0,2.67-4.3,12.13,12.13,0,0,0,.59-5A11.72,11.72,0,0,0,295.5,196.45Zm0,0a11.84,11.84,0,0,1,1.6,4.84,12.17,12.17,0,0,1-3.15,9.5A12.65,12.65,0,0,1,292,212.5a7.4,7.4,0,0,1-2.32,1.19l0,0a6.17,6.17,0,0,1-3.13.89h.05a6.37,6.37,0,0,1-3.33,0h.05l-1.26-.16c-.42-.05-.82-.14-1.23-.22h0A12.28,12.28,0,0,1,278,213h0a16.85,16.85,0,0,1-1.9-1.36,12,12,0,0,1-3.68-5.86v0l0,0v0h0a9.81,9.81,0,0,1-.34-1.61,7.78,7.78,0,0,1-.07-.82c0-.28,0-.55,0-.82h0v0l0-.16v0l.2-1.47v.05l.2-1.46v0l0-.16v0h0l.24-.76a6.61,6.61,0,0,1,.28-.74,7.8,7.8,0,0,1,.35-.71l.39-.69h0a9.36,9.36,0,0,1,1.95-2.43h0a9.2,9.2,0,0,1,2.46-1.88h0a11.29,11.29,0,0,1,1.64-.8,10.92,10.92,0,0,1,1.76-.48,24,24,0,0,1,3.58-.46h0l3.21.46h0l2.88,1.23h0a13.3,13.3,0,0,1,2.5,1.92A12.2,12.2,0,0,1,295.5,196.45Z"/></g><path class="cls-9" d="M194.5,119.23c-1.75.25-5.46,2.63-5.55,4.4-.3,5.54,10.36,10.14,20.12,9.36s9.78-6.07,7.94-8.71-6.24-7.41-22.51-5Z"/><rect class="cls-8" x="111.55" y="188.8" width="37.58" height="36.84"/><path class="cls-7" d="M143.26,219.08a52.69,52.69,0,0,0-6.6-10.91,14.77,14.77,0,0,0-5-4,4.54,4.54,0,0,0,.45-.21,6.17,6.17,0,0,0,2.11-8.85,9.26,9.26,0,0,0-4.7-3.19,5.1,5.1,0,0,0-5,.49,6.39,6.39,0,0,0-1.67,3,7.94,7.94,0,0,0-.47,3.64,4.15,4.15,0,0,0,1.42,2.67,1.05,1.05,0,0,0,.11.07,6.31,6.31,0,0,0,2.33,2.26,12.35,12.35,0,0,0-4.79,4.19c-2.47,3.63-2.93,8.21-3.37,12.46a.59.59,0,0,0,.57.59c8.08,0,16.09-.65,24.12-1.39A.5.5,0,0,0,143.26,219.08Z"/><path class="cls-10" d="M215.11,108.05l-3.46,20.44s-5.54,3.18-18.4-4.05c0,0,5.24-15.76-1.37-26.13,0,0,1.46,0,3.77.06,0,0,3.27,11.72,19.46,9.68Z"/><path class="cls-11" d="M230.47,81.68s6.76-3.51,1.85-6.14c0,0,3.42-5.32,1.08-6.79s-5.39.31-6.28-2.46-3.12-7.37-9.33-4.61-7.9-4.25-10.65-2.67-2,5.21-5.93,4.91-7.62-.15-7.55,3.83-4.16,3.35-4.84,5.63,1,3.32.71,5.32-3.23,2.26-2.84,5.44,3.34,3.35,2.67,5.43-3.53,6.38-1,7.62,2.6,6.23,5.91,6.21,36.15-21.72,36.15-21.72Z"/><path class="cls-4" d="M193.21,91.09c-4.65,18.82,20.73,32.63,27.7,24.65,2.24-2.55,5.53-10.26,7.29-15.68.4-1.23.76-2.48,1.09-3.75,2.18-8.56,2.44-17.48-2.13-20.42-15.89-10.24-28.26-7.9-33.95,15.2Z"/><path class="cls-11" d="M198.57,92.52s1-7,6-10.07,2.6-9.72,2.6-9.72,17.26.66,23.28,9c0,0,7.59-8.61-7.45-15.9s-43.36-.35-28.7,37.62l-1.11-12.31,5.36,1.43Z"/><path class="cls-4" d="M198.21,91.55s-2.8-5.25-6.89-3.31,0,11.36,3.84,11.88,3.05-8.57,3.05-8.57Z"/><path class="cls-9" d="M168.11,193.26c2.53,3.26-7.76,14-13.86,8.48,0,0,6.93-17.38,13.86-8.48Z"/><path class="cls-4" d="M160.39,206.2c.48,1.53,4.21,11.93,5.73,13.35a1.37,1.37,0,0,0,.18.16c1.57,1.3,4.52,1.8,5.8,2.57s4.63.14,6.19-.14c1.32-.24,5.5,5.93,5.5,5.93s2.18-1.83,1.43-3.56c-.94-2.16-4.78-5.42-4.78-5.42l-3.39-4.21s-2.21-6.91-1-7.55,2.13,2.23,3.83,4a2,2,0,0,0,2.56.15l-1.82-3.88s-3.08-5.32-4.32-6-6.62-2.47-6.62-2.47l-7.36-8.75-10.19,6.09s7.78,8.19,8.24,9.73Z"/><path class="cls-10" d="M166.3,219.71c1.57,1.3,4.52,1.8,5.8,2.57s1.72.33,3.3.18,3.53-.49,3.53-.49c-1.41-.27-3.79-3.58-4.38-3.62s-.55.74-1.36,1.16-2-1-2.69-.33a1.84,1.84,0,0,1-2.63.46,1.55,1.55,0,0,0-1.57.07Z"/><path class="cls-2" d="M179.51,116.28c3.65,8.81-3.22,27.42-8.7,32.61l-26.54,12.89s-1.54,3.47-2.92,2.65l26.43,28.42s-7.44-.83-13.5,8.78c0,0-37-28.19-37.57-42-.17-4,4-9.38,8.26-11.64,25.79-18.67,54.54-31.69,54.54-31.69Z"/><path class="cls-12" d="M326,328.89c0,5.07-58.61,10.05-130.43,9.19C150.07,337.53,84,334.8,84,329.73s53.57-11.85,102.25-11.85S326,323.81,326,328.89Z"/></svg>