<svg width="320" height="320" viewBox="0 0 320 320" fill="none" xmlns="http://www.w3.org/2000/svg">
<path d="M252.399 287.897C262.585 288.72 267.113 292.63 251.576 296.437C242.315 298.701 225.338 298.804 198.585 300.347C132.219 304.257 41.1576 297.26 41.1576 294.071C41.1576 291.704 57.4148 287.588 96.8232 286.56C109.068 286.251 124.913 282.958 141.994 282.958C213.711 283.061 223.074 285.428 252.399 287.897Z" fill="#E0E0E0"/>
<path d="M84.6818 263.923C32.5146 210.418 57.5178 119.254 105.569 72.3344C128.515 49.9035 160.206 36.836 190.045 37.3505C203.113 32.2058 217.003 31.4855 230.688 37.1447C262.277 50.418 279.46 87.254 279.563 123.164C279.666 158.148 265.363 192.103 249.518 222.045C233.775 251.678 209.08 275.138 178.521 283.164C147.756 291.293 108.347 288.103 84.6818 263.923Z" fill="#F7F7F7"/>
<path d="M262.997 93.3248C247.563 91.9872 232.129 90.5467 216.695 88.283C216.283 88.1802 215.871 88.3859 215.666 88.9004C215.254 90.1351 214.74 91.267 214.225 92.3988C210.109 98.7782 206.714 105.466 203.627 112.36C203.421 112.772 203.524 113.389 204.039 113.492C220.09 116.064 236.244 117.814 252.399 119.151C252.707 119.151 253.016 118.945 253.119 118.637C256.309 110.508 259.601 102.38 263.511 94.5596C263.923 93.9422 263.511 93.4277 262.997 93.3248Z" fill="#EBEBEB"/>
<path d="M140.862 289.338C138.907 287.794 133.865 281.003 132.836 277.505C131.395 272.669 131.19 238.611 131.19 238.611L121.312 239.743C121.312 239.743 123.781 254.045 124.502 262.174C125.428 271.434 124.707 274.624 125.119 276.167C125.119 276.682 125.016 277.093 124.81 277.608C124.604 278.328 124.193 289.338 124.193 289.338H141.068C140.965 289.44 140.965 289.44 140.862 289.338Z" fill="#A55A51"/>
<path d="M132.733 209.595C132.219 206.302 135.408 201.055 135.1 188.09C135.923 173.479 136.849 139.833 130.161 120.18L110.817 119.151C110.405 134.277 94.4566 149.402 110.92 168.232C112.772 174.92 115.859 201.569 116.99 211.344C118.225 222.765 133.556 214.637 132.733 209.595Z" fill="#A55A51"/>
<path d="M123.37 289.441C123.37 289.441 122.752 277.608 124.604 276.785C126.457 275.962 126.765 280.283 129.749 280.283C131.704 280.283 132.424 275.859 134.071 276.785C135.511 277.711 136.54 280.18 140.347 282.753C144.257 285.325 147.447 284.605 147.653 289.441H123.37Z" fill="#0E3944"/>
<path d="M92.7074 241.801H82.0064C80.2572 251.678 75.1125 289.44 75.1125 289.44H85.9164C85.5048 287.588 83.7556 280.592 85.8135 270.508C88.3859 257.44 92.7074 241.801 92.7074 241.801Z" fill="#B86658"/>
<path d="M84.5787 183.151C85.299 189.633 86.7395 194.161 87.254 199.614C88.0771 207.537 98.9839 210.521 100.424 198.482C101.042 193.44 102.482 186.238 103.923 179.756C103.923 179.756 108.244 160.823 111.228 159.485C123.061 153.826 130.161 120.18 130.161 120.18L101.145 119.254C101.145 119.254 83.1382 131.91 85.6077 157.222C85.6077 157.222 85.6077 157.428 85.5048 157.942C83.8585 169.569 83.9614 177.286 84.5787 183.151Z" fill="#B86658"/>
<path d="M76.656 278.945C76.656 278.945 76.7589 275.653 81.3891 275.961C86.0193 276.373 85.7106 279.666 85.7106 279.666C85.7106 279.666 86.4309 279.151 87.0482 279.666C87.6656 280.18 87.254 289.338 87.254 289.338H73.672C73.672 289.338 72.9518 286.045 74.2894 284.81C75.627 283.678 74.1865 279.357 76.656 278.945Z" fill="#0E3944"/>
<path d="M131.807 244.99C131.807 244.99 126.559 247.254 120.695 246.225V244.682C120.695 244.682 111.434 181.711 110.92 178.932C109.479 171.833 108.244 164.63 108.244 159.486C108.039 144.875 114.624 107.318 114.624 107.318L127.794 108.039L128.823 108.142C128.823 108.142 132.322 116.476 134.894 132.322C137.158 146.212 138.701 166.071 136.746 191.28L131.807 244.99Z" fill="#8B383F"/>
<path d="M114.212 160.617C114.212 160.617 101.145 201.261 92.3987 249.518C92.3987 249.518 84.2701 250.855 79.3312 249.518V246.431C79.3312 246.431 81.3891 217.312 84.6817 199.82C84.6817 199.82 77.1704 173.273 86.7395 136.54C89.1061 127.383 92.5016 117.711 97.3376 107.627L102.997 107.524L121.518 107.318C121.518 107.216 134.174 133.351 114.212 160.617Z" fill="#8B383F"/>
<path d="M106.392 108.862C106.392 108.862 99.1897 132.013 86.8424 136.437C89.209 127.28 92.6045 117.608 97.4405 107.524L103.1 107.421C104.129 107.833 105.26 108.245 106.392 108.862Z" fill="#662D34"/>
<path d="M134.791 132.322C133.865 131.19 133.145 129.852 132.836 128.309C131.807 123.37 128.823 112.257 127.691 108.039L128.72 108.141C128.823 108.141 132.219 116.373 134.791 132.322Z" fill="#662D34"/>
<path d="M117.093 175.846C115.035 178.624 111.434 181.711 110.817 178.933C111.434 176.875 114.006 166.791 116.167 149.505C118.637 129.852 117.299 108.142 117.299 108.142L118.842 107.833C118.842 107.833 124.707 137.364 115.653 156.605C115.961 156.296 121.209 151.254 122.958 146.727C123.061 146.624 123.678 166.894 117.093 175.846Z" fill="#662D34"/>
<path d="M120.797 64.8232C129.852 68.013 130.984 73.6721 138.187 105.261C138.187 105.261 143.64 105.878 148.99 108.553C153.003 110.611 163.91 113.492 168.849 114.727C167.82 115.344 166.791 116.579 166.688 119.357C158.971 118.74 137.672 116.785 134.379 114.83C130.264 112.36 122.238 85.9165 122.238 85.9165L120.797 64.8232Z" fill="#3A201C"/>
<path d="M97.3376 107.524C119.357 114.418 128.72 108.039 128.72 108.039C143.846 86.328 121.209 64.9261 121.209 64.9261C121.209 64.9261 121.003 64.8232 120.695 64.7203C117.711 63.4855 101.145 56.9003 89.5177 63.1769C88.7974 63.5884 87.9743 64 87.254 64.6174C74.5981 73.8778 97.3376 107.524 97.3376 107.524Z" fill="#D95D7B"/>
<path d="M89.6206 63.1768C90.9582 64.1029 92.6045 65.0289 94.5595 66.1608C129.955 85.5048 122.547 69.4534 122.547 69.4534C122.65 68.3215 122.341 67.2926 121.724 66.2637C121.415 65.7492 121.106 65.3376 120.695 64.8231C117.814 63.5884 101.865 57.3119 90.238 62.8682C90.0322 62.9711 89.8264 63.0739 89.6206 63.1768Z" fill="#B86658"/>
<path d="M89.6206 63.177C90.9582 64.103 92.6045 65.029 94.5595 66.1609C129.955 85.5049 122.547 69.4535 122.547 69.4535C122.65 68.3217 122.341 67.2927 121.724 66.2638C120.386 66.7782 117.505 67.8072 116.579 67.9101L115.859 70.0708L112.875 67.8072C112.875 67.8072 101.762 67.2927 90.238 62.7654C90.0322 62.9712 89.8264 63.0741 89.6206 63.177Z" fill="#3A201C"/>
<path d="M86.328 65.5435C92.3988 62.2509 95.8972 74.4952 94.4566 82.2123C93.8393 85.7107 94.2509 106.392 94.2509 106.392L131.396 116.476C131.396 116.476 130.058 120.9 128.617 121.724C124.399 124.296 85.8136 118.122 83.2412 115.859C80.566 113.389 78.3023 70.791 86.328 65.5435Z" fill="#3A201C"/>
<path d="M121.621 56.5915C121.621 56.5915 106.187 50.9324 92.8103 56.3857C92.8103 56.3857 81.0804 19.6526 106.289 22.1221C131.498 24.4886 124.399 50.4179 121.621 56.5915Z" fill="#0E3944"/>
<path d="M100.219 24.3859C100.219 24.3859 117.814 19.9614 120.283 32.3087C122.752 44.656 118.637 57.1061 110.611 55.6656C99.3955 53.6077 86.328 30.1479 100.219 24.3859Z" fill="#B86658"/>
<path d="M106.495 31.0741C106.495 31.0741 102.174 35.8072 101.865 42.2895C101.865 42.2895 99.2926 38.5853 97.5434 41.4663C95.7942 44.4503 101.453 49.3892 101.453 49.3892C101.453 49.3892 91.6784 49.1834 91.5755 36.5274C91.4726 31.177 98.7781 26.9583 106.495 31.0741Z" fill="#0E3944"/>
<path d="M101.865 46.7139C102.894 50.3152 107.421 56.9004 112.978 55.5627C112.978 55.5627 111.228 60.7074 113.286 62.8682C113.286 62.8682 115.344 67.1898 109.891 67.2927C103.1 67.4984 99.8071 61.8393 99.8071 61.8393C103.203 55.5627 99.91 47.2283 99.91 47.2283C101.351 48.2573 101.865 46.7139 101.865 46.7139Z" fill="#A55A51"/>
<path d="M111.125 27.9871C111.125 27.9871 112.669 41.7749 101.865 42.3923C101.865 42.3923 98.5724 35.6013 93.2219 39.717C93.2219 39.717 89.0033 24.4887 101.865 23.1511C101.865 23.1511 104.746 17.6977 114.521 20.2701C128.103 23.8714 130.572 40.8489 121.621 56.5916C121.621 56.5916 130.675 27.5755 111.125 27.9871Z" fill="#0E3944"/>
<path d="M182.637 90.6495L167.717 125.942L107.215 125.428L106.084 122.135L127.383 121.929L138.289 90.5466L182.637 90.6495Z" fill="#455B64"/>
<path d="M156.399 104.026C157.325 104.129 158.354 105.157 158.457 106.084C158.559 107.01 157.222 109.067 156.399 109.479C155.576 109.891 154.547 109.891 153.723 109.273C152.9 108.656 153.415 106.495 153.826 105.569C154.238 104.746 155.37 103.82 156.399 104.026Z" fill="#EBEBEB"/>
<path d="M153.312 129.543H145.492V282.752H153.312V129.543Z" fill="#455B64"/>
<path d="M153.312 129.543H151.151V282.752H153.312V129.543Z" fill="#556F77"/>
<path d="M192.514 289.441H102.482V287.794L134.791 285.222L145.492 282.752H153.312L163.19 285.222L192.514 287.794V289.441Z" fill="#556F77"/>
<path d="M102.482 289.441V287.794L134.791 285.119L145.492 282.65H151.151C151.151 282.65 137.466 286.045 144.36 286.045C151.254 286.045 155.987 289.441 155.987 289.441H102.482V289.441Z" fill="#455B64"/>
<path d="M155.267 129.543H143.537V133.042H155.267V129.543Z" fill="#455B64"/>
<path d="M155.267 129.543H151.974V133.042H155.267V129.543Z" fill="#556F77"/>
<path d="M196.733 124.81H102.482V126.971H196.733V124.81Z" fill="#A55A51"/>
<path d="M194.264 130.675H105.055C103.717 130.675 102.585 129.544 102.585 128.206V126.765H196.836V128.206C196.733 129.544 195.601 130.675 194.264 130.675Z" fill="#995037"/>
<path d="M178.624 83.5499C178.624 83.5499 178.933 80.2573 179.447 76.1415C179.961 72.0258 180.373 68.7332 180.373 68.7332C180.373 68.7332 180.064 72.0258 179.55 76.1415C179.035 80.2573 178.727 83.5499 178.624 83.5499Z" fill="#263238"/>
<path d="M196.63 69.5564C196.63 69.6593 196.527 69.6593 196.527 69.7622C196.425 69.8651 196.322 70.0709 196.219 70.2767C195.91 70.6882 195.498 71.3056 194.881 72.0259C193.749 73.5693 192.309 75.6271 190.662 77.9937C189.016 80.3603 187.576 82.521 186.547 84.0644C186.032 84.8876 185.621 85.505 185.312 85.9165C185.209 86.1223 185.106 86.3281 185.003 86.431C185.003 86.5339 184.9 86.5339 184.9 86.5339C184.9 86.5339 184.9 86.431 185.003 86.431C185.106 86.3281 185.209 86.1223 185.312 85.9165C185.621 85.505 186.032 84.8876 186.547 84.0644C187.576 82.521 189.016 80.3603 190.56 77.9937C192.206 75.6271 193.646 73.5693 194.778 72.0259C195.293 71.3056 195.807 70.6882 196.116 70.2767C196.322 70.0709 196.425 69.8651 196.527 69.7622C196.527 69.6593 196.527 69.6593 196.63 69.5564Z" fill="#263238"/>
<path d="M203.01 84.5789C203.01 84.5789 200.232 85.8136 196.733 87.357C193.235 88.9004 190.457 90.0322 190.457 90.0322C190.457 90.0322 193.235 88.7975 196.733 87.2541C200.129 85.8136 203.01 84.5789 203.01 84.5789Z" fill="#263238"/>
<path d="M172.862 82.7266C172.862 82.7266 172.244 81.389 171.524 79.6398C170.804 77.8906 170.187 76.553 170.289 76.553C170.289 76.553 170.907 77.8906 171.627 79.6398C172.244 81.2861 172.862 82.7266 172.862 82.7266Z" fill="#263238"/>
<path d="M198.174 98.7782C198.174 98.7782 196.836 98.0579 195.19 97.029C193.544 96.1029 192.206 95.2798 192.309 95.2798C192.309 95.2798 193.646 96 195.293 97.029C196.836 97.955 198.174 98.7782 198.174 98.7782Z" fill="#263238"/>
<path d="M211.55 105.672C213.299 102.174 215.048 98.5723 216.386 94.971C217.724 91.3697 219.061 87.6655 220.296 84.0642C220.502 83.344 228.527 84.0642 229.968 84.1671C232.849 84.1671 235.73 84.27 238.508 84.3729C244.27 84.5787 250.032 84.7845 255.794 85.0932C256.103 85.0932 256.412 85.4019 256.412 85.7105C256.206 87.1511 254.251 92.5015 253.942 93.3247C253.325 95.0739 252.707 96.8231 251.987 98.5723C250.547 101.968 249.003 105.363 247.357 108.553C247.254 108.759 247.048 108.862 246.843 108.862C240.978 108.553 213.402 106.804 211.961 106.598C211.653 106.495 211.344 106.084 211.55 105.672Z" fill="#F1F2F2" stroke="#A42A29" stroke-width="0.1568" stroke-miterlimit="10"/>
<path d="M230.174 85.1962C228.733 85.1962 227.293 85.0933 225.852 85.0933C224.515 85.0933 223.074 85.1962 221.736 85.0933C222.251 86.0193 222.662 86.9454 223.177 87.8714C223.897 89.0032 224.617 90.1351 225.338 91.2669C226.881 93.4277 228.63 95.4855 230.585 97.4405C231.1 97.955 231.511 98.3666 232.026 98.7781C232.129 98.881 232.232 98.9839 232.437 98.9839C232.54 98.9839 232.746 98.7781 232.952 98.7781C233.261 98.5724 233.672 98.3666 233.981 98.1608C235.318 97.3376 236.759 96.6174 238.097 95.7942C240.875 94.2508 243.55 92.7074 246.328 91.164C247.871 90.3408 249.415 89.4148 250.958 88.4888C252.399 87.6656 253.839 86.7396 255.383 86.0193C249.826 85.6077 244.373 85.4019 238.817 85.2991C235.833 85.2991 232.952 85.1962 230.174 85.1962Z" fill="#F1F2F2" stroke="#A42A29" stroke-width="0.1568" stroke-miterlimit="10"/>
<path d="M220.81 106.186C223.691 106.392 226.572 106.598 229.556 106.701C235.216 106.907 240.978 107.215 246.637 107.524C248.283 104.334 249.724 101.145 251.061 97.8521C251.679 96.2058 252.399 94.5595 253.016 92.9132C253.325 92.1929 253.531 91.4727 253.839 90.7524C254.045 89.9293 254.457 89.209 254.663 88.4887C254.868 87.9743 254.971 87.3569 255.177 86.8424C253.942 87.5627 252.708 88.283 251.473 89.0032C250.032 89.8264 248.695 90.6495 247.254 91.4727C244.373 93.119 241.492 94.7653 238.611 96.4116C237.171 97.2347 235.73 98.0579 234.392 98.881C234.084 99.0868 233.672 99.2926 233.363 99.4984C233.055 99.7042 232.746 99.91 232.437 100.013C231.82 100.116 231.306 99.4984 230.894 99.0868C228.836 97.1318 226.984 95.0739 225.338 92.8103C224.412 91.5756 223.589 90.2379 222.765 88.9003C222.251 87.9743 221.634 86.9453 221.119 86.0193C219.987 89.209 218.753 92.2958 217.415 95.3826C215.872 98.7781 214.534 102.174 212.99 105.466C215.666 105.672 218.238 105.981 220.81 106.186Z" stroke="#A42A29" stroke-width="0.1568" stroke-miterlimit="10"/>
<path d="M205.891 205.685C204.862 203.524 203.833 201.466 203.01 199.305C202.187 197.145 201.363 194.984 200.643 192.823C200.54 192.411 195.704 192.823 194.881 192.823C193.132 192.823 191.486 192.823 189.736 192.926C186.341 193.029 182.842 193.132 179.447 193.338C179.241 193.338 179.035 193.543 179.138 193.646C179.241 194.469 180.373 197.659 180.579 198.174C180.888 199.203 181.299 200.231 181.711 201.26C182.534 203.318 183.46 205.273 184.489 207.228C184.592 207.331 184.695 207.434 184.797 207.434C188.296 207.228 204.759 206.199 205.685 206.096C205.891 206.199 205.994 205.891 205.891 205.685Z" fill="#F1F2F2" stroke="#A42A29" stroke-width="0.0937592" stroke-miterlimit="10"/>
<path d="M194.778 193.44C195.601 193.44 196.527 193.44 197.351 193.44C198.174 193.44 198.997 193.543 199.82 193.44C199.511 193.955 199.203 194.572 198.894 195.087C198.482 195.807 198.071 196.424 197.556 197.145C196.63 198.482 195.601 199.717 194.47 200.849C194.161 201.157 193.852 201.363 193.646 201.672C193.544 201.672 193.544 201.775 193.441 201.775C193.338 201.775 193.235 201.672 193.132 201.672C192.926 201.569 192.72 201.466 192.515 201.363C191.691 200.849 190.868 200.437 190.045 199.923C188.399 198.997 186.753 198.071 185.106 197.145C184.18 196.63 183.254 196.116 182.328 195.601C181.402 195.087 180.579 194.572 179.653 194.058C182.945 193.852 186.238 193.646 189.531 193.646C191.383 193.543 193.132 193.44 194.778 193.44Z" fill="white"/>
<path d="M200.643 192.72C200.334 192.206 191.588 182.739 191.28 182.431C191.177 182.431 191.074 182.328 191.074 182.328C190.971 182.328 190.868 182.431 190.765 182.534C190.56 182.637 180.167 192.926 179.241 193.44C182.74 193.132 199.717 192.72 200.643 192.72Z" fill="#F1F2F2" stroke="#A42A29" stroke-width="0.0937592" stroke-miterlimit="10"/>
<path d="M200.335 205.993C198.585 206.096 196.836 206.199 195.087 206.302C191.691 206.405 188.296 206.611 184.9 206.817C183.974 204.964 183.048 203.009 182.225 201.055C181.814 200.026 181.402 199.1 181.093 198.071C180.888 197.659 180.785 197.247 180.579 196.836C180.476 196.321 180.27 195.91 180.064 195.498C179.962 195.19 179.859 194.881 179.756 194.469C180.476 194.881 181.196 195.292 181.917 195.704C182.74 196.218 183.563 196.63 184.386 197.145C186.135 198.173 187.781 199.1 189.531 200.128C190.354 200.643 191.28 201.157 192.103 201.569C192.309 201.672 192.515 201.775 192.72 201.878C192.926 201.981 193.132 202.083 193.338 202.186C193.749 202.289 193.955 201.878 194.264 201.672C195.499 200.54 196.63 199.305 197.659 197.968C198.174 197.247 199.923 194.469 200.232 193.955C200.952 195.807 201.672 197.762 202.495 199.511C203.421 201.569 204.244 203.524 205.068 205.582C203.524 205.685 201.981 205.891 200.335 205.993Z" fill="#F1F2F2"/>
<path d="M200.232 193.646C199.923 194.264 198.585 196.733 193.646 202.392C193.543 202.495 193.646 202.598 193.749 202.495C194.367 202.084 201.055 193.852 200.232 193.646Z" fill="#A42A29"/>
<path d="M192.926 201.981C191.28 201.054 181.093 195.087 180.167 194.675C180.99 195.292 191.897 201.775 192.926 201.981C193.029 202.083 192.926 202.083 192.926 201.981Z" fill="#A42A29"/>
<path d="M128.309 293.35C129.749 290.367 131.293 287.28 132.424 284.193C133.556 281.106 134.688 278.019 135.82 274.83C136.026 274.212 142.817 274.83 144.154 274.83C146.624 274.83 148.99 274.932 151.46 274.932C156.399 275.138 161.338 275.241 166.174 275.55C166.379 275.55 166.688 275.756 166.688 276.064C166.482 277.299 164.836 281.826 164.63 282.547C164.116 284.09 163.601 285.531 162.984 286.971C161.749 289.852 160.412 292.733 158.971 295.511C158.868 295.717 158.662 295.82 158.559 295.82C153.621 295.614 130.058 294.071 128.823 293.968C128.412 294.071 128.103 293.762 128.309 293.35Z" fill="#F1F2F2" stroke="#A42A29" stroke-width="0.1338" stroke-miterlimit="10"/>
<path d="M144.051 275.962C142.817 275.962 141.582 275.962 140.347 275.859C139.215 275.859 137.981 275.962 136.746 275.859C137.158 276.682 137.569 277.505 137.981 278.225C138.598 279.254 139.215 280.18 139.833 281.106C141.17 282.958 142.611 284.707 144.257 286.354C144.669 286.765 145.08 287.177 145.492 287.486C145.595 287.589 145.698 287.691 145.801 287.691C145.904 287.691 146.109 287.486 146.212 287.486C146.521 287.28 146.83 287.177 147.035 286.971C148.167 286.251 149.402 285.634 150.534 284.913C152.9 283.576 155.164 282.238 157.531 280.9C158.868 280.18 160.206 279.357 161.441 278.637C162.675 277.917 163.91 277.093 165.248 276.476C160.72 276.373 145.183 275.962 144.051 275.962Z" fill="white"/>
<path d="M135.82 274.933C136.334 274.109 148.785 260.63 149.196 260.219C149.299 260.116 149.402 260.013 149.505 260.013C149.608 260.013 149.814 260.219 149.916 260.219C150.225 260.425 165.042 275.035 166.379 275.756C161.338 275.55 137.055 274.83 135.82 274.933Z" fill="#F1F2F2" stroke="#A42A29" stroke-width="0.1338" stroke-miterlimit="10"/>
<path d="M136.231 293.865C138.701 294.071 141.17 294.174 143.64 294.276C148.476 294.482 153.312 294.791 158.251 294.997C159.588 292.322 160.926 289.543 162.058 286.765C162.675 285.325 163.19 283.987 163.704 282.547C163.91 281.929 164.116 281.312 164.424 280.695C164.63 279.974 164.939 279.357 165.145 278.74C165.35 278.328 165.453 277.813 165.556 277.299C164.527 277.916 163.498 278.534 162.367 279.151C161.132 279.871 160 280.489 158.765 281.209C156.296 282.649 153.826 284.09 151.46 285.428C150.225 286.148 148.99 286.868 147.858 287.588C147.55 287.794 147.241 287.897 147.035 288.103C146.83 288.206 146.521 288.412 146.212 288.514C145.698 288.617 145.286 288.103 144.977 287.794C143.228 286.148 141.582 284.399 140.244 282.444C139.421 281.415 137.055 277.505 136.643 276.682C135.717 279.357 134.585 282.032 133.453 284.707C132.219 287.588 130.984 290.469 129.749 293.35C131.807 293.35 133.968 293.659 136.231 293.865Z" fill="#F1F2F2"/>
<path d="M136.437 276.167C136.952 277.093 138.804 280.592 145.801 288.617C145.904 288.72 145.801 288.926 145.698 288.823C144.875 288.206 135.305 276.579 136.437 276.167C136.334 276.167 136.334 276.167 136.437 276.167Z" fill="#A42A29"/>
<path d="M146.83 288.103C149.196 286.765 163.601 278.225 165.042 277.711C163.91 278.431 148.27 287.794 146.83 288.206C146.83 288.309 146.727 288.206 146.83 288.103Z" fill="#A42A29"/>
<path d="M193.235 255.897C194.675 252.913 196.219 249.826 197.35 246.74C198.482 243.653 199.614 240.566 200.746 237.376C200.952 236.759 207.743 237.376 209.08 237.376C211.55 237.376 213.916 237.479 216.386 237.479C221.325 237.685 226.264 237.788 231.1 238.096C231.305 238.096 231.614 238.302 231.614 238.611C231.408 239.846 229.762 244.373 229.556 245.093C229.042 246.637 228.527 248.077 227.91 249.518C226.675 252.399 225.338 255.28 223.897 258.058C223.794 258.264 223.588 258.367 223.486 258.367C218.547 258.161 194.984 256.617 193.749 256.514C193.235 256.72 193.029 256.309 193.235 255.897Z" fill="#F1F2F2" stroke="#A42A29" stroke-width="0.1338" stroke-miterlimit="10"/>
<path d="M209.08 238.508C207.846 238.508 206.611 238.508 205.376 238.405C204.244 238.405 203.01 238.508 201.775 238.405C202.186 239.228 202.598 240.052 203.01 240.772C203.627 241.801 204.244 242.727 204.862 243.653C206.199 245.505 207.64 247.254 209.286 248.9C209.698 249.312 210.109 249.724 210.521 250.032C210.624 250.135 210.727 250.238 210.83 250.238C210.932 250.238 211.138 250.032 211.241 250.032C211.55 249.826 211.859 249.724 212.064 249.518C213.196 248.798 214.431 248.18 215.563 247.46C217.929 246.122 220.193 244.785 222.559 243.447C223.897 242.727 225.235 241.904 226.469 241.183C227.704 240.463 228.939 239.64 230.277 239.023C225.543 238.714 220.81 238.508 216.18 238.405C213.916 238.611 211.447 238.508 209.08 238.508Z" fill="white"/>
<path d="M200.746 237.479C201.26 236.656 213.711 223.177 214.122 222.765C214.225 222.662 214.328 222.56 214.431 222.56C214.534 222.56 214.74 222.765 214.842 222.765C215.151 222.971 229.968 237.582 231.305 238.302C226.264 238.097 201.981 237.479 200.746 237.479Z" fill="#F1F2F2" stroke="#A42A29" stroke-width="0.1338" stroke-miterlimit="10"/>
<path d="M201.158 256.412C203.627 256.617 206.097 256.72 208.566 256.823C213.402 257.029 218.238 257.338 223.177 257.543C224.515 254.868 225.852 252.09 226.984 249.312C227.601 247.871 228.116 246.534 228.63 245.093C228.836 244.476 229.042 243.858 229.351 243.241C229.556 242.521 229.865 241.904 230.071 241.286C230.277 240.875 230.379 240.36 230.482 239.846C229.453 240.463 228.424 241.08 227.293 241.698C226.058 242.418 224.926 243.035 223.691 243.756C221.222 245.196 218.752 246.637 216.386 247.974C215.151 248.694 213.916 249.415 212.785 250.135C212.476 250.341 212.167 250.444 211.961 250.649C211.756 250.752 211.447 250.958 211.138 251.061C210.624 251.164 210.212 250.649 209.904 250.341C208.154 248.695 206.508 246.945 205.17 244.99C204.347 243.961 201.981 240.051 201.569 239.228C200.643 241.904 199.511 244.579 198.379 247.254C197.145 250.135 195.91 253.016 194.675 255.897C196.63 256 198.894 256.309 201.158 256.412Z" fill="#F1F2F2"/>
<path d="M201.26 238.714C201.775 239.64 203.627 243.138 210.624 251.164C210.727 251.267 210.624 251.473 210.521 251.37C209.698 250.752 200.232 239.125 201.26 238.714Z" fill="#A42A29"/>
<path d="M211.756 250.752C214.122 249.415 228.527 240.875 229.968 240.36C228.836 241.08 213.196 250.444 211.756 250.855C211.653 250.855 211.653 250.752 211.756 250.752Z" fill="#A42A29"/>
<path d="M200.952 288.206C203.215 287.897 205.582 287.691 207.64 287.28C209.698 286.971 211.653 286.559 213.608 286.251C214.019 286.148 220.399 287.485 221.633 287.691C224 288.103 226.367 288.514 228.733 289.029C233.466 289.955 238.199 290.881 242.83 291.704C243.035 291.704 243.344 291.807 243.138 291.91C242.624 292.116 239.743 292.63 239.228 292.733C238.302 292.939 237.376 293.042 236.347 293.247C234.392 293.556 232.232 293.865 229.968 294.071C229.865 294.071 229.659 294.071 229.453 294.071C224.72 293.145 202.289 288.72 201.055 288.411C200.746 288.411 200.643 288.309 200.952 288.206Z" fill="#F1F2F2" stroke="#A42A29" stroke-width="0.2142" stroke-miterlimit="10"/>
<path d="M221.119 287.691C219.884 287.485 218.752 287.28 217.518 286.971C216.386 286.765 215.151 286.559 214.019 286.354C214.225 286.559 214.328 286.765 214.534 286.971C214.842 287.28 215.151 287.588 215.46 287.794C216.18 288.411 217.106 288.926 218.238 289.543C218.547 289.646 218.752 289.852 219.061 289.955C219.164 289.955 219.164 290.058 219.37 290.058C219.473 290.058 219.678 290.058 219.781 290.058C220.09 290.058 220.399 290.058 220.81 290.161C222.148 290.263 223.486 290.366 224.823 290.469C227.498 290.675 230.174 290.778 232.849 290.984C234.392 291.087 235.833 291.19 237.376 291.292C238.817 291.395 240.257 291.498 241.698 291.601C237.17 290.675 232.746 289.852 228.116 289.029C225.852 288.514 223.486 288.103 221.119 287.691Z" fill="#F1F2F2"/>
<path d="M208.257 289.646C210.624 290.161 212.99 290.572 215.357 291.087C219.987 292.013 224.617 292.836 229.248 293.762C229.35 293.762 229.35 293.762 229.453 293.762C231.511 293.556 233.569 293.247 235.421 292.939C236.347 292.836 237.273 292.63 238.199 292.424C238.611 292.321 239.022 292.321 239.434 292.219C239.846 292.116 240.257 292.116 240.669 292.013C240.977 291.91 241.183 291.91 241.492 291.807C240.257 291.704 239.125 291.704 237.891 291.601C236.553 291.498 235.215 291.395 233.775 291.292C230.997 291.087 228.219 290.984 225.44 290.778C224.103 290.675 222.662 290.572 221.325 290.469C221.016 290.469 220.707 290.469 220.296 290.366C219.987 290.366 219.678 290.366 219.37 290.264C218.855 290.161 218.547 290.058 218.341 289.852C217.106 289.235 216.077 288.617 215.254 288C214.842 287.691 214.019 286.971 213.608 286.559C213.505 286.456 213.299 286.354 213.093 286.456C211.447 286.765 209.801 287.074 207.949 287.28C206.92 287.383 205.891 287.588 204.862 287.691C204.244 287.794 204.244 288.617 204.862 288.72C205.994 289.235 207.125 289.44 208.257 289.646Z" fill="#F1F2F2"/>
<path d="M213.814 286.559C214.019 286.765 214.843 287.794 219.37 290.469C219.473 290.469 219.267 290.469 219.164 290.469C218.547 290.264 212.579 286.457 213.814 286.559C213.814 286.559 213.711 286.559 213.814 286.559Z" fill="#A42A29"/>
<path d="M220.399 290.572C223.074 290.778 239.537 291.807 241.183 291.91C239.846 291.807 221.942 290.778 220.399 290.572C220.296 290.572 220.399 290.572 220.399 290.572Z" fill="#A42A29"/>
<path d="M170.084 284.913C170.186 284.81 178.727 286.559 178.727 286.559L188.913 287.485L203.73 286.354C203.73 286.354 207.846 286.354 206.92 292.321C205.994 298.186 203.215 297.672 203.215 297.672L184.9 294.071L178.109 293.145L169.26 293.042C169.26 293.042 165.659 291.91 166.071 288.411C166.585 284.913 170.084 284.913 170.084 284.913Z" fill="#F1F2F2" stroke="#A42A29" stroke-width="0.1338" stroke-miterlimit="10"/>
<path d="M202.289 284.913C202.084 285.016 199.1 289.029 199.203 292.63C199.305 296.129 203.215 297.775 203.215 297.775L178.727 293.248H169.26C169.26 293.248 165.453 292.63 165.453 288.926C165.453 286.457 168.026 284.399 168.026 284.399C168.026 284.399 174.714 286.765 176.36 286.971C178.006 287.177 188.604 288 192.412 287.28C196.219 286.559 202.289 284.913 202.289 284.913Z" fill="#F1F2F2" stroke="#A42A29" stroke-width="0.1338" stroke-miterlimit="10"/>
<path d="M189.016 287.177C186.752 286.868 179.344 286.354 179.138 286.354C178.315 286.662 176.977 287.382 176.566 289.337C176.154 291.292 177.595 293.247 178.83 293.556C180.785 293.968 182.945 294.276 184.797 294.379C185.003 294.379 185.106 294.173 184.9 293.968C183.563 292.219 183.666 290.675 184.489 289.44C185.518 288 187.164 287.28 189.016 287.382C189.119 287.382 189.119 287.177 189.016 287.177Z" fill="#8F2524"/>
<path d="M197.145 289.646C196.116 289.646 195.087 289.749 194.161 289.852C193.235 289.955 192.206 289.955 191.28 289.955C189.325 289.955 187.37 289.646 185.415 289.543C187.37 289.852 189.325 289.955 191.28 290.058C192.309 290.058 193.235 290.058 194.264 290.058C195.19 290.058 196.219 290.058 197.145 289.852C197.248 289.749 197.145 289.646 197.145 289.646Z" fill="#A42A29"/>
<path d="M196.424 291.704C194.469 291.704 192.412 291.601 190.457 291.396C189.428 291.293 188.399 291.19 187.37 290.984C186.444 290.778 185.518 290.572 184.592 290.469C184.592 290.469 184.489 290.572 184.592 290.572C185.518 290.984 186.547 291.087 187.473 291.19C188.399 291.293 189.325 291.396 190.354 291.498C192.309 291.704 194.367 291.807 196.424 291.704C196.527 291.704 196.527 291.807 196.424 291.704Z" fill="#A42A29"/>
<path d="M197.042 294.071C194.984 293.762 192.823 293.453 190.765 293.145C189.736 292.939 188.707 292.836 187.678 292.63C186.65 292.527 185.621 292.321 184.695 292.219C184.695 292.219 184.695 292.219 184.695 292.321C185.724 292.63 186.855 292.63 187.884 292.836C188.913 293.042 189.839 293.145 190.868 293.247C192.926 293.556 194.984 293.968 197.042 294.071C197.145 294.173 197.042 294.276 197.042 294.071Z" fill="#A42A29"/>
<path d="M196.424 295.614C194.675 294.997 192.823 294.688 190.971 294.379C190.045 294.174 189.222 294.071 188.296 293.968C187.37 293.865 186.547 293.659 185.621 293.762C186.444 293.968 187.37 294.071 188.296 294.173C189.222 294.276 190.148 294.482 191.074 294.585C192.823 294.997 194.675 295.408 196.424 295.614C196.527 295.614 196.527 295.717 196.424 295.614Z" fill="#A42A29"/>
<path d="M175.331 288.206C174.096 287.897 172.965 287.588 171.73 287.177C171.112 286.971 170.495 286.868 169.981 286.56C169.363 286.354 168.849 286.045 168.231 285.942C168.746 286.251 169.26 286.457 169.775 286.662C170.392 286.868 171.01 287.074 171.627 287.28C172.862 287.691 174.096 288.103 175.331 288.206C175.331 288.206 175.331 288.309 175.331 288.206Z" fill="#A42A29"/>
<path d="M175.434 289.543C174.096 289.132 172.656 288.823 171.215 288.617C169.878 288.309 168.437 287.897 167.1 287.794C168.437 288.309 169.878 288.514 171.215 288.823C172.553 289.029 173.994 289.44 175.434 289.543C175.434 289.543 175.434 289.646 175.434 289.543Z" fill="#A42A29"/>
<path d="M175.949 291.087C175.331 290.881 174.611 290.881 173.891 290.778C173.17 290.675 172.45 290.572 171.73 290.572C170.289 290.366 168.849 290.161 167.305 290.161C168.643 290.469 170.084 290.572 171.524 290.675C172.244 290.778 172.965 290.778 173.685 290.881C174.508 290.984 175.228 291.087 175.949 291.087C176.051 291.087 175.949 291.087 175.949 291.087Z" fill="#A42A29"/>
<path d="M176.154 292.322C175.64 292.116 175.022 292.116 174.405 292.116C173.788 292.013 173.17 292.013 172.553 292.013C171.318 291.91 169.981 292.013 168.746 292.116C169.981 292.116 171.215 292.219 172.45 292.219C173.068 292.219 173.685 292.322 174.302 292.322C174.92 292.322 175.537 292.424 176.154 292.322C176.154 292.322 176.154 292.424 176.154 292.322Z" fill="#A42A29"/>
<path d="M206.508 289.646C206.508 289.235 206.405 288.823 206.199 288.411C205.994 288 205.788 287.691 205.479 287.485C205.273 287.383 204.965 287.28 204.656 287.177C204.656 287.074 204.553 287.074 204.45 287.177C204.45 287.177 204.45 287.177 204.347 287.177C204.244 287.177 204.142 287.177 204.039 287.177C203.833 287.28 203.73 287.28 203.524 287.383C203.113 287.588 202.804 287.794 202.495 288.103C202.187 288.412 201.981 288.72 201.775 289.029C201.672 289.235 201.569 289.338 201.466 289.543C201.466 289.646 201.466 289.646 201.363 289.749C201.055 290.264 200.849 290.881 200.746 291.498C200.54 292.527 200.54 293.659 200.952 294.688C201.26 295.408 202.084 296.643 203.215 296.643C204.45 296.643 205.17 295.511 205.582 294.688C206.097 293.659 206.405 292.424 206.405 291.293C206.405 291.087 206.405 290.778 206.405 290.572C206.508 290.264 206.508 289.955 206.508 289.646Z" fill="#A42A29"/>
<path d="M205.479 294.585C205.17 295.305 204.244 296.849 202.907 296.437C202.392 296.334 202.084 295.82 201.775 295.511C201.466 295.1 201.26 294.688 201.055 294.174C200.643 293.248 200.643 292.116 201.055 291.19C201.158 290.778 201.363 290.366 201.569 289.955C201.569 289.852 201.672 289.852 201.672 289.749C201.775 289.543 201.878 289.44 201.981 289.235C202.186 288.926 202.392 288.617 202.598 288.309C202.804 288.103 203.01 287.794 203.318 287.588C203.421 287.485 204.039 287.074 204.347 287.177C204.347 287.177 204.347 287.177 204.45 287.177L204.553 287.28C204.656 287.28 204.656 287.28 204.759 287.177C205.17 287.28 205.376 287.485 205.685 287.691C205.994 288 206.199 288.309 206.302 288.617C206.405 288.823 206.405 288.926 206.508 289.132C206.508 289.338 206.508 289.44 206.508 289.646C206.405 289.235 206.199 288.823 205.685 288.617C204.656 288.206 203.524 288.926 203.01 289.543C202.289 290.469 201.878 291.498 201.981 292.63C201.981 293.35 202.289 295.1 203.627 294.997C204.244 294.894 204.553 294.482 204.759 294.071C205.17 293.453 205.376 292.836 205.685 292.116C205.685 292.116 205.685 292.116 205.582 292.116C205.685 291.91 205.685 291.807 205.685 291.601C205.788 291.19 205.788 290.778 205.685 290.469C205.582 290.264 205.479 289.749 205.17 289.749C204.759 289.749 204.45 289.955 204.141 290.161C203.833 290.366 203.627 290.675 203.524 290.984C203.318 291.395 203.215 291.807 203.215 292.219C203.215 292.424 203.215 292.63 203.215 292.836C203.215 292.939 203.215 293.145 203.318 293.248C203.627 293.556 204.039 293.145 204.141 292.939C204.45 292.424 204.759 291.91 205.068 291.395C205.068 291.395 205.068 291.293 204.965 291.293C204.45 291.395 204.039 291.395 203.524 291.395C203.524 291.395 203.524 291.395 203.421 291.395C203.524 290.984 203.73 290.469 204.141 290.161C204.347 290.058 204.553 289.852 204.759 289.852C205.17 289.749 205.376 290.058 205.479 290.366C205.582 290.778 205.582 291.293 205.479 291.704C205.376 292.321 205.068 292.836 204.862 293.453C204.862 293.556 204.759 293.556 204.759 293.659C204.553 294.071 204.347 294.585 203.936 294.894C203.113 295.408 202.495 294.585 202.289 294.071C202.084 293.659 201.981 293.145 201.981 292.63C201.981 291.704 202.289 290.778 202.804 289.955C203.113 289.543 203.421 289.132 203.936 288.926C204.656 288.617 205.479 288.617 205.891 289.132C206.302 289.543 206.302 290.161 206.405 290.778C206.405 290.881 206.405 290.984 206.405 290.984C206.405 291.19 206.405 291.395 206.405 291.601C206.199 292.733 205.891 293.659 205.479 294.585Z" fill="#E6E7E8"/>
<path d="M203.421 291.601C203.936 291.704 204.45 291.601 204.862 291.498C204.656 291.91 204.347 292.219 204.141 292.63C204.039 292.733 204.039 292.836 203.936 292.939C203.936 293.042 203.833 293.145 203.73 293.248C203.318 293.453 203.318 292.836 203.318 292.733C203.215 292.321 203.318 291.91 203.421 291.601Z" fill="#D1D3D4"/>
<path d="M262.174 83.4469C259.704 75.0096 246.945 78.508 249.209 87.0482C251.678 95.3826 264.437 91.9871 262.174 83.4469Z" fill="#A42A29"/>
<path d="M254.354 84.9903C254.457 85.9163 254.457 86.9452 254.559 87.8713C254.457 87.8713 254.354 87.8713 254.251 87.8713C254.148 87.8713 254.045 87.8713 253.942 87.9742C253.942 87.9742 253.839 87.9742 253.839 88.0771C253.53 88.2829 253.428 88.6944 253.736 88.9002C253.839 89.0031 253.942 89.106 254.045 89.106C254.148 89.2089 254.354 89.2089 254.457 89.2089C254.662 89.2089 254.868 89.2089 255.177 89.2089C255.383 89.2089 255.588 89.2089 255.897 89.106C256.206 89.0031 256.514 89.0031 256.617 88.7973C256.72 88.5916 256.823 88.4887 256.823 88.2829C256.823 88.0771 256.72 87.8713 256.514 87.7684C256.412 87.7684 256.412 87.6655 256.309 87.6655C256.206 87.6655 256.103 87.6655 256 87.6655C256 86.7395 256 85.8134 255.897 84.8874C255.897 83.7555 255.794 82.6237 255.588 81.5948C255.485 81.1832 254.868 80.9774 254.457 81.2861C253.942 81.8005 253.428 82.2121 253.222 82.9324C253.119 83.2411 253.53 83.4468 253.736 83.344C253.942 83.2411 254.045 83.1382 254.251 82.9324C254.148 83.7555 254.251 84.3729 254.354 84.9903Z" fill="#F2F2F3"/>
<path d="M255.074 91.164C254.868 91.0611 254.662 90.9582 254.457 90.9582C254.251 90.8553 254.045 90.8553 253.839 90.7524C253.428 90.5466 253.016 90.3408 252.604 90.135C252.296 89.9293 251.987 89.6206 251.678 89.3119C251.575 89.209 251.473 89.0032 251.267 88.7974C251.164 88.6945 251.164 88.6945 251.061 88.5916C250.958 88.4887 250.855 88.3859 250.855 88.283C250.855 88.3859 250.855 88.4887 250.855 88.5916C250.855 88.6945 250.958 88.7974 250.958 88.9003C251.061 89.1061 251.164 89.3119 251.267 89.4148C251.575 89.7235 251.884 90.0322 252.296 90.3408C252.707 90.6495 253.119 90.8553 253.633 90.9582C253.839 91.0611 254.148 91.164 254.354 91.164C254.559 91.2669 254.868 91.2669 255.074 91.2669C255.177 91.3698 255.177 91.2669 255.074 91.164Z" fill="#F2F2F3"/>
<path d="M261.659 83.241C261.248 82.2121 260.63 81.1832 259.704 80.5658C258.984 80.0513 258.161 79.5369 257.235 79.434C257.029 79.3311 256.926 79.3311 256.72 79.2282C256.309 79.1253 255.794 79.0224 255.383 79.2282C254.971 79.434 254.868 79.9484 255.28 80.2571C255.486 80.36 255.691 80.4629 255.897 80.5658C256.206 80.6687 256.514 80.7716 256.823 80.8745C257.44 81.0803 258.058 81.389 258.572 81.8005C259.087 82.2121 259.395 82.7266 259.293 83.3439C259.19 83.8584 258.675 84.27 258.264 84.6816C257.543 85.5047 257.132 86.6365 257.646 87.6655C258.058 88.5915 258.984 89.2089 260.013 89.0031C260.424 88.9002 260.939 88.6944 261.248 88.3857C261.659 87.9742 261.762 87.3568 261.865 86.8423C261.968 85.6076 262.071 84.3729 261.659 83.241Z" fill="white" fill-opacity="0.2"/>
<path d="M257.955 92.1928C257.441 92.2957 256.926 92.3986 256.515 92.3986C256 92.5015 255.486 92.5015 255.074 92.3986C254.045 92.2957 253.119 92.0899 252.193 91.5755C250.444 90.6494 249.209 89.0031 248.592 87.151C248.489 86.6365 248.386 86.1221 248.283 85.6076C248.18 85.0931 248.18 84.4758 248.077 83.8584C248.077 83.7555 247.974 83.7555 247.974 83.8584C247.769 84.3729 247.563 83.9613 247.46 84.5787C247.46 85.0931 247.563 86.5337 247.769 87.0481C247.974 88.0771 248.489 89.106 249.106 89.9292C250.444 91.6783 252.399 92.7073 254.56 93.016C255.177 93.1189 255.794 93.016 256.412 93.016C257.029 92.9131 257.543 92.7073 258.161 92.5015C258.264 92.3986 258.161 92.0899 257.955 92.1928Z" fill="#A42A29"/>
<path d="M263.408 83.5499C263.305 83.2413 263.203 82.7268 262.894 82.521H262.791C262.688 82.8297 262.791 83.2413 262.894 83.5499C262.997 83.9615 262.997 84.3731 262.997 84.8876C262.997 85.7107 262.894 86.5339 262.688 87.357C262.482 88.0773 262.174 88.6946 261.762 89.312C261.556 89.6207 261.35 89.9294 261.145 90.238C260.939 90.5467 260.63 90.7525 260.322 90.9583C260.219 91.0612 260.322 91.1641 260.424 91.0612C260.733 90.8554 261.042 90.6496 261.248 90.3409C261.556 90.0323 261.762 89.8265 262.071 89.5178C262.585 88.9004 262.894 88.1802 263.203 87.4599C263.511 86.6368 263.614 85.7107 263.614 84.7847C263.511 84.3731 263.511 83.9615 263.408 83.5499Z" fill="#A42A29"/>
<path d="M232.54 80.1543C232.232 80.3601 232.334 80.7717 232.334 81.0803C232.334 81.4919 232.334 81.9035 232.334 82.3151C232.334 82.7266 232.334 83.1382 232.334 83.5498C232.334 83.7556 232.334 84.0643 232.334 84.373C232.232 84.373 232.232 84.3729 232.129 84.4758C232.026 84.5787 231.923 84.6816 231.82 84.7845C231.614 84.9903 231.408 85.1961 231.305 85.5048C231.305 85.6077 231.305 85.6077 231.203 85.7106C231.203 85.8135 231.1 85.9164 231.203 86.0193C231.203 86.1221 231.305 86.1221 231.408 86.1221C231.511 86.1221 231.614 86.0193 231.614 85.9164C231.614 85.8135 231.614 85.8135 231.717 85.7106C231.717 85.7106 231.717 85.7106 231.717 85.6077C231.717 85.6077 231.717 85.6077 231.717 85.5048C231.82 85.4019 231.82 85.299 231.923 85.1961C231.923 85.4019 231.82 85.6077 231.923 85.7106C231.923 85.8135 232.026 86.0193 232.129 86.1221C232.232 86.1221 232.334 86.1221 232.334 86.0193C232.334 85.9164 232.334 85.9164 232.334 85.8135C232.334 85.7106 232.334 85.7106 232.334 85.6077V85.5048C232.334 85.4019 232.334 85.4019 232.334 85.299V85.1961C232.334 85.0932 232.334 85.0932 232.437 84.9903V84.8874C232.437 84.7845 232.54 84.7845 232.54 84.6816C232.54 84.5787 232.54 84.5787 232.54 84.4758C232.54 84.4758 232.54 84.4758 232.54 84.373C232.54 84.2701 232.54 84.1672 232.54 84.1672C232.54 83.9614 232.54 83.7556 232.54 83.5498C232.54 83.1382 232.54 82.7266 232.54 82.3151C232.54 81.9035 232.54 81.4919 232.54 81.0803C232.746 80.8746 232.746 80.3601 232.54 80.1543Z" fill="#D8D8D8"/>
<path d="M244.373 71.0996C241.286 71.3054 235.113 69.762 233.878 68.6301C231.305 66.1607 232.026 60.9131 228.527 60.9131C224.617 60.9131 223.794 66.6751 223.794 68.733C223.794 70.7909 223.794 77.7877 231.408 80.5658C243.344 84.8874 247.254 72.3343 247.46 70.3793C247.357 69.9678 246.019 70.9967 244.373 71.0996Z" fill="#D8D8D8"/>
<path d="M235.627 80.8745C235.627 80.7716 235.524 80.1542 235.318 80.2571C235.113 80.36 235.113 80.8745 235.113 81.0803C235.113 81.389 235.113 81.8005 235.113 82.1092C235.113 82.8295 235.215 83.5497 235.215 84.27H235.113C235.01 84.27 235.01 84.3729 234.907 84.3729C234.804 84.4758 234.701 84.5787 234.598 84.6816C234.495 84.7845 234.392 84.9902 234.392 85.0931C234.289 85.2989 234.289 85.4018 234.289 85.6076C234.289 85.7105 234.495 85.7105 234.495 85.6076C234.598 85.5047 234.598 85.4018 234.701 85.196C234.701 85.0931 234.804 85.0931 234.804 84.9902C234.804 85.0931 234.804 85.196 234.804 85.2989C234.804 85.5047 234.907 85.7105 235.01 85.8134C235.113 85.9163 235.215 85.8134 235.215 85.7105C235.215 85.6076 235.215 85.6076 235.215 85.5047V85.4018C235.215 85.2989 235.215 85.2989 235.215 85.196V85.0931C235.215 85.0931 235.215 85.0931 235.215 84.9902C235.318 84.8873 235.318 84.7845 235.421 84.5787C235.421 84.4758 235.524 84.4758 235.524 84.3729V84.27C235.524 84.27 235.627 84.1671 235.627 84.0642C235.627 83.3439 235.627 82.5208 235.524 81.8005C235.627 81.6976 235.627 81.2861 235.627 80.8745Z" fill="#EBEBEB"/>
<path d="M244.785 71.2026C244.579 71.3055 244.476 71.4084 244.27 71.5113C244.27 71.4084 244.27 71.3055 244.373 71.0997C244.373 70.791 242.624 71.5113 239.434 70.9968C237.685 70.6881 235.524 69.4534 233.158 70.6881C229.248 73.6721 231.511 77.9936 233.981 78.4052C235.524 78.7139 237.17 78.611 238.611 78.0965C241.389 77.3762 243.859 73.9807 243.961 73.775C244.373 73.0547 245.093 70.9968 244.785 71.2026Z" fill="#EBEBEB"/>
<path d="M229.145 63.9999V63.897V63.7941C229.145 63.6912 229.042 63.6912 229.042 63.6912C228.939 63.6912 228.939 63.5883 228.836 63.6912H228.733C228.63 63.6912 228.63 63.6912 228.527 63.7941C228.527 63.7941 228.424 63.897 228.424 63.9999V64.1028V64.2057C228.424 64.2057 228.424 64.2057 228.527 64.3086C228.527 64.3086 228.63 64.4115 228.733 64.4115C228.836 64.4115 228.836 64.4115 228.939 64.4115C228.939 64.4115 229.042 64.4115 229.042 64.3086L229.145 64.2057C229.042 64.1028 229.145 63.9999 229.145 63.9999Z" fill="#EBEBEB"/>
<path d="M226.367 65.1317C226.367 65.0288 225.235 64.3086 225.235 64.3086C225.029 64.3086 222.765 64.8231 222.56 64.926C222.457 64.926 222.457 65.1317 222.56 65.1317C222.868 65.2346 224.72 65.7491 224.926 65.7491C225.132 65.7491 226.161 65.4404 226.264 65.3375C226.47 65.2346 226.47 65.2346 226.367 65.1317Z" fill="#EBEBEB"/>
</svg>
