<svg width="320" height="320" viewBox="0 0 320 320" fill="none" xmlns="http://www.w3.org/2000/svg">
<path d="M280.799 212.512C328.547 143.517 277.297 64.9979 209.813 36.6378C177.556 23.0927 137.447 21.3996 102.75 32.1933C86.3034 31.77 69.8567 35.8971 55.32 45.9501C21.7899 69.4424 10.6486 110.607 19.2434 144.893C27.6259 178.332 52.5612 205.952 78.3453 229.021C103.917 251.878 138.402 265.846 176.07 263.095C214.057 260.238 259.153 243.73 280.799 212.512Z" fill="#F7F7F7"/>
<path d="M156.651 69.8651C128.745 55.156 93.9417 55.2618 65.2926 73.1456C22.319 99.9183 9.37391 156.321 36.2191 199.179C63.0644 241.93 119.62 254.946 162.487 228.174C205.355 201.401 218.406 144.998 191.561 102.246C185.831 93.1458 178.722 85.315 170.658 79.0716L156.651 69.8651Z" fill="#EBEBEB"/>
<path d="M156.653 69.8657C151.453 67.2201 146.042 64.9979 140.524 63.3048C134.901 61.7174 129.171 60.5534 123.441 59.9185C117.605 59.3894 111.769 59.2836 106.039 59.8127C104.554 59.9185 103.174 60.1301 101.689 60.3418L99.5668 60.6592L97.4446 61.0825C96.0652 61.4 94.5797 61.6116 93.2003 61.9291L88.956 62.9873C87.5766 63.3048 86.1972 63.8339 84.8178 64.2572C83.4384 64.6804 82.059 65.1037 80.6796 65.7386L76.6475 67.4318C75.3742 68.0667 73.9948 68.7016 72.7215 69.3366L70.8116 70.289L68.9017 71.3472C67.6284 72.0879 66.3551 72.8287 65.1879 73.5694L61.5802 76.0033L57.8665 78.4372C48.6351 85.5272 40.8892 94.4162 34.9472 104.469C29.1113 114.522 25.1853 125.633 23.3815 137.062C21.6837 148.491 22.1082 160.343 24.7609 171.56C27.4136 182.883 32.2945 193.571 38.9793 203.094C45.6641 212.618 54.1527 220.767 63.9146 227.01C73.7826 233.253 84.7117 237.698 96.0652 239.92C107.419 242.142 119.303 242.248 130.656 240.132C153.469 235.899 174.585 222.671 188.061 203.835C194.851 194.417 199.838 183.729 202.597 172.406C205.356 161.189 205.993 149.337 204.401 137.909C201.218 114.945 188.909 93.2521 170.553 78.8605L156.653 69.8657ZM156.653 69.8657L170.765 78.9663C189.122 93.2521 201.536 114.945 204.826 138.014C206.417 149.549 205.887 161.401 203.022 172.618C200.263 183.941 195.276 194.735 188.485 204.153C174.903 223.2 153.788 236.534 130.869 240.767C119.409 242.883 107.525 242.883 96.0652 240.555C84.6056 238.333 73.5704 233.888 63.8085 227.539C54.0466 221.19 45.4519 212.936 38.7671 203.412C32.0823 193.888 27.2013 183.094 24.5487 171.666C21.7899 160.343 21.3654 148.491 23.0631 136.956C24.867 125.422 28.793 114.311 34.735 104.258C40.677 94.2045 48.529 85.3156 57.7603 78.2255L61.2619 75.6858L64.8696 73.2519C66.1429 72.5112 67.4161 71.7705 68.6894 71.0297L70.5994 69.9715L72.5093 69.0191C73.7826 68.3842 75.162 67.7492 76.4353 67.1143L80.4674 65.4212C81.8468 64.7863 83.2262 64.363 84.6056 63.9397C85.985 63.5164 87.3644 62.9873 88.7438 62.6698L92.9881 61.6116C94.3675 61.2942 95.853 61.0825 97.2324 60.7651L99.3545 60.3418L101.477 60.0243C102.962 59.8127 104.342 59.601 105.827 59.4952C111.663 58.9661 117.499 59.1777 123.229 59.7068C129.065 60.3418 134.688 61.5058 140.312 63.1989C146.042 64.8921 151.453 67.2201 156.653 69.8657Z" fill="#A42A29"/>
<path d="M188.482 109.972H200.048C201.852 109.972 203.337 111.983 202.701 113.676L191.029 136.322C190.604 137.168 189.649 137.803 188.694 137.803H174.582C172.99 137.591 172.354 135.793 172.99 134.84L184.238 112.618C185.193 111.03 186.784 109.972 188.482 109.972Z" fill="#455B64"/>
<path d="M189.333 111.348H200.898C202.384 111.348 203.339 112.83 202.596 114.205L191.242 136.322C190.818 137.169 189.863 137.803 188.908 137.803H174.902C174.053 137.803 173.522 136.957 173.841 136.11L185.088 113.888C185.937 112.406 187.529 111.348 189.333 111.348Z" fill="#263238"/>
<path d="M193.045 117.168C193.866 117.168 194.531 116.504 194.531 115.686C194.531 114.868 193.866 114.205 193.045 114.205C192.225 114.205 191.56 114.868 191.56 115.686C191.56 116.504 192.225 117.168 193.045 117.168Z" fill="#FAFBFB"/>
<path d="M201.323 125.528C199.943 115.051 198.458 124.364 197.397 123.729C195.062 122.565 190.818 120.025 186.468 115.157C185.937 114.522 185.3 113.887 184.664 113.147C184.558 113.147 184.451 113.147 184.345 113.041C184.027 113.676 183.603 114.416 183.178 115.051C185.619 117.909 188.059 121.083 188.059 121.083C185.725 119.707 183.709 118.226 182.011 116.85C181.587 117.591 181.056 118.226 180.738 118.967C180.738 119.073 180.632 119.073 180.632 119.178C184.876 123.2 184.982 124.258 184.982 124.258C184.239 124.681 181.799 123.411 179.358 122.036C179.04 122.776 178.828 123.411 178.509 124.152C181.162 125.633 183.709 127.115 183.921 128.702C183.921 128.702 180.95 128.702 177.979 127.75C177.554 127.644 177.236 127.538 176.918 127.432C176.706 127.962 176.6 128.596 176.387 129.126C179.146 130.925 185.194 135.263 184.876 137.909C184.345 142.247 187.741 145.105 191.136 142.988C191.879 142.565 194.001 144.681 198.67 135.581C199.413 134.099 201.853 130.184 201.323 125.528Z" fill="#B86658"/>
<path d="M114.103 241.825C117.711 242.036 121.319 242.142 124.926 241.719C133.946 240.661 142.222 237.592 150.392 233.782C155.273 231.56 161.003 229.867 165.778 227.116C163.231 212.195 159.73 197.909 154.849 186.586L122.168 187.327C123.016 204.47 111.981 222.671 114.103 241.825Z" fill="#A55A51"/>
<path d="M83.862 236.745C91.82 238.862 96.0643 240.026 101.158 240.555C109.222 241.296 114.209 241.825 125.032 241.719C130.762 241.613 136.279 239.603 141.585 237.592C151.028 216.851 154.954 186.586 154.954 186.586L105.932 188.808C105.932 188.808 85.3475 205.846 83.862 236.745C83.7559 236.745 83.7559 236.745 83.862 236.745Z" fill="#B86658"/>
<path d="M124.928 241.614C133.947 240.556 144.557 238.228 152.728 234.524C158.458 231.878 163.02 229.233 168.326 225.423C167.052 218.439 165.673 211.984 164.187 206.164C157.715 179.815 150.818 166.375 150.818 166.375H149.12L126.731 166.904C126.731 166.904 122.381 212.831 122.487 241.72C123.336 241.826 124.185 241.72 124.928 241.614Z" fill="#8B383F"/>
<path d="M101.053 240.555C109.011 241.507 116.863 242.566 124.927 241.719C131.187 240.978 137.129 239.285 142.859 237.063C156.971 197.38 138.509 166.057 138.509 166.057L107.419 168.914L97.9756 169.761C91.2908 187.327 86.8343 204.152 84.0755 219.708C83.1205 225.211 82.3777 231.243 81.7411 236.428C82.59 236.64 92.6702 239.603 101.053 240.555Z" fill="#8B383F"/>
<path d="M113.361 170.713C113.361 170.713 104.342 210.396 84.1811 219.602C86.9399 204.047 91.2903 187.221 98.0812 169.655L107.525 168.808C109.435 169.232 111.345 169.867 113.361 170.713Z" fill="#662D34"/>
<path d="M164.294 206.164C162.596 204.365 161.217 202.249 160.474 199.815C158.14 191.561 151.667 173.466 149.227 166.481H150.925C150.925 166.376 157.822 179.815 164.294 206.164Z" fill="#662D34"/>
<path d="M146.679 235.37C146.466 233.042 146.36 231.772 146.36 231.772C145.936 233.253 145.299 234.841 144.556 236.322C145.193 236.005 145.936 235.687 146.679 235.37Z" fill="#662D34"/>
<path d="M135.325 237.38C135.325 238.121 135.218 238.862 135.218 239.603C136.279 239.285 137.341 238.968 138.402 238.65C145.193 206.48 134.157 167.327 134.157 167.327L131.611 167.962C131.717 167.856 136.916 204.152 135.325 237.38Z" fill="#662D34"/>
<path d="M188.164 142.353C185.936 141.083 185.724 138.861 184.557 136.533C179.676 141.612 175.856 144.575 171.93 147.327C163.653 153.041 158.454 160.66 158.454 160.66C158.454 160.66 146.782 99.0723 131.078 94.9453L130.866 130.924C130.866 130.924 147.843 174.099 155.059 177.697C159.833 180.131 180.631 156.956 191.984 142.565C191.984 142.247 190.392 143.623 188.164 142.353Z" fill="#3A201C"/>
<path d="M98.0791 169.655C136.066 178.226 150.921 166.375 150.921 166.375C157.712 128.385 132.564 95.157 132.564 95.157C132.564 95.157 132.246 95.0511 131.715 94.8395C126.516 93.1464 97.8669 84.3632 79.0859 96.321C77.8126 97.0617 76.6454 98.0141 75.5843 98.9665C55.4239 116.321 98.0791 169.655 98.0791 169.655Z" fill="#D95D7B"/>
<path d="M79.0868 96.4269C81.5273 97.8026 84.3922 99.1783 87.7877 100.66C149.861 128.385 135.324 102.353 135.324 102.353C135.324 100.448 134.687 98.755 133.626 97.1677C133.096 96.4269 132.459 95.5804 131.716 94.9455C126.623 93.2523 99.0351 84.7866 80.254 95.6862C79.9357 95.8978 79.5113 96.2153 79.0868 96.4269Z" fill="#B86658"/>
<path d="M79.0868 96.427C81.5273 97.8027 84.3922 99.1784 87.7877 100.66C149.861 128.385 135.324 102.353 135.324 102.353C135.324 100.448 134.687 98.7551 133.626 97.1678C131.398 98.226 126.729 100.342 125.244 100.66L124.289 104.469L118.983 101.083C118.983 101.083 100.308 101.612 80.3601 95.6863C79.9357 95.8979 79.5113 96.2154 79.0868 96.427Z" fill="#3A201C"/>
<path d="M137.231 146.374C137.231 146.374 137.231 146.374 127.894 149.231C118.45 152.088 119.511 153.464 117.708 158.332C116.01 162.988 124.18 167.009 128 167.75C131.183 168.385 137.019 174.417 139.778 174.205C140.945 174.099 140.309 173.358 138.293 171.665C135.852 169.761 134.367 167.115 134.367 167.115C137.55 165.845 145.508 173.676 148.691 171.771C150.283 170.819 137.656 166.057 137.55 163.94C137.55 163.94 138.611 163.305 144.977 165.21C148.585 166.268 152.405 167.327 153.254 166.48C154.739 164.787 146.781 163.94 138.611 159.707C138.611 159.707 142.749 160.131 146.569 160.766C150.07 161.401 153.254 162.353 153.36 160.766C153.466 159.496 148.054 158.649 144.553 158.014C138.186 156.85 133.73 154.522 131.502 153.147C130.441 152.512 129.91 152.088 129.91 152.088C139.141 148.49 137.231 146.374 137.231 146.374Z" fill="#B86658"/>
<path d="M73.8875 100.66C83.6494 94.3104 91.077 114.311 89.8037 127.538C89.167 133.464 73.8875 176.639 73.8875 176.639L119.726 153.147C119.726 153.147 121.105 161.295 118.877 162.988C112.192 167.856 97.6557 178.332 87.9999 186.481C75.0547 197.38 61.2607 197.486 56.4859 193.994C51.8171 190.396 59.4569 157.486 62.1096 144.046C64.7623 130.501 68.2638 104.363 73.8875 100.66Z" fill="#3A201C"/>
<path d="M132.037 81.083C132.037 81.083 105.404 73.6755 83.6519 84.5751C83.6519 84.5751 59.0349 24.6804 101.69 25.3153C144.345 26.0561 135.857 70.3951 132.037 81.083Z" fill="#0E3944"/>
<path d="M91.825 29.9714C91.825 29.9714 120.792 20.2359 126.628 40.6593C132.464 60.977 127.159 82.4587 113.577 81.083C94.3716 79.0724 69.2241 41.4001 91.825 29.9714Z" fill="#B86658"/>
<path d="M103.389 40.4478C103.389 40.4478 96.7038 48.9135 97.1282 59.813C97.1282 59.813 92.2473 53.887 89.7007 59.0723C87.1541 64.2575 97.3404 71.7708 97.3404 71.7708C97.3404 71.7708 80.8938 72.7232 78.9838 51.559C78.135 42.5642 89.7007 34.416 103.389 40.4478Z" fill="#0E3944"/>
<path d="M97.6584 67.2205C99.8867 73.1464 108.375 83.5169 117.501 80.5539C117.501 80.5539 115.272 89.4429 118.986 92.7233C118.986 92.7233 122.912 99.6017 113.893 100.554C102.539 101.824 96.279 92.7233 96.279 92.7233C101.16 81.8238 94.4752 68.2787 94.4752 68.2787C96.8096 69.866 97.6584 67.2205 97.6584 67.2205Z" fill="#A55A51"/>
<path d="M110.709 34.5215C110.709 34.5215 115.059 57.4847 97.0207 59.8127C97.0207 59.8127 90.5482 48.9132 82.0596 56.5323C82.0596 56.5323 72.9343 31.6643 94.3681 27.6431C94.3681 27.6431 98.5063 18.1192 115.165 21.188C138.403 25.4209 144.875 53.4635 131.93 81.1886C132.036 81.0828 143.39 31.241 110.709 34.5215Z" fill="#0E3944"/>
<path d="M256.5 171.877H176.494C171.401 171.877 167.263 167.75 167.263 162.671V159.284C167.263 154.205 171.401 150.078 176.494 150.078H256.5C261.593 150.078 265.731 154.205 265.731 159.284V162.671C265.731 167.75 261.593 171.877 256.5 171.877Z" fill="#EBEBEB"/>
<path d="M256.499 171.877L200.368 171.983H186.362H179.359C178.192 171.983 177.025 171.983 175.857 171.983C174.69 171.877 173.523 171.559 172.462 171.03C170.34 169.972 168.642 168.067 167.793 165.845C167.369 164.681 167.157 163.517 167.263 162.353C167.263 161.189 167.263 160.025 167.263 158.861C167.369 156.427 168.43 154.099 170.128 152.511C171.825 150.818 174.266 149.866 176.6 149.866L232.731 149.972H246.737H253.74C254.908 149.972 256.075 149.972 257.242 149.972C258.409 150.078 259.576 150.395 260.637 150.924C262.76 151.982 264.457 153.887 265.2 156.004C265.624 157.062 265.731 158.332 265.731 159.496C265.731 160.66 265.731 161.824 265.731 162.988C265.624 165.316 264.563 167.644 262.866 169.231C261.168 170.924 258.834 171.877 256.499 171.877ZM256.499 171.877C258.834 171.877 261.168 170.924 262.866 169.337C264.563 167.75 265.624 165.422 265.624 163.094C265.624 161.93 265.624 160.766 265.624 159.601C265.624 158.437 265.518 157.273 265.094 156.215C264.351 153.993 262.653 152.194 260.531 151.136C259.47 150.607 258.303 150.289 257.242 150.183C256.075 150.078 254.908 150.183 253.74 150.183H246.737H232.731L176.6 150.289C174.266 150.289 172.038 151.136 170.446 152.723C168.748 154.31 167.793 156.533 167.687 158.755C167.687 159.919 167.687 161.083 167.687 162.247C167.687 163.411 167.793 164.575 168.218 165.633C168.96 167.75 170.658 169.655 172.674 170.607C173.735 171.136 174.796 171.453 175.964 171.559C177.131 171.665 178.298 171.559 179.465 171.559H186.468H200.474L256.499 171.877Z" fill="#A42A29"/>
<path d="M185.833 158.015L183.817 160.66L187 160.237V161.718L183.817 161.295L185.833 163.835L184.454 164.575L183.18 161.612L181.801 164.575L180.634 163.835L182.65 161.295L179.467 161.718V160.237L182.544 160.66L180.528 158.12L181.801 157.38L183.074 160.343L184.348 157.38L185.833 158.015Z" fill="#A42A29"/>
<path d="M199.202 158.014L197.186 160.659L200.369 160.236V161.718L197.186 161.294L199.202 163.834L197.823 164.575L196.549 161.612L195.17 164.575L194.003 163.834L196.019 161.294L192.835 161.718V160.236L195.913 160.659L193.897 158.12L195.17 157.379L196.443 160.342L197.716 157.379L199.202 158.014Z" fill="#A42A29"/>
<path d="M212.465 158.014L210.449 160.659L213.632 160.236V161.718L210.449 161.294L212.465 163.834L211.086 164.575L209.812 161.612L208.433 164.575L207.266 163.834L209.282 161.294L206.099 161.718V160.236L209.176 160.659L207.16 158.12L208.433 157.379L209.706 160.342L210.98 157.379L212.465 158.014Z" fill="#A42A29"/>
<path d="M225.728 158.014L223.712 160.659L226.896 160.236V161.718L223.712 161.294L225.728 163.834L224.349 164.575L223.076 161.612L221.696 164.575L220.529 163.834L222.545 161.294L219.362 161.718V160.236L222.439 160.659L220.423 158.12L221.696 157.379L222.97 160.342L224.243 157.379L225.728 158.014Z" fill="#A42A29"/>
<path d="M238.992 158.014L236.976 160.659L240.159 160.236V161.718L236.976 161.294L238.992 163.834L237.612 164.575L236.339 161.612L234.96 164.575L233.792 163.834L235.809 161.294L232.625 161.718V160.236L235.702 160.659L233.686 158.12L234.96 157.379L236.233 160.342L237.506 157.379L238.992 158.014Z" fill="#A42A29"/>
<path d="M252.257 158.014L250.241 160.659L253.425 160.236V161.718L250.241 161.294L252.257 163.834L250.878 164.575L249.605 161.612L248.225 164.575L247.058 163.834L249.074 161.294L245.891 161.718V160.236L248.968 160.659L246.952 158.12L248.225 157.379L249.499 160.342L250.772 157.379L252.257 158.014Z" fill="#A42A29"/>
<path d="M258.09 164.576C258.09 154.311 258.09 140.554 258.09 140.554C260.743 139.073 269.656 133.464 281.54 133.464C293.424 133.464 303.823 138.967 303.716 140.554C304.777 148.914 304.141 160.872 303.716 164.576C303.716 180.449 281.54 191.56 281.54 191.56C281.54 191.56 258.09 180.449 258.09 164.576Z" fill="#A42A29"/>
<path d="M258.091 164.575V140.554C261.592 138.543 265.306 136.744 269.126 135.474C272.946 134.204 277.084 133.464 281.116 133.464C285.148 133.358 289.286 133.993 293.212 135.051C295.122 135.58 297.138 136.215 298.942 137.062C299.897 137.485 300.746 137.908 301.701 138.437C302.125 138.649 302.55 138.966 302.974 139.284C303.186 139.495 303.399 139.601 303.505 139.813C303.717 140.025 303.929 140.236 303.929 140.554C304.46 144.575 304.566 148.596 304.566 152.617C304.566 156.638 304.354 160.66 303.929 164.681C303.929 166.268 303.717 167.75 303.292 169.231C302.868 170.713 302.338 172.088 301.595 173.464C300.215 176.215 298.305 178.649 296.183 180.871C294.061 183.094 291.727 185.104 289.286 186.903C286.846 188.702 284.299 190.395 281.54 191.771C278.782 190.395 276.023 188.702 273.476 187.009C270.93 185.21 268.489 183.305 266.261 181.083C264.033 178.861 262.017 176.427 260.531 173.676C259.046 170.818 258.197 167.75 258.091 164.575ZM258.091 164.575C258.091 167.75 259.046 170.818 260.531 173.464C262.017 176.215 264.033 178.649 266.261 180.766C268.489 182.988 270.93 184.893 273.476 186.692C276.023 188.491 278.676 190.078 281.54 191.454H281.434C284.087 190.078 286.74 188.385 289.18 186.586C291.621 184.787 293.955 182.776 296.077 180.554C298.199 178.332 300.003 175.898 301.383 173.252C302.019 171.877 302.656 170.501 302.974 169.02C303.292 167.538 303.505 166.057 303.611 164.575C304.035 160.554 304.141 156.533 304.141 152.617C304.141 148.596 304.035 144.575 303.611 140.659C303.611 140.448 303.505 140.236 303.292 140.13C303.08 139.919 302.974 139.813 302.762 139.601C302.338 139.284 301.913 138.966 301.489 138.755C300.64 138.226 299.685 137.802 298.836 137.379C297.032 136.532 295.122 135.897 293.106 135.368C289.18 134.31 285.148 133.675 281.116 133.781C277.084 133.781 273.052 134.522 269.126 135.792C265.2 136.956 261.592 138.86 258.091 140.765V164.575Z" fill="#EBEBEB"/>
<path d="M294.169 153.042C292.895 150.925 291.198 149.232 289.075 147.962L288.969 147.856C287.802 147.327 286.635 146.904 285.574 146.375L281.754 145.846C280.481 145.952 279.101 146.163 277.828 146.375C277.51 146.481 277.191 146.481 276.873 146.586C276.767 146.586 276.661 146.692 276.449 146.692C276.236 146.798 275.918 146.798 275.706 146.904C275.494 147.01 275.282 147.01 275.069 147.116C274.857 147.221 274.645 147.327 274.433 147.433C274.22 147.539 274.008 147.645 273.796 147.75C273.69 147.856 273.584 147.856 273.372 147.962C272.31 148.597 271.356 149.338 270.507 150.184C269.658 151.031 268.915 151.983 268.278 153.042C268.172 153.147 268.172 153.253 268.066 153.465C267.96 153.676 267.854 153.888 267.748 154.1C267.642 154.311 267.536 154.523 267.43 154.735C267.323 154.946 267.217 155.158 267.217 155.37C267.111 155.581 267.111 155.899 267.005 156.11C267.005 156.216 266.899 156.322 266.899 156.534C266.899 156.639 266.899 156.639 266.899 156.745C266.793 157.274 266.687 157.803 266.687 158.438C266.581 158.968 266.475 159.602 266.475 160.132C266.475 160.237 266.475 160.237 266.475 160.343C266.475 160.449 266.475 160.449 266.475 160.555C266.475 161.719 266.581 162.883 266.899 163.941C266.899 163.941 266.899 163.941 266.899 164.047C267.217 165.211 267.642 166.269 268.278 167.327C269.233 168.915 270.401 170.29 271.886 171.349C272.204 171.56 272.523 171.772 272.947 172.089C273.159 172.195 273.265 172.301 273.478 172.407C274.539 173.042 275.6 173.465 276.873 173.782C277.191 173.888 277.51 173.888 277.828 173.994C278.465 174.1 278.995 174.206 279.632 174.206C279.738 174.206 279.738 174.206 279.844 174.206C281.117 174.523 282.391 174.523 283.664 174.206C284.937 174.206 286.211 173.888 287.272 173.253C287.908 173.042 288.545 172.83 289.182 172.407C291.304 171.137 293.001 169.444 294.275 167.327C295.548 165.105 296.185 162.671 296.185 160.132C296.185 157.592 295.442 155.264 294.169 153.042Z" fill="#EBEBEB"/>
<path d="M294.166 153.04C293.529 151.982 292.786 150.924 291.831 150.077C290.983 149.231 289.922 148.49 288.86 147.855L285.465 146.374L281.645 145.845C280.266 145.95 278.78 146.162 277.401 146.48C276.658 146.585 276.021 146.797 275.385 147.114C274.748 147.326 274.112 147.749 273.475 148.067C272.414 148.596 271.459 149.443 270.716 150.289C269.867 151.136 269.124 152.088 268.594 153.146L268.169 153.887C268.063 154.099 267.957 154.416 267.745 154.734C267.639 155.051 267.533 155.263 267.427 155.58L267.215 156.427V156.638L267.002 158.331L266.79 160.025V160.236C266.79 160.554 266.79 160.871 266.79 161.189C266.79 161.506 266.79 161.824 266.896 162.141C267.002 162.776 267.108 163.305 267.321 163.94V164.046C267.851 165.739 268.594 167.326 269.655 168.808C270.186 169.549 270.822 170.183 271.459 170.713C272.095 171.347 272.838 171.771 273.581 172.3C274.642 172.935 275.703 173.358 276.87 173.676C277.401 173.781 277.825 173.887 278.356 173.993L279.841 174.205C281.009 174.522 282.282 174.522 283.555 174.205C284.828 174.205 285.996 173.887 287.057 173.252C288.012 173.041 288.86 172.512 289.709 171.982C290.558 171.453 291.301 170.818 292.044 170.078C293.423 168.596 294.59 166.903 295.227 164.998C295.864 163.093 296.182 160.977 295.97 158.966C295.864 156.744 295.227 154.734 294.166 153.04ZM294.166 153.04C295.227 154.839 295.864 156.744 296.076 158.755C296.288 160.765 296.076 162.882 295.439 164.787C294.802 166.691 293.741 168.49 292.362 170.078C291.619 170.818 290.877 171.559 290.028 172.088C289.179 172.617 288.33 173.252 287.269 173.464C286.102 174.099 284.828 174.522 283.555 174.522H283.661C282.388 174.84 281.009 174.945 279.735 174.522L278.25 174.31C277.719 174.205 277.295 174.099 276.764 174.099C275.597 173.781 274.43 173.252 273.263 172.617C272.52 172.088 271.671 171.665 271.034 171.03C270.292 170.395 269.655 169.76 269.124 169.019C267.957 167.538 267.108 165.845 266.684 164.046V163.94C266.472 163.305 266.366 162.67 266.26 162.035C266.26 161.718 266.153 161.4 266.153 161.083C266.153 160.765 266.153 160.448 266.153 160.13V159.919L266.366 158.226L266.578 156.533V156.321L266.896 155.368C267.002 155.051 267.108 154.734 267.215 154.522C267.321 154.204 267.427 153.993 267.639 153.675L268.063 152.829C268.7 151.771 269.443 150.712 270.398 149.972C271.247 149.019 272.202 148.278 273.369 147.749C274.005 147.432 274.642 147.009 275.279 146.797C275.915 146.585 276.658 146.374 277.401 146.268C278.78 145.95 280.266 145.845 281.645 145.739L285.465 146.268L288.86 147.749C289.922 148.384 290.983 149.125 291.831 150.077C292.786 150.924 293.529 151.876 294.166 153.04Z" fill="#A42A29"/>
<path d="M288.756 153.146C286.21 154.945 279.737 161.083 277.509 162.988C276.978 162.459 276.554 161.93 276.023 161.506C275.175 160.66 274.432 159.813 273.265 159.496C272.628 159.39 272.31 159.813 272.31 160.448C272.522 161.612 273.371 162.459 274.113 163.411L276.554 166.162C276.978 166.692 278.039 166.692 278.464 166.162C280.162 164.152 287.801 156.639 289.711 154.628C290.454 153.781 289.605 152.723 288.756 153.146Z" fill="#A42A29"/>
<path d="M257.35 86.7965C253.53 86.7965 206.312 86.6907 203.872 87.2198C201.431 87.7489 201.537 113.04 203.766 114.522C204.721 115.157 208.01 116.215 212.148 115.897C212.679 115.897 212.36 120.448 212.573 121.929C212.679 122.458 213.421 122.564 213.846 122.247C216.18 120.342 218.408 118.225 220.424 116.003C230.929 116.215 245.89 116.532 256.395 115.791C259.79 115.58 261.17 86.7965 257.35 86.7965Z" fill="#EBEBEB"/>
<path d="M257.349 86.7959C248.436 86.7959 239.523 86.7959 230.61 86.9017L217.24 87.1134L210.661 87.2192C208.433 87.325 206.205 87.325 204.083 87.5366C203.977 87.5366 203.871 87.7483 203.764 87.9599C203.658 88.1716 203.552 88.3832 203.552 88.7007C203.446 89.2298 203.34 89.7589 203.234 90.288C203.022 91.3462 202.916 92.5102 202.916 93.5685C202.81 95.7907 202.703 98.0129 202.703 100.235C202.703 102.457 202.81 104.68 202.916 106.902C203.022 109.124 203.234 111.346 203.764 113.357C203.871 113.569 203.977 113.886 204.083 113.992C204.189 114.204 204.189 114.204 204.507 114.309C204.932 114.521 205.462 114.733 205.993 114.838C207.054 115.156 208.115 115.262 209.176 115.368C209.707 115.368 210.237 115.473 210.768 115.473H211.616H212.041H212.253H212.359C212.359 115.473 212.465 115.473 212.571 115.473C212.678 115.473 212.678 115.579 212.784 115.579C212.996 115.791 212.996 115.897 212.996 116.003C212.996 116.108 212.996 116.214 213.102 116.214C213.102 116.32 213.102 116.532 213.208 116.637C213.208 116.955 213.208 117.167 213.208 117.484V119.177C213.208 119.706 213.208 120.235 213.208 120.87C213.208 121.188 213.208 121.399 213.314 121.611V121.823C213.314 121.823 213.314 121.823 213.42 121.929C213.526 121.929 213.739 121.929 213.845 121.929C213.845 121.929 214.057 121.823 214.057 121.717L214.375 121.399L215.649 120.341C217.346 118.86 218.938 117.378 220.423 115.685L220.53 115.579H220.742C231.777 115.791 242.918 116.214 253.953 115.791L256.076 115.685C256.394 115.685 256.818 115.685 257.031 115.579C257.243 115.368 257.455 115.156 257.667 114.838C258.304 113.674 258.622 112.299 258.834 110.923C259.365 108.172 259.683 105.42 259.789 102.669C260.002 99.9177 260.002 97.1664 259.895 94.415C259.789 93.0393 259.683 91.6637 259.471 90.288C259.365 89.6531 259.153 88.9123 258.94 88.2774C258.834 87.9599 258.728 87.6425 258.516 87.325C257.986 87.0075 257.667 86.7959 257.349 86.7959ZM257.349 86.7959C257.667 86.7959 257.986 87.0075 258.198 87.325C258.41 87.6425 258.516 87.9599 258.622 88.2774C258.834 88.9123 259.047 89.6531 259.153 90.288C259.365 91.6637 259.471 93.0393 259.577 94.415C259.683 97.1664 259.683 99.9177 259.577 102.669C259.471 105.42 259.153 108.172 258.622 110.923C258.304 112.299 258.092 113.674 257.455 114.944C257.243 115.262 257.137 115.579 256.818 115.791C256.712 115.897 256.394 116.003 256.288 116.003H255.757L253.635 116.108C248.118 116.426 242.6 116.532 236.976 116.532C231.459 116.532 225.941 116.532 220.317 116.426L220.636 116.32C219.15 118.013 217.558 119.6 215.861 121.082L214.587 122.14L214.269 122.458C214.163 122.563 214.057 122.669 213.845 122.775C213.42 122.987 213.102 122.987 212.678 122.881C212.465 122.775 212.253 122.669 212.147 122.458C212.041 122.352 212.041 122.246 212.041 122.14V121.929C212.041 121.611 211.935 121.294 211.935 121.082C211.935 120.553 211.935 119.918 211.935 119.389V117.696C211.935 117.378 211.935 117.167 211.935 116.849C211.935 116.743 211.935 116.637 211.935 116.532V116.426C211.935 116.426 211.935 116.32 211.935 116.426C211.935 116.426 212.041 116.426 212.041 116.532C212.147 116.532 212.253 116.532 212.147 116.532H212.041H211.829H211.404H210.555C210.025 116.532 209.388 116.532 208.858 116.426C207.69 116.32 206.629 116.108 205.462 115.791C204.932 115.579 204.401 115.473 203.871 115.156C203.765 115.05 203.658 115.05 203.446 114.838C203.234 114.627 203.128 114.521 203.128 114.415C203.022 114.098 202.916 113.886 202.81 113.569C202.173 111.346 202.067 109.124 201.961 106.902C201.855 104.68 201.748 102.457 201.855 100.235C201.855 98.0129 201.961 95.7907 202.173 93.5685C202.279 92.4044 202.385 91.3462 202.597 90.288C202.703 89.7589 202.81 89.2298 203.022 88.5949C203.128 88.2774 203.234 88.0658 203.34 87.7483C203.446 87.6425 203.446 87.4308 203.658 87.325C203.764 87.2192 203.977 87.0075 204.189 87.0075C206.523 86.7959 208.645 86.9017 210.874 86.7959H217.558H230.928H257.349Z" fill="#A42A29"/>
<path d="M235.597 100.024C235.491 99.8121 235.385 99.4947 235.279 99.283C234.96 98.8597 234.642 98.4364 234.112 98.2248C233.581 98.0132 233.05 97.8015 232.414 97.8015C232.095 97.8015 231.777 97.9073 231.565 97.9073C231.459 97.9073 231.247 98.0132 231.141 98.0132C231.034 98.0132 230.822 98.119 230.716 98.119C230.292 98.3306 230.079 98.5423 229.867 98.8597C229.549 99.1772 229.443 99.4947 229.337 99.9179C229.231 100.341 229.231 100.765 229.231 101.082C229.231 101.505 229.337 101.823 229.655 102.246C229.867 102.458 229.973 102.669 230.186 102.881C230.61 103.304 231.034 103.516 231.565 103.622C231.883 103.622 232.095 103.728 232.414 103.728C232.52 103.728 232.626 103.728 232.626 103.728C232.944 103.728 233.157 103.728 233.475 103.622C233.899 103.516 234.218 103.304 234.536 103.093C234.854 102.881 235.173 102.563 235.385 102.246C235.491 102.034 235.597 101.717 235.703 101.505C235.809 101.082 235.809 100.553 235.597 100.024Z" fill="#A42A29"/>
<path d="M220.425 100.024C220.319 99.8121 220.213 99.4947 220.106 99.283C219.788 98.8597 219.47 98.4364 218.939 98.2248C218.409 98.0132 217.878 97.8015 217.242 97.8015C216.923 97.8015 216.605 97.9073 216.393 97.9073C216.287 97.9073 216.074 98.0132 215.968 98.0132C215.862 98.0132 215.65 98.119 215.544 98.119C215.119 98.3306 214.907 98.5423 214.695 98.8597C214.377 99.1772 214.271 99.4947 214.164 99.9179C214.058 100.341 214.058 100.765 214.058 101.082C214.058 101.505 214.164 101.823 214.483 102.246C214.695 102.458 214.801 102.669 215.013 102.881C215.438 103.304 215.862 103.516 216.393 103.622C216.711 103.622 216.923 103.728 217.242 103.728C217.348 103.728 217.454 103.728 217.454 103.728C217.772 103.728 217.984 103.728 218.303 103.622C218.727 103.516 219.045 103.304 219.364 103.093C219.682 102.881 220 102.563 220.213 102.246C220.319 102.034 220.425 101.717 220.531 101.505C220.531 101.082 220.531 100.553 220.425 100.024Z" fill="#A42A29"/>
<path d="M250.771 100.024C250.665 99.8121 250.559 99.4947 250.453 99.283C250.134 98.8597 249.816 98.4364 249.286 98.2248C248.755 98.0132 248.225 97.8015 247.588 97.8015C247.27 97.8015 246.951 97.9073 246.739 97.9073C246.633 97.9073 246.421 98.0132 246.315 98.0132C246.208 98.0132 245.996 98.119 245.89 98.119C245.466 98.3306 245.254 98.5423 245.041 98.8597C244.723 99.1772 244.617 99.4947 244.511 99.9179C244.405 100.341 244.405 100.765 244.405 101.082C244.405 101.505 244.511 101.823 244.829 102.246C245.041 102.458 245.147 102.669 245.36 102.881C245.784 103.304 246.208 103.516 246.739 103.622C247.057 103.622 247.27 103.728 247.588 103.728C247.694 103.728 247.8 103.728 247.8 103.728C248.118 103.728 248.331 103.728 248.649 103.622C249.073 103.516 249.392 103.304 249.71 103.093C250.028 102.881 250.347 102.563 250.559 102.246C250.665 102.034 250.771 101.717 250.877 101.505C250.983 101.082 250.983 100.553 250.771 100.024Z" fill="#A42A29"/>
<path d="M294.91 287.222C294.91 292.619 185.301 289.867 120.575 296.957C60.3059 303.518 18.4995 291.561 18.4995 286.164C18.4995 280.767 43.1165 275.582 108.16 275.582C173.204 275.582 294.91 281.931 294.91 287.222Z" fill="#E0E0E0"/>
</svg>
