<svg width="320" height="320" viewBox="0 0 320 320" fill="none" xmlns="http://www.w3.org/2000/svg">
<path d="M267.223 235.536C316.512 173.176 275.405 89.266 215.44 52.8482C186.905 35.4874 150.088 28.9023 117.362 35.1881C102.296 32.6937 86.8305 34.6892 72.6625 42.9705C40.1359 61.9277 26.7661 101.339 31.9544 136.26C37.0429 170.383 57.8958 200.714 79.8463 226.755C101.597 252.497 132.228 270.656 167.049 272.552C202.17 274.448 244.973 263.772 267.223 235.536Z" fill="#F7F7F7"/>
<path d="M259.041 56.9397C258.542 56.7401 257.944 56.8399 257.345 56.9397C256.647 56.9397 209.653 58.3365 209.852 58.9352C209.852 60.9307 210.85 87.5705 211.149 87.9696C211.449 88.2689 211.848 88.3687 212.247 88.3687C212.945 88.4685 253.055 87.371 258.842 86.473C259.041 86.473 259.141 86.2734 259.141 86.0739C259.74 80.7858 259.939 57.239 259.041 56.9397Z" fill="#F2F2F3"/>
<path d="M232.901 81.2838C231.704 78.6897 230.207 76.0955 228.411 73.9005C227.513 72.803 226.316 71.8052 225.019 71.2066C225.118 71.2066 225.218 71.1068 225.318 71.1068C227.413 70.0093 228.112 67.1158 226.715 65.1203C226.016 64.0228 224.719 63.3244 223.522 62.9253C222.424 62.5262 221.127 62.4264 220.13 63.2246C219.531 63.7235 219.232 64.5217 219.032 65.2201C218.733 66.0183 218.633 66.8165 218.733 67.7145C218.833 68.4129 219.132 69.1113 219.731 69.5104C219.731 69.5104 219.83 69.5104 219.83 69.6102C220.229 70.2088 220.728 70.8075 221.427 71.1068C220.13 71.7055 218.932 72.803 218.134 73.9005C216.438 76.3949 216.139 79.4879 215.839 82.3814C215.839 82.5809 216.039 82.7805 216.238 82.7805C221.726 82.7805 227.114 82.3814 232.602 81.8825C232.801 81.7827 233.001 81.4834 232.901 81.2838Z" fill="#A42A29"/>
<path d="M255.749 67.3154C254.751 67.3154 253.653 67.4152 252.656 67.515C251.658 67.6148 250.56 67.6148 249.563 67.7145C247.467 67.9141 245.472 68.0139 243.377 68.2134C241.281 68.413 239.286 68.5127 237.191 68.7123C236.193 68.8121 235.095 68.9118 234.098 69.0116C233.698 69.0116 233.2 69.1114 232.8 69.2112C232.401 69.3109 232.102 69.3109 231.803 69.5105V69.6103C232.102 69.9096 232.401 69.8098 232.8 69.8098C233.299 69.8098 233.798 69.8098 234.197 69.8098C235.195 69.8098 236.293 69.71 237.29 69.6103C239.386 69.5105 241.381 69.3109 243.476 69.1114C245.572 68.9118 247.567 68.8121 249.662 68.6125C250.66 68.5127 251.758 68.413 252.755 68.3132C253.753 68.2134 254.751 68.2134 255.749 68.0139C256.347 68.0139 256.248 67.3154 255.749 67.3154Z" fill="#A42A29"/>
<path d="M254.352 72.9026C250.959 73.2019 247.567 73.5013 244.175 73.7008C242.479 73.8006 240.782 73.9004 239.086 73.9004C237.39 73.9004 235.594 74.0001 233.898 73.8006C233.499 73.8006 233.499 73.3017 233.898 73.2019C235.494 72.9026 237.191 72.9026 238.787 72.8028C240.483 72.7031 242.179 72.6033 243.875 72.5035C247.268 72.304 250.66 72.1044 254.152 71.7053C254.95 71.8051 255.15 72.8028 254.352 72.9026Z" fill="#A42A29"/>
<path d="M252.655 63.4241C251.857 63.4241 251.059 63.4241 250.161 63.4241C249.263 63.4241 248.465 63.5238 247.567 63.5238C245.871 63.6236 244.174 63.7234 242.478 63.8232C240.782 63.9229 239.186 64.0227 237.489 64.1225C236.093 64.2223 234.097 64.1225 232.9 64.8209C232.7 64.9207 232.7 65.1202 233 65.22C234.496 65.4196 236.192 65.22 237.689 65.22C239.385 65.1202 241.081 65.0205 242.778 64.9207C244.474 64.8209 246.07 64.7211 247.766 64.6214C248.664 64.5216 249.462 64.5216 250.36 64.4218C251.159 64.4218 251.957 64.2223 252.855 64.1225C253.354 64.1225 253.254 63.4241 252.655 63.4241Z" fill="#A42A29"/>
<path d="M255.848 76.6944C255.149 76.4948 254.551 76.4948 253.752 76.5946C252.854 76.6944 251.956 76.6944 251.058 76.7941C249.163 76.8939 247.267 77.0935 245.371 77.293C243.575 77.4926 241.68 77.5923 239.884 77.7919C238.986 77.8917 238.188 77.9914 237.29 78.0912C236.392 78.191 235.893 78.2908 235.294 78.5901C235.194 78.6899 235.194 78.6899 235.394 78.7896C236.791 79.089 238.587 78.8894 240.183 78.6899C241.979 78.4903 243.875 78.3905 245.671 78.191C247.467 77.9914 249.362 77.8917 251.158 77.7919C252.056 77.6921 252.954 77.6921 253.852 77.5923C254.65 77.4926 255.349 77.4926 255.947 77.1932C256.147 77.0935 256.147 76.7941 255.848 76.6944Z" fill="#A42A29"/>
<path d="M266.724 293.504C266.724 296.697 221.926 296.198 150.886 300.389C84.7354 304.18 38.7393 297.196 38.7393 294.003C38.7393 290.81 65.7782 287.817 137.317 287.817C208.855 287.817 266.724 290.411 266.724 293.504Z" fill="#E0E0E0"/>
<path d="M163.756 167.989H61.1875V218.475H163.756V167.989Z" fill="white"/>
<path d="M163.757 218.473C163.757 218.473 163.757 218.174 163.757 217.575C163.757 216.977 163.757 216.079 163.757 214.981C163.757 212.686 163.757 209.294 163.757 204.904C163.757 196.223 163.757 183.552 163.657 167.987L163.757 168.087C137.616 168.087 101.298 168.087 61.1888 168.187L61.3884 167.987C61.3884 185.647 61.3884 202.709 61.3884 218.473L61.1888 218.274C90.9217 218.274 116.564 218.373 134.723 218.373C143.802 218.373 151.086 218.373 156.075 218.473C158.569 218.473 160.465 218.473 161.762 218.473C162.36 218.473 162.859 218.473 163.258 218.473C163.558 218.473 163.757 218.473 163.757 218.473C163.757 218.473 163.558 218.473 163.258 218.473C162.959 218.473 162.46 218.473 161.762 218.473C160.465 218.473 158.569 218.473 156.075 218.473C151.086 218.473 143.902 218.473 134.823 218.573C116.564 218.573 90.9217 218.673 61.1888 218.673H60.9893V218.473C60.9893 202.709 60.9893 185.647 60.9893 167.987V167.788H61.1888C101.298 167.788 137.716 167.788 163.757 167.887H163.857V167.987C163.857 183.652 163.857 196.223 163.757 205.004C163.757 209.394 163.757 212.686 163.757 214.981C163.757 216.079 163.757 216.977 163.757 217.575C163.757 218.174 163.757 218.473 163.757 218.473Z" fill="#F5F5F5"/>
<path d="M61.29 173.575C61.29 173.475 84.2382 173.375 112.474 173.375C140.81 173.375 163.659 173.475 163.659 173.575C163.659 173.675 140.711 173.774 112.474 173.774C84.1384 173.774 61.29 173.675 61.29 173.575Z" fill="#F5F5F5"/>
<path d="M65.579 171.081C65.579 171.48 65.2796 171.779 64.8805 171.779C64.4814 171.779 64.1821 171.48 64.1821 171.081C64.1821 170.682 64.4814 170.382 64.8805 170.382C65.1799 170.382 65.579 170.682 65.579 171.081Z" fill="#F5F5F5"/>
<path d="M68.0746 171.081C68.0746 171.48 67.7753 171.779 67.3762 171.779C66.9771 171.779 66.6777 171.48 66.6777 171.081C66.6777 170.681 66.9771 170.382 67.3762 170.382C67.7753 170.382 68.0746 170.681 68.0746 171.081Z" fill="#F5F5F5"/>
<path d="M70.5687 171.081C70.5687 171.48 70.2694 171.779 69.8703 171.779C69.4712 171.779 69.1719 171.48 69.1719 171.081C69.1719 170.681 69.4712 170.382 69.8703 170.382C70.2694 170.382 70.5687 170.681 70.5687 171.081Z" fill="#F5F5F5"/>
<path d="M94.6138 180.361H69.8696V205.105H94.6138V180.361Z" fill="#F5F5F5"/>
<path d="M150.687 214.883H131.929C130.233 214.883 128.936 213.486 128.936 211.889C128.936 210.193 130.333 208.896 131.929 208.896H150.687C152.383 208.896 153.68 210.293 153.68 211.889C153.68 213.586 152.383 214.883 150.687 214.883Z" fill="#F5F5F5"/>
<path d="M153.58 182.954C146.695 182.754 139.811 182.754 132.926 182.754C126.042 182.754 119.157 182.754 112.273 182.654C110.278 182.654 108.382 182.654 106.386 182.654C104.491 182.654 102.495 182.555 100.599 182.854C100.4 182.854 100.4 183.153 100.599 183.153C102.296 183.353 103.992 183.353 105.688 183.353C107.384 183.353 109.18 183.353 110.876 183.353C114.368 183.353 117.761 183.353 121.253 183.253C128.137 183.253 135.022 183.253 141.906 183.253C145.797 183.253 149.689 183.253 153.68 183.153C153.68 183.153 153.68 182.954 153.58 182.954Z" fill="#F5F5F5"/>
<path d="M153.58 187.045C146.695 186.846 139.811 186.846 132.926 186.846C126.042 186.846 119.157 186.846 112.273 186.746C110.278 186.746 108.382 186.746 106.386 186.746C104.491 186.746 102.495 186.646 100.599 186.945C100.4 186.945 100.4 187.245 100.599 187.245C102.296 187.444 103.992 187.444 105.688 187.444C107.384 187.444 109.18 187.444 110.876 187.444C114.368 187.444 117.761 187.444 121.253 187.345C128.137 187.345 135.022 187.345 141.906 187.345C145.797 187.345 149.689 187.345 153.68 187.245C153.68 187.245 153.68 187.045 153.58 187.045Z" fill="#F5F5F5"/>
<path d="M153.58 191.135C146.695 190.935 139.811 190.935 132.926 190.935C126.042 190.935 119.157 190.935 112.273 190.835C110.278 190.835 108.382 190.835 106.386 190.835C104.491 190.835 102.495 190.736 100.599 191.035C100.4 191.035 100.4 191.334 100.599 191.334C102.296 191.534 103.992 191.534 105.688 191.534C107.384 191.534 109.18 191.534 110.876 191.534C114.368 191.534 117.761 191.534 121.253 191.434C128.137 191.434 135.022 191.434 141.906 191.434C145.797 191.434 149.689 191.434 153.68 191.334C153.68 191.234 153.68 191.135 153.58 191.135Z" fill="#F5F5F5"/>
<path d="M131.53 195.625C127.539 195.426 123.449 195.426 119.458 195.426C115.467 195.426 111.376 195.426 107.385 195.326C106.287 195.326 105.09 195.326 103.993 195.326C102.895 195.326 101.698 195.226 100.6 195.525C100.5 195.525 100.5 195.825 100.6 195.825C101.598 196.024 102.596 196.024 103.593 196.024C104.591 196.024 105.589 196.024 106.587 196.024C108.582 196.024 110.578 196.024 112.673 195.924C116.664 195.924 120.755 195.924 124.746 195.924C127.041 195.924 129.335 195.924 131.63 195.825C131.63 195.825 131.63 195.625 131.53 195.625Z" fill="#F5F5F5"/>
<path d="M154.178 200.514C147.194 200.315 140.21 200.315 133.226 200.315C126.241 200.315 119.257 200.315 112.273 200.215C110.278 200.215 108.282 200.215 106.386 200.215C104.491 200.215 102.495 200.115 100.599 200.414C100.4 200.414 100.4 200.714 100.599 200.714C102.296 200.913 103.992 200.913 105.688 200.913C107.384 200.913 109.18 200.913 110.876 200.913C114.368 200.913 117.86 200.913 121.352 200.814C128.337 200.814 135.321 200.814 142.305 200.814C146.296 200.814 150.187 200.814 154.178 200.714C154.278 200.714 154.278 200.514 154.178 200.514Z" fill="#F5F5F5"/>
<path d="M61.2886 290.013C61.2886 291.011 61.3883 291.709 61.3883 291.709H90.8219C90.8219 291.11 90.8219 290.512 90.8219 290.013C90.5226 282.33 88.0282 275.645 88.0282 275.645L80.6449 272.452C80.0462 276.244 78.35 278.638 76.3546 280.235C75.8557 280.634 75.257 281.033 74.6584 281.332C74.3591 281.432 74.1595 281.632 73.8602 281.731C73.2615 282.031 72.5631 282.23 71.9645 282.43C69.3703 283.228 66.7762 283.428 64.8805 283.627C61.7874 284.226 61.2886 287.818 61.2886 290.013Z" fill="#0E3944"/>
<path d="M61.2886 290.014C61.2886 291.012 61.3883 291.71 61.3883 291.71H90.8219C90.8219 291.112 90.8219 290.513 90.8219 290.014H61.2886Z" fill="#ADBEC4"/>
<path d="M74.6582 281.333L78.749 282.63L79.6469 281.134L76.3544 280.236C75.7557 280.734 75.2569 281.034 74.6582 281.333Z" fill="#ADBEC4"/>
<path d="M71.9648 282.43L74.7585 284.226L76.4547 283.528L73.8606 281.632C73.2619 282.031 72.5635 282.331 71.9648 282.43Z" fill="#ADBEC4"/>
<path d="M152.582 290.013C152.582 291.011 152.482 291.709 152.482 291.709H123.048C123.048 291.11 123.048 290.512 123.048 290.013C123.348 282.33 125.842 275.645 125.842 275.645L133.225 272.452C133.824 276.244 135.52 278.638 137.516 280.235C138.015 280.634 138.613 281.033 139.212 281.332C139.511 281.432 139.711 281.632 140.01 281.731C140.609 282.031 141.307 282.23 141.906 282.43C144.5 283.228 147.094 283.428 148.99 283.627C152.083 284.226 152.582 287.818 152.582 290.013Z" fill="#0E3944"/>
<path d="M152.581 290.014C152.581 291.012 152.481 291.71 152.481 291.71H123.048C123.048 291.112 123.048 290.513 123.048 290.014H152.581Z" fill="#ADBEC4"/>
<path d="M139.211 281.333L135.121 282.63L134.223 281.134L137.515 280.236C138.014 280.734 138.613 281.034 139.211 281.333Z" fill="#ADBEC4"/>
<path d="M141.905 282.43L139.112 284.226L137.416 283.528L140.01 281.632C140.608 282.031 141.207 282.331 141.905 282.43Z" fill="#ADBEC4"/>
<path d="M209.153 69.3124L210.251 69.1129C210.251 69.1129 218.632 71.9066 218.432 70.2104C218.233 68.1151 210.55 66.0199 209.851 66.0199C208.654 65.9201 201.47 66.6185 200.373 67.1174C199.375 67.6163 193.089 73.503 193.089 73.503L200.572 81.6845C200.572 81.6845 202.668 81.9838 205.461 79.689C206.858 78.4917 208.954 76.4962 208.954 76.4962C208.954 76.4962 208.854 75.8976 209.053 75.698C209.652 74.9996 209.253 74.6005 209.253 74.6005C209.851 74.5007 210.251 74.0018 210.35 73.503C210.35 73.2036 210.35 72.9043 210.151 72.7048C209.652 72.2059 209.452 72.3057 209.452 72.3057C209.452 72.3057 210.55 72.0063 210.849 71.0086C211.049 70.0109 209.652 69.6118 209.652 69.6118" fill="#A96050"/>
<path d="M218.133 70.6088C218.133 70.7086 217.435 70.8083 216.238 70.8083C215.639 70.8083 214.941 70.7085 214.242 70.509C213.544 70.3094 212.745 70.0101 211.847 69.7108C211.249 69.5113 210.65 69.3117 210.052 69.1122H210.151C207.557 69.5113 205.761 69.7108 205.761 69.611C205.761 69.5113 207.557 69.1122 210.151 68.6133H210.251H210.351C210.95 68.8128 211.448 69.0124 212.147 69.2119C212.945 69.5113 213.743 69.7108 214.442 70.0101C215.14 70.2097 215.838 70.3095 216.337 70.4092C217.435 70.6088 218.133 70.6088 218.133 70.6088Z" fill="#884638"/>
<path d="M208.555 69.7112C207.557 70.5094 206.759 71.108 205.761 71.8065C205.462 72.006 205.163 72.3053 204.963 72.6047C204.764 72.904 204.764 73.4028 204.963 73.7022C205.163 73.9017 205.462 74.0015 205.861 74.0015C206.16 74.0015 206.46 73.8019 206.759 73.7022C207.757 73.2033 209.054 72.5049 210.052 71.9062" fill="#A96050"/>
<path d="M210.151 71.9065C210.151 71.9065 209.653 72.4054 208.655 73.0041C208.156 73.3034 207.657 73.7025 206.959 74.0018C206.659 74.1016 206.26 74.3011 205.861 74.4009C205.662 74.4009 205.462 74.4009 205.163 74.4009C204.963 74.3011 204.664 74.2014 204.564 73.902C204.365 73.4032 204.564 72.9043 204.764 72.5052C205.063 72.2059 205.362 71.9065 205.662 71.707C206.26 71.2081 206.759 70.809 207.258 70.5097C208.156 69.8113 208.755 69.512 208.854 69.6117C208.854 69.6117 208.356 70.1106 207.458 70.809C206.959 71.2081 206.46 71.6072 205.961 72.0063C205.662 72.2059 205.362 72.5052 205.163 72.8045C204.963 73.1038 204.863 73.5029 204.963 73.7025C205.063 74.0018 205.462 74.1016 205.861 74.0018C206.26 74.0018 206.56 73.8023 206.959 73.7025C207.657 73.4032 208.156 73.1038 208.655 72.8045C209.553 72.2059 210.151 71.8068 210.151 71.9065Z" fill="#884638"/>
<path d="M209.153 72.6052C209.153 72.6052 210.051 71.807 210.351 71.9068C210.75 72.0066 211.249 72.0066 211.448 72.705C211.648 73.3037 211.348 73.5032 210.351 74.6007" fill="#A96050"/>
<path d="M209.154 72.6042C208.355 73.3027 207.657 73.8015 206.859 74.4002C206.56 74.5997 206.36 74.7993 206.16 75.0986C205.961 75.3979 205.961 75.797 206.16 76.0964C206.36 76.2959 206.56 76.3957 206.859 76.3957C207.158 76.3957 207.358 76.2959 207.557 76.0964C208.455 75.5975 209.453 75.0986 210.251 74.5" fill="#A96050"/>
<path d="M211.447 73.3029C211.447 73.3029 211.248 74.0013 210.35 74.6998C209.951 75.0988 209.452 75.498 208.853 75.7973C208.554 75.9968 208.255 76.1964 207.855 76.2962C207.456 76.3959 207.157 76.5955 206.658 76.5955C206.459 76.5955 206.159 76.4957 205.96 76.1964C205.76 75.9968 205.76 75.6975 205.86 75.4979C205.96 74.9991 206.259 74.6997 206.558 74.5002C207.057 74.0013 207.556 73.6022 208.055 73.3029C208.953 72.7043 209.452 72.3052 209.552 72.4049C209.552 72.4049 209.053 72.9038 208.255 73.6022C207.855 73.9016 207.357 74.4004 206.858 74.7995C206.658 74.9991 206.359 75.2984 206.359 75.5977C206.259 75.8971 206.459 76.1964 206.758 76.1964C207.057 76.1964 207.456 76.0966 207.855 75.897C208.155 75.7973 208.554 75.5977 208.853 75.3982C209.452 75.0989 209.951 74.6998 210.35 74.4004C211.048 73.8018 211.348 73.2031 211.447 73.3029Z" fill="#884638"/>
<path d="M195.883 75.1989C196.382 75.8974 197.379 75.8974 198.178 75.598C198.976 75.2987 199.574 74.7998 200.373 74.4007C202.568 73.403 205.361 74.301 207.556 73.1037C207.856 72.9041 208.155 72.7046 208.055 72.3055C207.956 72.0061 207.556 71.9064 207.257 71.8066C204.563 71.4075 201.869 70.9086 199.175 70.5095" fill="#A96050"/>
<path d="M199.276 70.6086C199.276 70.6086 199.575 70.6086 200.174 70.7084C200.773 70.8082 201.571 70.908 202.569 71.0077C203.566 71.2073 204.764 71.3071 206.061 71.5066C206.36 71.6064 206.759 71.6064 207.059 71.7062C207.358 71.8059 207.857 71.7062 208.156 72.205C208.356 72.4046 208.256 72.8037 208.156 73.0032C208.056 73.2028 207.857 73.3026 207.657 73.4023C207.258 73.6019 206.959 73.7017 206.56 73.8014C204.963 74.2005 203.467 74.001 202.17 74.2005C201.471 74.3003 200.873 74.4001 200.374 74.5996C199.875 74.7992 199.376 75.0985 198.977 75.3978C198.079 75.8967 197.081 75.9965 196.582 75.7969C195.984 75.5974 195.884 75.1983 195.884 75.1983C195.884 75.1983 196.083 75.4976 196.582 75.5974C197.081 75.7969 197.879 75.6971 198.777 75.0985C199.176 74.7992 199.675 74.4999 200.174 74.3003C200.773 74.001 201.371 73.9012 202.07 73.8014C203.467 73.6019 204.963 73.7017 206.36 73.4023C206.759 73.3026 207.059 73.2028 207.358 73.0032C207.657 72.8037 207.857 72.6041 207.757 72.4046C207.657 72.205 207.258 72.205 206.959 72.1053C206.659 72.0055 206.26 72.0055 205.961 71.9057C204.664 71.7062 203.467 71.5066 202.469 71.3071C201.471 71.1075 200.673 71.0077 200.074 70.8082C199.575 70.7084 199.176 70.6086 199.276 70.6086Z" fill="#884638"/>
<path d="M209.753 75.0997C209.753 75.0997 210.352 74.501 210.651 74.6008C210.95 74.6008 211.349 74.7006 211.449 75.1995C211.549 75.5986 211.349 75.7981 210.651 76.5963" fill="#A96050"/>
<path d="M209.753 75.0996C209.154 75.5985 208.655 75.9976 208.057 76.4965C207.857 76.696 207.658 76.7958 207.558 76.9953C207.458 77.1949 207.458 77.4942 207.558 77.6937C207.658 77.8933 207.857 77.8933 208.057 77.8933C208.256 77.8933 208.456 77.7935 208.655 77.6937C209.254 77.3944 210.052 76.8955 210.651 76.4965" fill="#A96050"/>
<path d="M211.348 75.5976C211.348 75.5976 211.149 76.0965 210.55 76.6951C210.251 76.9944 209.852 77.2938 209.453 77.4933C209.253 77.5931 208.954 77.7926 208.654 77.8924C208.355 77.9922 208.056 78.0919 207.756 78.0919C207.557 78.0919 207.357 77.9922 207.257 77.7926C207.158 77.5931 207.158 77.3935 207.158 77.194C207.257 76.7949 207.457 76.5953 207.657 76.3958C208.056 76.0965 208.455 75.7971 208.754 75.5976C209.353 75.0987 209.852 74.8992 209.852 74.8992C209.852 74.8992 209.552 75.2983 208.954 75.7971C208.654 76.0965 208.255 76.3958 207.956 76.6951C207.756 76.8947 207.657 77.0942 207.557 77.2938C207.557 77.4933 207.657 77.6929 207.856 77.6929C208.056 77.6929 208.355 77.5931 208.654 77.4933C208.954 77.3935 209.153 77.2938 209.353 77.194C209.752 76.9944 210.151 76.6951 210.45 76.4956C211.049 75.9967 211.348 75.5976 211.348 75.5976Z" fill="#884638"/>
<path d="M203.366 77.9926C203.266 77.9926 203.466 77.0947 203.167 76.0969C202.867 75.0992 202.269 74.5005 202.269 74.5005C202.269 74.4007 203.167 74.8996 203.566 75.9971C203.865 77.0946 203.466 78.0924 203.366 77.9926Z" fill="#884638"/>
<path d="M139.113 64.8224C135.222 62.8269 131.43 62.4278 127.24 62.328C122.351 62.2283 115.566 61.5298 110.278 62.0287C110.278 62.0287 93.8153 63.3258 93.8153 75.6978L96.4094 121.295L93.0171 141.649L140.709 143.046L140.41 119.1C140.61 129.875 140.011 95.8523 140.211 86.7728C140.909 80.0879 144.102 79.2897 144.7 74.8996C145.099 71.0084 142.505 66.5186 139.113 64.8224Z" fill="#D0D8DC"/>
<path d="M129.135 62.5287C129.135 62.5287 136.419 62.4289 141.208 64.7238C145.997 67.0186 172.138 83.0823 172.138 83.0823L192.193 72.0073L202.769 81.9848L179.721 97.1505C175.231 100.144 169.544 100.742 164.555 98.5474L138.614 88.2706L129.135 62.5287Z" fill="#0A527D"/>
<path d="M139.811 137.957L95.1117 137.658L78.8484 261.179L76.0547 273.451L76.354 280.336L89.9234 282.73L93.0164 275.047L93.7148 265.17L115.865 165.196L122.45 274.249L124.146 281.732L137.516 280.336L138.414 275.646L136.917 267.065L139.811 137.957Z" fill="#8CBDDB"/>
<path d="M134.523 135.962C134.523 135.962 134.024 136.161 133.226 136.461C132.328 136.76 131.131 137.159 129.534 137.558C127.938 137.957 126.042 138.356 123.847 138.556C121.752 138.855 119.357 138.955 116.863 139.055C114.368 139.055 111.974 138.855 109.879 138.656C107.783 138.356 105.788 138.057 104.191 137.658C102.595 137.259 101.298 136.959 100.5 136.66C99.6017 136.361 99.2026 136.161 99.2026 136.161C99.2026 136.161 99.7015 136.261 100.599 136.461C101.497 136.66 102.795 137.059 104.391 137.359C105.987 137.658 107.883 138.057 109.978 138.256C112.074 138.456 114.468 138.656 116.963 138.656C119.457 138.656 121.752 138.456 123.947 138.256C126.042 137.957 127.938 137.658 129.534 137.359C131.131 137.059 132.428 136.66 133.226 136.461C134.024 136.061 134.523 135.962 134.523 135.962Z" fill="#263238"/>
<path d="M121.353 160.208C121.353 160.208 122.45 83.381 121.353 76.0975C121.353 76.0975 117.961 70.9092 115.067 67.916C111.076 63.8252 113.471 61.8297 113.271 60.7322C103.693 63.4261 96.7086 65.6211 95.7108 70.5101C94.4138 76.6961 87.23 154.62 87.23 154.62C87.23 154.62 109.081 162.203 121.353 160.208Z" fill="#0E5E9A"/>
<path d="M125.542 59.5344C127.138 62.2283 134.522 66.6184 134.821 76.3963C134.921 80.986 136.517 159.509 136.517 159.509C143.501 159.509 145.098 157.214 145.098 157.214C145.098 157.214 148.789 72.2058 144.1 66.1196C140.808 61.929 134.222 60.0333 125.542 59.5344Z" fill="#0E5E9A"/>
<path d="M153.382 103.734H50.8135V154.22H153.382V103.734Z" fill="white"/>
<path d="M153.38 154.22C153.38 154.22 153.38 153.921 153.38 153.322C153.38 152.723 153.38 151.825 153.38 150.728C153.38 148.433 153.38 145.041 153.38 140.651C153.38 131.97 153.38 119.299 153.28 103.734L153.38 103.834C127.239 103.834 90.9213 103.834 50.8119 103.934L51.0114 103.734C51.0114 121.394 51.0114 138.456 51.0114 154.22L50.8119 154.02C80.5447 154.02 106.187 154.12 124.346 154.12C133.425 154.12 140.709 154.12 145.698 154.22C148.192 154.22 150.088 154.22 151.385 154.22C151.983 154.22 152.482 154.22 152.881 154.22C153.28 154.12 153.38 154.22 153.38 154.22C153.38 154.22 153.181 154.22 152.881 154.22C152.582 154.22 152.083 154.22 151.385 154.22C150.088 154.22 148.192 154.22 145.698 154.22C140.709 154.22 133.525 154.22 124.446 154.32C106.187 154.32 80.5447 154.42 50.8119 154.42H50.6123V154.22C50.6123 138.456 50.6123 121.394 50.6123 103.734V103.534H50.8119C90.9213 103.534 127.339 103.534 153.38 103.634H153.48V103.734C153.48 119.399 153.48 131.97 153.38 140.75C153.38 145.14 153.38 148.433 153.38 150.728C153.38 151.825 153.38 152.723 153.38 153.322C153.48 153.921 153.38 154.22 153.38 154.22Z" fill="#A42A29"/>
<path d="M50.9116 109.322C50.9116 109.222 73.8598 109.122 102.096 109.122C130.432 109.122 153.28 109.222 153.28 109.322C153.28 109.421 130.332 109.521 102.096 109.521C73.8598 109.421 50.9116 109.421 50.9116 109.322Z" fill="#A42A29"/>
<path d="M55.2015 106.727C55.2015 107.126 54.9022 107.426 54.5031 107.426C54.104 107.426 53.8047 107.126 53.8047 106.727C53.8047 106.328 54.104 106.029 54.5031 106.029C54.9022 106.029 55.2015 106.328 55.2015 106.727Z" fill="#A42A29"/>
<path d="M57.7963 106.727C57.7963 107.126 57.4969 107.425 57.0978 107.425C56.6987 107.425 56.3994 107.126 56.3994 106.727C56.3994 106.327 56.6987 106.028 57.0978 106.028C57.4969 106.028 57.7963 106.327 57.7963 106.727Z" fill="#A42A29"/>
<path d="M60.2899 106.727C60.2899 107.126 59.9906 107.425 59.5915 107.425C59.1924 107.425 58.8931 107.126 58.8931 106.727C58.8931 106.327 59.1924 106.028 59.5915 106.028C59.9906 106.028 60.2899 106.327 60.2899 106.727Z" fill="#A42A29"/>
<path d="M84.3369 116.106H59.5928V140.85H84.3369V116.106Z" fill="#929497"/>
<path d="M140.41 150.628H121.652C119.956 150.628 118.659 149.231 118.659 147.635C118.659 145.939 120.056 144.642 121.652 144.642H140.41C142.106 144.642 143.403 146.039 143.403 147.635C143.403 149.231 142.006 150.628 140.41 150.628Z" fill="#A42A29"/>
<path d="M143.303 118.701C136.419 118.501 129.534 118.501 122.65 118.501C115.766 118.501 108.881 118.501 101.997 118.401C100.001 118.401 98.1054 118.401 96.1099 118.401C94.2142 118.401 92.2187 118.301 90.323 118.601C90.1235 118.601 90.1235 118.9 90.323 118.9C92.0192 119.1 93.7153 119.1 95.4115 119.1C97.1077 119.1 98.9036 119.1 100.6 119.1C104.092 119.1 107.484 119.1 110.976 119C117.861 119 124.745 119 131.63 119C135.521 119 139.412 119 143.403 118.9C143.403 118.8 143.403 118.701 143.303 118.701Z" fill="#A42A29"/>
<path d="M143.303 122.691C136.419 122.491 129.534 122.491 122.65 122.491C115.766 122.491 108.881 122.491 101.997 122.391C100.001 122.391 98.1054 122.391 96.1099 122.391C94.2142 122.391 92.2187 122.291 90.323 122.591C90.1235 122.591 90.1235 122.89 90.323 122.89C92.0192 123.09 93.7153 123.09 95.4115 123.09C97.1077 123.09 98.9036 123.09 100.6 123.09C104.092 123.09 107.484 123.09 110.976 122.99C117.861 122.99 124.745 122.99 131.63 122.99C135.521 122.99 139.412 122.99 143.403 122.89C143.403 122.89 143.403 122.691 143.303 122.691Z" fill="#A42A29"/>
<path d="M143.303 126.782C136.419 126.583 129.534 126.583 122.65 126.583C115.766 126.583 108.881 126.583 101.997 126.483C100.001 126.483 98.1054 126.483 96.1099 126.483C94.2142 126.483 92.2187 126.383 90.323 126.682C90.1235 126.682 90.1235 126.982 90.323 126.982C92.0192 127.181 93.7153 127.181 95.4115 127.181C97.1077 127.181 98.9036 127.181 100.6 127.181C104.092 127.181 107.484 127.181 110.976 127.081C117.861 127.081 124.745 127.081 131.63 127.081C135.521 127.081 139.412 127.081 143.403 126.982C143.403 126.982 143.403 126.782 143.303 126.782Z" fill="#A42A29"/>
<path d="M121.252 131.372C117.261 131.172 113.17 131.172 109.179 131.172C105.188 131.172 101.098 131.172 97.1066 131.073C96.0091 131.073 94.8118 131.073 93.7142 131.073C92.6167 131.073 91.4194 130.973 90.3219 131.272C90.2221 131.272 90.2221 131.571 90.3219 131.571C91.3196 131.771 92.3174 131.771 93.3151 131.771C94.3129 131.771 95.3106 131.771 96.3084 131.771C98.3039 131.771 100.299 131.771 102.395 131.671C106.386 131.671 110.476 131.671 114.467 131.671C116.762 131.671 119.057 131.671 121.352 131.571C121.352 131.571 121.352 131.372 121.252 131.372Z" fill="#A42A29"/>
<path d="M143.802 136.161C136.818 135.961 129.834 135.961 122.85 135.961C115.865 135.961 108.881 135.961 101.897 135.861C99.9015 135.861 97.906 135.861 96.0103 135.861C94.1146 135.861 92.1191 135.761 90.2234 136.061C90.0238 136.061 90.0238 136.36 90.2234 136.36C91.9196 136.56 93.6157 136.56 95.3119 136.56C97.0081 136.56 98.804 136.56 100.5 136.56C103.992 136.56 107.484 136.56 110.977 136.46C117.961 136.46 124.945 136.46 131.929 136.46C135.92 136.46 139.811 136.46 143.802 136.36C144.002 136.36 144.002 136.161 143.802 136.161Z" fill="#A42A29"/>
<path d="M98.6058 66.1196C98.6058 66.1196 92.2202 69.4122 89.4265 81.1856C88.0296 86.9725 80.9456 114.71 80.0477 125.286C79.449 131.871 122.751 128.978 122.751 128.978L120.057 116.606C120.057 116.606 99.2044 116.705 97.0094 115.708L105.989 85.9748C105.889 85.875 110.878 67.3169 98.6058 66.1196Z" fill="#0A527D"/>
<path d="M119.357 117.903L124.345 117.404C124.345 117.404 126.441 114.012 127.738 112.814C129.035 111.617 136.019 108.324 136.019 108.324C136.019 108.324 137.017 109.522 136.019 110.819C135.52 111.417 132.228 113.213 132.228 113.213C131.828 114.61 133.026 115.907 134.423 115.608C136.418 115.209 138.813 114.81 139.112 114.81C139.411 114.81 141.507 112.914 143.003 111.417C143.901 110.52 145.498 111.417 145.098 112.615C145.098 112.715 144.999 112.814 144.899 112.914C144.899 112.914 147.094 112.814 145.098 115.708C145.098 115.708 145.498 118.402 144.001 119.599C144.001 119.599 143.303 122.792 142.305 123.889C141.307 124.987 131.429 127.082 131.429 127.082L121.153 128.08C121.153 128.08 119.756 126.284 119.257 123.49C118.858 120.697 119.357 117.903 119.357 117.903Z" fill="#A96050"/>
<path d="M135.422 118.601C135.422 118.701 136.121 118.701 137.218 118.601C138.316 118.501 139.912 118.401 141.409 117.503C142.905 116.605 143.803 115.208 144.302 114.311C144.801 113.313 145.101 112.714 145.101 112.714C145.001 112.714 144.701 113.213 144.103 114.111C143.504 115.009 142.606 116.206 141.209 117.104C139.812 117.902 138.316 118.102 137.218 118.302C136.021 118.401 135.422 118.501 135.422 118.601Z" fill="#884638"/>
<path d="M136.418 120.896C136.418 120.996 137.017 121.096 138.015 120.996C138.514 120.996 139.112 120.896 139.711 120.696C140.31 120.497 141.108 120.397 141.707 119.898C142.305 119.399 142.804 118.801 143.203 118.302C143.602 117.803 143.902 117.404 144.301 116.905C144.899 116.107 145.298 115.608 145.199 115.608C145.199 115.608 144.7 116.007 144.001 116.705C143.702 117.105 143.303 117.504 142.804 118.002C142.405 118.501 141.906 119 141.307 119.499C140.709 119.898 140.01 120.098 139.412 120.297C138.813 120.497 138.214 120.597 137.716 120.597C137.017 120.796 136.418 120.796 136.418 120.896Z" fill="#884638"/>
<path d="M137.816 123.391C137.816 123.59 139.612 123.191 141.707 122.593C142.006 122.493 142.306 122.293 142.505 122.094C142.705 121.894 142.904 121.695 143.004 121.595C143.304 121.196 143.603 120.896 143.802 120.597C144.201 119.998 144.301 119.5 144.201 119.5C144.102 119.5 143.902 119.899 143.503 120.397C143.304 120.697 143.004 120.996 142.705 121.295C142.505 121.495 142.406 121.595 142.206 121.794C142.006 121.994 141.807 122.094 141.607 122.193C140.51 122.493 139.612 122.792 138.913 122.992C138.215 123.191 137.816 123.391 137.816 123.391Z" fill="#884638"/>
<path d="M129.136 59.3342C129.136 59.3342 138.316 62.3275 141.109 73.4025C141.109 73.4025 139.313 69.8106 137.717 70.9081C136.12 72.0056 134.823 76.3957 134.823 76.3957C134.823 76.3957 133.227 65.5203 127.939 62.8263L129.136 59.3342Z" fill="#0A527D"/>
<path d="M127.239 62.9259C127.239 62.9259 131.33 64.9214 132.627 68.8127C132.627 68.8127 132.228 59.8329 128.836 59.0347C125.344 58.3363 127.239 62.9259 127.239 62.9259Z" fill="#083D56"/>
<path d="M116.164 60.8301C116.164 60.8301 112.073 62.8256 110.776 66.7168C110.776 66.7168 111.175 57.7371 114.568 56.9389C118.06 56.1407 116.164 60.8301 116.164 60.8301Z" fill="#083D56"/>
<path d="M114.867 56.8394C114.867 56.8394 108.082 56.9391 106.386 63.9234C104.69 70.9076 113.57 76.3952 113.57 76.3952C113.57 76.3952 115.067 72.6038 116.962 72.6038C118.958 72.6038 121.352 75.9961 121.352 75.9961C121.352 75.9961 119.457 71.7058 116.663 69.6105C113.969 67.5153 111.275 61.429 114.867 56.8394Z" fill="#0A527D"/>
<path d="M131.33 52.9477L127.439 68.4127C127.439 68.4127 123.049 70.508 113.67 64.2222C113.67 64.2222 118.659 52.4488 114.269 44.1675C114.269 44.1675 115.366 44.2673 117.162 44.4668C117.062 44.367 118.858 53.5463 131.33 52.9477Z" fill="#884638"/>
<path d="M111.675 36.3853C111.476 54.644 131.032 57.0386 135.522 50.2539C137.018 48.0589 138.315 44.1677 139.113 39.8774C139.313 38.8796 139.413 37.8819 139.612 36.8841C140.41 30.1992 140.311 26.2082 135.921 22.4168C127.14 14.6344 111.875 18.1265 111.675 36.3853Z" fill="#A96050"/>
<path d="M119.158 30.8974C115.766 32.8929 114.468 38.5801 114.468 38.5801C114.468 38.5801 114.169 35.7864 112.673 35.4871C111.176 35.1877 113.072 44.367 113.072 44.367C113.072 44.367 106.586 39.8771 107.384 31.3963C108.282 21.0197 118.659 18.4256 120.555 19.2238C122.45 20.022 122.55 28.9019 119.158 30.8974Z" fill="#0E3944"/>
<path d="M115.565 36.1863C115.565 36.1863 112.971 32.4946 109.978 34.2905C107.085 36.1863 111.076 42.9709 114.069 42.9709C116.962 43.0707 115.565 36.1863 115.565 36.1863Z" fill="#A96050"/>
<path d="M138.913 41.0746C138.913 41.0746 137.317 43.2696 133.326 42.8705C126.442 42.1721 118.36 38.9793 115.965 33.4917L115.167 35.6867C115.167 35.6867 113.072 44.3671 113.97 47.2606L114.568 46.9613C114.568 46.9613 114.369 50.5532 119.457 53.3469C124.646 56.1406 128.238 56.1406 128.238 56.1406C128.238 56.1406 135.721 57.5374 137.816 51.7505C137.916 51.7505 141.308 45.764 138.913 41.0746Z" fill="#0E3944"/>
<path d="M235.096 116.405C225.417 106.727 210.85 102.836 197.68 106.528C191.195 108.324 185.508 111.616 180.718 116.405C175.929 121.195 172.637 126.882 170.841 133.367L170.442 135.961C168.745 142.447 168.745 148.932 170.442 155.417C172.138 161.603 175.331 166.991 179.92 171.581C184.51 176.17 189.898 179.263 196.084 181.059C202.569 182.855 209.054 182.855 215.54 181.059C216.438 180.96 217.236 180.86 218.134 180.66C224.619 178.864 230.306 175.572 235.096 170.783C239.885 165.993 243.177 160.306 244.973 153.821C248.665 140.651 244.873 126.083 235.096 116.405Z" fill="#F2F2F3"/>
<path d="M187.204 150.727C184.21 146.238 183.412 139.852 185.807 134.863C191.294 125.684 201.172 124.187 201.172 124.187C201.172 124.187 198.279 129.276 197.381 130.772C195.485 133.766 199.576 136.36 201.87 134.364C204.564 132.07 210.052 124.786 210.052 122.192C210.052 119.997 203.866 115.208 201.771 114.11C199.975 113.212 196.682 110.618 194.687 111.217C193.39 111.616 192.791 113.112 193.489 114.409C193.888 115.307 197.081 117.403 197.879 118.101C181.616 122.292 177.426 134.364 177.825 143.344C178.423 157.113 189.498 163.997 195.684 165.793C199.476 166.592 201.072 159.807 197.78 158.709C193.39 157.811 189.698 154.519 187.204 150.727Z" fill="#CE374C"/>
<path d="M228.011 137.258C230.705 141.848 231.304 148.333 228.709 153.123C222.823 162.003 212.845 163 212.845 163C212.845 163 215.938 158.012 216.936 156.615C219.031 153.721 215.04 150.928 212.646 152.723C209.852 154.819 203.965 161.903 203.865 164.497C203.766 166.692 209.752 171.88 211.748 172.978C213.544 173.976 216.637 176.769 218.732 176.27C220.029 175.971 220.727 174.474 220.129 173.177C219.73 172.279 216.637 169.985 215.938 169.186C232.401 165.794 237.789 154.42 237.789 145.44C237.889 131.671 225.616 123.29 219.53 121.294C215.739 120.297 213.843 126.982 217.036 128.279C221.326 129.476 225.616 133.367 228.011 137.258Z" fill="#CE374C"/>
<path d="M211.95 237.032L194.489 235.435L179.124 232.542L175.133 227.354L193.89 227.653L208.058 229.249L211.95 237.032Z" fill="white"/>
<path d="M212.748 266.865H175.133L176.43 242.52L193.89 243.019L210.353 245.214L212.748 266.865Z" fill="white"/>
<path d="M210.054 218.673L194.19 220.968L177.128 220.17L175.133 215.481L194.19 207.698L208.058 213.186L210.054 218.673Z" fill="white"/>
<path d="M208.059 213.186L201.374 210.891L191.596 210.293L175.133 215.481L173.936 193.53L189.999 192.134L195.088 193.53L199.179 192.433L213.546 194.229L208.059 213.186Z" fill="#F2F2F3"/>
<path d="M186.408 217.177L185.111 212.587L184.911 207.499L184.413 199.217L190.299 198.719L194.091 200.115L197.882 199.517L203.47 200.215L201.374 210.891L203.07 217.277L198.68 217.676L195.986 216.977L190.798 218.075L186.408 217.177Z" fill="#929497"/>
<path d="M210.354 245.214L176.43 242.52L179.124 232.542L211.95 237.032L210.354 245.214Z" fill="#F2F2F3"/>
<path d="M208.058 229.249L175.133 227.354L177.128 220.17L190.997 220.469L195.986 219.372L199.378 220.07L210.054 218.673L208.058 229.249Z" fill="#F2F2F3"/>
<path d="M212.748 266.865H175.133L176.43 242.52L179.024 232.542L175.133 227.354L177.128 220.07L175.133 215.481L174.135 193.331L189.999 192.133L195.087 193.53L199.178 192.433L213.546 194.229L208.058 213.186L210.054 218.673L208.058 229.249L211.949 237.032L210.353 245.213L212.748 266.865Z" stroke="#A42A29" stroke-width="0.2114" stroke-miterlimit="10"/>
<path d="M191.595 210.292L190.298 211.689V198.719L194.09 200.115L191.595 210.292Z" fill="#808284"/>
<path d="M196.784 213.485L195.287 210.891L194.09 200.115L197.881 199.516L196.784 213.485Z" fill="#808284"/>
<path d="M200.674 218.673L201.872 220.27L201.273 230.247L203.867 237.531L201.173 245.812L203.368 261.876" stroke="#A42A29" stroke-width="0.2114" stroke-miterlimit="10"/>
<path d="M190.298 218.374L191.595 219.97L190.897 229.848L191.894 235.136L189.6 245.513L190.797 259.781" stroke="#A42A29" stroke-width="0.2114" stroke-miterlimit="10"/>
<path d="M195.886 218.374L197.083 219.97L196.485 229.848L197.482 235.136L195.088 245.513L196.784 256.388" stroke="#A42A29" stroke-width="0.2114" stroke-miterlimit="10"/>
<path d="M210.254 197.422C209.955 197.322 209.755 197.022 209.855 196.723C209.955 196.424 210.254 196.224 210.553 196.324C210.853 196.424 211.052 196.723 210.953 197.022C210.853 197.422 210.553 197.521 210.254 197.422Z" fill="#A42A29"/>
<path d="M209.854 199.218C209.554 199.118 209.355 198.819 209.455 198.52C209.554 198.22 209.854 198.021 210.153 198.121C210.452 198.22 210.652 198.52 210.552 198.819C210.353 199.118 210.053 199.318 209.854 199.218Z" fill="#A42A29"/>
<path d="M209.355 201.014C209.056 200.914 208.856 200.615 208.956 200.315C209.056 200.016 209.355 199.816 209.655 199.916C209.954 200.016 210.153 200.315 210.054 200.615C209.954 200.914 209.655 201.014 209.355 201.014Z" fill="#A42A29"/>
<path d="M179.822 262.574L180.62 248.107C180.62 247.209 181.419 246.511 182.317 246.511L183.314 246.611C184.212 246.611 184.911 247.409 184.911 248.307L184.113 262.774C184.113 263.672 183.314 264.37 182.416 264.37L181.419 264.271C180.521 264.271 179.822 263.472 179.822 262.574Z" fill="#A42A29"/>
<path d="M217.735 249.903V261.078H214.942L211.948 292.307H177.426L173.435 261.377L169.744 261.078V249.903H217.735Z" fill="#929497"/>
<path d="M209.055 261.577C207.059 261.477 204.964 261.776 202.969 261.876C200.873 261.976 198.878 262.076 196.783 262.175C192.692 262.275 188.601 262.275 184.51 262.175C183.413 262.175 182.315 262.076 181.118 262.076C180.519 262.076 179.921 262.076 179.422 262.076C178.823 262.076 178.225 262.275 177.626 262.275C177.626 262.275 177.526 262.375 177.626 262.375C178.125 262.475 178.524 262.674 179.023 262.774C179.522 262.874 180.02 262.874 180.519 262.974C181.517 263.073 182.515 263.073 183.513 263.173C185.608 263.273 187.603 263.273 189.699 263.273C193.889 263.273 197.98 263.173 202.17 262.974C204.465 262.874 206.86 262.874 209.055 262.275C209.454 261.976 209.354 261.577 209.055 261.577Z" fill="#808284"/>
<path d="M208.756 269.159C206.86 269.159 204.964 269.458 203.068 269.558C201.173 269.658 199.277 269.758 197.381 269.858C193.59 269.957 189.798 269.858 186.007 269.458C185.009 269.359 183.912 269.259 182.914 269.159C182.415 269.159 181.816 269.059 181.318 269.059C181.018 269.059 180.719 269.059 180.42 269.059C180.12 269.059 179.821 269.159 179.522 269.159C179.422 269.159 179.422 269.259 179.522 269.259C179.721 269.359 179.921 269.458 180.12 269.558C180.32 269.658 180.619 269.658 180.819 269.758C181.318 269.858 181.816 269.957 182.315 269.957C183.213 270.057 184.211 270.157 185.109 270.257C187.005 270.456 189 270.556 190.896 270.556C194.687 270.656 198.579 270.656 202.37 270.356C204.465 270.257 206.66 270.057 208.756 269.558C209.055 269.558 209.055 269.159 208.756 269.159Z" fill="#808284"/>
<path d="M206.961 276.642C205.963 276.642 204.965 276.941 203.967 277.041C202.87 277.241 201.772 277.34 200.675 277.44C198.58 277.64 196.484 277.64 194.389 277.54C192.294 277.54 190.199 277.34 188.103 277.141C187.106 277.041 186.008 276.941 185.01 276.742C184.511 276.642 184.013 276.642 183.514 276.542C182.915 276.442 182.416 276.542 181.818 276.442C181.718 276.442 181.718 276.542 181.818 276.542C182.316 276.742 182.815 276.941 183.414 277.141C183.913 277.241 184.511 277.44 185.01 277.44C186.008 277.64 187.006 277.739 188.004 277.839C190.099 278.039 192.294 278.139 194.389 278.139C196.584 278.139 198.679 277.939 200.775 277.739C201.772 277.64 202.77 277.54 203.768 277.34C204.766 277.241 205.963 277.141 206.961 276.742C207.36 276.941 207.16 276.642 206.961 276.642Z" fill="#808284"/>
<path d="M214.443 252.097C211.749 252.097 209.055 252.296 206.361 252.396C203.667 252.496 200.973 252.496 198.28 252.596C192.892 252.596 187.504 252.596 182.116 252.396C180.619 252.396 179.023 252.296 177.526 252.196C176.828 252.196 176.03 252.197 175.331 252.097C174.533 252.097 173.835 251.997 173.037 252.196C172.737 252.296 172.737 252.695 173.037 252.795C174.234 253.194 175.73 253.094 177.027 253.194C178.325 253.294 179.622 253.294 180.919 253.394C183.613 253.494 186.307 253.593 189 253.593C194.388 253.693 199.776 253.593 205.164 253.494C206.661 253.494 208.257 253.394 209.754 253.394C211.25 253.294 212.847 253.394 214.343 253.194C215.042 252.895 215.042 252.097 214.443 252.097Z" fill="#808284"/>
</svg>
