<svg width="320" height="320" viewBox="0 0 320 320" fill="none" xmlns="http://www.w3.org/2000/svg">
<path d="M286.05 121.236C233.867 82.2213 130.973 89.1736 73.5551 115.511C46.155 128.106 4.76843 158.942 19.5727 192.804C30.1238 214.56 68.4841 229.364 107.744 233.045C146.022 236.644 185.037 230.837 219.717 223.557C254.069 216.359 282.86 202.782 295.456 183.806C308.215 164.667 309.687 138.903 286.05 121.236Z" fill="#F7F7F7"/>
<path d="M171.46 132.36L129.255 112.812C132.609 115.756 133.099 129.006 133.345 131.951C133.59 135.631 148.885 136.367 149.785 136.776C151.175 137.349 135.553 135.877 135.471 137.267C135.062 144.547 133.835 150.436 133.835 150.436H157.146L169.251 150.517C173.75 150.517 177.349 146.346 177.349 141.275C177.349 137.185 174.895 133.505 171.46 132.36Z" fill="#E28A40"/>
<path d="M135.471 138.658C135.39 139.639 135.226 140.703 135.062 141.766C134.817 143.647 134.572 145.692 134.245 147.655C134.081 148.636 133.917 149.7 133.836 150.681C133.508 153.135 133.099 155.589 132.69 157.961C132.527 159.024 132.363 160.005 132.2 161.069C131.791 163.85 131.3 166.549 130.891 169.084C130.727 170.147 130.564 171.211 130.319 172.192C129.91 174.482 129.582 176.527 129.255 178.245C129.01 179.472 128.846 180.617 128.683 181.517C128.356 183.48 128.11 184.543 128.11 184.543C128.11 184.543 122.63 189.123 111.752 189.45C92.6126 190.023 87.3779 180.208 87.3779 180.208C87.3779 180.208 87.3779 179.472 87.4597 178.245C87.4597 177.427 87.5415 176.282 87.5415 175.055C87.5415 173.501 87.6233 171.702 87.7051 169.657C87.7051 168.675 87.7869 167.612 87.7869 166.549C87.8687 164.259 87.9505 161.805 88.0323 159.269C88.1141 158.288 88.1141 157.224 88.1958 156.243C88.2776 154.198 88.3594 152.072 88.4412 149.945C88.523 148.882 88.523 147.9 88.6048 146.837C88.6866 144.547 88.8502 142.257 88.932 140.048C89.0138 138.985 89.0956 137.922 89.0956 136.94C89.2591 134.486 89.4227 132.196 89.5863 129.988C89.6681 128.925 89.7499 127.861 89.9135 126.88C90.1588 124.59 90.3224 122.627 90.6496 120.909C90.8132 119.6 91.0586 118.537 91.2221 117.637C91.4675 116.574 91.7129 115.92 92.0401 115.593C94.1666 113.139 98.4198 112.403 106.517 111.176C108.562 110.849 110.77 110.767 113.06 110.93C116.169 111.176 119.031 111.503 121.649 111.994C128.437 113.221 133.508 115.347 135.88 119.028C135.962 119.11 136.044 119.191 136.044 119.355C136.371 119.927 136.535 120.991 136.616 122.463C136.698 124.017 136.616 126.062 136.453 128.434C136.371 129.415 136.289 130.479 136.207 131.542C136.044 133.668 135.799 136.122 135.471 138.658Z" fill="#FBB778"/>
<path d="M136.698 122.299C120.667 117.146 101.446 118.946 90.6497 120.663C90.8132 119.355 91.0586 118.292 91.2222 117.392C102.019 115.756 120.095 114.202 135.88 118.864C135.962 118.946 136.044 119.028 136.044 119.191C136.453 119.764 136.617 120.827 136.698 122.299Z" fill="#E28A40"/>
<path d="M136.289 131.46C122.63 127.697 102.673 128.597 89.6682 129.824C89.75 128.761 89.8318 127.697 89.9954 126.716C103 125.489 122.467 124.671 136.535 128.433C136.453 129.333 136.371 130.396 136.289 131.46Z" fill="#E28A40"/>
<path d="M135.472 138.657C135.39 139.638 135.226 140.702 135.063 141.765C120.831 138.657 101.855 139.066 88.9321 139.884C89.0139 138.821 89.0957 137.757 89.0957 136.776C102.182 135.876 120.913 135.549 135.472 138.657Z" fill="#E28A40"/>
<path d="M134.326 147.572C134.163 148.554 133.999 149.617 133.917 150.599C120.994 149.044 102.1 149.208 88.5229 149.699C88.6047 148.636 88.6047 147.654 88.6865 146.591C102.264 146.182 121.076 146.018 134.326 147.572Z" fill="#E28A40"/>
<path d="M132.772 157.961C132.609 159.024 132.445 160.005 132.281 161.069C118.295 160.741 100.71 159.842 88.114 159.187C88.1958 158.206 88.1958 157.143 88.2776 156.161C100.955 156.734 118.786 157.633 132.772 157.961Z" fill="#E28A40"/>
<path d="M130.973 169.002C130.809 170.065 130.646 171.129 130.4 172.11C119.358 173.01 106.108 171.947 94.9845 170.556C92.449 170.229 89.9952 169.902 87.7869 169.575C87.7869 168.593 87.8687 167.53 87.8687 166.467C100.219 168.266 117.559 170.229 130.973 169.002Z" fill="#E28A40"/>
<path d="M129.337 178.244C129.092 179.471 128.928 180.616 128.764 181.516C120.176 183.234 111.997 183.152 104.718 182.252C98.1744 181.434 92.3672 179.88 87.5415 178.244C87.5415 177.426 87.6233 176.281 87.6233 175.054C97.7654 178.571 112.733 181.761 129.337 178.244Z" fill="#E28A40"/>
<path d="M136.208 150.517V138.494C136.208 138.494 118.377 142.174 118.05 150.353L136.208 150.517Z" fill="#A96050"/>
<path d="M279.179 207.117C292.324 207.117 302.98 196.461 302.98 183.316C302.98 170.171 292.324 159.515 279.179 159.515C266.034 159.515 255.378 170.171 255.378 183.316C255.378 196.461 266.034 207.117 279.179 207.117Z" fill="white"/>
<path d="M255.378 183.316C255.378 183.316 255.378 183.152 255.378 182.907C255.378 182.662 255.378 182.253 255.378 181.762C255.378 181.517 255.378 181.271 255.378 180.944C255.378 180.617 255.459 180.29 255.541 179.963C255.623 179.145 255.787 178.327 256.032 177.509C256.605 175.219 257.422 173.092 258.649 171.129C262.166 165.158 268.055 161.069 274.762 159.76C275.744 159.596 276.807 159.433 277.789 159.433C278.279 159.433 278.852 159.351 279.343 159.351L280.897 159.433C281.469 159.433 281.96 159.515 282.532 159.596C283.105 159.678 283.596 159.76 284.168 159.842C285.232 160.087 286.377 160.333 287.358 160.742C288.421 161.15 289.485 161.559 290.466 162.132C290.957 162.377 291.448 162.705 291.938 163.032C292.429 163.359 292.92 163.686 293.411 164.013C294.392 164.749 295.292 165.485 296.11 166.303C296.928 167.203 297.746 168.103 298.482 169.084C299.954 171.129 301.099 173.337 301.917 175.709C303.553 180.617 303.553 185.933 301.917 190.923C301.099 193.295 299.954 195.503 298.482 197.548C297.746 198.529 297.01 199.429 296.11 200.329C295.21 201.147 294.31 201.964 293.411 202.619C292.92 202.946 292.429 203.355 291.938 203.6C291.448 203.927 290.957 204.255 290.466 204.5C289.485 204.991 288.421 205.482 287.358 205.89C286.295 206.299 285.232 206.545 284.168 206.79C283.596 206.872 283.105 206.954 282.532 207.036C281.96 207.117 281.469 207.199 280.897 207.199L279.343 207.281C278.852 207.281 278.279 207.281 277.789 207.199C276.807 207.117 275.744 207.036 274.762 206.872C267.974 205.563 262.166 201.474 258.649 195.503C257.422 193.54 256.605 191.332 256.032 189.123C255.787 188.305 255.623 187.487 255.541 186.669C255.459 186.26 255.459 185.933 255.378 185.688C255.296 185.443 255.378 185.115 255.378 184.87C255.378 184.379 255.378 184.052 255.378 183.725C255.378 183.398 255.459 183.398 255.378 183.316C255.459 183.48 255.459 183.643 255.459 183.725C255.459 183.97 255.541 184.379 255.541 184.87C255.541 185.115 255.541 185.361 255.623 185.688C255.623 186.015 255.705 186.342 255.787 186.669C255.868 187.487 256.032 188.305 256.277 189.123C256.85 191.332 257.75 193.458 258.895 195.421C262.412 201.228 268.219 205.236 274.844 206.463C275.826 206.627 276.807 206.79 277.87 206.79C278.361 206.79 278.852 206.872 279.424 206.872L280.978 206.79C281.469 206.79 282.042 206.708 282.532 206.627C283.023 206.545 283.596 206.463 284.086 206.381C285.15 206.136 286.213 205.809 287.276 205.482C288.34 205.073 289.403 204.664 290.384 204.091C290.875 203.846 291.366 203.519 291.857 203.191C292.347 202.864 292.838 202.537 293.247 202.21C294.229 201.474 295.128 200.738 295.946 199.92C296.764 199.02 297.582 198.12 298.236 197.139C299.709 195.176 300.854 192.967 301.59 190.595C303.226 185.77 303.226 180.535 301.59 175.709C300.854 173.337 299.709 171.129 298.236 169.166C297.5 168.185 296.764 167.285 295.946 166.385C295.128 165.567 294.229 164.831 293.247 164.095C292.756 163.768 292.347 163.441 291.857 163.113C291.366 162.786 290.875 162.541 290.384 162.214C289.403 161.723 288.34 161.232 287.276 160.823C286.213 160.414 285.232 160.169 284.086 159.924C283.596 159.842 283.023 159.76 282.532 159.678C282.042 159.596 281.469 159.515 280.978 159.515L279.424 159.433C278.934 159.433 278.361 159.433 277.87 159.515C276.889 159.596 275.826 159.678 274.844 159.842C268.137 161.069 262.33 165.158 258.813 170.965C257.586 172.928 256.686 175.055 256.196 177.263C255.95 178.081 255.787 178.899 255.705 179.717C255.623 180.044 255.623 180.372 255.541 180.699C255.459 181.026 255.541 181.271 255.459 181.517C255.459 182.007 255.378 182.335 255.378 182.662C255.378 182.989 255.378 183.152 255.378 183.316Z" fill="#A42A29"/>
<path d="M279.179 172.683L268.873 182.089V193.948H276.889V186.833H282.042V193.948H289.567V182.089L279.179 172.683Z" fill="#E0E0E0"/>
<path d="M204.667 209.325H24.3166C22.7625 209.325 21.4539 208.017 21.4539 206.463V152.808C21.4539 151.253 22.7625 149.945 24.3166 149.945H204.667C206.221 149.945 207.53 151.253 207.53 152.808V206.545C207.448 208.099 206.221 209.325 204.667 209.325Z" fill="white"/>
<path d="M204.667 209.325L83.2065 209.489L52.8618 209.571H37.6486H30.042H26.2796H24.3984C23.744 209.571 23.0079 209.325 22.4354 208.916C21.8628 208.507 21.4539 207.853 21.2903 207.199C21.2085 206.872 21.2085 206.463 21.2085 206.217V205.236V201.473V193.867V178.653V163.44V155.834V153.952V152.971C21.2085 152.644 21.2085 152.317 21.2903 151.908C21.6175 150.517 23.0079 149.372 24.4802 149.372L145.941 149.536L176.285 149.617H191.499H199.105H202.868H204.749C205.403 149.617 206.057 149.781 206.548 150.19C207.039 150.599 207.448 151.171 207.611 151.826C207.775 152.48 207.693 153.134 207.693 153.707V157.469V165.076V180.289V195.503V203.109V204.99C207.693 205.645 207.775 206.299 207.611 206.872C207.121 208.426 205.894 209.325 204.667 209.325ZM204.667 209.325C205.976 209.325 207.121 208.426 207.448 207.117C207.611 206.463 207.53 205.89 207.53 205.236V203.355V195.748V180.535V165.321V157.715V153.952C207.53 153.298 207.611 152.644 207.448 152.071C207.284 151.499 206.957 150.926 206.466 150.599C205.485 149.781 204.094 150.108 202.868 150.026H199.105H191.499H176.285L145.941 150.108L24.3166 150.435C23.2533 150.435 22.19 151.253 21.9446 152.317C21.8628 152.807 21.8628 153.462 21.8628 154.116V155.997V163.604V178.817V194.03V201.637V205.399C21.8628 206.054 21.781 206.708 21.9446 207.199C22.1082 207.771 22.4354 208.262 22.8443 208.589C23.2533 208.916 23.8258 209.08 24.3984 209.08H26.2796H30.042H37.6486H52.8618L83.2065 209.162L204.667 209.325Z" fill="#A42A29"/>
<path d="M193.952 159.842H41.084V168.593H193.952V159.842Z" fill="#EBEBEB"/>
<path d="M163.935 177.427C163.935 177.591 144.141 177.754 119.686 177.754C95.2298 177.754 75.4363 177.591 75.4363 177.427C75.4363 177.263 95.2298 177.1 119.686 177.1C144.141 177.182 163.935 177.263 163.935 177.427Z" fill="#A42A29"/>
<path d="M163.935 182.58C163.935 182.743 144.141 182.907 119.686 182.907C95.2298 182.907 75.4363 182.743 75.4363 182.58C75.4363 182.416 95.2298 182.252 119.686 182.252C144.141 182.252 163.935 182.416 163.935 182.58Z" fill="#A42A29"/>
<path d="M122.221 187.651C122.221 187.651 121.567 187.732 120.422 187.732C119.113 187.732 117.395 187.814 115.432 187.814C111.179 187.896 105.372 187.896 98.9105 187.896C92.4489 187.896 86.6417 187.896 82.3885 187.814C80.3438 187.814 78.7079 187.732 77.3993 187.732C76.2542 187.732 75.5999 187.651 75.5999 187.651C75.5999 187.651 76.2542 187.569 77.3993 187.569C78.7079 187.569 80.4256 187.487 82.3885 187.487C86.6417 187.405 92.4489 187.405 98.9105 187.405C105.372 187.405 111.179 187.405 115.432 187.487C117.477 187.487 119.113 187.569 120.422 187.569C121.567 187.569 122.221 187.651 122.221 187.651Z" fill="#A42A29"/>
<path d="M163.935 192.886C163.935 193.05 144.141 193.213 119.686 193.213C95.2298 193.213 75.4363 193.05 75.4363 192.886C75.4363 192.722 95.2298 192.559 119.686 192.559C144.141 192.641 163.935 192.804 163.935 192.886Z" fill="#A42A29"/>
<path d="M163.935 198.038C163.935 198.201 144.141 198.365 119.686 198.365C95.2298 198.365 75.4363 198.201 75.4363 198.038C75.4363 197.874 95.2298 197.71 119.686 197.71C144.141 197.71 163.935 197.874 163.935 198.038Z" fill="#A42A29"/>
<path d="M185.937 198.938C193.074 198.938 198.86 193.152 198.86 186.015C198.86 178.878 193.074 173.092 185.937 173.092C178.8 173.092 173.014 178.878 173.014 186.015C173.014 193.152 178.8 198.938 185.937 198.938Z" fill="#E0E0E0"/>
<path d="M108.889 115.347C107.417 115.592 104.391 117.474 104.309 118.946C104.063 123.444 112.815 127.207 120.749 126.634C128.764 125.98 128.764 121.645 127.21 119.518C125.738 117.228 122.221 113.384 108.889 115.347Z" fill="#C96F32"/>
<path d="M71.7558 172.192H41.0022V202.291H71.7558V172.192Z" fill="#EBEBEB"/>
<path d="M67.0119 196.976C65.5396 193.868 63.822 190.759 61.6136 188.06C60.5503 186.752 59.0781 185.525 57.524 184.789C57.6876 184.707 57.7694 184.707 57.933 184.625C60.5503 183.316 61.2865 179.799 59.6506 177.346C58.7509 176.037 57.2787 175.219 55.8064 174.728C54.4978 174.238 52.8619 174.156 51.7168 175.137C50.9807 175.71 50.6536 176.691 50.3264 177.509C49.9992 178.491 49.8356 179.472 49.9174 180.454C49.9992 181.272 50.4082 182.09 51.0625 182.662C51.0625 182.662 51.1443 182.662 51.1443 182.744C51.6351 183.48 52.2894 184.134 53.0255 184.625C51.3897 185.361 49.9992 186.67 49.0995 188.06C47.0547 191.005 46.7276 194.767 46.3186 198.284C46.3186 198.53 46.564 198.775 46.8094 198.775C53.4345 198.775 59.9778 198.284 66.5211 197.63C66.9301 197.548 67.0937 197.303 67.0119 196.976Z" fill="#E0E0E0"/>
<path d="M125.738 106.186L122.876 122.872C122.876 122.872 118.377 125.489 107.826 119.6C107.826 119.6 112.079 106.677 106.681 98.2524C106.681 98.2524 107.908 98.2524 109.789 98.3342C109.789 98.2524 112.488 107.822 125.738 106.186Z" fill="#884638"/>
<path d="M138.334 84.5932C138.334 84.5932 143.896 81.7305 139.888 79.6039C139.888 79.6039 142.669 75.269 140.788 74.0421C138.907 72.8152 136.371 74.2875 135.635 71.9973C134.899 69.7072 133.099 65.9447 128.028 68.2349C122.957 70.5251 121.567 64.7997 119.358 66.0265C117.068 67.3352 117.723 70.2797 114.533 70.0343C111.343 69.789 108.317 69.9525 108.317 73.1424C108.398 76.4141 104.881 75.9233 104.391 77.7227C103.818 79.6039 105.209 80.4219 104.963 82.0577C104.718 83.6935 102.346 83.9389 102.673 86.4744C103 89.0918 105.372 89.2553 104.881 90.8912C104.309 92.6088 102.019 96.1258 104.063 97.1073C106.19 98.0888 106.19 102.178 108.889 102.178C111.425 102.342 138.334 84.5932 138.334 84.5932Z" fill="#0E3944"/>
<path d="M107.826 92.2814C104.063 107.658 124.757 119.027 130.482 112.484C132.281 110.357 134.981 104.059 136.453 99.6427C136.78 98.6612 137.107 97.5979 137.353 96.6164C139.152 89.5823 139.316 82.3029 135.635 79.9309C122.63 71.5064 112.488 73.3876 107.826 92.2814Z" fill="#A96050"/>
<path d="M112.243 93.4264C112.243 93.4264 113.061 87.701 117.15 85.1655C121.24 82.6299 119.277 77.2317 119.277 77.2317C119.277 77.2317 133.427 77.8042 138.334 84.5929C138.334 84.5929 144.55 77.5588 132.282 71.5881C120.013 65.6173 96.784 71.3427 108.807 102.342L107.908 92.2813L112.243 93.4264Z" fill="#0E3944"/>
<path d="M111.916 92.6908C111.916 92.6908 109.625 88.3558 106.272 89.9917C102.919 91.5457 106.272 99.3159 109.38 99.7249C112.57 100.134 111.916 92.6908 111.916 92.6908Z" fill="#A96050"/>
<path d="M140.87 156.243C144.223 155.834 147.495 167.53 141.033 169.493C141.033 169.493 131.709 157.388 140.87 156.243Z" fill="#C96F32"/>
<path d="M146.759 167.039C148.067 167.366 156.901 169.084 158.537 168.593C158.618 168.593 158.618 168.593 158.7 168.511C160.254 167.939 161.89 166.058 162.953 165.485C164.098 164.913 164.998 162.295 165.407 161.068C165.816 160.005 171.869 159.678 171.869 159.678C171.869 159.678 171.46 157.388 169.987 157.142C168.106 156.897 164.18 158.287 164.18 158.287L159.763 158.942C159.763 158.942 153.956 157.633 154.038 156.488C154.12 155.343 156.492 155.916 158.455 155.425C159.763 155.098 159.6 153.707 159.6 153.707L156.083 153.38C156.083 153.38 151.012 153.298 150.03 153.953C149.049 154.525 145.532 157.551 145.532 157.551L136.289 159.105V168.839C136.453 168.757 145.45 166.712 146.759 167.039Z" fill="#A96050"/>
<path d="M158.7 168.511C160.254 167.938 161.89 166.057 162.953 165.484C164.098 164.912 163.935 164.421 164.426 163.276C164.998 162.131 165.571 160.577 165.571 160.577C164.753 161.477 161.481 161.722 161.154 162.131C160.909 162.54 161.481 162.785 161.399 163.603C161.318 164.339 159.845 164.585 160.009 165.321C160.254 166.057 160.254 166.875 159.191 167.366C158.864 167.611 158.7 168.102 158.7 168.511Z" fill="#884638"/>
<path d="M91.4675 116.083C93.9212 111.912 98.8287 115.756 100.792 120.664L108.807 159.842C108.807 159.842 110.607 162.377 109.462 163.032L140.461 156.325C140.461 156.325 136.78 161.232 141.033 169.493C141.033 169.493 105.781 183.725 95.8024 178.408C92.9397 176.854 90.8949 171.701 91.0585 167.775C86.3964 138.494 91.4675 116.083 91.4675 116.083Z" fill="#E28A40"/>
<path d="M199.35 149.372C200.168 147.982 201.232 146.837 202.54 146.019L202.622 145.937C203.358 145.61 204.094 145.283 204.749 144.955L207.121 144.628C207.939 144.71 208.756 144.792 209.574 144.955C209.738 144.955 209.983 145.037 210.147 145.037C210.229 145.037 210.31 145.119 210.392 145.119C210.556 145.201 210.719 145.201 210.883 145.283C211.047 145.364 211.128 145.364 211.292 145.446C211.456 145.528 211.537 145.528 211.701 145.61C211.865 145.691 211.946 145.773 212.11 145.855C212.192 145.937 212.273 145.937 212.355 146.019C213.01 146.428 213.664 146.918 214.155 147.491C214.727 147.982 215.218 148.636 215.545 149.372C215.627 149.454 215.627 149.536 215.709 149.617C215.791 149.781 215.872 149.863 215.954 150.026C216.036 150.19 216.118 150.272 216.118 150.435C216.199 150.599 216.199 150.681 216.281 150.844C216.363 151.008 216.363 151.171 216.445 151.335C216.445 151.417 216.527 151.499 216.527 151.58C216.527 151.662 216.527 151.662 216.527 151.744C216.608 152.071 216.69 152.48 216.69 152.807C216.772 153.216 216.772 153.543 216.854 153.952C216.854 154.034 216.854 154.034 216.854 154.116C216.854 154.198 216.854 154.198 216.854 154.28C216.854 155.016 216.772 155.752 216.527 156.488C216.363 157.224 216.036 157.96 215.627 158.696C215.054 159.76 214.318 160.659 213.419 161.314C213.255 161.477 213.01 161.641 212.764 161.723C212.682 161.804 212.601 161.886 212.437 161.968C211.783 162.377 211.047 162.704 210.31 162.868C210.147 162.868 209.902 162.949 209.738 162.949C209.329 163.031 209.002 163.113 208.593 163.113C208.511 163.113 208.511 163.113 208.429 163.113C207.611 163.358 206.793 163.358 206.057 163.113C205.239 163.113 204.503 162.868 203.767 162.459C203.358 162.377 202.949 162.132 202.622 161.886C201.313 161.068 200.168 159.923 199.432 158.533C198.614 157.06 198.205 155.506 198.205 153.871C198.205 152.398 198.614 150.844 199.35 149.372Z" fill="#EBEBEB"/>
<path d="M199.35 149.372C199.759 148.636 200.25 148.064 200.741 147.409C201.313 146.837 201.968 146.346 202.622 145.937L204.749 144.956L207.121 144.628C208.02 144.71 208.92 144.792 209.82 144.956C210.229 145.037 210.719 145.201 211.128 145.365C211.537 145.528 211.946 145.773 212.355 146.019C213.01 146.428 213.664 146.919 214.237 147.491C214.809 148.064 215.3 148.636 215.709 149.372L216.036 149.945C216.118 150.108 216.2 150.354 216.281 150.517C216.445 150.926 216.527 151.254 216.69 151.662V151.826L216.854 152.971V152.889L217.017 154.116C217.017 154.28 217.017 154.525 217.017 154.771C217.017 155.016 217.017 155.18 216.936 155.425C216.854 155.834 216.772 156.243 216.69 156.652C216.363 157.797 215.872 158.942 215.136 159.842C214.809 160.332 214.4 160.741 213.909 161.15C213.5 161.559 212.928 161.886 212.437 162.214C211.783 162.623 211.047 162.95 210.229 163.195C209.902 163.277 209.656 163.359 209.329 163.359L208.348 163.44H208.429C207.611 163.686 206.712 163.686 205.894 163.44H205.976C205.158 163.44 204.34 163.195 203.604 162.704C202.949 162.541 202.377 162.132 201.804 161.723C201.232 161.314 200.741 160.905 200.332 160.332C199.432 159.351 198.778 158.124 198.451 156.897C197.796 154.525 198.042 151.662 199.35 149.372ZM199.35 149.372C198.042 151.662 197.796 154.525 198.614 156.979C199.023 158.206 199.678 159.351 200.577 160.332C200.986 160.823 201.477 161.232 202.05 161.641C202.622 161.968 203.113 162.377 203.767 162.541C204.422 162.95 205.158 163.113 205.976 163.113C206.712 163.277 207.53 163.277 208.266 163.113H208.348L209.247 162.95C209.574 162.95 209.82 162.868 210.147 162.786C210.883 162.541 211.537 162.295 212.192 161.886C212.682 161.559 213.173 161.232 213.5 160.823C213.909 160.414 214.318 160.005 214.645 159.596C215.3 158.697 215.791 157.633 216.118 156.57C216.2 156.161 216.281 155.834 216.363 155.425C216.363 155.261 216.445 155.016 216.445 154.852C216.445 154.689 216.445 154.443 216.445 154.28L216.281 153.053V152.971L216.118 151.908V151.744C216.036 151.335 215.954 151.008 215.791 150.681C215.709 150.517 215.627 150.354 215.545 150.19L215.3 149.699C214.973 149.045 214.482 148.391 213.991 147.9C213.5 147.328 212.928 146.837 212.274 146.428C211.865 146.182 211.537 145.937 211.128 145.773C210.719 145.61 210.311 145.446 209.902 145.365C209.002 145.119 208.184 145.037 207.284 144.956L204.912 145.283L202.786 146.182C202.131 146.591 201.477 147.082 200.904 147.655C200.25 148.064 199.759 148.636 199.35 149.372Z" fill="#A42A29"/>
<path d="M212.764 158.124C212.437 157.143 211.783 156.243 211.128 155.425C210.556 154.689 209.82 154.034 209.165 153.38C210.31 152.153 211.374 151.008 211.864 150.517C212.273 150.027 211.783 149.372 211.21 149.618C210.474 150.19 209.329 151.254 208.102 152.399C207.611 151.99 207.121 151.581 206.548 151.254C205.73 150.681 204.83 149.945 203.767 149.618C203.522 149.536 203.195 149.7 203.113 149.863C203.031 149.945 203.031 150.108 203.031 150.19C203.031 150.681 203.604 151.008 203.931 151.254C204.34 151.581 204.83 151.908 205.239 152.235C205.812 152.644 206.384 153.053 206.957 153.462C205.812 154.525 205.239 155.016 204.176 156.079C203.113 157.143 203.358 157.797 203.604 158.042C203.849 158.288 204.503 158.369 204.83 158.042C205.321 157.388 206.712 155.916 208.184 154.443C208.838 155.016 209.493 155.589 210.065 156.243C210.801 156.979 211.456 157.879 212.355 158.451C212.519 158.615 212.846 158.369 212.764 158.124Z" fill="#A42A29"/>
<path d="M249.898 167.939C250.716 166.549 251.779 165.404 253.088 164.586L253.169 164.504C253.906 164.177 254.642 163.85 255.296 163.523L257.668 163.196C258.486 163.277 259.304 163.359 260.122 163.523C260.285 163.523 260.531 163.605 260.694 163.605C260.776 163.605 260.858 163.686 260.94 163.686C261.103 163.768 261.267 163.768 261.43 163.85C261.594 163.932 261.676 163.932 261.839 164.013C262.003 164.095 262.085 164.095 262.248 164.177C262.412 164.259 262.494 164.341 262.657 164.422C262.739 164.504 262.821 164.504 262.903 164.586C263.557 164.995 264.211 165.486 264.702 166.058C265.275 166.549 265.765 167.203 266.093 167.939C266.174 168.021 266.174 168.103 266.256 168.185C266.338 168.348 266.42 168.43 266.501 168.594C266.583 168.757 266.665 168.839 266.665 169.003C266.747 169.166 266.747 169.248 266.829 169.412C266.91 169.575 266.91 169.739 266.992 169.902C266.992 169.984 267.074 170.066 267.074 170.148C267.074 170.23 267.074 170.23 267.074 170.311C267.156 170.639 267.238 171.048 267.238 171.375C267.319 171.784 267.319 172.111 267.401 172.52C267.401 172.602 267.401 172.602 267.401 172.683C267.401 172.765 267.401 172.765 267.401 172.847C267.401 173.583 267.319 174.319 267.074 175.055C266.91 175.791 266.583 176.528 266.174 177.264C265.602 178.327 264.866 179.227 263.966 179.881C263.802 180.045 263.557 180.208 263.312 180.29C263.23 180.372 263.148 180.454 262.984 180.535C262.33 180.944 261.594 181.271 260.858 181.435C260.694 181.435 260.449 181.517 260.285 181.517C259.876 181.599 259.549 181.68 259.14 181.68C259.058 181.68 259.058 181.68 258.977 181.68C258.159 181.926 257.341 181.926 256.605 181.68C255.787 181.68 255.051 181.435 254.315 181.026C253.906 180.944 253.497 180.699 253.169 180.454C251.861 179.636 250.716 178.491 249.98 177.1C249.162 175.628 248.753 174.074 248.753 172.438C248.671 170.966 249.08 169.412 249.898 167.939Z" fill="#EBEBEB"/>
<path d="M249.898 167.939C250.307 167.203 250.797 166.631 251.288 165.976C251.861 165.404 252.515 164.913 253.169 164.504L255.296 163.522L257.668 163.195C258.568 163.277 259.467 163.359 260.367 163.522C260.776 163.604 261.267 163.768 261.676 163.931C262.085 164.095 262.494 164.34 262.903 164.586C263.557 164.995 264.211 165.485 264.784 166.058C265.356 166.631 265.847 167.203 266.256 167.939L266.583 168.512C266.665 168.675 266.747 168.921 266.829 169.084C266.992 169.493 267.074 169.82 267.238 170.229V170.393L267.401 171.538V171.456L267.565 172.683C267.565 172.847 267.565 173.092 267.565 173.337C267.565 173.583 267.565 173.746 267.483 173.992C267.401 174.401 267.319 174.81 267.238 175.219C266.91 176.364 266.42 177.509 265.683 178.409C265.356 178.899 264.947 179.308 264.457 179.717C264.048 180.126 263.475 180.453 262.984 180.781C262.33 181.189 261.594 181.517 260.776 181.762C260.449 181.844 260.203 181.926 259.876 181.926L258.895 182.007H258.977C258.159 182.253 257.259 182.253 256.441 182.007H256.523C255.705 182.007 254.887 181.762 254.151 181.271C253.497 181.108 252.924 180.699 252.351 180.29C251.779 179.881 251.288 179.472 250.879 178.899C249.979 177.918 249.325 176.691 248.998 175.464C248.262 173.092 248.589 170.229 249.898 167.939ZM249.898 167.939C248.589 170.229 248.344 173.092 249.162 175.546C249.571 176.773 250.225 177.918 251.125 178.899C251.534 179.39 252.024 179.799 252.597 180.208C253.169 180.535 253.66 180.944 254.314 181.108C254.969 181.517 255.705 181.68 256.523 181.68C257.259 181.844 258.077 181.844 258.813 181.68H258.895L259.794 181.517C260.122 181.517 260.367 181.435 260.694 181.353C261.43 181.108 262.085 180.862 262.739 180.453C263.23 180.126 263.72 179.799 264.048 179.39C264.457 178.981 264.866 178.572 265.193 178.163C265.847 177.263 266.338 176.2 266.665 175.137C266.747 174.728 266.829 174.401 266.91 173.992C266.91 173.828 266.992 173.583 266.992 173.419C266.992 173.256 266.992 173.01 266.992 172.847L266.829 171.62V171.538L266.665 170.475V170.311C266.583 169.902 266.501 169.575 266.338 169.248C266.256 169.084 266.174 168.921 266.092 168.757L265.929 168.103C265.602 167.448 265.111 166.794 264.62 166.303C264.129 165.731 263.557 165.24 262.903 164.831C262.494 164.586 262.166 164.34 261.757 164.177C261.349 164.013 260.94 163.85 260.531 163.768C259.631 163.522 258.813 163.441 257.913 163.359L255.541 163.686L253.415 164.586C252.76 164.995 252.106 165.485 251.534 166.058C250.797 166.631 250.307 167.285 249.898 167.939Z" fill="#A42A29"/>
<path d="M263.23 176.692C262.903 175.71 262.248 174.81 261.594 173.993C261.021 173.256 260.285 172.602 259.631 171.948C260.776 170.721 261.839 169.576 262.33 169.085C262.739 168.594 262.248 167.94 261.676 168.185C260.94 168.758 259.795 169.821 258.568 170.966C258.077 170.557 257.586 170.148 257.014 169.821C256.196 169.249 255.296 168.513 254.233 168.185C253.987 168.104 253.66 168.267 253.578 168.431C253.497 168.513 253.497 168.676 253.497 168.758C253.497 169.249 254.069 169.576 254.396 169.821C254.805 170.148 255.296 170.476 255.705 170.803C256.278 171.212 256.85 171.621 257.423 172.03C256.278 173.093 255.705 173.584 254.642 174.647C253.578 175.71 253.824 176.365 254.069 176.61C254.315 176.855 254.969 176.937 255.296 176.61C255.787 175.956 257.177 174.483 258.649 173.011C259.304 173.584 259.958 174.156 260.531 174.81C261.267 175.547 261.921 176.446 262.821 177.019C262.984 177.264 263.312 176.937 263.23 176.692Z" fill="#A42A29"/>
<path d="M248.017 148.063C244.99 139.23 232.149 137.022 225.442 142.665C221.434 146.1 227.241 151.826 231.249 148.472C233.13 146.837 237.793 147.655 239.428 149.536C241.964 152.398 239.183 154.934 236.484 156.079C231.74 158.206 228.305 161.723 227.487 167.039C226.751 172.192 234.603 174.4 235.339 169.247C236.157 163.604 241.391 163.849 244.908 160.414C248.262 157.142 249.571 152.398 248.017 148.063Z" fill="#E0E0E0"/>
<path d="M233.948 180.698C233.785 180.125 233.54 179.716 233.212 179.307C232.885 178.899 232.558 178.49 232.067 178.244C231.986 178.244 231.904 178.162 231.822 178.162C231.74 178.081 231.658 178.081 231.577 177.999C230.595 177.344 229.286 177.181 228.141 177.508L227.16 177.917C227.16 177.917 227.16 177.917 227.078 177.917C227.078 177.917 226.424 178.326 226.178 178.571C225.688 179.062 225.279 179.798 225.115 180.453C225.033 180.862 224.951 181.27 224.951 181.679C225.033 182.007 225.033 182.416 225.115 182.743C225.115 182.743 225.115 182.743 225.115 182.825C225.197 183.152 225.36 183.479 225.524 183.806C226.015 184.788 227.078 185.605 228.141 185.851C228.877 186.096 229.941 186.096 230.677 185.851C231.004 185.687 231.331 185.605 231.658 185.442H231.74C231.986 185.278 232.558 184.788 232.64 184.706C232.967 184.46 233.212 184.051 233.376 183.724C233.703 183.233 233.867 182.743 233.867 182.17C234.194 181.761 234.112 181.189 233.948 180.698Z" fill="#E0E0E0"/>
<path d="M300.854 245.559C300.854 249.73 231.985 253.82 147.576 253.083C94.0848 252.593 16.4646 250.384 16.4646 246.213C16.4646 242.042 79.4441 236.562 136.698 236.562C193.952 236.562 300.854 241.387 300.854 245.559Z" fill="#E0E0E0"/>
</svg>
