<svg width="177" height="112" viewBox="0 0 177 112" fill="none" xmlns="http://www.w3.org/2000/svg">
<rect width="177" height="112" fill="#F7F7F7"/>
<path d="M165.624 36.5853C133.565 10.8131 70.3506 15.4056 35.0753 32.8032C18.2416 41.1238 -7.1848 61.493 1.91041 83.8613C8.39263 98.2332 31.9598 108.013 56.0797 110.444C79.5966 112.821 103.566 108.985 124.872 104.176C145.977 99.4218 163.664 90.4529 171.403 77.918C179.242 65.275 180.146 48.2557 165.624 36.5853Z" fill="#F7F7F7"/>
<path d="M95.2238 43.9335L69.2949 31.0204C71.3552 32.9655 71.6567 41.7183 71.8074 43.6633C71.9582 46.0947 81.3549 46.5809 81.9076 46.8511C82.7619 47.2293 73.1642 46.2568 73.1139 47.1753C72.8627 51.9839 72.1089 55.8741 72.1089 55.8741H86.4301L93.8671 55.9281C96.6308 55.9281 98.8418 53.1726 98.8418 49.8227C98.8418 47.1212 97.3343 44.6899 95.2238 43.9335Z" fill="#E28A40"/>
<path d="M73.1143 48.0937C73.064 48.7421 72.9635 49.4445 72.863 50.1469C72.7123 51.3896 72.5615 52.7403 72.3605 54.037C72.26 54.6854 72.1595 55.3878 72.1093 56.0361C71.9083 57.657 71.657 59.2779 71.4058 60.8448C71.3053 61.5471 71.2048 62.1955 71.1043 62.8979C70.853 64.7349 70.5515 66.5179 70.3003 68.1928C70.1998 68.8952 70.0993 69.5976 69.9485 70.2459C69.6973 71.7588 69.4963 73.1095 69.2953 74.2441C69.1445 75.0546 69.044 75.811 68.9435 76.4053C68.7425 77.702 68.5918 78.4044 68.5918 78.4044C68.5918 78.4044 65.225 81.4301 58.5418 81.6462C46.7834 82.0244 43.5674 75.5408 43.5674 75.5408C43.5674 75.5408 43.5674 75.0546 43.6176 74.2441C43.6176 73.7038 43.6679 72.9474 43.6679 72.137C43.6679 71.1104 43.7181 69.9218 43.7684 68.571C43.7684 67.9227 43.8186 67.2203 43.8186 66.5179C43.8689 65.005 43.9191 63.3842 43.9694 61.7092C44.0196 61.0609 44.0196 60.3585 44.0699 59.7101C44.1201 58.3594 44.1704 56.9546 44.2206 55.5498C44.2709 54.8475 44.2709 54.1991 44.3211 53.4967C44.3714 51.9839 44.4719 50.471 44.5221 49.0122C44.5724 48.3099 44.6226 47.6075 44.6226 46.9591C44.7231 45.3382 44.8236 43.8254 44.9241 42.3666C44.9744 41.6642 45.0246 40.9618 45.1251 40.3135C45.2759 38.8006 45.3764 37.5039 45.5774 36.3693C45.6779 35.5048 45.8286 34.8024 45.9291 34.2081C46.0799 33.5057 46.2306 33.0735 46.4316 32.8574C47.7381 31.2365 50.3511 30.7502 55.3258 29.9398C56.5821 29.7236 57.9388 29.6696 59.3458 29.7777C61.2553 29.9398 63.0141 30.1559 64.622 30.4801C68.7928 31.2905 71.9083 32.6953 73.3655 35.1266C73.4158 35.1806 73.466 35.2347 73.466 35.3427C73.667 35.7209 73.7675 36.4233 73.8178 37.3959C73.868 38.4224 73.8178 39.7732 73.7173 41.34C73.667 41.9884 73.6168 42.6908 73.5665 43.3932C73.466 44.7979 73.3153 46.4188 73.1143 48.0937Z" fill="#FBB778"/>
<path d="M73.8687 37.2879C64.0198 33.884 52.2111 35.0726 45.5781 36.2073C45.6786 35.3428 45.8294 34.6404 45.9299 34.0461C52.5628 32.9655 63.668 31.9389 73.3662 35.0186C73.4165 35.0726 73.4667 35.1267 73.4667 35.2347C73.718 35.6129 73.8185 36.3153 73.8687 37.2879Z" fill="#E28A40"/>
<path d="M73.617 43.3393C65.2253 40.8539 52.9643 41.4482 44.9746 42.2587C45.0249 41.5563 45.0751 40.8539 45.1756 40.2055C53.1653 39.3951 65.1248 38.8548 73.7677 41.3402C73.7175 41.9345 73.6672 42.6369 73.617 43.3393Z" fill="#E28A40"/>
<path d="M73.1146 48.0937C73.0643 48.7421 72.9638 49.4444 72.8633 50.1468C64.1199 48.0937 52.4619 48.3638 44.5225 48.9041C44.5727 48.2018 44.623 47.4994 44.623 46.851C52.6629 46.2567 64.1701 46.0406 73.1146 48.0937Z" fill="#E28A40"/>
<path d="M72.4114 53.983C72.3109 54.6313 72.2104 55.3337 72.1601 55.982C64.2206 54.9555 52.6129 55.0635 44.2715 55.3877C44.3217 54.6853 44.3217 54.037 44.372 53.3346C52.7134 53.0644 64.2709 52.9564 72.4114 53.983Z" fill="#E28A40"/>
<path d="M71.4559 60.8448C71.3554 61.5472 71.2549 62.1955 71.1544 62.8979C62.5617 62.6818 51.758 62.0875 44.0195 61.6552C44.0698 61.0069 44.0698 60.3045 44.12 59.6561C51.9088 60.0343 62.8632 60.6287 71.4559 60.8448Z" fill="#E28A40"/>
<path d="M70.3512 68.1388C70.2507 68.8412 70.1502 69.5436 69.9995 70.1919C63.2158 70.7862 55.0753 70.0839 48.2413 69.1654C46.6836 68.9492 45.1761 68.7331 43.8193 68.517C43.8193 67.8686 43.8696 67.1663 43.8696 66.4639C51.4573 67.6525 62.1103 68.9492 70.3512 68.1388Z" fill="#E28A40"/>
<path d="M69.3446 74.2441C69.1939 75.0546 69.0934 75.811 68.9929 76.4053C63.7167 77.5399 58.6917 77.4859 54.2194 76.8916C50.1995 76.3513 46.6317 75.3247 43.667 74.2441C43.667 73.7038 43.7172 72.9474 43.7172 72.137C49.9482 74.4602 59.1439 76.5674 69.3446 74.2441Z" fill="#E28A40"/>
<path d="M73.5676 55.9281V47.9857C73.5676 47.9857 62.6131 50.4171 62.4121 55.82L73.5676 55.9281Z" fill="#A96050"/>
<path d="M153.564 75.8648C153.564 75.9189 143.464 76.0269 131.052 76.0269C118.64 76.0269 108.54 75.9729 108.54 75.8648C108.54 75.7568 118.64 75.7028 131.052 75.7028C143.464 75.7028 153.564 75.8108 153.564 75.8648Z" stroke="#A42A29" stroke-width="0.75" stroke-miterlimit="10"/>
<path d="M161.402 93.3165C169.478 93.3165 176.025 86.2772 176.025 77.5939C176.025 68.9105 169.478 61.8712 161.402 61.8712C153.326 61.8712 146.779 68.9105 146.779 77.5939C146.779 86.2772 153.326 93.3165 161.402 93.3165Z" fill="white"/>
<path d="M146.78 77.5939C146.78 77.5939 146.78 77.4858 146.78 77.3237C146.78 77.1617 146.78 76.8915 146.78 76.5673C146.78 76.4052 146.78 76.2431 146.78 76.027C146.78 75.8109 146.83 75.5948 146.881 75.3787C146.931 74.8384 147.031 74.2981 147.182 73.7578C147.534 72.2449 148.036 70.8402 148.79 69.5435C150.951 65.5993 154.569 62.8978 158.689 62.0333C159.292 61.9253 159.946 61.8172 160.549 61.8172C160.85 61.8172 161.202 61.7632 161.503 61.7632L162.458 61.8172C162.81 61.8172 163.111 61.8712 163.463 61.9253C163.815 61.9793 164.116 62.0333 164.468 62.0874C165.121 62.2495 165.825 62.4115 166.428 62.6817C167.081 62.9518 167.734 63.222 168.337 63.6002C168.639 63.7623 168.94 63.9784 169.242 64.1945C169.543 64.4106 169.845 64.6268 170.146 64.8429C170.749 65.3291 171.302 65.8154 171.805 66.3557C172.307 66.95 172.81 67.5444 173.262 68.1927C174.166 69.5435 174.87 71.0023 175.372 72.5691C176.377 75.8109 176.377 79.3228 175.372 82.6187C174.87 84.1855 174.166 85.6443 173.262 86.9951C172.81 87.6434 172.357 88.2377 171.805 88.8321C171.252 89.3724 170.699 89.9127 170.146 90.3449C169.845 90.561 169.543 90.8312 169.242 90.9933C168.94 91.2094 168.639 91.4255 168.337 91.5876C167.734 91.9118 167.081 92.2359 166.428 92.5061C165.775 92.7762 165.121 92.9383 164.468 93.1004C164.116 93.1545 163.815 93.2085 163.463 93.2625C163.111 93.3165 162.81 93.3706 162.458 93.3706L161.503 93.4246C161.202 93.4246 160.85 93.4246 160.549 93.3706C159.946 93.3165 159.292 93.2625 158.689 93.1544C154.519 92.29 150.951 89.5885 148.79 85.6443C148.036 84.3476 147.534 82.8888 147.182 81.43C147.031 80.8897 146.931 80.3494 146.881 79.8091C146.83 79.539 146.83 79.3228 146.78 79.1608C146.73 78.9987 146.78 78.7825 146.78 78.6205C146.78 78.2963 146.78 78.0802 146.78 77.864C146.78 77.6479 146.83 77.6479 146.78 77.5939C146.83 77.702 146.83 77.81 146.83 77.864C146.83 78.0261 146.881 78.2963 146.881 78.6205C146.881 78.7825 146.881 78.9446 146.931 79.1608C146.931 79.3769 146.981 79.593 147.031 79.8091C147.082 80.3494 147.182 80.8897 147.333 81.43C147.685 82.8888 148.237 84.2936 148.941 85.5903C151.102 89.4264 154.669 92.0739 158.74 92.8843C159.343 92.9924 159.946 93.1004 160.599 93.1004C160.9 93.1004 161.202 93.1544 161.554 93.1544L162.508 93.1004C162.81 93.1004 163.162 93.0464 163.463 92.9924C163.765 92.9383 164.116 92.8843 164.418 92.8303C165.071 92.6682 165.724 92.4521 166.378 92.2359C167.031 91.9658 167.684 91.6956 168.287 91.3174C168.589 91.1554 168.89 90.9392 169.192 90.7231C169.493 90.507 169.795 90.2909 170.046 90.0748C170.649 89.5885 171.202 89.1022 171.704 88.5619C172.207 87.9676 172.709 87.3733 173.111 86.7249C174.016 85.4282 174.719 83.9694 175.171 82.4025C176.176 79.2148 176.176 75.7569 175.171 72.5691C174.719 71.0023 174.016 69.5435 173.111 68.2468C172.659 67.5984 172.207 67.0041 171.704 66.4097C171.202 65.8694 170.649 65.3832 170.046 64.8969C169.744 64.6808 169.493 64.4647 169.192 64.2485C168.89 64.0324 168.589 63.8703 168.287 63.6542C167.684 63.33 167.031 63.0059 166.378 62.7357C165.724 62.4656 165.121 62.3035 164.418 62.1414C164.116 62.0874 163.765 62.0333 163.463 61.9793C163.162 61.9253 162.81 61.8712 162.508 61.8712L161.554 61.8172C161.252 61.8172 160.9 61.8172 160.599 61.8712C159.996 61.9253 159.343 61.9793 158.74 62.0874C154.619 62.8978 151.051 65.5993 148.891 69.4354C148.137 70.7321 147.584 72.1369 147.283 73.5957C147.132 74.136 147.031 74.6763 146.981 75.2166C146.931 75.4327 146.931 75.6488 146.881 75.8649C146.83 76.0811 146.881 76.2431 146.83 76.4052C146.83 76.7294 146.78 76.9455 146.78 77.1617C146.78 77.3778 146.78 77.4858 146.78 77.5939Z" fill="#A42A29"/>
<path d="M161.403 70.5701L155.071 76.7835V84.6178H159.996V79.9172H163.162V84.6178H167.784V76.7835L161.403 70.5701Z" fill="#A42A29"/>
<path d="M115.625 94.7754H4.82417C3.86943 94.7754 3.06543 93.9109 3.06543 92.8843V57.4408C3.06543 56.4143 3.86943 55.5498 4.82417 55.5498H115.625C116.58 55.5498 117.384 56.4143 117.384 57.4408V92.9384C117.333 93.9649 116.58 94.7754 115.625 94.7754Z" fill="white"/>
<path d="M115.625 94.7753L41.0044 94.8834L22.3617 94.9374H13.0152H8.34201H6.03052H4.87478C4.47278 94.9374 4.02053 94.7753 3.66879 94.5051C3.31704 94.235 3.06579 93.8028 2.96529 93.3705C2.91504 93.1544 2.91504 92.8843 2.91504 92.7222V92.0738V89.5884V84.5637V74.5141V64.4646V59.4399V58.1972V57.5488C2.91504 57.3327 2.91504 57.1166 2.96529 56.8464C3.16629 55.9279 4.02053 55.1715 4.92503 55.1715L79.5459 55.2796L98.1886 55.3336H107.535H112.208H114.52H115.676C116.078 55.3336 116.48 55.4417 116.781 55.7118C117.083 55.982 117.334 56.3602 117.434 56.7924C117.535 57.2246 117.485 57.6569 117.485 58.0351V60.5205V65.5452V75.5947V85.6443V90.669V91.9117C117.485 92.344 117.535 92.7762 117.434 93.1544C117.133 94.181 116.379 94.7753 115.625 94.7753ZM115.625 94.7753C116.429 94.7753 117.133 94.181 117.334 93.3165C117.434 92.8843 117.384 92.506 117.384 92.0738V90.8311V85.8064V75.7568V65.7073V60.6825V58.1972C117.384 57.7649 117.434 57.3327 117.334 56.9545C117.233 56.5763 117.032 56.1981 116.731 55.982C116.128 55.4417 115.274 55.6578 114.52 55.6037H112.208H107.535H98.1886L79.5459 55.6578L4.82453 55.8739C4.17128 55.8739 3.51804 56.4142 3.36729 57.1166C3.31704 57.4408 3.31704 57.873 3.31704 58.3052V59.5479V64.5727V74.6222V84.6717V89.6965V92.1819C3.31704 92.6141 3.26679 93.0463 3.36729 93.3705C3.46779 93.7487 3.66879 94.0729 3.92003 94.289C4.17128 94.5052 4.52303 94.6132 4.87478 94.6132H6.03052H8.34201H13.0152H22.3617L41.0044 94.6672L115.625 94.7753Z" fill="#A42A29"/>
<path d="M109.043 62.0874H15.126V67.8686H109.043V62.0874Z" fill="#EBEBEB"/>
<path d="M90.6007 73.7038C90.6007 73.8118 78.4403 73.9199 63.4156 73.9199C48.3909 73.9199 36.2305 73.8118 36.2305 73.7038C36.2305 73.5957 48.3909 73.4877 63.4156 73.4877C78.4403 73.5417 90.6007 73.5957 90.6007 73.7038Z" fill="#A42A29"/>
<path d="M90.6007 77.1077C90.6007 77.2158 78.4403 77.3238 63.4156 77.3238C48.3909 77.3238 36.2305 77.2158 36.2305 77.1077C36.2305 76.9997 48.3909 76.8916 63.4156 76.8916C78.4403 76.8916 90.6007 76.9997 90.6007 77.1077Z" fill="#A42A29"/>
<path d="M64.9724 80.4575C64.9724 80.4575 64.5704 80.5115 63.8669 80.5115C63.0629 80.5115 62.0077 80.5656 60.8017 80.5656C58.1887 80.6196 54.621 80.6196 50.6513 80.6196C46.6815 80.6196 43.1138 80.6196 40.5008 80.5656C39.2446 80.5656 38.2396 80.5115 37.4356 80.5115C36.7321 80.5115 36.3301 80.4575 36.3301 80.4575C36.3301 80.4575 36.7321 80.4035 37.4356 80.4035C38.2396 80.4035 39.2948 80.3494 40.5008 80.3494C43.1138 80.2954 46.6815 80.2954 50.6513 80.2954C54.621 80.2954 58.1887 80.2954 60.8017 80.3494C62.058 80.3494 63.0629 80.4035 63.8669 80.4035C64.5704 80.4035 64.9724 80.4575 64.9724 80.4575Z" fill="#A42A29"/>
<path d="M90.6007 83.9155C90.6007 84.0235 78.4403 84.1316 63.4156 84.1316C48.3909 84.1316 36.2305 84.0235 36.2305 83.9155C36.2305 83.8074 48.3909 83.6993 63.4156 83.6993C78.4403 83.7534 90.6007 83.8614 90.6007 83.9155Z" fill="#A42A29"/>
<path d="M90.6007 87.3191C90.6007 87.4272 78.4403 87.5353 63.4156 87.5353C48.3909 87.5353 36.2305 87.4272 36.2305 87.3191C36.2305 87.2111 48.3909 87.103 63.4156 87.103C78.4403 87.103 90.6007 87.2111 90.6007 87.3191Z" fill="#A42A29"/>
<path d="M104.118 87.9136C108.503 87.9136 112.058 84.0916 112.058 79.3769C112.058 74.6622 108.503 70.8402 104.118 70.8402C99.7333 70.8402 96.1787 74.6622 96.1787 79.3769C96.1787 84.0916 99.7333 87.9136 104.118 87.9136Z" fill="#A42A29"/>
<path d="M56.7839 32.6952C55.8794 32.8573 54.0201 34.1 53.9699 35.0725C53.8191 38.0442 59.1959 40.5295 64.0701 40.1513C68.9946 39.7191 68.9946 36.8555 68.0398 35.4507C67.1353 33.9379 64.9746 31.3985 56.7839 32.6952Z" fill="#C96F32"/>
<path d="M33.9691 70.2458H15.0752V90.1288H33.9691V70.2458Z" fill="#EBEBEB"/>
<path d="M31.055 86.6167C30.1505 84.5636 29.0953 82.5104 27.7385 80.7275C27.0853 79.863 26.1808 79.0525 25.226 78.5663C25.3265 78.5122 25.3768 78.5122 25.4773 78.4582C27.0853 77.5937 27.5375 75.2705 26.5325 73.6496C25.9798 72.7851 25.0753 72.2448 24.1708 71.9206C23.3668 71.5964 22.3618 71.5424 21.6583 72.1908C21.206 72.569 21.005 73.2173 20.804 73.7576C20.603 74.406 20.5025 75.0543 20.5528 75.7027C20.603 76.243 20.8543 76.7833 21.2563 77.1615C21.2563 77.1615 21.3065 77.1615 21.3065 77.2155C21.608 77.7018 22.01 78.134 22.4623 78.4582C21.4573 78.9445 20.603 79.8089 20.0503 80.7275C18.794 82.6725 18.593 85.1579 18.3418 87.4812C18.3418 87.6433 18.4925 87.8054 18.6433 87.8054C22.7135 87.8054 26.7335 87.4812 30.7535 87.0489C31.0047 86.9949 31.1052 86.8328 31.055 86.6167Z" fill="#A42A29"/>
<path d="M67.134 26.644L65.3752 37.666C65.3752 37.666 62.6115 39.395 56.1293 35.5048C56.1293 35.5048 58.7423 26.9681 55.4258 21.4031C55.4258 21.4031 56.1795 21.4031 57.3353 21.4571C57.3353 21.4031 58.9935 27.7246 67.134 26.644Z" fill="#884638"/>
<path d="M74.8722 12.38C74.8722 12.38 78.2892 10.489 75.827 9.0842C75.827 9.0842 77.5354 6.22062 76.3797 5.41017C75.224 4.59973 73.6662 5.57226 73.214 4.05943C72.7617 2.5466 71.6562 0.0612332 68.5407 1.57407C65.4253 3.0869 64.571 -0.695183 63.2143 0.115263C61.8073 0.979738 62.2093 2.92481 60.2495 2.76272C58.2898 2.60063 56.4306 2.70869 56.4306 4.81585C56.4808 6.97704 54.3201 6.65286 54.0186 7.84151C53.6668 9.0842 54.5211 9.62449 54.3703 10.7051C54.2196 11.7857 52.7623 11.9478 52.9633 13.6227C53.1643 15.3516 54.6216 15.4597 54.3201 16.5403C53.9683 17.6749 52.5613 19.9982 53.8176 20.6466C55.1241 21.2949 55.1241 23.9964 56.7823 23.9964C58.34 24.1045 74.8722 12.38 74.8722 12.38Z" fill="#0E3944"/>
<path d="M56.1295 17.4589C53.818 27.6164 66.5312 35.1266 70.0487 30.8042C71.1542 29.3994 72.8124 25.2391 73.7169 22.3215C73.9179 21.6732 74.1189 20.9708 74.2697 20.3224C75.3752 15.6759 75.4757 10.8672 73.2144 9.30036C65.2247 3.7353 58.9937 4.97799 56.1295 17.4589Z" fill="#A96050"/>
<path d="M58.8426 18.2153C58.8426 18.2153 59.345 14.4332 61.8575 12.7583C64.37 11.0833 63.164 7.51738 63.164 7.51738C63.164 7.51738 71.8572 7.89559 74.8722 12.3801C74.8722 12.3801 78.6912 7.7335 71.1537 3.78933C63.6163 -0.15484 49.3454 3.62724 56.7321 24.1045L56.1793 17.4588L58.8426 18.2153Z" fill="#0E3944"/>
<path d="M58.6428 17.7289C58.6428 17.7289 57.2358 14.8653 55.1756 15.9459C53.1153 16.9725 55.1756 22.1053 57.0851 22.3755C59.0448 22.6456 58.6428 17.7289 58.6428 17.7289Z" fill="#A96050"/>
<path d="M43.5179 72.6771C44.7742 74.4601 39.5984 80.2413 36.5332 77.2697C36.5332 77.2697 40.0507 67.8685 43.5179 72.6771Z" fill="#C96F32"/>
<path d="M39.6473 79.6471C39.8985 80.4575 41.7578 86.0766 42.5115 86.8871C42.5618 86.9411 42.5618 86.9411 42.612 86.9951C43.416 87.6975 44.8733 87.9677 45.5265 88.3999C46.1798 88.8322 47.838 88.4539 48.642 88.3459C49.2952 88.2378 51.4057 91.5336 51.4057 91.5336C51.4057 91.5336 52.5112 90.5611 52.1092 89.5886C51.657 88.3999 49.6972 86.671 49.6972 86.671L47.9888 84.4017C47.9888 84.4017 46.8833 80.6737 47.4863 80.3495C48.0893 80.0253 48.5415 81.5381 49.3957 82.5107C49.9485 83.159 50.7022 82.5647 50.7022 82.5647L49.7977 80.4575C49.7977 80.4575 48.24 77.594 47.637 77.2158C47.034 76.8375 44.3205 75.865 44.3205 75.865L40.602 71.1644L35.4766 74.4602C35.4766 74.4062 39.396 78.8366 39.6473 79.6471Z" fill="#A96050"/>
<path d="M42.6123 86.9411C43.4163 87.6435 44.8735 87.9137 45.5268 88.3459C46.18 88.7782 46.381 88.508 47.185 88.454C47.989 88.3459 48.9438 88.1838 48.9438 88.1838C48.2403 88.0217 47.0343 86.2388 46.7328 86.2388C46.4313 86.2388 46.4815 86.617 46.0293 86.8871C45.6273 87.1032 45.0243 86.3468 44.6725 86.725C44.3208 87.1032 43.969 87.3734 43.3661 86.9952C43.1148 86.725 42.8636 86.8331 42.6123 86.9411Z" fill="#884638"/>
<path d="M49.2458 31.0743C51.1051 35.829 47.6379 45.8785 44.8741 48.688L31.5579 55.6579C31.5579 55.6579 30.8042 57.5489 30.1007 57.0626L43.3666 72.4071C43.3666 72.4071 39.6481 71.9748 36.5829 77.1617C36.5829 77.1617 17.9905 61.9253 17.689 54.4692C17.5885 52.308 19.699 49.3904 21.8597 48.2018C34.8242 38.0982 49.2458 31.0743 49.2458 31.0743Z" fill="#E28A40"/>
<path d="M174.719 106.764C174.719 109.519 132.409 112.221 80.5514 111.734C47.688 111.41 0.000976562 109.951 0.000976562 107.196C0.000976562 104.44 38.6933 100.82 73.8682 100.82C109.043 100.82 174.719 104.008 174.719 106.764Z" fill="#E0E0E0"/>
</svg>
