<svg width="289" height="207" viewBox="0 0 289 207" fill="none" xmlns="http://www.w3.org/2000/svg">
<path d="M22.2039 161.885C-26.7939 97.0217 12.8753 9.14178 83.0662 1.3181C88.5003 0.68129 151.355 -1.59304 185.137 7.41329C200.987 6.32162 226.346 3.77437 240.747 12.9626C274.167 34.3413 278.242 52.9908 271.449 86.3779C264.838 119.037 241.924 146.602 218.104 169.891C194.466 192.998 161.771 207.827 125.362 206.553C88.6814 205.371 44.3933 191.179 22.2039 161.885Z" fill="#F7F7F7"/>
<path d="M271.721 196.91C284.038 197.546 289.473 200.276 270.815 202.914C259.585 204.551 239.026 204.642 206.602 205.734C126.177 208.463 15.7734 203.551 15.7734 201.276C15.7734 199.548 35.5174 196.728 83.2472 196C98.01 195.818 117.301 193.453 137.86 193.453C224.806 193.544 236.218 195.181 271.721 196.91Z" fill="#E0E0E0"/>
<path opacity="0.8" d="M249.534 171.528H38.7797C33.255 171.528 28.7266 166.98 28.7266 161.43V59.1765H259.587V161.521C259.587 167.071 255.058 171.528 249.534 171.528Z" fill="#F5F5F5"/>
<path d="M249.533 171.528L85.3318 171.71L44.3041 171.801H39.1417C37.4209 171.892 35.6095 171.437 34.0698 170.619C32.5302 169.8 31.1716 168.617 30.1754 167.162C29.1791 165.706 28.5451 163.978 28.4546 162.158C28.364 155.244 28.4546 148.421 28.364 141.507L28.2734 59.0857V58.6309H28.7263L259.586 58.9947H259.677V59.0857L259.586 118.127V147.693V155.062V158.792C259.586 160.066 259.586 161.248 259.496 162.522C259.224 164.978 258.047 167.344 256.235 168.981C254.424 170.619 251.979 171.528 249.533 171.528ZM249.533 171.528C251.979 171.528 254.424 170.619 256.235 168.89C258.047 167.253 259.224 164.887 259.496 162.431C259.586 161.248 259.496 159.975 259.586 158.701V154.971V147.602V118.036L259.496 58.9947L259.586 59.0857L28.7263 59.6316L29.1791 59.1767L29.0886 141.598C29.0886 148.421 28.998 155.335 29.0886 162.158C29.1791 163.796 29.8131 165.433 30.7188 166.798C31.6245 168.162 32.8924 169.345 34.4321 170.073C35.8812 170.801 37.602 171.164 39.2323 171.164H44.3947L85.4224 171.255L249.533 171.528Z" fill="#A42A29"/>
<path d="M259.587 78.5541H28.7266V33.6134C28.7266 28.064 33.255 23.5154 38.7797 23.5154H249.533C255.058 23.5154 259.587 28.064 259.587 33.6134V78.5541Z" fill="#A42A29"/>
<path d="M183.146 93.7463C182.15 91.9269 173.999 101.843 176.263 107.847C178.527 113.942 183.146 112.942 183.146 112.942C183.146 112.942 186.044 99.1137 183.146 93.7463Z" fill="#7A4B51"/>
<path d="M172.821 78.9177C172.821 78.9177 172.821 78.9177 177.349 84.2851C181.878 89.6525 180.7 90.1074 179.885 93.8373C179.07 97.2943 172.64 96.5665 170.104 95.4748C167.93 94.5651 162.134 95.9297 160.503 94.747C159.869 94.2922 160.503 94.0193 162.405 93.8373C164.579 93.6554 166.571 92.6547 166.571 92.6547C165.213 90.6532 157.333 92.1998 156.156 89.8345C155.613 88.6518 165.032 90.7442 165.937 89.5616C165.937 89.5616 165.485 88.7428 160.956 87.3782C158.33 86.5595 155.703 85.7407 155.522 84.9219C155.25 83.2844 160.413 85.9227 166.934 86.5595C166.934 86.5595 164.307 85.1949 161.771 84.1032C159.416 83.1025 157.152 82.4657 157.696 81.465C158.148 80.6462 161.681 82.2837 164.035 83.2844C168.383 85.1039 171.915 85.4678 173.726 85.4678C174.632 85.4678 175.085 85.4678 175.085 85.4678C170.919 79.3726 172.821 78.9177 172.821 78.9177Z" fill="#8F5045"/>
<path d="M175.086 85.1948C175.086 85.1948 174.633 88.2879 176.263 89.9254C176.263 89.9254 172.821 88.9247 173.637 85.1948C174.542 85.2858 175.086 85.1948 175.086 85.1948Z" fill="#703E38"/>
<path d="M180.611 89.6526L184.958 100.296L180.611 110.485C180.611 110.485 177.35 98.386 176.173 94.6561C175.086 90.7443 180.611 89.6526 180.611 89.6526Z" fill="#8F5045"/>
<path d="M230.241 73.1865C230.241 73.1865 215.116 78.7359 210.587 82.9206L198.27 121.22C198.27 121.22 197.817 118.582 197.002 119.674L183.145 93.7464C183.145 93.7464 182.873 107.847 176.262 107.847C176.262 107.847 189.847 145.419 197.364 147.512C204.972 149.604 217.923 116.49 217.923 116.49L230.241 73.1865Z" fill="#522228"/>
<path d="M251.524 173.439C253.698 173.257 255.781 173.166 257.955 172.984C258.317 158.064 248.173 96.5664 248.173 96.5664C248.173 96.5664 222.452 94.2011 221.003 100.933C213.395 136.413 192.383 171.983 192.383 171.983C197.817 166.343 236.852 168.799 251.524 173.439Z" fill="#4F1F25"/>
<path d="M238.301 68.5469C238.301 68.5469 247.992 64.2712 256.596 67.4553L258.045 79.8276C258.045 79.8276 237.486 87.3783 230.874 85.104C224.263 82.9207 222.542 77.6442 238.301 68.5469Z" fill="#7A4B51"/>
<path d="M227.524 174.44C231.781 174.349 236.038 174.167 240.295 173.985C239.57 162.431 233.864 151.332 234.408 140.779L211.041 140.234C207.056 149.513 204.339 161.521 202.527 173.803C210.95 173.894 219.283 174.621 227.524 174.44Z" fill="#0E3944"/>
<path d="M227.526 174.439C238.847 174.167 250.259 173.621 261.58 172.62C259.134 152.788 246.092 141.871 246.092 141.871L211.133 140.234C211.133 140.234 213.578 159.611 219.556 174.349C222.273 174.53 224.899 174.53 227.526 174.439Z" fill="#0E3944"/>
<path d="M200.715 173.894C209.681 173.803 218.738 174.712 227.523 174.439C239.388 174.167 251.252 173.621 263.117 172.529C259.947 150.241 254.241 134.411 251.705 128.134C251.705 128.134 282.227 89.7436 267.826 77.3713C267.011 76.6435 266.196 76.0067 265.29 75.4608C251.886 66.8184 231.418 73.1865 227.704 74.3692C227.342 74.4601 227.161 74.5511 227.161 74.5511C227.161 74.5511 198.994 93.9284 215.115 121.584C215.025 121.675 208.504 145.055 200.715 173.894Z" fill="#D95D7B"/>
<path d="M259.225 32.3394C259.225 32.3394 265.383 25.9713 271.361 31.4296C277.338 36.888 271.089 48.1687 271.361 50.2611C271.633 52.3534 276.523 52.8083 275.346 55.4465C274.168 58.0847 271.089 58.4486 271.361 59.7222C271.633 60.9959 274.621 62.9973 273.353 64.3619C272.085 65.6355 269.368 64.2709 269.549 66.5452C269.731 68.8196 271.27 71.7307 268.553 72.0036C268.553 72.0036 270.636 69.4564 268.734 68.6376C266.832 67.8189 265.383 68.7286 264.568 65.9994C263.753 63.3612 267.648 62.2695 265.927 60.8139C264.206 59.3584 260.311 59.3584 262.123 56.9931C263.934 54.6278 264.568 52.5354 261.217 50.6249C257.685 48.6235 259.225 32.3394 259.225 32.3394Z" fill="#222323"/>
<path d="M232.507 29.2465C225.533 29.0645 225.08 44.348 233.413 52.4446C241.745 60.5412 243.828 29.5194 232.507 29.2465Z" fill="#222323"/>
<path d="M256.145 27.7001C256.145 27.7001 235.405 20.6952 231.239 35.3419C227.073 49.9885 230.877 65.454 240.568 64.3623C254.334 62.9977 272.267 35.9787 256.145 27.7001Z" fill="#8F5045"/>
<path d="M247.902 35.2508C247.902 35.2508 252.612 41.346 252.431 49.1697C252.431 49.1697 255.872 44.894 257.684 48.6239C259.495 52.3538 252.25 57.8122 252.25 57.8122C252.25 57.8122 263.933 58.449 265.382 43.2565C265.926 36.7974 257.593 30.9751 247.902 35.2508Z" fill="#141515"/>
<path d="M251.978 54.5369C250.348 58.8126 244.28 66.2724 237.849 64.18C237.849 64.18 239.48 70.5481 236.762 72.9134C236.762 72.9134 233.955 77.9169 240.385 78.5537C248.446 79.4635 252.974 72.9134 252.974 72.9134C249.442 65.0897 254.242 55.3556 254.242 55.3556C252.521 56.4473 251.978 54.5369 251.978 54.5369Z" fill="#703E38"/>
<path d="M242.649 30.9751C242.649 30.9751 239.479 47.4412 252.43 49.1697C252.43 49.1697 257.049 41.346 263.118 46.8044C263.118 46.8044 269.639 28.8827 254.332 26.0625C254.332 26.0625 251.344 19.2395 239.479 21.4229C222.905 24.425 218.286 44.621 227.524 64.5441C227.433 64.5441 219.373 28.7007 242.649 30.9751Z" fill="#141515"/>
<path d="M265.201 75.5517C263.48 76.5524 261.397 77.5531 258.952 78.6448C214.573 98.5679 224.989 79.9184 224.989 79.9184C224.989 78.5538 225.441 77.2802 226.257 76.1885C226.619 75.6427 227.072 75.0969 227.615 74.551C231.238 73.3684 250.982 67.2732 264.296 75.0969C264.658 75.1878 264.929 75.3698 265.201 75.5517Z" fill="#703E38"/>
<path d="M265.201 75.5516C263.48 76.5523 261.397 77.553 258.952 78.6447C214.573 98.5678 224.989 79.9183 224.989 79.9183C224.989 78.5537 225.441 77.2801 226.257 76.1884C227.887 76.9162 231.147 78.4628 232.234 78.7357L232.959 81.4649L236.763 79.0086C236.763 79.0086 250.076 79.3725 264.386 75.1877C264.658 75.1877 264.929 75.3697 265.201 75.5516Z" fill="#8F5045"/>
<path d="M264.025 172.438C264.296 171.346 264.387 170.073 264.296 168.526C264.025 164.978 265.746 162.613 268.191 161.521L258.319 127.861C258.319 127.861 274.984 93.0185 275.346 87.2872C275.346 87.2872 272.448 74.8239 256.689 71.094C256.689 71.094 243.828 80.1003 236.22 97.931C230.967 110.394 239.662 150.695 245.368 173.803C251.617 173.53 257.775 173.075 264.025 172.438Z" fill="#4F1F25"/>
<path d="M262.032 72.1858C262.032 72.1858 264.025 78.3719 262.576 91.563C262.576 91.563 259.225 89.1067 252.975 89.4706C252.975 89.4706 237.307 107.301 237.126 134.411C237.126 134.411 230.424 108.575 235.224 95.3839C240.024 82.2838 256.689 67.5461 256.689 67.5461L262.032 72.1858Z" fill="#0E3944"/>
<path d="M192.293 174.349C193.018 174.258 193.742 174.167 194.467 174.167L216.022 129.681C216.022 129.681 215.75 107.21 216.022 100.296C216.294 93.3825 230.241 73.1865 230.241 73.1865C216.656 78.5539 210.316 92.9277 209.048 100.296C207.78 107.574 210.497 130.863 210.497 130.863C195.01 155.881 192.384 168.799 192.293 174.349Z" fill="#662D34"/>
<path d="M216.022 129.681C216.022 129.681 215.841 100.842 220.369 89.1978C224.988 77.5533 238.302 68.6379 238.302 68.6379C238.302 68.6379 221.547 74.1873 215.207 88.47C215.207 88.47 216.747 88.0152 218.377 88.1971C218.377 88.1062 211.403 94.7472 216.022 129.681Z" fill="#432024"/>
<path d="M275.253 87.2874C275.253 87.2874 288.929 140.143 284.763 144.6C280.597 149.058 275.525 157.155 268.008 140.143C260.491 123.131 259.223 109.03 259.223 109.03C259.223 109.03 266.468 87.5603 275.253 87.2874Z" fill="#0E3944"/>
<path d="M265.383 113.032C265.383 113.032 274.983 112.85 277.247 106.482C277.247 106.391 269.821 103.844 265.383 113.032Z" fill="#082930"/>
<path d="M266.105 97.9312L269.547 111.941C269.547 111.941 275.344 110.667 276.611 106.937L273.985 97.9312H266.105Z" fill="#8F5045"/>
<path d="M269.187 84.467C269.187 84.467 269.187 84.467 266.923 91.108C264.659 97.749 265.927 97.749 268.01 100.842C270.002 103.753 275.708 100.66 277.701 98.7497C279.422 97.1122 285.309 96.2935 286.305 94.565C286.758 93.8372 286.033 93.8372 284.222 94.383C282.139 95.0198 279.965 94.8379 279.965 94.8379C280.508 92.4726 288.388 91.017 288.569 88.3788C288.66 87.1052 280.69 92.4726 279.422 91.6538C279.422 91.6538 279.512 90.7441 283.225 87.833C285.309 86.1045 287.573 84.376 287.392 83.5572C287.029 82.0107 283.225 86.2864 277.339 89.2885C277.339 89.2885 279.331 87.0142 281.233 85.1038C283.044 83.3753 284.856 81.8288 284.041 81.101C283.316 80.4642 280.599 83.3753 278.788 85.1038C275.437 88.3788 272.267 90.0163 270.546 90.7441C269.731 91.108 269.278 91.199 269.278 91.199C271.18 84.194 269.187 84.467 269.187 84.467Z" fill="#8F5045"/>
<path d="M269.457 91.199C269.457 91.199 270.997 93.9282 270.091 96.1116C270.091 96.1116 272.899 93.9282 270.816 90.7441C269.91 91.0171 269.457 91.199 269.457 91.199Z" fill="#703E38"/>
<path d="M256.687 71.0942C256.687 71.0942 243.827 80.1006 236.219 97.9313C228.611 115.762 244.823 171.619 244.823 171.619C244.823 171.619 254.242 170.437 259.586 163.523L258.227 127.861C258.227 127.861 274.892 93.0187 275.254 87.2874C275.254 87.2874 272.356 74.8241 256.687 71.0942Z" fill="#662D34"/>
<path d="M262.032 72.186C262.032 72.186 264.025 78.3722 262.576 91.5633C262.576 91.5633 259.225 89.107 252.975 89.4709C252.975 89.4709 237.307 107.302 237.126 134.412C237.126 134.412 230.424 108.575 235.224 95.3841C240.024 82.284 256.689 67.5464 256.689 67.5464L262.032 72.186Z" fill="#522228"/>
<path d="M275.253 87.2874C275.253 87.2874 288.929 140.143 284.763 144.6C280.597 149.058 275.525 157.155 268.008 140.143C260.491 123.131 259.223 109.03 259.223 109.03C259.223 109.03 266.468 87.5603 275.253 87.2874Z" fill="#522228"/>
<path d="M265.383 113.033C265.383 113.033 274.983 112.851 277.247 106.483C277.247 106.392 269.821 103.844 265.383 113.033Z" fill="#7A4B51"/>
<path d="M266.105 97.9314L269.547 111.941C269.547 111.941 275.344 110.668 276.612 106.938L273.985 97.9314H266.105Z" fill="#8F5045"/>
<path d="M269.187 84.4672C269.187 84.4672 269.187 84.4672 266.923 91.1082C264.659 97.7493 265.927 97.7493 268.01 100.842C270.002 103.753 275.708 100.66 277.701 98.75C279.422 97.1125 285.309 96.2937 286.305 94.5652C286.758 93.8374 286.033 93.8374 284.222 94.3833C282.139 95.0201 279.965 94.8381 279.965 94.8381C280.508 92.4728 288.388 91.0173 288.569 88.3791C288.66 87.1054 280.69 92.4728 279.422 91.6541C279.422 91.6541 279.512 90.7444 283.225 87.8332C285.309 86.1047 287.573 84.3762 287.392 83.5575C287.029 82.0109 283.225 86.2867 277.339 89.2888C277.339 89.2888 279.331 87.0145 281.233 85.104C283.044 83.3755 284.856 81.829 284.041 81.1012C283.316 80.4644 280.599 83.3755 278.788 85.104C275.437 88.3791 272.267 90.0166 270.546 90.7444C269.731 91.1082 269.278 91.1992 269.278 91.1992C271.18 84.1943 269.187 84.4672 269.187 84.4672Z" fill="#8F5045"/>
<path d="M269.457 91.1992C269.457 91.1992 270.997 93.9284 270.091 96.1118C270.091 96.1118 272.899 93.9284 270.816 90.7444C269.91 91.0173 269.457 91.1992 269.457 91.1992Z" fill="#703E38"/>
<path d="M242.649 30.9751C242.649 30.9751 239.479 47.4412 252.43 49.1697C252.43 49.1697 257.049 41.346 263.118 46.8044C263.118 46.8044 269.639 28.8827 254.332 26.0625C254.332 26.0625 251.344 19.2395 239.479 21.4229C222.905 24.425 218.286 44.621 227.524 64.5441C227.433 64.5441 219.373 28.7007 242.649 30.9751Z" fill="#141515"/>
<path d="M247.902 35.2508C247.902 35.2508 252.612 41.346 252.431 49.1697C252.431 49.1697 255.872 44.894 257.684 48.6239C259.495 52.3538 252.25 57.8122 252.25 57.8122C252.25 57.8122 263.933 58.449 265.382 43.2565C265.926 36.7974 257.593 30.9751 247.902 35.2508Z" fill="#141515"/>
<path fill-rule="evenodd" clip-rule="evenodd" d="M32.7999 179.352C30.6262 178.26 28.7243 176.805 27.0035 175.258L20.7542 177.442L14.9578 168.162L19.5768 163.432C18.8523 161.157 18.49 158.792 18.3994 156.427L12.4219 153.607L14.7767 142.872H21.3882C22.475 140.689 23.9241 138.778 25.4638 137.05L23.2901 130.773L32.5282 124.859L37.2377 129.499C39.502 128.771 41.8568 128.407 44.2116 128.316L47.0192 122.312L57.7063 124.677V131.318C59.88 132.41 61.7819 133.866 63.5027 135.412L69.752 133.229L75.639 142.508L71.02 147.239C71.7445 149.513 72.1068 151.878 72.1973 154.244L78.1749 157.064L75.8201 167.799H69.2086C68.1217 169.982 66.6726 171.892 65.133 173.621L67.3066 179.898L58.0686 185.811L53.359 181.172C51.0948 181.899 48.74 182.263 46.3852 182.354L43.5776 188.358L32.8904 185.993L32.7999 179.352ZM42.219 166.798C48.5589 168.253 54.8081 164.251 56.2572 157.882C57.7063 151.514 53.7213 145.237 47.3815 143.782C41.0416 142.326 34.7924 146.329 33.3433 152.697C31.8942 159.065 35.8792 165.342 42.219 166.798Z" fill="#A42A29"/>
<path d="M108.155 148.057C108.155 148.057 107.521 148.057 106.524 147.511C105.528 147.056 104.17 146.055 103.354 144.236C102.902 143.326 102.63 142.235 102.72 141.052C102.811 139.869 103.083 138.596 103.807 137.504C104.17 136.958 104.622 136.412 105.075 135.957C105.619 135.503 106.162 135.139 106.887 134.866C108.155 134.229 109.694 134.138 111.234 134.411C112.683 134.775 114.042 135.594 114.947 136.685C115.4 137.231 115.762 137.868 116.034 138.505C116.306 139.142 116.487 139.778 116.578 140.415C116.759 141.689 116.487 142.962 116.034 144.054C115.581 145.146 114.857 145.965 114.132 146.601C112.592 147.875 110.962 148.148 109.875 148.148C108.789 148.239 108.155 148.057 108.155 148.057C108.155 147.966 108.789 148.148 109.785 148.148C110.872 148.148 112.411 147.784 113.86 146.51C114.585 145.874 115.219 145.055 115.672 144.054C116.125 143.053 116.306 141.78 116.125 140.597C116.034 139.96 115.853 139.323 115.581 138.778C115.31 138.141 114.947 137.595 114.494 137.14C113.589 136.139 112.321 135.321 110.962 135.048C109.604 134.775 108.064 134.866 106.887 135.412C106.253 135.685 105.709 136.048 105.166 136.503C104.713 136.958 104.26 137.413 103.898 137.959C103.173 138.96 102.902 140.233 102.811 141.325C102.72 142.417 102.992 143.508 103.354 144.327C104.17 146.056 105.438 147.056 106.343 147.602C107.611 147.875 108.245 147.966 108.155 148.057Z" fill="#263238"/>
<path d="M102.721 155.335C102.721 155.335 102.721 155.426 102.721 155.608C102.721 155.79 102.721 156.063 102.721 156.336C102.721 156.973 102.721 157.973 102.721 159.247L102.63 159.156C104.26 159.52 106.343 159.975 108.789 160.52L108.698 160.611C109.151 159.52 109.695 158.428 110.329 157.154V157.063H110.419C111.687 156.973 113.046 156.791 114.495 156.336H114.585L114.676 156.427C115.491 157.245 116.487 158.155 117.393 159.156H117.212C118.933 158.064 120.653 156.973 122.555 155.699L122.465 155.881C122.102 154.789 121.65 153.516 121.197 152.242V152.151L121.287 152.06C122.193 151.15 123.008 149.968 123.642 148.694L123.733 148.603H123.823C125.001 148.603 126.359 148.603 127.627 148.603L127.446 148.694C127.899 146.784 128.352 144.6 128.805 142.508L128.895 142.69C127.808 142.144 126.631 141.598 125.454 141.052L125.363 140.961V140.87C125.272 139.597 125.091 138.232 124.638 136.867V136.776L124.729 136.686C125.544 135.867 126.54 134.866 127.446 133.956V134.229C126.359 132.501 125.182 130.681 124.095 128.862L124.367 128.953C123.189 129.317 122.012 129.772 120.744 130.226H120.653L120.563 130.135C119.657 129.226 118.48 128.407 117.212 127.77C117.121 127.679 117.302 127.952 117.121 127.588V127.497V127.406V127.133V126.679V125.678C117.121 125.041 117.121 124.404 117.121 123.767L117.302 123.949C115.219 123.494 113.136 123.04 111.144 122.585L111.325 122.494C110.781 123.676 110.238 124.859 109.695 125.951L109.604 126.042H109.513C108.155 126.133 106.796 126.315 105.528 126.769H105.438L105.347 126.679C104.442 125.769 103.536 124.859 102.63 123.949H102.902C101.09 125.132 99.2791 126.224 97.5583 127.315L97.6489 127.133C98.1017 128.407 98.5546 129.59 98.9168 130.772V130.863L98.8263 130.954C97.9206 131.955 97.1055 133.138 96.4715 134.32L96.3809 134.411H96.2903C95.0224 134.411 93.6638 134.411 92.4864 134.411L92.6676 134.32C92.2147 136.504 91.6713 138.596 91.309 140.506L91.2185 140.324C92.3959 140.87 93.5733 141.416 94.6601 141.962H94.7507V142.053C94.8412 143.509 95.0224 144.873 95.4752 146.147V146.238L95.3846 146.329C94.3884 147.329 93.4827 148.239 92.6676 149.058V148.876C93.9355 150.968 95.1129 152.788 96.0186 154.243H95.9281C97.3772 153.697 98.5546 153.334 99.5508 152.97C100.547 153.879 101.453 154.516 101.996 154.88C102.268 155.062 102.54 155.153 102.63 155.244C102.721 155.335 102.721 155.335 102.721 155.335C102.721 155.335 102.63 155.335 102.449 155.244C102.268 155.153 102.087 155.062 101.815 154.88C101.181 154.516 100.366 153.97 99.2791 152.97H99.3697C98.3734 153.334 97.196 153.788 95.7469 154.243H95.6563V154.152C94.6601 152.606 93.5733 150.877 92.2147 148.785L92.1242 148.694L92.2147 148.603C93.0299 147.784 93.9355 146.875 94.9318 145.874V145.965C94.5695 144.691 94.2978 143.327 94.2072 141.871L94.2978 141.962C93.211 141.416 92.0336 140.87 90.8562 140.324L90.7656 140.233V140.142C91.2185 138.141 91.6713 136.14 92.1242 133.956V133.865H92.2147C93.4827 133.865 94.7507 133.865 96.0186 133.865L95.8375 133.956C96.4715 132.774 97.2866 131.591 98.2828 130.499V130.681C97.83 129.499 97.4677 128.316 97.0149 127.042L96.9243 126.951L97.0149 126.86C98.7357 125.769 100.547 124.586 102.358 123.494L102.449 123.403L102.54 123.494C103.445 124.404 104.351 125.314 105.257 126.224L105.076 126.133C106.434 125.678 107.793 125.496 109.151 125.405L108.97 125.496C109.513 124.313 110.057 123.222 110.6 122.039L110.691 121.857H110.872C112.864 122.312 114.948 122.767 117.031 123.222H117.212V123.403C117.212 124.04 117.212 124.677 117.212 125.314V126.315V126.769V127.042V127.133V127.224C117.031 126.86 117.121 127.133 117.121 127.042C118.389 127.679 119.567 128.589 120.563 129.499H120.382C121.65 129.044 122.827 128.589 124.004 128.225L124.186 128.134L124.276 128.225C125.454 130.045 126.631 131.864 127.627 133.592L127.718 133.683L127.627 133.774C126.721 134.684 125.725 135.685 124.91 136.504L125.001 136.322C125.454 137.686 125.635 139.142 125.725 140.415L125.635 140.233C126.812 140.779 127.989 141.416 129.076 141.871L129.167 141.962V142.144C128.714 144.327 128.171 146.42 127.808 148.33V148.421H127.627C126.269 148.421 125.001 148.421 123.823 148.421L124.004 148.33C123.37 149.604 122.465 150.786 121.559 151.787V151.605C122.012 152.879 122.465 154.152 122.827 155.244V155.335L122.736 155.426C120.835 156.609 119.023 157.791 117.393 158.792L117.302 158.883L117.212 158.792C116.306 157.791 115.31 156.882 114.495 156.063H114.585C113.136 156.518 111.778 156.7 110.51 156.791L110.6 156.7C109.966 157.973 109.423 159.156 108.97 160.157V160.248H108.879C106.343 159.702 104.26 159.156 102.721 158.792H102.63V158.701C102.63 157.427 102.63 156.518 102.63 155.881C102.63 155.608 102.63 155.335 102.63 155.153C102.721 155.426 102.721 155.335 102.721 155.335Z" fill="#263238"/>
<path fill-rule="evenodd" clip-rule="evenodd" d="M72.1086 118.673C71.0217 118.127 70.116 117.4 69.2104 116.672L66.131 117.764L63.2328 113.124L65.5876 110.759C65.2253 109.667 65.0442 108.484 64.9536 107.302L61.9648 105.846L63.1422 100.57H66.4027C66.9461 99.4779 67.6707 98.5682 68.3952 97.6585L67.3084 94.5654L71.9274 91.6542L74.2822 94.0195C75.369 93.6556 76.5464 93.4737 77.7238 93.3827L79.1729 90.3806L84.4259 91.5633V94.8383C85.5128 95.3841 86.4185 96.1119 87.3241 96.8397L90.4035 95.748L93.3017 100.388L90.9469 102.753C91.3092 103.845 91.4903 105.027 91.5809 106.21L94.5697 107.665L93.3923 112.942H90.1318C89.5884 114.034 88.8638 114.943 88.1393 115.853L89.2261 118.946L84.6071 121.857L82.2523 119.492C81.1655 119.856 79.9881 120.038 78.8107 120.129L77.3616 123.131L72.1086 121.948V118.673ZM76.7276 112.487C79.8975 113.215 82.9768 111.213 83.7014 108.029C84.4259 104.845 82.4334 101.752 79.2635 101.024C76.0936 100.297 73.0143 102.298 72.2897 105.482C71.6557 108.666 73.6482 111.759 76.7276 112.487Z" fill="#E7515B"/>
<g opacity="0.4">
<g opacity="0.4">
<g opacity="0.4">
<g opacity="0.4">
<path opacity="0.4" fill-rule="evenodd" clip-rule="evenodd" d="M72.1086 118.673C71.0217 118.127 70.116 117.4 69.2104 116.672L66.131 117.764L63.2328 113.124L65.5876 110.759C65.2253 109.667 65.0442 108.484 64.9536 107.302L61.9648 105.846L63.1422 100.57H66.4027C66.9461 99.4779 67.6707 98.5682 68.3952 97.6585L67.3084 94.5654L71.9274 91.6542L74.2822 94.0195C75.369 93.6556 76.5464 93.4737 77.7238 93.3827L79.1729 90.3806L84.4259 91.5633V94.8383C85.5128 95.3841 86.4185 96.1119 87.3241 96.8397L90.4035 95.748L93.3017 100.388L90.9469 102.753C91.3092 103.845 91.4903 105.027 91.5809 106.21L94.5697 107.665L93.3923 112.942H90.1318C89.5884 114.034 88.8638 114.943 88.1393 115.853L89.2261 118.946L84.6071 121.857L82.2523 119.492C81.1655 119.856 79.9881 120.038 78.8107 120.129L77.3616 123.131L72.1086 121.948V118.673ZM76.7276 112.487C79.8975 113.215 82.9768 111.213 83.7014 108.029C84.4259 104.845 82.4334 101.752 79.2635 101.024C76.0936 100.297 73.0143 102.298 72.2897 105.482C71.6557 108.666 73.6482 111.759 76.7276 112.487Z" fill="white"/>
</g>
</g>
</g>
</g>
</svg>
