<svg width="320" height="320" viewBox="0 0 320 320" fill="none" xmlns="http://www.w3.org/2000/svg">
<path d="M240.24 97.4937C213.487 80.2006 156.849 57.6218 94.4692 76.9378C57.6675 90.4459 20.2133 130.905 17.0813 161.054C13.362 197.467 26.9342 212.28 44.1605 228.921C61.3869 245.561 119.134 283.41 242.524 242.755C272.736 232.836 366.828 168.232 240.24 97.4937Z" fill="#FAFBFB"/>
<path d="M103.409 219.98V225.658C126.247 226.832 155.218 227.289 178.905 224.287L178.578 219.98V209.278C154.305 210.453 125.921 211.367 103.409 211.889V219.98Z" fill="#FBB778"/>
<path d="M181.058 131.753C179.688 129.078 178.513 127.446 178.513 127.446C178.513 127.446 173.554 125.88 173.489 125.88C172.706 125.554 169.443 124.379 168.53 124.249C149.02 120.855 127.16 121.834 106.149 126.924C106.149 126.924 104.061 125.88 99.7549 135.473C120.505 131.362 151.825 127.251 181.058 131.753Z" fill="#FBB778"/>
<path d="M134.012 251.173C122.789 250.716 112.414 249.281 103.409 247.519V251.043C103.409 251.043 115.872 258.286 142.168 258.939C168.464 259.591 180.732 251.043 180.732 251.043L180.405 246.736C164.093 250.716 148.302 251.76 134.012 251.173Z" fill="#FBB778"/>
<path d="M112.218 231.661C109.151 231.531 106.215 231.4 103.344 231.27V241.841C123.441 246.018 150.847 248.367 180.014 241.124L179.231 229.899C158.155 232.51 133.425 232.51 112.218 231.661Z" fill="#FBB778"/>
<path d="M185.691 149.046C185.756 147.872 185.756 146.762 185.625 145.783C185.299 142.977 184.581 140.302 183.733 137.887C152.804 132.341 118.09 137.431 97.1448 141.868C95.9703 145.131 95.4482 148.981 95.4482 153.092C120.766 149.112 157.502 145.066 185.691 149.046Z" fill="#FBB778"/>
<path d="M95.7747 158.704C96.1662 162.881 96.8839 167.122 97.7974 171.103C121.614 168.101 153.979 165.23 181.319 167.449C182.624 163.664 184.125 158.965 184.973 154.528C157.568 150.678 120.766 154.789 95.7747 158.704Z" fill="#FBB778"/>
<path d="M99.1025 176.65C100.538 182.066 101.974 186.439 102.822 188.723C126.247 186.439 155.284 184.155 178.579 184.285V174.692C178.579 174.692 178.84 174.04 179.296 172.93C153.196 171.038 122.201 173.779 99.1025 176.65Z" fill="#FBB778"/>
<path d="M103.409 194.334V206.342C125.986 205.754 154.435 204.841 178.578 203.666V189.832C155.675 189.766 126.769 192.05 103.409 194.334Z" fill="#FBB778"/>
<path d="M183.733 137.822C182.885 135.473 181.906 133.385 181.058 131.688C151.825 127.185 120.505 131.297 99.755 135.473C98.972 137.235 98.1237 139.323 97.2102 141.803C118.091 137.431 152.804 132.275 183.733 137.822Z" fill="#E28A40"/>
<path d="M184.973 154.528C185.364 152.635 185.625 150.743 185.691 149.046C157.502 145.131 120.766 149.112 95.4482 153.027C95.4482 154.854 95.5787 156.812 95.7092 158.704C120.766 154.789 157.567 150.678 184.973 154.528Z" fill="#E28A40"/>
<path d="M97.7319 171.168C98.1234 173.061 98.5802 174.953 99.037 176.715C122.136 173.844 153.13 171.103 179.231 172.996C179.753 171.69 180.47 169.798 181.253 167.579C153.978 165.295 121.614 168.101 97.7319 171.168Z" fill="#E28A40"/>
<path d="M102.756 188.723C103.148 189.767 103.344 190.354 103.344 190.354V194.269C126.704 191.985 155.675 189.701 178.513 189.832V184.285C155.284 184.155 126.247 186.439 102.756 188.723Z" fill="#E28A40"/>
<path d="M103.409 211.889C125.921 211.301 154.37 210.453 178.578 209.278V203.666C154.37 204.841 125.986 205.754 103.409 206.342V211.889Z" fill="#E28A40"/>
<path d="M103.409 225.658V231.27C106.28 231.4 109.216 231.531 112.283 231.661C133.424 232.51 158.155 232.445 179.296 229.834L178.905 224.222C155.153 227.289 126.182 226.832 103.409 225.658Z" fill="#E28A40"/>
<path d="M103.409 241.841V247.519C112.414 249.346 122.789 250.716 134.012 251.173C148.302 251.76 164.093 250.651 180.405 246.736L180.014 241.058C150.912 248.367 123.506 246.018 103.409 241.841Z" fill="#E28A40"/>
<g opacity="0.3">
<path opacity="0.3" d="M103.409 211.236L109.738 218.545H115.937V226.571L180.405 241.45L179.231 227.028L119.265 214.433H109.086L104.192 210.518L103.409 211.236Z" fill="black"/>
</g>
<path d="M122.332 204.71L116.981 203.731C116.981 203.731 104.257 189.766 101.843 189.571C99.8852 189.375 89.0535 189.505 85.2689 189.571C84.5511 189.571 83.9639 190.158 83.9639 190.876C83.9639 191.594 84.5511 192.181 85.2036 192.181L97.9929 192.703L98.0581 193.747L85.2036 193.943C83.8986 194.073 83.0504 196.096 87.2264 196.488L97.9276 196.879V197.532L87.0307 199.033C86.5087 199.098 85.0079 199.359 85.0079 199.946C85.0079 199.946 84.3554 201.317 87.4222 201.708C88.4662 201.839 97.9276 201.513 97.9276 201.513L97.5361 202.361L87.7484 204.449C87.0307 204.58 86.5739 205.298 86.6392 206.015C86.7697 206.733 87.4222 207.255 88.1399 207.19L98.5801 206.211L108.825 214.368H122.527L122.332 204.71Z" fill="#A96050"/>
<path d="M177.208 205.82L119.265 203.927V223.961L184.059 231.466C200.829 231.466 207.419 223.113 204.809 206.538L195.152 205.624L177.208 205.82Z" fill="#E28A40"/>
<g opacity="0.3">
<g opacity="0.3">
<path opacity="0.3" d="M113.914 200.403C121.027 189.832 143.016 151.396 150.716 142.978C154.37 138.997 156.132 134.559 157.567 129.535L144.191 143.891L108.825 195.64L113.914 200.403Z" fill="black"/>
</g>
</g>
<path d="M131.01 124.64C129.248 125.358 125.92 128.686 126.247 130.579C127.291 136.452 139.558 138.67 149.607 135.538C159.655 132.34 158.35 126.794 155.805 124.51C153.13 122.095 147.453 118.245 131.01 124.64Z" fill="#C96F32"/>
<path d="M149.868 107.934L151.173 130.187C151.173 130.187 146.148 134.82 130.945 130.383C130.945 130.383 132.641 112.633 123.18 103.366C123.18 103.366 124.681 102.975 127.16 102.518C127.16 102.518 133.424 114.003 149.868 107.934Z" fill="#884638"/>
<path d="M148.693 68.1932C148.693 68.1932 153.718 61.7328 147.714 61.3413C147.714 61.3413 148.628 54.6198 145.692 54.2283C142.755 53.8368 140.537 56.9691 138.449 54.6851C136.361 52.4011 132.054 48.8772 127.291 54.3588C122.462 59.8404 117.699 53.7715 115.676 56.5775C113.719 59.3836 116.068 62.5812 112.087 64.0168C108.172 65.5177 104.583 67.2796 106.41 71.1298C108.237 74.9799 103.866 76.2851 104.257 78.8301C104.649 81.3751 106.671 81.6361 107.324 83.7243C107.976 85.8125 105.171 87.3787 106.998 90.3153C108.825 93.2518 111.761 92.0772 112.022 94.4264C112.283 96.7757 111.435 102.257 114.502 102.322C117.568 102.388 119.852 107.217 123.049 105.716C126.377 104.15 148.693 68.1932 148.693 68.1932Z" fill="#0E3944"/>
<path d="M116.524 94.1002C120.439 114.591 151.434 116.614 154.631 105.716C155.675 102.192 155.414 93.1866 154.696 87.1177C154.566 85.7474 154.305 84.377 154.044 82.9413C152.347 73.6096 148.563 64.8 142.755 63.9516C122.723 61.1456 111.696 69.0416 116.524 94.1002Z" fill="#A96050"/>
<path d="M122.397 93.1212C122.397 93.1212 120.244 85.8777 123.767 80.5919C127.226 75.3061 121.94 69.9551 121.94 69.9551C121.94 69.9551 139.101 62.8421 148.693 68.1931C148.693 68.1931 152.217 56.3817 134.273 55.9901C116.329 55.6638 91.7942 75.1756 123.18 105.65L116.524 94.1L122.397 93.1212Z" fill="#0E3944"/>
<path d="M121.614 92.3384C121.614 92.3384 116.524 88.4883 113.392 92.2079C110.26 95.9275 118.482 103.302 122.462 102.062C126.508 100.822 121.614 92.3384 121.614 92.3384Z" fill="#A96050"/>
<path d="M204.94 208.365C204.94 208.365 200.764 140.237 178.709 127.316C178.317 127.055 177.208 126.989 176.816 126.859C176.816 126.859 181.514 135.408 181.514 147.088C181.514 158.769 178.121 172.8 178.121 172.8L181.058 207.255L204.94 208.365Z" fill="#E28A40"/>
<path d="M129.639 136.452C129.639 136.452 132.249 130.709 134.011 127.446C136.099 123.466 137.143 120.203 136.882 118.637C136.556 117.005 135.251 110.153 135.251 110.153C135.251 110.153 138.514 108.718 139.688 112.503C140.863 116.287 140.602 117.331 140.602 117.331C140.602 117.331 153.065 105.063 154.174 105.585C156.066 106.499 153.326 109.631 153.326 109.631L146.083 119.093L150.716 116.614C151.825 116.026 153.26 116.418 153.848 117.527C154.37 118.441 154.174 119.615 153.456 120.333L150.977 123.4L152.347 122.552C153.326 121.899 154.696 122.16 155.414 123.074C156.001 123.857 156.066 124.901 155.544 125.684L153.391 129.012L154.5 128.099C155.218 127.512 156.262 127.642 156.849 128.36C157.306 128.947 157.306 129.861 156.784 130.448L143.277 146.044L129.639 136.452Z" fill="#A96050"/>
<path d="M143.277 146.044C143.277 146.044 143.212 145.979 143.016 145.914C142.82 145.783 142.624 145.653 142.298 145.457C141.646 145 140.797 144.413 139.623 143.63C137.274 141.998 133.815 139.584 129.509 136.582L129.444 136.517L129.509 136.452C130.292 134.755 131.14 132.993 132.054 131.101C132.51 130.122 132.967 129.143 133.489 128.164C134.011 127.185 134.533 126.141 134.99 125.097C135.447 124.053 135.903 122.944 136.295 121.769C136.621 120.594 136.947 119.354 136.556 118.115C136.099 115.57 135.577 112.959 135.055 110.218V110.088L135.186 110.023C136.034 109.696 136.947 109.631 137.861 109.957C138.318 110.153 138.644 110.414 138.97 110.741C139.231 111.132 139.492 111.524 139.688 111.915C140.014 112.763 140.275 113.612 140.471 114.525C140.602 114.982 140.667 115.439 140.732 115.896C140.797 116.353 140.863 116.809 140.797 117.331L140.536 117.136C142.429 115.243 144.451 113.351 146.539 111.393C147.583 110.414 148.627 109.435 149.737 108.522C150.846 107.608 151.955 106.629 153.13 105.781C153.326 105.651 153.456 105.585 153.652 105.455C153.717 105.389 153.848 105.389 153.978 105.324C154.043 105.324 154.109 105.324 154.174 105.324C154.304 105.324 154.304 105.389 154.37 105.389C154.761 105.585 155.022 105.977 155.087 106.434C155.153 107.282 154.696 108 154.304 108.652C153.913 109.305 153.391 109.892 152.934 110.479C152.477 111.067 152.021 111.654 151.564 112.241C149.737 114.591 148.04 116.875 146.278 119.159L146.083 118.898C146.996 118.441 147.91 117.919 148.823 117.462C149.28 117.201 149.737 117.005 150.193 116.744C150.389 116.614 150.65 116.483 150.846 116.418C151.107 116.287 151.368 116.222 151.629 116.157C152.673 115.961 153.782 116.614 154.239 117.527C154.696 118.441 154.5 119.681 153.717 120.399C152.869 121.443 152.086 122.487 151.238 123.466L151.042 123.27C151.499 123.009 151.955 122.683 152.347 122.421C152.804 122.095 153.391 121.965 153.913 122.03C155.022 122.095 155.936 123.009 156.131 124.053C156.197 124.575 156.131 125.097 155.936 125.554C155.675 126.011 155.414 126.402 155.153 126.794C154.631 127.577 154.174 128.36 153.652 129.143L153.456 128.947C153.848 128.621 154.239 128.295 154.696 127.968C155.153 127.642 155.74 127.577 156.262 127.707C156.784 127.838 157.175 128.229 157.371 128.751C157.567 129.208 157.567 129.795 157.306 130.252C157.175 130.448 157.045 130.644 156.849 130.84C156.719 131.035 156.523 131.166 156.392 131.362C156.066 131.688 155.805 132.014 155.479 132.406C154.892 133.058 154.304 133.711 153.782 134.363C151.564 136.843 149.671 138.997 148.171 140.759C146.605 142.521 145.43 143.891 144.582 144.805C144.19 145.261 143.864 145.588 143.668 145.849C143.342 145.914 143.277 146.044 143.277 146.044C143.277 146.044 143.407 145.914 143.603 145.653C143.799 145.392 144.125 145.066 144.517 144.543C145.365 143.565 146.539 142.194 148.04 140.432C149.541 138.67 151.433 136.517 153.587 134.037C154.109 133.385 154.696 132.797 155.283 132.079C155.544 131.753 155.87 131.427 156.131 131.101C156.262 130.905 156.458 130.774 156.588 130.579C156.719 130.383 156.914 130.252 156.98 130.057C157.175 129.665 157.175 129.208 157.045 128.751C156.849 128.36 156.523 128.034 156.066 127.903C155.609 127.773 155.153 127.838 154.761 128.099C154.37 128.425 153.978 128.751 153.587 129.078L152.999 129.6L153.456 128.947C153.913 128.164 154.435 127.381 154.957 126.598C155.218 126.206 155.479 125.815 155.675 125.423C155.87 125.032 155.936 124.575 155.87 124.118C155.74 123.205 154.892 122.421 153.913 122.356C153.456 122.291 152.934 122.421 152.543 122.682C152.086 122.944 151.694 123.27 151.238 123.531L150.454 123.988L151.042 123.27C151.825 122.291 152.673 121.247 153.521 120.203C154.174 119.55 154.37 118.506 153.978 117.723C153.587 116.875 152.608 116.353 151.694 116.483C151.238 116.548 150.846 116.809 150.389 117.005C149.932 117.266 149.476 117.462 149.019 117.723C148.105 118.18 147.192 118.702 146.278 119.159L145.626 119.485L146.083 118.898C147.779 116.679 149.541 114.33 151.368 111.98C151.825 111.393 152.282 110.806 152.738 110.218C153.195 109.631 153.652 109.044 154.043 108.457C154.435 107.869 154.826 107.151 154.761 106.434C154.761 106.107 154.565 105.781 154.239 105.651C154.174 105.585 154.043 105.651 153.848 105.716C153.717 105.781 153.521 105.912 153.391 105.977C152.216 106.76 151.107 107.739 149.998 108.718C148.888 109.696 147.844 110.61 146.8 111.589C144.712 113.481 142.69 115.439 140.797 117.331L140.471 117.658L140.536 117.136C140.602 116.744 140.536 116.287 140.471 115.831C140.406 115.374 140.341 114.917 140.21 114.525C140.014 113.677 139.753 112.763 139.427 111.98C139.297 111.589 139.036 111.197 138.775 110.871C138.514 110.545 138.187 110.284 137.796 110.153C137.013 109.827 136.164 109.892 135.381 110.218L135.447 110.023C135.969 112.763 136.425 115.374 136.882 117.919C136.947 118.245 137.013 118.571 137.013 118.898C137.013 119.224 137.013 119.55 136.947 119.876C136.882 120.529 136.686 121.116 136.556 121.704C136.23 122.878 135.708 123.988 135.251 125.097C134.794 126.141 134.207 127.185 133.685 128.164C133.163 129.143 132.706 130.122 132.249 131.101C131.336 132.993 130.488 134.755 129.705 136.452L129.639 136.321C133.881 139.323 137.274 141.737 139.623 143.434C140.797 144.282 141.711 144.935 142.298 145.327C142.624 145.522 142.82 145.718 143.016 145.849C143.212 145.979 143.277 146.044 143.277 146.044Z" fill="#884638"/>
<path d="M145.104 145.131L107.193 203.079C100.472 212.019 83.246 217.696 78.4174 214.303C73.5236 210.91 71.5008 205.624 72.8058 196.357L129.835 134.69L145.104 145.131Z" fill="#E28A40"/>
<path d="M109.346 151.004C112.283 139.519 110.456 128.621 106.149 126.924C106.149 126.924 93.6209 130.318 87.5525 146.632C81.4841 162.946 72.7405 196.357 72.7405 196.357L97.9927 198.38L103.409 190.354L108.498 154.985L109.346 151.004Z" fill="#E28A40"/>
<path d="M188.627 135.93C186.539 136.06 184.777 135.604 183.211 134.69C181.971 133.907 181.318 132.798 181.253 131.297C181.123 129.404 181.645 128.034 182.885 126.924C184.32 125.685 185.951 125.032 187.974 124.902C190.062 124.771 191.824 125.228 193.325 126.337C194.695 127.251 195.347 128.621 195.543 130.514C195.608 132.014 195.086 133.124 193.912 134.037C192.476 135.212 190.78 135.799 188.627 135.93ZM185.886 114.395C184.059 114.526 182.558 114.265 181.449 113.677C180.601 113.286 180.405 112.764 180.34 112.111C180.209 109.697 180.601 107.347 181.579 105.129C182.558 102.845 183.798 100.822 185.299 99.1251C186.93 97.2979 188.627 95.6012 190.258 94.0351C192.02 92.3384 193.52 90.7722 194.76 89.2713C196.326 87.3789 197.044 85.4864 196.979 83.7245L196.914 83.1372C196.783 80.7227 195.739 78.6997 193.912 77.3946C192.215 76.1547 190.715 75.6327 189.214 75.6979C186.343 75.8285 184.777 77.1988 183.994 78.3082C183.015 79.6133 182.362 81.2448 182.036 83.0067C181.84 84.3118 181.579 85.6822 181.253 86.9874C181.057 87.9662 180.601 88.7493 179.948 89.4671C179.361 90.0544 178.513 90.3807 177.338 90.446C175.642 90.5112 174.402 90.2502 173.619 89.5324C172.836 88.8145 172.444 87.9009 172.379 86.5306C172.118 82.0278 173.749 78.1124 177.273 74.6538C180.927 71.0647 185.103 69.1723 190.127 68.9112C195.543 68.585 199.785 69.8248 202.721 72.5004C205.657 75.1759 207.223 78.6997 207.484 83.2025C207.615 85.2907 207.354 87.1179 206.636 88.6188C205.918 90.1197 205.07 91.4248 203.961 92.3384C202.656 93.513 201.351 94.6224 199.98 95.6665C198.414 96.9064 196.979 98.4725 195.804 100.365C194.564 102.388 193.847 104.672 193.781 107.152V107.282L193.977 111.002C193.977 111.263 193.52 111.85 192.15 112.568C190.323 113.743 188.17 114.265 185.886 114.395Z" fill="#E0E0E0"/>
<path d="M219.621 189.375C218.12 189.114 216.946 188.461 216.032 187.548C215.249 186.765 215.053 185.916 215.249 184.872C215.51 183.567 216.097 182.653 217.141 182.131C218.381 181.544 219.621 181.348 221.122 181.675C222.622 181.936 223.797 182.588 224.71 183.567C225.494 184.481 225.755 185.459 225.559 186.83C225.363 187.874 224.776 188.527 223.797 188.983C222.492 189.571 221.122 189.701 219.621 189.375ZM221.317 174.105C220.012 173.844 219.034 173.452 218.251 172.865C217.729 172.408 217.663 172.082 217.729 171.625C218.055 169.928 218.773 168.427 219.817 167.057C220.926 165.621 222.166 164.447 223.471 163.598C224.972 162.62 226.407 161.771 227.843 160.988C229.409 160.14 230.714 159.292 231.823 158.508C233.258 157.464 234.107 156.355 234.368 155.05L234.433 154.658C234.759 152.962 234.368 151.395 233.258 150.221C232.28 149.111 231.301 148.459 230.192 148.263C228.169 147.872 226.799 148.524 226.016 149.111C225.102 149.829 224.319 150.808 223.862 152.048C223.471 152.896 223.079 153.81 222.622 154.658C222.296 155.246 221.839 155.768 221.252 156.094C220.73 156.42 220.078 156.485 219.229 156.29C217.99 156.029 217.207 155.637 216.75 154.985C216.293 154.397 216.228 153.614 216.358 152.701C216.946 149.568 218.773 147.154 221.905 145.392C225.102 143.565 228.43 142.977 232.019 143.695C235.934 144.413 238.739 145.979 240.306 148.328C241.937 150.678 242.459 153.418 241.806 156.551C241.545 158.052 241.023 159.226 240.306 160.14C239.523 161.053 238.674 161.771 237.761 162.228C236.651 162.815 235.477 163.337 234.368 163.794C232.997 164.382 231.758 165.23 230.648 166.274C229.409 167.449 228.56 168.884 228.038 170.581V170.646L227.516 173.256C227.516 173.387 227.06 173.779 225.95 173.974C224.645 174.431 223.014 174.431 221.317 174.105Z" fill="#F4F4F5"/>
<path d="M259.946 152.048C258.837 152.048 257.989 151.852 257.206 151.33C256.553 150.939 256.292 150.351 256.292 149.634C256.292 148.655 256.553 148.002 257.206 147.48C257.924 146.893 258.837 146.567 259.816 146.567C260.86 146.567 261.773 146.762 262.556 147.35C263.209 147.806 263.6 148.524 263.6 149.438C263.6 150.221 263.339 150.743 262.687 151.2C261.904 151.787 261.056 152.048 259.946 152.048ZM258.902 141.346C257.989 141.346 257.206 141.215 256.619 140.954C256.162 140.759 256.097 140.498 256.097 140.171C256.097 138.997 256.292 137.822 256.814 136.713C257.336 135.603 258.054 134.625 258.837 133.776C259.685 132.863 260.599 132.08 261.447 131.296C262.361 130.513 263.209 129.73 263.796 129.012C264.644 128.099 265.036 127.185 265.036 126.272V125.945C265.036 124.706 264.514 123.727 263.6 123.074C262.752 122.422 261.969 122.16 261.251 122.16C259.816 122.226 258.968 122.813 258.511 123.4C257.989 124.053 257.597 124.836 257.467 125.684C257.336 126.337 257.206 126.989 257.01 127.642C256.88 128.099 256.684 128.49 256.292 128.817C255.966 129.078 255.575 129.273 254.922 129.273C254.074 129.273 253.421 129.143 253.03 128.751C252.638 128.425 252.442 127.903 252.442 127.251C252.377 125.032 253.291 123.074 255.118 121.443C257.075 119.681 259.229 118.832 261.773 118.767C264.579 118.702 266.667 119.354 268.168 120.725C269.669 122.095 270.387 123.857 270.452 126.141C270.452 127.185 270.321 128.099 269.93 128.817C269.538 129.535 269.082 130.187 268.494 130.644C267.842 131.166 267.124 131.753 266.406 132.21C265.558 132.797 264.84 133.58 264.188 134.494C263.535 135.473 263.144 136.582 263.078 137.822V137.887L263.144 139.715C263.144 139.845 262.883 140.106 262.165 140.432C261.186 141.085 260.077 141.346 258.902 141.346Z" fill="#F4F4F5"/>
<path d="M58.6463 165.621C56.8845 165.295 55.5143 164.577 54.4702 163.533C53.622 162.62 53.2957 161.706 53.5567 160.466C53.8177 158.965 54.5355 157.921 55.7753 157.334C57.1455 156.616 58.6463 156.485 60.3428 156.812C62.0394 157.138 63.4097 157.856 64.4537 159.031C65.3672 160.075 65.6934 161.249 65.4324 162.815C65.1714 164.055 64.5842 164.773 63.4097 165.295C61.9089 165.817 60.4081 165.948 58.6463 165.621ZM60.6691 148.002C59.1683 147.741 57.9938 147.219 57.1455 146.566C56.5583 146.044 56.493 145.653 56.5583 145.131C56.9498 143.173 57.7328 141.411 58.9073 139.845C60.1471 138.214 61.5826 136.843 63.1487 135.864C64.8452 134.755 66.5417 133.711 68.173 132.863C69.9348 131.884 71.5008 130.97 72.8058 129.991C74.4371 128.817 75.4159 127.446 75.7421 126.011L75.8074 125.554C76.1989 123.596 75.7421 121.834 74.5024 120.399C73.3931 119.093 72.2186 118.376 70.9788 118.115C68.6298 117.658 67.0637 118.441 66.2155 119.093C65.1062 119.942 64.2579 121.051 63.7359 122.421C63.2792 123.4 62.8224 124.444 62.3004 125.423C61.9089 126.141 61.4521 126.663 60.7344 127.12C60.1471 127.446 59.3641 127.577 58.3853 127.381C57.015 127.12 56.0363 126.598 55.5143 125.945C54.9923 125.228 54.8617 124.379 55.0575 123.335C55.7753 119.746 57.7981 116.94 61.4521 114.917C65.1714 112.829 68.956 112.176 73.0668 112.959C77.5692 113.808 80.7665 115.635 82.6588 118.31C84.551 121.051 85.1383 124.118 84.4205 127.773C84.0943 129.469 83.507 130.84 82.6588 131.884C81.8105 132.928 80.8317 133.776 79.7225 134.298C78.4174 134.951 77.1124 135.538 75.8074 136.125C74.2414 136.778 72.8058 137.757 71.5008 138.997C70.0653 140.302 69.0865 141.999 68.4992 143.956V144.021L67.912 147.023C67.8467 147.219 67.3247 147.611 66.085 147.872C64.3884 148.394 62.5614 148.394 60.6691 148.002Z" fill="#F4F4F5"/>
<path d="M280.696 264.681C215.967 261.614 -39.818 263.246 28.8263 266.574C48.5974 267.748 123.18 268.075 180.274 267.944C251.659 267.683 304.708 266.052 280.696 264.681Z" fill="#E0E0E0"/>
</svg>
