<svg width="320" height="320" viewBox="0 0 320 320" fill="none" xmlns="http://www.w3.org/2000/svg">
<path d="M240.24 97.4939C213.487 80.2009 156.849 57.6221 94.4691 76.9381C57.6674 90.4462 20.2133 130.905 17.0812 161.054C13.3619 197.467 26.9341 212.28 44.1604 228.921C61.3868 245.561 119.134 283.41 242.524 242.755C272.735 232.836 366.828 168.232 240.24 97.4939Z" fill="#FAFBFB"/>
<path d="M103.409 219.979V225.657C126.246 226.831 155.218 227.288 178.904 224.286L178.578 219.979V209.277C154.305 210.452 125.92 211.366 103.409 211.888V219.979Z" fill="#B4B2B2"/>
<path d="M181.058 131.753C179.687 129.078 178.513 127.446 178.513 127.446C178.513 127.446 173.554 125.88 173.488 125.88C172.705 125.554 169.443 124.379 168.529 124.249C149.019 120.855 127.16 121.834 106.149 126.924C106.149 126.924 104.061 125.88 99.7546 135.473C120.504 131.362 151.825 127.25 181.058 131.753Z" fill="#B4B2B2"/>
<path d="M134.011 251.174C122.788 250.717 112.413 249.281 103.409 247.519V251.043C103.409 251.043 115.872 258.287 142.168 258.939C168.464 259.592 180.731 251.043 180.731 251.043L180.405 246.736C164.092 250.717 148.301 251.761 134.011 251.174Z" fill="#B4B2B2"/>
<path d="M112.218 231.66C109.151 231.53 106.214 231.399 103.343 231.269V241.84C123.441 246.017 150.846 248.366 180.014 241.123L179.231 229.898C158.154 232.509 133.424 232.509 112.218 231.66Z" fill="#B4B2B2"/>
<path d="M185.69 149.046C185.756 147.872 185.756 146.762 185.625 145.783C185.299 142.977 184.581 140.302 183.733 137.887C152.804 132.341 118.09 137.431 97.1445 141.868C95.9699 145.131 95.4479 148.981 95.4479 153.092C120.765 149.112 157.502 145.066 185.69 149.046Z" fill="#B4B2B2"/>
<path d="M95.7743 158.704C96.1658 162.88 96.8836 167.122 97.7971 171.102C121.614 168.101 153.978 165.229 181.319 167.448C182.624 163.663 184.124 158.965 184.973 154.527C157.567 150.677 120.766 154.788 95.7743 158.704Z" fill="#B4B2B2"/>
<path d="M99.1021 176.65C100.538 182.066 101.973 186.438 102.821 188.722C126.247 186.438 155.283 184.154 178.578 184.285V174.692C178.578 174.692 178.839 174.039 179.296 172.93C153.195 171.038 122.201 173.778 99.1021 176.65Z" fill="#B4B2B2"/>
<path d="M103.409 194.334V206.341C125.985 205.754 154.435 204.84 178.578 203.666V189.831C155.675 189.766 126.769 192.05 103.409 194.334Z" fill="#B4B2B2"/>
<path d="M183.733 137.821C182.885 135.472 181.906 133.384 181.058 131.687C151.825 127.185 120.505 131.296 99.7547 135.472C98.9717 137.234 98.1234 139.322 97.2099 141.802C118.09 137.43 152.804 132.275 183.733 137.821Z" fill="#8F8F8F"/>
<path d="M184.973 154.527C185.364 152.635 185.625 150.743 185.69 149.046C157.502 145.13 120.765 149.111 95.4479 153.027C95.4479 154.854 95.5784 156.811 95.7089 158.704C120.765 154.788 157.567 150.677 184.973 154.527Z" fill="#8F8F8F"/>
<path d="M97.7318 171.168C98.1233 173.06 98.58 174.953 99.0368 176.714C122.136 173.843 153.13 171.102 179.23 172.995C179.753 171.69 180.47 169.797 181.253 167.579C153.978 165.295 121.614 168.101 97.7318 171.168Z" fill="#8F8F8F"/>
<path d="M102.756 188.722C103.148 189.766 103.343 190.354 103.343 190.354V194.269C126.703 191.985 155.675 189.701 178.513 189.831V184.285C155.283 184.154 126.247 186.438 102.756 188.722Z" fill="#8F8F8F"/>
<path d="M103.409 211.888C125.92 211.301 154.37 210.453 178.578 209.278V203.666C154.37 204.841 125.985 205.754 103.409 206.342V211.888Z" fill="#8F8F8F"/>
<path d="M103.409 225.658V231.27C106.28 231.401 109.216 231.531 112.283 231.662C133.424 232.51 158.154 232.445 179.296 229.835L178.904 224.223C155.153 227.29 126.181 226.833 103.409 225.658Z" fill="#8F8F8F"/>
<path d="M103.409 241.842V247.519C112.413 249.346 122.788 250.717 134.011 251.173C148.301 251.761 164.092 250.651 180.405 246.736L180.014 241.059C150.911 248.367 123.506 246.018 103.409 241.842Z" fill="#8F8F8F"/>
<g opacity="0.3">
<path opacity="0.3" d="M103.409 211.235L109.738 218.544H115.937V226.571L180.405 241.449L179.23 227.028L119.265 214.433H109.085L104.192 210.518L103.409 211.235Z" fill="black"/>
</g>
<path d="M122.331 204.71L116.981 203.731C116.981 203.731 104.257 189.766 101.843 189.57C99.885 189.374 89.0533 189.505 85.2687 189.57C84.551 189.57 83.9637 190.158 83.9637 190.875C83.9637 191.593 84.551 192.18 85.2035 192.18L97.9927 192.703L98.058 193.747L85.2035 193.942C83.8985 194.073 83.0502 196.096 87.2263 196.487L97.9275 196.879V197.532L87.0305 199.032C86.5085 199.098 85.0077 199.359 85.0077 199.946C85.0077 199.946 84.3552 201.316 87.422 201.708C88.466 201.838 97.9275 201.512 97.9275 201.512L97.536 202.361L87.7483 204.449C87.0305 204.579 86.5738 205.297 86.639 206.015C86.7695 206.733 87.422 207.255 88.1398 207.189L98.58 206.211L108.824 214.368H122.527L122.331 204.71Z" fill="#A96050"/>
<path d="M177.208 205.82L119.265 203.928V223.962L184.059 231.466C200.829 231.466 207.419 223.113 204.809 206.538L195.152 205.624L177.208 205.82Z" fill="#8F8F8F"/>
<g opacity="0.3">
<g opacity="0.3">
<path opacity="0.3" d="M113.914 200.404C121.026 189.832 143.016 151.396 150.716 142.978C154.37 138.997 156.132 134.56 157.567 129.535L144.191 143.892L108.824 195.64L113.914 200.404Z" fill="black"/>
</g>
</g>
<path d="M131.01 124.641C129.248 125.359 125.92 128.687 126.247 130.58C127.291 136.453 139.558 138.672 149.606 135.539C159.655 132.342 158.35 126.795 155.805 124.511C153.13 122.096 147.453 118.246 131.01 124.641Z" fill="#6C6C6C"/>
<path d="M149.867 107.936L151.172 130.188C151.172 130.188 146.148 134.822 130.945 130.384C130.945 130.384 132.641 112.634 123.18 103.368C123.18 103.368 124.68 102.976 127.16 102.52C127.16 102.52 133.424 114.005 149.867 107.936Z" fill="#884638"/>
<path d="M148.693 68.1937C148.693 68.1937 153.717 61.7333 147.714 61.3418C147.714 61.3418 148.628 54.6203 145.691 54.2288C142.755 53.8372 140.537 56.9696 138.449 54.6856C136.36 52.4016 132.054 48.8777 127.291 54.3593C122.462 59.8409 117.699 53.772 115.676 56.578C113.718 59.3841 116.067 62.5816 112.087 64.0173C108.172 65.5182 104.583 67.2801 106.41 71.1303C108.237 74.9804 103.865 76.2856 104.257 78.8306C104.648 81.3756 106.671 81.6366 107.324 83.7248C107.976 85.813 105.17 87.3792 106.997 90.3158C108.824 93.2523 111.761 92.0777 112.022 94.4269C112.283 96.7762 111.435 102.258 114.501 102.323C117.568 102.388 119.852 107.217 123.049 105.716C126.377 104.15 148.693 68.1937 148.693 68.1937Z" fill="#0E3944"/>
<path d="M116.524 94.1007C120.439 114.591 151.434 116.614 154.631 105.716C155.675 102.193 155.414 93.1871 154.696 87.1182C154.566 85.7478 154.305 84.3775 154.044 82.9418C152.347 73.6101 148.562 64.8004 142.755 63.9521C122.723 61.1461 111.696 69.0421 116.524 94.1007Z" fill="#A96050"/>
<path d="M122.397 93.1214C122.397 93.1214 120.244 85.8779 123.767 80.5921C127.225 75.3064 121.94 69.9553 121.94 69.9553C121.94 69.9553 139.101 62.8423 148.693 68.1934C148.693 68.1934 152.217 56.3819 134.273 55.9904C116.328 55.6641 91.7941 75.1758 123.18 105.651L116.524 94.1003L122.397 93.1214Z" fill="#0E3944"/>
<path d="M121.614 92.3384C121.614 92.3384 116.524 88.4883 113.392 92.2079C110.26 95.9275 118.482 103.302 122.462 102.062C126.508 100.822 121.614 92.3384 121.614 92.3384Z" fill="#A96050"/>
<path d="M204.939 208.365C204.939 208.365 200.763 140.237 178.708 127.316C178.317 127.055 177.208 126.99 176.816 126.859C176.816 126.859 181.514 135.408 181.514 147.089C181.514 158.77 178.121 172.8 178.121 172.8L181.057 207.256L204.939 208.365Z" fill="#8F8F8F"/>
<path d="M129.639 136.451C129.639 136.451 132.249 130.708 134.011 127.446C136.099 123.465 137.143 120.202 136.882 118.636C136.556 117.004 135.251 110.153 135.251 110.153C135.251 110.153 138.514 108.717 139.688 112.502C140.863 116.287 140.602 117.331 140.602 117.331C140.602 117.331 153.065 105.063 154.174 105.585C156.066 106.498 153.326 109.63 153.326 109.63L146.083 119.093L150.716 116.613C151.825 116.026 153.26 116.417 153.848 117.527C154.37 118.44 154.174 119.615 153.456 120.333L150.977 123.4L152.347 122.551C153.326 121.899 154.696 122.16 155.414 123.073C156.001 123.856 156.066 124.901 155.544 125.684L153.391 129.012L154.5 128.098C155.218 127.511 156.262 127.641 156.849 128.359C157.306 128.946 157.306 129.86 156.784 130.447L143.277 146.044L129.639 136.451Z" fill="#A96050"/>
<path d="M143.277 146.044C143.277 146.044 143.212 145.979 143.016 145.914C142.82 145.783 142.624 145.653 142.298 145.457C141.646 145 140.797 144.413 139.623 143.63C137.274 141.998 133.815 139.584 129.509 136.582L129.444 136.517L129.509 136.452C130.292 134.755 131.14 132.993 132.054 131.101C132.51 130.122 132.967 129.143 133.489 128.164C134.011 127.185 134.533 126.141 134.99 125.097C135.447 124.053 135.903 122.944 136.295 121.769C136.621 120.594 136.947 119.354 136.556 118.115C136.099 115.57 135.577 112.959 135.055 110.218V110.088L135.186 110.023C136.034 109.696 136.947 109.631 137.861 109.957C138.318 110.153 138.644 110.414 138.97 110.741C139.231 111.132 139.492 111.524 139.688 111.915C140.014 112.763 140.275 113.612 140.471 114.525C140.601 114.982 140.667 115.439 140.732 115.896C140.797 116.353 140.863 116.809 140.797 117.331L140.536 117.136C142.429 115.243 144.451 113.351 146.539 111.393C147.583 110.414 148.627 109.435 149.737 108.522C150.846 107.608 151.955 106.629 153.13 105.781C153.325 105.651 153.456 105.585 153.652 105.455C153.717 105.389 153.847 105.389 153.978 105.324C154.043 105.324 154.108 105.324 154.174 105.324C154.304 105.324 154.304 105.389 154.37 105.389C154.761 105.585 155.022 105.977 155.087 106.434C155.153 107.282 154.696 108 154.304 108.652C153.913 109.305 153.391 109.892 152.934 110.479C152.477 111.067 152.02 111.654 151.564 112.241C149.737 114.591 148.04 116.875 146.278 119.159L146.083 118.898C146.996 118.441 147.91 117.919 148.823 117.462C149.28 117.201 149.737 117.005 150.193 116.744C150.389 116.614 150.65 116.483 150.846 116.418C151.107 116.287 151.368 116.222 151.629 116.157C152.673 115.961 153.782 116.614 154.239 117.527C154.696 118.441 154.5 119.681 153.717 120.399C152.869 121.443 152.086 122.487 151.237 123.466L151.042 123.27C151.498 123.009 151.955 122.683 152.347 122.421C152.803 122.095 153.391 121.965 153.913 122.03C155.022 122.095 155.936 123.009 156.131 124.053C156.197 124.575 156.131 125.097 155.936 125.554C155.675 126.011 155.414 126.402 155.153 126.794C154.631 127.577 154.174 128.36 153.652 129.143L153.456 128.947C153.847 128.621 154.239 128.295 154.696 127.968C155.153 127.642 155.74 127.577 156.262 127.707C156.784 127.838 157.175 128.229 157.371 128.751C157.567 129.208 157.567 129.795 157.306 130.252C157.175 130.448 157.045 130.644 156.849 130.84C156.719 131.035 156.523 131.166 156.392 131.362C156.066 131.688 155.805 132.014 155.479 132.406C154.892 133.058 154.304 133.711 153.782 134.363C151.564 136.843 149.671 138.997 148.171 140.759C146.605 142.521 145.43 143.891 144.582 144.805C144.19 145.261 143.864 145.588 143.668 145.849C143.342 145.914 143.277 146.044 143.277 146.044C143.277 146.044 143.407 145.914 143.603 145.653C143.799 145.392 144.125 145.066 144.517 144.543C145.365 143.565 146.539 142.194 148.04 140.432C149.541 138.67 151.433 136.517 153.586 134.037C154.108 133.385 154.696 132.797 155.283 132.079C155.544 131.753 155.87 131.427 156.131 131.101C156.262 130.905 156.458 130.774 156.588 130.579C156.719 130.383 156.914 130.252 156.98 130.057C157.175 129.665 157.175 129.208 157.045 128.751C156.849 128.36 156.523 128.034 156.066 127.903C155.609 127.773 155.153 127.838 154.761 128.099C154.369 128.425 153.978 128.751 153.586 129.078L152.999 129.6L153.456 128.947C153.913 128.164 154.435 127.381 154.957 126.598C155.218 126.206 155.479 125.815 155.675 125.423C155.87 125.032 155.936 124.575 155.87 124.118C155.74 123.205 154.892 122.421 153.913 122.356C153.456 122.291 152.934 122.421 152.542 122.682C152.086 122.944 151.694 123.27 151.237 123.531L150.454 123.988L151.042 123.27C151.825 122.291 152.673 121.247 153.521 120.203C154.174 119.55 154.369 118.506 153.978 117.723C153.586 116.875 152.608 116.353 151.694 116.483C151.237 116.548 150.846 116.809 150.389 117.005C149.932 117.266 149.476 117.462 149.019 117.723C148.105 118.18 147.192 118.702 146.278 119.159L145.626 119.485L146.083 118.898C147.779 116.679 149.541 114.33 151.368 111.98C151.825 111.393 152.281 110.806 152.738 110.218C153.195 109.631 153.652 109.044 154.043 108.457C154.435 107.869 154.826 107.151 154.761 106.434C154.761 106.107 154.565 105.781 154.239 105.651C154.174 105.585 154.043 105.651 153.847 105.716C153.717 105.781 153.521 105.912 153.391 105.977C152.216 106.76 151.107 107.739 149.998 108.718C148.888 109.696 147.844 110.61 146.8 111.589C144.712 113.481 142.69 115.439 140.797 117.331L140.471 117.658L140.536 117.136C140.601 116.744 140.536 116.287 140.471 115.831C140.406 115.374 140.34 114.917 140.21 114.525C140.014 113.677 139.753 112.763 139.427 111.98C139.296 111.589 139.035 111.197 138.774 110.871C138.513 110.545 138.187 110.284 137.796 110.153C137.013 109.827 136.164 109.892 135.381 110.218L135.447 110.023C135.969 112.763 136.425 115.374 136.882 117.919C136.947 118.245 137.013 118.571 137.013 118.898C137.013 119.224 137.013 119.55 136.947 119.876C136.882 120.529 136.686 121.116 136.556 121.704C136.23 122.878 135.708 123.988 135.251 125.097C134.794 126.141 134.207 127.185 133.685 128.164C133.163 129.143 132.706 130.122 132.249 131.101C131.336 132.993 130.488 134.755 129.705 136.452L129.639 136.321C133.881 139.323 137.274 141.737 139.623 143.434C140.797 144.282 141.711 144.935 142.298 145.327C142.624 145.522 142.82 145.718 143.016 145.849C143.212 145.979 143.277 146.044 143.277 146.044Z" fill="#884638"/>
<path d="M145.104 145.131L107.193 203.079C100.472 212.019 83.2458 217.696 78.4172 214.303C73.5234 210.909 71.5006 205.624 72.8056 196.357L129.835 134.689L145.104 145.131Z" fill="#8F8F8F"/>
<path d="M109.346 151.004C112.283 139.518 110.456 128.621 106.149 126.924C106.149 126.924 93.6208 130.317 87.5524 146.631C81.4841 162.946 72.7404 196.357 72.7404 196.357L97.9926 198.38L103.408 190.353L108.498 154.984L109.346 151.004Z" fill="#8F8F8F"/>
<path d="M188.626 135.931C186.538 136.062 184.777 135.605 183.211 134.691C181.971 133.908 181.318 132.799 181.253 131.298C181.123 129.405 181.645 128.035 182.884 126.926C184.32 125.686 185.951 125.033 187.974 124.903C190.062 124.772 191.824 125.229 193.325 126.338C194.695 127.252 195.347 128.622 195.543 130.515C195.608 132.016 195.086 133.125 193.912 134.039C192.476 135.213 190.78 135.801 188.626 135.931ZM185.886 114.396C184.059 114.527 182.558 114.266 181.449 113.679C180.601 113.287 180.405 112.765 180.34 112.112C180.209 109.698 180.601 107.349 181.579 105.13C182.558 102.846 183.798 100.823 185.299 99.1263C186.93 97.2991 188.626 95.6025 190.258 94.0363C192.02 92.3396 193.52 90.7735 194.76 89.2726C196.326 87.3801 197.044 85.4877 196.979 83.7257L196.913 83.1384C196.783 80.7239 195.739 78.701 193.912 77.3958C192.215 76.156 190.715 75.6339 189.214 75.6992C186.343 75.8297 184.777 77.2001 183.994 78.3094C183.015 79.6146 182.362 81.246 182.036 83.0079C181.84 84.313 181.579 85.6834 181.253 86.9886C181.057 87.9674 180.601 88.7505 179.948 89.4683C179.361 90.0556 178.513 90.3819 177.338 90.4472C175.641 90.5124 174.402 90.2514 173.619 89.5336C172.836 88.8158 172.444 87.9022 172.379 86.5318C172.118 82.0291 173.749 78.1137 177.273 74.6551C180.927 71.0659 185.103 69.1735 190.127 68.9125C195.543 68.5862 199.784 69.8261 202.721 72.5016C205.657 75.1771 207.223 78.701 207.484 83.2037C207.615 85.2919 207.354 87.1191 206.636 88.62C205.918 90.1209 205.07 91.426 203.961 92.3396C202.655 93.5142 201.35 94.6236 199.98 95.6677C198.414 96.9076 196.979 98.4738 195.804 100.366C194.564 102.389 193.847 104.673 193.781 107.153V107.283L193.977 111.003C193.977 111.264 193.52 111.851 192.15 112.569C190.323 113.744 188.17 114.266 185.886 114.396Z" fill="#E0E0E0"/>
<path d="M219.621 189.376C218.12 189.115 216.946 188.462 216.032 187.548C215.249 186.765 215.053 185.917 215.249 184.873C215.51 183.568 216.097 182.654 217.141 182.132C218.381 181.545 219.621 181.349 221.122 181.675C222.622 181.936 223.797 182.589 224.71 183.568C225.494 184.481 225.755 185.46 225.559 186.831C225.363 187.875 224.776 188.527 223.797 188.984C222.492 189.571 221.122 189.702 219.621 189.376ZM221.317 174.106C220.012 173.845 219.034 173.453 218.251 172.866C217.729 172.409 217.663 172.083 217.729 171.626C218.055 169.929 218.773 168.428 219.817 167.058C220.926 165.622 222.166 164.448 223.471 163.599C224.972 162.62 226.407 161.772 227.843 160.989C229.409 160.141 230.714 159.292 231.823 158.509C233.258 157.465 234.107 156.356 234.368 155.051L234.433 154.659C234.759 152.962 234.368 151.396 233.258 150.222C232.28 149.112 231.301 148.46 230.192 148.264C228.169 147.872 226.799 148.525 226.016 149.112C225.102 149.83 224.319 150.809 223.862 152.049C223.471 152.897 223.079 153.811 222.622 154.659C222.296 155.246 221.839 155.768 221.252 156.095C220.73 156.421 220.078 156.486 219.229 156.29C217.99 156.029 217.207 155.638 216.75 154.985C216.293 154.398 216.228 153.615 216.358 152.701C216.946 149.569 218.773 147.155 221.905 145.393C225.102 143.565 228.43 142.978 232.019 143.696C235.934 144.414 238.739 145.98 240.306 148.329C241.937 150.678 242.459 153.419 241.806 156.551C241.545 158.052 241.023 159.227 240.306 160.141C239.523 161.054 238.674 161.772 237.761 162.229C236.651 162.816 235.477 163.338 234.368 163.795C232.997 164.382 231.758 165.231 230.648 166.275C229.409 167.449 228.56 168.885 228.038 170.582V170.647L227.516 173.257C227.516 173.388 227.06 173.779 225.95 173.975C224.645 174.432 223.014 174.432 221.317 174.106Z" fill="#F4F4F5"/>
<path d="M259.946 152.049C258.837 152.049 257.989 151.853 257.206 151.331C256.553 150.94 256.292 150.352 256.292 149.635C256.292 148.656 256.553 148.003 257.206 147.481C257.923 146.894 258.837 146.567 259.816 146.567C260.86 146.567 261.773 146.763 262.556 147.351C263.209 147.807 263.6 148.525 263.6 149.439C263.6 150.222 263.339 150.744 262.687 151.201C261.904 151.788 261.056 152.049 259.946 152.049ZM258.902 141.347C257.989 141.347 257.206 141.216 256.618 140.955C256.162 140.76 256.096 140.499 256.096 140.172C256.096 138.998 256.292 137.823 256.814 136.714C257.336 135.604 258.054 134.626 258.837 133.777C259.685 132.864 260.599 132.08 261.447 131.297C262.361 130.514 263.209 129.731 263.796 129.013C264.644 128.1 265.036 127.186 265.036 126.273V125.946C265.036 124.706 264.514 123.728 263.6 123.075C262.752 122.423 261.969 122.161 261.251 122.161C259.816 122.227 258.967 122.814 258.511 123.401C257.989 124.054 257.597 124.837 257.467 125.685C257.336 126.338 257.206 126.99 257.01 127.643C256.879 128.1 256.684 128.491 256.292 128.818C255.966 129.079 255.574 129.274 254.922 129.274C254.074 129.274 253.421 129.144 253.03 128.752C252.638 128.426 252.442 127.904 252.442 127.251C252.377 125.033 253.291 123.075 255.118 121.444C257.075 119.682 259.228 118.833 261.773 118.768C264.579 118.703 266.667 119.355 268.168 120.726C269.669 122.096 270.386 123.858 270.452 126.142C270.452 127.186 270.321 128.1 269.93 128.818C269.538 129.535 269.081 130.188 268.494 130.645C267.842 131.167 267.124 131.754 266.406 132.211C265.558 132.798 264.84 133.581 264.188 134.495C263.535 135.474 263.144 136.583 263.078 137.823V137.888L263.144 139.716C263.144 139.846 262.883 140.107 262.165 140.433C261.186 141.086 260.077 141.347 258.902 141.347Z" fill="#F4F4F5"/>
<path d="M58.6463 165.621C56.8845 165.295 55.5142 164.577 54.4702 163.533C53.6219 162.619 53.2957 161.706 53.5567 160.466C53.8177 158.965 54.5355 157.921 55.7752 157.334C57.1455 156.616 58.6463 156.485 60.3428 156.812C62.0393 157.138 63.4096 157.856 64.4536 159.03C65.3672 160.074 65.6934 161.249 65.4324 162.815C65.1714 164.055 64.5841 164.773 63.4096 165.295C61.9088 165.817 60.4081 165.947 58.6463 165.621ZM60.6691 148.002C59.1683 147.741 57.9938 147.219 57.1455 146.566C56.5582 146.044 56.493 145.653 56.5583 145.131C56.9498 143.173 57.7328 141.411 58.9073 139.845C60.1471 138.213 61.5826 136.843 63.1486 135.864C64.8452 134.755 66.5417 133.711 68.173 132.862C69.9347 131.883 71.5008 130.97 72.8058 129.991C74.4371 128.816 75.4158 127.446 75.7421 126.01L75.8074 125.554C76.1989 123.596 75.7421 121.834 74.5023 120.398C73.3931 119.093 72.2185 118.375 70.9788 118.114C68.6297 117.658 67.0637 118.441 66.2154 119.093C65.1062 119.941 64.2579 121.051 63.7359 122.421C63.2791 123.4 62.8224 124.444 62.3004 125.423C61.9088 126.141 61.4521 126.663 60.7343 127.12C60.1471 127.446 59.364 127.577 58.3853 127.381C57.015 127.12 56.0362 126.598 55.5142 125.945C54.9922 125.227 54.8617 124.379 55.0575 123.335C55.7752 119.746 57.798 116.94 61.4521 114.917C65.1714 112.829 68.956 112.176 73.0668 112.959C77.5691 113.807 80.7664 115.635 82.6587 118.31C84.551 121.051 85.1383 124.118 84.4205 127.772C84.0943 129.469 83.507 130.839 82.6587 131.883C81.8105 132.928 80.8317 133.776 79.7224 134.298C78.4174 134.951 77.1124 135.538 75.8074 136.125C74.2413 136.778 72.8058 137.757 71.5008 138.996C70.0652 140.302 69.0865 141.998 68.4992 143.956V144.021L67.912 147.023C67.8467 147.219 67.3247 147.61 66.0849 147.871C64.3884 148.393 62.5614 148.393 60.6691 148.002Z" fill="#F4F4F5"/>
<path d="M280.696 264.682C215.967 261.614 -39.818 263.246 28.8263 266.574C48.5974 267.749 123.18 268.075 180.274 267.944C251.659 267.683 304.708 266.052 280.696 264.682Z" fill="#E0E0E0"/>
</svg>
