<svg width="320" height="320" viewBox="0 0 320 320" fill="none" xmlns="http://www.w3.org/2000/svg">
<path d="M298.911 290.831C298.911 296.384 187.322 293.553 121.427 300.849C60.0696 307.6 17.508 295.295 17.508 289.742C17.508 284.189 42.5696 278.854 108.789 278.854C175.007 278.854 298.911 285.387 298.911 290.831Z" fill="#E0E0E0"/>
<path d="M284.545 213.957C333.156 142.963 280.98 62.1691 212.276 32.9874C179.437 19.0499 138.604 17.3077 103.28 28.4142C86.536 27.9786 69.7922 32.2252 54.9929 42.5694C20.8572 66.7423 9.51468 109.099 18.2647 144.379C26.7986 178.787 52.1843 207.206 78.4342 230.944C104.468 254.463 139.576 268.836 177.925 266.005C216.597 263.065 262.508 246.079 284.545 213.957Z" fill="#F7F7F7"/>
<path d="M158.156 67.1785C129.746 52.0433 94.3138 52.1522 65.1473 70.554C21.3974 98.1024 8.21844 156.139 35.5486 200.238C62.8788 244.228 120.456 257.622 164.098 230.073C207.739 202.525 221.026 144.488 193.696 100.498C187.863 91.1336 180.625 83.076 172.415 76.6517L158.156 67.1785Z" fill="#EBEBEB"/>
<path d="M158.156 67.1779C152.863 64.4557 147.354 62.1691 141.736 60.4269C136.011 58.7936 130.178 57.5959 124.345 56.9426C118.403 56.3981 112.462 56.2892 106.629 56.8337C105.116 56.9426 103.712 57.1603 102.2 57.3781L100.039 57.7048L97.8786 58.1403C96.4743 58.467 94.962 58.6847 93.5576 59.0114L89.2367 60.1003C87.8323 60.4269 86.428 60.9714 85.0237 61.4069C83.6194 61.8425 82.2151 62.278 80.8108 62.9313L76.7058 64.6735C75.4095 65.3268 74.0052 65.9802 72.7089 66.6335L70.7645 67.6135L68.8201 68.7023C67.5238 69.4645 66.2275 70.2267 65.0392 70.989L61.3664 73.4934L57.5855 75.9977C48.1874 83.2932 40.3016 92.4397 34.2523 102.784C28.3109 113.128 24.314 124.561 22.4776 136.321C20.7492 148.081 21.1813 160.276 23.8819 171.818C26.5825 183.469 31.5517 194.467 38.3572 204.266C45.1627 214.066 53.8047 222.45 63.7429 228.875C73.7892 235.299 84.9157 239.872 96.4743 242.159C108.033 244.446 120.132 244.554 131.69 242.377C154.915 238.021 176.412 224.41 190.131 205.029C197.045 195.338 202.122 184.34 204.931 172.689C207.739 161.147 208.388 148.952 206.767 137.192C203.526 113.564 190.996 91.2419 172.307 76.4333L158.156 67.1779ZM158.156 67.1779L172.523 76.5422C191.212 91.2419 203.85 113.564 207.199 137.301C208.82 149.17 208.279 161.365 205.363 172.907C202.554 184.558 197.477 195.664 190.563 205.355C176.736 224.955 155.24 238.675 131.906 243.03C120.24 245.208 108.141 245.208 96.4743 242.812C84.8077 240.526 73.5731 235.952 63.6349 229.419C53.6967 222.886 44.9467 214.393 38.1412 204.593C31.3356 194.793 26.3665 183.687 23.6659 171.927C20.8573 160.276 20.4252 148.081 22.1535 136.212C23.99 124.343 27.9869 112.91 34.0362 102.566C40.0856 92.2219 48.0794 83.0754 57.4775 75.78L61.0423 73.1667L64.7151 70.6623C66.0114 69.9001 67.3077 69.1379 68.604 68.3757L70.5485 67.2868L72.4929 66.3068C73.7892 65.6535 75.1935 65.0002 76.4898 64.3469L80.5947 62.6047C81.999 61.9514 83.4033 61.5158 84.8077 61.0803C86.212 60.6447 87.6163 60.1003 89.0206 59.7736L93.3416 58.6847C94.7459 58.3581 96.2582 58.1403 97.6626 57.8137L99.823 57.3781L101.984 57.0514C103.496 56.8337 104.9 56.6159 106.413 56.507C112.354 55.9626 118.295 56.1804 124.129 56.7248C130.07 57.3781 135.795 58.5759 141.52 60.318C147.354 62.0602 152.863 64.4557 158.156 67.1779Z" fill="#A42A29"/>
<path d="M203.634 124.452C202.23 113.672 200.717 123.254 199.637 122.601C197.261 121.403 192.94 118.79 188.511 113.781C187.97 113.128 187.322 112.475 186.674 111.712C186.566 111.712 186.458 111.712 186.35 111.604C186.026 112.257 185.594 113.019 185.162 113.672C187.646 116.612 190.131 119.879 190.131 119.879C187.754 118.463 185.702 116.939 183.974 115.523C183.541 116.286 183.001 116.939 182.677 117.701C182.677 117.81 182.569 117.81 182.569 117.919C186.89 122.057 186.998 123.146 186.998 123.146C186.242 123.581 183.758 122.274 181.273 120.859C180.949 121.621 180.733 122.274 180.409 123.037C183.109 124.561 185.702 126.085 185.918 127.719C185.918 127.719 182.893 127.719 179.869 126.739C179.437 126.63 179.112 126.521 178.788 126.412C178.572 126.957 178.464 127.61 178.248 128.154C181.057 130.005 187.214 134.47 186.89 137.192C186.35 141.656 189.807 144.596 193.264 142.418C194.02 141.983 196.18 144.161 200.933 134.796C201.69 133.272 204.174 129.243 203.634 124.452Z" fill="#B86658"/>
<path d="M114.839 244.119C118.512 244.337 122.184 244.446 125.857 244.01C135.039 242.921 143.465 239.763 151.783 235.844C156.752 233.557 162.585 231.815 167.447 228.984C164.854 213.631 161.289 198.931 156.32 187.28L123.049 188.042C123.913 205.682 112.678 224.41 114.839 244.119Z" fill="#A55A51"/>
<path d="M84.0519 238.892C92.1537 241.07 96.4747 242.268 101.66 242.812C109.87 243.574 114.947 244.119 125.965 244.01C131.799 243.901 137.416 241.832 142.817 239.763C152.431 218.422 156.428 187.28 156.428 187.28L106.521 189.567C106.521 189.567 85.5642 207.097 84.0519 238.892C83.9439 238.892 83.9439 238.892 84.0519 238.892Z" fill="#B86658"/>
<path d="M125.857 243.901C135.039 242.812 145.841 240.417 154.159 236.606C159.992 233.884 164.637 231.161 170.039 227.241C168.742 220.055 167.338 213.413 165.826 207.424C159.236 180.311 152.215 166.483 152.215 166.483H150.486L127.693 167.027C127.693 167.027 123.264 214.284 123.372 244.01C124.236 244.119 125.1 244.01 125.857 243.901Z" fill="#8B383F"/>
<path d="M101.553 242.812C109.654 243.792 117.648 244.881 125.858 244.01C132.232 243.248 138.281 241.506 144.114 239.219C158.481 198.386 139.685 166.156 139.685 166.156L108.034 169.096L98.4199 169.967C91.6144 188.042 87.0774 205.355 84.2687 221.362C83.2965 227.024 82.5404 233.23 81.8922 238.566C82.7564 238.783 93.0187 241.832 101.553 242.812Z" fill="#8B383F"/>
<path d="M114.082 170.947C114.082 170.947 104.9 211.78 84.3752 221.253C87.1838 205.247 91.6128 187.934 98.5264 169.858L108.141 168.987C110.085 169.423 112.029 170.076 114.082 170.947Z" fill="#662D34"/>
<path d="M165.933 207.424C164.205 205.573 162.8 203.395 162.044 200.891C159.667 192.398 153.078 173.778 150.593 166.592H152.322C152.322 166.483 159.343 180.311 165.933 207.424Z" fill="#662D34"/>
<path d="M148.002 237.477C147.786 235.081 147.678 233.775 147.678 233.775C147.246 235.299 146.598 236.932 145.841 238.457C146.49 238.13 147.246 237.803 148.002 237.477Z" fill="#662D34"/>
<path d="M136.444 239.546C136.444 240.308 136.336 241.07 136.336 241.833C137.416 241.506 138.496 241.179 139.577 240.853C146.49 207.751 135.256 167.463 135.256 167.463L132.663 168.116C132.771 168.007 138.064 205.355 136.444 239.546Z" fill="#662D34"/>
<path d="M190.239 141.765C187.971 140.459 187.755 138.172 186.566 135.777C181.597 141.003 177.708 144.052 173.712 146.883C165.286 152.763 159.992 160.603 159.992 160.603C159.992 160.603 148.11 97.2307 132.122 92.9841L131.906 130.006C131.906 130.006 149.19 174.431 156.536 178.134C161.397 180.638 182.57 156.792 194.128 141.983C194.128 141.657 192.508 143.072 190.239 141.765Z" fill="#3A201C"/>
<path d="M98.5269 169.858C137.2 178.678 152.323 166.483 152.323 166.483C159.237 127.392 133.635 93.2019 133.635 93.2019C133.635 93.2019 133.311 93.093 132.771 92.8752C127.477 91.133 98.3108 82.0954 79.1905 94.3996C77.8942 95.1618 76.706 96.1418 75.6257 97.1218C55.1011 114.979 98.5269 169.858 98.5269 169.858Z" fill="#D95D7B"/>
<path d="M79.1915 94.5083C81.6761 95.9238 84.5927 97.3393 88.0495 98.8637C151.244 127.392 136.444 100.606 136.444 100.606C136.444 98.646 135.796 96.9038 134.716 95.2705C134.176 94.5083 133.528 93.6372 132.772 92.9839C127.586 91.2417 99.5001 82.5307 80.3798 93.7461C80.0557 93.9638 79.6236 94.2905 79.1915 94.5083Z" fill="#B86658"/>
<path d="M79.1915 94.5083C81.6761 95.9238 84.5927 97.3394 88.0495 98.8638C151.244 127.392 136.444 100.606 136.444 100.606C136.444 98.646 135.796 96.9038 134.716 95.2705C132.448 96.3594 127.694 98.5371 126.182 98.8638L125.21 102.784L119.809 99.2993C119.809 99.2993 100.796 99.8438 80.4878 93.7461C80.0557 93.9639 79.6236 94.2905 79.1915 94.5083Z" fill="#3A201C"/>
<path d="M138.389 145.903C138.389 145.903 138.389 145.903 128.883 148.843C119.268 151.783 120.349 153.198 118.512 158.207C116.784 162.998 125.102 167.136 128.991 167.898C132.231 168.551 138.173 174.758 140.981 174.54C142.17 174.431 141.521 173.669 139.469 171.927C136.984 169.967 135.472 167.245 135.472 167.245C138.713 165.938 146.815 173.996 150.055 172.036C151.676 171.056 138.821 166.156 138.713 163.978C138.713 163.978 139.793 163.325 146.274 165.285C149.947 166.374 153.836 167.462 154.7 166.591C156.213 164.849 148.111 163.978 139.793 159.623C139.793 159.623 144.006 160.058 147.895 160.711C151.46 161.365 154.7 162.345 154.808 160.711C154.916 159.405 149.407 158.534 145.842 157.88C139.361 156.683 134.824 154.287 132.555 152.872C131.475 152.218 130.935 151.783 130.935 151.783C140.333 148.081 138.389 145.903 138.389 145.903Z" fill="#B86658"/>
<path d="M73.8977 98.8638C83.836 92.3306 91.3977 112.91 90.1014 126.521C89.4532 132.619 73.8977 177.045 73.8977 177.045L120.564 152.872C120.564 152.872 121.969 161.256 119.7 162.998C112.895 168.007 98.0952 178.787 88.265 187.171C75.086 198.386 61.0428 198.495 56.1817 194.902C51.4287 191.2 59.2064 157.336 61.907 143.507C64.6076 129.57 68.1724 102.675 73.8977 98.8638Z" fill="#3A201C"/>
<path d="M133.094 78.7198C133.094 78.7198 105.98 71.0977 83.835 82.3131C83.835 82.3131 58.7733 20.6831 102.199 21.3365C145.625 22.0987 136.983 67.7222 133.094 78.7198Z" fill="#0E3944"/>
<path d="M92.1535 26.1277C92.1535 26.1277 121.644 16.1101 127.585 37.1253C133.527 58.0315 128.126 80.1355 114.298 78.72C94.746 76.6512 69.1443 37.8875 92.1535 26.1277Z" fill="#B86658"/>
<path d="M103.927 36.9073C103.927 36.9073 97.1219 45.6183 97.5539 56.8336C97.5539 56.8336 92.5848 50.736 89.9922 56.0714C87.3997 61.4069 97.77 69.1378 97.77 69.1378C97.77 69.1378 81.0262 70.1178 79.0818 48.3405C78.2176 39.0851 89.9922 30.7008 103.927 36.9073Z" fill="#0E3944"/>
<path d="M98.0951 64.4558C100.364 70.5535 109.006 81.2244 118.296 78.1755C118.296 78.1755 116.027 87.322 119.808 90.6975C119.808 90.6975 123.805 97.7752 114.623 98.7551C103.064 100.062 96.6908 90.6975 96.6908 90.6975C101.66 79.4822 94.8544 65.5447 94.8544 65.5447C97.2309 67.178 98.0951 64.4558 98.0951 64.4558Z" fill="#A55A51"/>
<path d="M111.381 30.8097C111.381 30.8097 115.81 54.4381 97.4454 56.8336C97.4454 56.8336 90.8559 45.6183 82.214 53.4581C82.214 53.4581 72.9239 27.8698 94.7448 23.7321C94.7448 23.7321 98.9577 13.9322 115.918 17.09C139.575 21.4454 146.164 50.3004 132.985 78.8288C133.093 78.7199 144.652 27.4342 111.381 30.8097Z" fill="#0E3944"/>
<path d="M209.467 265.57L130.825 287.021C125.856 288.327 120.671 285.387 119.375 280.379L118.511 277.003C117.214 271.994 120.131 266.768 125.1 265.461L203.742 244.01C208.711 242.704 213.896 245.644 215.192 250.653L216.056 254.028C217.353 259.037 214.436 264.263 209.467 265.57Z" fill="#EBEBEB"/>
<path d="M209.468 265.57L154.267 280.705L140.44 284.516L133.527 286.367C132.338 286.694 131.258 287.021 130.07 287.239C128.882 287.456 127.693 287.456 126.505 287.239C124.129 286.803 121.968 285.387 120.564 283.319C119.808 282.339 119.375 281.141 119.051 279.943C118.727 278.745 118.403 277.657 118.079 276.459C117.539 274.063 117.971 271.45 119.159 269.381C120.456 267.312 122.508 265.679 124.885 265.026L180.085 250.108L193.912 246.406L200.826 244.555C202.014 244.228 203.094 243.902 204.283 243.684C205.471 243.466 206.659 243.466 207.847 243.684C210.224 244.119 212.384 245.535 213.681 247.495C214.329 248.475 214.869 249.564 215.193 250.761C215.517 251.959 215.841 253.048 216.057 254.246C216.597 256.641 216.165 259.146 214.977 261.215C213.789 263.392 211.736 265.026 209.468 265.57ZM209.468 265.57C211.736 264.917 213.789 263.392 214.977 261.323C216.165 259.255 216.597 256.75 216.057 254.355C215.733 253.157 215.409 252.068 215.085 250.87C214.761 249.673 214.329 248.584 213.573 247.604C212.168 245.644 210.116 244.228 207.739 243.793C206.551 243.575 205.363 243.575 204.175 243.793C202.986 244.011 201.906 244.446 200.718 244.664L193.804 246.515L179.977 250.326L124.777 265.461C122.508 266.115 120.564 267.53 119.375 269.599C118.187 271.559 117.755 274.063 118.295 276.35C118.511 277.548 118.943 278.636 119.159 279.834C119.483 281.032 119.916 282.121 120.564 282.992C121.86 284.952 124.02 286.259 126.289 286.803C127.477 287.021 128.666 287.021 129.746 286.803C130.934 286.585 132.014 286.15 133.203 285.932L140.116 284.081L153.943 280.379L209.468 265.57Z" fill="#A42A29"/>
<path d="M140.549 293.01L137.632 291.812L142.278 291.921V291.267L137.632 291.485L140.549 290.287L138.605 289.961L136.768 291.376H136.66L134.608 290.07L132.879 290.505L135.796 291.703L131.259 291.594V292.247L135.796 292.03L132.879 293.227L134.716 293.554L136.552 292.138H136.66L138.605 293.445L140.549 293.01Z" fill="#A42A29"/>
<path d="M166.26 285.932L163.343 285.169H167.988V284.734L163.343 284.952L166.26 284.189L164.315 283.972L162.479 284.843H162.371L160.318 283.972L158.59 284.189L161.507 284.843H156.969V285.278L161.507 285.061L158.59 285.823L160.426 286.04L162.263 285.169H162.371L164.207 286.04L166.26 285.932Z" fill="#A42A29"/>
<path d="M178.248 287.238L175.44 286.149L180.085 286.585V286.041L175.44 285.932L178.465 285.169L176.52 284.843L174.576 285.714H174.468L172.523 284.516L170.795 284.734L173.711 285.823L169.174 285.387V285.932L173.711 286.041L170.795 286.803L172.631 287.129L174.576 286.258H174.684L176.52 287.347L178.248 287.238Z" fill="#A42A29"/>
<path d="M157.616 291.049L154.699 289.96L159.345 290.069V289.416L154.699 289.634L157.616 288.545L155.672 288.218L153.835 289.525H153.727L151.675 288.327L149.946 288.654L152.863 289.743L148.326 289.634V290.287L152.863 290.069L149.946 291.267L151.783 291.594L153.619 290.287H153.727L155.672 291.485L157.616 291.049Z" fill="#A42A29"/>
<path d="M172.632 292.029L169.715 290.94L174.361 291.049V290.505L169.715 290.722L172.632 289.634L170.688 289.307L168.851 290.505H168.743L166.691 289.307L164.962 289.634L167.879 290.614L163.342 290.505V291.049L167.879 290.831L164.962 291.92L166.799 292.247L168.635 291.049H168.743L170.688 292.247L172.632 292.029Z" fill="#A42A29"/>
<path d="M185.81 291.158L182.894 290.287L187.539 290.396V289.96L182.894 290.178L185.81 289.307L183.866 289.089L182.03 290.069H181.922L179.869 289.089L178.141 289.416L181.057 290.178L176.52 290.069V290.505L181.057 290.287L178.141 291.158L179.977 291.376L181.814 290.396H181.922L183.758 291.376L185.81 291.158Z" fill="#A42A29"/>
<path d="M209.144 257.948C206.444 247.822 202.771 234.102 202.771 234.102C205.039 231.924 212.277 223.976 223.944 220.818C235.61 217.66 247.385 220.273 247.601 221.907C250.95 229.964 253.434 241.942 253.974 245.753C258.187 261.542 239.391 278.528 239.391 278.528C239.391 278.528 213.357 273.737 209.144 257.948Z" fill="#A42A29"/>
<path d="M209.143 257.948L202.661 234.102C205.578 231.162 208.711 228.331 212.168 226.153C215.624 223.866 219.405 222.124 223.402 220.926C227.399 219.729 231.504 219.293 235.717 219.293C237.769 219.293 239.822 219.402 241.874 219.729C242.847 219.837 243.927 220.055 244.899 220.382C245.439 220.491 245.871 220.708 246.411 220.926C246.627 221.035 246.843 221.144 247.168 221.253C247.384 221.362 247.6 221.58 247.708 221.906C249.22 225.717 250.408 229.746 251.489 233.666C252.569 237.695 253.433 241.724 254.081 245.752C254.513 247.277 254.621 248.91 254.729 250.435C254.729 251.959 254.513 253.592 254.189 255.117C253.541 258.166 252.353 261.105 250.84 263.937C249.328 266.659 247.6 269.272 245.655 271.776C243.711 274.172 241.658 276.567 239.39 278.636C236.257 277.983 233.232 277.112 230.208 276.023C227.183 274.934 224.266 273.627 221.566 271.994C218.757 270.361 216.165 268.51 214.004 266.223C211.628 263.828 210.007 260.997 209.143 257.948ZM209.143 257.948C210.007 260.997 211.736 263.828 214.004 266.114C216.165 268.401 218.865 270.252 221.566 271.885C224.374 273.41 227.291 274.716 230.208 275.805C233.232 276.894 236.257 277.765 239.39 278.418H239.282C241.55 276.241 243.603 273.954 245.547 271.45C247.492 268.945 249.22 266.441 250.624 263.61C252.137 260.888 253.217 257.948 253.865 254.899C254.189 253.375 254.405 251.85 254.297 250.217C254.297 248.692 254.081 247.168 253.649 245.644C253.001 241.615 252.029 237.586 251.056 233.557C249.976 229.528 248.788 225.608 247.276 221.797C247.276 221.688 247.059 221.471 246.843 221.362C246.627 221.253 246.411 221.144 246.195 221.035C245.763 220.817 245.223 220.708 244.791 220.491C243.819 220.164 242.847 220.055 241.766 219.837C239.714 219.511 237.661 219.402 235.609 219.293C231.504 219.293 227.399 219.729 223.402 220.926C219.405 222.015 215.624 223.866 212.168 226.044C208.711 228.331 205.578 231.053 202.661 233.993L209.143 257.948Z" fill="#EBEBEB"/>
<path d="M236.798 259.581C234.962 257.839 232.801 256.532 230.424 255.879C230.316 255.879 230.316 255.879 230.208 255.77C228.912 255.552 227.724 255.443 226.428 255.226L222.539 255.77C221.242 256.206 220.054 256.75 218.866 257.403C218.542 257.512 218.326 257.73 218.002 257.839C217.894 257.948 217.786 257.948 217.678 258.057C217.462 258.166 217.246 258.274 217.029 258.492C216.813 258.601 216.705 258.71 216.489 258.928C216.273 259.037 216.165 259.254 215.949 259.363C215.733 259.581 215.625 259.69 215.409 259.908C215.301 260.017 215.193 260.125 215.085 260.234C214.113 261.105 213.465 262.085 212.817 263.174C212.168 264.263 211.628 265.352 211.412 266.659C211.412 266.768 211.304 266.985 211.304 267.094C211.196 267.312 211.196 267.639 211.088 267.856C211.088 268.074 210.98 268.292 210.98 268.619C210.98 268.836 210.872 269.054 210.872 269.272C210.872 269.49 210.872 269.816 210.872 270.034C210.872 270.143 210.872 270.361 210.872 270.47C210.872 270.579 210.872 270.579 210.872 270.687C210.872 271.232 210.98 271.885 211.088 272.43C211.088 272.974 211.196 273.627 211.304 274.172C211.304 274.281 211.304 274.281 211.304 274.39C211.304 274.499 211.412 274.499 211.412 274.607C211.736 275.696 212.168 276.894 212.817 277.874C213.465 278.963 214.221 279.943 215.085 280.814C216.489 282.121 218.002 283.209 219.73 283.863C220.162 283.972 220.486 284.189 220.918 284.298C221.134 284.407 221.242 284.407 221.458 284.516C222.647 284.843 223.835 285.061 225.131 285.061C225.455 285.061 225.779 285.061 226.104 284.952C226.752 284.952 227.292 284.843 227.94 284.734C228.048 284.734 228.048 284.734 228.156 284.734C229.452 284.734 230.749 284.407 231.937 283.754C233.233 283.427 234.313 282.774 235.286 281.794C235.934 281.467 236.474 281.032 236.906 280.487C238.634 278.636 239.931 276.458 240.579 274.063C241.227 271.559 241.227 268.945 240.579 266.441C239.931 263.61 238.634 261.432 236.798 259.581Z" fill="#EBEBEB"/>
<path d="M236.799 259.582C235.935 258.711 234.854 257.948 233.774 257.295C232.694 256.642 231.506 256.206 230.209 255.88L226.429 255.335L222.54 255.88C221.135 256.424 219.839 256.969 218.543 257.622C217.895 257.948 217.246 258.384 216.706 258.82C216.166 259.255 215.626 259.8 215.086 260.235C214.222 261.106 213.466 262.086 212.926 263.175C212.277 264.264 211.845 265.353 211.521 266.551L211.305 267.422C211.197 267.748 211.197 268.075 211.197 268.293C211.197 268.619 211.089 268.946 211.089 269.164V270.035V270.253L211.305 271.995L211.521 273.737V273.955C211.629 274.282 211.737 274.608 211.845 274.935C211.953 275.262 212.061 275.588 212.169 275.806C212.385 276.35 212.709 277.004 213.034 277.439C214.006 278.964 215.194 280.379 216.598 281.468C217.354 282.013 218.111 282.557 218.867 282.884C219.623 283.319 220.595 283.537 221.351 283.864C222.54 284.19 223.728 284.408 225.024 284.408C225.564 284.408 225.996 284.408 226.537 284.299L228.049 284.081C229.345 284.081 230.642 283.755 231.722 283.101C232.91 282.775 234.098 282.121 234.962 281.25C235.827 280.815 236.583 280.053 237.231 279.181C237.879 278.419 238.527 277.548 238.959 276.677C239.932 274.826 240.58 272.866 240.688 270.688C240.796 268.619 240.472 266.442 239.824 264.482C239.5 262.848 238.311 260.997 236.799 259.582ZM236.799 259.582C238.311 260.997 239.5 262.848 240.256 264.808C241.012 266.768 241.336 268.837 241.228 271.015C241.12 273.084 240.58 275.153 239.608 277.113C239.067 278.093 238.527 278.964 237.879 279.726C237.231 280.488 236.475 281.359 235.503 281.904C234.638 282.884 233.45 283.537 232.154 283.972C230.966 284.626 229.669 285.061 228.265 285.061L226.753 285.279C226.213 285.388 225.78 285.388 225.24 285.388C223.944 285.388 222.648 285.17 221.459 284.844C220.595 284.517 219.623 284.299 218.759 283.864C217.895 283.428 217.138 282.992 216.382 282.339C214.87 281.25 213.574 279.726 212.601 278.093C212.277 277.548 211.953 276.895 211.737 276.35C211.629 276.024 211.521 275.697 211.413 275.37C211.305 275.044 211.305 274.717 211.089 274.39V274.173L210.873 272.43L210.657 270.688V270.47V269.491C210.657 269.164 210.765 268.837 210.765 268.511C210.873 268.184 210.873 267.857 210.981 267.531L211.197 266.551C211.521 265.353 212.061 264.155 212.709 263.066C213.25 261.977 214.114 260.888 214.978 260.017C215.518 259.473 216.058 258.928 216.598 258.602C217.246 258.166 217.787 257.731 218.543 257.513C219.839 256.86 221.243 256.315 222.54 255.771L226.429 255.335L230.209 255.88C231.398 256.206 232.586 256.751 233.774 257.295C234.854 257.84 235.935 258.711 236.799 259.582Z" fill="#A42A29"/>
<path d="M231.505 261.215C229.561 263.719 224.808 271.559 223.08 273.954C222.431 273.628 221.891 273.192 221.243 272.865C220.271 272.212 219.191 271.559 218.002 271.668C217.354 271.668 217.138 272.321 217.354 272.865C217.894 273.954 218.975 274.608 219.947 275.261L223.08 277.33C223.728 277.765 224.7 277.439 225.024 276.785C226.212 274.281 231.721 264.808 232.91 262.303C233.342 261.323 232.262 260.452 231.505 261.215Z" fill="#A42A29"/>
<path d="M210.009 263.827C206.984 261.323 170.04 230.29 167.879 229.093C165.719 227.895 149.191 248.039 149.947 250.652C150.271 251.85 152.216 254.79 155.673 257.185C156.105 257.512 152.864 260.887 152.108 262.303C151.784 262.847 152.432 263.392 152.864 263.392C155.997 263.392 159.021 263.174 162.046 262.739C170.148 269.707 181.706 279.834 190.348 286.149C193.157 288.218 213.033 266.332 210.009 263.827Z" fill="#EBEBEB"/>
<path d="M210.008 263.828C202.987 258.057 196.073 252.177 189.052 246.406L178.465 237.804L173.172 233.557C171.444 232.142 169.607 230.726 167.771 229.419C167.663 229.311 167.447 229.419 167.231 229.528C167.015 229.637 166.799 229.746 166.583 229.964C166.151 230.291 165.718 230.617 165.286 231.053C164.422 231.815 163.666 232.577 162.91 233.448C161.397 235.082 159.885 236.824 158.373 238.566C156.968 240.308 155.564 242.05 154.16 243.901C152.864 245.752 151.567 247.604 150.595 249.563C150.487 249.781 150.379 250.108 150.379 250.326C150.379 250.543 150.379 250.543 150.487 250.87C150.703 251.306 151.027 251.85 151.243 252.286C151.891 253.157 152.539 254.028 153.404 254.79C153.836 255.226 154.16 255.552 154.592 255.879L155.24 256.423L155.564 256.641L155.78 256.75L155.888 256.859L155.996 256.968C156.104 257.077 156.104 257.077 156.104 257.186C156.104 257.512 156.104 257.512 155.996 257.621C155.996 257.73 155.888 257.839 155.888 257.839C155.78 257.948 155.672 258.166 155.672 258.274C155.456 258.492 155.348 258.71 155.132 259.037L154.052 260.343C153.728 260.779 153.296 261.214 152.972 261.65C152.756 261.868 152.647 262.085 152.539 262.303L152.431 262.412V262.521C152.431 262.63 152.647 262.739 152.756 262.739C152.756 262.739 152.972 262.739 153.08 262.739H153.512H155.24C157.509 262.63 159.777 262.521 161.938 262.194H162.154L162.262 262.303C170.796 269.708 179.221 277.33 188.187 284.189L189.916 285.496C190.24 285.714 190.456 286.041 190.78 286.041C191.104 286.041 191.428 285.932 191.752 285.823C193.049 285.278 194.129 284.407 195.209 283.536C197.37 281.794 199.422 279.725 201.366 277.656C203.311 275.587 205.147 273.41 206.876 271.123C207.74 270.034 208.496 268.836 209.252 267.639C209.576 266.985 209.9 266.441 210.224 265.679C210.332 265.352 210.441 265.025 210.441 264.699C210.332 264.481 210.333 264.045 210.008 263.828ZM210.008 263.828C210.333 264.045 210.332 264.481 210.332 264.808C210.332 265.134 210.224 265.461 210.116 265.896C209.9 266.55 209.576 267.203 209.252 267.856C208.604 269.054 207.74 270.252 206.876 271.45C205.147 273.736 203.419 275.914 201.474 277.983C199.53 280.052 197.586 282.121 195.425 283.863C194.345 284.734 193.265 285.714 191.86 286.258C191.536 286.367 191.212 286.476 190.78 286.476C190.564 286.476 190.348 286.367 190.24 286.258L189.808 285.932L188.079 284.625C183.542 281.25 179.113 277.656 174.792 274.063C170.472 270.47 166.151 266.768 161.83 263.065L162.154 263.174C159.885 263.501 157.617 263.719 155.348 263.828H153.62H153.188C153.08 263.828 152.972 263.828 152.647 263.828C152.215 263.719 151.891 263.501 151.675 263.065C151.567 262.848 151.459 262.63 151.567 262.303C151.567 262.194 151.675 262.085 151.675 261.977L151.783 261.759C151.999 261.541 152.107 261.214 152.323 260.997C152.647 260.561 153.08 260.125 153.404 259.69L154.484 258.383C154.7 258.166 154.808 257.948 155.024 257.73C155.132 257.621 155.132 257.512 155.24 257.403C155.24 257.403 155.24 257.294 155.348 257.294C155.348 257.294 155.348 257.186 155.348 257.403C155.348 257.403 155.348 257.512 155.456 257.512C155.456 257.621 155.564 257.621 155.564 257.621L155.456 257.512L155.24 257.403L154.916 257.186L154.268 256.641C153.836 256.314 153.404 255.879 152.972 255.443C152.107 254.572 151.351 253.701 150.703 252.721C150.379 252.177 150.055 251.741 149.839 251.197C149.731 251.088 149.731 250.979 149.623 250.652C149.623 250.435 149.623 250.217 149.623 250.108C149.731 249.781 149.839 249.455 149.947 249.237C150.919 247.059 152.323 245.208 153.62 243.357C155.024 241.506 156.428 239.764 157.833 237.913C159.345 236.17 160.857 234.428 162.37 232.795C163.126 232.033 163.99 231.162 164.854 230.399C165.286 230.073 165.718 229.637 166.259 229.311C166.475 229.202 166.799 228.984 167.015 228.875C167.123 228.766 167.339 228.766 167.447 228.766C167.555 228.766 167.879 228.766 168.095 228.875C170.039 230.291 171.66 231.706 173.496 233.122L178.789 237.477L189.268 246.297L210.008 263.828Z" fill="#A42A29"/>
<path d="M184.406 260.125C184.514 259.908 184.514 259.581 184.622 259.363C184.73 258.819 184.622 258.274 184.406 257.73C184.082 257.185 183.866 256.641 183.326 256.205C183.11 255.988 182.786 255.879 182.57 255.77C182.462 255.77 182.246 255.661 182.138 255.661C182.03 255.661 181.814 255.552 181.706 255.552C181.274 255.443 180.842 255.443 180.518 255.552C180.085 255.552 179.761 255.77 179.437 255.988C179.113 256.205 178.789 256.532 178.573 256.859C178.357 257.185 178.141 257.621 178.141 257.948C178.141 258.165 178.141 258.492 178.141 258.71C178.249 259.254 178.357 259.799 178.789 260.234C179.005 260.452 179.221 260.67 179.437 260.888C179.545 260.996 179.545 260.996 179.653 260.996C179.869 261.214 180.085 261.323 180.409 261.432C180.842 261.65 181.166 261.759 181.598 261.759C182.03 261.868 182.462 261.759 182.786 261.65C183.002 261.541 183.218 261.432 183.542 261.323C183.758 260.996 184.082 260.67 184.406 260.125Z" fill="#A42A29"/>
<path d="M172.414 250.108C172.522 249.89 172.522 249.563 172.631 249.346C172.739 248.801 172.631 248.257 172.414 247.712C172.09 247.168 171.874 246.623 171.334 246.188C171.118 245.97 170.794 245.861 170.578 245.752C170.47 245.752 170.254 245.643 170.146 245.643C170.038 245.643 169.822 245.535 169.714 245.535C169.282 245.426 168.85 245.426 168.526 245.535C168.093 245.535 167.769 245.752 167.445 245.97C167.121 246.188 166.797 246.515 166.581 246.841C166.365 247.168 166.149 247.603 166.149 247.93C166.149 248.148 166.149 248.474 166.149 248.692C166.257 249.237 166.365 249.781 166.797 250.217C167.013 250.434 167.229 250.652 167.445 250.87C167.553 250.979 167.553 250.979 167.661 250.979C167.877 251.197 168.093 251.306 168.418 251.414C168.85 251.632 169.174 251.741 169.606 251.741C170.038 251.85 170.47 251.741 170.794 251.632C171.01 251.523 171.226 251.414 171.55 251.306C171.874 251.088 172.198 250.652 172.414 250.108Z" fill="#A42A29"/>
<path d="M196.288 270.034C196.396 269.817 196.396 269.49 196.505 269.272C196.613 268.728 196.505 268.183 196.288 267.639C195.964 267.094 195.748 266.55 195.208 266.114C194.992 265.897 194.668 265.788 194.452 265.679C194.344 265.679 194.128 265.57 194.02 265.57C193.912 265.57 193.696 265.461 193.588 265.461C193.156 265.352 192.724 265.352 192.4 265.461C191.968 265.461 191.643 265.679 191.319 265.897C190.995 266.114 190.671 266.441 190.455 266.768C190.239 267.094 190.023 267.53 190.023 267.857C190.023 268.074 190.023 268.401 190.023 268.619C190.131 269.163 190.239 269.708 190.671 270.143C190.887 270.361 191.103 270.579 191.319 270.797C191.427 270.905 191.427 270.905 191.535 270.905C191.751 271.123 191.967 271.232 192.292 271.341C192.724 271.559 193.048 271.668 193.48 271.668C193.912 271.777 194.344 271.668 194.668 271.559C194.884 271.45 195.1 271.341 195.424 271.232C195.64 271.014 196.072 270.579 196.288 270.034Z" fill="#A42A29"/>
<path d="M206.442 293.445L193.587 291.812C191.642 291.594 190.022 290.396 190.886 289.743L205.145 280.814C205.685 280.487 206.766 280.378 207.846 280.487L223.401 282.556C225.13 282.883 225.778 283.863 224.914 284.189L211.195 292.9C210.33 293.445 208.494 293.663 206.442 293.445Z" fill="#455B64"/>
<path d="M205.688 292.682L192.833 291.049C191.213 290.831 190.24 289.96 191.105 289.525L204.932 280.814C205.472 280.487 206.552 280.378 207.632 280.487L223.08 282.447C224.052 282.556 224.592 283.1 224.16 283.318L210.441 292.029C209.469 292.682 207.632 292.9 205.688 292.682Z" fill="#263238"/>
<path d="M203.35 290.327C203.395 289.969 202.713 289.586 201.825 289.472C200.937 289.358 200.181 289.555 200.136 289.913C200.09 290.271 200.773 290.654 201.661 290.768C202.548 290.882 203.305 290.685 203.35 290.327Z" fill="#FAFBFB"/>
</svg>
