<svg width="335" height="132" viewBox="0 0 335 132" fill="none" xmlns="http://www.w3.org/2000/svg">
<path d="M185.22 66C187.22 67.08 188.81 70.19 188.81 70.19C188.81 70.19 186.51 77.92 183.46 76.46C180.41 75 183.28 65 185.22 66Z" fill="#6C6C6C"/>
<path d="M196.23 80.9L196.57 73.73L184.94 68.2L182.66 66.94C182.66 66.94 180.44 63.11 180.3 62.5C180.179 61.6652 180.112 60.8234 180.1 59.98C180.106 59.9268 180.106 59.8732 180.1 59.82C180.071 59.7703 180.034 59.7263 179.99 59.69C179.949 59.6509 179.896 59.6264 179.84 59.62H179.68C179.19 59.72 178.49 60.09 178.34 61.4C178.267 62.6103 178.382 63.8246 178.68 65C178.699 65.1125 178.699 65.2275 178.68 65.34C178.653 65.4529 178.602 65.5586 178.53 65.65C178.467 65.7466 178.381 65.8257 178.28 65.88C178.179 65.9406 178.067 65.9813 177.95 66C176.35 66.13 176.8 66 175.16 66.09C173.8 66.26 171.1 66.18 171.16 67.68C171.16 68.11 172.05 68.58 172.05 68.58C171.768 68.8487 171.576 69.198 171.5 69.58V69.77C171.502 69.9708 171.557 70.1674 171.66 70.34C171.761 70.5175 171.91 70.6631 172.09 70.76L172.33 70.91C172.33 70.91 171.66 71.31 171.68 71.75C171.715 72.0727 171.814 72.3853 171.97 72.67L172.85 73.18C172.769 73.2944 172.711 73.4235 172.68 73.56C172.65 73.6916 172.65 73.8284 172.68 73.96C172.78 74.394 172.998 74.7919 173.31 75.11C173.615 75.4285 173.998 75.6628 174.42 75.79L182.96 74.85L184.82 75.62L196.23 80.9Z" fill="#A96050"/>
<path d="M177.51 68.59C177.756 68.4402 177.943 68.2109 178.04 67.94C178.075 67.7988 178.075 67.6513 178.04 67.51C178.02 67.3621 177.957 67.2231 177.86 67.11C177.747 66.9858 177.607 66.8899 177.45 66.83C177.289 66.7702 177.121 66.7299 176.95 66.71C176.95 66.71 177.22 66.85 177.36 66.92C177.488 66.9898 177.603 67.0812 177.7 67.19C177.774 67.2892 177.819 67.4069 177.83 67.53C177.837 67.6507 177.813 67.7712 177.76 67.88C177.646 68.1254 177.447 68.321 177.2 68.43C177.002 68.4999 176.798 68.5502 176.59 68.58C175.92 68.58 175.25 68.58 174.59 68.58H173.09C172.956 68.568 172.821 68.5922 172.7 68.65V68.76C172.822 68.8417 172.963 68.89 173.11 68.9C173.281 68.9385 173.455 68.9619 173.63 68.97C173.94 68.97 174.27 68.97 174.63 68.97C175.246 69.0002 175.863 68.9599 176.47 68.85C176.754 68.8382 177.033 68.7702 177.29 68.65" fill="#703E38"/>
<path d="M177.59 72.51C177.394 72.6025 177.19 72.6762 176.98 72.73C176.32 72.79 175.62 72.83 174.98 72.84H173.98C173.814 72.83 173.647 72.83 173.48 72.84C173.346 72.828 173.211 72.8521 173.09 72.91V73.02C173.212 73.1017 173.354 73.15 173.5 73.16C173.671 73.1985 173.845 73.2219 174.02 73.23C174.33 73.23 174.66 73.23 175.02 73.23C175.636 73.2602 176.253 73.2199 176.86 73.11C177.143 73.0968 177.42 73.0324 177.68 72.92C177.845 72.9207 178.006 72.9731 178.14 73.07C178.26 73.1623 178.35 73.2874 178.4 73.43C178.445 73.5767 178.445 73.7334 178.4 73.88C178.321 74.0416 178.204 74.1821 178.06 74.29C177.989 74.3582 177.908 74.4155 177.82 74.46C177.72 74.52 177.61 74.56 177.59 74.7C177.582 74.726 177.582 74.754 177.59 74.78C177.61 74.784 177.63 74.784 177.65 74.78C177.8 74.87 177.96 74.78 178.08 74.67C178.198 74.5901 178.305 74.4961 178.4 74.39C178.547 74.2083 178.644 73.991 178.68 73.76C178.709 73.562 178.677 73.36 178.59 73.18C178.498 73.0016 178.351 72.8578 178.17 72.77C178.087 72.755 178.003 72.755 177.92 72.77" fill="#703E38"/>
<path d="M172.75 70.91C172.877 70.9978 173.026 71.0496 173.18 71.06C173.357 71.1013 173.538 71.1281 173.72 71.14C174.05 71.14 174.4 71.14 174.72 71.14C175.363 71.1669 176.007 71.1233 176.64 71.01C176.937 70.9995 177.229 70.9316 177.5 70.81C177.684 70.8098 177.862 70.8774 178 71C178.133 71.0919 178.231 71.2252 178.28 71.379C178.329 71.5328 178.325 71.6984 178.27 71.85C178.19 72.0228 178.066 72.1713 177.91 72.28C177.837 72.3486 177.756 72.409 177.67 72.46C177.56 72.52 177.44 72.57 177.42 72.71C177.41 72.7358 177.41 72.7643 177.42 72.79C177.443 72.7946 177.467 72.7946 177.49 72.79C177.64 72.89 177.82 72.79 177.94 72.68C178.062 72.5936 178.172 72.4928 178.27 72.38C178.423 72.1921 178.526 71.9685 178.57 71.73C178.602 71.5212 178.567 71.3077 178.47 71.12C178.372 70.934 178.218 70.7836 178.03 70.69C177.946 70.6596 177.859 70.6394 177.77 70.63C178.026 70.4731 178.22 70.233 178.32 69.95C178.354 69.802 178.354 69.6481 178.32 69.5C178.292 69.3464 178.227 69.2021 178.13 69.08C178.007 68.9491 177.857 68.8467 177.69 68.78C177.519 68.7295 177.346 68.6894 177.17 68.66C177.17 68.66 177.17 68.66 177.17 68.66C177.318 68.7233 177.462 68.7968 177.6 68.88C177.738 68.9469 177.861 69.0424 177.96 69.16C178.034 69.263 178.079 69.3839 178.09 69.51C178.102 69.6375 178.078 69.7657 178.02 69.88C177.908 70.1383 177.7 70.3429 177.44 70.45C177.23 70.5309 177.012 70.5879 176.79 70.62C176.09 70.62 175.39 70.62 174.68 70.62H173.11C172.97 70.6082 172.828 70.6323 172.7 70.69C172.7 70.69 172.75 70.91 172.75 70.91Z" fill="#703E38"/>
<path d="M144.92 129.82C87.1401 129.82 17.6101 124.98 17.6101 121.31C17.6101 117.64 80.9101 113.82 142.92 113.82H190.11C247.88 113.82 317.41 118.66 317.41 122.32C317.41 125.98 254.12 129.82 192.11 129.82H144.92Z" fill="#E0E0E0"/>
<path d="M44.39 44.3C44.75 44.51 44.76 44.85 44.39 45.06C44.1855 45.1637 43.9594 45.2177 43.73 45.2177C43.5007 45.2177 43.2746 45.1637 43.07 45.06C42.99 45.0337 42.9203 44.9828 42.8709 44.9146C42.8215 44.8463 42.7949 44.7642 42.7949 44.68C42.7949 44.5957 42.8215 44.5137 42.8709 44.4454C42.9203 44.3772 42.99 44.3263 43.07 44.3C43.2741 44.1947 43.5004 44.1398 43.73 44.1398C43.9596 44.1398 44.1859 44.1947 44.39 44.3Z" fill="#B2B2B2"/>
<path d="M42.32 45.5C42.4 45.5263 42.4697 45.5772 42.5191 45.6454C42.5685 45.7137 42.5951 45.7957 42.5951 45.88C42.5951 45.9642 42.5685 46.0463 42.5191 46.1145C42.4697 46.1828 42.4 46.2337 42.32 46.26L34.47 50.83C34.2672 50.9336 34.0427 50.9876 33.815 50.9876C33.5873 50.9876 33.3628 50.9336 33.16 50.83C32.8 50.62 32.79 50.27 33.16 50.07L41 45.5C41.2046 45.3963 41.4307 45.3423 41.66 45.3423C41.8893 45.3423 42.1154 45.3963 42.32 45.5Z" fill="#B2B2B2"/>
<path d="M155.66 88C159.57 90.26 159.59 93.93 155.71 96.19L121 116.34C118.81 117.454 116.387 118.035 113.93 118.035C111.473 118.035 109.05 117.454 106.86 116.34L18.3699 65.28C14.4599 63.02 14.4399 59.35 18.3699 57.09L22.7899 54.52L24.5099 55.52C25.4387 55.9949 26.4669 56.2425 27.5099 56.2425C28.553 56.2425 29.5812 55.9949 30.5099 55.52L50.5099 43.92C52.1399 42.97 52.1299 41.42 50.5099 40.47L48.7899 39.47L53.2199 36.9C55.4083 35.7857 57.8292 35.2048 60.2849 35.2048C62.7407 35.2048 65.1616 35.7857 67.3499 36.9L155.66 88Z" fill="#F7F7F7"/>
<path d="M162 92.22C161.91 94.99 159.42 95.4 157 96.82C155.85 97.49 154.84 99.46 153.88 100.02L134.33 111.38L126.06 116.18C124.627 117.094 123.134 117.91 121.59 118.62C119.21 119.62 116.67 118.82 114 118.82C110.57 118.82 107 119.25 104.13 117.6L95.8601 112.83L79.1601 103.19L58.4301 91.19L38.0601 79.45L22.4401 70.45C20.2801 69.18 18.1001 68 16.0001 66.69C14.0001 65.51 12.0601 63.69 12.0001 61.18C12.0001 62.82 11.7201 64.75 12.3201 66.3C13.0778 67.9638 14.3743 69.3237 16.0001 70.16L18.4301 71.56L31.8201 79.29L52.2201 91.07L74.4701 103.91L93.3601 114.82L103.69 120.82C108.248 123.379 113.597 124.145 118.69 122.97C120.81 122.427 122.834 121.56 124.69 120.4L132.43 115.9L153.25 103.8C156.25 102.04 161.44 100.06 161.91 96.08C161.985 94.7477 161.985 93.4123 161.91 92.08L162 92.22Z" fill="#455B64"/>
<path d="M162 92.05C162 94.13 160.63 96.05 158.11 97.55L123.35 117.75C120.406 119.243 117.151 120.022 113.85 120.022C110.549 120.022 107.294 119.243 104.35 117.75L16 66.68C13.42 65.22 12 63.27 12 61.18C12 59.09 13.37 57.18 15.89 55.68L50.65 35.48C53.5627 33.9221 56.8275 33.1403 60.13 33.21C63.4419 33.1414 66.7161 33.923 69.64 35.48L158.08 86.55C160.62 88 162 90 162 92.05ZM121 116.34L155.76 96.14C159.64 93.88 159.62 90.21 155.71 87.95L67.22 36.89C65.0316 35.7757 62.6107 35.1948 60.155 35.1948C57.6993 35.1948 55.2784 35.7757 53.09 36.89L48.66 39.46L50.38 40.46C52.02 41.41 52.03 42.96 50.38 43.91L30.38 55.51C29.4513 55.9848 28.4231 56.2324 27.38 56.2324C26.3369 56.2324 25.3087 55.9848 24.38 55.51L22.66 54.51L18.24 57.08C14.35 59.34 14.37 63.01 18.24 65.27L106.68 116.33C108.87 117.444 111.293 118.025 113.75 118.025C116.207 118.025 118.63 117.444 120.82 116.33" fill="#263238"/>
<path d="M323 63C323 64.19 321.65 65 321 65.78C320.064 67.1286 318.875 68.2832 317.5 69.18L306.27 75.71L288.2 86.26L267.74 98.15L249.07 109L236.65 116.22L234.08 117.71C231.95 118.94 229.46 118.55 227.01 118.82C223.53 119.2 219.92 119.89 216.7 118.44C215.387 117.797 214.109 117.086 212.87 116.31L194.61 105.77C190.25 103.25 185.85 100.77 181.51 98.21C179.56 97.06 177.66 95.27 177.64 92.85C177.64 94.38 177.38 96.19 177.89 97.67C178.633 99.4145 179.978 100.834 181.68 101.67C183.49 102.73 185.32 103.78 187.14 104.83L207.6 116.64C211.6 118.96 215.79 122.05 220.42 122.97C222.973 123.551 225.617 123.612 228.194 123.15C230.771 122.688 233.228 121.712 235.42 120.28L245.28 114.56L263.62 103.9L285.23 91.34L304.87 79.92L317.33 72.68C319.73 71.29 322.69 69.79 322.99 66.68C323.055 65.4142 323.055 64.1458 322.99 62.88L323 63Z" fill="#455B64"/>
<path d="M323 62.87C323 64.87 321.68 66.79 319.23 68.21L233.88 117.81C231.02 119.256 227.86 120.01 224.655 120.01C221.45 120.01 218.29 119.256 215.43 117.81L181.43 98.19C178.97 96.77 177.6 94.87 177.59 92.85C177.58 90.83 178.92 88.93 181.37 87.5L266.72 37.9C269.578 36.4537 272.737 35.7 275.94 35.7C279.143 35.7 282.302 36.4537 285.16 37.9L319.16 57.53C321.66 59 323 60.84 323 62.87ZM231.51 116.44L316.86 66.84C320.63 64.65 320.61 61.08 316.86 58.84L312.53 56.34L310.87 57.34C309.972 57.7935 308.981 58.0298 307.975 58.0298C306.969 58.0298 305.978 57.7935 305.08 57.34L285.55 46.09C283.95 45.16 283.94 43.66 285.55 42.73L287.21 41.73L282.88 39.23C280.753 38.1504 278.401 37.5878 276.015 37.5878C273.629 37.5878 271.277 38.1504 269.15 39.23L183.8 88.83C180.03 91.02 180.05 94.59 183.85 96.78L217.85 116.4C219.976 117.484 222.328 118.05 224.715 118.05C227.101 118.05 229.454 117.484 231.58 116.4" fill="#263238"/>
<path d="M316.85 58.89C320.64 61.08 320.66 64.65 316.85 66.89L231.5 116.49C229.374 117.574 227.022 118.14 224.635 118.14C222.249 118.14 219.896 117.574 217.77 116.49L183.77 96.87C179.97 94.68 179.95 91.11 183.77 88.92L269.11 39.32C271.237 38.2404 273.589 37.6778 275.975 37.6778C278.361 37.6778 280.713 38.2404 282.84 39.32L287.17 41.82L285.51 42.82C283.92 43.75 283.93 45.25 285.51 46.18L305.03 57.45C305.928 57.9035 306.919 58.1398 307.925 58.1398C308.931 58.1398 309.922 57.9035 310.82 57.45L312.48 56.45L316.85 58.89Z" fill="#F7F7F7"/>
<path d="M285.47 56.65C293.36 61.21 293.41 68.6 285.56 73.17L285.45 73.23L285.33 73.3L285.2 73.37L285.08 73.44L284.96 73.5L284.83 73.57L284.7 73.64L284.46 73.76L284.31 73.83L283.92 74.02L283.52 74.2H283.41L283.13 74.32L282.73 74.49H282.59L282.18 74.65L281.76 74.8L281.33 74.95L280.9 75.09L280.47 75.22L279.96 75.36L279.5 75.49L279.02 75.6C278.12 75.82 277.33 75.97 276.54 76.09C278.31 72.19 276.54 67.86 271.25 64.81C272.74 65.5694 274.388 65.9654 276.06 65.9654C277.732 65.9654 279.38 65.5694 280.87 64.81C283.51 63.27 283.5 60.81 280.87 59.24C279.38 58.4805 277.732 58.0846 276.06 58.0846C274.388 58.0846 272.74 58.4805 271.25 59.24C268.61 60.78 268.62 63.24 271.25 64.81C265.96 61.75 258.48 60.74 251.76 61.81C251.978 61.3336 252.239 60.8783 252.54 60.45L252.72 60.19L252.88 59.99C252.957 59.8814 253.04 59.7779 253.13 59.68L253.29 59.49L253.54 59.22L253.82 58.93C254.9 57.93 254.93 57.93 254.96 57.93L255.26 57.69C255.363 57.6079 255.47 57.5312 255.58 57.46L255.9 57.23L256 57.17L256.24 57.01L256.34 56.95L256.59 56.79L256.69 56.73L256.95 56.58C264.8 52.09 277.57 52.09 285.47 56.65Z" fill="#D0D8DC"/>
<path d="M50.0001 54.52C41.4401 59.45 41.4001 67.46 49.9001 72.4L50.0201 72.47L50.1401 72.54L50.2901 72.62L50.4201 72.69L50.5401 72.76L50.6801 72.83L50.8201 72.91L51.0901 73.04L51.2401 73.12L51.6601 73.32L52.1001 73.52H52.2201L52.5301 73.65L52.9601 73.83L53.1001 73.89L53.5501 74.06L54.0101 74.22L54.4701 74.38L54.9401 74.53L55.4101 74.68L55.9601 74.83L56.4601 74.97L56.9701 75.09C57.9701 75.32 58.8001 75.49 59.6601 75.62C57.7401 71.4 59.6601 66.72 65.3801 63.41C63.7672 64.2287 61.9839 64.6553 60.1751 64.6553C58.3663 64.6553 56.583 64.2287 54.9701 63.41C52.1101 61.74 52.1201 59.04 54.9701 57.41C56.5798 56.5867 58.362 56.1574 60.1701 56.1574C61.9781 56.1574 63.7604 56.5867 65.3701 57.41C68.2401 59.07 68.2201 61.77 65.3701 63.41C71.1001 60.1 79.2001 59.01 86.4801 60.13C86.2409 59.6126 85.9564 59.1174 85.6301 58.65L85.4301 58.37L85.2601 58.16L85.0001 57.87L84.8301 57.67L84.5601 57.38L84.2601 57.06L83.0001 56C82.8945 55.911 82.7843 55.8276 82.6701 55.75L82.3301 55.5L82.0001 55.23L81.8901 55.16C81.8088 55.0955 81.7218 55.0386 81.6301 54.99L81.5201 54.92L81.2601 54.75L81.1401 54.68L80.8701 54.52C72.3301 49.58 58.5101 49.58 50.0001 54.52Z" fill="#D0D8DC"/>
<path d="M166.91 39.67C164.133 34.7696 162.015 29.5244 160.61 24.07C165.86 21.44 171.39 21.88 176.84 21.14C182.29 20.4 187.41 18.66 189.27 14.04C192.614 17.6263 196.485 20.6815 200.75 23.1C198.8 28.49 192.63 31.87 186.12 33.75C179.52 35.79 172.57 36.33 166.91 39.67Z" fill="#A42A29"/>
<path d="M166 34.09C165.113 32.2167 164.32 30.32 163.62 28.4C164.552 28.0715 165.315 27.3869 165.742 26.4964C166.17 25.606 166.226 24.5823 165.9 23.65C173.22 22.16 182.17 23.07 187.47 18.46C188.72 19.92 191.02 20.08 191.94 18.51C193.278 19.7285 194.683 20.8703 196.15 21.93C195.22 23.59 195.21 25.66 196.84 26.8C190.96 32.8 180.13 33.69 171.71 36.12C171.137 35.1767 170.256 34.4598 169.216 34.09C168.176 33.7202 167.04 33.7202 166 34.09Z" fill="#F7F7F7"/>
<path d="M184.94 26.69C184.163 25.9535 183.226 25.4075 182.202 25.0951C181.178 24.7827 180.096 24.7125 179.04 24.89C176.92 25.24 175.89 26.79 176.91 28.45C177.93 30.11 180.78 31.05 183.13 30.45C185.48 29.85 186.18 28.11 184.94 26.69Z" fill="#A42A29"/>
<path d="M122.61 46.23C125.637 50.0384 129.326 53.2701 133.5 55.77C140.67 54.55 143.78 50.58 146.2 46.7C148.62 42.82 150.33 38.8 154.14 35.11C150.401 34.5309 146.816 33.2045 143.6 31.21C140.24 33.75 138 37.11 135.13 40.37C132.26 43.63 128.73 46.6 122.61 46.23Z" fill="#A42A29"/>
<path d="M127.16 49.39C128.449 50.6071 129.819 51.7363 131.26 52.77C133.489 52.3057 135.807 52.5253 137.91 53.4C144.81 49.65 146.18 43.28 150.14 38.28C149.797 38.229 149.477 38.0773 149.221 37.8443C148.964 37.6112 148.783 37.3073 148.699 36.971C148.616 36.6347 148.634 36.2811 148.752 35.9552C148.869 35.6292 149.081 35.3455 149.36 35.14C148.039 34.7142 146.752 34.1894 145.51 33.57C144.35 34.64 142.51 35.01 141.45 34.23C137.45 38.23 134.87 44.14 128.29 46.46C129.49 47.63 129.27 49.14 127.16 49.39Z" fill="#F7F7F7"/>
<path d="M141.76 41.45C142.08 41.6247 142.36 41.8658 142.579 42.1571C142.799 42.4485 142.953 42.7834 143.033 43.1395C143.112 43.4955 143.115 43.8645 143.04 44.2216C142.966 44.5787 142.816 44.9157 142.6 45.21C142.105 45.8929 141.377 46.3714 140.554 46.5556C139.731 46.7398 138.869 46.6169 138.13 46.21C137.823 46.0104 137.565 45.7448 137.373 45.4326C137.182 45.1204 137.063 44.7694 137.025 44.4053C136.986 44.0412 137.03 43.6731 137.152 43.328C137.274 42.9828 137.471 42.6692 137.73 42.41C138.184 41.8046 138.835 41.3771 139.572 41.2018C140.308 41.0264 141.082 41.1143 141.76 41.45Z" fill="#A42A29"/>
<path d="M218 59.15C218 59.15 209.11 84.15 203.45 83.33C198.45 82.33 183.45 76.45 183.45 76.45C188.1 72.62 185.24 66 185.24 66C185.24 66 199.24 70.73 199.75 69.82C200.26 68.91 201.53 70.18 201.53 70.18C201.53 70.18 209.73 41.11 214.53 38.82L218 59.15Z" fill="#8F8F8F"/>
<path d="M211.68 56.69C211.68 54.5 211.68 52.4 211.8 50.49C211.8 49.56 211.87 48.67 211.92 47.84C211.993 46.1259 212.156 44.4168 212.41 42.72C212.488 41.803 212.76 40.9131 213.21 40.11L213.4 39.87C215.82 36.98 220.4 35.72 226.27 35.41C228.738 35.28 231.212 35.28 233.68 35.41C235.552 35.4906 237.407 35.7893 239.21 36.3C246.01 38.22 249.47 39.3 251.04 41.58C251.327 42.1485 251.484 42.7735 251.5 43.41C251.616 44.3456 251.676 45.2873 251.68 46.23C251.76 47.71 251.74 49.44 251.68 51.39C251.68 52.24 251.59 53.15 251.59 54.09C251.5 55.96 251.39 57.97 251.27 60.04C251.21 60.92 251.15 61.81 251.09 62.73C250.97 64.63 250.82 66.57 250.66 68.52C250.6 69.41 250.53 70.29 250.45 71.17C250.31 72.98 250.16 74.79 250 76.55C249.93 77.43 249.85 78.32 249.78 79.16C249.57 81.36 249.37 83.46 249.19 85.4C249.11 86.33 249.02 87.22 248.94 88.07C248.76 89.8 248.52 93.12 248.52 93.12C248.52 93.12 243.68 97.41 227.92 96.38C222.688 96.1573 217.568 94.792 212.92 92.38C212.92 92.38 212.47 87.62 212.39 85.65C212.39 84.78 212.31 83.87 212.27 82.93C212.19 80.76 212.09 78.42 212.02 76C212.02 75.13 211.94 74.24 211.94 73.35C211.87 71.24 211.82 69.16 211.78 67.05V64.38C211.78 62.64 211.78 60.97 211.78 59.29V56.63L211.68 56.69Z" fill="#B4B2B2"/>
<path d="M213.29 40.09L213.48 39.85C227.42 37.6 242.6 40.85 251.59 43.42C251.702 44.3558 251.759 45.2975 251.76 46.24C242.82 43.64 226.64 40.02 212.49 42.7C212.574 41.7841 212.846 40.8955 213.29 40.09Z" fill="#8F8F8F"/>
<path d="M212 47.78C224.35 46.13 240.83 48.92 251.72 51.35C251.72 52.21 251.63 53.11 251.63 54.05C240.7 51.62 223.91 48.76 211.88 50.43C211.91 49.5 212 48.61 212 47.78Z" fill="#8F8F8F"/>
<path d="M211.78 56.66C224.51 55.56 240.38 57.91 251.33 60.01C251.27 60.89 251.21 61.78 251.15 62.69C240.26 60.59 224.15 58.2 211.77 59.29V56.66H211.78Z" fill="#8F8F8F"/>
<path d="M211.77 64.38C223.15 64.44 239.15 66.63 250.66 68.48C250.6 69.37 250.53 70.26 250.45 71.14C239 69.3 223 67.07 211.82 67V64.38H211.77Z" fill="#8F8F8F"/>
<path d="M212 73.32C223.91 74.56 239.13 75.73 250 76.52C249.93 77.4 249.85 78.29 249.78 79.12C239 78.36 224 77.21 212.07 76C212.07 75.13 211.98 74.24 211.98 73.35L212 73.32Z" fill="#8F8F8F"/>
<path d="M212.36 83C223.6 85.48 238.51 85.72 249.23 85.48C249.15 86.41 249.06 87.3 248.98 88.14C246.98 88.21 244.92 88.21 242.74 88.21C233.11 88.21 221.74 87.65 212.47 85.69C212.47 84.82 212.39 83.92 212.35 82.97L212.36 83Z" fill="#8F8F8F"/>
<path d="M225.94 37.4C225.17 38.51 225.17 40.75 229.3 41.07C233.43 41.39 237.91 39.46 237.78 37.13C237.78 36.38 236.18 35.37 235.45 35.27C228.58 34.32 226.71 36.3 225.94 37.4Z" fill="#6C6C6C"/>
<path d="M226.76 30.56C233.58 31.43 234.96 26.48 234.96 26.48H236.55C233.76 30.86 235.97 37.48 235.97 37.48C230.54 40.48 228.21 39.16 228.21 39.16L226.76 30.54V30.56Z" fill="#884638"/>
<path d="M236.76 27.32C238.13 27.62 238.56 25.56 239.76 25.27C240.96 24.98 240.11 23 240 22C239.89 21 241.13 21.31 241.56 20C241.99 18.69 240.79 18.34 240.86 17.49C240.93 16.64 241.7 16.35 241.61 15.35C241.52 14.35 239.72 14.25 240.1 12.61C240.48 10.97 238.93 10.56 237.31 10.37C235.69 10.18 236.31 8.75004 235.31 7.86004C234.31 6.97004 233.01 9.73004 230.68 8.05004C228.35 6.37004 227.04 8.05004 226.43 9.15004C225.82 10.25 224.71 9.23004 223.62 9.62004C222.53 10.01 223.49 12.52 223.49 12.52C221.21 13.18 223.73 15.22 223.73 15.22C223.73 15.22 235.4 27 236.76 27.32Z" fill="#0E3944"/>
<path d="M238.25 22.31C237.89 12.31 232.99 10.24 225.54 13.09C223.41 13.91 222.74 17.62 222.91 21.35C222.91 21.91 222.98 22.46 223.04 23.02C223.32 25.41 224.04 28.88 224.71 30.13C226.91 34.02 238.57 30.51 238.28 22.34L238.25 22.31Z" fill="#A96050"/>
<path d="M235.94 22.45L238.28 22.32L236.75 27.32C246.08 12.9 234.98 7.57999 228.15 9.31999C221.32 11.06 223.71 15.24 223.71 15.24C226.91 12.35 234.09 13.57 234.09 13.57C234.09 13.57 232.53 16.04 234.32 17.76C236.11 19.48 235.94 22.43 235.94 22.43V22.45Z" fill="#0E3944"/>
<path d="M236.7 25.9C238.32 26.01 240.83 22.48 239.3 21.32C237.77 20.16 236.17 22.09 236.17 22.09C236.17 22.09 235.07 25.79 236.7 25.9Z" fill="#A96050"/>
<path d="M223.5 63.54C221.526 66.2087 220.046 69.2094 219.13 72.4C221.2 76.92 224.37 78.27 227.35 79.18C230.33 80.09 233.29 80.51 236.35 82.38C236.076 79.8108 236.321 77.2128 237.07 74.74C234.81 72.97 232.19 72.08 229.53 70.74C226.87 69.4 224.34 67.64 223.5 63.54Z" fill="#A42A29"/>
<path d="M222.22 67.1C221.649 68.1679 221.145 69.27 220.71 70.4C221.416 71.7838 221.682 73.3508 221.47 74.89C225.16 78.78 229.61 78.56 233.6 80.3C233.571 80.0646 233.613 79.826 233.721 79.6146C233.828 79.4033 233.997 79.229 234.204 79.114C234.411 78.999 234.648 78.9486 234.885 78.9693C235.121 78.99 235.346 79.0807 235.53 79.23C235.583 78.2827 235.703 77.3403 235.89 76.41C235.447 76.165 235.096 75.7831 234.889 75.3215C234.681 74.86 234.629 74.3437 234.74 73.85C231.38 71.93 227.05 71.26 224.35 67.32C223.79 68.32 222.76 68.45 222.22 67.1Z" fill="#F7F7F7"/>
<path d="M230 75.33C229.941 75.5719 229.832 75.7985 229.678 75.9946C229.525 76.1908 229.332 76.352 229.111 76.4674C228.891 76.5829 228.648 76.65 228.4 76.6642C228.151 76.6785 227.902 76.6395 227.67 76.55C227.133 76.3409 226.691 75.9433 226.426 75.4316C226.161 74.9199 226.091 74.3292 226.23 73.77C226.308 73.5322 226.438 73.3147 226.611 73.1336C226.783 72.9525 226.994 72.8122 227.228 72.7231C227.462 72.6339 227.713 72.5982 227.962 72.6184C228.212 72.6386 228.454 72.7143 228.67 72.84C229.147 73.0348 229.542 73.3903 229.784 73.845C230.027 74.2997 230.104 74.825 230 75.33Z" fill="#A42A29"/>
<path d="M239.11 74.35C238.177 75.5714 237.687 77.0735 237.72 78.61C237.67 81.42 239.86 84.19 239.86 84.19L247.57 83.19L247.36 77.37L239.11 74.35Z" fill="#6C6C6C"/>
<path d="M238.8 82.44C239.63 82.11 244.53 82.37 244.53 82.37L243.6 75.88L238.6 75.99C238.6 75.99 235.93 74.31 235.2 73.99C234.47 73.67 231.12 74.24 231.12 74.24L228.8 74.82C228.799 75.0735 228.895 75.3178 229.068 75.5034C229.24 75.6891 229.477 75.8022 229.73 75.82C231.09 75.93 232.67 75.31 232.79 76.06C232.91 76.81 229.21 78.3 229.21 78.3L226.08 77.77C226.08 77.77 224.67 76.48 223.41 76.84C222.41 77.13 224.8 79.29 224.8 79.29C225.011 80.1086 225.424 80.8614 226 81.48C226.71 82.01 227 82.79 227.8 83.07C228.6 83.35 229.8 84.45 230.95 84.67H231C232.15 84.83 237.94 82.77 238.76 82.43L238.8 82.44Z" fill="#A96050"/>
<path d="M251.12 41.51C256.74 52.2363 260.721 63.744 262.93 75.65C263.38 78.32 262.41 81.92 260.61 83.19C254.37 87.55 239.86 84.19 239.86 84.19C242.04 78.32 239.11 74.35 239.11 74.35L250.26 74C249.44 73.67 250.44 71.85 250.44 71.85L245.33 58.26C244.83 54.12 246.48 43.95 251.12 41.5V41.51Z" fill="#8F8F8F"/>
<path d="M198.09 37.16C196.154 41.3132 194.982 45.7812 194.63 50.35C198.63 55.89 203.32 56.84 207.63 57.25C211.94 57.66 216.02 57.4 220.73 59.07C219.653 55.6741 219.266 52.0976 219.59 48.55C216.04 46.78 212.27 46.31 208.31 45.26C204.35 44.21 200.35 42.48 198.09 37.16Z" fill="#A42A29"/>
<path d="M197.34 42.33C196.855 43.9296 196.477 45.5599 196.21 47.21C197.539 48.8933 198.327 50.9399 198.47 53.08C204.54 57.31 210.47 55.79 216.36 57.08C216.253 56.7682 216.242 56.4316 216.328 56.1135C216.414 55.7954 216.594 55.5104 216.843 55.2953C217.093 55.0801 217.401 54.9446 217.729 54.9062C218.056 54.8678 218.387 54.9284 218.68 55.08C218.483 53.7894 218.386 52.4855 218.39 51.18C217.719 50.9674 217.135 50.542 216.728 49.9683C216.32 49.3945 216.11 48.7036 216.13 48C211.05 46.33 205.01 46.62 200.28 42C199.8 43.55 198.44 44 197.34 42.33Z" fill="#F7F7F7"/>
<path d="M210.17 51.3C210.156 51.6434 210.07 51.9799 209.916 52.2872C209.762 52.5945 209.544 52.8655 209.278 53.0822C209.011 53.2989 208.701 53.4562 208.368 53.5437C208.036 53.6313 207.689 53.6471 207.35 53.59C206.568 53.4569 205.862 53.0432 205.363 52.4265C204.864 51.8099 204.607 51.0325 204.64 50.24C204.679 49.9004 204.792 49.5736 204.972 49.2831C205.152 48.9926 205.394 48.7457 205.681 48.5601C205.968 48.3746 206.293 48.255 206.631 48.21C206.97 48.165 207.315 48.1957 207.64 48.3C208.347 48.4242 208.987 48.7927 209.449 49.341C209.912 49.8893 210.167 50.5827 210.17 51.3Z" fill="#A42A29"/>
<path d="M115.4 79.85C115.4 79.85 124.52 83.51 123.4 76.12C122.56 70.12 119.59 57.04 119.59 57.04C116.59 48.31 112.24 46.37 112.24 46.37L115.4 79.85Z" fill="#C2526D"/>
<path d="M91.4199 94.87C91.4199 89.33 91.4999 75.58 91.4999 75.58L87.6699 51C89.0705 48.9185 91.0579 47.3 93.3799 46.35C95.2499 45.65 100.88 43.61 101.19 43.5L109.57 45L113.09 46.85L118.18 57.78C119.49 60.6677 119.711 63.9324 118.8 66.97L121.37 81.52L122.66 91.76C122.66 91.76 119.53 96.63 109.38 98.03C103.214 98.7117 96.9825 97.6152 91.4199 94.87Z" fill="#D95D7B"/>
<g opacity="0.3">
<g opacity="0.3">
<g opacity="0.3">
<path opacity="0.3" d="M94.5 69.31L95.8 75.81L92 86.85C99.31 86.01 107.12 82.43 111.86 76.77C112.178 76.4824 112.421 76.122 112.569 75.7197C112.718 75.3173 112.766 74.8851 112.71 74.46C112.62 74.2083 112.472 73.9809 112.28 73.7953C112.087 73.6098 111.855 73.4711 111.6 73.39C111.093 73.2285 110.562 73.1508 110.03 73.16L100.53 72.69C100.181 72.7143 99.8331 72.6343 99.53 72.46C99.1466 72.1572 98.8986 71.715 98.84 71.23C98.19 68.69 97.53 66.15 96.84 63.61L94.5 69.31Z" fill="black"/>
</g>
</g>
</g>
<path d="M94.2701 71.15L94.0801 76.66L111 71.35L112.69 75.54L93.6901 85.28C92.8141 85.685 91.8353 85.813 90.8847 85.6468C89.934 85.4806 89.0567 85.0282 88.3701 84.35C87.7564 83.7337 87.2708 83.0019 86.9412 82.197C86.6117 81.392 86.4448 80.5298 86.4501 79.66V71.39L94.2701 71.15Z" fill="#A96050"/>
<path d="M123.87 73.73C124.23 73.9593 124.635 74.1091 125.057 74.1694C125.48 74.2298 125.91 74.1993 126.32 74.08C127.58 73.62 127.23 72.62 127.23 72.62C127.399 72.562 127.554 72.4707 127.686 72.3516C127.819 72.2324 127.926 72.0879 128.001 71.9265C128.077 71.7652 128.119 71.5903 128.126 71.4122C128.133 71.2341 128.103 71.0566 128.04 70.89C128.46 69.73 127.77 69.54 127.77 69.54C127.934 69.4089 128.056 69.2339 128.123 69.0354C128.191 68.837 128.2 68.6235 128.15 68.42C128.998 67.4968 129.675 66.4302 130.15 65.27C130.65 64 129.66 63.65 129.66 63.65L123.87 73.73Z" fill="#A96050"/>
<path d="M118.62 33.6C118.66 33.9589 118.66 34.3211 118.62 34.68C118.597 34.8228 118.529 34.9546 118.427 35.0569C118.325 35.1592 118.193 35.2267 118.05 35.25H118C117.902 35.4256 117.756 35.5697 117.579 35.6653C117.402 35.761 117.201 35.8042 117 35.79C116.853 35.7903 116.708 35.7524 116.58 35.68C116.461 35.9749 116.244 36.2195 115.965 36.3726C115.686 36.5257 115.363 36.5777 115.05 36.52C115.05 36.52 115.05 36.52 114.98 36.52C114.799 36.6039 114.597 36.6318 114.4 36.6C113.98 37.48 112.53 37.45 112.53 36.33C112.534 36.2103 112.558 36.092 112.6 35.98C112.52 35.7535 112.492 35.5118 112.518 35.2729C112.544 35.034 112.623 34.804 112.75 34.6C112.708 34.5573 112.683 34.5002 112.68 34.44C112.661 34.298 112.677 34.1536 112.725 34.0187C112.773 33.8839 112.853 33.7625 112.958 33.6647C113.063 33.5669 113.189 33.4955 113.327 33.4564C113.465 33.4173 113.61 33.4117 113.75 33.44C113.87 33.44 113.94 33.32 114.06 33.32L114.17 32.97C114.114 32.805 114.095 32.6294 114.116 32.4563C114.137 32.2831 114.196 32.1169 114.29 31.97C114.36 31.9 114.4 31.82 114.48 31.74C114.414 31.575 114.393 31.3954 114.419 31.2196C114.446 31.0439 114.519 30.8783 114.63 30.74L114.71 30.67C114.48 30.3153 114.397 29.8847 114.48 29.47C114.35 29.2456 114.288 28.9886 114.3 28.7297C114.313 28.4708 114.4 28.2209 114.55 28.01C114.55 28.01 114.55 27.93 114.48 27.89C114.386 27.7432 114.324 27.5787 114.296 27.4066C114.269 27.2346 114.277 27.0587 114.32 26.89C114.129 26.7558 113.983 26.5678 113.9 26.35C113.48 25.43 114.36 24.66 115.13 24.35C115.308 24.2586 115.503 24.2051 115.702 24.1926C115.902 24.1802 116.102 24.2092 116.29 24.2777C116.478 24.3463 116.649 24.4529 116.794 24.591C116.938 24.7291 117.053 24.8955 117.13 25.08C117.235 25.0915 117.335 25.1268 117.424 25.1832C117.513 25.2395 117.588 25.3155 117.643 25.4053C117.698 25.495 117.732 25.5962 117.742 25.701C117.752 25.8058 117.737 25.9115 117.7 26.01C117.881 26.1299 118.018 26.3054 118.09 26.51C118.258 26.5478 118.406 26.6434 118.51 26.78C118.695 27.0381 118.794 27.3475 118.794 27.665C118.794 27.9824 118.695 28.2919 118.51 28.55C118.817 28.6218 119.085 28.8098 119.256 29.0746C119.428 29.3393 119.49 29.6603 119.43 29.97C119.43 30.09 119.35 30.16 119.31 30.28C119.383 30.6003 119.348 30.9358 119.211 31.2342C119.073 31.5326 118.841 31.7772 118.55 31.93C118.677 32.1971 118.755 32.4851 118.78 32.78V33C118.7 33.25 118.62 33.48 118.62 33.6Z" fill="#0E3944"/>
<path d="M107.71 42.18C112.99 43.53 116.36 35.29 115.25 26.87C114.14 18.45 102.12 20.56 102.12 20.56C92.55 23.79 100.28 40.22 107.71 42.18Z" fill="#A96050"/>
<path d="M95.7701 28.4C95.2701 36.91 101.77 37.52 101.77 37.52C101.77 37.52 98.2501 34 99.5601 32C100.87 30 102.43 32.73 102.43 32.73C102.845 29.9618 104.114 27.3922 106.06 25.38C101.05 22.21 96.0001 24.79 95.7701 28.4Z" fill="#0E3944"/>
<path d="M101 36C101 36 102.92 41.74 100.31 45.82C100.947 47.0009 101.87 48.0026 102.996 48.733C104.121 49.4635 105.412 49.8992 106.75 50C110.35 50.12 109.2 47.15 109.2 47.15C107.9 45.65 109.32 42.23 109.32 42.23C105.57 42.84 102.81 38.23 102.32 35.73C102.27 35.72 101.78 36.75 101 36Z" fill="#884638"/>
<path d="M116.78 25.1C116.703 25.2431 116.601 25.3717 116.48 25.48C116.48 25.79 116.29 26.1 115.94 26.13C115.825 26.1552 115.705 26.1389 115.6 26.084C115.496 26.0291 115.415 25.9392 115.37 25.83C115.362 25.8111 115.358 25.7907 115.358 25.77C115.358 25.7494 115.362 25.7289 115.37 25.71C115.271 25.7495 115.16 25.7495 115.06 25.71C114.951 25.673 114.854 25.6068 114.78 25.5187C114.706 25.4305 114.658 25.3238 114.64 25.21C114.393 25.4145 114.101 25.5567 113.788 25.6245C113.474 25.6924 113.149 25.684 112.84 25.6C112.596 25.6011 112.356 25.5317 112.15 25.4L111.96 25.6C111.701 25.8117 111.397 25.9629 111.072 26.0425C110.747 26.1221 110.408 26.128 110.08 26.06C109.711 26.1695 109.324 26.2069 108.94 26.17C108.86 26.17 108.78 26.17 108.71 26.17C108.435 26.2911 108.132 26.3391 107.833 26.3094C107.533 26.2796 107.246 26.173 107 26C106.594 26.0921 106.168 26.024 105.81 25.81C105.731 25.9071 105.644 25.9974 105.55 26.08C105.47 26.19 105.39 26.31 105.32 26.39C105.234 26.4951 105.129 26.5833 105.01 26.65C103.718 28.1421 102.971 30.0282 102.89 32C102.89 32.35 102.35 32.35 102.23 32.08C101.93 31.42 101.01 31.27 100.4 31.19C100.108 31.1557 99.8124 31.1557 99.5201 31.19C99.1453 31.6364 98.9244 32.1917 98.8901 32.7735C98.8559 33.3554 99.0102 33.9328 99.3301 34.42C99.4401 34.58 99.5601 34.69 99.6701 34.85C99.6886 34.8983 99.6886 34.9517 99.6701 35C99.8445 35.1756 99.9988 35.3702 100.13 35.58C100.228 35.7252 100.292 35.8902 100.318 36.0631C100.344 36.2361 100.331 36.4126 100.28 36.58C100.349 36.6425 100.401 36.7217 100.43 36.81C100.455 36.8401 100.472 36.8758 100.48 36.9139C100.487 36.9521 100.486 36.9915 100.475 37.0289C100.464 37.0663 100.444 37.1006 100.417 37.1286C100.39 37.1567 100.357 37.1777 100.32 37.19V37.42C100.313 37.4708 100.295 37.5194 100.266 37.5621C100.237 37.6047 100.2 37.6404 100.155 37.6664C100.111 37.6923 100.062 37.7079 100.01 37.712C99.9593 37.7161 99.9079 37.7086 99.8601 37.69C99.7801 37.69 99.6701 37.58 99.5901 37.54C99.5369 37.6975 99.431 37.8318 99.2901 37.92C99.2564 37.9483 99.217 37.9691 99.1746 37.9809C99.1322 37.9928 99.0878 37.9956 99.0443 37.9889C99.0008 37.9823 98.9591 37.9665 98.9222 37.9425C98.8853 37.9186 98.8539 37.887 98.8301 37.85C98.7012 37.6884 98.6213 37.4932 98.6001 37.2876C98.5788 37.082 98.617 36.8746 98.7101 36.69C98.6313 36.6634 98.5642 36.6104 98.5201 36.54C98.5053 36.6337 98.4661 36.7219 98.4064 36.7956C98.3467 36.8693 98.2687 36.926 98.1801 36.96C97.9101 37.08 97.7201 36.96 97.5601 36.73C97.5601 36.73 97.5601 36.73 97.5601 36.81C97.4906 36.9195 97.3946 37.0096 97.2809 37.072C97.1673 37.1345 97.0397 37.1672 96.9101 37.1672C96.7804 37.1672 96.6529 37.1345 96.5392 37.072C96.4256 37.0096 96.3296 36.9195 96.2601 36.81C96.1767 36.6765 96.1325 36.5224 96.1325 36.365C96.1325 36.2077 96.1767 36.0535 96.2601 35.92C96.1813 35.8934 96.1142 35.8404 96.0701 35.77C96.0039 35.6825 95.9564 35.5823 95.9306 35.4756C95.9048 35.3689 95.9012 35.2581 95.9201 35.15C95.6508 34.9778 95.4268 34.7435 95.2667 34.4669C95.1067 34.1902 95.0152 33.8793 95.0001 33.56C94.9564 33.4971 94.9257 33.4261 94.9096 33.3513C94.8935 33.2764 94.8924 33.1991 94.9063 33.1238C94.9203 33.0484 94.949 32.9766 94.9908 32.9125C95.0327 32.8483 95.0868 32.7931 95.1501 32.75C95.1501 32.75 95.1501 32.75 95.2301 32.75L95.4201 32.56H95.3401C95.1918 32.5754 95.043 32.5368 94.9208 32.4514C94.7987 32.366 94.7114 32.2394 94.6749 32.0949C94.6385 31.9503 94.6554 31.7975 94.7224 31.6644C94.7895 31.5313 94.9023 31.4268 95.0401 31.37C95.0401 31.29 95.0401 31.22 94.9601 31.14C94.8147 31.1378 94.6754 31.0811 94.5698 30.9811C94.4642 30.8811 94.4001 30.7451 94.3901 30.6C94.2771 30.5443 94.1813 30.4592 94.1126 30.3536C94.044 30.248 94.0051 30.1259 94.0001 30C93.9953 29.8512 94.0203 29.7029 94.0735 29.5638C94.1267 29.4247 94.2072 29.2976 94.3101 29.19C94.1949 28.8667 94.1178 28.5311 94.0801 28.19C94.0229 27.3216 94.2822 26.4619 94.8101 25.77C94.7722 25.4352 94.7959 25.0963 94.8801 24.77C95.1214 24.0565 95.5455 23.4186 96.1101 22.92C96.2135 22.7722 96.3271 22.6319 96.4501 22.5C96.2947 22.1912 96.2421 21.8408 96.3001 21.5C96.3698 21.1572 96.5507 20.8469 96.8146 20.6173C97.0786 20.3877 97.4109 20.2516 97.7601 20.23C97.7871 20.0669 97.8376 19.9086 97.9101 19.76C98.0642 19.3903 98.3259 19.0754 98.6611 18.8561C98.9963 18.6368 99.3896 18.5232 99.7901 18.53C100.268 18.3072 100.795 18.2141 101.32 18.26C101.633 17.9583 102.014 17.7355 102.43 17.61C103.025 17.4194 103.665 17.4194 104.26 17.61C104.679 17.2818 105.164 17.0469 105.681 16.921C106.199 16.7951 106.737 16.7811 107.26 16.88C107.608 16.964 107.944 17.0917 108.26 17.26C108.34 17.26 108.42 17.26 108.49 17.26C108.995 17.2196 109.502 17.2879 109.979 17.4604C110.455 17.6329 110.888 17.9056 111.25 18.26C111.664 18.1814 112.091 18.2141 112.488 18.3547C112.885 18.4952 113.238 18.7386 113.51 19.06C113.753 19.3861 113.899 19.7745 113.93 20.18C114.35 20.1402 114.773 20.2199 115.15 20.41C115.361 20.5036 115.543 20.6504 115.68 20.8359C115.817 21.0215 115.903 21.2393 115.931 21.4682C115.958 21.6971 115.925 21.9292 115.836 22.1416C115.746 22.354 115.603 22.5396 115.42 22.68C115.439 22.6717 115.459 22.6675 115.48 22.6675C115.501 22.6675 115.521 22.6717 115.54 22.68C115.645 22.6824 115.748 22.7099 115.84 22.76C115.907 22.744 115.977 22.7428 116.044 22.7567C116.111 22.7705 116.175 22.7989 116.23 22.84C116.367 22.9721 116.449 23.1505 116.46 23.34C116.61 23.34 116.69 23.45 116.72 23.61C116.737 23.6992 116.737 23.7908 116.72 23.88C116.72 23.88 116.72 23.99 116.8 24.03C116.924 24.1821 116.989 24.3728 116.986 24.5687C116.982 24.7645 116.909 24.9527 116.78 25.1Z" fill="#0E3944"/>
<path d="M99.82 48C104.15 50.46 105.72 50.08 107.25 50C107.52 50 105.57 49.19 105.57 49.19C100.36 46.42 101.39 42.73 101.39 42.73C101.13 42.8092 100.861 42.8595 100.59 42.88C100.106 42.8627 99.6273 42.9841 99.21 43.23C96.15 45.68 99.86 48 99.82 48Z" fill="#C2526D"/>
<path d="M109.66 49.18C106.66 50.95 105.49 49.99 104.46 49.95C104.97 49.5812 105.505 49.2471 106.06 48.95C109.62 46.95 108.51 44.72 108.51 44.72C108.698 44.7794 108.893 44.8163 109.09 44.83C109.44 44.7783 109.797 44.8604 110.09 45.06C112.11 46.84 109.7 49.14 109.66 49.18Z" fill="#C2526D"/>
<path d="M121.92 61.28H128.25C128.487 61.2909 128.719 61.3551 128.927 61.4678C129.136 61.5805 129.317 61.7388 129.456 61.931C129.596 62.1231 129.69 62.3442 129.732 62.5777C129.774 62.8113 129.763 63.0513 129.7 63.28L123.31 75.68C123.188 75.9165 123.005 76.1161 122.78 76.2585C122.555 76.4008 122.296 76.4807 122.03 76.49H114.31C114.13 76.4693 113.959 76.4055 113.809 76.304C113.66 76.2026 113.537 76.0665 113.452 75.9073C113.366 75.7482 113.32 75.5707 113.318 75.3901C113.316 75.2095 113.358 75.0311 113.44 74.87L119.59 62.7C119.826 62.2855 120.164 61.9378 120.572 61.6895C120.979 61.4411 121.443 61.3002 121.92 61.28Z" fill="#263238"/>
<path d="M122.38 62H128.72C128.91 61.9799 129.102 62.0146 129.273 62.1001C129.444 62.1856 129.586 62.3183 129.684 62.4824C129.782 62.6465 129.831 62.8352 129.825 63.0262C129.819 63.2172 129.758 63.4024 129.65 63.56L123.43 75.67C123.307 75.9058 123.124 76.1049 122.899 76.2471C122.674 76.3893 122.416 76.4697 122.15 76.48H114.48C114.372 76.4764 114.266 76.4462 114.172 76.392C114.078 76.3379 113.999 76.2615 113.942 76.1696C113.885 76.0777 113.851 75.9731 113.844 75.8651C113.836 75.757 113.856 75.6488 113.9 75.55L120.06 63.39C120.291 62.9754 120.627 62.6288 121.034 62.3849C121.441 62.141 121.905 62.0082 122.38 62Z" fill="#455B64"/>
<path d="M111.81 75.81L113.61 75.5C113.61 75.5 118.54 74.69 119.16 74.5C120.053 74.1475 120.921 73.7366 121.76 73.27C121.95 73.15 121.99 72.88 121.76 72.42C121.53 71.96 120.15 72.96 119.39 73C118.773 72.9773 118.175 72.7758 117.67 72.42C117.67 72.42 123.29 70.77 123.52 70.69C123.75 70.61 123.87 69.81 123.37 69.81H118.97C118.97 69.81 122.97 69.47 123.29 69.43C124.1 69.31 124.63 68.97 124.63 68.51C124.63 68.05 123.63 68.04 123.37 68.04H118.51L123.91 67.7V67.27C123.68 66.47 117.36 66.2 117.36 66.2C117.36 66.2 113.89 66.84 112.43 68.08C111.427 68.8095 110.717 69.8735 110.43 71.08L111.81 75.81Z" fill="#A96050"/>
<path d="M93.5099 55.65C95.103 58.1017 96.2663 60.8072 96.9499 63.65L96.8799 74.31L110.47 70.89L112.72 76.47L91.2899 86.82C90.5182 86.8333 89.7516 86.6924 89.035 86.4057C88.3184 86.1189 87.6662 85.692 87.1168 85.15C86.5673 84.6079 86.1315 83.9617 85.835 83.2491C85.5385 82.5365 85.3872 81.7718 85.3899 81C85.3899 73.12 85.3899 59.88 85.3899 57.73C85.5461 54.8976 86.5965 52.1878 88.3899 49.99C90.2684 51.7138 91.9825 53.6086 93.5099 55.65Z" fill="#C2526D"/>
<path d="M127.73 69.58C126.846 69.9417 125.923 70.2001 124.98 70.35C124.854 70.3807 124.723 70.3823 124.597 70.3545C124.47 70.3268 124.352 70.2705 124.25 70.19C124.149 70.0794 124.093 69.9349 124.093 69.785C124.093 69.6351 124.149 69.4906 124.25 69.38C124.44 69.15 124.71 69.15 124.98 69.04C125.86 68.7495 126.754 68.5058 127.66 68.31" fill="#A96050"/>
<path d="M127.35 71.08C126.463 71.4431 125.537 71.7015 124.59 71.85C124.466 71.8857 124.335 71.8898 124.21 71.8618C124.084 71.8339 123.967 71.7748 123.87 71.69C123.767 71.5822 123.71 71.4389 123.71 71.29C123.71 71.1411 123.767 70.9978 123.87 70.89C124.06 70.65 124.33 70.65 124.59 70.54C125.47 70.2507 126.365 70.0071 127.27 69.81" fill="#A96050"/>
<path d="M126.85 72.62C125.966 72.9817 125.043 73.2401 124.1 73.39C123.974 73.4207 123.843 73.4222 123.716 73.3945C123.59 73.3668 123.471 73.3105 123.37 73.23C123.269 73.1194 123.213 72.9749 123.213 72.825C123.213 72.6751 123.269 72.5306 123.37 72.42C123.56 72.19 123.83 72.19 124.1 72.08C124.979 71.7882 125.874 71.5445 126.78 71.35" fill="#A96050"/>
</svg>
