<svg width="320" height="320" viewBox="0 0 320 320" fill="none" xmlns="http://www.w3.org/2000/svg">
<path d="M279.693 202.984C317.018 131.325 258.922 61.6712 191.21 42.0118C158.922 32.665 120.476 35.5729 88.7383 49.7489C73.0254 51.1613 57.8005 56.9459 45.2031 68.297C15.9789 94.603 10.2877 135.417 22.5112 167.404C34.4232 198.56 61.4561 222.311 88.7591 241.576C115.823 260.685 150.334 270.25 185.851 263.385C221.691 256.396 262.796 235.417 279.693 202.984Z" fill="#F7F7F7"/>
<path d="M304.566 278.256C304.566 283.522 192.093 287.904 133.904 287.8C74.6146 287.707 34.0288 282.483 34.0288 277.218C34.0288 271.952 58.1123 266.833 121.816 266.833C185.519 266.833 304.566 273.012 304.566 278.256Z" fill="#E0E0E0"/>
<path d="M131.588 113.92C133.987 112.653 137.549 123.194 133.779 125.011C130.009 126.829 127.143 119.102 127.143 119.102C127.143 119.102 129.085 115.239 131.588 113.909V113.92Z" fill="#C96F32"/>
<path d="M136.043 113.691C137.31 112.331 136.978 109.952 136.937 109.662C136.992 109.845 137.086 110.015 137.214 110.158C137.341 110.302 137.498 110.416 137.674 110.492C137.756 111.128 137.645 111.773 137.354 112.344C137.063 112.915 136.606 113.384 136.043 113.691V113.691Z" fill="#884638"/>
<path d="M95.3018 80.2297C101.211 83.0649 111.378 119.092 111.378 119.092C111.378 119.092 112.946 117.534 113.58 118.655C114.213 119.777 131.557 113.92 131.557 113.92C131.557 113.92 128.036 120.275 133.748 125.011C133.748 125.011 115.231 134.129 108.99 135.396C102.748 136.663 92.9443 104.999 92.9443 104.999L95.3018 80.2297Z" fill="#E28A40"/>
<path d="M127.673 276.75C127.676 277.254 127.644 277.757 127.579 278.256H101.928C101.928 277.747 101.928 277.218 101.928 276.75C102.159 272.482 102.97 268.265 104.337 264.215L110.755 261.463C111.071 264.13 112.417 266.567 114.504 268.255C114.967 268.61 115.461 268.923 115.979 269.19C116.209 269.324 116.449 269.442 116.696 269.543C117.223 269.787 117.768 269.991 118.326 270.156C120.35 270.657 122.408 271.005 124.485 271.194C127.226 271.62 127.6 274.777 127.6 276.709L127.673 276.75Z" fill="#0E3944"/>
<path d="M127.673 276.751C127.676 277.255 127.644 277.758 127.579 278.257H101.928C101.928 277.748 101.928 277.219 101.928 276.751H127.673Z" fill="#ADBEC4"/>
<path d="M116.01 269.192L112.448 270.334L111.7 269.036L114.535 268.257C114.998 268.612 115.492 268.925 116.01 269.192V269.192Z" fill="#ADBEC4"/>
<path d="M118.357 270.157L115.958 271.746L114.483 271.175L116.727 269.545C117.254 269.788 117.799 269.993 118.357 270.157Z" fill="#ADBEC4"/>
<path d="M82.1332 276.751C82.0975 277.263 81.9999 277.769 81.8424 278.257H64.7586C64.5464 277.773 64.3863 277.269 64.2809 276.751C62.5881 268.567 73.9496 258.566 73.9496 258.566L77.5533 263.375C77.5533 263.375 77.1379 271.07 80.1911 272.67C80.897 273.066 81.4628 273.671 81.8106 274.402C82.1584 275.133 82.2711 275.954 82.1332 276.751V276.751Z" fill="#0E3944"/>
<path d="M64.2808 276.751H82.1331C82.0974 277.263 81.9998 277.769 81.8423 278.257H64.7585C64.5463 277.773 64.3862 277.269 64.2808 276.751V276.751Z" fill="#ADBEC4"/>
<path d="M79.4016 272.057C79.4016 272.057 72.2046 270.416 68.9229 272.545V271.35C68.9229 271.35 74.9775 268.411 79.4016 272.057Z" fill="#ADBEC4"/>
<path d="M77.9788 270.228C76.5442 269.63 75.0052 269.322 73.4508 269.322C71.8965 269.322 70.3575 269.63 68.9229 270.228L69.4317 269.034C69.4317 269.034 74.7594 267.019 77.9788 270.228Z" fill="#ADBEC4"/>
<path d="M53.5945 148.389C53.5945 164.642 55.1938 181.196 55.6092 185.392C56.0247 189.588 60.3657 232.708 60.9784 250.82C61.29 260.166 64.281 271.372 64.281 271.372C64.281 271.372 73.1293 264.206 78.1454 269.524L79.402 262.254L77.0549 256.542C77.0549 256.542 79.5681 251.817 77.5119 248.151C75.4556 244.485 74.8221 169.825 74.8221 169.825L78.7789 169.565L97.7632 256.542V261.735C97.7632 261.735 101.917 268.319 101.917 272.525L114.525 268.236L112.448 262.275L113.819 253.769L109.239 242.678C109.239 242.678 96.1327 159.699 97.192 149.968L53.5737 148.358L53.5945 148.389Z" fill="#0A527D"/>
<path d="M98.6872 102.309V105.602C98.6872 107.679 98.6872 109.756 98.6249 111.905C98.6249 112.944 98.6249 114.086 98.6249 115.177C98.5729 117.794 98.5106 120.369 98.4275 122.986C98.4275 124.098 98.3549 125.199 98.3237 126.279C98.2302 129.27 98.116 132.167 98.0121 134.857C97.9602 136.03 97.9083 137.152 97.8667 138.232C97.7629 140.673 97.659 142.895 97.5656 144.775C97.5033 146.115 97.4409 147.299 97.389 148.275C97.2852 150.352 97.2125 151.536 97.2125 151.536C97.2125 151.536 92.0198 157.102 80.6583 158.899C60.5627 162.077 53.7604 152.439 53.7604 152.439C53.7604 152.439 53.6773 151.681 53.5423 150.362C53.4488 149.479 53.3346 148.285 53.1892 146.966C53.023 145.346 52.8361 143.414 52.618 141.265C52.5141 140.219 52.4103 139.118 52.3064 137.962C52.0779 135.553 51.8287 132.956 51.5795 130.225C51.486 129.187 51.3925 128.086 51.299 126.995C51.1017 124.814 50.9148 122.571 50.7382 120.328C50.6448 119.237 50.5617 118.137 50.4786 117.036C50.2813 114.626 50.1047 112.217 49.949 109.859C49.8763 108.727 49.8036 107.627 49.7309 106.536C49.5751 103.961 49.4401 101.468 49.3362 99.1522C49.3362 97.9891 49.2428 96.8675 49.222 95.8082C49.1493 93.3988 49.1181 91.249 49.222 89.4212C49.222 88.0503 49.3258 86.8664 49.4401 85.9214C49.4636 85.1308 49.6585 84.3548 50.0113 83.647C51.9533 80.7806 56.2425 79.4928 64.6753 77.1042C66.9107 76.4776 69.2104 76.1083 71.5296 76.0034C74.5879 75.8482 77.652 75.8482 80.7102 76.0034C87.9799 76.3876 93.6607 77.9454 96.662 81.5284L96.9009 81.8295C97.4527 82.825 97.7889 83.9255 97.8875 85.0594C98.2019 87.1624 98.4064 89.2804 98.5003 91.4048C98.5626 92.4433 98.6145 93.5442 98.6456 94.6969C98.7287 97.0648 98.7807 99.6611 98.791 102.382L98.6872 102.309Z" fill="#FBB778"/>
<path d="M97.7837 85.038C80.2533 81.7147 60.1993 86.2012 49.1182 89.431C49.1182 88.0602 49.222 86.8762 49.3363 85.9312C60.4693 82.7429 79.2875 78.7238 96.5582 81.507L96.7971 81.8082C97.3489 82.8037 97.6851 83.9041 97.7837 85.038V85.038Z" fill="#E28A40"/>
<path d="M98.5421 94.6242C83.6392 92.5471 62.8271 96.0989 49.2846 99.1106C49.2846 97.9475 49.1912 96.8258 49.1704 95.7665C62.6713 92.7548 83.0888 89.2965 98.3967 91.332C98.4591 92.3705 98.511 93.4714 98.5421 94.6242V94.6242Z" fill="#E28A40"/>
<path d="M98.6877 102.309V105.601C83.2759 104.251 63.3777 107.211 49.8768 109.818C49.8041 108.686 49.7314 107.585 49.6587 106.494C63.2219 103.888 82.8917 100.98 98.6669 102.34L98.6877 102.309Z" fill="#E28A40"/>
<path d="M98.6248 111.905C98.6248 112.944 98.6248 114.086 98.6248 115.177C84.8227 115.249 64.9452 118.001 50.7381 120.286C50.6447 119.196 50.5616 118.095 50.4785 116.994C64.7479 114.699 84.5839 111.978 98.6767 111.905H98.6248Z" fill="#E28A40"/>
<path d="M98.4174 122.986C98.4174 124.098 98.3447 125.198 98.3136 126.278C83.5872 127.805 64.9248 129.238 51.5797 130.183C51.4863 129.145 51.3928 128.044 51.2993 126.954C64.8002 125.977 83.6599 124.523 98.4278 122.986H98.4174Z" fill="#E28A40"/>
<path d="M97.9606 134.888C97.9087 136.061 97.8567 137.183 97.8152 138.263C86.3187 140.683 72.2362 141.379 60.3035 141.379C57.5929 141.379 54.9966 141.379 52.5664 141.295C52.4626 140.25 52.3587 139.149 52.2549 137.993C65.5377 138.294 84.0235 137.993 97.9502 134.929L97.9606 134.888Z" fill="#E28A40"/>
<path d="M97.5141 144.774C97.4518 146.114 97.3895 147.298 97.3375 148.274C89.1921 150.94 80.6719 152.283 72.1013 152.252C65.8483 152.241 59.6126 151.594 53.4908 150.32C53.3973 149.437 53.2831 148.243 53.1377 146.924C64.2915 149.344 80.5237 150.725 97.5141 144.774Z" fill="#E28A40"/>
<path d="M69.3387 75.8265C68.4248 75.9616 66.4827 77.2078 66.4412 78.1321C66.2854 81.0296 71.8519 83.4286 76.9615 83.0236C82.0711 82.6185 82.0711 79.8457 81.1156 78.4748C80.1602 77.1039 77.8443 74.653 69.3387 75.8265Z" fill="#C96F32"/>
<path d="M80.1082 69.9899L78.3011 80.6764C78.3011 80.6764 75.414 82.3276 68.6844 78.5993C68.6844 78.5993 71.4261 70.3638 67.9678 64.9426C67.9678 64.9426 68.7363 64.9426 69.941 64.9426C69.941 64.9426 71.6546 71.07 80.1082 70.0003V69.9899Z" fill="#884638"/>
<path d="M83.8779 51.0162C83.8779 51.0162 86.9935 48.4926 84.1686 47.6722C84.1686 47.6722 85.3526 44.5566 84.0025 44.0789C82.6524 43.6011 81.2711 44.8162 80.5234 43.4973C79.7757 42.1783 78.1452 40.0597 75.2581 42.1368C72.3709 44.2139 70.7612 40.7971 69.5254 41.8979C68.2895 42.9988 69.0373 44.7851 67.0225 45.0135C65.0078 45.242 63.0969 45.7509 63.5642 47.7864C64.0315 49.8219 61.7883 49.9466 61.6845 51.1824C61.5806 52.4183 62.5361 52.7714 62.6191 53.8307C62.7022 54.89 61.2067 55.3261 61.7468 56.9463C62.2868 58.5664 63.8238 58.2963 63.6888 59.4283C63.5538 60.5603 62.5672 63.0736 64.0212 63.4371C65.4751 63.8006 66.0151 66.345 67.7079 65.9815C69.4007 65.618 83.8779 51.0162 83.8779 51.0162Z" fill="#0E3944"/>
<path d="M65.828 59.8023C65.4645 69.9279 79.9209 74.2794 82.6418 69.4606C83.5038 67.9132 84.3658 63.6137 84.7189 60.6539C84.7881 59.9615 84.8401 59.2691 84.8747 58.5768C85.0824 53.9553 84.2619 49.365 81.6137 48.3473C72.3811 44.8059 66.3161 47.3087 65.8592 59.7711L65.828 59.8023Z" fill="#A96050"/>
<path d="M68.726 59.958C68.726 59.958 68.5079 56.292 70.7303 54.163C72.9528 52.0341 71.0211 48.9704 71.0211 48.9704C71.0211 48.9704 79.9213 47.4645 83.8885 51.0475C83.8885 51.0475 86.8483 45.8548 78.3843 43.705C69.9203 41.5553 56.1597 48.15 67.7186 66.0127L65.8285 59.7815L68.726 59.9373V59.958Z" fill="#0E3944"/>
<path d="M68.4452 59.5006C68.4452 59.5006 66.4512 57.1119 64.5611 58.5451C62.671 59.9783 65.7762 64.3505 67.791 64.2155C69.8057 64.0805 68.4452 59.5006 68.4452 59.5006V59.5006Z" fill="#A96050"/>
<path d="M93.0483 110.856C93.0325 110.579 92.947 110.31 92.7998 110.075C92.6527 109.84 92.4486 109.645 92.2063 109.51C91.9641 109.374 91.6916 109.302 91.414 109.299C91.1364 109.297 90.8626 109.364 90.6181 109.496C88.7799 110.223 87.1598 110.877 85.4255 109.62C84.3638 108.875 83.6416 107.739 83.4176 106.461C83.1936 105.184 83.4863 103.87 84.2311 102.808C86.2043 100.211 89.1538 100.907 91.397 102.693C91.613 102.865 91.8663 102.983 92.1365 103.039C92.4068 103.094 92.6862 103.085 92.9523 103.012C93.2183 102.939 93.4634 102.805 93.6678 102.619C93.8721 102.434 94.0299 102.203 94.1283 101.946L94.8865 95.5172L95.3953 91.2384V91.0931L91.937 90.688L66.2853 87.6763L64.9768 87.5205V87.6763L64.5198 91.6227L63.7098 98.4978L63.6475 98.6016L62.6089 106.993V107.107L61.3315 117.949H61.4873V118.033L65.4337 118.489L72.3088 119.3C73.2746 119.767 73.0566 120.878 72.3088 121.792C70.5225 124.035 70.4083 127.161 73.015 129.134C74.0635 129.9 75.3722 130.221 76.656 130.026C77.9398 129.832 79.0947 129.138 79.8693 128.096C80.4211 127.356 80.747 126.472 80.8078 125.55C80.8686 124.629 80.6617 123.71 80.212 122.903C79.7655 121.865 79.9005 120.525 80.9078 120.286L91.7501 121.564L92.2798 117.108L93.0483 110.856Z" fill="#A42A29"/>
<path d="M64.8002 124.243C66.9603 124.243 68.1754 134.151 63.959 135.2C63.959 135.2 58.891 124.337 64.8002 124.243Z" fill="#C96F32"/>
<path d="M64.7067 133.206C65.631 133.579 72.1114 135.885 73.3992 135.708H73.5342C74.7908 135.459 76.1928 134.244 77.0652 133.922C77.9376 133.6 78.2907 132.728 79.08 132.136C79.7037 131.463 80.1499 130.646 80.3781 129.758C80.3781 129.758 83.0783 127.338 81.9463 127.016C80.5339 126.611 78.9449 128.054 78.9449 128.054L75.4451 128.646C75.4451 128.646 71.291 126.985 71.426 126.144C71.561 125.302 73.3369 125.998 74.8635 125.874C75.9021 125.79 75.9021 124.7 75.9021 124.7L73.3057 124.046C73.3057 124.046 69.5359 123.433 68.7258 123.765C67.9158 124.098 64.9248 125.988 64.9248 125.988L59.3271 125.863L58.2886 133.133C58.2886 133.133 63.7824 132.842 64.7067 133.216V133.206Z" fill="#A96050"/>
<path d="M73.4926 135.688C74.7492 135.438 76.1512 134.223 77.0236 133.901C77.8959 133.579 78.249 132.707 79.0383 132.115C79.6621 131.443 80.1083 130.625 80.3365 129.737C79.6511 130.308 76.3485 130.91 76.0889 131.18C75.8293 131.45 76.2343 131.731 76.0889 132.292C75.9435 132.852 74.8011 132.863 74.8634 133.455C74.9091 133.603 74.9243 133.76 74.908 133.914C74.8917 134.069 74.8443 134.219 74.7686 134.355C74.6929 134.49 74.5905 134.609 74.4676 134.705C74.3447 134.8 74.2038 134.869 74.0534 134.909C73.8943 134.974 73.7556 135.081 73.6515 135.218C73.5474 135.355 73.4818 135.517 73.4614 135.688H73.4926Z" fill="#884638"/>
<path d="M49.9078 83.5951C55.6613 86.6276 57.7072 99.2354 57.0944 104.366L50.7594 121.2C50.7594 121.2 51.9952 123.464 50.9775 123.869L64.8003 124.264C64.8003 124.264 61.2589 127.951 63.9591 135.22C63.9591 135.22 45.8887 140.631 38.1516 135.22C35.9188 133.652 34.7141 129.187 35.2749 125.874C38.0209 111.121 42.9529 96.8609 49.9078 83.564V83.5951Z" fill="#E28A40"/>
<path d="M240.021 275.09H157.375C155.012 275.089 152.671 274.622 150.488 273.716C148.305 272.81 146.322 271.483 144.652 269.811C142.981 268.139 141.657 266.154 140.754 263.97C139.851 261.786 139.386 259.445 139.388 257.082V49.9053C139.388 45.1293 141.285 40.5488 144.662 37.1717C148.039 33.7945 152.62 31.8972 157.396 31.8972L240.042 31.9491C242.406 31.9505 244.746 32.4174 246.929 33.3231C249.112 34.2288 251.095 35.5557 252.765 37.2279C254.436 38.9001 255.76 40.8849 256.663 43.069C257.567 45.2531 258.031 47.5938 258.029 49.9573V257.144C258.016 261.91 256.112 266.476 252.736 269.84C249.36 273.205 244.787 275.093 240.021 275.09Z" fill="#263238"/>
<path d="M240 39.2702H223.976C223.453 39.281 222.938 39.3946 222.46 39.6045C221.981 39.8144 221.549 40.1166 221.187 40.4937C220.825 40.8707 220.542 41.3154 220.352 41.8022C220.162 42.289 220.07 42.8084 220.081 43.3308V46.2387C220.103 47.2947 219.706 48.3164 218.976 49.0796C218.246 49.8428 217.243 50.2852 216.187 50.3097H184.958C183.902 50.2852 182.899 49.8428 182.169 49.0796C181.439 48.3164 181.041 47.2947 181.064 46.2387V43.3308C181.076 42.8084 180.985 42.2887 180.797 41.8014C180.608 41.314 180.326 40.8686 179.965 40.4906C179.604 40.1125 179.173 39.8092 178.695 39.598C178.217 39.3868 177.702 39.2719 177.179 39.2598H157.52C154.185 39.257 150.985 40.5755 148.62 42.9268C146.255 45.278 144.918 48.4704 144.902 51.8052V254.028C144.902 257.373 146.23 260.58 148.594 262.947C150.958 265.313 154.165 266.643 157.51 266.646H239.979C241.636 266.647 243.276 266.322 244.807 265.689C246.338 265.056 247.729 264.128 248.901 262.957C250.073 261.786 251.003 260.396 251.637 258.865C252.271 257.335 252.597 255.695 252.597 254.038V51.8156C252.581 48.4844 251.247 45.2951 248.887 42.9445C246.526 40.5938 243.331 39.2729 240 39.2702V39.2702Z" fill="white"/>
<path d="M233.167 140.392V131.917C233.143 131.882 233.126 131.844 233.115 131.803V120.722H221.909C221.692 120.62 221.502 120.468 221.354 120.28C221.206 120.091 221.104 119.87 221.056 119.635C221.009 119.4 221.017 119.157 221.081 118.925C221.144 118.694 221.26 118.48 221.421 118.302C223.218 115.758 223 112.704 220.175 111.032C219.041 110.392 217.699 110.226 216.444 110.573C215.188 110.919 214.121 111.749 213.476 112.881C213.04 113.766 212.847 114.751 212.918 115.735C212.99 116.719 213.322 117.666 213.881 118.479C214.421 119.424 214.359 120.296 213.456 120.701H202.385V131.658C202.456 131.925 202.589 132.172 202.774 132.379C202.958 132.585 203.188 132.746 203.446 132.847C203.704 132.948 203.982 132.987 204.258 132.961C204.533 132.934 204.799 132.844 205.033 132.696C207.474 131.169 210.496 130.827 212.147 133.652C212.763 134.796 212.901 136.139 212.529 137.385C212.157 138.631 211.306 139.678 210.163 140.298C208.242 141.337 206.705 140.495 204.971 139.561C204.744 139.402 204.482 139.301 204.206 139.27C203.931 139.238 203.653 139.275 203.396 139.378C203.139 139.481 202.912 139.647 202.735 139.86C202.559 140.074 202.438 140.328 202.385 140.599V151.504H210.163H226.853H233.084V140.506L233.167 140.392Z" fill="#E6E7E8" stroke="#D1D3D4" stroke-width="0.5" stroke-miterlimit="10" stroke-dasharray="2 2"/>
<path d="M212.157 133.693C210.496 130.868 207.474 131.211 205.033 132.738C204.766 132.904 204.459 132.997 204.144 133.005C203.83 133.013 203.519 132.937 203.243 132.784C202.968 132.632 202.738 132.408 202.578 132.137C202.418 131.866 202.333 131.557 202.333 131.242V121.023H191.439C191.197 121.11 190.977 121.25 190.794 121.431C190.612 121.612 190.471 121.831 190.382 122.073C190.293 122.314 190.258 122.572 190.279 122.828C190.3 123.085 190.377 123.334 190.504 123.557C191.543 125.271 192.342 126.963 191.304 128.885C190.657 130.011 189.592 130.838 188.34 131.184C187.087 131.53 185.749 131.368 184.616 130.733C181.791 129.072 182.134 126.05 183.66 123.609C183.799 123.385 183.887 123.132 183.915 122.869C183.944 122.607 183.913 122.341 183.825 122.092C183.738 121.843 183.595 121.616 183.408 121.43C183.222 121.243 182.995 121.1 182.746 121.013H171.385L171.613 131.959V151.504H202.333V141.119C202.334 140.81 202.417 140.508 202.571 140.241C202.726 139.975 202.947 139.753 203.214 139.599C203.481 139.444 203.783 139.363 204.092 139.361C204.4 139.36 204.703 139.44 204.971 139.592C206.695 140.568 208.388 141.42 210.309 140.381C211.438 139.736 212.266 138.671 212.612 137.418C212.958 136.165 212.795 134.826 212.157 133.693V133.693Z" fill="#221F1F"/>
<path d="M233.157 120.349L232.783 90.2314H232.637L202.063 90.6053L202.188 101.094C202.19 101.409 202.109 101.718 201.953 101.991C201.796 102.263 201.569 102.489 201.296 102.645C201.023 102.8 200.713 102.88 200.399 102.876C200.085 102.872 199.777 102.784 199.508 102.621C197.047 101.136 194.025 100.824 192.394 103.66C191.768 104.849 191.619 106.232 191.978 107.527C192.337 108.822 193.177 109.931 194.326 110.628C196.258 111.667 197.94 110.774 199.654 109.777C199.892 109.603 200.173 109.497 200.467 109.469C200.76 109.441 201.056 109.493 201.323 109.618C201.591 109.743 201.819 109.937 201.986 110.181C202.152 110.424 202.251 110.708 202.271 111.002L202.395 121.387L213.165 121.252C213.423 121.178 213.661 121.046 213.861 120.866C214.06 120.686 214.216 120.463 214.316 120.213C214.416 119.964 214.458 119.695 214.439 119.427C214.419 119.159 214.339 118.899 214.203 118.666C213.165 116.953 212.324 115.281 213.341 113.349C213.972 112.209 215.029 111.365 216.28 111.001C217.531 110.637 218.875 110.783 220.019 111.407C222.865 113.027 222.553 116.06 221.058 118.521C220.915 118.759 220.829 119.027 220.809 119.304C220.789 119.58 220.835 119.858 220.942 120.114C221.049 120.37 221.215 120.597 221.426 120.777C221.638 120.956 221.889 121.084 222.158 121.148L228.649 121.065H232.97H233.125V120.349H233.157Z" fill="#D3504F"/>
<path d="M202.343 110.722C202.291 110.45 202.172 110.196 201.997 109.983C201.821 109.769 201.595 109.603 201.339 109.5C201.082 109.396 200.804 109.359 200.53 109.391C200.255 109.423 199.993 109.523 199.768 109.683C198.044 110.628 196.507 111.48 194.575 110.441C193.435 109.827 192.584 108.786 192.208 107.547C191.833 106.307 191.963 104.97 192.571 103.826C194.222 101.001 197.234 101.333 199.674 102.849C199.907 102.995 200.171 103.084 200.445 103.109C200.719 103.134 200.995 103.095 201.25 102.994C201.506 102.893 201.734 102.733 201.917 102.528C202.099 102.322 202.231 102.077 202.302 101.811V95.3305V91.031V90.8752H198.812L172.984 90.9791H171.634V91.1349V95.1021V102.019C171.634 102.019 171.634 102.102 171.634 102.133V110.587C171.634 110.587 171.634 110.659 171.634 110.701V121.616H171.79V121.699H175.767H182.684C183.722 122.042 183.618 123.174 182.995 124.171C181.489 126.611 181.759 129.727 184.584 131.378C185.718 132.009 187.056 132.166 188.306 131.813C189.555 131.461 190.614 130.629 191.252 129.498C191.71 128.698 191.929 127.783 191.881 126.862C191.833 125.941 191.521 125.054 190.982 124.306C190.41 123.319 190.379 121.99 191.355 121.637H202.27V117.15L202.343 110.722Z" fill="#E6E7E8"/>
<path d="M202.27 91.8613V90.9785V90.8228L201.232 90.8331" stroke="#D1D3D4" stroke-width="0.5" stroke-miterlimit="10"/>
<path d="M199.134 90.833L198.781 90.8434L175.04 90.9265" stroke="#D1D3D4" stroke-width="0.5" stroke-miterlimit="10" stroke-dasharray="2.02 2.02"/>
<path d="M174.002 90.9368H172.963H171.634V91.0926L171.644 91.9753" stroke="#D1D3D4" stroke-width="0.5" stroke-miterlimit="10"/>
<path d="M171.654 94.1775V95.0602V101.977C171.654 101.977 171.654 102.06 171.654 102.091V110.545C171.654 110.545 171.654 110.617 171.654 110.659V119.435" stroke="#D1D3D4" stroke-width="0.5" stroke-miterlimit="10" stroke-dasharray="2.12 2.12"/>
<path d="M171.748 120.535V121.574H171.904V121.657L172.942 121.646" stroke="#D1D3D4" stroke-width="0.5" stroke-miterlimit="10"/>
<path d="M174.988 121.647H175.881H182.798C183.837 121.99 183.733 123.122 183.11 124.119C181.604 126.559 181.874 129.675 184.699 131.326C185.833 131.957 187.171 132.114 188.42 131.762C189.669 131.409 190.728 130.577 191.366 129.446C191.825 128.646 192.043 127.731 191.995 126.81C191.947 125.889 191.635 125.002 191.096 124.254C190.525 123.267 190.494 121.938 191.47 121.585H200.318" stroke="#D1D3D4" stroke-width="0.5" stroke-miterlimit="10" stroke-dasharray="1.97 1.97"/>
<path d="M201.346 121.543H202.385V120.504" stroke="#D1D3D4" stroke-width="0.5" stroke-miterlimit="10"/>
<path d="M202.374 118.095L202.364 117.057V116.018" stroke="#D1D3D4" stroke-width="0.5" stroke-miterlimit="10"/>
<path d="M202.353 113.961V110.721C202.302 110.449 202.182 110.195 202.007 109.982C201.831 109.768 201.605 109.602 201.349 109.499C201.093 109.396 200.814 109.358 200.54 109.39C200.266 109.422 200.003 109.523 199.778 109.682C198.054 110.627 196.517 111.479 194.585 110.44C193.445 109.826 192.594 108.786 192.218 107.546C191.843 106.307 191.973 104.969 192.581 103.825C194.232 101 197.244 101.332 199.684 102.849C199.917 102.995 200.181 103.084 200.455 103.109C200.729 103.134 201.005 103.094 201.26 102.993C201.516 102.892 201.744 102.732 201.927 102.527C202.11 102.321 202.241 102.076 202.312 101.81V95.3298V92.9412" stroke="#D1D3D4" stroke-width="0.5" stroke-miterlimit="10" stroke-dasharray="1.97 1.97"/>
<path d="M243.978 239.863C254.197 241.4 222.895 242.438 196.569 242.418C176.837 242.418 153.927 241.379 159.368 239.697C160.158 239.447 166.898 238.066 186.817 238.066C233.166 238.066 243.157 239.78 243.978 239.863Z" fill="#E0E0E0"/>
<path d="M193.121 183.864C193.121 182.888 193.048 181.912 193.121 180.936C193.194 179.96 193.121 179.014 193.121 178.049C193.121 177.571 193.121 177.093 193.121 176.605C193.121 176.366 193.121 176.117 193.069 175.889C193.075 175.714 193.024 175.543 192.924 175.4H192.861C192.768 175.545 192.725 175.717 192.737 175.889C192.737 176.127 192.737 176.366 192.737 176.605C192.737 177.104 192.737 177.644 192.737 178.111C192.737 179.077 192.81 180.032 192.882 180.998C192.955 181.964 192.996 182.909 193.048 183.864C193.1 184.82 193.111 185.806 193.235 186.762C193.235 186.866 193.433 186.835 193.422 186.762C193.298 185.775 193.163 184.82 193.121 183.864Z" fill="white"/>
<path d="M211.763 174.945C211.688 174.846 211.597 174.762 211.493 174.696C211.405 174.642 211.311 174.6 211.212 174.571C211.116 174.556 211.018 174.556 210.921 174.571C210.866 174.565 210.81 174.57 210.756 174.586C210.703 174.602 210.653 174.629 210.61 174.664V174.664C210.593 174.676 210.579 174.691 210.569 174.709C210.559 174.727 210.554 174.748 210.554 174.768C210.554 174.789 210.559 174.809 210.569 174.827C210.579 174.845 210.593 174.861 210.61 174.872H210.683H210.766H210.818H210.88L211.036 174.955L211.15 175.049C211.212 175.049 211.275 175.173 211.347 175.225C211.404 175.245 211.467 175.245 211.524 175.225C211.583 175.22 211.638 175.194 211.68 175.153C211.707 175.125 211.728 175.093 211.743 175.057C211.757 175.022 211.764 174.983 211.763 174.945V174.945Z" fill="white"/>
<path d="M211.129 175.111C211.129 175.111 211.139 175.121 211.129 175.111V175.111Z" fill="white"/>
<path d="M231.972 188.216H172.797C171.667 188.216 170.751 189.132 170.751 190.262V234.68C170.751 235.81 171.667 236.726 172.797 236.726H231.972C233.102 236.726 234.018 235.81 234.018 234.68V190.262C234.018 189.132 233.102 188.216 231.972 188.216Z" fill="#929497"/>
<path d="M225.751 193.834H179.018C177.653 193.834 176.546 194.94 176.546 196.305V229.808C176.546 231.173 177.653 232.28 179.018 232.28H225.751C227.117 232.28 228.223 231.173 228.223 229.808V196.305C228.223 194.94 227.117 193.834 225.751 193.834Z" fill="#221F1F" fill-opacity="0.2"/>
<path d="M178.041 236.621H174.095C173.103 236.621 172.298 237.425 172.298 238.418V238.428C172.298 239.42 173.103 240.225 174.095 240.225H178.041C179.034 240.225 179.838 239.42 179.838 238.428V238.418C179.838 237.425 179.034 236.621 178.041 236.621Z" fill="#929497"/>
<path d="M178.623 237.255C178.026 236.994 177.374 236.88 176.723 236.923C176.031 236.879 175.337 236.879 174.646 236.923C174.045 236.924 173.464 237.137 173.005 237.525C172.785 237.711 172.64 237.97 172.597 238.254C172.553 238.538 172.613 238.829 172.766 239.072C172.818 239.122 172.881 239.157 172.951 239.174C173.02 239.191 173.092 239.191 173.161 239.172C173.23 239.153 173.293 239.117 173.344 239.067C173.395 239.017 173.432 238.954 173.451 238.885C173.455 238.71 173.48 238.536 173.524 238.366C173.612 238.191 173.765 238.057 173.95 237.992C174.39 237.854 174.849 237.787 175.31 237.795C175.84 237.795 176.349 237.743 176.889 237.733C177.439 237.785 177.994 237.743 178.53 237.608C178.564 237.597 178.595 237.577 178.62 237.55C178.645 237.524 178.663 237.492 178.672 237.457C178.682 237.422 178.682 237.385 178.673 237.35C178.665 237.314 178.648 237.282 178.623 237.255Z" fill="#221F1F" fill-opacity="0.2"/>
<path d="M230.197 236.621H226.25C225.258 236.621 224.454 237.425 224.454 238.418V238.428C224.454 239.42 225.258 240.225 226.25 240.225H230.197C231.189 240.225 231.993 239.42 231.993 238.428V238.418C231.993 237.425 231.189 236.621 230.197 236.621Z" fill="#929497"/>
<path d="M230.778 237.256C230.181 236.994 229.529 236.88 228.878 236.923C228.203 236.882 227.527 236.882 226.853 236.923C226.251 236.921 225.669 237.135 225.212 237.526C224.99 237.71 224.844 237.97 224.8 238.254C224.756 238.539 224.817 238.83 224.973 239.073C225.024 239.123 225.086 239.158 225.155 239.176C225.224 239.194 225.296 239.193 225.364 239.174C225.433 239.155 225.495 239.119 225.545 239.068C225.594 239.018 225.63 238.955 225.648 238.886C225.66 238.711 225.688 238.537 225.731 238.367C225.818 238.195 225.966 238.061 226.146 237.993C226.587 237.856 227.046 237.789 227.507 237.796C228.033 237.796 228.563 237.775 229.096 237.734C229.642 237.786 230.194 237.744 230.726 237.609C230.758 237.593 230.785 237.57 230.805 237.542C230.826 237.513 230.839 237.48 230.844 237.446C230.849 237.411 230.846 237.376 230.834 237.343C230.823 237.31 230.804 237.28 230.778 237.256V237.256Z" fill="#221F1F" fill-opacity="0.2"/>
<path d="M202.156 199.484H181.853C181.084 199.484 180.461 200.107 180.461 200.875V208.207C180.461 208.976 181.084 209.599 181.853 209.599H202.156C202.925 209.599 203.548 208.976 203.548 208.207V200.875C203.548 200.107 202.925 199.484 202.156 199.484Z" fill="#929497"/>
<path d="M208.844 201.883C208.844 201.338 208.403 200.896 207.858 200.896C207.313 200.896 206.871 201.338 206.871 201.883C206.871 202.428 207.313 202.87 207.858 202.87C208.403 202.87 208.844 202.428 208.844 201.883Z" fill="#929497"/>
<path d="M211.732 201.883C211.732 201.338 211.29 200.896 210.745 200.896C210.2 200.896 209.758 201.338 209.758 201.883C209.758 202.428 210.2 202.87 210.745 202.87C211.29 202.87 211.732 202.428 211.732 201.883Z" fill="#929497"/>
<path d="M214.619 201.883C214.619 201.338 214.177 200.896 213.632 200.896C213.087 200.896 212.646 201.338 212.646 201.883C212.646 202.428 213.087 202.87 213.632 202.87C214.177 202.87 214.619 202.428 214.619 201.883Z" fill="#929497"/>
<path d="M208.844 204.73C208.844 204.185 208.403 203.743 207.858 203.743C207.313 203.743 206.871 204.185 206.871 204.73C206.871 205.275 207.313 205.716 207.858 205.716C208.403 205.716 208.844 205.275 208.844 204.73Z" fill="#929497"/>
<path d="M211.732 204.709C211.732 204.164 211.29 203.723 210.745 203.723C210.2 203.723 209.758 204.164 209.758 204.709C209.758 205.254 210.2 205.696 210.745 205.696C211.29 205.696 211.732 205.254 211.732 204.709Z" fill="#929497"/>
<path d="M214.619 204.709C214.619 204.164 214.177 203.723 213.632 203.723C213.087 203.723 212.646 204.164 212.646 204.709C212.646 205.254 213.087 205.696 213.632 205.696C214.177 205.696 214.619 205.254 214.619 204.709Z" fill="#929497"/>
<path d="M208.844 207.834C208.844 207.289 208.403 206.847 207.858 206.847C207.313 206.847 206.871 207.289 206.871 207.834C206.871 208.379 207.313 208.82 207.858 208.82C208.403 208.82 208.844 208.379 208.844 207.834Z" fill="#929497"/>
<path d="M211.732 207.834C211.732 207.289 211.29 206.847 210.745 206.847C210.2 206.847 209.758 207.289 209.758 207.834C209.758 208.379 210.2 208.82 210.745 208.82C211.29 208.82 211.732 208.379 211.732 207.834Z" fill="#929497"/>
<path d="M214.619 207.834C214.619 207.289 214.177 206.847 213.632 206.847C213.087 206.847 212.646 207.289 212.646 207.834C212.646 208.379 213.087 208.82 213.632 208.82C214.177 208.82 214.619 208.379 214.619 207.834Z" fill="#929497"/>
<path d="M220.569 208.353C222.422 208.353 223.924 206.851 223.924 204.998C223.924 203.146 222.422 201.644 220.569 201.644C218.717 201.644 217.215 203.146 217.215 204.998C217.215 206.851 218.717 208.353 220.569 208.353Z" fill="#929497"/>
<path d="M220.569 207.626C222.021 207.626 223.197 206.45 223.197 204.999C223.197 203.547 222.021 202.371 220.569 202.371C219.118 202.371 217.942 203.547 217.942 204.999C217.942 206.45 219.118 207.626 220.569 207.626Z" fill="#221F1F"/>
<path d="M284.574 252.574C284.445 252.329 284.256 252.12 284.026 251.966C283.795 251.812 283.529 251.719 283.253 251.696C282.976 251.672 282.698 251.718 282.445 251.83C282.191 251.942 281.97 252.116 281.801 252.336C280.44 253.758 279.236 255.025 277.096 254.62C275.822 254.378 274.696 253.642 273.964 252.571C273.232 251.5 272.954 250.183 273.191 248.908C273.908 245.731 276.878 245.139 279.661 245.793C279.93 245.861 280.21 245.864 280.48 245.802C280.75 245.741 281.002 245.617 281.215 245.439C281.427 245.262 281.595 245.037 281.704 244.783C281.813 244.528 281.861 244.252 281.842 243.975L279.879 237.807L278.561 233.715V233.569L275.237 234.608L250.645 242.48L249.388 242.885V243.03L250.593 246.811L252.67 253.405C252.675 253.447 252.675 253.489 252.67 253.53L255.246 261.579L255.329 261.662L258.652 272.047H258.797V272.13L262.578 270.915L269.172 268.838C270.211 268.838 270.502 269.97 270.211 271.102C269.515 273.885 270.709 276.783 273.887 277.499C275.161 277.761 276.486 277.508 277.573 276.795C278.661 276.083 279.423 274.97 279.692 273.698C279.886 272.802 279.817 271.869 279.495 271.011C279.173 270.153 278.61 269.406 277.875 268.859C277.034 268.09 276.608 266.833 277.429 266.2L287.814 262.866L286.443 258.598L284.574 252.574Z" fill="#EBB043"/>
</svg>
