<svg width="320" height="320" viewBox="0 0 320 320" fill="none" xmlns="http://www.w3.org/2000/svg">
<path d="M38.2021 217.885C-10.7957 153.022 28.8735 65.1418 99.0643 57.3181C104.498 56.6813 167.353 54.407 201.135 63.4133C216.985 62.3216 242.344 59.7744 256.745 68.9626C290.165 90.3413 294.24 108.991 287.448 142.378C280.836 175.037 257.922 202.602 234.103 225.891C210.464 248.998 177.769 263.827 141.36 262.553C104.68 261.371 60.3914 247.179 38.2021 217.885Z" fill="#F7F7F7"/>
<path d="M287.72 252.91C300.037 253.546 305.471 256.276 286.814 258.914C275.584 260.551 255.025 260.642 222.601 261.734C142.176 264.463 31.7723 259.551 31.7723 257.276C31.7723 255.548 51.5163 252.728 99.2461 252C114.009 251.818 133.3 249.453 153.859 249.453C240.805 249.544 252.217 251.181 287.72 252.91Z" fill="#E0E0E0"/>
<path opacity="0.8" d="M265.53 227.528H54.7764C49.2517 227.528 44.7232 222.98 44.7232 217.43V115.177H275.583V217.521C275.583 223.071 271.055 227.528 265.53 227.528Z" fill="#F5F5F5"/>
<path d="M265.53 227.528L101.329 227.71L60.3011 227.801H55.1387C53.4179 227.892 51.6065 227.437 50.0668 226.619C48.5272 225.8 47.1686 224.617 46.1724 223.162C45.1761 221.706 44.5421 219.978 44.4516 218.158C44.361 211.244 44.4516 204.421 44.361 197.507L44.2704 115.086V114.631H44.7233L275.583 114.995H275.674V115.086L275.583 174.127V203.693V211.062V214.792C275.583 216.066 275.583 217.248 275.493 218.522C275.221 220.978 274.044 223.344 272.232 224.981C270.421 226.619 267.976 227.528 265.53 227.528ZM265.53 227.528C267.976 227.528 270.421 226.619 272.232 224.89C274.044 223.253 275.221 220.887 275.493 218.431C275.583 217.248 275.493 215.975 275.583 214.701V210.971V203.602V174.036L275.493 114.995L275.583 115.086L44.7233 115.632L45.1761 115.177L45.0855 197.598C45.0855 204.421 44.995 211.335 45.0855 218.158C45.1761 219.796 45.8101 221.433 46.7158 222.798C47.6215 224.162 48.8894 225.345 50.4291 226.073C51.8782 226.801 53.599 227.164 55.2292 227.164H60.3917L101.419 227.255L265.53 227.528Z" fill="#A42A29"/>
<path d="M275.583 134.554H44.7232V89.6134C44.7232 84.064 49.2516 79.5154 54.7763 79.5154H265.53C271.055 79.5154 275.583 84.064 275.583 89.6134V134.554Z" fill="#A42A29"/>
<path d="M199.143 149.746C198.147 147.927 189.996 157.843 192.26 163.847C194.524 169.942 199.143 168.942 199.143 168.942C199.143 168.942 202.042 155.114 199.143 149.746Z" fill="#082930"/>
<path d="M188.819 134.918C188.819 134.918 188.819 134.918 193.347 140.285C197.875 145.653 196.698 146.107 195.883 149.837C195.068 153.294 188.637 152.567 186.102 151.475C183.928 150.565 178.131 151.93 176.501 150.747C175.867 150.292 176.501 150.019 178.403 149.837C180.577 149.655 182.569 148.655 182.569 148.655C181.211 146.653 173.331 148.2 172.154 145.834C171.61 144.652 181.03 146.744 181.935 145.562C181.935 145.562 181.482 144.743 176.954 143.378C174.328 142.559 171.701 141.741 171.52 140.922C171.248 139.284 176.411 141.923 182.932 142.559C182.932 142.559 180.305 141.195 177.769 140.103C175.414 139.102 173.15 138.466 173.694 137.465C174.146 136.646 177.679 138.284 180.033 139.284C184.381 141.104 187.913 141.468 189.724 141.468C190.63 141.468 191.083 141.468 191.083 141.468C186.917 135.373 188.819 134.918 188.819 134.918Z" fill="#8F5045"/>
<path d="M191.083 141.195C191.083 141.195 190.63 144.288 192.26 145.925C192.26 145.925 188.819 144.925 189.634 141.195C190.54 141.286 191.083 141.195 191.083 141.195Z" fill="#703E38"/>
<path d="M196.607 145.653L200.955 156.296L196.607 166.485C196.607 166.485 193.347 154.386 192.169 150.656C191.083 146.744 196.607 145.653 196.607 145.653Z" fill="#8F5045"/>
<path d="M246.239 129.187C246.239 129.187 231.114 134.736 226.586 138.921L214.269 177.22C214.269 177.22 213.816 174.582 213.001 175.674L199.144 149.746C199.144 149.746 198.872 163.847 192.26 163.847C192.26 163.847 205.846 201.419 213.363 203.512C220.971 205.604 233.922 172.49 233.922 172.49L246.239 129.187Z" fill="#0E3944"/>
<path d="M267.523 229.439C269.697 229.257 271.78 229.166 273.954 228.984C274.316 214.064 264.172 152.566 264.172 152.566C264.172 152.566 238.451 150.201 237.001 156.933C229.394 192.413 208.382 227.983 208.382 227.983C213.816 222.343 252.851 224.799 267.523 229.439Z" fill="#082930"/>
<path d="M254.3 124.547C254.3 124.547 263.991 120.271 272.595 123.455L274.044 135.828C274.044 135.828 253.485 143.378 246.873 141.104C240.262 138.921 238.541 133.644 254.3 124.547Z" fill="#C96F32"/>
<path d="M243.522 230.44C247.779 230.349 252.036 230.167 256.293 229.985C255.568 218.431 249.862 207.332 250.406 196.779L227.039 196.234C223.054 205.513 220.337 217.521 218.525 229.803C226.948 229.894 235.281 230.621 243.522 230.44Z" fill="#0E3944"/>
<path d="M243.522 230.439C254.843 230.167 266.255 229.621 277.576 228.62C275.131 208.788 262.089 197.871 262.089 197.871L227.129 196.234C227.129 196.234 229.575 215.611 235.552 230.349C238.269 230.53 240.896 230.53 243.522 230.439Z" fill="#0E3944"/>
<path d="M216.714 229.894C225.68 229.803 234.737 230.712 243.522 230.439C255.387 230.167 267.251 229.621 279.116 228.529C275.946 206.241 270.24 190.411 267.704 184.134C267.704 184.134 298.226 145.744 283.826 133.371C283.01 132.643 282.195 132.007 281.29 131.461C267.885 122.818 247.417 129.187 243.704 130.369C243.341 130.46 243.16 130.551 243.16 130.551C243.16 130.551 214.993 149.928 231.114 177.584C231.024 177.675 224.503 201.055 216.714 229.894Z" fill="#E41E26"/>
<path d="M275.221 88.3394C275.221 88.3394 281.38 81.9713 287.358 87.4296C293.335 92.888 287.086 104.169 287.358 106.261C287.629 108.353 292.52 108.808 291.343 111.447C290.165 114.085 287.086 114.449 287.358 115.722C287.629 116.996 290.618 118.997 289.35 120.362C288.082 121.635 285.365 120.271 285.546 122.545C285.727 124.82 287.267 127.731 284.55 128.004C284.55 128.004 286.633 125.456 284.731 124.638C282.829 123.819 281.38 124.729 280.565 121.999C279.75 119.361 283.644 118.269 281.923 116.814C280.203 115.358 276.308 115.358 278.12 112.993C279.931 110.628 280.565 108.535 277.214 106.625C273.682 104.624 275.221 88.3394 275.221 88.3394Z" fill="#222323"/>
<path d="M248.503 85.2465C241.529 85.0645 241.077 100.348 249.409 108.445C257.741 116.541 259.824 85.5194 248.503 85.2465Z" fill="#222323"/>
<path d="M272.142 83.7001C272.142 83.7001 251.402 76.6952 247.235 91.3419C243.069 105.989 246.873 121.454 256.564 120.362C270.33 118.998 288.263 91.9787 272.142 83.7001Z" fill="#8F5045"/>
<path d="M263.9 91.2508C263.9 91.2508 268.609 97.346 268.428 105.17C268.428 105.17 271.87 100.894 273.681 104.624C275.493 108.354 268.247 113.812 268.247 113.812C268.247 113.812 279.931 114.449 281.38 99.2565C281.923 92.7974 273.591 86.9751 263.9 91.2508Z" fill="#141515"/>
<path d="M267.975 110.537C266.345 114.813 260.277 122.272 253.847 120.18C253.847 120.18 255.477 126.548 252.76 128.913C252.76 128.913 249.952 133.917 256.383 134.554C264.443 135.463 268.972 128.913 268.972 128.913C265.439 121.09 270.24 111.356 270.24 111.356C268.519 112.447 267.975 110.537 267.975 110.537Z" fill="#703E38"/>
<path d="M258.647 86.9751C258.647 86.9751 255.477 103.441 268.428 105.17C268.428 105.17 273.047 97.346 279.116 102.804C279.116 102.804 285.637 84.8827 270.33 82.0625C270.33 82.0625 267.342 75.2395 255.477 77.4229C238.903 80.425 234.284 100.621 243.522 120.544C243.431 120.544 235.371 84.7007 258.647 86.9751Z" fill="#141515"/>
<path d="M281.199 131.552C279.478 132.552 277.395 133.553 274.949 134.645C230.571 154.568 240.986 135.918 240.986 135.918C240.986 134.554 241.439 133.28 242.254 132.189C242.616 131.643 243.069 131.097 243.613 130.551C247.235 129.368 266.979 123.273 280.293 131.097C280.655 131.188 280.927 131.37 281.199 131.552Z" fill="#703E38"/>
<path d="M281.199 131.552C279.478 132.552 277.395 133.553 274.949 134.645C230.571 154.568 240.986 135.918 240.986 135.918C240.986 134.554 241.439 133.28 242.254 132.188C243.884 132.916 247.145 134.463 248.232 134.736L248.956 137.465L252.76 135.009C252.76 135.009 266.074 135.373 280.383 131.188C280.655 131.188 280.927 131.37 281.199 131.552Z" fill="#8F5045"/>
<path d="M280.021 228.438C280.293 227.346 280.383 226.073 280.293 224.526C280.021 220.978 281.742 218.613 284.187 217.521L274.315 183.861C274.315 183.861 290.98 149.018 291.342 143.287C291.342 143.287 288.444 130.824 272.685 127.094C272.685 127.094 259.824 136.1 252.217 153.931C246.964 166.394 255.658 206.695 261.364 229.803C267.613 229.53 273.772 229.075 280.021 228.438Z" fill="#134754"/>
<path d="M278.029 128.186C278.029 128.186 280.021 134.372 278.572 147.563C278.572 147.563 275.221 145.107 268.972 145.471C268.972 145.471 253.303 163.301 253.122 190.411C253.122 190.411 246.42 164.575 251.22 151.384C256.02 138.284 272.685 123.546 272.685 123.546L278.029 128.186Z" fill="#0E3944"/>
<path d="M208.291 230.349C209.015 230.258 209.74 230.167 210.464 230.167L232.02 185.681C232.02 185.681 231.748 163.21 232.02 156.296C232.292 149.383 246.239 129.187 246.239 129.187C232.654 134.554 226.314 148.928 225.046 156.296C223.778 163.574 226.495 186.863 226.495 186.863C211.008 211.881 208.381 224.799 208.291 230.349Z" fill="#134754"/>
<path d="M232.02 185.681C232.02 185.681 231.838 156.842 236.367 145.198C240.986 133.553 254.3 124.638 254.3 124.638C254.3 124.638 237.544 130.187 231.204 144.47C231.204 144.47 232.744 144.015 234.374 144.197C234.374 144.106 227.401 150.747 232.02 185.681Z" fill="#0E3944"/>
<path d="M291.252 143.287C291.252 143.287 304.928 196.143 300.761 200.6C296.595 205.058 291.523 213.155 284.006 196.143C276.489 179.131 275.221 165.03 275.221 165.03C275.221 165.03 282.467 143.56 291.252 143.287Z" fill="#0E3944"/>
<path d="M281.38 169.032C281.38 169.032 290.98 168.85 293.244 162.482C293.244 162.391 285.818 159.844 281.38 169.032Z" fill="#082930"/>
<path d="M282.104 153.931L285.546 167.941C285.546 167.941 291.342 166.667 292.61 162.937L289.984 153.931H282.104Z" fill="#8F5045"/>
<path d="M285.183 140.467C285.183 140.467 285.183 140.467 282.919 147.108C280.655 153.749 281.923 153.749 284.006 156.842C285.998 159.753 291.704 156.66 293.697 154.75C295.418 153.112 301.305 152.293 302.301 150.565C302.754 149.837 302.029 149.837 300.218 150.383C298.135 151.02 295.961 150.838 295.961 150.838C296.505 148.473 304.384 147.017 304.565 144.379C304.656 143.105 296.686 148.473 295.418 147.654C295.418 147.654 295.508 146.744 299.222 143.833C301.305 142.104 303.569 140.376 303.388 139.557C303.025 138.011 299.222 142.286 293.335 145.289C293.335 145.289 295.327 143.014 297.229 141.104C299.04 139.375 300.852 137.829 300.037 137.101C299.312 136.464 296.595 139.375 294.784 141.104C291.433 144.379 288.263 146.016 286.542 146.744C285.727 147.108 285.274 147.199 285.274 147.199C287.176 140.194 285.183 140.467 285.183 140.467Z" fill="#8F5045"/>
<path d="M285.455 147.199C285.455 147.199 286.995 149.928 286.089 152.112C286.089 152.112 288.897 149.928 286.814 146.744C285.908 147.017 285.455 147.199 285.455 147.199Z" fill="#703E38"/>
<path d="M272.686 127.094C272.686 127.094 259.825 136.101 252.217 153.931C244.609 171.762 260.821 227.619 260.821 227.619C260.821 227.619 270.24 226.437 275.584 219.523L274.225 183.861C274.225 183.861 290.89 149.019 291.252 143.287C291.252 143.287 288.354 130.824 272.686 127.094Z" fill="#134754"/>
<path d="M278.029 128.186C278.029 128.186 280.021 134.372 278.572 147.563C278.572 147.563 275.221 145.107 268.972 145.471C268.972 145.471 253.303 163.302 253.122 190.412C253.122 190.412 246.42 164.575 251.22 151.384C256.02 138.284 272.685 123.546 272.685 123.546L278.029 128.186Z" fill="#0E3944"/>
<path d="M291.252 143.287C291.252 143.287 304.928 196.143 300.761 200.6C296.595 205.058 291.523 213.155 284.006 196.143C276.489 179.131 275.221 165.03 275.221 165.03C275.221 165.03 282.467 143.56 291.252 143.287Z" fill="#0E3944"/>
<path d="M281.38 169.033C281.38 169.033 290.98 168.851 293.244 162.483C293.244 162.392 285.818 159.844 281.38 169.033Z" fill="#082930"/>
<path d="M282.104 153.931L285.546 167.941C285.546 167.941 291.343 166.668 292.61 162.938L289.984 153.931H282.104Z" fill="#8F5045"/>
<path d="M285.183 140.467C285.183 140.467 285.183 140.467 282.919 147.108C280.655 153.749 281.923 153.749 284.006 156.842C285.999 159.753 291.704 156.66 293.697 154.75C295.418 153.112 301.305 152.294 302.301 150.565C302.754 149.837 302.029 149.837 300.218 150.383C298.135 151.02 295.961 150.838 295.961 150.838C296.505 148.473 304.384 147.017 304.565 144.379C304.656 143.105 296.686 148.473 295.418 147.654C295.418 147.654 295.508 146.744 299.222 143.833C301.305 142.105 303.569 140.376 303.388 139.557C303.026 138.011 299.222 142.287 293.335 145.289C293.335 145.289 295.327 143.014 297.229 141.104C299.04 139.376 300.852 137.829 300.037 137.101C299.312 136.464 296.595 139.376 294.784 141.104C291.433 144.379 288.263 146.017 286.542 146.744C285.727 147.108 285.274 147.199 285.274 147.199C287.176 140.194 285.183 140.467 285.183 140.467Z" fill="#8F5045"/>
<path d="M285.455 147.199C285.455 147.199 286.995 149.928 286.089 152.112C286.089 152.112 288.897 149.928 286.814 146.744C285.908 147.017 285.455 147.199 285.455 147.199Z" fill="#703E38"/>
<path d="M258.647 86.9751C258.647 86.9751 255.477 103.441 268.428 105.17C268.428 105.17 273.047 97.346 279.116 102.804C279.116 102.804 285.636 84.8827 270.33 82.0625C270.33 82.0625 267.342 75.2395 255.477 77.4229C238.903 80.425 234.284 100.621 243.522 120.544C243.431 120.544 235.371 84.7007 258.647 86.9751Z" fill="#141515"/>
<path d="M263.9 91.2508C263.9 91.2508 268.609 97.346 268.428 105.17C268.428 105.17 271.87 100.894 273.681 104.624C275.493 108.354 268.247 113.812 268.247 113.812C268.247 113.812 279.931 114.449 281.38 99.2565C281.923 92.7974 273.591 86.9751 263.9 91.2508Z" fill="#141515"/>
<path fill-rule="evenodd" clip-rule="evenodd" d="M48.7988 235.352C46.6252 234.26 44.7232 232.805 43.0024 231.258L36.7532 233.442L30.9568 224.162L35.5758 219.432C34.8512 217.157 34.489 214.792 34.3984 212.427L28.4208 209.607L30.7756 198.872H37.3872C38.474 196.689 39.9231 194.778 41.4628 193.05L39.2891 186.773L48.5271 180.859L53.2367 185.499C55.5009 184.771 57.8557 184.407 60.2105 184.316L63.0182 178.312L73.7053 180.677V187.318C75.8789 188.41 77.7809 189.866 79.5017 191.412L85.7509 189.229L91.6379 198.508L87.0189 203.239C87.7435 205.513 88.1057 207.878 88.1963 210.244L94.1739 213.064L91.8191 223.799H85.2075C84.1207 225.982 82.6716 227.892 81.1319 229.621L83.3056 235.898L74.0676 241.811L69.358 237.172C67.0938 237.899 64.739 238.263 62.3842 238.354L59.5765 244.358L48.8894 241.993L48.7988 235.352ZM58.218 222.798C64.5578 224.253 70.8071 220.251 72.2562 213.882C73.7053 207.514 69.7203 201.237 63.3804 199.782C57.0406 198.326 50.7914 202.329 49.3423 208.697C47.8931 215.065 51.8782 221.342 58.218 222.798Z" fill="#A42A29"/>
<path d="M124.152 204.057C124.152 204.057 123.518 204.057 122.522 203.511C121.526 203.056 120.167 202.055 119.352 200.236C118.899 199.326 118.627 198.235 118.718 197.052C118.809 195.869 119.08 194.596 119.805 193.504C120.167 192.958 120.62 192.412 121.073 191.957C121.616 191.503 122.16 191.139 122.884 190.866C124.152 190.229 125.692 190.138 127.232 190.411C128.681 190.775 130.039 191.594 130.945 192.685C131.398 193.231 131.76 193.868 132.032 194.505C132.303 195.142 132.485 195.778 132.575 196.415C132.756 197.689 132.485 198.962 132.032 200.054C131.579 201.146 130.854 201.965 130.13 202.601C128.59 203.875 126.96 204.148 125.873 204.148C124.786 204.239 124.152 204.057 124.152 204.057C124.152 203.966 124.786 204.148 125.782 204.148C126.869 204.148 128.409 203.784 129.858 202.51C130.583 201.874 131.217 201.055 131.669 200.054C132.122 199.053 132.303 197.78 132.122 196.597C132.032 195.96 131.851 195.323 131.579 194.778C131.307 194.141 130.945 193.595 130.492 193.14C129.586 192.139 128.318 191.321 126.96 191.048C125.601 190.775 124.062 190.866 122.884 191.412C122.25 191.685 121.707 192.048 121.163 192.503C120.711 192.958 120.258 193.413 119.895 193.959C119.171 194.96 118.899 196.233 118.809 197.325C118.718 198.417 118.99 199.508 119.352 200.327C120.167 202.056 121.435 203.056 122.341 203.602C123.609 203.875 124.243 203.966 124.152 204.057Z" fill="#263238"/>
<path d="M118.718 211.335C118.718 211.335 118.718 211.426 118.718 211.608C118.718 211.79 118.718 212.063 118.718 212.336C118.718 212.973 118.718 213.973 118.718 215.247L118.627 215.156C120.258 215.52 122.341 215.975 124.786 216.52L124.696 216.611C125.148 215.52 125.692 214.428 126.326 213.154V213.063H126.416C127.684 212.973 129.043 212.791 130.492 212.336H130.583L130.673 212.427C131.488 213.245 132.484 214.155 133.39 215.156H133.209C134.93 214.064 136.651 212.973 138.553 211.699L138.462 211.881C138.1 210.789 137.647 209.516 137.194 208.242V208.151L137.285 208.06C138.19 207.15 139.005 205.968 139.639 204.694L139.73 204.603H139.821C140.998 204.603 142.356 204.603 143.624 204.603L143.443 204.694C143.896 202.784 144.349 200.6 144.802 198.508L144.892 198.69C143.806 198.144 142.628 197.598 141.451 197.052L141.36 196.961V196.87C141.27 195.597 141.088 194.232 140.636 192.867V192.776L140.726 192.686C141.541 191.867 142.538 190.866 143.443 189.956V190.229C142.356 188.501 141.179 186.681 140.092 184.862L140.364 184.953C139.187 185.317 138.009 185.772 136.741 186.226H136.651L136.56 186.135C135.654 185.226 134.477 184.407 133.209 183.77C133.118 183.679 133.3 183.952 133.118 183.588V183.497V183.406V183.133V182.679V181.678C133.118 181.041 133.118 180.404 133.118 179.767L133.3 179.949C131.216 179.494 129.133 179.04 127.141 178.585L127.322 178.494C126.779 179.676 126.235 180.859 125.692 181.951L125.601 182.042H125.511C124.152 182.133 122.794 182.315 121.526 182.769H121.435L121.344 182.679C120.439 181.769 119.533 180.859 118.627 179.949H118.899C117.088 181.132 115.276 182.224 113.556 183.315L113.646 183.133C114.099 184.407 114.552 185.59 114.914 186.772V186.863L114.824 186.954C113.918 187.955 113.103 189.138 112.469 190.32L112.378 190.411H112.288C111.02 190.411 109.661 190.411 108.484 190.411L108.665 190.32C108.212 192.504 107.669 194.596 107.306 196.506L107.216 196.324C108.393 196.87 109.571 197.416 110.657 197.962H110.748V198.053C110.838 199.509 111.02 200.873 111.472 202.147V202.238L111.382 202.329C110.386 203.329 109.48 204.239 108.665 205.058V204.876C109.933 206.968 111.11 208.788 112.016 210.243H111.925C113.374 209.697 114.552 209.334 115.548 208.97C116.544 209.879 117.45 210.516 117.993 210.88C118.265 211.062 118.537 211.153 118.627 211.244C118.718 211.335 118.718 211.335 118.718 211.335C118.718 211.335 118.627 211.335 118.446 211.244C118.265 211.153 118.084 211.062 117.812 210.88C117.178 210.516 116.363 209.97 115.276 208.97H115.367C114.371 209.334 113.193 209.788 111.744 210.243H111.654V210.152C110.657 208.606 109.571 206.877 108.212 204.785L108.121 204.694L108.212 204.603C109.027 203.784 109.933 202.875 110.929 201.874V201.965C110.567 200.691 110.295 199.327 110.204 197.871L110.295 197.962C109.208 197.416 108.031 196.87 106.853 196.324L106.763 196.233V196.142C107.216 194.141 107.669 192.14 108.121 189.956V189.865H108.212C109.48 189.865 110.748 189.865 112.016 189.865L111.835 189.956C112.469 188.774 113.284 187.591 114.28 186.499V186.681C113.827 185.499 113.465 184.316 113.012 183.042L112.922 182.951L113.012 182.86C114.733 181.769 116.544 180.586 118.356 179.494L118.446 179.403L118.537 179.494C119.443 180.404 120.348 181.314 121.254 182.224L121.073 182.133C122.431 181.678 123.79 181.496 125.148 181.405L124.967 181.496C125.511 180.313 126.054 179.222 126.597 178.039L126.688 177.857H126.869C128.862 178.312 130.945 178.767 133.028 179.222H133.209V179.403C133.209 180.04 133.209 180.677 133.209 181.314V182.315V182.769V183.042V183.133V183.224C133.028 182.86 133.118 183.133 133.118 183.042C134.386 183.679 135.564 184.589 136.56 185.499H136.379C137.647 185.044 138.824 184.589 140.002 184.225L140.183 184.134L140.273 184.225C141.451 186.045 142.628 187.864 143.624 189.592L143.715 189.683L143.624 189.774C142.719 190.684 141.722 191.685 140.907 192.504L140.998 192.322C141.451 193.686 141.632 195.142 141.722 196.415L141.632 196.233C142.809 196.779 143.987 197.416 145.074 197.871L145.164 197.962V198.144C144.711 200.327 144.168 202.42 143.806 204.33V204.421H143.624C142.266 204.421 140.998 204.421 139.821 204.421L140.002 204.33C139.368 205.604 138.462 206.786 137.556 207.787V207.605C138.009 208.879 138.462 210.152 138.824 211.244V211.335L138.734 211.426C136.832 212.609 135.02 213.791 133.39 214.792L133.3 214.883L133.209 214.792C132.303 213.791 131.307 212.882 130.492 212.063H130.583C129.133 212.518 127.775 212.7 126.507 212.791L126.597 212.7C125.963 213.973 125.42 215.156 124.967 216.157V216.248H124.877C122.341 215.702 120.258 215.156 118.718 214.792H118.627V214.701C118.627 213.427 118.627 212.518 118.627 211.881C118.627 211.608 118.627 211.335 118.627 211.153C118.718 211.426 118.718 211.335 118.718 211.335Z" fill="#263238"/>
<path fill-rule="evenodd" clip-rule="evenodd" d="M88.1056 174.673C87.0188 174.127 86.1131 173.4 85.2074 172.672L82.1281 173.764L79.2299 169.124L81.5847 166.759C81.2224 165.667 81.0413 164.484 80.9507 163.302L77.9619 161.846L79.1393 156.57H82.3998C82.9432 155.478 83.6678 154.568 84.3923 153.658L83.3055 150.565L87.9245 147.654L90.2793 150.02C91.3661 149.656 92.5435 149.474 93.7209 149.383L95.17 146.381L100.423 147.563V150.838C101.51 151.384 102.416 152.112 103.321 152.84L106.401 151.748L109.299 156.388L106.944 158.753C107.306 159.845 107.487 161.027 107.578 162.21L110.567 163.665L109.389 168.942H106.129C105.585 170.034 104.861 170.943 104.136 171.853L105.223 174.946L100.604 177.857L98.2494 175.492C97.1625 175.856 95.9851 176.038 94.8077 176.129L93.3586 179.131L88.1056 177.948V174.673ZM92.7246 168.487C95.8946 169.215 98.9739 167.213 99.6985 164.029C100.423 160.845 98.4305 157.752 95.2606 157.024C92.0907 156.297 89.0113 158.298 88.2868 161.482C87.6528 164.666 89.6453 167.759 92.7246 168.487Z" fill="#E7515B"/>
<g opacity="0.4">
<g opacity="0.4">
<g opacity="0.4">
<g opacity="0.4">
<path opacity="0.4" fill-rule="evenodd" clip-rule="evenodd" d="M88.1056 174.673C87.0188 174.127 86.1131 173.4 85.2074 172.672L82.1281 173.764L79.2299 169.124L81.5847 166.759C81.2224 165.667 81.0413 164.484 80.9507 163.302L77.9619 161.846L79.1393 156.57H82.3998C82.9432 155.478 83.6678 154.568 84.3923 153.658L83.3055 150.565L87.9245 147.654L90.2793 150.02C91.3661 149.656 92.5435 149.474 93.7209 149.383L95.17 146.381L100.423 147.563V150.838C101.51 151.384 102.416 152.112 103.321 152.84L106.401 151.748L109.299 156.388L106.944 158.753C107.306 159.845 107.487 161.027 107.578 162.21L110.567 163.665L109.389 168.942H106.129C105.585 170.034 104.861 170.943 104.136 171.853L105.223 174.946L100.604 177.857L98.2494 175.492C97.1625 175.856 95.9851 176.038 94.8077 176.129L93.3586 179.131L88.1056 177.948V174.673ZM92.7246 168.487C95.8946 169.215 98.9739 167.213 99.6985 164.029C100.423 160.845 98.4305 157.752 95.2606 157.024C92.0907 156.297 89.0113 158.298 88.2868 161.482C87.6528 164.666 89.6453 167.759 92.7246 168.487Z" fill="white"/>
</g>
</g>
</g>
</g>
</svg>
