<svg id="Layer_1" data-name="Layer 1" xmlns="http://www.w3.org/2000/svg" viewBox="0 0 400 400"><defs><style>.cls-1{fill:#e0e0e0;}.cls-2{fill:#fafbfb;}.cls-3{fill:#083d56;}.cls-4{fill:#d0d8dc;}.cls-5{fill:#0e5e9a;}.cls-6{fill:#0a527d;}.cls-7{fill:#884638;}.cls-8{fill:#a96050;}.cls-9{fill:#0e3944;}.cls-10{fill:#fff;}.cls-11{fill:#a42a29;}.cls-12{fill:#f4f4f5;}.cls-13{fill:#d1d3d4;}.cls-14{fill:#bcbec0;}.cls-15{fill:#939598;}.cls-16{fill:#a7a9ac;}</style></defs><path class="cls-1" d="M321.93,298.88c-56.56-4.17-280.1-1.95-220.13,2.53,17.27,1.59,82.44,2,132.38,1.86C296.53,302.92,342.92,300.7,321.93,298.88Z"/><path class="cls-2" d="M321.73,148c-53-45-154.45-31.83-210.26,2.81C84.87,167.3,49.18,212.13,61,247c11.27,25.87,26.71,42.32,65.65,45,38,2.6,100.37,2.29,134.38-8.12,33.7-10.32,60.62-36.86,72.38-60.44C345.26,199.68,345.74,168.34,321.73,148Z"/><path class="cls-3" d="M273,151.89a24.21,24.21,0,0,0-1.73-3.5c-.63-1-.77-2.18-1.74-2.93a13.14,13.14,0,0,0-3.81-1.43,16.6,16.6,0,0,0-18.11,7.7c0,.21.6.13.68.05s6.89-2.31,10.2-2.05c1.91.15,13.61,4.75,14.82,6.2.17.21.52,0,.52-.21A10.49,10.49,0,0,0,273,151.89Z"/><g id="freepik--Character--inject-296"><path class="cls-4" d="M224.65,159.26c1.62-4.6,5.44-16.18,6.83-16.29A46,46,0,0,1,252,145.71h0l20.18,6.7c5.19,2.44,15,6.05,25.39,19.83,0,0-3.57,10.54-5.6,15.9s-10.65,12.29-10.65,12.29l-18.8,35.87-21.13,40.57-26-12.19L187.38,250.3l18-34.3,11.16-38.4Z"/></g><path class="cls-5" d="M230.09,143.08c10.74-2.58,28.09,4.38,28.09,4.38s-15.27,1.59-16.83,9.63c-.6,3-.57,13-.57,13l-31.26,101a103.85,103.85,0,0,1-15-8.77,44.81,44.81,0,0,1-9.12-8.9l31.1-75.8s4.67-14.74,6.6-20S230.09,143.08,230.09,143.08Z"/><path class="cls-6" d="M220.06,169.25c-10.81,5.09-33,11.29-36.62,11.26-5.68.31-18.05-62.47-18.05-62.47l15.76-3.62,15.41,43.05S226.8,143.63,231.48,143c0,0-5,7.67-6.7,13.16S220.06,169.25,220.06,169.25Z"/><path class="cls-6" d="M258.18,143.64a21.48,21.48,0,0,0-13.13,3.73,36.57,36.57,0,0,0-11,11,33,33,0,0,0-4.56,10.58.34.34,0,0,0,0,.17l-.27.67c-.14.37.45.53.59.16.79-2,2.1-4.81,4.74-4.65s4.19,2.82,5.42,4.74a.28.28,0,0,0,.28.13c.11.23.49.28.55,0a31.7,31.7,0,0,1,10.82-18.55,46.75,46.75,0,0,1,6.58-4.1C258.46,147.31,258.46,143.66,258.18,143.64Z"/><path class="cls-5" d="M272.22,152.41c5.19,2.44,14.82,5.23,25.39,19.83,0,0-3.57,10.54-5.6,15.9s-8,13.4-8,13.4l-21.41,88.91c-2.81.42-3.72,2-8.48.87-3.31-.76-6.22-1.72-7.7-1.68-2.92.07-2.44,2.64-8,2-8.92-1-12.69-1.51-12.69-1.51l36.07-111.3a58.7,58.7,0,0,0,9.1-10.88A16.54,16.54,0,0,0,272.22,152.41Z"/><path class="cls-6" d="M278.77,154.47a15.67,15.67,0,0,0-4-5.63c-1.78-1.63-5.62-4.08-7.88-4.49,2,1.76,5.2,7.17,4.33,15.11a37.17,37.17,0,0,1-9.38,19.39c.35.22,4.1-3.55,8.45-3.68,2.74.13,5.65,1.19,7,3.78a.29.29,0,0,0,.31.16A.3.3,0,0,0,278,179c1.84-5.22,2.13-10.81,2-16.3A23.22,23.22,0,0,0,278.77,154.47Z"/><path class="cls-7" d="M246.8,140.65l3.88,20.14s5.55,3,18.11-4.41c0,0-5.54-15.47.76-25.88,0,0-1.44,0-3.73.14,0,0-3,11.67-19,10Z"/><path class="cls-8" d="M273.39,120.76c-1.14,23.5-26.41,25.1-31.76,16.08-1.71-2.89-3.16-8.06-3.89-13.65q-.26-1.91-.39-3.84c-.58-8.72,0-13.79,5.83-18.37,11.92-9.32,31.34-3.72,30.21,19.78Z"/><path class="cls-9" d="M264.11,113.19c4.24,2.81,5.5,10.26,5.5,10.26s.63-3.63,2.52-3.92-1.21,11.36-1.21,11.36a18.82,18.82,0,0,0,8.28-16.28c-.34-13.31-13.45-17.5-16-16.61S259.87,110.37,264.11,113.19Z"/><path class="cls-8" d="M268.43,120.31s3.67-4.6,7.3-2-2,11-5.87,10.87-1.43-8.89-1.43-8.89Z"/><path class="cls-9" d="M238,124.8s1.86,3,7.09,2.74c8.86-.38,19.53-3.91,23.1-10.82l.87,2.94s2.09,11.35.64,15l-.79-.42s0,4.68-6.78,7.83S250.54,145,250.54,145s-9.7,1.2-12.06-6.35c0,0-3.91-7.93-.51-13.85Z"/><rect class="cls-10" x="115.52" y="114.3" width="112.1" height="173.99" rx="6.94" transform="matrix(1, -0.08, 0.08, 1, -15.01, 13.83)"/><path class="cls-11" d="M227.25,284.25l-69.82,5.47L140,291.09l-8.72.69a12,12,0,0,1-4.39-.1,7.12,7.12,0,0,1-3.63-2.43,7.26,7.26,0,0,1-1.51-4.11l-.34-4.36-.69-8.73-1.36-17.45-5.48-69.82-2.74-34.91-1.37-17.46-.34-4.36-.17-2.18a8.25,8.25,0,0,1,.16-2.27,7.29,7.29,0,0,1,6.49-5.56l69.82-5.32,17.46-1.33,8.73-.67c.73,0,1.45-.12,2.19-.15a6.72,6.72,0,0,1,2.23.26A7.19,7.19,0,0,1,220,113.3a7.31,7.31,0,0,1,1.51,4.15l.33,4.36.67,8.73L223.82,148l5.32,69.83,2.67,34.91,1.33,17.46.33,4.36a14.48,14.48,0,0,1,0,4.36A7,7,0,0,1,227.25,284.25Zm0,0a7,7,0,0,0,6.2-5.33,14.42,14.42,0,0,0,0-4.35l-.34-4.37-1.37-17.45L229,217.84,223.51,148l-1.36-17.45-.69-8.73-.34-4.36a7,7,0,0,0-1.44-4,6.84,6.84,0,0,0-3.48-2.32,11.59,11.59,0,0,0-4.28-.09l-8.73.69-17.45,1.36-69.82,5.48a6.67,6.67,0,0,0-6,5.09,7.26,7.26,0,0,0-.16,2.08L110,128l.33,4.36,1.33,17.46,2.66,34.91,5.33,69.83L121,272l.67,8.73.33,4.36a7,7,0,0,0,1.45,4,6.84,6.84,0,0,0,3.51,2.36,11.55,11.55,0,0,0,4.31.1l8.73-.67,17.46-1.33Z"/><path class="cls-12" d="M215.5,172.27,123.67,179a1.31,1.31,0,0,1-1.4-1.2L118.88,134a1.29,1.29,0,0,1,1.2-1.4l91.84-6.73a1.3,1.3,0,0,1,1.39,1.2l3.39,43.84A1.29,1.29,0,0,1,215.5,172.27Z"/><path class="cls-12" d="M224.28,277.35l-91.83,6.73a1.31,1.31,0,0,1-1.4-1.2L127.66,239a1.31,1.31,0,0,1,1.21-1.4l91.83-6.73a1.31,1.31,0,0,1,1.4,1.2L225.49,276A1.31,1.31,0,0,1,224.28,277.35Z"/><path class="cls-12" d="M189.42,181.13l26.8-2a1.3,1.3,0,0,1,1.4,1.19L221,224.2a1.31,1.31,0,0,1-1.21,1.4l-40.81,3Z"/><path class="cls-12" d="M178.26,208.24,173.17,229,128,232.33a1.31,1.31,0,0,1-1.4-1.2l-2.14-27.7Z"/><path class="cls-12" d="M124.11,199.31l-.93-12a1.32,1.32,0,0,1,1.21-1.4l60.42-4.42L179.31,204Z"/><ellipse class="cls-1" cx="168.72" cy="214.63" rx="10.9" ry="2.06" transform="translate(-26.89 24.19) rotate(-7.6)"/><path class="cls-13" d="M200.27,267.4l3.48-.66c2.71-.51,5.42-1,8.14-1.51-7.32-.48-14.74-1.09-21.35-1.89-19.3-2.36-20.26-5.15-20.29-5.55.21-7.19,17.73-15.68,30.53-21.88,13.4-6.49,22.25-10.77,21.18-15.45-.8-3.5-4-6.31-51.58-6.42l-4.87,1.52a374.09,374.09,0,0,1,42.64,2.28c10.1,1.31,10.79,3.1,10.84,3.3s.23,1.31-5,4.49c-3.71,2.27-9,4.83-14.59,7.54-15,7.28-32.07,15.54-32.25,24.61v.06c.06,2.83,2.84,6.07,23,8.52C193.39,266.75,196.79,267.1,200.27,267.4Z"/><path class="cls-11" d="M153.15,181.92A12,12,0,0,0,147.47,198c2.87,6,21.3,16.65,21.3,16.65s3.31-21,.44-27A12,12,0,0,0,153.15,181.92Zm7.4,15.5a5.66,5.66,0,1,1,2.67-7.55A5.67,5.67,0,0,1,160.55,197.42Z"/><path class="cls-8" d="M155.39,110.17a2.45,2.45,0,0,0-1.46,1,2.51,2.51,0,0,0-2.89-.72,2.6,2.6,0,0,0-1.56,2.32.34.34,0,0,0-.09.08,2.73,2.73,0,0,0-2.45-.49,2.42,2.42,0,0,0-1.46,2.2c-.37-.82-.88-1.14-1.73-.87-1.33.43-1.13,5.5-.63,6.9a.27.27,0,0,0,.1.13,1.18,1.18,0,0,0,.93.75c.88.11,1.49-.83,1.7-1.5.27-.86.25-2.67.35-2.66.15.4,1.1,3.52,1.28,3.94.64,1.56,1.45,2.07,2.24,1.86,1.63-.43.75-2.35.95-2.75a5.14,5.14,0,0,0,1.09,2.86,1.19,1.19,0,0,0,1.39-.09,2.49,2.49,0,0,0,.76-1.63c.15-.91-.08-3.63.07-4.55.74,1.54.79,2.71,1.54,3.63a1.8,1.8,0,0,0,2.25-.37,4.93,4.93,0,0,0,.33-1.78,42.3,42.3,0,0,0-.28-4.63C157.44,111.19,156.71,109.71,155.39,110.17Z"/><path class="cls-8" d="M217.8,238.14l12.58-.64a16.33,16.33,0,0,0,1.38-6.75,10,10,0,0,0-1.41-5.42l-13.23-5.91c-.7-.43-1.48-.91-2.33-1.49a10.52,10.52,0,0,1-2.59-2.48,16.15,16.15,0,0,1-2.31-3.82c-.42-1.3-2.18-1.45-2.57-.29s.68,4.78,3.63,8.08-3.83,2.13-6.3,1.74-10.18-1.18-10.88-.51c-1,1-.13,2.29,2.33,2.61s9.87,1.8,9.64,3.1v0a5.35,5.35,0,0,0-1.67,6c.76,2.08,2,4.78,3.57,5C210.53,237.68,217.8,238.14,217.8,238.14Z"/><path class="cls-6" d="M226.33,222.24s2.94,1.09,3.3,7.32c.35,6-3,9-3,9s63.45,2.92,65.38-2.84,5.62-63.52,5.62-63.52a30.92,30.92,0,0,0-11.54,3.41,20.88,20.88,0,0,0-10.33,14.87l-2.11,31.15Z"/><polygon class="cls-13" points="189.42 143.17 167.81 131.39 149.11 146.48 151.3 173.44 191.65 170.13 189.42 143.17"/><polygon class="cls-14" points="189.42 143.17 167.81 131.39 149.11 146.48 189.42 143.17"/><polygon class="cls-13" points="155.71 143.84 168.04 133.89 182.28 141.66 155.71 143.84"/><polygon class="cls-13" points="189.42 143.17 149.11 146.48 151.3 173.44 191.65 170.13 189.42 143.17"/><polygon class="cls-15" points="151.02 170.05 149.28 148.56 189.59 145.26 191.38 166.74 151.02 170.05"/><rect class="cls-13" x="156.98" y="149.07" width="5" height="20.25" transform="translate(-12.48 13.57) rotate(-4.69)"/><rect class="cls-13" x="167.77" y="148.19" width="5" height="20.25" transform="translate(-12.37 14.45) rotate(-4.69)"/><rect class="cls-13" x="178.57" y="147.3" width="5" height="20.25" transform="translate(-12.26 15.33) rotate(-4.69)"/><rect class="cls-16" x="155.73" y="147.8" width="5.79" height="2.12" transform="translate(-11.64 13.46) rotate(-4.69)"/><rect class="cls-16" x="166.53" y="146.91" width="5.79" height="2.12" transform="translate(-11.53 14.34) rotate(-4.69)"/><rect class="cls-16" x="177.32" y="146.03" width="5.79" height="2.12" transform="translate(-11.42 15.22) rotate(-4.69)"/></svg>